<?xml version="1.0" encoding="UTF-8"?>
<svg id="Warstwa_2" data-name="Warstwa 2" xmlns="http://www.w3.org/2000/svg" xmlns:xlink="http://www.w3.org/1999/xlink" viewBox="0 0 140 140">
  <defs>
    <style>
      .cls-1 {
        stroke: #fdd203;
        stroke-width: 3.2px;
      }

      .cls-1, .cls-2, .cls-3 {
        stroke-miterlimit: 10;
      }

      .cls-1, .cls-3 {
        fill: none;
      }

      .cls-4 {
        fill: #000;
      }

      .cls-4, .cls-5, .cls-6 {
        stroke-width: 0px;
      }

      .cls-7 {
        opacity: .47;
      }

      .cls-7, .cls-6 {
        isolation: isolate;
      }

      .cls-2, .cls-3 {
        stroke: #ca151a;
        stroke-width: 3.02px;
      }

      .cls-2, .cls-6 {
        fill: #fff;
      }

      .cls-5 {
        fill: #fdd203;
      }

      .cls-6 {
        opacity: .56;
      }
    </style>
  </defs>
  <g id="Warstwa_1-2" data-name="Warstwa 1">
    <g>
      <circle class="cls-6" cx="70.15" cy="69.69" r="50.8"/>
      <circle class="cls-2" cx="70.15" cy="69.69" r="50.8"/>
      <g>
        <circle class="cls-3" cx="70.15" cy="69.69" r="50.8"/>
        <g>
          <image class="cls-7" width="141" height="141" transform="" xlink:href="../wzorpodstona-kontakt-ofirmie/675335FA78198B0B.png"/>
          <circle class="cls-1" cx="70.15" cy="69.69" r="54"/>
        </g>
        <path class="cls-5" d="M57.05,43.59v6.6h6.4v3.1h-6.4v6.6h-3.4v-6.6h-6.4v-3.1h6.4v-6.6h3.4Z"/>
        <g>
          <path class="cls-4" d="M76.55,61.99l5.1,5.1c.3.3.7.6,1,.8,1.4.8,2.5.6,3.6-.4l.6-.6c.1-.1.1-.3.1-.4-.3-.5-1.4-1.3-2-1.7-.1-.1-.2-.1-.2-.1v.1c-.6.8-.8.9-.8.9-.9.6-1.9.5-2.7-.3l-2.9-2.9c-.8-.8-.9-1.8-.3-2.7,0-.1.2-.2.9-.8l.1-.1s0-.1-.1-.2c-.4-.6-1.1-1.7-1.7-2-.1-.1-.3,0-.4.1l-.6.6c-1,1-1.2,2-.6,3.3.1.5.5.9.9,1.3Z"/>
          <path class="cls-4" d="M81.15,73.59c6.1,0,11-5,11-11s-5-11-11-11c-4.5,0-8.4,2.7-10.1,6.7-.5-.1-1-.2-1.6-.2-4.7,0-8.4,4-8.4,8.9v3.4c0,2.3.8,4.8,2,6.8l-.7,2.1c-.1.2,0,.3,0,.5-2.1.4-4.5,1.3-7.6,3-1,.5-1.7,1.6-1.7,2.7v4.4c0,.4.3.6.6.6h31.2c.4,0,.6-.3.6-.6v-4.4c0-1.2-.6-2.2-1.7-2.7-3.1-1.6-5.4-2.5-7.6-3,.1-.2.1-.3,0-.5l-.7-2.1c.8-1.3,1.4-2.7,1.7-4.2,1.5.4,2.7.6,4,.6ZM75.25,56.49l.6-.6c.5-.5,1.3-.6,1.9-.3,1,.5,2.1,2.3,2.2,2.5.2.4.3.9.2,1.2s-.3.5-.5.7c-.3.2-.6.5-.6.6-.3.4-.2.7.1,1l2.9,2.9c.4.4.6.4,1.1.1.1,0,.3-.4.5-.6.2-.3.4-.5.7-.5.4-.1.8,0,1.2.2.2.1,1.9,1.2,2.5,2.2.3.6.2,1.4-.3,1.9l-.6.6c-.9.9-1.8,1.3-2.9,1.3-.7,0-1.5-.2-2.2-.6-.5-.2-.9-.6-1.3-1l-5.1-5.1c-.5-.5-.9-1.1-1.2-1.6-.9-1.9-.6-3.5.8-4.9ZM64.05,79.89h0l-.3-.5.3-.9h0l.1.1c.1.2.3.3.5.5.1.1.2.2.2.2.1.1.2.2.4.3.1.1.2.2.3.2.1.1.3.2.5.3.1.1.3.2.5.3.1.1.2.1.3.2.1.1.2.1.4.2.1.1.3.1.4.2.1,0,.2.1.3.1.2.1.4.1.6.1l-1.6,2.8-2.9-4.1ZM69.45,82.09l1.5,2.6h-3l1.5-2.6ZM66.35,89.19l.9-3.2h4.2l.9,3.2h-6ZM74.85,79.89h0l-2.8,4.2-1.6-2.8h.2c1.6-.4,3.1-1.4,4.2-2.7l.3.8-.3.5ZM74.45,76.89c-.1.2-.3.4-.4.6l-.1.1c-.8.9-1.6,1.6-2.5,2h0c-.2.1-.4.2-.6.3h-.1c-.2.1-.4.1-.6.1h-.1c-.2,0-.5.1-.7.1s-.5,0-.7-.1c-1.4-.2-2.7-1.1-3.9-2.5,0-.1-.1-.1-.1-.2-.1-.2-.3-.3-.4-.5-1.3-1.9-2-4.3-2-6.5v-3.4c0-4.2,3.2-7.6,7.1-7.6.4,0,.7,0,1.1.1-.1.4-.2.8-.3,1.3,0,.2-.1.4-.1.5v1.4c0,.3,0,.7.1,1v.3c0,.3.1.6.1.8v.2c.1.3.2.7.2,1v.1c.1.3.2.6.3.9v.1c1,2.3,2.7,4.2,4.9,5.4h.1c.1.1.3.2.4.2-.1,1.4-.8,3-1.7,4.3Z"/>
        </g>
      </g>
    </g>
  </g>
</svg>