<?xml version="1.0" encoding="UTF-8" standalone="no"?>
<svg
   id="Warstwa_1"
   viewBox="0 0 90 90"
   version="1.1"
   xmlns="http://www.w3.org/2000/svg"
   xmlns:svg="http://www.w3.org/2000/svg">
  <defs
     id="defs10">
    <style
       id="style2">.cls-1{clip-path:url(#clippath);}.cls-2,.cls-3,.cls-4,.cls-5,.cls-6{stroke-width:0px;}.cls-2,.cls-7,.cls-8{fill:none;}.cls-3{fill:#fdd203;}.cls-9{clip-path:url(#clippath-1);}.cls-4,.cls-10{fill:#000;}.cls-10{font-family:Poppins-MediumItalic, Poppins;font-size:5.76px;font-style:italic;font-weight:500;}.cls-7{stroke:#ca151a;stroke-width:1.4px;}.cls-7,.cls-8{stroke-miterlimit:10;}.cls-5{fill:#ca151a;}.cls-6{fill:#fff;}.cls-8{stroke:#fdd203;stroke-width:1.32px;}</style>
    <clipPath
       id="clippath">
      <rect
         class="cls-2"
         x="38.78"
         y="34.76"
         width="31.34"
         height="6.24"
         id="rect4" />
    </clipPath>
    <clipPath
       id="clippath-1">
      <rect
         class="cls-2"
         x="38.78"
         y="34.76"
         width="31.34"
         height="6.24"
         id="rect7" />
    </clipPath>
  </defs>
  <path
     class="cls-7"
     d="M61.76,21.25c13,0,23.54,10.54,23.54,23.54"
     id="path12" />
  <path
     class="cls-7"
     d="M38.22,44.79c0-13,10.54-23.54,23.54-23.54"
     id="path14" />
  <path
     class="cls-7"
     d="M61.76,68.33c-13,0-23.54-10.54-23.54-23.54"
     id="path16" />
  <path
     class="cls-7"
     d="M85.3,44.79c0,13-10.54,23.54-23.54,23.54"
     id="path18" />
  <path
     class="cls-8"
     d="M61.76,22.62c12.24,0,22.17,9.92,22.17,22.17"
     id="path20" />
  <path
     class="cls-8"
     d="M39.59,44.79c0-12.24,9.92-22.17,22.17-22.17"
     id="path22" />
  <path
     class="cls-8"
     d="M61.76,66.95c-12.24,0-22.17-9.92-22.17-22.17"
     id="path24" />
  <path
     class="cls-8"
     d="M83.93,44.79c0,12.24-9.92,22.17-22.17,22.17"
     id="path26" />
  <rect
     class="cls-6"
     x="5.37"
     y="30.98"
     width="73.1"
     height="27.61"
     rx="5.83"
     ry="5.83"
     id="rect28" />
  <g
     aria-label="Wholesaleand export of productsto the European market!"
     transform="translate(5.22 40.43)"
     id="text36"
     class="cls-10"
     style="font-style:italic;font-weight:500;font-size:5.76px;font-family:Poppins-MediumItalic, Poppins">
    <path
       d="M 6.0537602,-4.0032002 4.1587202,0 H 3.4156801 L 3.1046401,-3.0297601 1.6819201,0 0.94464004,0.00576 0.51840002,-4.0032002 H 1.21536 l 0.2534401,3.26016017 1.47456,-3.26016017 h 0.73728 l 0.2649601,3.24288017 1.40544,-3.24288017 z"
       id="path546" />
    <path
       d="m 8.0985635,-3.2256001 q 0.47808,0 0.76608,0.27072 0.288,0.26496 0.288,0.76032 0,0.13248 -0.0288,0.32256 L 8.7897635,0 h -0.65088 l 0.3168,-1.7740801 q 0.02304,-0.16128 0.02304,-0.2304 0,-0.3168 -0.17856,-0.48384 -0.1728,-0.16704 -0.48384,-0.16704 -0.3744001,0 -0.6336001,0.2304 -0.25344,0.22464 -0.32256,0.65088 v -0.01152 L 6.5433634,0 h -0.65664 l 0.75456,-4.2624002 h 0.65664 l -0.2592,1.4572801 q 0.2016,-0.2016 0.47808,-0.31104 0.2764801,-0.10944 0.5817601,-0.10944 z"
       id="path548" />
    <path
       d="m 11.013125,0.05184 q -0.4032,0 -0.70848,-0.16704 -0.3052799,-0.16704001 -0.4780799,-0.47232002 -0.16704,-0.30528002 -0.16704,-0.69696008 0,-0.53568 0.24768,-0.9792 0.2534399,-0.44352 0.6911999,-0.70272 0.44352,-0.2592 0.98496,-0.2592 0.4032,0 0.71424,0.1728 0.31104,0.16704 0.48384,0.47232 0.17856,0.29952 0.17856,0.69696 0,0.53568 -0.2592,0.97920006 -0.2592,0.44352002 -0.70272,0.70272003 Q 11.554565,0.05184 11.013125,0.05184 Z m 0.08064,-0.55296002 q 0.32832,0 0.59904,-0.18432001 0.27648,-0.19008 0.432,-0.49535997 0.15552,-0.3110401 0.15552,-0.6624001 0,-0.39744 -0.22464,-0.61056 -0.22464,-0.21888 -0.56448,-0.21888 -0.33408,0 -0.59904,0.19008 -0.2592,0.18432 -0.40896,0.50112 -0.144,0.31104 -0.144,0.66816 0,0.38592006 0.20736,0.59904007 0.21312,0.21312001 0.5472,0.21312001 z"
       id="path550" />
    <path
       d="M 14.711048,-4.2624002 13.956488,0 h -0.65664 l 0.75456,-4.2624002 z"
       id="path552" />
    <path
       d="m 16.755847,-3.2256001 q 0.59328,0 0.94464,0.33408 0.35712,0.33408 0.35712,0.89856 0,0.13248 -0.0288,0.3168 -0.02304,0.12672 -0.08064,0.31104 h -2.42496 q -0.0058,0.04032 -0.0058,0.1209601 0,0.33983996 0.20736,0.54143997 0.21312,0.20160001 0.55296,0.20160001 0.53568,0 0.82368,-0.44352002 h 0.70848 q -0.21888,0.43776002 -0.64512,0.72000003 -0.42624,0.27648001 -0.98496,0.27648001 -0.39744,0 -0.69696,-0.15552 -0.29952,-0.15552001 -0.46656,-0.44352002 -0.16704,-0.29376001 -0.16704,-0.68543998 0,-0.1670401 0.03456,-0.3571201 0.0864,-0.4896 0.35136,-0.85824 0.26496,-0.3744 0.65664,-0.576 0.39744,-0.2016 0.864,-0.2016 z m 0.61632,1.38816 q 0.01152,-0.10368 0.01152,-0.14976 0,-0.3168 -0.21312,-0.50112 -0.20736,-0.18432 -0.54144,-0.18432 -0.35136,0 -0.6336,0.22464 -0.28224,0.22464 -0.38592,0.61056 z"
       id="path554" />
    <path
       d="m 19.54369,0.05184 q -0.32832,0 -0.59904,-0.10944 -0.27072,-0.11520001 -0.42624,-0.31680001 -0.15552,-0.20736001 -0.15552,-0.47232002 0,-0.04608 0.01152,-0.12672001 h 0.63936 q -0.02304,0.21888001 0.13248,0.36288002 0.15552,0.144 0.43776,0.144 0.27648,0 0.45504,-0.09792 0.17856,-0.09792 0.17856,-0.28800001 0,-0.16127997 -0.14976,-0.25919997 -0.144,-0.09792 -0.46656,-0.2188801 -0.30528,-0.12096 -0.49536,-0.22464 -0.19008,-0.10368 -0.32832,-0.28224 -0.13824,-0.18432 -0.13824,-0.45504 0,-0.27648 0.15552,-0.48384 0.16128,-0.21312 0.44352,-0.32832 0.288,-0.12096 0.65664,-0.12096 0.33408,0 0.59328,0.1152 0.26496,0.10944 0.40896,0.3168 0.14976,0.2016 0.14976,0.46656 0,0.08064 -0.0058,0.12096 h -0.62208 q 0.02304,-0.22464 -0.13248,-0.36288 -0.14976,-0.13824 -0.432,-0.13824 -0.24768,0 -0.4032,0.10368 -0.14976,0.10368 -0.14976,0.28224 0,0.17856 0.15552,0.288 0.15552,0.10368 0.47808,0.2304 0.29376,0.1152 0.47808,0.21888 0.18432,0.10368 0.3168,0.27648 0.13248,0.1728001 0.13248,0.43200007 0,0.28224001 -0.1728,0.49536001 -0.16704,0.20736001 -0.46656,0.32256002 -0.29952,0.10944 -0.67968,0.10944 z"
       id="path556" />
    <path
       d="m 21.513612,-1.6012801 q 0.0864,-0.47808 0.3456,-0.84672 0.26496,-0.36864 0.64512,-0.57024 0.38016,-0.20736 0.79488,-0.20736 0.3744,0 0.62784,0.14976 0.25344,0.144 0.38016,0.36288 l 0.08064,-0.4608 h 0.6624 L 24.491532,0 h -0.6624 l 0.0864,-0.47232002 q -0.20736,0.22464001 -0.52416,0.37440002 -0.31104,0.14976 -0.67968,0.14976 -0.35712,0 -0.63936,-0.16128 -0.27648,-0.16128001 -0.43776,-0.45504002 -0.15552,-0.29952001 -0.15552,-0.68543998 0,-0.1728001 0.03456,-0.3513601 z m 2.59776,0.01152 q 0.02304,-0.10944 0.02304,-0.23616 0,-0.38592 -0.2304,-0.6048 -0.22464,-0.22464 -0.56448,-0.22464 -0.25344,0 -0.49536,0.12672 -0.24192,0.12096 -0.42048,0.36288 -0.17856,0.23616 -0.23616,0.56448 -0.02304,0.10944 -0.02304,0.23616 0,0.39168006 0.22464,0.62208007 0.2304,0.22464001 0.57024,0.22464001 0.25344,0 0.49536,-0.12672001 0.24192,-0.12672 0.42048,-0.36863997 0.17856,-0.2476801 0.23616,-0.5760001 z"
       id="path558" />
    <path
       d="M 26.766729,-4.2624002 26.012169,0 h -0.65664 l 0.75456,-4.2624002 z"
       id="path560" />
    <path
       d="m 28.811531,-3.2256001 q 0.59328,0 0.94464,0.33408 0.35712,0.33408 0.35712,0.89856 0,0.13248 -0.0288,0.3168 -0.02304,0.12672 -0.08064,0.31104 h -2.42496 q -0.0058,0.04032 -0.0058,0.1209601 0,0.33983996 0.20736,0.54143997 0.21312,0.20160001 0.55296,0.20160001 0.53568,0 0.82368,-0.44352002 h 0.70848 q -0.21888,0.43776002 -0.64512,0.72000003 -0.42624,0.27648001 -0.98496,0.27648001 -0.39744,0 -0.69696,-0.15552 -0.29952,-0.15552001 -0.46656,-0.44352002 Q 26.90497,-0.84096003 26.90497,-1.23264 q 0,-0.1670401 0.03456,-0.3571201 0.0864,-0.4896 0.351361,-0.85824 0.26496,-0.3744 0.65664,-0.576 0.39744,-0.2016 0.864,-0.2016 z m 0.61632,1.38816 q 0.01152,-0.10368 0.01152,-0.14976 0,-0.3168 -0.21312,-0.50112 -0.20736,-0.18432 -0.54144,-0.18432 -0.35136,0 -0.6336,0.22464 -0.28224,0.22464 -0.38592,0.61056 z"
       id="path562" />
    <path
       d="m 0.19584001,5.3087198 q 0.0864,-0.47808 0.34560001,-0.84672 Q 0.80640003,4.0933597 1.18656,3.8917597 q 0.3801601,-0.20736 0.7948801,-0.20736 0.3744,0 0.62784,0.14976 0.25344,0.144 0.38016,0.36288 l 0.08064,-0.4608 h 0.6624 l -0.55872,3.1737601 h -0.6624 l 0.0864,-0.47232 q -0.20736,0.22464 -0.52416,0.3744 -0.31104,0.14976 -0.67968,0.14976 -0.3571201,0 -0.63936007,-0.16128 -0.27648001,-0.16128 -0.43776002,-0.45504 -0.15552,-0.29952 -0.15552,-0.68544 0,-0.1728 0.03456,-0.35136 z m 2.59776009,0.01152 q 0.02304,-0.10944 0.02304,-0.23616 0,-0.38592 -0.2304,-0.6048 -0.22464,-0.2246401 -0.56448,-0.2246401 -0.25344,0 -0.49536,0.12672 -0.24192,0.1209601 -0.4204801,0.3628801 -0.17855996,0.23616 -0.23615997,0.56448 -0.02304,0.10944 -0.02304,0.23616 0,0.39168 0.22463997,0.62208 0.2304001,0.22464 0.5702401,0.22464 0.25344,0 0.49536,-0.12672 0.24192,-0.12672 0.42048,-0.36864 0.17856,-0.24768 0.23616,-0.576 z"
       id="path564" />
    <path
       d="m 6.2092773,3.6843997 q 0.5011201,0 0.7948801,0.27072 0.29952,0.26496 0.29952,0.7660801 0,0.12672 -0.0288,0.3168 l -0.33408,1.872 H 6.2899173 l 0.3168001,-1.77408 q 0.02304,-0.16128 0.02304,-0.2304 0,-0.3168 -0.17856,-0.4838401 -0.1728001,-0.16704 -0.4838401,-0.16704 -0.3744,0 -0.6336,0.2304001 -0.25344,0.22464 -0.32256,0.65088 v -0.01728 l -0.3168,1.79136 h -0.65664 l 0.55872,-3.1737601 h 0.65664 l -0.06336,0.36864 q 0.19584,-0.19584 0.4608,-0.30528 0.27072,-0.1152 0.55872,-0.1152 z"
       id="path566" />
    <path
       d="m 7.8393585,5.3087198 q 0.0864,-0.47808 0.3456,-0.84672 0.26496,-0.3686401 0.64512,-0.5702401 0.38016,-0.20736 0.80064,-0.20736 0.31104,0 0.5875205,0.13824 0.27648,0.13248 0.42048,0.35712 l 0.27072,-1.53216 h 0.6624 l -0.75456,4.2624001 h -0.6624 l 0.0864,-0.47808 q -0.20736,0.23616 -0.5184005,0.38592 -0.30528,0.144 -0.67392,0.144 -0.36288,0 -0.64512,-0.16128 -0.28224,-0.16128 -0.44352,-0.45504 -0.15552,-0.29952 -0.15552,-0.68544 0,-0.1728 0.03456,-0.35136 z m 2.5977605,0.01152 q 0.02304,-0.10944 0.02304,-0.23616 0,-0.38592 -0.2304,-0.6048 -0.22464,-0.2246401 -0.5644805,-0.2246401 -0.25344,0 -0.49536,0.12672 -0.24192,0.1209601 -0.42048,0.3628801 -0.17856,0.23616 -0.23616,0.56448 -0.02304,0.10944 -0.02304,0.23616 0,0.39168 0.22464,0.62208 0.2304,0.22464 0.57024,0.22464 0.25344,0 0.49536,-0.12672 0.2419205,-0.12672 0.4204805,-0.36864 0.17856,-0.24768 0.23616,-0.576 z"
       id="path568" />
    <path
       d="m 15.344632,3.6843997 q 0.59328,0 0.94464,0.33408 0.35712,0.33408 0.35712,0.8985601 0,0.13248 -0.0288,0.3168 -0.02304,0.12672 -0.08064,0.31104 h -2.42496 q -0.0058,0.04032 -0.0058,0.12096 0,0.33984 0.20736,0.54144 0.21312,0.2016 0.55296,0.2016 0.53568,0 0.82368,-0.44352 h 0.70848 q -0.21888,0.43776 -0.64512,0.72 -0.42624,0.27648 -0.98496,0.27648 -0.39744,0 -0.69696,-0.15552 -0.29952,-0.15552 -0.46656,-0.44352 -0.16704,-0.29376 -0.16704,-0.68544 0,-0.16704 0.03456,-0.35712 0.0864,-0.4896 0.35136,-0.85824 0.26496,-0.3744001 0.65664,-0.5760001 0.39744,-0.2016 0.864,-0.2016 z m 0.61632,1.3881601 q 0.01152,-0.10368 0.01152,-0.14976 0,-0.3168 -0.21312,-0.5011201 -0.20736,-0.18432 -0.54144,-0.18432 -0.35136,0 -0.6336,0.2246401 -0.28224,0.22464 -0.38592,0.61056 z"
       id="path570" />
    <path
       d="m 18.610555,5.2971998 0.73728,1.6128 h -0.74304 l -0.49536,-1.07712 -0.8352,1.07712 h -0.68544 l 1.30176,-1.56096 -0.74304,-1.6128001 h 0.74304 l 0.49536,1.0771201 0.8352,-1.0771201 h 0.68544 z"
       id="path572" />
    <path
       d="m 20.972158,4.2027997 q 0.20736,-0.21888 0.5184,-0.36864 0.3168,-0.14976 0.67968,-0.14976 0.36288,0 0.64512,0.15552 0.28224,0.15552 0.43776,0.44352 0.15552,0.2880001 0.15552,0.6739201 0,0.16704 -0.03456,0.35136 -0.0864,0.47808 -0.35136,0.85824 -0.2592,0.3744 -0.63936,0.58752 -0.3744,0.20736 -0.78912,0.20736 -0.36288,0 -0.62208,-0.144 -0.25344,-0.14976 -0.39744,-0.36864 l -0.3456,1.9699201 h -0.65664 l 0.82368,-4.6828802 h 0.65664 z m 1.73376,1.1059201 q 0.02304,-0.10944 0.02304,-0.23616 0,-0.38592 -0.2304,-0.59904 -0.22464,-0.2188801 -0.57024,-0.2188801 -0.24768,0 -0.49536,0.12672 -0.24192,0.1267201 -0.42048,0.3686401 -0.17856,0.24192 -0.23616,0.57024 -0.02304,0.10944 -0.02304,0.23616 0,0.38592 0.22464,0.61056 0.2304,0.22464 0.57024,0.22464 0.25344,0 0.49536,-0.12672 0.24768,-0.13248 0.42624,-0.38016 0.17856,-0.24768 0.23616,-0.576 z"
       id="path574" />
    <path
       d="m 25.130875,6.9618398 q -0.4032,0 -0.70848,-0.16704 -0.30528,-0.16704 -0.47808,-0.47232 -0.16704,-0.30528 -0.16704,-0.69696 0,-0.53568 0.24768,-0.9792 0.25344,-0.4435201 0.6912,-0.7027201 0.44352,-0.2592 0.98496,-0.2592 0.4032,0 0.71424,0.1728 0.31104,0.16704 0.48384,0.47232 0.17856,0.2995201 0.17856,0.6969601 0,0.53568 -0.2592,0.9792 -0.2592,0.44352 -0.70272,0.70272 -0.44352,0.25344 -0.98496,0.25344 z m 0.08064,-0.55296 q 0.32832,0 0.59904,-0.18432 0.27648,-0.19008 0.432,-0.49536 0.15552,-0.31104 0.15552,-0.6624 0,-0.39744 -0.22464,-0.6105601 -0.22464,-0.21888 -0.56448,-0.21888 -0.33408,0 -0.59904,0.19008 -0.2592,0.1843201 -0.40896,0.5011201 -0.144,0.31104 -0.144,0.66816 0,0.38592 0.20736,0.59904 0.21312,0.21312 0.5472,0.21312 z"
       id="path576" />
    <path
       d="m 28.535038,4.2949597 q 0.19584,-0.288 0.4608,-0.44928 0.27072,-0.16128 0.59904,-0.16128 l -0.12096,0.67968 h -0.16704 q -0.38016,0 -0.61056,0.1900801 -0.2304,0.19008 -0.32256,0.65664 l -0.29952,1.6992 h -0.65664 l 0.55872,-3.1737601 h 0.65664 z"
       id="path578" />
    <path
       d="m 30.551044,6.0287198 q -0.01152,0.08064 -0.01152,0.10368 0,0.12096 0.07488,0.17856 0.07488,0.05184 0.24768,0.05184 h 0.4032 l -0.09792,0.5472 h -0.5184 q -0.38016,0 -0.58176,-0.14976 -0.2016,-0.15552 -0.2016,-0.4896 0,-0.12672 0.02304,-0.24192 l 0.31104,-1.7568001 h -0.3744 l 0.09216,-0.53568 h 0.38016 l 0.13824,-0.78912 h 0.6624 l -0.13824,0.78912 h 0.76608 l -0.09216,0.53568 h -0.77184 z"
       id="path580" />
    <path
       d="m 34.888316,6.9618398 q -0.4032,0 -0.70848,-0.16704 -0.30528,-0.16704 -0.47808,-0.47232 -0.16704,-0.30528 -0.16704,-0.69696 0,-0.53568 0.24768,-0.9792 0.25344,-0.4435201 0.6912,-0.7027201 0.44352,-0.2592 0.98496,-0.2592 0.4032,0 0.71424,0.1728 0.31104,0.16704 0.48384,0.47232 0.17856,0.2995201 0.17856,0.6969601 0,0.53568 -0.2592,0.9792 -0.2592,0.44352 -0.70272,0.70272 -0.44352,0.25344 -0.98496,0.25344 z m 0.08064,-0.55296 q 0.32832,0 0.59904,-0.18432 0.27648,-0.19008 0.432,-0.49536 0.15552,-0.31104 0.15552,-0.6624 0,-0.39744 -0.22464,-0.6105601 -0.22464,-0.21888 -0.56448,-0.21888 -0.33408,0 -0.59904,0.19008 -0.2592,0.1843201 -0.40896,0.5011201 -0.144,0.31104 -0.144,0.66816 0,0.38592 0.20736,0.59904 0.21312,0.21312 0.5472,0.21312 z"
       id="path582" />
    <path
       d="m 39.150721,3.0104797 q -0.29952,0 -0.44352,0.1152 -0.144,0.1152 -0.19008,0.38592 l -0.04032,0.22464 h 0.58752 l -0.09216,0.53568 h -0.58752 l -0.46656,2.6380801 h -0.6624 l 0.46656,-2.6380801 h -0.3744 l 0.09216,-0.53568 h 0.3744 l 0.04032,-0.22464 q 0.09792,-0.5472 0.432,-0.79488 0.33408,-0.25344 0.95616,-0.25344 z"
       id="path584" />
    <path
       d="m 41.95008,4.2027997 q 0.20736,-0.21888 0.5184,-0.36864 0.3168,-0.14976 0.67968,-0.14976 0.362881,0 0.645121,0.15552 0.28224,0.15552 0.43776,0.44352 0.15552,0.2880001 0.15552,0.6739201 0,0.16704 -0.03456,0.35136 -0.0864,0.47808 -0.35136,0.85824 -0.2592,0.3744 -0.63936,0.58752 -0.374401,0.20736 -0.789121,0.20736 -0.36288,0 -0.62208,-0.144 -0.25344,-0.14976 -0.39744,-0.36864 l -0.3456,1.9699201 H 40.5504 l 0.82368,-4.6828802 h 0.65664 z m 1.733761,1.1059201 q 0.02304,-0.10944 0.02304,-0.23616 0,-0.38592 -0.2304,-0.59904 -0.22464,-0.2188801 -0.570241,-0.2188801 -0.24768,0 -0.49536,0.12672 -0.24192,0.1267201 -0.42048,0.3686401 -0.17856,0.24192 -0.23616,0.57024 -0.02304,0.10944 -0.02304,0.23616 0,0.38592 0.22464,0.61056 0.2304,0.22464 0.57024,0.22464 0.25344,0 0.49536,-0.12672 0.247681,-0.13248 0.426241,-0.38016 0.17856,-0.24768 0.23616,-0.576 z"
       id="path586" />
    <path
       d="m 45.838078,4.2949597 q 0.19584,-0.288 0.4608,-0.44928 0.27072,-0.16128 0.59904,-0.16128 l -0.12096,0.67968 h -0.16704 q -0.38016,0 -0.61056,0.1900801 -0.2304,0.19008 -0.32256,0.65664 l -0.29952,1.6992 h -0.65664 l 0.55872,-3.1737601 h 0.65664 z"
       id="path588" />
    <path
       d="m 48.320643,6.9618398 q -0.4032,0 -0.70848,-0.16704 -0.30528,-0.16704 -0.47808,-0.47232 -0.16704,-0.30528 -0.16704,-0.69696 0,-0.53568 0.24768,-0.9792 0.25344,-0.4435201 0.6912,-0.7027201 0.44352,-0.2592 0.98496,-0.2592 0.4032,0 0.71424,0.1728 0.31104,0.16704 0.48384,0.47232 0.17856,0.2995201 0.17856,0.6969601 0,0.53568 -0.2592,0.9792 -0.2592,0.44352 -0.70272,0.70272 -0.44352,0.25344 -0.98496,0.25344 z m 0.08064,-0.55296 q 0.32832,0 0.59904,-0.18432 0.27648,-0.19008 0.432,-0.49536 0.15552,-0.31104 0.15552,-0.6624 0,-0.39744 -0.22464,-0.6105601 -0.22464,-0.21888 -0.56448,-0.21888 -0.33408,0 -0.59904,0.19008 -0.2592,0.1843201 -0.40896,0.5011201 -0.144,0.31104 -0.144,0.66816 0,0.38592 0.20736,0.59904 0.21312,0.21312 0.5472,0.21312 z"
       id="path590" />
    <path
       d="m 50.670724,5.3087198 q 0.0864,-0.47808 0.3456,-0.84672 0.26496,-0.3686401 0.64512,-0.5702401 0.38016,-0.20736 0.80064,-0.20736 0.31104,0 0.58752,0.13824 0.27648,0.13248 0.42048,0.35712 l 0.27072,-1.53216 h 0.6624 l -0.75456,4.2624001 h -0.6624 l 0.0864,-0.47808 q -0.20736,0.23616 -0.5184,0.38592 -0.30528,0.144 -0.67392,0.144 -0.36288,0 -0.64512,-0.16128 -0.28224,-0.16128 -0.44352,-0.45504 -0.15552,-0.29952 -0.15552,-0.68544 0,-0.1728 0.03456,-0.35136 z m 2.59776,0.01152 q 0.02304,-0.10944 0.02304,-0.23616 0,-0.38592 -0.2304,-0.6048 -0.22464,-0.2246401 -0.56448,-0.2246401 -0.25344,0 -0.49536,0.12672 -0.24192,0.1209601 -0.42048,0.3628801 -0.17856,0.23616 -0.23616,0.56448 -0.02304,0.10944 -0.02304,0.23616 0,0.39168 0.22464,0.62208 0.2304,0.22464 0.57024,0.22464 0.25344,0 0.49536,-0.12672 0.24192,-0.12672 0.42048,-0.36864 0.17856,-0.24768 0.23616,-0.576 z"
       id="path592" />
    <path
       d="m 57.945601,3.7362397 -0.55872,3.1737601 h -0.65664 l 0.06336,-0.3744 q -0.19008,0.19584 -0.4608,0.31104 -0.26496,0.10944 -0.5472,0.10944 -0.50112,0 -0.80064,-0.27072 -0.29952,-0.27072 -0.29952,-0.76608 0,-0.13248 0.0288,-0.3168 l 0.32832,-1.8662401 h 0.65088 l -0.31104,1.7683201 q -0.02304,0.16128 -0.02304,0.2304 0,0.3168 0.1728,0.48384 0.17856,0.16704 0.4896,0.16704 0.36288,0 0.61632,-0.21312 0.25344,-0.21888 0.33408,-0.62784 l 0.3168,-1.8086401 z"
       id="path594" />
    <path
       d="m 58.314244,5.3202398 q 0.0864,-0.4896 0.3456,-0.85824 0.26496,-0.3744001 0.65088,-0.5760001 0.39168,-0.2016 0.84672,-0.2016 0.576,0 0.904321,0.27648 0.32832,0.27072 0.3744,0.7776001 h -0.708481 q -0.04608,-0.23616 -0.21312,-0.3686401 -0.16704,-0.13248 -0.45504,-0.13248 -0.4032,0 -0.6912,0.2880001 -0.288,0.28224 -0.38016,0.79488 -0.0288,0.18432 -0.0288,0.29952 0,0.38016 0.19008,0.58752 0.19008,0.2016 0.52992,0.2016 0.57024,0 0.84096,-0.50112 h 0.708481 q -0.22464,0.48384 -0.656641,0.77184 -0.42624,0.28224 -0.99072,0.28224 -0.59904,0 -0.9504,-0.33984 -0.35136,-0.3456 -0.35136,-0.93312 0,-0.17856 0.03456,-0.36864 z"
       id="path596" />
    <path
       d="m 62.628486,6.0287198 q -0.01152,0.08064 -0.01152,0.10368 0,0.12096 0.07488,0.17856 0.07488,0.05184 0.24768,0.05184 h 0.4032 l -0.09792,0.5472 h -0.5184 q -0.38016,0 -0.58176,-0.14976 -0.2016,-0.15552 -0.2016,-0.4896 0,-0.12672 0.02304,-0.24192 l 0.31104,-1.7568001 h -0.3744 l 0.09216,-0.53568 h 0.38016 l 0.13824,-0.78912 h 0.6624 l -0.13824,0.78912 h 0.76608 l -0.09216,0.53568 h -0.77184 z"
       id="path598" />
    <path
       d="m 65.018885,6.9618398 q -0.32832,0 -0.59904,-0.10944 -0.27072,-0.1152 -0.42624,-0.3168 -0.15552,-0.20736 -0.15552,-0.47232 0,-0.04608 0.01152,-0.12672 h 0.63936 q -0.02304,0.21888 0.13248,0.36288 0.15552,0.144 0.43776,0.144 0.27648,0 0.45504,-0.09792 0.17856,-0.09792 0.17856,-0.288 0,-0.16128 -0.14976,-0.2592 -0.144,-0.09792 -0.46656,-0.21888 -0.30528,-0.12096 -0.49536,-0.22464 -0.19008,-0.10368 -0.32832,-0.28224 -0.13824,-0.18432 -0.13824,-0.45504 0,-0.2764801 0.15552,-0.4838401 0.16128,-0.21312 0.44352,-0.32832 0.288,-0.12096 0.65664,-0.12096 0.33408,0 0.59328,0.1152 0.26496,0.10944 0.40896,0.3168 0.14976,0.2016 0.14976,0.4665601 0,0.08064 -0.0058,0.12096 h -0.62208 q 0.02304,-0.22464 -0.13248,-0.3628801 -0.14976,-0.13824 -0.432,-0.13824 -0.24768,0 -0.4032,0.10368 -0.14976,0.10368 -0.14976,0.2822401 0,0.17856 0.15552,0.288 0.15552,0.10368 0.47808,0.2304 0.29376,0.1152 0.47808,0.21888 0.18432,0.10368 0.3168,0.27648 0.13248,0.1728 0.13248,0.432 0,0.28224 -0.1728,0.49536 -0.16704,0.20736 -0.46656,0.32256 -0.29952,0.10944 -0.67968,0.10944 z"
       id="path600" />
    <path
       d="m 1.05408,12.94872 q -0.01152,0.08064 -0.01152,0.10368 0,0.12096 0.07488,0.17856 0.07488,0.05184 0.2476801,0.05184 h 0.4032 L 1.6704001,13.83 H 1.152 q -0.38015997,0 -0.58175998,-0.14976 -0.20160001,-0.15552 -0.20160001,-0.4896 0,-0.12672 0.02304,-0.24192 l 0.31104001,-1.7568 H 0.32832001 l 0.09216,-0.53568 H 0.80064003 L 0.93888004,9.8671198 H 1.6012801 l -0.13824,0.7891202 h 0.76608 l -0.09216,0.53568 h -0.77184 z"
       id="path602" />
    <path
       d="m 3.6633586,13.88184 q -0.4032,0 -0.70848,-0.16704 -0.30528,-0.16704 -0.47808,-0.47232 -0.16704,-0.30528 -0.16704,-0.69696 0,-0.53568 0.24768,-0.9792 0.25344,-0.44352 0.6912,-0.70272 0.44352,-0.2592 0.98496,-0.2592 0.4032001,0 0.7142401,0.1728 0.31104,0.16704 0.48384,0.47232 0.17856,0.29952 0.17856,0.69696 0,0.53568 -0.2592,0.9792 -0.2592,0.44352 -0.70272,0.70272 -0.4435201,0.25344 -0.9849601,0.25344 z m 0.08064,-0.55296 q 0.32832,0 0.59904,-0.18432 0.2764801,-0.19008 0.4320001,-0.49536 0.15552,-0.31104 0.15552,-0.6624 0,-0.39744 -0.22464,-0.61056 -0.2246401,-0.21888 -0.5644801,-0.21888 -0.33408,0 -0.59904,0.19008 -0.2592,0.18432 -0.40896,0.50112 -0.144,0.31104 -0.144,0.66816 0,0.38592 0.20736,0.59904 0.21312,0.21312 0.5472,0.21312 z"
       id="path604" />
    <path
       d="m 8.5996771,12.94872 q -0.01152,0.08064 -0.01152,0.10368 0,0.12096 0.07488,0.17856 0.07488,0.05184 0.24768,0.05184 h 0.4032 l -0.09792,0.5472 h -0.5184 q -0.38016,0 -0.58176,-0.14976 -0.2016,-0.15552 -0.2016,-0.4896 0,-0.12672 0.02304,-0.24192 l 0.31104,-1.7568 h -0.3744 l 0.09216,-0.53568 h 0.38016 l 0.13824,-0.7891202 h 0.6624 l -0.13824,0.7891202 h 0.7660801 l -0.09216,0.53568 H 8.9107171 Z"
       id="path606" />
    <path
       d="m 12.032635,10.6044 q 0.478081,0 0.766081,0.27072 0.288,0.26496 0.288,0.76032 0,0.13248 -0.0288,0.32256 l -0.33408,1.872 h -0.650881 l 0.3168,-1.77408 q 0.02304,-0.16128 0.02304,-0.2304 0,-0.3168 -0.17856,-0.48384 -0.1728,-0.16704 -0.48384,-0.16704 -0.3744,0 -0.6336,0.2304 -0.25344,0.22464 -0.32256,0.65088 V 12.0444 l -0.3168,1.7856 H 9.8207954 L 10.575355,9.5675998 h 0.65664 l -0.2592,1.4572802 q 0.2016,-0.2016 0.47808,-0.31104 0.27648,-0.10944 0.58176,-0.10944 z"
       id="path608" />
    <path
       d="m 15.494397,10.6044 q 0.59328,0 0.94464,0.33408 0.35712,0.33408 0.35712,0.89856 0,0.13248 -0.0288,0.3168 -0.02304,0.12672 -0.08064,0.31104 h -2.42496 q -0.0058,0.04032 -0.0058,0.12096 0,0.33984 0.20736,0.54144 0.21312,0.2016 0.55296,0.2016 0.53568,0 0.82368,-0.44352 h 0.70848 q -0.21888,0.43776 -0.64512,0.72 -0.42624,0.27648 -0.98496,0.27648 -0.39744,0 -0.69696,-0.15552 -0.29952,-0.15552 -0.46656,-0.44352 -0.16704,-0.29376 -0.16704,-0.68544 0,-0.16704 0.03456,-0.35712 0.0864,-0.4896 0.35136,-0.85824 0.26496,-0.3744 0.65664,-0.576 0.39744,-0.2016 0.864,-0.2016 z m 0.61632,1.38816 q 0.01152,-0.10368 0.01152,-0.14976 0,-0.3168 -0.21312,-0.50112 -0.20736,-0.18432 -0.54144,-0.18432 -0.35136,0 -0.6336,0.22464 -0.28224,0.22464 -0.38592,0.61056 z"
       id="path610" />
    <path
       d="m 20.113915,10.33368 -0.21312,1.21536 h 1.3824 l -0.0864,0.50688 h -1.3824 l -0.22464,1.26144 h 1.5552 L 21.052795,13.83 h -2.21184 l 0.70848,-4.0089602 h 2.21184 l -0.09216,0.5126402 z"
       id="path612" />
    <path
       d="M 25.292157,10.65624 24.733437,13.83 h -0.65664 l 0.06336,-0.3744 q -0.19008,0.19584 -0.4608,0.31104 -0.26496,0.10944 -0.5472,0.10944 -0.50112,0 -0.80064,-0.27072 -0.29952,-0.27072 -0.29952,-0.76608 0,-0.13248 0.0288,-0.3168 l 0.32832,-1.86624 h 0.65088 l -0.31104,1.76832 q -0.02304,0.16128 -0.02304,0.2304 0,0.3168 0.1728,0.48384 0.17856,0.16704 0.4896,0.16704 0.36288,0 0.61632,-0.21312 0.25344,-0.21888 0.33408,-0.62784 l 0.3168,-1.80864 z"
       id="path614" />
    <path
       d="m 26.714878,11.21496 q 0.19584,-0.288 0.4608,-0.44928 0.27072,-0.16128 0.59904,-0.16128 l -0.12096,0.67968 h -0.16704 q -0.38016,0 -0.61056,0.19008 -0.2304,0.19008 -0.32256,0.65664 l -0.29952,1.6992 h -0.65664 l 0.55872,-3.17376 h 0.65664 z"
       id="path616" />
    <path
       d="m 29.197444,13.88184 q -0.4032,0 -0.70848,-0.16704 -0.30528,-0.16704 -0.47808,-0.47232 -0.16704,-0.30528 -0.16704,-0.69696 0,-0.53568 0.24768,-0.9792 0.25344,-0.44352 0.6912,-0.70272 0.44352,-0.2592 0.98496,-0.2592 0.4032,0 0.71424,0.1728 0.31104,0.16704 0.48384,0.47232 0.17856,0.29952 0.17856,0.69696 0,0.53568 -0.2592,0.9792 -0.2592,0.44352 -0.70272,0.70272 -0.44352,0.25344 -0.98496,0.25344 z m 0.08064,-0.55296 q 0.32832,0 0.59904,-0.18432 0.27648,-0.19008 0.432,-0.49536 0.15552,-0.31104 0.15552,-0.6624 0,-0.39744 -0.22464,-0.61056 -0.22464,-0.21888 -0.56448,-0.21888 -0.33408,0 -0.59904,0.19008 -0.2592,0.18432 -0.40896,0.50112 -0.144,0.31104 -0.144,0.66816 0,0.38592 0.20736,0.59904 0.21312,0.21312 0.5472,0.21312 z"
       id="path618" />
    <path
       d="m 32.618887,11.1228 q 0.20736,-0.21888 0.5184,-0.36864 0.3168,-0.14976 0.67968,-0.14976 0.36288,0 0.64512,0.15552 0.28224,0.15552 0.43776,0.44352 0.15552,0.288 0.15552,0.67392 0,0.16704 -0.03456,0.35136 -0.0864,0.47808 -0.35136,0.85824 -0.2592,0.3744 -0.63936,0.58752 -0.3744,0.20736 -0.78912,0.20736 -0.36288,0 -0.62208,-0.144 -0.25344,-0.14976 -0.39744,-0.36864 l -0.345601,1.96992 h -0.65664 l 0.823681,-4.68288 h 0.65664 z m 1.73376,1.10592 q 0.02304,-0.10944 0.02304,-0.23616 0,-0.38592 -0.2304,-0.59904 -0.22464,-0.21888 -0.57024,-0.21888 -0.24768,0 -0.49536,0.12672 -0.24192,0.12672 -0.42048,0.36864 -0.17856,0.24192 -0.23616,0.57024 -0.02304,0.10944 -0.02304,0.23616 0,0.38592 0.22464,0.61056 0.2304,0.22464 0.57024,0.22464 0.25344,0 0.49536,-0.12672 0.24768,-0.13248 0.42624,-0.38016 0.17856,-0.24768 0.23616,-0.576 z"
       id="path620" />
    <path
       d="m 37.324802,10.6044 q 0.59328,0 0.94464,0.33408 0.35712,0.33408 0.35712,0.89856 0,0.13248 -0.0288,0.3168 -0.02304,0.12672 -0.08064,0.31104 h -2.42496 q -0.0058,0.04032 -0.0058,0.12096 0,0.33984 0.20736,0.54144 0.21312,0.2016 0.55296,0.2016 0.53568,0 0.82368,-0.44352 h 0.70848 q -0.21888,0.43776 -0.64512,0.72 -0.42624,0.27648 -0.98496,0.27648 -0.39744,0 -0.69696,-0.15552 -0.29952,-0.15552 -0.46656,-0.44352 -0.16704,-0.29376 -0.16704,-0.68544 0,-0.16704 0.03456,-0.35712 0.0864,-0.4896 0.35136,-0.85824 0.26496,-0.3744 0.65664,-0.576 0.39744,-0.2016 0.864,-0.2016 z m 0.61632,1.38816 q 0.01152,-0.10368 0.01152,-0.14976 0,-0.3168 -0.21312,-0.50112 -0.20736,-0.18432 -0.54144,-0.18432 -0.35136,0 -0.6336,0.22464 -0.28224,0.22464 -0.38592,0.61056 z"
       id="path622" />
    <path
       d="m 39.006726,12.22872 q 0.0864,-0.47808 0.3456,-0.84672 0.26496,-0.36864 0.64512,-0.57024 0.38016,-0.20736 0.79488,-0.20736 0.3744,0 0.62784,0.14976 0.25344,0.144 0.380161,0.36288 l 0.08064,-0.4608 h 0.6624 L 41.984647,13.83 h -0.662401 l 0.0864,-0.47232 q -0.20736,0.22464 -0.52416,0.3744 -0.31104,0.14976 -0.67968,0.14976 -0.35712,0 -0.63936,-0.16128 -0.27648,-0.16128 -0.43776,-0.45504 -0.15552,-0.29952 -0.15552,-0.68544 0,-0.1728 0.03456,-0.35136 z m 2.59776,0.01152 q 0.02304,-0.10944 0.02304,-0.23616 0,-0.38592 -0.2304,-0.6048 -0.22464,-0.22464 -0.56448,-0.22464 -0.25344,0 -0.49536,0.12672 -0.24192,0.12096 -0.42048,0.36288 -0.17856,0.23616 -0.23616,0.56448 -0.02304,0.10944 -0.02304,0.23616 0,0.39168 0.22464,0.62208 0.2304,0.22464 0.57024,0.22464 0.25344,0 0.49536,-0.12672 0.24192,-0.12672 0.42048,-0.36864 0.17856,-0.24768 0.23616,-0.576 z"
       id="path624" />
    <path
       d="m 45.020164,10.6044 q 0.50112,0 0.79488,0.27072 0.29952,0.26496 0.29952,0.76608 0,0.12672 -0.0288,0.3168 l -0.33408,1.872 h -0.65088 l 0.3168,-1.77408 q 0.02304,-0.16128 0.02304,-0.2304 0,-0.3168 -0.17856,-0.48384 -0.1728,-0.16704 -0.48384,-0.16704 -0.3744,0 -0.6336,0.2304 -0.25344,0.22464 -0.32256,0.65088 v -0.01728 l -0.3168,1.79136 h -0.65664 l 0.55872,-3.17376 h 0.65664 l -0.06336,0.36864 q 0.19584,-0.19584 0.4608,-0.30528 0.27072,-0.1152 0.55872,-0.1152 z"
       id="path626" />
    <path
       d="m 52.72704,10.6044 q 0.50112,0 0.80064,0.27072 0.29952,0.27072 0.29952,0.76608 0,0.13248 -0.0288,0.3168 l -0.33408,1.872 h -0.65088 l 0.3168,-1.77408 q 0.02304,-0.16128 0.02304,-0.2304 0,-0.3168 -0.17856,-0.48384 -0.1728,-0.16704 -0.48384,-0.16704 -0.3744,0 -0.6336,0.2304 -0.25344,0.22464 -0.32256,0.65088 L 51.21792,13.83 h -0.65088 l 0.3168,-1.77408 q 0.02304,-0.16128 0.02304,-0.2304 0,-0.3168 -0.17856,-0.48384 -0.1728,-0.16704 -0.48384,-0.16704 -0.3744,0 -0.6336,0.2304 -0.25344,0.22464 -0.32256,0.65088 V 12.03864 L 48.97152,13.83 h -0.65664 l 0.55872,-3.17376 h 0.65664 l -0.06336,0.36864 q 0.19008,-0.19584 0.45504,-0.30528 0.27072,-0.1152 0.55872,-0.1152 0.38016,0 0.65088,0.16128 0.27648,0.16128 0.38592,0.46656 0.19008,-0.288 0.52416,-0.45504 0.33408,-0.1728 0.68544,-0.1728 z"
       id="path628" />
    <path
       d="m 54.362878,12.22872 q 0.0864,-0.47808 0.3456,-0.84672 0.26496,-0.36864 0.64512,-0.57024 0.38016,-0.20736 0.79488,-0.20736 0.3744,0 0.62784,0.14976 0.25344,0.144 0.38016,0.36288 l 0.08064,-0.4608 h 0.6624 L 57.340798,13.83 h -0.6624 l 0.0864,-0.47232 q -0.20736,0.22464 -0.52416,0.3744 -0.31104,0.14976 -0.67968,0.14976 -0.35712,0 -0.63936,-0.16128 -0.27648,-0.16128 -0.43776,-0.45504 -0.15552,-0.29952 -0.15552,-0.68544 0,-0.1728 0.03456,-0.35136 z m 2.59776,0.01152 q 0.02304,-0.10944 0.02304,-0.23616 0,-0.38592 -0.2304,-0.6048 -0.22464,-0.22464 -0.56448,-0.22464 -0.25344,0 -0.49536,0.12672 -0.24192,0.12096 -0.42048,0.36288 -0.17856,0.23616 -0.23616,0.56448 -0.02304,0.10944 -0.02304,0.23616 0,0.39168 0.22464,0.62208 0.2304,0.22464 0.57024,0.22464 0.25344,0 0.49536,-0.12672 0.24192,-0.12672 0.42048,-0.36864 0.17856,-0.24768 0.23616,-0.576 z"
       id="path630" />
    <path
       d="m 59.322235,11.21496 q 0.19584,-0.288 0.4608,-0.44928 0.27072,-0.16128 0.59904,-0.16128 l -0.12096,0.67968 h -0.16704 q -0.38016,0 -0.61056,0.19008 -0.2304,0.19008 -0.32256,0.65664 l -0.29952,1.6992 h -0.65664 l 0.55872,-3.17376 h 0.65664 z"
       id="path632" />
    <path
       d="m 61.948801,12.246 1.18656,1.584 h -0.88704 l -0.93312,-1.36512 -0.24192,1.36512 h -0.65664 l 0.75456,-4.2624002 h 0.65664 l -0.43776,2.4710402 1.39392,-1.3824 h 0.91008 z"
       id="path634" />
    <path
       d="m 65.543045,10.6044 q 0.59328,0 0.94464,0.33408 0.35712,0.33408 0.35712,0.89856 0,0.13248 -0.0288,0.3168 -0.02304,0.12672 -0.08064,0.31104 h -2.42496 q -0.0058,0.04032 -0.0058,0.12096 0,0.33984 0.20736,0.54144 0.21312,0.2016 0.55296,0.2016 0.53568,0 0.82368,-0.44352 h 0.70848 q -0.21888,0.43776 -0.64512,0.72 -0.42624,0.27648 -0.98496,0.27648 -0.39744,0 -0.696961,-0.15552 -0.29952,-0.15552 -0.46656,-0.44352 -0.16704,-0.29376 -0.16704,-0.68544 0,-0.16704 0.03456,-0.35712 0.0864,-0.4896 0.35136,-0.85824 0.264961,-0.3744 0.656641,-0.576 0.39744,-0.2016 0.864,-0.2016 z m 0.61632,1.38816 q 0.01152,-0.10368 0.01152,-0.14976 0,-0.3168 -0.21312,-0.50112 -0.20736,-0.18432 -0.54144,-0.18432 -0.35136,0 -0.6336,0.22464 -0.28224,0.22464 -0.38592,0.61056 z"
       id="path636" />
    <path
       d="m 68.083209,12.94872 q -0.01152,0.08064 -0.01152,0.10368 0,0.12096 0.07488,0.17856 0.07488,0.05184 0.24768,0.05184 h 0.4032 l -0.09792,0.5472 h -0.5184 q -0.38016,0 -0.58176,-0.14976 -0.2016,-0.15552 -0.2016,-0.4896 0,-0.12672 0.02304,-0.24192 l 0.31104,-1.7568 h -0.3744 l 0.09216,-0.53568 h 0.38016 l 0.13824,-0.7891202 h 0.6624 l -0.13824,0.7891202 h 0.76608 l -0.09216,0.53568 h -0.77184 z"
       id="path638" />
    <path
       d="M 70.836485,9.8267998 70.266245,12.6204 h -0.5472 l 0.42048,-2.7936002 z m -1.04256,4.0435202 q -0.15552,0 -0.253441,-0.09792 -0.09792,-0.09792 -0.09792,-0.24768 0,-0.2016 0.14976,-0.3456 0.155521,-0.14976 0.351361,-0.14976 0.15552,0 0.24768,0.09792 0.09792,0.09792 0.09792,0.24768 0,0.2016 -0.14976,0.35136 -0.14976,0.144 -0.3456,0.144 z"
       id="path640" />
  </g>
  <g
     id="kropki">
    <g
       class="cls-1"
       clip-path="url(#clippath)"
       id="g280">
      <g
         class="cls-9"
         clip-path="url(#clippath-1)"
         id="g278">
        <path
           class="cls-5"
           d="M49.78,39.55c.11,0,.2-.09.2-.2s-.09-.2-.2-.2-.2.09-.2.2.09.2.2.2"
           id="path38" />
        <path
           class="cls-5"
           d="M49.05,38.82c.11,0,.2-.09.2-.2s-.09-.2-.2-.2-.2.09-.2.2.09.2.2.2"
           id="path40" />
        <path
           class="cls-5"
           d="M50.51,40.28c.11,0,.2-.09.2-.2s-.09-.2-.2-.2-.2.09-.2.2.09.2.2.2"
           id="path42" />
        <path
           class="cls-5"
           d="M50.51,38.81c.11,0,.2-.09.2-.2s-.09-.2-.2-.2-.2.09-.2.2.09.2.2.2"
           id="path44" />
        <path
           class="cls-5"
           d="M56.24,39.85c-.11,0-.2.09-.2.2s.09.2.2.2.2-.09.2-.2-.09-.2-.2-.2"
           id="path46" />
        <path
           class="cls-5"
           d="M56.97,40.58c-.11,0-.2.09-.2.2s.09.2.2.2.2-.09.2-.2-.09-.2-.2-.2"
           id="path48" />
        <path
           class="cls-5"
           d="M55.51,39.12c-.11,0-.2.09-.2.2s.09.2.2.2.2-.09.2-.2-.09-.2-.2-.2"
           id="path50" />
        <path
           class="cls-5"
           d="M55.51,40.59c-.11,0-.2.09-.2.2s.09.2.2.2.2-.09.2-.2-.09-.2-.2-.2"
           id="path52" />
        <path
           class="cls-5"
           d="M50.82,37.09c0-.11-.09-.2-.2-.2s-.2.09-.2.2.09.2.2.2.2-.09.2-.2"
           id="path54" />
        <path
           class="cls-5"
           d="M50.09,37.83c0-.11-.09-.2-.2-.2s-.2.09-.2.2.09.2.2.2.2-.09.2-.2"
           id="path56" />
        <path
           class="cls-5"
           d="M51.55,36.36c0-.11-.09-.2-.2-.2s-.2.09-.2.2.09.2.2.2.2-.09.2-.2"
           id="path58" />
        <path
           class="cls-5"
           d="M50.08,36.36c0-.11-.09-.2-.2-.2s-.2.09-.2.2.09.2.2.2.2-.09.2-.2"
           id="path60" />
        <path
           class="cls-4"
           d="M51.85,37.07c0,.11.09.2.2.2s.2-.09.2-.2-.09-.2-.2-.2-.2.09-.2.2"
           id="path62" />
        <path
           class="cls-4"
           d="M52.58,36.33c0,.11.09.2.2.2s.2-.09.2-.2-.09-.2-.2-.2-.2.09-.2.2"
           id="path64" />
        <path
           class="cls-4"
           d="M51.12,37.8c0,.11.09.2.2.2s.2-.09.2-.2-.09-.2-.2-.2-.2.09-.2.2"
           id="path66" />
        <path
           class="cls-4"
           d="M52.59,37.8c0,.11.09.2.2.2s.2-.09.2-.2-.09-.2-.2-.2-.2.09-.2.2"
           id="path68" />
        <path
           class="cls-4"
           d="M56.85,36.43c0,.11.09.2.2.2s.2-.09.2-.2-.09-.2-.2-.2-.2.09-.2.2"
           id="path70" />
        <path
           class="cls-4"
           d="M57.59,35.7c0,.11.09.2.2.2s.2-.09.2-.2-.09-.2-.2-.2-.2.09-.2.2"
           id="path72" />
        <path
           class="cls-4"
           d="M56.12,37.17c0,.11.09.2.2.2s.2-.09.2-.2-.09-.2-.2-.2-.2.09-.2.2"
           id="path74" />
        <path
           class="cls-4"
           d="M57.59,37.16c0,.11.09.2.2.2s.2-.09.2-.2-.09-.2-.2-.2-.2.09-.2.2"
           id="path76" />
        <path
           class="cls-4"
           d="M53.87,39.36c0,.11.09.2.2.2s.2-.09.2-.2-.09-.2-.2-.2-.2.09-.2.2"
           id="path78" />
        <path
           class="cls-4"
           d="M54.6,38.62c0,.11.09.2.2.2s.2-.09.2-.2-.09-.2-.2-.2-.2.09-.2.2"
           id="path80" />
        <path
           class="cls-4"
           d="M53.14,40.09c0,.11.09.2.2.2s.2-.09.2-.2-.09-.2-.2-.2-.2.09-.2.2"
           id="path82" />
        <path
           class="cls-4"
           d="M54.61,40.09c0,.11.09.2.2.2s.2-.09.2-.2-.09-.2-.2-.2-.2.09-.2.2"
           id="path84" />
        <path
           class="cls-3"
           d="M54.88,36.95c-.11,0-.2.09-.2.2s.09.2.2.2.2-.09.2-.2-.09-.2-.2-.2"
           id="path86" />
        <path
           class="cls-3"
           d="M55.62,37.68c-.11,0-.2.09-.2.2s.09.2.2.2.2-.09.2-.2-.09-.2-.2-.2"
           id="path88" />
        <path
           class="cls-3"
           d="M54.15,36.21c-.11,0-.2.09-.2.2s.09.2.2.2.2-.09.2-.2-.09-.2-.2-.2"
           id="path90" />
        <path
           class="cls-3"
           d="M54.15,37.68c-.11,0-.2.09-.2.2s.09.2.2.2.2-.09.2-.2-.09-.2-.2-.2"
           id="path92" />
        <path
           class="cls-3"
           d="M54.88,35.9c.11,0,.2-.09.2-.2s-.09-.2-.2-.2-.2.09-.2.2.09.2.2.2"
           id="path94" />
        <path
           class="cls-3"
           d="M54.14,35.17c.11,0,.2-.09.2-.2s-.09-.2-.2-.2-.2.09-.2.2.09.2.2.2"
           id="path96" />
        <path
           class="cls-3"
           d="M55.61,36.63c.11,0,.2-.09.2-.2s-.09-.2-.2-.2-.2.09-.2.2.09.2.2.2"
           id="path98" />
        <path
           class="cls-3"
           d="M55.61,35.16c.11,0,.2-.09.2-.2s-.09-.2-.2-.2-.2.09-.2.2.09.2.2.2"
           id="path100" />
        <path
           class="cls-3"
           d="M57.05,39.55c.11,0,.2-.09.2-.2s-.09-.2-.2-.2-.2.09-.2.2.09.2.2.2"
           id="path102" />
        <path
           class="cls-3"
           d="M56.31,38.82c.11,0,.2-.09.2-.2s-.09-.2-.2-.2-.2.09-.2.2.09.2.2.2"
           id="path104" />
        <path
           class="cls-3"
           d="M57.78,38.81c.11,0,.2-.09.2-.2s-.09-.2-.2-.2-.2.09-.2.2.09.2.2.2"
           id="path106" />
        <path
           class="cls-5"
           d="M59.14,38.44c-.11,0-.2.09-.2.2s.09.2.2.2.2-.09.2-.2-.09-.2-.2-.2"
           id="path108" />
        <path
           class="cls-5"
           d="M59.88,39.17c-.11,0-.2.09-.2.2s.09.2.2.2.2-.09.2-.2-.09-.2-.2-.2"
           id="path110" />
        <path
           class="cls-5"
           d="M58.41,37.71c-.11,0-.2.09-.2.2s.09.2.2.2.2-.09.2-.2-.09-.2-.2-.2"
           id="path112" />
        <path
           class="cls-5"
           d="M58.41,39.18c-.11,0-.2.09-.2.2s.09.2.2.2.2-.09.2-.2-.09-.2-.2-.2"
           id="path114" />
        <path
           class="cls-5"
           d="M59.82,39.55c.11,0,.2-.09.2-.2s-.09-.2-.2-.2-.2.09-.2.2.09.2.2.2"
           id="path116" />
        <path
           class="cls-5"
           d="M59.08,38.82c.11,0,.2-.09.2-.2s-.09-.2-.2-.2-.2.09-.2.2.09.2.2.2"
           id="path118" />
        <path
           class="cls-5"
           d="M60.55,40.28c.11,0,.2-.09.2-.2s-.09-.2-.2-.2-.2.09-.2.2.09.2.2.2"
           id="path120" />
        <path
           class="cls-5"
           d="M60.55,38.81c.11,0,.2-.09.2-.2s-.09-.2-.2-.2-.2.09-.2.2.09.2.2.2"
           id="path122" />
        <path
           class="cls-5"
           d="M66.28,39.85c-.11,0-.2.09-.2.2s.09.2.2.2.2-.09.2-.2-.09-.2-.2-.2"
           id="path124" />
        <path
           class="cls-5"
           d="M67.01,40.58c-.11,0-.2.09-.2.2s.09.2.2.2.2-.09.2-.2-.09-.2-.2-.2"
           id="path126" />
        <path
           class="cls-5"
           d="M65.54,39.12c-.11,0-.2.09-.2.2s.09.2.2.2.2-.09.2-.2-.09-.2-.2-.2"
           id="path128" />
        <path
           class="cls-5"
           d="M65.54,40.59c-.11,0-.2.09-.2.2s.09.2.2.2.2-.09.2-.2-.09-.2-.2-.2"
           id="path130" />
        <path
           class="cls-5"
           d="M60.85,37.09c0-.11-.09-.2-.2-.2s-.2.09-.2.2.09.2.2.2.2-.09.2-.2"
           id="path132" />
        <path
           class="cls-5"
           d="M60.12,37.83c0-.11-.09-.2-.2-.2s-.2.09-.2.2.09.2.2.2.2-.09.2-.2"
           id="path134" />
        <path
           class="cls-5"
           d="M61.59,36.36c0-.11-.09-.2-.2-.2s-.2.09-.2.2.09.2.2.2.2-.09.2-.2"
           id="path136" />
        <path
           class="cls-5"
           d="M60.12,36.36c0-.11-.09-.2-.2-.2s-.2.09-.2.2.09.2.2.2.2-.09.2-.2"
           id="path138" />
        <path
           class="cls-4"
           d="M61.89,37.07c0,.11.09.2.2.2s.2-.09.2-.2-.09-.2-.2-.2-.2.09-.2.2"
           id="path140" />
        <path
           class="cls-4"
           d="M62.62,36.33c0,.11.09.2.2.2s.2-.09.2-.2-.09-.2-.2-.2-.2.09-.2.2"
           id="path142" />
        <path
           class="cls-4"
           d="M61.16,37.8c0,.11.09.2.2.2s.2-.09.2-.2-.09-.2-.2-.2-.2.09-.2.2"
           id="path144" />
        <path
           class="cls-4"
           d="M62.63,37.8c0,.11.09.2.2.2s.2-.09.2-.2-.09-.2-.2-.2-.2.09-.2.2"
           id="path146" />
        <path
           class="cls-4"
           d="M66.89,36.43c0,.11.09.2.2.2s.2-.09.2-.2-.09-.2-.2-.2-.2.09-.2.2"
           id="path148" />
        <path
           class="cls-4"
           d="M67.62,35.7c0,.11.09.2.2.2s.2-.09.2-.2-.09-.2-.2-.2-.2.09-.2.2"
           id="path150" />
        <path
           class="cls-4"
           d="M66.16,37.17c0,.11.09.2.2.2s.2-.09.2-.2-.09-.2-.2-.2-.2.09-.2.2"
           id="path152" />
        <path
           class="cls-4"
           d="M67.63,37.16c0,.11.09.2.2.2s.2-.09.2-.2-.09-.2-.2-.2-.2.09-.2.2"
           id="path154" />
        <path
           class="cls-4"
           d="M63.91,39.36c0,.11.09.2.2.2s.2-.09.2-.2-.09-.2-.2-.2-.2.09-.2.2"
           id="path156" />
        <path
           class="cls-4"
           d="M64.64,38.62c0,.11.09.2.2.2s.2-.09.2-.2-.09-.2-.2-.2-.2.09-.2.2"
           id="path158" />
        <path
           class="cls-4"
           d="M63.17,40.09c0,.11.09.2.2.2s.2-.09.2-.2-.09-.2-.2-.2-.2.09-.2.2"
           id="path160" />
        <path
           class="cls-4"
           d="M64.64,40.09c0,.11.09.2.2.2s.2-.09.2-.2-.09-.2-.2-.2-.2.09-.2.2"
           id="path162" />
        <path
           class="cls-3"
           d="M64.92,36.95c-.11,0-.2.09-.2.2s.09.2.2.2.2-.09.2-.2-.09-.2-.2-.2"
           id="path164" />
        <path
           class="cls-3"
           d="M65.66,37.68c-.11,0-.2.09-.2.2s.09.2.2.2.2-.09.2-.2-.09-.2-.2-.2"
           id="path166" />
        <path
           class="cls-3"
           d="M64.19,36.21c-.11,0-.2.09-.2.2s.09.2.2.2.2-.09.2-.2-.09-.2-.2-.2"
           id="path168" />
        <path
           class="cls-3"
           d="M64.19,37.68c-.11,0-.2.09-.2.2s.09.2.2.2.2-.09.2-.2-.09-.2-.2-.2"
           id="path170" />
        <path
           class="cls-3"
           d="M64.91,35.9c.11,0,.2-.09.2-.2s-.09-.2-.2-.2-.2.09-.2.2.09.2.2.2"
           id="path172" />
        <path
           class="cls-3"
           d="M64.18,35.17c.11,0,.2-.09.2-.2s-.09-.2-.2-.2-.2.09-.2.2.09.2.2.2"
           id="path174" />
        <path
           class="cls-3"
           d="M65.65,36.63c.11,0,.2-.09.2-.2s-.09-.2-.2-.2-.2.09-.2.2.09.2.2.2"
           id="path176" />
        <path
           class="cls-3"
           d="M65.64,35.16c.11,0,.2-.09.2-.2s-.09-.2-.2-.2-.2.09-.2.2.09.2.2.2"
           id="path178" />
        <path
           class="cls-3"
           d="M67.09,39.55c.11,0,.2-.09.2-.2s-.09-.2-.2-.2-.2.09-.2.2.09.2.2.2"
           id="path180" />
        <path
           class="cls-3"
           d="M66.35,38.82c.11,0,.2-.09.2-.2s-.09-.2-.2-.2-.2.09-.2.2.09.2.2.2"
           id="path182" />
        <path
           class="cls-3"
           d="M67.82,38.81c.11,0,.2-.09.2-.2s-.09-.2-.2-.2-.2.09-.2.2.09.2.2.2"
           id="path184" />
        <path
           class="cls-5"
           d="M69.18,38.44c-.11,0-.2.09-.2.2s.09.2.2.2.2-.09.2-.2-.09-.2-.2-.2"
           id="path186" />
        <path
           class="cls-5"
           d="M69.91,39.17c-.11,0-.2.09-.2.2s.09.2.2.2.2-.09.2-.2-.09-.2-.2-.2"
           id="path188" />
        <path
           class="cls-5"
           d="M68.45,37.71c-.11,0-.2.09-.2.2s.09.2.2.2.2-.09.2-.2-.09-.2-.2-.2"
           id="path190" />
        <path
           class="cls-5"
           d="M68.45,39.18c-.11,0-.2.09-.2.2s.09.2.2.2.2-.09.2-.2-.09-.2-.2-.2"
           id="path192" />
        <path
           class="cls-5"
           d="M39.71,39.55c.11,0,.2-.09.2-.2s-.09-.2-.2-.2-.2.09-.2.2.09.2.2.2"
           id="path194" />
        <path
           class="cls-5"
           d="M38.98,38.82c.11,0,.2-.09.2-.2s-.09-.2-.2-.2-.2.09-.2.2.09.2.2.2"
           id="path196" />
        <path
           class="cls-5"
           d="M40.45,40.28c.11,0,.2-.09.2-.2s-.09-.2-.2-.2-.2.09-.2.2.09.2.2.2"
           id="path198" />
        <path
           class="cls-5"
           d="M40.45,38.81c.11,0,.2-.09.2-.2s-.09-.2-.2-.2-.2.09-.2.2.09.2.2.2"
           id="path200" />
        <path
           class="cls-5"
           d="M46.17,39.85c-.11,0-.2.09-.2.2s.09.2.2.2.2-.09.2-.2-.09-.2-.2-.2"
           id="path202" />
        <path
           class="cls-5"
           d="M46.91,40.58c-.11,0-.2.09-.2.2s.09.2.2.2.2-.09.2-.2-.09-.2-.2-.2"
           id="path204" />
        <path
           class="cls-5"
           d="M45.44,39.12c-.11,0-.2.09-.2.2s.09.2.2.2.2-.09.2-.2-.09-.2-.2-.2"
           id="path206" />
        <path
           class="cls-5"
           d="M45.44,40.59c-.11,0-.2.09-.2.2s.09.2.2.2.2-.09.2-.2-.09-.2-.2-.2"
           id="path208" />
        <path
           class="cls-5"
           d="M40.75,37.09c0-.11-.09-.2-.2-.2s-.2.09-.2.2.09.2.2.2.2-.09.2-.2"
           id="path210" />
        <path
           class="cls-5"
           d="M40.02,37.83c0-.11-.09-.2-.2-.2s-.2.09-.2.2.09.2.2.2.2-.09.2-.2"
           id="path212" />
        <path
           class="cls-5"
           d="M41.48,36.36c0-.11-.09-.2-.2-.2s-.2.09-.2.2.09.2.2.2.2-.09.2-.2"
           id="path214" />
        <path
           class="cls-5"
           d="M40.01,36.36c0-.11-.09-.2-.2-.2s-.2.09-.2.2.09.2.2.2.2-.09.2-.2"
           id="path216" />
        <path
           class="cls-4"
           d="M41.79,37.07c0,.11.09.2.2.2s.2-.09.2-.2-.09-.2-.2-.2-.2.09-.2.2"
           id="path218" />
        <path
           class="cls-4"
           d="M42.52,36.33c0,.11.09.2.2.2s.2-.09.2-.2-.09-.2-.2-.2-.2.09-.2.2"
           id="path220" />
        <path
           class="cls-4"
           d="M41.05,37.8c0,.11.09.2.2.2s.2-.09.2-.2-.09-.2-.2-.2-.2.09-.2.2"
           id="path222" />
        <path
           class="cls-4"
           d="M42.52,37.8c0,.11.09.2.2.2s.2-.09.2-.2-.09-.2-.2-.2-.2.09-.2.2"
           id="path224" />
        <path
           class="cls-4"
           d="M46.79,36.43c0,.11.09.2.2.2s.2-.09.2-.2-.09-.2-.2-.2-.2.09-.2.2"
           id="path226" />
        <path
           class="cls-4"
           d="M47.52,35.7c0,.11.09.2.2.2s.2-.09.2-.2-.09-.2-.2-.2-.2.09-.2.2"
           id="path228" />
        <path
           class="cls-4"
           d="M46.05,37.17c0,.11.09.2.2.2s.2-.09.2-.2-.09-.2-.2-.2-.2.09-.2.2"
           id="path230" />
        <path
           class="cls-4"
           d="M47.52,37.16c0,.11.09.2.2.2s.2-.09.2-.2-.09-.2-.2-.2-.2.09-.2.2"
           id="path232" />
        <path
           class="cls-4"
           d="M43.8,39.36c0,.11.09.2.2.2s.2-.09.2-.2-.09-.2-.2-.2-.2.09-.2.2"
           id="path234" />
        <path
           class="cls-4"
           d="M44.53,38.62c0,.11.09.2.2.2s.2-.09.2-.2-.09-.2-.2-.2-.2.09-.2.2"
           id="path236" />
        <path
           class="cls-4"
           d="M43.07,40.09c0,.11.09.2.2.2s.2-.09.2-.2-.09-.2-.2-.2-.2.09-.2.2"
           id="path238" />
        <path
           class="cls-4"
           d="M44.54,40.09c0,.11.09.2.2.2s.2-.09.2-.2-.09-.2-.2-.2-.2.09-.2.2"
           id="path240" />
        <path
           class="cls-3"
           d="M44.82,36.95c-.11,0-.2.09-.2.2s.09.2.2.2.2-.09.2-.2-.09-.2-.2-.2"
           id="path242" />
        <path
           class="cls-3"
           d="M45.55,37.68c-.11,0-.2.09-.2.2s.09.2.2.2.2-.09.2-.2-.09-.2-.2-.2"
           id="path244" />
        <path
           class="cls-3"
           d="M44.08,36.21c-.11,0-.2.09-.2.2s.09.2.2.2.2-.09.2-.2-.09-.2-.2-.2"
           id="path246" />
        <path
           class="cls-3"
           d="M44.08,37.68c-.11,0-.2.09-.2.2s.09.2.2.2.2-.09.2-.2-.09-.2-.2-.2"
           id="path248" />
        <path
           class="cls-3"
           d="M44.81,35.9c.11,0,.2-.09.2-.2s-.09-.2-.2-.2-.2.09-.2.2.09.2.2.2"
           id="path250" />
        <path
           class="cls-3"
           d="M44.07,35.17c.11,0,.2-.09.2-.2s-.09-.2-.2-.2-.2.09-.2.2.09.2.2.2"
           id="path252" />
        <path
           class="cls-3"
           d="M45.54,36.63c.11,0,.2-.09.2-.2s-.09-.2-.2-.2-.2.09-.2.2.09.2.2.2"
           id="path254" />
        <path
           class="cls-3"
           d="M45.54,35.16c.11,0,.2-.09.2-.2s-.09-.2-.2-.2-.2.09-.2.2.09.2.2.2"
           id="path256" />
        <path
           class="cls-3"
           d="M46.98,39.55c.11,0,.2-.09.2-.2s-.09-.2-.2-.2-.2.09-.2.2.09.2.2.2"
           id="path258" />
        <path
           class="cls-3"
           d="M46.25,38.82c.11,0,.2-.09.2-.2s-.09-.2-.2-.2-.2.09-.2.2.09.2.2.2"
           id="path260" />
        <path
           class="cls-3"
           d="M47.71,38.81c.11,0,.2-.09.2-.2s-.09-.2-.2-.2-.2.09-.2.2.09.2.2.2"
           id="path262" />
        <path
           class="cls-5"
           d="M49.07,38.44c-.11,0-.2.09-.2.2s.09.2.2.2.2-.09.2-.2-.09-.2-.2-.2"
           id="path264" />
        <path
           class="cls-5"
           d="M49.81,39.17c-.11,0-.2.09-.2.2s.09.2.2.2.2-.09.2-.2-.09-.2-.2-.2"
           id="path266" />
        <path
           class="cls-5"
           d="M48.34,37.71c-.11,0-.2.09-.2.2s.09.2.2.2.2-.09.2-.2-.09-.2-.2-.2"
           id="path268" />
        <path
           class="cls-5"
           d="M48.34,39.18c-.11,0-.2.09-.2.2s.09.2.2.2.2-.09.2-.2-.09-.2-.2-.2"
           id="path270" />
        <path
           class="cls-3"
           d="M47.71,40.28c.11,0,.2-.09.2-.2s-.09-.2-.2-.2-.2.09-.2.2.09.2.2.2"
           id="path272" />
        <path
           class="cls-3"
           d="M57.78,40.28c.11,0,.2-.09.2-.2s-.09-.2-.2-.2-.2.09-.2.2.09.2.2.2"
           id="path274" />
        <path
           class="cls-3"
           d="M67.82,40.28c.11,0,.2-.09.2-.2s-.09-.2-.2-.2-.2.09-.2.2.09.2.2.2"
           id="path276" />
      </g>
    </g>
  </g>
</svg>
