<?xml version="1.0" encoding="UTF-8" standalone="no"?>
<!-- Created with Inkscape (http://www.inkscape.org/) -->

<svg
   width="515"
   height="300"
   viewBox="0 0 136.26041 79.375"
   version="1.1"
   id="svg1665"
   sodipodi:docname="contact-map-asset.svg"
   inkscape:version="1.2.2 (732a01da63, 2022-12-09)"
   xmlns:inkscape="http://www.inkscape.org/namespaces/inkscape"
   xmlns:sodipodi="http://sodipodi.sourceforge.net/DTD/sodipodi-0.dtd"
   xmlns="http://www.w3.org/2000/svg"
   xmlns:svg="http://www.w3.org/2000/svg">
  <sodipodi:namedview
     id="namedview1667"
     pagecolor="#ffffff"
     bordercolor="#000000"
     borderopacity="0.25"
     inkscape:showpageshadow="2"
     inkscape:pageopacity="0.0"
     inkscape:pagecheckerboard="0"
     inkscape:deskcolor="#d1d1d1"
     inkscape:document-units="px"
     showgrid="false"
     inkscape:zoom="1.6819304"
     inkscape:cx="265.76605"
     inkscape:cy="158.15161"
     inkscape:window-width="1680"
     inkscape:window-height="987"
     inkscape:window-x="-8"
     inkscape:window-y="-8"
     inkscape:window-maximized="1"
     inkscape:current-layer="layer1">
    <sodipodi:guide
       position="0,79.374998"
       orientation="0,515"
       id="guide1669"
       inkscape:locked="false" />
    <sodipodi:guide
       position="136.26041,79.374998"
       orientation="300,0"
       id="guide1671"
       inkscape:locked="false" />
    <sodipodi:guide
       position="136.26041,0"
       orientation="0,-515"
       id="guide1673"
       inkscape:locked="false" />
    <sodipodi:guide
       position="0,0"
       orientation="-300,0"
       id="guide1675"
       inkscape:locked="false" />
  </sodipodi:namedview>
  <defs
     id="defs1662">
    <clipPath
       id="clippath">
      <rect
         class="cls-6"
         x="1490.6"
         y="163.5"
         width="202.3"
         height="40.299999"
         id="rect48" />
    </clipPath>
    <clipPath
       id="clippath-1">
      <rect
         class="cls-6"
         x="1490.6"
         y="163.5"
         width="202.3"
         height="40.299999"
         id="rect51" />
    </clipPath>
  </defs>
  <g
     inkscape:label="Warstwa 1"
     inkscape:groupmode="layer"
     id="layer1">
    <path
       class="cls-13"
       d="m 96.933233,1.937383 c 20.902077,0 37.861867,16.959791 37.861867,37.861875"
       id="path151"
       style="isolation:isolate;fill:none;stroke:#fdd203;stroke-width:2.24896px;stroke-miterlimit:10" />
    <path
       class="cls-13"
       d="m 59.071356,39.799258 c 0,-20.902084 16.959787,-37.861875 37.861877,-37.861875"
       id="path153"
       style="isolation:isolate;fill:none;stroke:#fdd203;stroke-width:2.24896px;stroke-miterlimit:10" />
    <path
       class="cls-13"
       d="m 96.933233,77.634674 c -20.90209,0 -37.861877,-16.959792 -37.861877,-37.861875"
       id="path155"
       style="isolation:isolate;fill:none;stroke:#fdd203;stroke-width:2.24896px;stroke-miterlimit:10" />
    <path
       class="cls-13"
       d="m 134.76864,39.799258 c 0,20.902083 -16.95979,37.861874 -37.861867,37.861874"
       id="path157"
       style="isolation:isolate;fill:none;stroke:#fdd203;stroke-width:2.24896px;stroke-miterlimit:10" />
    <g
       id="g424"
       style="isolation:isolate"
       transform="matrix(0.26458333,0,0,0.26458333,-336.71885,-20.605117)">
      <rect
         class="cls-21"
         x="1275"
         y="139.2"
         width="471.79999"
         height="178.2"
         rx="37.599998"
         ry="37.599998"
         id="rect161"
         style="fill:#ededed;stroke-width:0px" />
      <g
         id="g422">
        <text
           class="cls-1"
           transform="translate(1274,200.2)"
           id="text169"
           style="font-style:italic;font-weight:500;font-size:37.2px;font-family:Poppins-MediumItalic, Poppins;fill:#000000"><tspan
             x="0"
             y="0"
             id="tspan163">Wholesale</tspan><tspan
             x="0"
             y="44.599998"
             id="tspan165">and export of products</tspan><tspan
             x="0"
             y="89.199997"
             id="tspan167">to the European market!</tspan></text>
        <g
           id="kropki">
          <g
             class="cls-26"
             clip-path="url(#clippath)"
             id="g419">
            <g
               class="cls-28"
               clip-path="url(#clippath-1)"
               id="g417">
              <line
                 class="cls-16"
                 x1="1594.6"
                 y1="179"
                 x2="1615.9"
                 y2="200.3"
                 id="line171"
                 style="fill:none;stroke:#1d1e1c;stroke-width:2.1px;stroke-linecap:round;stroke-linejoin:round;stroke-dasharray:0, 0, 0, 6.7" />
              <path
                 class="cls-24"
                 d="m 1561.7,194.5 c 0.7,0 1.3,-0.6 1.3,-1.3 0,-0.7 -0.6,-1.3 -1.3,-1.3 -0.7,0 -1.3,0.6 -1.3,1.3 0,0.7 0.6,1.3 1.3,1.3"
                 id="path173"
                 style="fill:#ca151a;stroke-width:0px" />
              <path
                 class="cls-24"
                 d="m 1556.9,189.8 c 0.7,0 1.3,-0.6 1.3,-1.3 0,-0.7 -0.6,-1.3 -1.3,-1.3 -0.7,0 -1.3,0.6 -1.3,1.3 0,0.7 0.6,1.3 1.3,1.3"
                 id="path175"
                 style="fill:#ca151a;stroke-width:0px" />
              <path
                 class="cls-24"
                 d="m 1566.4,199.2 c 0.7,0 1.3,-0.6 1.3,-1.3 0,-0.7 -0.6,-1.3 -1.3,-1.3 -0.7,0 -1.3,0.6 -1.3,1.3 0,0.7 0.6,1.3 1.3,1.3"
                 id="path177"
                 style="fill:#ca151a;stroke-width:0px" />
              <path
                 class="cls-24"
                 d="m 1566.4,189.7 c 0.7,0 1.3,-0.6 1.3,-1.3 0,-0.7 -0.6,-1.3 -1.3,-1.3 -0.7,0 -1.3,0.6 -1.3,1.3 0,0.7 0.6,1.3 1.3,1.3"
                 id="path179"
                 style="fill:#ca151a;stroke-width:0px" />
              <path
                 class="cls-24"
                 d="m 1603.3,196.4 c -0.7,0 -1.3,0.6 -1.3,1.3 0,0.7 0.6,1.3 1.3,1.3 0.7,0 1.3,-0.6 1.3,-1.3 0,-0.7 -0.6,-1.3 -1.3,-1.3"
                 id="path181"
                 style="fill:#ca151a;stroke-width:0px" />
              <path
                 class="cls-24"
                 d="m 1608.1,201.1 c -0.7,0 -1.3,0.6 -1.3,1.3 0,0.7 0.6,1.3 1.3,1.3 0.7,0 1.3,-0.6 1.3,-1.3 0,-0.7 -0.6,-1.3 -1.3,-1.3"
                 id="path183"
                 style="fill:#ca151a;stroke-width:0px" />
              <path
                 class="cls-24"
                 d="m 1598.6,191.7 c -0.7,0 -1.3,0.6 -1.3,1.3 0,0.7 0.6,1.3 1.3,1.3 0.7,0 1.3,-0.6 1.3,-1.3 0,-0.7 -0.6,-1.3 -1.3,-1.3"
                 id="path185"
                 style="fill:#ca151a;stroke-width:0px" />
              <path
                 class="cls-24"
                 d="m 1598.6,201.2 c -0.7,0 -1.3,0.6 -1.3,1.3 0,0.7 0.6,1.3 1.3,1.3 0.7,0 1.3,-0.6 1.3,-1.3 0,-0.7 -0.6,-1.3 -1.3,-1.3"
                 id="path187"
                 style="fill:#ca151a;stroke-width:0px" />
              <path
                 class="cls-24"
                 d="m 1568.3,178.6 c 0,-0.7 -0.6,-1.3 -1.3,-1.3 -0.7,0 -1.3,0.6 -1.3,1.3 0,0.7 0.6,1.3 1.3,1.3 0.7,0 1.3,-0.6 1.3,-1.3"
                 id="path189"
                 style="fill:#ca151a;stroke-width:0px" />
              <path
                 class="cls-24"
                 d="m 1563.6,183.3 c 0,-0.7 -0.6,-1.3 -1.3,-1.3 -0.7,0 -1.3,0.6 -1.3,1.3 0,0.7 0.6,1.3 1.3,1.3 0.7,0 1.3,-0.6 1.3,-1.3"
                 id="path191"
                 style="fill:#ca151a;stroke-width:0px" />
              <path
                 class="cls-24"
                 d="m 1573.1,173.9 c 0,-0.7 -0.6,-1.3 -1.3,-1.3 -0.7,0 -1.3,0.6 -1.3,1.3 0,0.7 0.6,1.3 1.3,1.3 0.7,0 1.3,-0.6 1.3,-1.3"
                 id="path193"
                 style="fill:#ca151a;stroke-width:0px" />
              <path
                 class="cls-24"
                 d="m 1563.6,173.9 c 0,-0.7 -0.6,-1.3 -1.3,-1.3 -0.7,0 -1.3,0.6 -1.3,1.3 0,0.7 0.6,1.3 1.3,1.3 0.7,0 1.3,-0.6 1.3,-1.3"
                 id="path195"
                 style="fill:#ca151a;stroke-width:0px" />
              <path
                 class="cls-3"
                 d="m 1575,178.5 c 0,0.7 0.6,1.3 1.3,1.3 0.7,0 1.3,-0.6 1.3,-1.3 0,-0.7 -0.6,-1.3 -1.3,-1.3 -0.7,0 -1.3,0.6 -1.3,1.3"
                 id="path197"
                 style="fill:#000000;stroke-width:0px" />
              <path
                 class="cls-3"
                 d="m 1579.7,173.7 c 0,0.7 0.6,1.3 1.3,1.3 0.7,0 1.3,-0.6 1.3,-1.3 0,-0.7 -0.6,-1.3 -1.3,-1.3 -0.7,0 -1.3,0.6 -1.3,1.3"
                 id="path199"
                 style="fill:#000000;stroke-width:0px" />
              <path
                 class="cls-3"
                 d="m 1570.3,183.2 c 0,0.7 0.6,1.3 1.3,1.3 0.7,0 1.3,-0.6 1.3,-1.3 0,-0.7 -0.6,-1.3 -1.3,-1.3 -0.7,0 -1.3,0.6 -1.3,1.3"
                 id="path201"
                 style="fill:#000000;stroke-width:0px" />
              <path
                 class="cls-3"
                 d="m 1579.8,183.2 c 0,0.7 0.6,1.3 1.3,1.3 0.7,0 1.3,-0.6 1.3,-1.3 0,-0.7 -0.6,-1.3 -1.3,-1.3 -0.7,0 -1.3,0.6 -1.3,1.3"
                 id="path203"
                 style="fill:#000000;stroke-width:0px" />
              <path
                 class="cls-3"
                 d="m 1607.3,174.4 c 0,0.7 0.6,1.3 1.3,1.3 0.7,0 1.3,-0.6 1.3,-1.3 0,-0.7 -0.6,-1.3 -1.3,-1.3 -0.7,0 -1.3,0.6 -1.3,1.3"
                 id="path205"
                 style="fill:#000000;stroke-width:0px" />
              <path
                 class="cls-3"
                 d="m 1612,169.6 c 0,0.7 0.6,1.3 1.3,1.3 0.7,0 1.3,-0.6 1.3,-1.3 0,-0.7 -0.6,-1.3 -1.3,-1.3 -0.7,0 -1.3,0.6 -1.3,1.3"
                 id="path207"
                 style="fill:#000000;stroke-width:0px" />
              <path
                 class="cls-3"
                 d="m 1602.6,179.1 c 0,0.7 0.6,1.3 1.3,1.3 0.7,0 1.3,-0.6 1.3,-1.3 0,-0.7 -0.6,-1.3 -1.3,-1.3 -0.7,0 -1.3,0.6 -1.3,1.3"
                 id="path209"
                 style="fill:#000000;stroke-width:0px" />
              <path
                 class="cls-3"
                 d="m 1612.1,179.1 c 0,0.7 0.6,1.3 1.3,1.3 0.7,0 1.3,-0.6 1.3,-1.3 0,-0.7 -0.6,-1.3 -1.3,-1.3 -0.7,0 -1.3,0.6 -1.3,1.3"
                 id="path211"
                 style="fill:#000000;stroke-width:0px" />
              <path
                 class="cls-3"
                 d="m 1588,193.2 c 0,0.7 0.6,1.3 1.3,1.3 0.7,0 1.3,-0.6 1.3,-1.3 0,-0.7 -0.6,-1.3 -1.3,-1.3 -0.7,0 -1.3,0.6 -1.3,1.3"
                 id="path213"
                 style="fill:#000000;stroke-width:0px" />
              <path
                 class="cls-3"
                 d="m 1592.8,188.5 c 0,0.7 0.6,1.3 1.3,1.3 0.7,0 1.3,-0.6 1.3,-1.3 0,-0.7 -0.6,-1.3 -1.3,-1.3 -0.7,0 -1.3,0.6 -1.3,1.3"
                 id="path215"
                 style="fill:#000000;stroke-width:0px" />
              <path
                 class="cls-3"
                 d="m 1583.3,198 c 0,0.7 0.6,1.3 1.3,1.3 0.7,0 1.3,-0.6 1.3,-1.3 0,-0.7 -0.6,-1.3 -1.3,-1.3 -0.7,0 -1.3,0.6 -1.3,1.3"
                 id="path217"
                 style="fill:#000000;stroke-width:0px" />
              <path
                 class="cls-3"
                 d="m 1592.8,198 c 0,0.7 0.6,1.3 1.3,1.3 0.7,0 1.3,-0.6 1.3,-1.3 0,-0.7 -0.6,-1.3 -1.3,-1.3 -0.7,0 -1.3,0.6 -1.3,1.3"
                 id="path219"
                 style="fill:#000000;stroke-width:0px" />
              <path
                 class="cls-20"
                 d="m 1594.6,177.7 c -0.7,0 -1.3,0.6 -1.3,1.3 0,0.7 0.6,1.3 1.3,1.3 0.7,0 1.3,-0.6 1.3,-1.3 0,-0.7 -0.6,-1.3 -1.3,-1.3"
                 id="path221"
                 style="fill:#fdd203;stroke-width:0px" />
              <path
                 class="cls-20"
                 d="m 1599.3,182.4 c -0.7,0 -1.3,0.6 -1.3,1.3 0,0.7 0.6,1.3 1.3,1.3 0.7,0 1.3,-0.6 1.3,-1.3 0,-0.7 -0.6,-1.3 -1.3,-1.3"
                 id="path223"
                 style="fill:#fdd203;stroke-width:0px" />
              <path
                 class="cls-20"
                 d="m 1589.9,172.9 c -0.7,0 -1.3,0.6 -1.3,1.3 0,0.7 0.6,1.3 1.3,1.3 0.7,0 1.3,-0.6 1.3,-1.3 0,-0.7 -0.6,-1.3 -1.3,-1.3"
                 id="path225"
                 style="fill:#fdd203;stroke-width:0px" />
              <path
                 class="cls-20"
                 d="m 1589.9,182.4 c -0.7,0 -1.3,0.6 -1.3,1.3 0,0.7 0.6,1.3 1.3,1.3 0.7,0 1.3,-0.6 1.3,-1.3 0,-0.7 -0.6,-1.3 -1.3,-1.3"
                 id="path227"
                 style="fill:#fdd203;stroke-width:0px" />
              <path
                 class="cls-20"
                 d="m 1594.5,170.9 c 0.7,0 1.3,-0.6 1.3,-1.3 0,-0.7 -0.6,-1.3 -1.3,-1.3 -0.7,0 -1.3,0.6 -1.3,1.3 0,0.7 0.6,1.3 1.3,1.3"
                 id="path229"
                 style="fill:#fdd203;stroke-width:0px" />
              <path
                 class="cls-20"
                 d="m 1589.8,166.2 c 0.7,0 1.3,-0.6 1.3,-1.3 0,-0.7 -0.6,-1.3 -1.3,-1.3 -0.7,0 -1.3,0.6 -1.3,1.3 0,0.7 0.6,1.3 1.3,1.3"
                 id="path231"
                 style="fill:#fdd203;stroke-width:0px" />
              <path
                 class="cls-20"
                 d="m 1599.3,175.6 c 0.7,0 1.3,-0.6 1.3,-1.3 0,-0.7 -0.6,-1.3 -1.3,-1.3 -0.7,0 -1.3,0.6 -1.3,1.3 0,0.7 0.6,1.3 1.3,1.3"
                 id="path233"
                 style="fill:#fdd203;stroke-width:0px" />
              <path
                 class="cls-20"
                 d="m 1599.3,166.2 c 0.7,0 1.3,-0.6 1.3,-1.3 0,-0.7 -0.6,-1.3 -1.3,-1.3 -0.7,0 -1.3,0.6 -1.3,1.3 0,0.7 0.6,1.3 1.3,1.3"
                 id="path235"
                 style="fill:#fdd203;stroke-width:0px" />
              <path
                 class="cls-20"
                 d="m 1608.6,194.4 c 0.7,0 1.3,-0.6 1.3,-1.3 0,-0.7 -0.6,-1.3 -1.3,-1.3 -0.7,0 -1.3,0.6 -1.3,1.3 0,0.7 0.6,1.3 1.3,1.3"
                 id="path237"
                 style="fill:#fdd203;stroke-width:0px" />
              <path
                 class="cls-20"
                 d="m 1603.8,189.7 c 0.7,0 1.3,-0.6 1.3,-1.3 0,-0.7 -0.6,-1.3 -1.3,-1.3 -0.7,0 -1.3,0.6 -1.3,1.3 0,0.7 0.6,1.3 1.3,1.3"
                 id="path239"
                 style="fill:#fdd203;stroke-width:0px" />
              <path
                 class="cls-20"
                 d="m 1613.3,199.2 c 0.7,0 1.3,-0.6 1.3,-1.3 0,-0.7 -0.6,-1.3 -1.3,-1.3 -0.7,0 -1.3,0.6 -1.3,1.3 0,0.7 0.6,1.3 1.3,1.3"
                 id="path241"
                 style="fill:#fdd203;stroke-width:0px" />
              <path
                 class="cls-20"
                 d="m 1613.3,189.7 c 0.7,0 1.3,-0.6 1.3,-1.3 0,-0.7 -0.6,-1.3 -1.3,-1.3 -0.7,0 -1.3,0.6 -1.3,1.3 0,0.7 0.6,1.3 1.3,1.3"
                 id="path243"
                 style="fill:#fdd203;stroke-width:0px" />
              <path
                 class="cls-24"
                 d="m 1622.1,187.3 c -0.7,0 -1.3,0.6 -1.3,1.3 0,0.7 0.6,1.3 1.3,1.3 0.7,0 1.3,-0.6 1.3,-1.3 0,-0.7 -0.6,-1.3 -1.3,-1.3"
                 id="path245"
                 style="fill:#ca151a;stroke-width:0px" />
              <path
                 class="cls-24"
                 d="m 1626.8,192 c -0.7,0 -1.3,0.6 -1.3,1.3 0,0.7 0.6,1.3 1.3,1.3 0.7,0 1.3,-0.6 1.3,-1.3 0,-0.7 -0.6,-1.3 -1.3,-1.3"
                 id="path247"
                 style="fill:#ca151a;stroke-width:0px" />
              <path
                 class="cls-24"
                 d="m 1617.3,182.6 c -0.7,0 -1.3,0.6 -1.3,1.3 0,0.7 0.6,1.3 1.3,1.3 0.7,0 1.3,-0.6 1.3,-1.3 0,-0.7 -0.6,-1.3 -1.3,-1.3"
                 id="path249"
                 style="fill:#ca151a;stroke-width:0px" />
              <path
                 class="cls-24"
                 d="m 1617.3,192.1 c -0.7,0 -1.3,0.6 -1.3,1.3 0,0.7 0.6,1.3 1.3,1.3 0.7,0 1.3,-0.6 1.3,-1.3 0,-0.7 -0.6,-1.3 -1.3,-1.3"
                 id="path251"
                 style="fill:#ca151a;stroke-width:0px" />
              <line
                 class="cls-16"
                 x1="1659.4"
                 y1="179"
                 x2="1680.7"
                 y2="200.3"
                 id="line253"
                 style="fill:none;stroke:#1d1e1c;stroke-width:2.1px;stroke-linecap:round;stroke-linejoin:round;stroke-dasharray:0, 0, 0, 6.7" />
              <path
                 class="cls-24"
                 d="m 1626.4,194.5 c 0.7,0 1.3,-0.6 1.3,-1.3 0,-0.7 -0.6,-1.3 -1.3,-1.3 -0.7,0 -1.3,0.6 -1.3,1.3 0,0.7 0.6,1.3 1.3,1.3"
                 id="path255"
                 style="fill:#ca151a;stroke-width:0px" />
              <path
                 class="cls-24"
                 d="m 1621.7,189.8 c 0.7,0 1.3,-0.6 1.3,-1.3 0,-0.7 -0.6,-1.3 -1.3,-1.3 -0.7,0 -1.3,0.6 -1.3,1.3 0,0.7 0.6,1.3 1.3,1.3"
                 id="path257"
                 style="fill:#ca151a;stroke-width:0px" />
              <path
                 class="cls-24"
                 d="m 1631.2,199.2 c 0.7,0 1.3,-0.6 1.3,-1.3 0,-0.7 -0.6,-1.3 -1.3,-1.3 -0.7,0 -1.3,0.6 -1.3,1.3 0,0.7 0.6,1.3 1.3,1.3"
                 id="path259"
                 style="fill:#ca151a;stroke-width:0px" />
              <path
                 class="cls-24"
                 d="m 1631.1,189.7 c 0.7,0 1.3,-0.6 1.3,-1.3 0,-0.7 -0.6,-1.3 -1.3,-1.3 -0.7,0 -1.3,0.6 -1.3,1.3 0,0.7 0.6,1.3 1.3,1.3"
                 id="path261"
                 style="fill:#ca151a;stroke-width:0px" />
              <path
                 class="cls-24"
                 d="m 1668.1,196.4 c -0.7,0 -1.3,0.6 -1.3,1.3 0,0.7 0.6,1.3 1.3,1.3 0.7,0 1.3,-0.6 1.3,-1.3 0,-0.7 -0.6,-1.3 -1.3,-1.3"
                 id="path263"
                 style="fill:#ca151a;stroke-width:0px" />
              <path
                 class="cls-24"
                 d="m 1672.9,201.1 c -0.7,0 -1.3,0.6 -1.3,1.3 0,0.7 0.6,1.3 1.3,1.3 0.7,0 1.3,-0.6 1.3,-1.3 0,-0.7 -0.6,-1.3 -1.3,-1.3"
                 id="path265"
                 style="fill:#ca151a;stroke-width:0px" />
              <path
                 class="cls-24"
                 d="m 1663.4,191.7 c -0.7,0 -1.3,0.6 -1.3,1.3 0,0.7 0.6,1.3 1.3,1.3 0.7,0 1.3,-0.6 1.3,-1.3 0,-0.7 -0.6,-1.3 -1.3,-1.3"
                 id="path267"
                 style="fill:#ca151a;stroke-width:0px" />
              <path
                 class="cls-24"
                 d="m 1663.4,201.2 c -0.7,0 -1.3,0.6 -1.3,1.3 0,0.7 0.6,1.3 1.3,1.3 0.7,0 1.3,-0.6 1.3,-1.3 0,-0.7 -0.6,-1.3 -1.3,-1.3"
                 id="path269"
                 style="fill:#ca151a;stroke-width:0px" />
              <path
                 class="cls-24"
                 d="m 1633.1,178.6 c 0,-0.7 -0.6,-1.3 -1.3,-1.3 -0.7,0 -1.3,0.6 -1.3,1.3 0,0.7 0.6,1.3 1.3,1.3 0.7,0 1.3,-0.6 1.3,-1.3"
                 id="path271"
                 style="fill:#ca151a;stroke-width:0px" />
              <path
                 class="cls-24"
                 d="m 1628.4,183.3 c 0,-0.7 -0.6,-1.3 -1.3,-1.3 -0.7,0 -1.3,0.6 -1.3,1.3 0,0.7 0.6,1.3 1.3,1.3 0.7,0 1.3,-0.6 1.3,-1.3"
                 id="path273"
                 style="fill:#ca151a;stroke-width:0px" />
              <path
                 class="cls-24"
                 d="m 1637.8,173.9 c 0,-0.7 -0.6,-1.3 -1.3,-1.3 -0.7,0 -1.3,0.6 -1.3,1.3 0,0.7 0.6,1.3 1.3,1.3 0.7,0 1.3,-0.6 1.3,-1.3"
                 id="path275"
                 style="fill:#ca151a;stroke-width:0px" />
              <path
                 class="cls-24"
                 d="m 1628.4,173.9 c 0,-0.7 -0.6,-1.3 -1.3,-1.3 -0.7,0 -1.3,0.6 -1.3,1.3 0,0.7 0.6,1.3 1.3,1.3 0.7,0 1.3,-0.6 1.3,-1.3"
                 id="path277"
                 style="fill:#ca151a;stroke-width:0px" />
              <path
                 class="cls-3"
                 d="m 1639.8,178.5 c 0,0.7 0.6,1.3 1.3,1.3 0.7,0 1.3,-0.6 1.3,-1.3 0,-0.7 -0.6,-1.3 -1.3,-1.3 -0.7,0 -1.3,0.6 -1.3,1.3"
                 id="path279"
                 style="fill:#000000;stroke-width:0px" />
              <path
                 class="cls-3"
                 d="m 1644.5,173.7 c 0,0.7 0.6,1.3 1.3,1.3 0.7,0 1.3,-0.6 1.3,-1.3 0,-0.7 -0.6,-1.3 -1.3,-1.3 -0.7,0 -1.3,0.6 -1.3,1.3"
                 id="path281"
                 style="fill:#000000;stroke-width:0px" />
              <path
                 class="cls-3"
                 d="m 1635.1,183.2 c 0,0.7 0.6,1.3 1.3,1.3 0.7,0 1.3,-0.6 1.3,-1.3 0,-0.7 -0.6,-1.3 -1.3,-1.3 -0.7,0 -1.3,0.6 -1.3,1.3"
                 id="path283"
                 style="fill:#000000;stroke-width:0px" />
              <path
                 class="cls-3"
                 d="m 1644.6,183.2 c 0,0.7 0.6,1.3 1.3,1.3 0.7,0 1.3,-0.6 1.3,-1.3 0,-0.7 -0.6,-1.3 -1.3,-1.3 -0.7,0 -1.3,0.6 -1.3,1.3"
                 id="path285"
                 style="fill:#000000;stroke-width:0px" />
              <path
                 class="cls-3"
                 d="m 1672.1,174.4 c 0,0.7 0.6,1.3 1.3,1.3 0.7,0 1.3,-0.6 1.3,-1.3 0,-0.7 -0.6,-1.3 -1.3,-1.3 -0.7,0 -1.3,0.6 -1.3,1.3"
                 id="path287"
                 style="fill:#000000;stroke-width:0px" />
              <path
                 class="cls-3"
                 d="m 1676.8,169.6 c 0,0.7 0.6,1.3 1.3,1.3 0.7,0 1.3,-0.6 1.3,-1.3 0,-0.7 -0.6,-1.3 -1.3,-1.3 -0.7,0 -1.3,0.6 -1.3,1.3"
                 id="path289"
                 style="fill:#000000;stroke-width:0px" />
              <path
                 class="cls-3"
                 d="m 1667.3,179.1 c 0,0.7 0.6,1.3 1.3,1.3 0.7,0 1.3,-0.6 1.3,-1.3 0,-0.7 -0.6,-1.3 -1.3,-1.3 -0.7,0 -1.3,0.6 -1.3,1.3"
                 id="path291"
                 style="fill:#000000;stroke-width:0px" />
              <path
                 class="cls-3"
                 d="m 1676.8,179.1 c 0,0.7 0.6,1.3 1.3,1.3 0.7,0 1.3,-0.6 1.3,-1.3 0,-0.7 -0.6,-1.3 -1.3,-1.3 -0.7,0 -1.3,0.6 -1.3,1.3"
                 id="path293"
                 style="fill:#000000;stroke-width:0px" />
              <path
                 class="cls-3"
                 d="m 1652.8,193.2 c 0,0.7 0.6,1.3 1.3,1.3 0.7,0 1.3,-0.6 1.3,-1.3 0,-0.7 -0.6,-1.3 -1.3,-1.3 -0.7,0 -1.3,0.6 -1.3,1.3"
                 id="path295"
                 style="fill:#000000;stroke-width:0px" />
              <path
                 class="cls-3"
                 d="m 1657.5,188.5 c 0,0.7 0.6,1.3 1.3,1.3 0.7,0 1.3,-0.6 1.3,-1.3 0,-0.7 -0.6,-1.3 -1.3,-1.3 -0.7,0 -1.3,0.6 -1.3,1.3"
                 id="path297"
                 style="fill:#000000;stroke-width:0px" />
              <path
                 class="cls-3"
                 d="m 1648.1,198 c 0,0.7 0.6,1.3 1.3,1.3 0.7,0 1.3,-0.6 1.3,-1.3 0,-0.7 -0.6,-1.3 -1.3,-1.3 -0.7,0 -1.3,0.6 -1.3,1.3"
                 id="path299"
                 style="fill:#000000;stroke-width:0px" />
              <path
                 class="cls-3"
                 d="m 1657.6,198 c 0,0.7 0.6,1.3 1.3,1.3 0.7,0 1.3,-0.6 1.3,-1.3 0,-0.7 -0.6,-1.3 -1.3,-1.3 -0.7,0 -1.3,0.6 -1.3,1.3"
                 id="path301"
                 style="fill:#000000;stroke-width:0px" />
              <path
                 class="cls-20"
                 d="m 1659.4,177.7 c -0.7,0 -1.3,0.6 -1.3,1.3 0,0.7 0.6,1.3 1.3,1.3 0.7,0 1.3,-0.6 1.3,-1.3 0,-0.7 -0.6,-1.3 -1.3,-1.3"
                 id="path303"
                 style="fill:#fdd203;stroke-width:0px" />
              <path
                 class="cls-20"
                 d="m 1664.1,182.4 c -0.7,0 -1.3,0.6 -1.3,1.3 0,0.7 0.6,1.3 1.3,1.3 0.7,0 1.3,-0.6 1.3,-1.3 0,-0.7 -0.6,-1.3 -1.3,-1.3"
                 id="path305"
                 style="fill:#fdd203;stroke-width:0px" />
              <path
                 class="cls-20"
                 d="m 1654.6,172.9 c -0.7,0 -1.3,0.6 -1.3,1.3 0,0.7 0.6,1.3 1.3,1.3 0.7,0 1.3,-0.6 1.3,-1.3 0,-0.7 -0.6,-1.3 -1.3,-1.3"
                 id="path307"
                 style="fill:#fdd203;stroke-width:0px" />
              <path
                 class="cls-20"
                 d="m 1654.6,182.4 c -0.7,0 -1.3,0.6 -1.3,1.3 0,0.7 0.6,1.3 1.3,1.3 0.7,0 1.3,-0.6 1.3,-1.3 0,-0.7 -0.6,-1.3 -1.3,-1.3"
                 id="path309"
                 style="fill:#fdd203;stroke-width:0px" />
              <path
                 class="cls-20"
                 d="m 1659.3,170.9 c 0.7,0 1.3,-0.6 1.3,-1.3 0,-0.7 -0.6,-1.3 -1.3,-1.3 -0.7,0 -1.3,0.6 -1.3,1.3 0,0.7 0.6,1.3 1.3,1.3"
                 id="path311"
                 style="fill:#fdd203;stroke-width:0px" />
              <path
                 class="cls-20"
                 d="m 1654.6,166.2 c 0.7,0 1.3,-0.6 1.3,-1.3 0,-0.7 -0.6,-1.3 -1.3,-1.3 -0.7,0 -1.3,0.6 -1.3,1.3 0,0.7 0.6,1.3 1.3,1.3"
                 id="path313"
                 style="fill:#fdd203;stroke-width:0px" />
              <path
                 class="cls-20"
                 d="m 1664,175.6 c 0.7,0 1.3,-0.6 1.3,-1.3 0,-0.7 -0.6,-1.3 -1.3,-1.3 -0.7,0 -1.3,0.6 -1.3,1.3 0,0.7 0.6,1.3 1.3,1.3"
                 id="path315"
                 style="fill:#fdd203;stroke-width:0px" />
              <path
                 class="cls-20"
                 d="m 1664,166.2 c 0.7,0 1.3,-0.6 1.3,-1.3 0,-0.7 -0.6,-1.3 -1.3,-1.3 -0.7,0 -1.3,0.6 -1.3,1.3 0,0.7 0.6,1.3 1.3,1.3"
                 id="path317"
                 style="fill:#fdd203;stroke-width:0px" />
              <path
                 class="cls-20"
                 d="m 1673.3,194.4 c 0.7,0 1.3,-0.6 1.3,-1.3 0,-0.7 -0.6,-1.3 -1.3,-1.3 -0.7,0 -1.3,0.6 -1.3,1.3 0,0.7 0.6,1.3 1.3,1.3"
                 id="path319"
                 style="fill:#fdd203;stroke-width:0px" />
              <path
                 class="cls-20"
                 d="m 1668.6,189.7 c 0.7,0 1.3,-0.6 1.3,-1.3 0,-0.7 -0.6,-1.3 -1.3,-1.3 -0.7,0 -1.3,0.6 -1.3,1.3 0,0.7 0.6,1.3 1.3,1.3"
                 id="path321"
                 style="fill:#fdd203;stroke-width:0px" />
              <path
                 class="cls-20"
                 d="m 1678.1,199.2 c 0.7,0 1.3,-0.6 1.3,-1.3 0,-0.7 -0.6,-1.3 -1.3,-1.3 -0.7,0 -1.3,0.6 -1.3,1.3 0,0.7 0.6,1.3 1.3,1.3"
                 id="path323"
                 style="fill:#fdd203;stroke-width:0px" />
              <path
                 class="cls-20"
                 d="m 1678.1,189.7 c 0.7,0 1.3,-0.6 1.3,-1.3 0,-0.7 -0.6,-1.3 -1.3,-1.3 -0.7,0 -1.3,0.6 -1.3,1.3 0,0.7 0.6,1.3 1.3,1.3"
                 id="path325"
                 style="fill:#fdd203;stroke-width:0px" />
              <path
                 class="cls-24"
                 d="m 1686.8,187.3 c -0.7,0 -1.3,0.6 -1.3,1.3 0,0.7 0.6,1.3 1.3,1.3 0.7,0 1.3,-0.6 1.3,-1.3 0,-0.7 -0.6,-1.3 -1.3,-1.3"
                 id="path327"
                 style="fill:#ca151a;stroke-width:0px" />
              <path
                 class="cls-24"
                 d="m 1691.6,192 c -0.7,0 -1.3,0.6 -1.3,1.3 0,0.7 0.6,1.3 1.3,1.3 0.7,0 1.3,-0.6 1.3,-1.3 0,-0.7 -0.6,-1.3 -1.3,-1.3"
                 id="path329"
                 style="fill:#ca151a;stroke-width:0px" />
              <path
                 class="cls-24"
                 d="m 1682.1,182.6 c -0.7,0 -1.3,0.6 -1.3,1.3 0,0.7 0.6,1.3 1.3,1.3 0.7,0 1.3,-0.6 1.3,-1.3 0,-0.7 -0.6,-1.3 -1.3,-1.3"
                 id="path331"
                 style="fill:#ca151a;stroke-width:0px" />
              <path
                 class="cls-24"
                 d="m 1682.1,192.1 c -0.7,0 -1.3,0.6 -1.3,1.3 0,0.7 0.6,1.3 1.3,1.3 0.7,0 1.3,-0.6 1.3,-1.3 0,-0.7 -0.6,-1.3 -1.3,-1.3"
                 id="path333"
                 style="fill:#ca151a;stroke-width:0px" />
              <line
                 class="cls-16"
                 x1="1529.6"
                 y1="179"
                 x2="1550.9"
                 y2="200.3"
                 id="line335"
                 style="fill:none;stroke:#1d1e1c;stroke-width:2.1px;stroke-linecap:round;stroke-linejoin:round;stroke-dasharray:0, 0, 0, 6.7" />
              <path
                 class="cls-24"
                 d="m 1496.7,194.5 c 0.7,0 1.3,-0.6 1.3,-1.3 0,-0.7 -0.6,-1.3 -1.3,-1.3 -0.7,0 -1.3,0.6 -1.3,1.3 0,0.7 0.6,1.3 1.3,1.3"
                 id="path337"
                 style="fill:#ca151a;stroke-width:0px" />
              <path
                 class="cls-24"
                 d="m 1491.9,189.8 c 0.7,0 1.3,-0.6 1.3,-1.3 0,-0.7 -0.6,-1.3 -1.3,-1.3 -0.7,0 -1.3,0.6 -1.3,1.3 0,0.7 0.6,1.3 1.3,1.3"
                 id="path339"
                 style="fill:#ca151a;stroke-width:0px" />
              <path
                 class="cls-24"
                 d="m 1501.4,199.2 c 0.7,0 1.3,-0.6 1.3,-1.3 0,-0.7 -0.6,-1.3 -1.3,-1.3 -0.7,0 -1.3,0.6 -1.3,1.3 0,0.7 0.6,1.3 1.3,1.3"
                 id="path341"
                 style="fill:#ca151a;stroke-width:0px" />
              <path
                 class="cls-24"
                 d="m 1501.4,189.7 c 0.7,0 1.3,-0.6 1.3,-1.3 0,-0.7 -0.6,-1.3 -1.3,-1.3 -0.7,0 -1.3,0.6 -1.3,1.3 0,0.7 0.6,1.3 1.3,1.3"
                 id="path343"
                 style="fill:#ca151a;stroke-width:0px" />
              <path
                 class="cls-24"
                 d="m 1538.4,196.4 c -0.7,0 -1.3,0.6 -1.3,1.3 0,0.7 0.6,1.3 1.3,1.3 0.7,0 1.3,-0.6 1.3,-1.3 0,-0.7 -0.6,-1.3 -1.3,-1.3"
                 id="path345"
                 style="fill:#ca151a;stroke-width:0px" />
              <path
                 class="cls-24"
                 d="m 1543.1,201.1 c -0.7,0 -1.3,0.6 -1.3,1.3 0,0.7 0.6,1.3 1.3,1.3 0.7,0 1.3,-0.6 1.3,-1.3 0,-0.7 -0.6,-1.3 -1.3,-1.3"
                 id="path347"
                 style="fill:#ca151a;stroke-width:0px" />
              <path
                 class="cls-24"
                 d="m 1533.6,191.7 c -0.7,0 -1.3,0.6 -1.3,1.3 0,0.7 0.6,1.3 1.3,1.3 0.7,0 1.3,-0.6 1.3,-1.3 0,-0.7 -0.6,-1.3 -1.3,-1.3"
                 id="path349"
                 style="fill:#ca151a;stroke-width:0px" />
              <path
                 class="cls-24"
                 d="m 1533.6,201.2 c -0.7,0 -1.3,0.6 -1.3,1.3 0,0.7 0.6,1.3 1.3,1.3 0.7,0 1.3,-0.6 1.3,-1.3 0,-0.7 -0.6,-1.3 -1.3,-1.3"
                 id="path351"
                 style="fill:#ca151a;stroke-width:0px" />
              <path
                 class="cls-24"
                 d="m 1503.4,178.6 c 0,-0.7 -0.6,-1.3 -1.3,-1.3 -0.7,0 -1.3,0.6 -1.3,1.3 0,0.7 0.6,1.3 1.3,1.3 0.7,0 1.3,-0.6 1.3,-1.3"
                 id="path353"
                 style="fill:#ca151a;stroke-width:0px" />
              <path
                 class="cls-24"
                 d="m 1498.7,183.3 c 0,-0.7 -0.6,-1.3 -1.3,-1.3 -0.7,0 -1.3,0.6 -1.3,1.3 0,0.7 0.6,1.3 1.3,1.3 0.7,0 1.3,-0.6 1.3,-1.3"
                 id="path355"
                 style="fill:#ca151a;stroke-width:0px" />
              <path
                 class="cls-24"
                 d="m 1508.1,173.9 c 0,-0.7 -0.6,-1.3 -1.3,-1.3 -0.7,0 -1.3,0.6 -1.3,1.3 0,0.7 0.6,1.3 1.3,1.3 0.7,0 1.3,-0.6 1.3,-1.3"
                 id="path357"
                 style="fill:#ca151a;stroke-width:0px" />
              <path
                 class="cls-24"
                 d="m 1498.6,173.9 c 0,-0.7 -0.6,-1.3 -1.3,-1.3 -0.7,0 -1.3,0.6 -1.3,1.3 0,0.7 0.6,1.3 1.3,1.3 0.7,0 1.3,-0.6 1.3,-1.3"
                 id="path359"
                 style="fill:#ca151a;stroke-width:0px" />
              <path
                 class="cls-3"
                 d="m 1510.1,178.5 c 0,0.7 0.6,1.3 1.3,1.3 0.7,0 1.3,-0.6 1.3,-1.3 0,-0.7 -0.6,-1.3 -1.3,-1.3 -0.7,0 -1.3,0.6 -1.3,1.3"
                 id="path361"
                 style="fill:#000000;stroke-width:0px" />
              <path
                 class="cls-3"
                 d="m 1514.8,173.7 c 0,0.7 0.6,1.3 1.3,1.3 0.7,0 1.3,-0.6 1.3,-1.3 0,-0.7 -0.6,-1.3 -1.3,-1.3 -0.7,0 -1.3,0.6 -1.3,1.3"
                 id="path363"
                 style="fill:#000000;stroke-width:0px" />
              <path
                 class="cls-3"
                 d="m 1505.3,183.2 c 0,0.7 0.6,1.3 1.3,1.3 0.7,0 1.3,-0.6 1.3,-1.3 0,-0.7 -0.6,-1.3 -1.3,-1.3 -0.7,0 -1.3,0.6 -1.3,1.3"
                 id="path365"
                 style="fill:#000000;stroke-width:0px" />
              <path
                 class="cls-3"
                 d="m 1514.8,183.2 c 0,0.7 0.6,1.3 1.3,1.3 0.7,0 1.3,-0.6 1.3,-1.3 0,-0.7 -0.6,-1.3 -1.3,-1.3 -0.7,0 -1.3,0.6 -1.3,1.3"
                 id="path367"
                 style="fill:#000000;stroke-width:0px" />
              <path
                 class="cls-3"
                 d="m 1542.3,174.4 c 0,0.7 0.6,1.3 1.3,1.3 0.7,0 1.3,-0.6 1.3,-1.3 0,-0.7 -0.6,-1.3 -1.3,-1.3 -0.7,0 -1.3,0.6 -1.3,1.3"
                 id="path369"
                 style="fill:#000000;stroke-width:0px" />
              <path
                 class="cls-3"
                 d="m 1547,169.6 c 0,0.7 0.6,1.3 1.3,1.3 0.7,0 1.3,-0.6 1.3,-1.3 0,-0.7 -0.6,-1.3 -1.3,-1.3 -0.7,0 -1.3,0.6 -1.3,1.3"
                 id="path371"
                 style="fill:#000000;stroke-width:0px" />
              <path
                 class="cls-3"
                 d="m 1537.6,179.1 c 0,0.7 0.6,1.3 1.3,1.3 0.7,0 1.3,-0.6 1.3,-1.3 0,-0.7 -0.6,-1.3 -1.3,-1.3 -0.7,0 -1.3,0.6 -1.3,1.3"
                 id="path373"
                 style="fill:#000000;stroke-width:0px" />
              <path
                 class="cls-3"
                 d="m 1547.1,179.1 c 0,0.7 0.6,1.3 1.3,1.3 0.7,0 1.3,-0.6 1.3,-1.3 0,-0.7 -0.6,-1.3 -1.3,-1.3 -0.7,0 -1.3,0.6 -1.3,1.3"
                 id="path375"
                 style="fill:#000000;stroke-width:0px" />
              <path
                 class="cls-3"
                 d="m 1523.1,193.2 c 0,0.7 0.6,1.3 1.3,1.3 0.7,0 1.3,-0.6 1.3,-1.3 0,-0.7 -0.6,-1.3 -1.3,-1.3 -0.7,0 -1.3,0.6 -1.3,1.3"
                 id="path377"
                 style="fill:#000000;stroke-width:0px" />
              <path
                 class="cls-3"
                 d="m 1527.8,188.5 c 0,0.7 0.6,1.3 1.3,1.3 0.7,0 1.3,-0.6 1.3,-1.3 0,-0.7 -0.6,-1.3 -1.3,-1.3 -0.7,0 -1.3,0.6 -1.3,1.3"
                 id="path379"
                 style="fill:#000000;stroke-width:0px" />
              <path
                 class="cls-3"
                 d="m 1518.3,198 c 0,0.7 0.6,1.3 1.3,1.3 0.7,0 1.3,-0.6 1.3,-1.3 0,-0.7 -0.6,-1.3 -1.3,-1.3 -0.7,0 -1.3,0.6 -1.3,1.3"
                 id="path381"
                 style="fill:#000000;stroke-width:0px" />
              <path
                 class="cls-3"
                 d="m 1527.8,198 c 0,0.7 0.6,1.3 1.3,1.3 0.7,0 1.3,-0.6 1.3,-1.3 0,-0.7 -0.6,-1.3 -1.3,-1.3 -0.7,0 -1.3,0.6 -1.3,1.3"
                 id="path383"
                 style="fill:#000000;stroke-width:0px" />
              <path
                 class="cls-20"
                 d="m 1529.6,177.7 c -0.7,0 -1.3,0.6 -1.3,1.3 0,0.7 0.6,1.3 1.3,1.3 0.7,0 1.3,-0.6 1.3,-1.3 0,-0.7 -0.6,-1.3 -1.3,-1.3"
                 id="path385"
                 style="fill:#fdd203;stroke-width:0px" />
              <path
                 class="cls-20"
                 d="m 1534.4,182.4 c -0.7,0 -1.3,0.6 -1.3,1.3 0,0.7 0.6,1.3 1.3,1.3 0.7,0 1.3,-0.6 1.3,-1.3 0,-0.7 -0.6,-1.3 -1.3,-1.3"
                 id="path387"
                 style="fill:#fdd203;stroke-width:0px" />
              <path
                 class="cls-20"
                 d="m 1524.9,172.9 c -0.7,0 -1.3,0.6 -1.3,1.3 0,0.7 0.6,1.3 1.3,1.3 0.7,0 1.3,-0.6 1.3,-1.3 0,-0.7 -0.6,-1.3 -1.3,-1.3"
                 id="path389"
                 style="fill:#fdd203;stroke-width:0px" />
              <path
                 class="cls-20"
                 d="m 1524.9,182.4 c -0.7,0 -1.3,0.6 -1.3,1.3 0,0.7 0.6,1.3 1.3,1.3 0.7,0 1.3,-0.6 1.3,-1.3 0,-0.7 -0.6,-1.3 -1.3,-1.3"
                 id="path391"
                 style="fill:#fdd203;stroke-width:0px" />
              <path
                 class="cls-20"
                 d="m 1529.6,170.9 c 0.7,0 1.3,-0.6 1.3,-1.3 0,-0.7 -0.6,-1.3 -1.3,-1.3 -0.7,0 -1.3,0.6 -1.3,1.3 0,0.7 0.6,1.3 1.3,1.3"
                 id="path393"
                 style="fill:#fdd203;stroke-width:0px" />
              <path
                 class="cls-20"
                 d="m 1524.8,166.2 c 0.7,0 1.3,-0.6 1.3,-1.3 0,-0.7 -0.6,-1.3 -1.3,-1.3 -0.7,0 -1.3,0.6 -1.3,1.3 0,0.7 0.6,1.3 1.3,1.3"
                 id="path395"
                 style="fill:#fdd203;stroke-width:0px" />
              <path
                 class="cls-20"
                 d="m 1534.3,175.6 c 0.7,0 1.3,-0.6 1.3,-1.3 0,-0.7 -0.6,-1.3 -1.3,-1.3 -0.7,0 -1.3,0.6 -1.3,1.3 0,0.7 0.6,1.3 1.3,1.3"
                 id="path397"
                 style="fill:#fdd203;stroke-width:0px" />
              <path
                 class="cls-20"
                 d="m 1534.3,166.2 c 0.7,0 1.3,-0.6 1.3,-1.3 0,-0.7 -0.6,-1.3 -1.3,-1.3 -0.7,0 -1.3,0.6 -1.3,1.3 0,0.7 0.6,1.3 1.3,1.3"
                 id="path399"
                 style="fill:#fdd203;stroke-width:0px" />
              <path
                 class="cls-20"
                 d="m 1543.6,194.4 c 0.7,0 1.3,-0.6 1.3,-1.3 0,-0.7 -0.6,-1.3 -1.3,-1.3 -0.7,0 -1.3,0.6 -1.3,1.3 0,0.7 0.6,1.3 1.3,1.3"
                 id="path401"
                 style="fill:#fdd203;stroke-width:0px" />
              <path
                 class="cls-20"
                 d="m 1538.8,189.7 c 0.7,0 1.3,-0.6 1.3,-1.3 0,-0.7 -0.6,-1.3 -1.3,-1.3 -0.7,0 -1.3,0.6 -1.3,1.3 0,0.7 0.6,1.3 1.3,1.3"
                 id="path403"
                 style="fill:#fdd203;stroke-width:0px" />
              <path
                 class="cls-20"
                 d="m 1548.3,199.2 c 0.7,0 1.3,-0.6 1.3,-1.3 0,-0.7 -0.6,-1.3 -1.3,-1.3 -0.7,0 -1.3,0.6 -1.3,1.3 0,0.7 0.6,1.3 1.3,1.3"
                 id="path405"
                 style="fill:#fdd203;stroke-width:0px" />
              <path
                 class="cls-20"
                 d="m 1548.3,189.7 c 0.7,0 1.3,-0.6 1.3,-1.3 0,-0.7 -0.6,-1.3 -1.3,-1.3 -0.7,0 -1.3,0.6 -1.3,1.3 0,0.7 0.6,1.3 1.3,1.3"
                 id="path407"
                 style="fill:#fdd203;stroke-width:0px" />
              <path
                 class="cls-24"
                 d="m 1557.1,187.3 c -0.7,0 -1.3,0.6 -1.3,1.3 0,0.7 0.6,1.3 1.3,1.3 0.7,0 1.3,-0.6 1.3,-1.3 0,-0.7 -0.6,-1.3 -1.3,-1.3"
                 id="path409"
                 style="fill:#ca151a;stroke-width:0px" />
              <path
                 class="cls-24"
                 d="m 1561.8,192 c -0.7,0 -1.3,0.6 -1.3,1.3 0,0.7 0.6,1.3 1.3,1.3 0.7,0 1.3,-0.6 1.3,-1.3 0,-0.7 -0.6,-1.3 -1.3,-1.3"
                 id="path411"
                 style="fill:#ca151a;stroke-width:0px" />
              <path
                 class="cls-24"
                 d="m 1552.4,182.6 c -0.7,0 -1.3,0.6 -1.3,1.3 0,0.7 0.6,1.3 1.3,1.3 0.7,0 1.3,-0.6 1.3,-1.3 0,-0.7 -0.6,-1.3 -1.3,-1.3"
                 id="path413"
                 style="fill:#ca151a;stroke-width:0px" />
              <path
                 class="cls-24"
                 d="m 1552.4,192.1 c -0.7,0 -1.3,0.6 -1.3,1.3 0,0.7 0.6,1.3 1.3,1.3 0.7,0 1.3,-0.6 1.3,-1.3 0,-0.7 -0.6,-1.3 -1.3,-1.3"
                 id="path415"
                 style="fill:#ca151a;stroke-width:0px" />
            </g>
          </g>
        </g>
      </g>
    </g>
  </g>
</svg>
