<?xml version="1.0" encoding="UTF-8" standalone="no"?>
<!-- Created with Inkscape (http://www.inkscape.org/) -->

<svg
   width="515"
   height="300"
   viewBox="0 0 136.26041 79.375"
   version="1.1"
   id="svg1665"
   sodipodi:docname="contact-map-asset3.svg"
   inkscape:version="1.2.2 (732a01da63, 2022-12-09)"
   xmlns:inkscape="http://www.inkscape.org/namespaces/inkscape"
   xmlns:sodipodi="http://sodipodi.sourceforge.net/DTD/sodipodi-0.dtd"
   xmlns="http://www.w3.org/2000/svg"
   xmlns:svg="http://www.w3.org/2000/svg">
  <sodipodi:namedview
     id="namedview1667"
     pagecolor="#ffffff"
     bordercolor="#000000"
     borderopacity="0.25"
     inkscape:showpageshadow="2"
     inkscape:pageopacity="0.0"
     inkscape:pagecheckerboard="0"
     inkscape:deskcolor="#d1d1d1"
     inkscape:document-units="px"
     showgrid="false"
     inkscape:zoom="1.6819304"
     inkscape:cx="265.76605"
     inkscape:cy="158.15161"
     inkscape:window-width="1680"
     inkscape:window-height="1027"
     inkscape:window-x="-8"
     inkscape:window-y="-8"
     inkscape:window-maximized="1"
     inkscape:current-layer="layer1">
    <sodipodi:guide
       position="0,79.374998"
       orientation="0,515"
       id="guide1669"
       inkscape:locked="false" />
    <sodipodi:guide
       position="136.26041,79.374998"
       orientation="300,0"
       id="guide1671"
       inkscape:locked="false" />
    <sodipodi:guide
       position="136.26041,0"
       orientation="0,-515"
       id="guide1673"
       inkscape:locked="false" />
    <sodipodi:guide
       position="0,0"
       orientation="-300,0"
       id="guide1675"
       inkscape:locked="false" />
  </sodipodi:namedview>
  <defs
     id="defs1662">
    <clipPath
       id="clippath">
      <rect
         class="cls-6"
         x="1490.6"
         y="163.5"
         width="202.3"
         height="40.299999"
         id="rect48" />
    </clipPath>
    <clipPath
       id="clippath-1">
      <rect
         class="cls-6"
         x="1490.6"
         y="163.5"
         width="202.3"
         height="40.299999"
         id="rect51" />
    </clipPath>
    <clipPath
       id="clippath-4">
      <rect
         class="cls-2"
         x="38.779999"
         y="34.759998"
         width="31.34"
         height="6.2399998"
         id="rect4" />
    </clipPath>
    <clipPath
       id="clippath-1-6">
      <rect
         class="cls-2"
         x="38.779999"
         y="34.759998"
         width="31.34"
         height="6.2399998"
         id="rect7" />
    </clipPath>
  </defs>
  <g
     inkscape:label="Warstwa 1"
     inkscape:groupmode="layer"
     id="layer1">
    <path
       class="cls-7"
       d="m 96.34734,1.4867831 c 21.0968,0 38.20144,17.1046289 38.20144,38.2014209"
       id="path12"
       style="fill:none;stroke:#ca151a;stroke-width:2.27196px;stroke-miterlimit:10" />
    <path
       class="cls-7"
       d="m 58.145919,39.688204 c 0,-21.096792 17.104629,-38.2014209 38.201421,-38.2014209"
       id="path14"
       style="fill:none;stroke:#ca151a;stroke-width:2.27196px;stroke-miterlimit:10" />
    <path
       class="cls-7"
       d="m 96.34734,77.889632 c -21.096792,0 -38.201421,-17.10463 -38.201421,-38.201428"
       id="path16"
       style="fill:none;stroke:#ca151a;stroke-width:2.27196px;stroke-miterlimit:10" />
    <path
       class="cls-7"
       d="m 134.54878,39.688204 c 0,21.096798 -17.10464,38.201428 -38.20144,38.201428"
       id="path18"
       style="fill:none;stroke:#ca151a;stroke-width:2.27196px;stroke-miterlimit:10" />
    <path
       class="cls-8"
       d="m 96.34734,3.7100592 c 19.86345,0 35.97816,16.0984788 35.97816,35.9781448"
       id="path20"
       style="fill:none;stroke:#fdd203;stroke-width:2.14214px;stroke-miterlimit:10" />
    <path
       class="cls-8"
       d="m 60.369195,39.688204 c 0,-19.863443 16.098479,-35.9781448 35.978145,-35.9781448"
       id="path22"
       style="fill:none;stroke:#fdd203;stroke-width:2.14214px;stroke-miterlimit:10" />
    <path
       class="cls-8"
       d="m 96.34734,75.650126 c -19.863436,0 -35.978145,-16.09848 -35.978145,-35.978145"
       id="path24"
       style="fill:none;stroke:#fdd203;stroke-width:2.14214px;stroke-miterlimit:10" />
    <path
       class="cls-8"
       d="m 132.3255,39.688204 c 0,19.863442 -16.09849,35.978151 -35.97816,35.978151"
       id="path26"
       style="fill:none;stroke:#fdd203;stroke-width:2.14214px;stroke-miterlimit:10" />
    <rect
       class="cls-6"
       x="4.8359504"
       y="17.276928"
       width="118.6289"
       height="44.806343"
       rx="9.4610996"
       ry="9.4610996"
       id="rect28"
       style="fill:#ededed;fill-opacity:1;stroke-width:0px" />
    <g
       id="kropki"
       transform="matrix(1.6228303,0,0,1.6228303,-3.8786587,-32.998363)">
      <g
         class="cls-1"
         clip-path="url(#clippath-4)"
         id="g280">
        <g
           class="cls-9"
           clip-path="url(#clippath-1-6)"
           id="g278">
          <path
             class="cls-5"
             d="m 49.78,39.55 c 0.11,0 0.2,-0.09 0.2,-0.2 0,-0.11 -0.09,-0.2 -0.2,-0.2 -0.11,0 -0.2,0.09 -0.2,0.2 0,0.11 0.09,0.2 0.2,0.2"
             id="path38"
             style="fill:#ca151a;stroke-width:0px" />
          <path
             class="cls-5"
             d="m 49.05,38.82 c 0.11,0 0.2,-0.09 0.2,-0.2 0,-0.11 -0.09,-0.2 -0.2,-0.2 -0.11,0 -0.2,0.09 -0.2,0.2 0,0.11 0.09,0.2 0.2,0.2"
             id="path40"
             style="fill:#ca151a;stroke-width:0px" />
          <path
             class="cls-5"
             d="m 50.51,40.28 c 0.11,0 0.2,-0.09 0.2,-0.2 0,-0.11 -0.09,-0.2 -0.2,-0.2 -0.11,0 -0.2,0.09 -0.2,0.2 0,0.11 0.09,0.2 0.2,0.2"
             id="path42"
             style="fill:#ca151a;stroke-width:0px" />
          <path
             class="cls-5"
             d="m 50.51,38.81 c 0.11,0 0.2,-0.09 0.2,-0.2 0,-0.11 -0.09,-0.2 -0.2,-0.2 -0.11,0 -0.2,0.09 -0.2,0.2 0,0.11 0.09,0.2 0.2,0.2"
             id="path44"
             style="fill:#ca151a;stroke-width:0px" />
          <path
             class="cls-5"
             d="m 56.24,39.85 c -0.11,0 -0.2,0.09 -0.2,0.2 0,0.11 0.09,0.2 0.2,0.2 0.11,0 0.2,-0.09 0.2,-0.2 0,-0.11 -0.09,-0.2 -0.2,-0.2"
             id="path46"
             style="fill:#ca151a;stroke-width:0px" />
          <path
             class="cls-5"
             d="m 56.97,40.58 c -0.11,0 -0.2,0.09 -0.2,0.2 0,0.11 0.09,0.2 0.2,0.2 0.11,0 0.2,-0.09 0.2,-0.2 0,-0.11 -0.09,-0.2 -0.2,-0.2"
             id="path48"
             style="fill:#ca151a;stroke-width:0px" />
          <path
             class="cls-5"
             d="m 55.51,39.12 c -0.11,0 -0.2,0.09 -0.2,0.2 0,0.11 0.09,0.2 0.2,0.2 0.11,0 0.2,-0.09 0.2,-0.2 0,-0.11 -0.09,-0.2 -0.2,-0.2"
             id="path50"
             style="fill:#ca151a;stroke-width:0px" />
          <path
             class="cls-5"
             d="m 55.51,40.59 c -0.11,0 -0.2,0.09 -0.2,0.2 0,0.11 0.09,0.2 0.2,0.2 0.11,0 0.2,-0.09 0.2,-0.2 0,-0.11 -0.09,-0.2 -0.2,-0.2"
             id="path52"
             style="fill:#ca151a;stroke-width:0px" />
          <path
             class="cls-5"
             d="m 50.82,37.09 c 0,-0.11 -0.09,-0.2 -0.2,-0.2 -0.11,0 -0.2,0.09 -0.2,0.2 0,0.11 0.09,0.2 0.2,0.2 0.11,0 0.2,-0.09 0.2,-0.2"
             id="path54"
             style="fill:#ca151a;stroke-width:0px" />
          <path
             class="cls-5"
             d="m 50.09,37.83 c 0,-0.11 -0.09,-0.2 -0.2,-0.2 -0.11,0 -0.2,0.09 -0.2,0.2 0,0.11 0.09,0.2 0.2,0.2 0.11,0 0.2,-0.09 0.2,-0.2"
             id="path56"
             style="fill:#ca151a;stroke-width:0px" />
          <path
             class="cls-5"
             d="m 51.55,36.36 c 0,-0.11 -0.09,-0.2 -0.2,-0.2 -0.11,0 -0.2,0.09 -0.2,0.2 0,0.11 0.09,0.2 0.2,0.2 0.11,0 0.2,-0.09 0.2,-0.2"
             id="path58"
             style="fill:#ca151a;stroke-width:0px" />
          <path
             class="cls-5"
             d="m 50.08,36.36 c 0,-0.11 -0.09,-0.2 -0.2,-0.2 -0.11,0 -0.2,0.09 -0.2,0.2 0,0.11 0.09,0.2 0.2,0.2 0.11,0 0.2,-0.09 0.2,-0.2"
             id="path60"
             style="fill:#ca151a;stroke-width:0px" />
          <path
             class="cls-4"
             d="m 51.85,37.07 c 0,0.11 0.09,0.2 0.2,0.2 0.11,0 0.2,-0.09 0.2,-0.2 0,-0.11 -0.09,-0.2 -0.2,-0.2 -0.11,0 -0.2,0.09 -0.2,0.2"
             id="path62"
             style="fill:#000000;stroke-width:0px" />
          <path
             class="cls-4"
             d="m 52.58,36.33 c 0,0.11 0.09,0.2 0.2,0.2 0.11,0 0.2,-0.09 0.2,-0.2 0,-0.11 -0.09,-0.2 -0.2,-0.2 -0.11,0 -0.2,0.09 -0.2,0.2"
             id="path64"
             style="fill:#000000;stroke-width:0px" />
          <path
             class="cls-4"
             d="m 51.12,37.8 c 0,0.11 0.09,0.2 0.2,0.2 0.11,0 0.2,-0.09 0.2,-0.2 0,-0.11 -0.09,-0.2 -0.2,-0.2 -0.11,0 -0.2,0.09 -0.2,0.2"
             id="path66"
             style="fill:#000000;stroke-width:0px" />
          <path
             class="cls-4"
             d="m 52.59,37.8 c 0,0.11 0.09,0.2 0.2,0.2 0.11,0 0.2,-0.09 0.2,-0.2 0,-0.11 -0.09,-0.2 -0.2,-0.2 -0.11,0 -0.2,0.09 -0.2,0.2"
             id="path68"
             style="fill:#000000;stroke-width:0px" />
          <path
             class="cls-4"
             d="m 56.85,36.43 c 0,0.11 0.09,0.2 0.2,0.2 0.11,0 0.2,-0.09 0.2,-0.2 0,-0.11 -0.09,-0.2 -0.2,-0.2 -0.11,0 -0.2,0.09 -0.2,0.2"
             id="path70"
             style="fill:#000000;stroke-width:0px" />
          <path
             class="cls-4"
             d="m 57.59,35.7 c 0,0.11 0.09,0.2 0.2,0.2 0.11,0 0.2,-0.09 0.2,-0.2 0,-0.11 -0.09,-0.2 -0.2,-0.2 -0.11,0 -0.2,0.09 -0.2,0.2"
             id="path72"
             style="fill:#000000;stroke-width:0px" />
          <path
             class="cls-4"
             d="m 56.12,37.17 c 0,0.11 0.09,0.2 0.2,0.2 0.11,0 0.2,-0.09 0.2,-0.2 0,-0.11 -0.09,-0.2 -0.2,-0.2 -0.11,0 -0.2,0.09 -0.2,0.2"
             id="path74"
             style="fill:#000000;stroke-width:0px" />
          <path
             class="cls-4"
             d="m 57.59,37.16 c 0,0.11 0.09,0.2 0.2,0.2 0.11,0 0.2,-0.09 0.2,-0.2 0,-0.11 -0.09,-0.2 -0.2,-0.2 -0.11,0 -0.2,0.09 -0.2,0.2"
             id="path76"
             style="fill:#000000;stroke-width:0px" />
          <path
             class="cls-4"
             d="m 53.87,39.36 c 0,0.11 0.09,0.2 0.2,0.2 0.11,0 0.2,-0.09 0.2,-0.2 0,-0.11 -0.09,-0.2 -0.2,-0.2 -0.11,0 -0.2,0.09 -0.2,0.2"
             id="path78"
             style="fill:#000000;stroke-width:0px" />
          <path
             class="cls-4"
             d="m 54.6,38.62 c 0,0.11 0.09,0.2 0.2,0.2 0.11,0 0.2,-0.09 0.2,-0.2 0,-0.11 -0.09,-0.2 -0.2,-0.2 -0.11,0 -0.2,0.09 -0.2,0.2"
             id="path80"
             style="fill:#000000;stroke-width:0px" />
          <path
             class="cls-4"
             d="m 53.14,40.09 c 0,0.11 0.09,0.2 0.2,0.2 0.11,0 0.2,-0.09 0.2,-0.2 0,-0.11 -0.09,-0.2 -0.2,-0.2 -0.11,0 -0.2,0.09 -0.2,0.2"
             id="path82"
             style="fill:#000000;stroke-width:0px" />
          <path
             class="cls-4"
             d="m 54.61,40.09 c 0,0.11 0.09,0.2 0.2,0.2 0.11,0 0.2,-0.09 0.2,-0.2 0,-0.11 -0.09,-0.2 -0.2,-0.2 -0.11,0 -0.2,0.09 -0.2,0.2"
             id="path84"
             style="fill:#000000;stroke-width:0px" />
          <path
             class="cls-3"
             d="m 54.88,36.95 c -0.11,0 -0.2,0.09 -0.2,0.2 0,0.11 0.09,0.2 0.2,0.2 0.11,0 0.2,-0.09 0.2,-0.2 0,-0.11 -0.09,-0.2 -0.2,-0.2"
             id="path86"
             style="fill:#fdd203;stroke-width:0px" />
          <path
             class="cls-3"
             d="m 55.62,37.68 c -0.11,0 -0.2,0.09 -0.2,0.2 0,0.11 0.09,0.2 0.2,0.2 0.11,0 0.2,-0.09 0.2,-0.2 0,-0.11 -0.09,-0.2 -0.2,-0.2"
             id="path88"
             style="fill:#fdd203;stroke-width:0px" />
          <path
             class="cls-3"
             d="m 54.15,36.21 c -0.11,0 -0.2,0.09 -0.2,0.2 0,0.11 0.09,0.2 0.2,0.2 0.11,0 0.2,-0.09 0.2,-0.2 0,-0.11 -0.09,-0.2 -0.2,-0.2"
             id="path90"
             style="fill:#fdd203;stroke-width:0px" />
          <path
             class="cls-3"
             d="m 54.15,37.68 c -0.11,0 -0.2,0.09 -0.2,0.2 0,0.11 0.09,0.2 0.2,0.2 0.11,0 0.2,-0.09 0.2,-0.2 0,-0.11 -0.09,-0.2 -0.2,-0.2"
             id="path92"
             style="fill:#fdd203;stroke-width:0px" />
          <path
             class="cls-3"
             d="m 54.88,35.9 c 0.11,0 0.2,-0.09 0.2,-0.2 0,-0.11 -0.09,-0.2 -0.2,-0.2 -0.11,0 -0.2,0.09 -0.2,0.2 0,0.11 0.09,0.2 0.2,0.2"
             id="path94"
             style="fill:#fdd203;stroke-width:0px" />
          <path
             class="cls-3"
             d="m 54.14,35.17 c 0.11,0 0.2,-0.09 0.2,-0.2 0,-0.11 -0.09,-0.2 -0.2,-0.2 -0.11,0 -0.2,0.09 -0.2,0.2 0,0.11 0.09,0.2 0.2,0.2"
             id="path96"
             style="fill:#fdd203;stroke-width:0px" />
          <path
             class="cls-3"
             d="m 55.61,36.63 c 0.11,0 0.2,-0.09 0.2,-0.2 0,-0.11 -0.09,-0.2 -0.2,-0.2 -0.11,0 -0.2,0.09 -0.2,0.2 0,0.11 0.09,0.2 0.2,0.2"
             id="path98"
             style="fill:#fdd203;stroke-width:0px" />
          <path
             class="cls-3"
             d="m 55.61,35.16 c 0.11,0 0.2,-0.09 0.2,-0.2 0,-0.11 -0.09,-0.2 -0.2,-0.2 -0.11,0 -0.2,0.09 -0.2,0.2 0,0.11 0.09,0.2 0.2,0.2"
             id="path100"
             style="fill:#fdd203;stroke-width:0px" />
          <path
             class="cls-3"
             d="m 57.05,39.55 c 0.11,0 0.2,-0.09 0.2,-0.2 0,-0.11 -0.09,-0.2 -0.2,-0.2 -0.11,0 -0.2,0.09 -0.2,0.2 0,0.11 0.09,0.2 0.2,0.2"
             id="path102"
             style="fill:#fdd203;stroke-width:0px" />
          <path
             class="cls-3"
             d="m 56.31,38.82 c 0.11,0 0.2,-0.09 0.2,-0.2 0,-0.11 -0.09,-0.2 -0.2,-0.2 -0.11,0 -0.2,0.09 -0.2,0.2 0,0.11 0.09,0.2 0.2,0.2"
             id="path104"
             style="fill:#fdd203;stroke-width:0px" />
          <path
             class="cls-3"
             d="m 57.78,38.81 c 0.11,0 0.2,-0.09 0.2,-0.2 0,-0.11 -0.09,-0.2 -0.2,-0.2 -0.11,0 -0.2,0.09 -0.2,0.2 0,0.11 0.09,0.2 0.2,0.2"
             id="path106"
             style="fill:#fdd203;stroke-width:0px" />
          <path
             class="cls-5"
             d="m 59.14,38.44 c -0.11,0 -0.2,0.09 -0.2,0.2 0,0.11 0.09,0.2 0.2,0.2 0.11,0 0.2,-0.09 0.2,-0.2 0,-0.11 -0.09,-0.2 -0.2,-0.2"
             id="path108"
             style="fill:#ca151a;stroke-width:0px" />
          <path
             class="cls-5"
             d="m 59.88,39.17 c -0.11,0 -0.2,0.09 -0.2,0.2 0,0.11 0.09,0.2 0.2,0.2 0.11,0 0.2,-0.09 0.2,-0.2 0,-0.11 -0.09,-0.2 -0.2,-0.2"
             id="path110"
             style="fill:#ca151a;stroke-width:0px" />
          <path
             class="cls-5"
             d="m 58.41,37.71 c -0.11,0 -0.2,0.09 -0.2,0.2 0,0.11 0.09,0.2 0.2,0.2 0.11,0 0.2,-0.09 0.2,-0.2 0,-0.11 -0.09,-0.2 -0.2,-0.2"
             id="path112"
             style="fill:#ca151a;stroke-width:0px" />
          <path
             class="cls-5"
             d="m 58.41,39.18 c -0.11,0 -0.2,0.09 -0.2,0.2 0,0.11 0.09,0.2 0.2,0.2 0.11,0 0.2,-0.09 0.2,-0.2 0,-0.11 -0.09,-0.2 -0.2,-0.2"
             id="path114"
             style="fill:#ca151a;stroke-width:0px" />
          <path
             class="cls-5"
             d="m 59.82,39.55 c 0.11,0 0.2,-0.09 0.2,-0.2 0,-0.11 -0.09,-0.2 -0.2,-0.2 -0.11,0 -0.2,0.09 -0.2,0.2 0,0.11 0.09,0.2 0.2,0.2"
             id="path116"
             style="fill:#ca151a;stroke-width:0px" />
          <path
             class="cls-5"
             d="m 59.08,38.82 c 0.11,0 0.2,-0.09 0.2,-0.2 0,-0.11 -0.09,-0.2 -0.2,-0.2 -0.11,0 -0.2,0.09 -0.2,0.2 0,0.11 0.09,0.2 0.2,0.2"
             id="path118"
             style="fill:#ca151a;stroke-width:0px" />
          <path
             class="cls-5"
             d="m 60.55,40.28 c 0.11,0 0.2,-0.09 0.2,-0.2 0,-0.11 -0.09,-0.2 -0.2,-0.2 -0.11,0 -0.2,0.09 -0.2,0.2 0,0.11 0.09,0.2 0.2,0.2"
             id="path120"
             style="fill:#ca151a;stroke-width:0px" />
          <path
             class="cls-5"
             d="m 60.55,38.81 c 0.11,0 0.2,-0.09 0.2,-0.2 0,-0.11 -0.09,-0.2 -0.2,-0.2 -0.11,0 -0.2,0.09 -0.2,0.2 0,0.11 0.09,0.2 0.2,0.2"
             id="path122"
             style="fill:#ca151a;stroke-width:0px" />
          <path
             class="cls-5"
             d="m 66.28,39.85 c -0.11,0 -0.2,0.09 -0.2,0.2 0,0.11 0.09,0.2 0.2,0.2 0.11,0 0.2,-0.09 0.2,-0.2 0,-0.11 -0.09,-0.2 -0.2,-0.2"
             id="path124"
             style="fill:#ca151a;stroke-width:0px" />
          <path
             class="cls-5"
             d="m 67.01,40.58 c -0.11,0 -0.2,0.09 -0.2,0.2 0,0.11 0.09,0.2 0.2,0.2 0.11,0 0.2,-0.09 0.2,-0.2 0,-0.11 -0.09,-0.2 -0.2,-0.2"
             id="path126"
             style="fill:#ca151a;stroke-width:0px" />
          <path
             class="cls-5"
             d="m 65.54,39.12 c -0.11,0 -0.2,0.09 -0.2,0.2 0,0.11 0.09,0.2 0.2,0.2 0.11,0 0.2,-0.09 0.2,-0.2 0,-0.11 -0.09,-0.2 -0.2,-0.2"
             id="path128"
             style="fill:#ca151a;stroke-width:0px" />
          <path
             class="cls-5"
             d="m 65.54,40.59 c -0.11,0 -0.2,0.09 -0.2,0.2 0,0.11 0.09,0.2 0.2,0.2 0.11,0 0.2,-0.09 0.2,-0.2 0,-0.11 -0.09,-0.2 -0.2,-0.2"
             id="path130"
             style="fill:#ca151a;stroke-width:0px" />
          <path
             class="cls-5"
             d="m 60.85,37.09 c 0,-0.11 -0.09,-0.2 -0.2,-0.2 -0.11,0 -0.2,0.09 -0.2,0.2 0,0.11 0.09,0.2 0.2,0.2 0.11,0 0.2,-0.09 0.2,-0.2"
             id="path132"
             style="fill:#ca151a;stroke-width:0px" />
          <path
             class="cls-5"
             d="m 60.12,37.83 c 0,-0.11 -0.09,-0.2 -0.2,-0.2 -0.11,0 -0.2,0.09 -0.2,0.2 0,0.11 0.09,0.2 0.2,0.2 0.11,0 0.2,-0.09 0.2,-0.2"
             id="path134"
             style="fill:#ca151a;stroke-width:0px" />
          <path
             class="cls-5"
             d="m 61.59,36.36 c 0,-0.11 -0.09,-0.2 -0.2,-0.2 -0.11,0 -0.2,0.09 -0.2,0.2 0,0.11 0.09,0.2 0.2,0.2 0.11,0 0.2,-0.09 0.2,-0.2"
             id="path136"
             style="fill:#ca151a;stroke-width:0px" />
          <path
             class="cls-5"
             d="m 60.12,36.36 c 0,-0.11 -0.09,-0.2 -0.2,-0.2 -0.11,0 -0.2,0.09 -0.2,0.2 0,0.11 0.09,0.2 0.2,0.2 0.11,0 0.2,-0.09 0.2,-0.2"
             id="path138"
             style="fill:#ca151a;stroke-width:0px" />
          <path
             class="cls-4"
             d="m 61.89,37.07 c 0,0.11 0.09,0.2 0.2,0.2 0.11,0 0.2,-0.09 0.2,-0.2 0,-0.11 -0.09,-0.2 -0.2,-0.2 -0.11,0 -0.2,0.09 -0.2,0.2"
             id="path140"
             style="fill:#000000;stroke-width:0px" />
          <path
             class="cls-4"
             d="m 62.62,36.33 c 0,0.11 0.09,0.2 0.2,0.2 0.11,0 0.2,-0.09 0.2,-0.2 0,-0.11 -0.09,-0.2 -0.2,-0.2 -0.11,0 -0.2,0.09 -0.2,0.2"
             id="path142"
             style="fill:#000000;stroke-width:0px" />
          <path
             class="cls-4"
             d="m 61.16,37.8 c 0,0.11 0.09,0.2 0.2,0.2 0.11,0 0.2,-0.09 0.2,-0.2 0,-0.11 -0.09,-0.2 -0.2,-0.2 -0.11,0 -0.2,0.09 -0.2,0.2"
             id="path144"
             style="fill:#000000;stroke-width:0px" />
          <path
             class="cls-4"
             d="m 62.63,37.8 c 0,0.11 0.09,0.2 0.2,0.2 0.11,0 0.2,-0.09 0.2,-0.2 0,-0.11 -0.09,-0.2 -0.2,-0.2 -0.11,0 -0.2,0.09 -0.2,0.2"
             id="path146"
             style="fill:#000000;stroke-width:0px" />
          <path
             class="cls-4"
             d="m 66.89,36.43 c 0,0.11 0.09,0.2 0.2,0.2 0.11,0 0.2,-0.09 0.2,-0.2 0,-0.11 -0.09,-0.2 -0.2,-0.2 -0.11,0 -0.2,0.09 -0.2,0.2"
             id="path148"
             style="fill:#000000;stroke-width:0px" />
          <path
             class="cls-4"
             d="m 67.62,35.7 c 0,0.11 0.09,0.2 0.2,0.2 0.11,0 0.2,-0.09 0.2,-0.2 0,-0.11 -0.09,-0.2 -0.2,-0.2 -0.11,0 -0.2,0.09 -0.2,0.2"
             id="path150"
             style="fill:#000000;stroke-width:0px" />
          <path
             class="cls-4"
             d="m 66.16,37.17 c 0,0.11 0.09,0.2 0.2,0.2 0.11,0 0.2,-0.09 0.2,-0.2 0,-0.11 -0.09,-0.2 -0.2,-0.2 -0.11,0 -0.2,0.09 -0.2,0.2"
             id="path152"
             style="fill:#000000;stroke-width:0px" />
          <path
             class="cls-4"
             d="m 67.63,37.16 c 0,0.11 0.09,0.2 0.2,0.2 0.11,0 0.2,-0.09 0.2,-0.2 0,-0.11 -0.09,-0.2 -0.2,-0.2 -0.11,0 -0.2,0.09 -0.2,0.2"
             id="path154"
             style="fill:#000000;stroke-width:0px" />
          <path
             class="cls-4"
             d="m 63.91,39.36 c 0,0.11 0.09,0.2 0.2,0.2 0.11,0 0.2,-0.09 0.2,-0.2 0,-0.11 -0.09,-0.2 -0.2,-0.2 -0.11,0 -0.2,0.09 -0.2,0.2"
             id="path156"
             style="fill:#000000;stroke-width:0px" />
          <path
             class="cls-4"
             d="m 64.64,38.62 c 0,0.11 0.09,0.2 0.2,0.2 0.11,0 0.2,-0.09 0.2,-0.2 0,-0.11 -0.09,-0.2 -0.2,-0.2 -0.11,0 -0.2,0.09 -0.2,0.2"
             id="path158"
             style="fill:#000000;stroke-width:0px" />
          <path
             class="cls-4"
             d="m 63.17,40.09 c 0,0.11 0.09,0.2 0.2,0.2 0.11,0 0.2,-0.09 0.2,-0.2 0,-0.11 -0.09,-0.2 -0.2,-0.2 -0.11,0 -0.2,0.09 -0.2,0.2"
             id="path160"
             style="fill:#000000;stroke-width:0px" />
          <path
             class="cls-4"
             d="m 64.64,40.09 c 0,0.11 0.09,0.2 0.2,0.2 0.11,0 0.2,-0.09 0.2,-0.2 0,-0.11 -0.09,-0.2 -0.2,-0.2 -0.11,0 -0.2,0.09 -0.2,0.2"
             id="path162"
             style="fill:#000000;stroke-width:0px" />
          <path
             class="cls-3"
             d="m 64.92,36.95 c -0.11,0 -0.2,0.09 -0.2,0.2 0,0.11 0.09,0.2 0.2,0.2 0.11,0 0.2,-0.09 0.2,-0.2 0,-0.11 -0.09,-0.2 -0.2,-0.2"
             id="path164"
             style="fill:#fdd203;stroke-width:0px" />
          <path
             class="cls-3"
             d="m 65.66,37.68 c -0.11,0 -0.2,0.09 -0.2,0.2 0,0.11 0.09,0.2 0.2,0.2 0.11,0 0.2,-0.09 0.2,-0.2 0,-0.11 -0.09,-0.2 -0.2,-0.2"
             id="path166"
             style="fill:#fdd203;stroke-width:0px" />
          <path
             class="cls-3"
             d="m 64.19,36.21 c -0.11,0 -0.2,0.09 -0.2,0.2 0,0.11 0.09,0.2 0.2,0.2 0.11,0 0.2,-0.09 0.2,-0.2 0,-0.11 -0.09,-0.2 -0.2,-0.2"
             id="path168"
             style="fill:#fdd203;stroke-width:0px" />
          <path
             class="cls-3"
             d="m 64.19,37.68 c -0.11,0 -0.2,0.09 -0.2,0.2 0,0.11 0.09,0.2 0.2,0.2 0.11,0 0.2,-0.09 0.2,-0.2 0,-0.11 -0.09,-0.2 -0.2,-0.2"
             id="path170"
             style="fill:#fdd203;stroke-width:0px" />
          <path
             class="cls-3"
             d="m 64.91,35.9 c 0.11,0 0.2,-0.09 0.2,-0.2 0,-0.11 -0.09,-0.2 -0.2,-0.2 -0.11,0 -0.2,0.09 -0.2,0.2 0,0.11 0.09,0.2 0.2,0.2"
             id="path172"
             style="fill:#fdd203;stroke-width:0px" />
          <path
             class="cls-3"
             d="m 64.18,35.17 c 0.11,0 0.2,-0.09 0.2,-0.2 0,-0.11 -0.09,-0.2 -0.2,-0.2 -0.11,0 -0.2,0.09 -0.2,0.2 0,0.11 0.09,0.2 0.2,0.2"
             id="path174"
             style="fill:#fdd203;stroke-width:0px" />
          <path
             class="cls-3"
             d="m 65.65,36.63 c 0.11,0 0.2,-0.09 0.2,-0.2 0,-0.11 -0.09,-0.2 -0.2,-0.2 -0.11,0 -0.2,0.09 -0.2,0.2 0,0.11 0.09,0.2 0.2,0.2"
             id="path176"
             style="fill:#fdd203;stroke-width:0px" />
          <path
             class="cls-3"
             d="m 65.64,35.16 c 0.11,0 0.2,-0.09 0.2,-0.2 0,-0.11 -0.09,-0.2 -0.2,-0.2 -0.11,0 -0.2,0.09 -0.2,0.2 0,0.11 0.09,0.2 0.2,0.2"
             id="path178"
             style="fill:#fdd203;stroke-width:0px" />
          <path
             class="cls-3"
             d="m 67.09,39.55 c 0.11,0 0.2,-0.09 0.2,-0.2 0,-0.11 -0.09,-0.2 -0.2,-0.2 -0.11,0 -0.2,0.09 -0.2,0.2 0,0.11 0.09,0.2 0.2,0.2"
             id="path180"
             style="fill:#fdd203;stroke-width:0px" />
          <path
             class="cls-3"
             d="m 66.35,38.82 c 0.11,0 0.2,-0.09 0.2,-0.2 0,-0.11 -0.09,-0.2 -0.2,-0.2 -0.11,0 -0.2,0.09 -0.2,0.2 0,0.11 0.09,0.2 0.2,0.2"
             id="path182"
             style="fill:#fdd203;stroke-width:0px" />
          <path
             class="cls-3"
             d="m 67.82,38.81 c 0.11,0 0.2,-0.09 0.2,-0.2 0,-0.11 -0.09,-0.2 -0.2,-0.2 -0.11,0 -0.2,0.09 -0.2,0.2 0,0.11 0.09,0.2 0.2,0.2"
             id="path184"
             style="fill:#fdd203;stroke-width:0px" />
          <path
             class="cls-5"
             d="m 69.18,38.44 c -0.11,0 -0.2,0.09 -0.2,0.2 0,0.11 0.09,0.2 0.2,0.2 0.11,0 0.2,-0.09 0.2,-0.2 0,-0.11 -0.09,-0.2 -0.2,-0.2"
             id="path186"
             style="fill:#ca151a;stroke-width:0px" />
          <path
             class="cls-5"
             d="m 69.91,39.17 c -0.11,0 -0.2,0.09 -0.2,0.2 0,0.11 0.09,0.2 0.2,0.2 0.11,0 0.2,-0.09 0.2,-0.2 0,-0.11 -0.09,-0.2 -0.2,-0.2"
             id="path188"
             style="fill:#ca151a;stroke-width:0px" />
          <path
             class="cls-5"
             d="m 68.45,37.71 c -0.11,0 -0.2,0.09 -0.2,0.2 0,0.11 0.09,0.2 0.2,0.2 0.11,0 0.2,-0.09 0.2,-0.2 0,-0.11 -0.09,-0.2 -0.2,-0.2"
             id="path190"
             style="fill:#ca151a;stroke-width:0px" />
          <path
             class="cls-5"
             d="m 68.45,39.18 c -0.11,0 -0.2,0.09 -0.2,0.2 0,0.11 0.09,0.2 0.2,0.2 0.11,0 0.2,-0.09 0.2,-0.2 0,-0.11 -0.09,-0.2 -0.2,-0.2"
             id="path192"
             style="fill:#ca151a;stroke-width:0px" />
          <path
             class="cls-5"
             d="m 39.71,39.55 c 0.11,0 0.2,-0.09 0.2,-0.2 0,-0.11 -0.09,-0.2 -0.2,-0.2 -0.11,0 -0.2,0.09 -0.2,0.2 0,0.11 0.09,0.2 0.2,0.2"
             id="path194"
             style="fill:#ca151a;stroke-width:0px" />
          <path
             class="cls-5"
             d="m 38.98,38.82 c 0.11,0 0.2,-0.09 0.2,-0.2 0,-0.11 -0.09,-0.2 -0.2,-0.2 -0.11,0 -0.2,0.09 -0.2,0.2 0,0.11 0.09,0.2 0.2,0.2"
             id="path196"
             style="fill:#ca151a;stroke-width:0px" />
          <path
             class="cls-5"
             d="m 40.45,40.28 c 0.11,0 0.2,-0.09 0.2,-0.2 0,-0.11 -0.09,-0.2 -0.2,-0.2 -0.11,0 -0.2,0.09 -0.2,0.2 0,0.11 0.09,0.2 0.2,0.2"
             id="path198"
             style="fill:#ca151a;stroke-width:0px" />
          <path
             class="cls-5"
             d="m 40.45,38.81 c 0.11,0 0.2,-0.09 0.2,-0.2 0,-0.11 -0.09,-0.2 -0.2,-0.2 -0.11,0 -0.2,0.09 -0.2,0.2 0,0.11 0.09,0.2 0.2,0.2"
             id="path200"
             style="fill:#ca151a;stroke-width:0px" />
          <path
             class="cls-5"
             d="m 46.17,39.85 c -0.11,0 -0.2,0.09 -0.2,0.2 0,0.11 0.09,0.2 0.2,0.2 0.11,0 0.2,-0.09 0.2,-0.2 0,-0.11 -0.09,-0.2 -0.2,-0.2"
             id="path202"
             style="fill:#ca151a;stroke-width:0px" />
          <path
             class="cls-5"
             d="m 46.91,40.58 c -0.11,0 -0.2,0.09 -0.2,0.2 0,0.11 0.09,0.2 0.2,0.2 0.11,0 0.2,-0.09 0.2,-0.2 0,-0.11 -0.09,-0.2 -0.2,-0.2"
             id="path204"
             style="fill:#ca151a;stroke-width:0px" />
          <path
             class="cls-5"
             d="m 45.44,39.12 c -0.11,0 -0.2,0.09 -0.2,0.2 0,0.11 0.09,0.2 0.2,0.2 0.11,0 0.2,-0.09 0.2,-0.2 0,-0.11 -0.09,-0.2 -0.2,-0.2"
             id="path206"
             style="fill:#ca151a;stroke-width:0px" />
          <path
             class="cls-5"
             d="m 45.44,40.59 c -0.11,0 -0.2,0.09 -0.2,0.2 0,0.11 0.09,0.2 0.2,0.2 0.11,0 0.2,-0.09 0.2,-0.2 0,-0.11 -0.09,-0.2 -0.2,-0.2"
             id="path208"
             style="fill:#ca151a;stroke-width:0px" />
          <path
             class="cls-5"
             d="m 40.75,37.09 c 0,-0.11 -0.09,-0.2 -0.2,-0.2 -0.11,0 -0.2,0.09 -0.2,0.2 0,0.11 0.09,0.2 0.2,0.2 0.11,0 0.2,-0.09 0.2,-0.2"
             id="path210"
             style="fill:#ca151a;stroke-width:0px" />
          <path
             class="cls-5"
             d="m 40.02,37.83 c 0,-0.11 -0.09,-0.2 -0.2,-0.2 -0.11,0 -0.2,0.09 -0.2,0.2 0,0.11 0.09,0.2 0.2,0.2 0.11,0 0.2,-0.09 0.2,-0.2"
             id="path212"
             style="fill:#ca151a;stroke-width:0px" />
          <path
             class="cls-5"
             d="m 41.48,36.36 c 0,-0.11 -0.09,-0.2 -0.2,-0.2 -0.11,0 -0.2,0.09 -0.2,0.2 0,0.11 0.09,0.2 0.2,0.2 0.11,0 0.2,-0.09 0.2,-0.2"
             id="path214"
             style="fill:#ca151a;stroke-width:0px" />
          <path
             class="cls-5"
             d="m 40.01,36.36 c 0,-0.11 -0.09,-0.2 -0.2,-0.2 -0.11,0 -0.2,0.09 -0.2,0.2 0,0.11 0.09,0.2 0.2,0.2 0.11,0 0.2,-0.09 0.2,-0.2"
             id="path216"
             style="fill:#ca151a;stroke-width:0px" />
          <path
             class="cls-4"
             d="m 41.79,37.07 c 0,0.11 0.09,0.2 0.2,0.2 0.11,0 0.2,-0.09 0.2,-0.2 0,-0.11 -0.09,-0.2 -0.2,-0.2 -0.11,0 -0.2,0.09 -0.2,0.2"
             id="path218"
             style="fill:#000000;stroke-width:0px" />
          <path
             class="cls-4"
             d="m 42.52,36.33 c 0,0.11 0.09,0.2 0.2,0.2 0.11,0 0.2,-0.09 0.2,-0.2 0,-0.11 -0.09,-0.2 -0.2,-0.2 -0.11,0 -0.2,0.09 -0.2,0.2"
             id="path220"
             style="fill:#000000;stroke-width:0px" />
          <path
             class="cls-4"
             d="m 41.05,37.8 c 0,0.11 0.09,0.2 0.2,0.2 0.11,0 0.2,-0.09 0.2,-0.2 0,-0.11 -0.09,-0.2 -0.2,-0.2 -0.11,0 -0.2,0.09 -0.2,0.2"
             id="path222"
             style="fill:#000000;stroke-width:0px" />
          <path
             class="cls-4"
             d="m 42.52,37.8 c 0,0.11 0.09,0.2 0.2,0.2 0.11,0 0.2,-0.09 0.2,-0.2 0,-0.11 -0.09,-0.2 -0.2,-0.2 -0.11,0 -0.2,0.09 -0.2,0.2"
             id="path224"
             style="fill:#000000;stroke-width:0px" />
          <path
             class="cls-4"
             d="m 46.79,36.43 c 0,0.11 0.09,0.2 0.2,0.2 0.11,0 0.2,-0.09 0.2,-0.2 0,-0.11 -0.09,-0.2 -0.2,-0.2 -0.11,0 -0.2,0.09 -0.2,0.2"
             id="path226"
             style="fill:#000000;stroke-width:0px" />
          <path
             class="cls-4"
             d="m 47.52,35.7 c 0,0.11 0.09,0.2 0.2,0.2 0.11,0 0.2,-0.09 0.2,-0.2 0,-0.11 -0.09,-0.2 -0.2,-0.2 -0.11,0 -0.2,0.09 -0.2,0.2"
             id="path228"
             style="fill:#000000;stroke-width:0px" />
          <path
             class="cls-4"
             d="m 46.05,37.17 c 0,0.11 0.09,0.2 0.2,0.2 0.11,0 0.2,-0.09 0.2,-0.2 0,-0.11 -0.09,-0.2 -0.2,-0.2 -0.11,0 -0.2,0.09 -0.2,0.2"
             id="path230"
             style="fill:#000000;stroke-width:0px" />
          <path
             class="cls-4"
             d="m 47.52,37.16 c 0,0.11 0.09,0.2 0.2,0.2 0.11,0 0.2,-0.09 0.2,-0.2 0,-0.11 -0.09,-0.2 -0.2,-0.2 -0.11,0 -0.2,0.09 -0.2,0.2"
             id="path232"
             style="fill:#000000;stroke-width:0px" />
          <path
             class="cls-4"
             d="m 43.8,39.36 c 0,0.11 0.09,0.2 0.2,0.2 0.11,0 0.2,-0.09 0.2,-0.2 0,-0.11 -0.09,-0.2 -0.2,-0.2 -0.11,0 -0.2,0.09 -0.2,0.2"
             id="path234"
             style="fill:#000000;stroke-width:0px" />
          <path
             class="cls-4"
             d="m 44.53,38.62 c 0,0.11 0.09,0.2 0.2,0.2 0.11,0 0.2,-0.09 0.2,-0.2 0,-0.11 -0.09,-0.2 -0.2,-0.2 -0.11,0 -0.2,0.09 -0.2,0.2"
             id="path236"
             style="fill:#000000;stroke-width:0px" />
          <path
             class="cls-4"
             d="m 43.07,40.09 c 0,0.11 0.09,0.2 0.2,0.2 0.11,0 0.2,-0.09 0.2,-0.2 0,-0.11 -0.09,-0.2 -0.2,-0.2 -0.11,0 -0.2,0.09 -0.2,0.2"
             id="path238"
             style="fill:#000000;stroke-width:0px" />
          <path
             class="cls-4"
             d="m 44.54,40.09 c 0,0.11 0.09,0.2 0.2,0.2 0.11,0 0.2,-0.09 0.2,-0.2 0,-0.11 -0.09,-0.2 -0.2,-0.2 -0.11,0 -0.2,0.09 -0.2,0.2"
             id="path240"
             style="fill:#000000;stroke-width:0px" />
          <path
             class="cls-3"
             d="m 44.82,36.95 c -0.11,0 -0.2,0.09 -0.2,0.2 0,0.11 0.09,0.2 0.2,0.2 0.11,0 0.2,-0.09 0.2,-0.2 0,-0.11 -0.09,-0.2 -0.2,-0.2"
             id="path242"
             style="fill:#fdd203;stroke-width:0px" />
          <path
             class="cls-3"
             d="m 45.55,37.68 c -0.11,0 -0.2,0.09 -0.2,0.2 0,0.11 0.09,0.2 0.2,0.2 0.11,0 0.2,-0.09 0.2,-0.2 0,-0.11 -0.09,-0.2 -0.2,-0.2"
             id="path244"
             style="fill:#fdd203;stroke-width:0px" />
          <path
             class="cls-3"
             d="m 44.08,36.21 c -0.11,0 -0.2,0.09 -0.2,0.2 0,0.11 0.09,0.2 0.2,0.2 0.11,0 0.2,-0.09 0.2,-0.2 0,-0.11 -0.09,-0.2 -0.2,-0.2"
             id="path246"
             style="fill:#fdd203;stroke-width:0px" />
          <path
             class="cls-3"
             d="m 44.08,37.68 c -0.11,0 -0.2,0.09 -0.2,0.2 0,0.11 0.09,0.2 0.2,0.2 0.11,0 0.2,-0.09 0.2,-0.2 0,-0.11 -0.09,-0.2 -0.2,-0.2"
             id="path248"
             style="fill:#fdd203;stroke-width:0px" />
          <path
             class="cls-3"
             d="m 44.81,35.9 c 0.11,0 0.2,-0.09 0.2,-0.2 0,-0.11 -0.09,-0.2 -0.2,-0.2 -0.11,0 -0.2,0.09 -0.2,0.2 0,0.11 0.09,0.2 0.2,0.2"
             id="path250"
             style="fill:#fdd203;stroke-width:0px" />
          <path
             class="cls-3"
             d="m 44.07,35.17 c 0.11,0 0.2,-0.09 0.2,-0.2 0,-0.11 -0.09,-0.2 -0.2,-0.2 -0.11,0 -0.2,0.09 -0.2,0.2 0,0.11 0.09,0.2 0.2,0.2"
             id="path252"
             style="fill:#fdd203;stroke-width:0px" />
          <path
             class="cls-3"
             d="m 45.54,36.63 c 0.11,0 0.2,-0.09 0.2,-0.2 0,-0.11 -0.09,-0.2 -0.2,-0.2 -0.11,0 -0.2,0.09 -0.2,0.2 0,0.11 0.09,0.2 0.2,0.2"
             id="path254"
             style="fill:#fdd203;stroke-width:0px" />
          <path
             class="cls-3"
             d="m 45.54,35.16 c 0.11,0 0.2,-0.09 0.2,-0.2 0,-0.11 -0.09,-0.2 -0.2,-0.2 -0.11,0 -0.2,0.09 -0.2,0.2 0,0.11 0.09,0.2 0.2,0.2"
             id="path256"
             style="fill:#fdd203;stroke-width:0px" />
          <path
             class="cls-3"
             d="m 46.98,39.55 c 0.11,0 0.2,-0.09 0.2,-0.2 0,-0.11 -0.09,-0.2 -0.2,-0.2 -0.11,0 -0.2,0.09 -0.2,0.2 0,0.11 0.09,0.2 0.2,0.2"
             id="path258"
             style="fill:#fdd203;stroke-width:0px" />
          <path
             class="cls-3"
             d="m 46.25,38.82 c 0.11,0 0.2,-0.09 0.2,-0.2 0,-0.11 -0.09,-0.2 -0.2,-0.2 -0.11,0 -0.2,0.09 -0.2,0.2 0,0.11 0.09,0.2 0.2,0.2"
             id="path260"
             style="fill:#fdd203;stroke-width:0px" />
          <path
             class="cls-3"
             d="m 47.71,38.81 c 0.11,0 0.2,-0.09 0.2,-0.2 0,-0.11 -0.09,-0.2 -0.2,-0.2 -0.11,0 -0.2,0.09 -0.2,0.2 0,0.11 0.09,0.2 0.2,0.2"
             id="path262"
             style="fill:#fdd203;stroke-width:0px" />
          <path
             class="cls-5"
             d="m 49.07,38.44 c -0.11,0 -0.2,0.09 -0.2,0.2 0,0.11 0.09,0.2 0.2,0.2 0.11,0 0.2,-0.09 0.2,-0.2 0,-0.11 -0.09,-0.2 -0.2,-0.2"
             id="path264"
             style="fill:#ca151a;stroke-width:0px" />
          <path
             class="cls-5"
             d="m 49.81,39.17 c -0.11,0 -0.2,0.09 -0.2,0.2 0,0.11 0.09,0.2 0.2,0.2 0.11,0 0.2,-0.09 0.2,-0.2 0,-0.11 -0.09,-0.2 -0.2,-0.2"
             id="path266"
             style="fill:#ca151a;stroke-width:0px" />
          <path
             class="cls-5"
             d="m 48.34,37.71 c -0.11,0 -0.2,0.09 -0.2,0.2 0,0.11 0.09,0.2 0.2,0.2 0.11,0 0.2,-0.09 0.2,-0.2 0,-0.11 -0.09,-0.2 -0.2,-0.2"
             id="path268"
             style="fill:#ca151a;stroke-width:0px" />
          <path
             class="cls-5"
             d="m 48.34,39.18 c -0.11,0 -0.2,0.09 -0.2,0.2 0,0.11 0.09,0.2 0.2,0.2 0.11,0 0.2,-0.09 0.2,-0.2 0,-0.11 -0.09,-0.2 -0.2,-0.2"
             id="path270"
             style="fill:#ca151a;stroke-width:0px" />
          <path
             class="cls-3"
             d="m 47.71,40.28 c 0.11,0 0.2,-0.09 0.2,-0.2 0,-0.11 -0.09,-0.2 -0.2,-0.2 -0.11,0 -0.2,0.09 -0.2,0.2 0,0.11 0.09,0.2 0.2,0.2"
             id="path272"
             style="fill:#fdd203;stroke-width:0px" />
          <path
             class="cls-3"
             d="m 57.78,40.28 c 0.11,0 0.2,-0.09 0.2,-0.2 0,-0.11 -0.09,-0.2 -0.2,-0.2 -0.11,0 -0.2,0.09 -0.2,0.2 0,0.11 0.09,0.2 0.2,0.2"
             id="path274"
             style="fill:#fdd203;stroke-width:0px" />
          <path
             class="cls-3"
             d="m 67.82,40.28 c 0.11,0 0.2,-0.09 0.2,-0.2 0,-0.11 -0.09,-0.2 -0.2,-0.2 -0.11,0 -0.2,0.09 -0.2,0.2 0,0.11 0.09,0.2 0.2,0.2"
             id="path276"
             style="fill:#fdd203;stroke-width:0px" />
        </g>
      </g>
    </g>
    <path
       d="m 14.416742,26.116151 -3.075329,6.496514 h -1.205828 l -0.5047895,-4.916786 -2.3088337,4.916786 -1.1964803,0.0093 -0.6917154,-6.505862 h 1.1310476 l 0.4113145,5.290687 2.3929614,-5.290687 h 1.1964814 l 0.429959,5.262645 2.280792,-5.262645 z"
       id="path546"
       style="font-style:italic;font-weight:500;font-size:5.76px;font-family:Poppins-MediumItalic, Poppins;stroke-width:1.62283" />
    <path
       d="m 17.735111,27.378064 q 0.775843,0 1.243218,0.439345 0.467375,0.429961 0.467375,1.233871 0,0.21498 -0.04661,0.523435 l -0.542143,3.037938 h -1.056268 l 0.514114,-2.879031 q 0.03741,-0.261717 0.03741,-0.373899 0,-0.514114 -0.289748,-0.785191 -0.280425,-0.271103 -0.785191,-0.271103 -0.607587,0 -1.028225,0.373902 -0.411315,0.364576 -0.523435,1.056268 v -0.0184 l -0.514113,2.897725 H 14.14588 l 1.224523,-6.917151 h 1.065614 L 16.01538,28.06069 q 0.327163,-0.327162 0.775842,-0.504789 0.448668,-0.177628 0.944099,-0.177628 z"
       id="path548"
       style="font-style:italic;font-weight:500;font-size:5.76px;font-family:Poppins-MediumItalic, Poppins;stroke-width:1.62283" />
    <path
       d="m 22.464948,32.696794 q -0.654326,0 -1.149743,-0.271103 -0.495405,-0.271102 -0.775843,-0.766496 -0.271102,-0.495404 -0.271102,-1.131048 0,-0.869316 0.401931,-1.589074 0.411314,-0.719759 1.121699,-1.140396 0.719759,-0.420638 1.598423,-0.420638 0.654326,0 1.159091,0.280425 0.504789,0.271103 0.78519,0.766495 0.289749,0.486083 0.289749,1.131048 0,0.869319 -0.420638,1.589076 -0.420638,0.719757 -1.140395,1.140395 -0.719759,0.411316 -1.598423,0.411316 z m 0.130889,-0.897361 q 0.53282,0 0.97214,-0.299132 0.448669,-0.308456 0.701063,-0.803885 0.252395,-0.504791 0.252395,-1.074963 0,-0.644978 -0.364577,-0.990836 -0.364578,-0.355192 -0.916055,-0.355192 -0.542143,0 -0.972141,0.308455 -0.420637,0.299132 -0.663672,0.813232 -0.233688,0.50479 -0.233688,1.084311 0,0.626283 0.336486,0.97214 0.345869,0.34587 0.888012,0.34587 z"
       id="path550"
       style="font-style:italic;font-weight:500;font-size:5.76px;font-family:Poppins-MediumItalic, Poppins;stroke-width:1.62283" />
    <path
       d="m 28.46605,25.695514 -1.224523,6.917151 h -1.065615 l 1.224524,-6.917151 z"
       id="path552"
       style="font-style:italic;font-weight:500;font-size:5.76px;font-family:Poppins-MediumItalic, Poppins;stroke-width:1.62283" />
    <path
       d="m 31.784416,27.378064 q 0.962792,0 1.53299,0.542143 0.579558,0.542143 0.579558,1.45821 0,0.214981 -0.04662,0.514112 -0.03741,0.205658 -0.13089,0.504791 h -3.935298 q -0.0093,0.06545 -0.0093,0.196272 0,0.551528 0.336485,0.878666 0.34587,0.327163 0.897359,0.327163 0.869319,0 1.336693,-0.719758 h 1.149744 q -0.355193,0.710409 -1.046921,1.168438 -0.691715,0.448667 -1.598423,0.448667 -0.644977,0 -1.131047,-0.252395 -0.486083,-0.252393 -0.75715,-0.719757 -0.271102,-0.476697 -0.271102,-1.112353 0,-0.271102 0.05582,-0.579558 0.140213,-0.794537 0.570174,-1.392777 0.429959,-0.607588 1.065615,-0.93475 0.644979,-0.327163 1.402126,-0.327163 z m 1.000182,2.252748 q 0.01839,-0.168242 0.01839,-0.24301 0,-0.514114 -0.345869,-0.813233 -0.336487,-0.299133 -0.878667,-0.299133 -0.570173,0 -1.028225,0.364577 -0.458051,0.364578 -0.626282,0.990835 z"
       id="path554"
       style="font-style:italic;font-weight:500;font-size:5.76px;font-family:Poppins-MediumItalic, Poppins;stroke-width:1.62283" />
    <path
       d="m 36.308614,32.696794 q -0.53282,0 -0.972141,-0.177628 -0.439346,-0.18695 -0.691715,-0.514113 -0.252396,-0.336485 -0.252396,-0.766495 0,-0.07477 0.01839,-0.205657 h 1.037573 q -0.03741,0.355193 0.214981,0.58888 0.252393,0.233688 0.710409,0.233688 0.448669,0 0.738453,-0.158921 0.289748,-0.158919 0.289748,-0.467374 0,-0.261718 -0.24301,-0.420638 -0.233688,-0.15892 -0.757149,-0.355193 -0.495405,-0.196273 -0.803884,-0.364577 -0.308455,-0.168243 -0.53282,-0.458052 -0.224366,-0.299132 -0.224366,-0.738453 0,-0.448667 0.252396,-0.78519 0.261718,-0.345869 0.719757,-0.53282 0.467376,-0.196273 1.065616,-0.196273 0.542142,0 0.962793,0.18695 0.42996,0.177628 0.663673,0.514113 0.24301,0.327162 0.24301,0.757148 0,0.130888 -0.0093,0.196273 h -1.00953 q 0.03741,-0.364578 -0.214979,-0.588882 -0.243011,-0.224363 -0.701063,-0.224363 -0.401931,0 -0.654327,0.168242 -0.24301,0.168243 -0.24301,0.458052 0,0.289749 0.252395,0.467376 0.252395,0.168242 0.775843,0.3739 0.476698,0.18695 0.775842,0.355193 0.299134,0.168243 0.514114,0.448668 0.21498,0.280424 0.21498,0.701062 0,0.458052 -0.280426,0.803885 -0.271101,0.336486 -0.757147,0.523437 -0.486082,0.177626 -1.103005,0.177626 z"
       id="path556"
       style="font-style:italic;font-weight:500;font-size:5.76px;font-family:Poppins-MediumItalic, Poppins;stroke-width:1.62283" />
    <path
       d="m 39.505458,30.014059 q 0.140213,-0.775843 0.560851,-1.374082 0.429961,-0.598265 1.04692,-0.925403 0.616935,-0.336486 1.289956,-0.336486 0.607587,0 1.018877,0.243011 0.411315,0.233688 0.616936,0.58888 l 0.130889,-0.7478 h 1.074963 l -0.906708,5.150474 H 43.26318 l 0.140212,-0.766495 q -0.336486,0.364578 -0.850623,0.607588 -0.504788,0.243011 -1.103005,0.243011 -0.579557,0 -1.037573,-0.261718 -0.448668,-0.261719 -0.71041,-0.738453 -0.252394,-0.486083 -0.252394,-1.112353 0,-0.280426 0.05581,-0.570174 z m 4.215724,0.0184 q 0.03741,-0.177627 0.03741,-0.383223 0,-0.626283 -0.3739,-0.981488 -0.364578,-0.364577 -0.916055,-0.364577 -0.411315,0 -0.803886,0.205658 -0.392607,0.196273 -0.682367,0.58888 -0.289748,0.383223 -0.383223,0.916055 -0.03741,0.177627 -0.03741,0.383224 0,0.63563 0.364577,1.009529 0.3739,0.364578 0.925402,0.364578 0.411315,0 0.803885,-0.205657 0.392608,-0.205657 0.682369,-0.598265 0.289746,-0.401932 0.383222,-0.934751 z"
       id="path558"
       style="font-style:italic;font-weight:500;font-size:5.76px;font-family:Poppins-MediumItalic, Poppins;stroke-width:1.62283" />
    <path
       d="m 48.030375,25.695514 -1.224522,6.917151 h -1.065617 l 1.224524,-6.917151 z"
       id="path560"
       style="font-style:italic;font-weight:500;font-size:5.76px;font-family:Poppins-MediumItalic, Poppins;stroke-width:1.62283" />
    <path
       d="m 51.348744,27.378064 q 0.962794,0 1.532991,0.542143 0.579558,0.542143 0.579558,1.45821 0,0.214981 -0.04662,0.514112 -0.03741,0.205658 -0.130889,0.504791 h -3.935299 q -0.0093,0.06545 -0.0093,0.196272 0,0.551528 0.336487,0.878666 0.34587,0.327163 0.897358,0.327163 0.869319,0 1.336695,-0.719758 h 1.149742 q -0.355193,0.710409 -1.046921,1.168438 -0.691715,0.448667 -1.598423,0.448667 -0.644977,0 -1.131047,-0.252395 -0.486082,-0.252393 -0.757148,-0.719757 -0.270979,-0.476697 -0.270979,-1.112353 0,-0.271102 0.05582,-0.579558 0.140212,-0.794537 0.570172,-1.392777 0.429961,-0.607588 1.065617,-0.93475 0.644976,-0.327163 1.402125,-0.327163 z m 1.000183,2.252748 q 0.01839,-0.168242 0.01839,-0.24301 0,-0.514114 -0.34587,-0.813233 -0.336486,-0.299133 -0.878666,-0.299133 -0.570172,0 -1.028224,0.364577 -0.458052,0.364578 -0.626283,0.990835 z"
       id="path562"
       style="font-style:italic;font-weight:500;font-size:5.76px;font-family:Poppins-MediumItalic, Poppins;stroke-width:1.62283" />
    <path
       d="m 4.9103306,41.227818 q 0.1402125,-0.775842 0.5608502,-1.374083 0.4299608,-0.598264 1.0469203,-0.925403 0.6169354,-0.336485 1.2899547,-0.336485 0.6075881,0 1.0188783,0.243011 0.4113149,0.233687 0.6169358,0.58888 l 0.1308889,-0.7478 H 10.649722 L 9.7429901,43.826425 H 8.6680268 l 0.140213,-0.766496 q -0.3364862,0.364578 -0.8506234,0.607588 -0.5047895,0.243011 -1.103005,0.243011 -0.579558,0 -1.037573,-0.261719 -0.4486677,-0.261718 -0.7104101,-0.738452 -0.252395,-0.486083 -0.252395,-1.112353 0,-0.280425 0.05582,-0.570173 z m 4.2157237,0.01839 q 0.037407,-0.177627 0.037407,-0.383223 0,-0.626283 -0.3738995,-0.981488 -0.3645775,-0.364577 -0.9160549,-0.364577 -0.411316,0 -0.8038864,0.205656 -0.3926064,0.196275 -0.6823669,0.588881 -0.2897482,0.383223 -0.383224,0.916055 -0.037411,0.177627 -0.037411,0.383223 0,0.63563 0.3645775,1.009531 0.3738997,0.364577 0.9254026,0.364577 0.4113142,0 0.8038854,-0.205657 0.3926072,-0.205657 0.6823674,-0.598266 0.2897478,-0.401929 0.3832225,-0.934749 z"
       id="path564"
       style="font-style:italic;font-weight:500;font-size:5.76px;font-family:Poppins-MediumItalic, Poppins;stroke-width:1.62283" />
    <path
       d="m 14.669119,38.591822 q 0.813232,0 1.289954,0.439346 0.486082,0.429961 0.486082,1.243217 0,0.205658 -0.04661,0.514113 l -0.542143,3.037938 h -1.056267 l 0.514112,-2.87903 q 0.03741,-0.261717 0.03741,-0.373901 0,-0.514112 -0.289748,-0.785189 -0.280425,-0.271103 -0.78519,-0.271103 -0.607588,0 -1.028226,0.3739 -0.411314,0.364577 -0.523435,1.056268 v -0.02821 l -0.514112,2.907074 H 11.14533 l 0.906708,-5.150475 h 1.065616 l -0.102798,0.598265 q 0.317839,-0.317839 0.747799,-0.495405 0.439346,-0.186951 0.906709,-0.186951 z"
       id="path566"
       style="font-style:italic;font-weight:500;font-size:5.76px;font-family:Poppins-MediumItalic, Poppins;stroke-width:1.62283" />
    <path
       d="m 17.314468,41.227818 q 0.140212,-0.775842 0.56085,-1.374083 0.42996,-0.598264 1.04692,-0.925403 0.616936,-0.336485 1.299303,-0.336485 0.504789,0 0.953446,0.224365 0.448667,0.214979 0.682367,0.579557 l 0.439344,-2.486436 h 1.074963 l -1.224522,6.917152 h -1.074962 l 0.140212,-0.775842 q -0.336487,0.383223 -0.841275,0.626283 -0.495406,0.233687 -1.093659,0.233687 -0.58888,0 -1.04692,-0.261718 -0.458052,-0.261717 -0.719758,-0.738452 -0.252394,-0.486083 -0.252394,-1.112353 0,-0.280425 0.05582,-0.570174 z m 4.215723,0.01839 q 0.03741,-0.177627 0.03741,-0.383223 0,-0.626283 -0.373902,-0.981488 -0.364576,-0.364577 -0.916055,-0.364577 -0.411313,0 -0.803885,0.205656 -0.392607,0.196275 -0.682367,0.588881 -0.289749,0.383223 -0.383224,0.916055 -0.03741,0.177627 -0.03741,0.383223 0,0.63563 0.364578,1.009531 0.373899,0.364577 0.925403,0.364577 0.411314,0 0.803885,-0.205657 0.392607,-0.205657 0.682367,-0.598266 0.289749,-0.401929 0.383223,-0.934749 z"
       id="path568"
       style="font-style:italic;font-weight:500;font-size:5.76px;font-family:Poppins-MediumItalic, Poppins;stroke-width:1.62283" />
    <path
       d="m 29.494253,38.591822 q 0.962793,0 1.532991,0.542143 0.579557,0.542143 0.579557,1.458211 0,0.214981 -0.04661,0.514112 -0.03741,0.205658 -0.130889,0.504791 h -3.935306 q -0.0093,0.06545 -0.0093,0.196272 0,0.551527 0.336486,0.878665 0.345869,0.327163 0.89736,0.327163 0.86932,0 1.336695,-0.719757 h 1.149742 q -0.355192,0.71041 -1.04692,1.168436 -0.691715,0.44867 -1.598425,0.44867 -0.644977,0 -1.131047,-0.252395 -0.486083,-0.252396 -0.757148,-0.719758 -0.271102,-0.476699 -0.271102,-1.112353 0,-0.271102 0.05582,-0.579558 0.140213,-0.794537 0.570173,-1.392778 0.42996,-0.607588 1.065615,-0.93475 0.644978,-0.327162 1.402126,-0.327162 z m 1.000182,2.252748 q 0.01839,-0.168242 0.01839,-0.24301 0,-0.514113 -0.34587,-0.813232 -0.336486,-0.299133 -0.878667,-0.299133 -0.570173,0 -1.028225,0.364578 -0.458052,0.364576 -0.626282,0.990834 z"
       id="path570"
       style="font-style:italic;font-weight:500;font-size:5.76px;font-family:Poppins-MediumItalic, Poppins;stroke-width:1.62283" />
    <path
       d="m 34.794294,41.209124 1.196479,2.617301 H 34.784946 L 33.98106,42.078441 32.625673,43.826425 H 31.51332 l 2.112535,-2.533174 -1.205828,-2.617301 h 1.205828 l 0.803886,1.747982 1.355388,-1.747982 h 1.112353 z"
       id="path572"
       style="font-style:italic;font-weight:500;font-size:5.76px;font-family:Poppins-MediumItalic, Poppins;stroke-width:1.62283" />
    <path
       d="m 38.626768,39.433098 q 0.336487,-0.355194 0.841276,-0.598265 0.514114,-0.243011 1.103005,-0.243011 0.588881,0 1.046922,0.252396 0.458052,0.252395 0.710409,0.719757 0.252395,0.467376 0.252395,1.093658 0,0.271102 -0.05582,0.570173 -0.140213,0.775843 -0.570174,1.392779 -0.420637,0.607587 -1.037572,0.953444 -0.607588,0.336487 -1.280609,0.336487 -0.58888,0 -1.00953,-0.233689 -0.411314,-0.243011 -0.644977,-0.598265 l -0.560851,3.196847 H 36.355628 L 37.69232,38.67589 h 1.065615 z m 2.813599,1.79472 q 0.03741,-0.177627 0.03741,-0.383222 0,-0.626284 -0.373899,-0.972141 -0.364578,-0.355193 -0.925403,-0.355193 -0.401931,0 -0.803886,0.205657 -0.392606,0.205658 -0.682366,0.598265 -0.289749,0.392608 -0.383224,0.925403 -0.03741,0.177627 -0.03741,0.383223 0,0.626283 0.364576,0.990834 0.373901,0.364578 0.925403,0.364578 0.411316,0 0.803886,-0.205657 0.401929,-0.21498 0.691715,-0.616935 0.289749,-0.40193 0.383224,-0.93475 z"
       id="path574"
       style="font-style:italic;font-weight:500;font-size:5.76px;font-family:Poppins-MediumItalic, Poppins;stroke-width:1.62283" />
    <path
       d="m 45.375667,43.910552 q -0.654326,0 -1.149743,-0.271102 -0.495406,-0.271102 -0.775843,-0.766496 -0.271102,-0.495406 -0.271102,-1.131047 0,-0.869319 0.40193,-1.589077 0.411315,-0.719757 1.121699,-1.140395 0.719759,-0.420637 1.598424,-0.420637 0.654325,0 1.159091,0.280426 0.504788,0.271101 0.78519,0.766495 0.289749,0.486082 0.289749,1.131047 0,0.869318 -0.420638,1.589076 -0.420638,0.719758 -1.140396,1.140395 -0.719758,0.411315 -1.598423,0.411315 z m 0.130889,-0.897361 q 0.53282,0 0.97214,-0.299132 0.448669,-0.308455 0.701063,-0.803886 0.252394,-0.504789 0.252394,-1.074962 0,-0.644978 -0.364577,-0.990835 -0.364577,-0.355193 -0.916055,-0.355193 -0.542143,0 -0.97214,0.308454 -0.420637,0.299134 -0.663674,0.813234 -0.233686,0.504789 -0.233686,1.08431 0,0.626283 0.336486,0.97214 0.345869,0.34587 0.888012,0.34587 z"
       id="path576"
       style="font-style:italic;font-weight:500;font-size:5.76px;font-family:Poppins-MediumItalic, Poppins;stroke-width:1.62283" />
    <path
       d="m 50.90004,39.582658 q 0.31784,-0.467375 0.747801,-0.729105 0.439345,-0.261717 0.97214,-0.261717 l -0.196273,1.103004 h -0.271102 q -0.616936,0 -0.990835,0.308455 -0.3739,0.308456 -0.523436,1.065616 l -0.486083,2.757514 h -1.065614 l 0.906706,-5.150475 h 1.065617 z"
       id="path578"
       style="font-style:italic;font-weight:500;font-size:5.76px;font-family:Poppins-MediumItalic, Poppins;stroke-width:1.62283" />
    <path
       d="m 54.171678,42.396257 q -0.01839,0.130889 -0.01839,0.168243 0,0.196272 0.121507,0.289747 0.121504,0.08416 0.40193,0.08416 h 0.654325 l -0.15892,0.888013 h -0.841277 q -0.616936,0 -0.944098,-0.24301 -0.327163,-0.252395 -0.327163,-0.794539 0,-0.205656 0.03742,-0.392606 l 0.50479,-2.850989 h -0.607588 l 0.149536,-0.869318 h 0.616934 l 0.224365,-1.280607 h 1.074962 l -0.22436,1.280606 h 1.243217 l -0.149535,0.869318 h -1.252574 z"
       id="path580"
       style="font-style:italic;font-weight:500;font-size:5.76px;font-family:Poppins-MediumItalic, Poppins;stroke-width:1.62283" />
    <path
       d="m 61.210335,43.910552 q -0.654324,0 -1.149742,-0.271102 -0.495405,-0.271102 -0.775842,-0.766496 -0.271103,-0.495406 -0.271103,-1.131047 0,-0.869319 0.401931,-1.589077 0.411314,-0.719757 1.1217,-1.140395 0.719758,-0.420637 1.598423,-0.420637 0.654325,0 1.15909,0.280426 0.50479,0.271101 0.78519,0.766495 0.289748,0.486082 0.289748,1.131047 0,0.869318 -0.420637,1.589076 -0.420638,0.719758 -1.140395,1.140395 -0.719758,0.411315 -1.598423,0.411315 z m 0.13089,-0.897361 q 0.53282,0 0.97214,-0.299132 0.448668,-0.308455 0.701063,-0.803886 0.252395,-0.504789 0.252395,-1.074962 0,-0.644978 -0.364577,-0.990835 -0.364577,-0.355193 -0.916055,-0.355193 -0.542142,0 -0.972141,0.308454 -0.420638,0.299134 -0.663672,0.813234 -0.233688,0.504789 -0.233688,1.08431 0,0.626283 0.336485,0.97214 0.34587,0.34587 0.888014,0.34587 z"
       id="path582"
       style="font-style:italic;font-weight:500;font-size:5.76px;font-family:Poppins-MediumItalic, Poppins;stroke-width:1.62283" />
    <path
       d="m 68.127494,37.498165 q -0.486083,0 -0.719758,0.186949 -0.233686,0.186951 -0.308454,0.626283 l -0.06545,0.364578 h 0.953445 l -0.149536,0.869317 H 66.8843 l -0.757148,4.281156 H 65.05219 l 0.757146,-4.281156 h -0.607587 l 0.149536,-0.869317 h 0.607587 l 0.06545,-0.364578 q 0.15892,-0.888012 0.701062,-1.289955 0.542144,-0.411314 1.551686,-0.411314 z"
       id="path584"
       style="font-style:italic;font-weight:500;font-size:5.76px;font-family:Poppins-MediumItalic, Poppins;stroke-width:1.62283" />
    <path
       d="m 72.67038,39.433098 q 0.336486,-0.355194 0.841276,-0.598265 0.514112,-0.243011 1.103004,-0.243011 0.588882,0 1.046921,0.252396 0.458052,0.252395 0.71041,0.719757 0.252394,0.467376 0.252394,1.093658 0,0.271102 -0.05581,0.570173 -0.140213,0.775843 -0.570174,1.392779 -0.420638,0.607587 -1.037573,0.953444 -0.607588,0.336487 -1.280607,0.336487 -0.588881,0 -1.009531,-0.233689 -0.411315,-0.243011 -0.644978,-0.598265 l -0.560851,3.196847 H 70.39925 l 1.336693,-7.599519 h 1.065614 z m 2.813599,1.79472 q 0.03741,-0.177627 0.03741,-0.383222 0,-0.626284 -0.373901,-0.972141 -0.364577,-0.355193 -0.925403,-0.355193 -0.401929,0 -0.803884,0.205657 -0.392608,0.205658 -0.682369,0.598265 -0.289747,0.392608 -0.383222,0.925403 -0.03741,0.177627 -0.03741,0.383223 0,0.626283 0.364577,0.990834 0.3739,0.364578 0.925403,0.364578 0.411314,0 0.803884,-0.205657 0.401931,-0.21498 0.691716,-0.616935 0.289748,-0.40193 0.383223,-0.93475 z"
       id="path586"
       style="font-style:italic;font-weight:500;font-size:5.76px;font-family:Poppins-MediumItalic, Poppins;stroke-width:1.62283" />
    <path
       d="m 78.979938,39.582658 q 0.31784,-0.467375 0.747801,-0.729105 0.439344,-0.261717 0.97214,-0.261717 l -0.196273,1.103004 h -0.271102 q -0.616936,0 -0.990836,0.308455 -0.3739,0.308456 -0.523435,1.065616 l -0.486082,2.757514 h -1.065617 l 0.906709,-5.150475 h 1.065614 z"
       id="path588"
       style="font-style:italic;font-weight:500;font-size:5.76px;font-family:Poppins-MediumItalic, Poppins;stroke-width:1.62283" />
    <path
       d="m 83.008725,43.910552 q -0.654327,0 -1.149744,-0.271102 -0.495405,-0.271102 -0.775843,-0.766496 -0.271102,-0.495406 -0.271102,-1.131047 0,-0.869319 0.401931,-1.589077 0.411314,-0.719757 1.1217,-1.140395 0.719758,-0.420637 1.598422,-0.420637 0.654327,0 1.159092,0.280426 0.504789,0.271101 0.785189,0.766495 0.289749,0.486082 0.289749,1.131047 0,0.869318 -0.420638,1.589076 -0.420637,0.719758 -1.140395,1.140395 -0.719759,0.411315 -1.598423,0.411315 z m 0.130889,-0.897361 q 0.53282,0 0.972141,-0.299132 0.448667,-0.308455 0.701063,-0.803886 0.252393,-0.504789 0.252393,-1.074962 0,-0.644978 -0.364577,-0.990835 -0.364577,-0.355193 -0.916055,-0.355193 -0.542143,0 -0.97214,0.308454 -0.420638,0.299134 -0.663673,0.813234 -0.233687,0.504789 -0.233687,1.08431 0,0.626283 0.336486,0.97214 0.34587,0.34587 0.888012,0.34587 z"
       id="path590"
       style="font-style:italic;font-weight:500;font-size:5.76px;font-family:Poppins-MediumItalic, Poppins;stroke-width:1.62283" />
    <path
       d="m 86.822505,41.227818 q 0.140213,-0.775842 0.56085,-1.374083 0.429961,-0.598264 1.04692,-0.925403 0.616936,-0.336485 1.299304,-0.336485 0.504789,0 0.953445,0.224365 0.448668,0.214979 0.682368,0.579557 l 0.439344,-2.486436 h 1.074962 l -1.224521,6.917152 h -1.074963 l 0.140212,-0.775842 q -0.336486,0.383223 -0.841274,0.626283 -0.495406,0.233687 -1.093659,0.233687 -0.58888,0 -1.04692,-0.261718 -0.458052,-0.261717 -0.719757,-0.738452 -0.252396,-0.486083 -0.252396,-1.112353 0,-0.280425 0.05582,-0.570174 z m 4.215724,0.01839 q 0.03741,-0.177627 0.03741,-0.383223 0,-0.626283 -0.373901,-0.981488 -0.364578,-0.364577 -0.916056,-0.364577 -0.411314,0 -0.803885,0.205656 -0.392607,0.196275 -0.682367,0.588881 -0.289748,0.383223 -0.383224,0.916055 -0.03741,0.177627 -0.03741,0.383223 0,0.63563 0.364578,1.009531 0.3739,0.364577 0.925402,0.364577 0.411315,0 0.803886,-0.205657 0.392606,-0.205657 0.682368,-0.598266 0.289747,-0.401929 0.383222,-0.934749 z"
       id="path592"
       style="font-style:italic;font-weight:500;font-size:5.76px;font-family:Poppins-MediumItalic, Poppins;stroke-width:1.62283" />
    <path
       d="m 98.62839,38.67595 -0.9067,5.150475 h -1.065618 l 0.102797,-0.607588 q -0.308455,0.317839 -0.7478,0.504789 -0.429961,0.177627 -0.888013,0.177627 -0.813231,0 -1.299302,-0.439345 -0.486082,-0.439345 -0.486082,-1.243217 0,-0.21498 0.04662,-0.514114 l 0.53282,-3.02859 h 1.056267 l -0.504788,2.869683 q -0.03741,0.261717 -0.03741,0.3739 0,0.514114 0.280425,0.78519 0.289746,0.271103 0.794537,0.271103 0.58888,0 1.000182,-0.34587 0.411315,-0.355193 0.542144,-1.018878 l 0.514112,-2.935116 z"
       id="path594"
       style="font-style:italic;font-weight:500;font-size:5.76px;font-family:Poppins-MediumItalic, Poppins;stroke-width:1.62283" />
    <path
       d="m 99.226642,41.246514 q 0.140215,-0.794538 0.560852,-1.392779 0.429956,-0.607587 1.056276,-0.934749 0.63563,-0.327164 1.37408,-0.327164 0.93474,0 1.46756,0.448669 0.53281,0.439344 0.60759,1.261913 h -1.14975 q -0.0748,-0.383224 -0.34587,-0.598265 -0.2711,-0.214981 -0.73845,-0.214981 -0.65433,0 -1.12171,0.467375 -0.46737,0.458053 -0.61693,1.289956 -0.0466,0.299131 -0.0466,0.486083 0,0.616935 0.30846,0.953444 0.30846,0.327163 0.85998,0.327163 0.92541,0 1.36472,-0.813232 h 1.14975 q -0.36458,0.78519 -1.06561,1.252565 -0.69173,0.458052 -1.60778,0.458052 -0.97214,0 -1.542343,-0.551527 -0.570173,-0.560851 -0.570173,-1.514296 0,-0.289747 0.05581,-0.598264 z"
       id="path596"
       style="font-style:italic;font-weight:500;font-size:5.76px;font-family:Poppins-MediumItalic, Poppins;stroke-width:1.62283" />
    <path
       d="m 106.22792,42.396257 q -0.0184,0.130889 -0.0184,0.168243 0,0.196272 0.12152,0.289747 0.1215,0.08416 0.40193,0.08416 h 0.65432 l -0.15895,0.888008 h -0.84127 q -0.61693,0 -0.94409,-0.24301 -0.32717,-0.252395 -0.32717,-0.794539 0,-0.205656 0.0373,-0.392606 l 0.50479,-2.850989 h -0.60758 l 0.14953,-0.869318 h 0.61693 l 0.22436,-1.280607 h 1.07497 l -0.22437,1.280607 h 1.24322 l -0.14953,0.869318 h -1.25256 z"
       id="path598"
       style="font-style:italic;font-weight:500;font-size:5.76px;font-family:Poppins-MediumItalic, Poppins;stroke-width:1.62283" />
    <path
       d="m 110.10714,43.910552 q -0.53283,0 -0.97214,-0.177628 -0.43934,-0.186949 -0.69172,-0.514112 -0.25239,-0.336486 -0.25239,-0.766496 0,-0.07476 0.0184,-0.205656 h 1.03757 q -0.0374,0.355192 0.21499,0.58888 0.25239,0.233687 0.7104,0.233687 0.44867,0 0.73846,-0.158919 0.28975,-0.158921 0.28975,-0.467376 0,-0.261717 -0.24302,-0.420637 -0.23369,-0.15892 -0.75715,-0.355194 -0.4954,-0.196272 -0.80389,-0.364576 -0.30844,-0.168243 -0.53281,-0.458053 -0.22437,-0.299132 -0.22437,-0.738452 0,-0.448669 0.25239,-0.785191 0.26173,-0.34587 0.71977,-0.53282 0.46738,-0.196272 1.06561,-0.196272 0.54215,0 0.96279,0.18695 0.42997,0.177627 0.66368,0.514113 0.24301,0.327163 0.24301,0.757147 0,0.130889 -0.009,0.196273 h -1.00953 q 0.0373,-0.364577 -0.21498,-0.58888 -0.24302,-0.224365 -0.70107,-0.224365 -0.40193,0 -0.65432,0.168243 -0.24302,0.168243 -0.24302,0.458052 0,0.289748 0.2524,0.467375 0.25239,0.168243 0.77585,0.373901 0.4767,0.186949 0.77584,0.355192 0.29913,0.168243 0.51412,0.448668 0.21496,0.280425 0.21496,0.701063 0,0.458051 -0.28042,0.803885 -0.27109,0.336485 -0.75714,0.523436 -0.48609,0.177627 -1.10301,0.177627 z"
       id="path600"
       style="font-style:italic;font-weight:500;font-size:5.76px;font-family:Poppins-MediumItalic, Poppins;stroke-width:1.62283" />
    <path
       d="m 6.3031087,53.626238 q -0.018399,0.130889 -0.018399,0.168243 0,0.196273 0.1215047,0.289748 0.1215058,0.08416 0.4019309,0.08416 h 0.6543251 l -0.1589193,0.88801 H 6.4622757 q -0.6169353,0 -0.9440984,-0.24301 -0.3271618,-0.252395 -0.3271618,-0.794538 0,-0.205657 0.037411,-0.392607 l 0.5047891,-2.85099 H 5.125629 l 0.1495357,-0.869317 h 0.6169344 l 0.2243651,-1.280608 h 1.0749624 l -0.224364,1.280608 H 8.2102802 L 8.0607453,50.775249 H 6.8081794 Z"
       id="path602"
       style="font-style:italic;font-weight:500;font-size:5.76px;font-family:Poppins-MediumItalic, Poppins;stroke-width:1.62283" />
    <path
       d="m 10.537528,55.140534 q -0.654326,0 -1.1497431,-0.271103 -0.4954058,-0.271102 -0.775843,-0.766496 -0.271102,-0.495404 -0.271102,-1.131047 0,-0.869318 0.4019302,-1.589075 0.4113138,-0.719759 1.1217006,-1.140396 0.7197573,-0.420637 1.5984233,-0.420637 0.654325,0 1.15909,0.280424 0.50479,0.271103 0.785191,0.766496 0.289747,0.486082 0.289747,1.131047 0,0.869319 -0.420637,1.589077 -0.420638,0.719757 -1.140395,1.140395 -0.719758,0.411315 -1.598424,0.411315 z m 0.13089,-0.897361 q 0.532819,0 0.972139,-0.299133 0.448669,-0.308454 0.701063,-0.803885 0.252395,-0.504789 0.252395,-1.074962 0,-0.644979 -0.364577,-0.990836 -0.364577,-0.355192 -0.916055,-0.355192 -0.542143,0 -0.97214,0.308455 -0.420638,0.299132 -0.6636742,0.813232 -0.2336866,0.504791 -0.2336866,1.084311 0,0.626282 0.3364852,0.972141 0.3458686,0.345869 0.8880136,0.345869 z"
       id="path604"
       style="font-style:italic;font-weight:500;font-size:5.76px;font-family:Poppins-MediumItalic, Poppins;stroke-width:1.62283" />
    <path
       d="m 18.548332,53.626238 q -0.01839,0.130889 -0.01839,0.168243 0,0.196273 0.121506,0.289748 0.121505,0.08416 0.40193,0.08416 h 0.654325 l -0.15892,0.888012 h -0.841275 q -0.616935,0 -0.944097,-0.24301 -0.327163,-0.252394 -0.327163,-0.794538 0,-0.205656 0.03741,-0.392607 l 0.504789,-2.850989 H 17.37086 l 0.149535,-0.869317 h 0.616935 l 0.224365,-1.280607 h 1.074963 l -0.224364,1.280607 h 1.243217 l -0.149535,0.869317 h -1.252565 z"
       id="path606"
       style="font-style:italic;font-weight:500;font-size:5.76px;font-family:Poppins-MediumItalic, Poppins;stroke-width:1.62283" />
    <path
       d="m 24.119443,49.821804 q 0.775842,0 1.243218,0.439345 0.467376,0.429961 0.467376,1.233871 0,0.21498 -0.04661,0.523436 l -0.542143,3.037937 h -1.056268 l 0.514112,-2.87903 q 0.03741,-0.261717 0.03741,-0.3739 0,-0.514112 -0.289747,-0.78519 -0.280425,-0.271103 -0.785191,-0.271103 -0.607587,0 -1.028224,0.3739 -0.411315,0.364577 -0.523437,1.056268 v -0.01839 l -0.514112,2.897726 h -1.065616 l 1.224524,-6.917152 h 1.065615 l -0.420638,2.364917 q 0.327163,-0.327161 0.775843,-0.504788 0.448667,-0.177628 0.944097,-0.177628 z"
       id="path608"
       style="font-style:italic;font-weight:500;font-size:5.76px;font-family:Poppins-MediumItalic, Poppins;stroke-width:1.62283" />
    <path
       d="m 29.737295,49.821804 q 0.962792,0 1.53299,0.542143 0.579557,0.542144 0.579557,1.458211 0,0.21498 -0.04661,0.514112 -0.03741,0.205658 -0.130889,0.50479 h -3.935301 q -0.0093,0.06545 -0.0093,0.196273 0,0.551528 0.336486,0.878665 0.345869,0.327164 0.89736,0.327164 0.869319,0 1.336694,-0.71976 h 1.149743 q -0.355193,0.710411 -1.04692,1.168439 -0.691715,0.448668 -1.598426,0.448668 -0.644976,0 -1.131047,-0.252395 -0.486083,-0.252395 -0.757147,-0.719757 -0.271103,-0.476699 -0.271103,-1.112353 0,-0.271102 0.05582,-0.579558 0.140213,-0.794537 0.570174,-1.392778 0.42996,-0.607588 1.065614,-0.93475 0.644978,-0.327163 1.402128,-0.327163 z m 1.000182,2.252749 q 0.0184,-0.168242 0.0184,-0.24301 0,-0.514114 -0.34587,-0.813234 -0.336486,-0.299132 -0.878667,-0.299132 -0.570172,0 -1.028225,0.364577 -0.458053,0.364577 -0.626284,0.990835 z"
       id="path610"
       style="font-style:italic;font-weight:500;font-size:5.76px;font-family:Poppins-MediumItalic, Poppins;stroke-width:1.62283" />
    <path
       d="m 37.233992,49.382472 -0.345871,1.972323 h 2.243401 l -0.140213,0.822579 h -2.2434 l -0.364577,2.047104 h 2.523825 l -0.149535,0.831928 h -3.589441 l 1.149742,-6.505862 h 3.589441 l -0.149534,0.831928 z"
       id="path612"
       style="font-style:italic;font-weight:500;font-size:5.76px;font-family:Poppins-MediumItalic, Poppins;stroke-width:1.62283" />
    <path
       d="m 45.637396,49.905932 -0.906708,5.150474 h -1.065615 l 0.102797,-0.607587 q -0.308454,0.31784 -0.747799,0.504789 -0.42996,0.177627 -0.888013,0.177627 -0.813233,0 -1.299304,-0.439344 -0.486082,-0.439346 -0.486082,-1.243218 0,-0.214981 0.04661,-0.514113 l 0.53282,-3.028591 h 1.056268 l -0.50479,2.869683 q -0.03741,0.261718 -0.03741,0.3739 0,0.514113 0.280425,0.78519 0.289748,0.271102 0.794538,0.271102 0.58888,0 1.000183,-0.34587 0.411314,-0.355193 0.542143,-1.018877 l 0.514112,-2.935115 z"
       id="path614"
       style="font-style:italic;font-weight:500;font-size:5.76px;font-family:Poppins-MediumItalic, Poppins;stroke-width:1.62283" />
    <path
       d="m 47.946229,50.81264 q 0.31784,-0.467376 0.7478,-0.729105 0.439345,-0.261718 0.972141,-0.261718 l -0.196274,1.103005 h -0.271102 q -0.616934,0 -0.990834,0.308455 -0.373901,0.308456 -0.523435,1.065616 l -0.486083,2.757513 h -1.065617 l 0.906708,-5.150474 h 1.065617 z"
       id="path616"
       style="font-style:italic;font-weight:500;font-size:5.76px;font-family:Poppins-MediumItalic, Poppins;stroke-width:1.62283" />
    <path
       d="m 51.975016,55.140534 q -0.654326,0 -1.149744,-0.271103 -0.495406,-0.271102 -0.775842,-0.766496 -0.271102,-0.495404 -0.271102,-1.131047 0,-0.869318 0.40193,-1.589075 0.411315,-0.719759 1.121701,-1.140396 0.719757,-0.420637 1.598422,-0.420637 0.654326,0 1.15909,0.280424 0.50479,0.271103 0.785191,0.766496 0.289748,0.486082 0.289748,1.131047 0,0.869319 -0.420638,1.589077 -0.420637,0.719757 -1.140396,1.140395 -0.719757,0.411315 -1.598422,0.411315 z m 0.130889,-0.897361 q 0.53282,0 0.97214,-0.299133 0.448668,-0.308454 0.701063,-0.803885 0.252395,-0.504789 0.252395,-1.074962 0,-0.644979 -0.364577,-0.990836 -0.364578,-0.355192 -0.916056,-0.355192 -0.542143,0 -0.97214,0.308455 -0.420638,0.299132 -0.663672,0.813232 -0.233689,0.504791 -0.233689,1.084311 0,0.626282 0.336487,0.972141 0.345869,0.345869 0.888011,0.345869 z"
       id="path618"
       style="font-style:italic;font-weight:500;font-size:5.76px;font-family:Poppins-MediumItalic, Poppins;stroke-width:1.62283" />
    <path
       d="m 57.527438,50.66308 q 0.336486,-0.355193 0.841275,-0.598265 0.514114,-0.243011 1.103005,-0.243011 0.588881,0 1.046921,0.252396 0.458052,0.252394 0.71041,0.719758 0.252395,0.467374 0.252395,1.093656 0,0.271103 -0.05582,0.570174 -0.140212,0.775842 -0.570173,1.392778 -0.420638,0.607588 -1.037573,0.953445 -0.607588,0.336486 -1.280608,0.336486 -0.58888,0 -1.00953,-0.233688 -0.411314,-0.24301 -0.644978,-0.598264 l -0.56085,3.196845 h -1.065614 l 1.336698,-7.599519 h 1.065614 z m 2.813598,1.79472 q 0.03741,-0.177627 0.03741,-0.383223 0,-0.626283 -0.373899,-0.97214 -0.364578,-0.355193 -0.925403,-0.355193 -0.401931,0 -0.803886,0.205658 -0.392606,0.205657 -0.682367,0.598264 -0.289748,0.392607 -0.383223,0.925403 -0.03741,0.177627 -0.03741,0.383223 0,0.626283 0.364577,0.990835 0.3739,0.364577 0.925402,0.364577 0.411315,0 0.803885,-0.205658 0.40193,-0.21498 0.691716,-0.616934 0.289747,-0.401931 0.383223,-0.934751 z"
       id="path620"
       style="font-style:italic;font-weight:500;font-size:5.76px;font-family:Poppins-MediumItalic, Poppins;stroke-width:1.62283" />
    <path
       d="m 65.164336,49.821804 q 0.962792,0 1.53299,0.542143 0.579557,0.542144 0.579557,1.458211 0,0.21498 -0.04662,0.514112 -0.03741,0.205658 -0.130889,0.50479 H 63.16396 q -0.0093,0.06545 -0.0093,0.196273 0,0.551528 0.336485,0.878665 0.34587,0.327164 0.897361,0.327164 0.869316,0 1.336692,-0.71976 h 1.149743 q -0.355194,0.710411 -1.046921,1.168439 -0.691715,0.448668 -1.598423,0.448668 -0.644977,0 -1.131048,-0.252395 -0.486082,-0.252395 -0.757147,-0.719757 -0.271103,-0.476699 -0.271103,-1.112353 0,-0.271102 0.05582,-0.579558 0.140213,-0.794537 0.570174,-1.392778 0.42996,-0.607588 1.065615,-0.93475 0.644977,-0.327163 1.402125,-0.327163 z m 1.000182,2.252749 q 0.01839,-0.168242 0.01839,-0.24301 0,-0.514114 -0.34587,-0.813234 -0.336486,-0.299132 -0.878665,-0.299132 -0.570173,0 -1.028225,0.364577 -0.458052,0.364577 -0.626284,0.990835 z"
       id="path622"
       style="font-style:italic;font-weight:500;font-size:5.76px;font-family:Poppins-MediumItalic, Poppins;stroke-width:1.62283" />
    <path
       d="m 67.893812,52.4578 q 0.140213,-0.775843 0.560851,-1.374082 0.42996,-0.598265 1.04692,-0.925403 0.616935,-0.336486 1.289955,-0.336486 0.607587,0 1.018878,0.243011 0.411314,0.233687 0.616941,0.588879 l 0.13089,-0.747799 h 1.074963 l -0.906709,5.150473 h -1.074968 l 0.140212,-0.766495 q -0.336485,0.364577 -0.850622,0.607588 -0.50479,0.243011 -1.103006,0.243011 -0.579557,0 -1.037572,-0.261719 -0.448669,-0.261717 -0.71041,-0.738452 -0.252395,-0.486082 -0.252395,-1.112353 0,-0.280425 0.05581,-0.570173 z m 4.215724,0.01839 q 0.03741,-0.177627 0.03741,-0.383222 0,-0.626284 -0.3739,-0.981489 -0.364577,-0.364577 -0.916055,-0.364577 -0.411314,0 -0.803886,0.205658 -0.392607,0.196273 -0.682367,0.588881 -0.289748,0.383222 -0.383223,0.916055 -0.03741,0.177627 -0.03741,0.383222 0,0.63563 0.364577,1.009531 0.3739,0.364578 0.925404,0.364578 0.411313,0 0.803884,-0.205658 0.392608,-0.205657 0.682368,-0.598265 0.289747,-0.401931 0.383222,-0.93475 z"
       id="path624"
       style="font-style:italic;font-weight:500;font-size:5.76px;font-family:Poppins-MediumItalic, Poppins;stroke-width:1.62283" />
    <path
       d="m 77.652605,49.821804 q 0.813233,0 1.289955,0.439345 0.486083,0.429961 0.486083,1.243218 0,0.205657 -0.04662,0.514112 l -0.542143,3.03794 h -1.056268 l 0.514114,-2.879031 q 0.03741,-0.261719 0.03741,-0.373901 0,-0.514112 -0.289749,-0.785191 -0.280425,-0.2711 -0.78519,-0.2711 -0.607588,0 -1.028226,0.373899 -0.411313,0.364578 -0.523435,1.056268 v -0.02821 l -0.514112,2.907075 h -1.065607 l 0.906706,-5.150475 h 1.065617 l -0.102797,0.598264 q 0.317838,-0.317839 0.747799,-0.495404 0.439345,-0.18695 0.906708,-0.18695 z"
       id="path626"
       style="font-style:italic;font-weight:500;font-size:5.76px;font-family:Poppins-MediumItalic, Poppins;stroke-width:1.62283" />
    <path
       d="m 90.159558,49.821804 q 0.813232,0 1.299302,0.439345 0.486082,0.439345 0.486082,1.243218 0,0.214981 -0.0466,0.514112 l -0.542144,3.03794 H 90.29993 l 0.514113,-2.879031 q 0.03741,-0.261719 0.03741,-0.373901 0,-0.514112 -0.289747,-0.785191 -0.280425,-0.2711 -0.785191,-0.2711 -0.607587,0 -1.028225,0.373899 -0.411316,0.364578 -0.523435,1.056268 l -0.514114,2.87903 h -1.056268 l 0.514114,-2.87903 q 0.03741,-0.261717 0.03741,-0.3739 0,-0.514112 -0.289748,-0.78519 -0.280426,-0.271103 -0.78519,-0.271103 -0.607589,0 -1.028225,0.3739 -0.411315,0.364577 -0.523437,1.056268 v -0.02821 l -0.514111,2.907073 h -1.065617 l 0.906708,-5.150474 h 1.065615 l -0.102798,0.598265 q 0.308457,-0.317841 0.738454,-0.495406 0.439344,-0.18695 0.906707,-0.18695 0.616936,0 1.056268,0.261718 0.448668,0.261717 0.626283,0.757146 0.308455,-0.467374 0.850623,-0.738451 0.542142,-0.280426 1.112353,-0.280426 z"
       id="path628"
       style="font-style:italic;font-weight:500;font-size:5.76px;font-family:Poppins-MediumItalic, Poppins;stroke-width:1.62283" />
    <path
       d="m 92.814242,52.4578 q 0.140213,-0.775843 0.56085,-1.374082 0.429962,-0.598265 1.046921,-0.925403 0.616935,-0.336486 1.289955,-0.336486 0.607588,0 1.018878,0.243011 0.411315,0.233687 0.616936,0.588879 l 0.130889,-0.747799 h 1.074961 l -0.906706,5.150473 h -1.074963 l 0.140212,-0.766495 q -0.336486,0.364577 -0.850622,0.607588 -0.504791,0.243011 -1.103005,0.243011 -0.579558,0 -1.037574,-0.261719 -0.448667,-0.261717 -0.71041,-0.738452 -0.252395,-0.486082 -0.252395,-1.112353 0,-0.280425 0.05582,-0.570173 z m 4.215724,0.01839 q 0.03741,-0.177627 0.03741,-0.383222 0,-0.626284 -0.373899,-0.981489 -0.364578,-0.364577 -0.916056,-0.364577 -0.411315,0 -0.803885,0.205658 -0.392608,0.196273 -0.682369,0.588881 -0.289747,0.383222 -0.383223,0.916055 -0.03741,0.177627 -0.03741,0.383222 0,0.63563 0.364577,1.009531 0.373901,0.364578 0.925403,0.364578 0.411315,0 0.803886,-0.205658 0.392607,-0.205657 0.682367,-0.598265 0.289748,-0.401931 0.383223,-0.93475 z"
       id="path630"
       style="font-style:italic;font-weight:500;font-size:5.76px;font-family:Poppins-MediumItalic, Poppins;stroke-width:1.62283" />
    <path
       d="m 100.86244,50.81264 q 0.31784,-0.467376 0.7478,-0.729105 0.43935,-0.261718 0.97215,-0.261718 l -0.19628,1.103005 h -0.2711 q -0.61694,0 -0.99084,0.308455 -0.3739,0.308456 -0.52343,1.065616 l -0.48609,2.757513 h -1.065613 l 0.906699,-5.150474 h 1.065624 z"
       id="path632"
       style="font-style:italic;font-weight:500;font-size:5.76px;font-family:Poppins-MediumItalic, Poppins;stroke-width:1.62283" />
    <path
       d="m 105.12491,52.485843 1.92559,2.570563 h -1.43951 l -1.5143,-2.215358 -0.39261,2.215358 h -1.06561 l 1.22452,-6.917152 h 1.06561 l -0.71041,4.010078 2.2621,-2.2434 h 1.47691 z"
       id="path634"
       style="font-style:italic;font-weight:500;font-size:5.76px;font-family:Poppins-MediumItalic, Poppins;stroke-width:1.62283" />
    <path
       d="m 110.95776,49.821804 q 0.96279,0 1.53299,0.542143 0.57956,0.542144 0.57956,1.458211 0,0.21498 -0.0466,0.514112 -0.0373,0.205658 -0.1309,0.50479 h -3.93529 q -0.009,0.06545 -0.009,0.196273 0,0.551528 0.33649,0.878665 0.34587,0.327164 0.89736,0.327164 0.86932,0 1.33669,-0.71976 h 1.14974 q -0.35519,0.710411 -1.04692,1.168439 -0.69171,0.448668 -1.59842,0.448668 -0.64497,0 -1.13106,-0.252395 -0.48607,-0.252395 -0.75714,-0.719757 -0.27111,-0.476699 -0.27111,-1.112353 0,-0.271102 0.0558,-0.579558 0.14021,-0.794537 0.57017,-1.392778 0.42997,-0.607588 1.06563,-0.93475 0.64497,-0.327163 1.40212,-0.327163 z m 1.00019,2.252749 q 0.0184,-0.168242 0.0184,-0.24301 0,-0.514114 -0.34587,-0.813234 -0.33648,-0.299132 -0.87865,-0.299132 -0.57017,0 -1.02824,0.364577 -0.45805,0.364577 -0.62628,0.990835 z"
       id="path636"
       style="font-style:italic;font-weight:500;font-size:5.76px;font-family:Poppins-MediumItalic, Poppins;stroke-width:1.62283" />
    <path
       d="m 115.08001,53.626238 q -0.0184,0.130889 -0.0184,0.168243 0,0.196273 0.1215,0.289748 0.1215,0.08416 0.40192,0.08416 h 0.65433 l -0.15891,0.888012 h -0.84128 q -0.61694,0 -0.9441,-0.24301 -0.32717,-0.252394 -0.32717,-0.794538 0,-0.205656 0.0374,-0.392607 l 0.50479,-2.850989 h -0.60759 l 0.14954,-0.869317 h 0.61693 l 0.22437,-1.280607 h 1.07496 l -0.22436,1.280607 h 1.24322 l -0.14954,0.869317 h -1.25256 z"
       id="path638"
       style="font-style:italic;font-weight:500;font-size:5.76px;font-family:Poppins-MediumItalic, Poppins;stroke-width:1.62283" />
    <path
       d="m 119.54812,48.559892 -0.9254,4.533538 h -0.88802 l 0.68237,-4.533538 z m -1.6919,6.561946 q -0.2524,0 -0.41132,-0.158919 -0.15891,-0.158921 -0.15891,-0.401932 0,-0.327161 0.243,-0.560849 0.25239,-0.243011 0.57017,-0.243011 0.25239,0 0.40193,0.158921 0.15893,0.158919 0.15893,0.40193 0,0.327162 -0.24301,0.570173 -0.24302,0.233687 -0.56085,0.233687 z"
       id="path640"
       style="font-style:italic;font-weight:500;font-size:5.76px;font-family:Poppins-MediumItalic, Poppins;stroke-width:1.62283" />
  </g>
</svg>
