<?xml version="1.0" encoding="UTF-8"?>
<svg id="Warstwa_2" data-name="Warstwa 2" xmlns="http://www.w3.org/2000/svg" xmlns:xlink="http://www.w3.org/1999/xlink" viewBox="0 0 397.92 332.1">
  <defs>
    <style>
      .cls-1 {
        fill: #fff;
        stroke: #fdd200;
        stroke-width: 14px;
      }

      .cls-1, .cls-2, .cls-3, .cls-4, .cls-5, .cls-6 {
        stroke-miterlimit: 10;
      }

      .cls-7 {
        clip-path: url(#clippath-20);
      }

      .cls-8 {
        clip-path: url(#clippath-11);
      }

      .cls-2 {
        stroke-width: 1.65px;
      }

      .cls-2, .cls-3, .cls-9, .cls-4, .cls-5, .cls-6 {
        fill: none;
      }

      .cls-2, .cls-4, .cls-5, .cls-6 {
        stroke: #000;
      }

      .cls-2, .cls-5 {
        stroke-linecap: round;
      }

      .cls-10 {
        clip-path: url(#clippath-16);
      }

      .cls-11 {
        fill: #000;
      }

      .cls-11, .cls-9, .cls-12, .cls-13 {
        stroke-width: 0px;
      }

      .cls-14 {
        clip-path: url(#clippath-2);
      }

      .cls-15 {
        clip-path: url(#clippath-13);
      }

      .cls-16, .cls-17 {
        isolation: isolate;
      }

      .cls-18 {
        clip-path: url(#clippath-25);
      }

      .cls-19 {
        clip-path: url(#clippath-15);
      }

      .cls-20 {
        clip-path: url(#clippath-6);
      }

      .cls-21 {
        clip-path: url(#clippath-26);
      }

      .cls-3 {
        stroke: #fff;
        stroke-width: 2.7px;
      }

      .cls-22 {
        clip-path: url(#clippath-7);
      }

      .cls-23 {
        clip-path: url(#clippath-21);
      }

      .cls-24 {
        clip-path: url(#clippath-1);
      }

      .cls-25 {
        clip-path: url(#clippath-4);
      }

      .cls-26 {
        clip-path: url(#clippath-27);
      }

      .cls-4 {
        stroke-width: .44px;
      }

      .cls-5 {
        stroke-width: 3.8px;
      }

      .cls-12 {
        fill: #fed302;
      }

      .cls-27 {
        clip-path: url(#clippath-12);
      }

      .cls-17 {
        opacity: .78;
      }

      .cls-28 {
        clip-path: url(#clippath-24);
      }

      .cls-29 {
        clip-path: url(#clippath-22);
      }

      .cls-30 {
        clip-path: url(#clippath-9);
      }

      .cls-31 {
        clip-path: url(#clippath);
      }

      .cls-13 {
        fill: #cb1517;
      }

      .cls-32 {
        clip-path: url(#clippath-19);
      }

      .cls-33 {
        clip-path: url(#clippath-3);
      }

      .cls-34 {
        clip-path: url(#clippath-8);
      }

      .cls-35 {
        clip-path: url(#clippath-18);
      }

      .cls-36 {
        clip-path: url(#clippath-14);
      }

      .cls-37 {
        clip-path: url(#clippath-17);
      }

      .cls-38 {
        clip-path: url(#clippath-5);
      }

      .cls-39 {
        clip-path: url(#clippath-10);
      }

      .cls-40 {
        clip-path: url(#clippath-23);
      }

      .cls-41 {
        clip-path: url(#clippath-28);
      }

      .cls-6 {
        stroke-width: .19px;
      }
    </style>
    <clipPath id="clippath">
      <path class="cls-9" d="M21.84,100.01c1.8.6,3,.1,3.8-.4,2.4-1.6,2.9-5.4,3-5.8l1.4-11.5c1.6-1.4,9-7.6,14.5-7.6.3,0,.6-.1.9-.2v.1l.3-.1v-.1c.2-.1.4-.1.7-.2v.1l.4-.2v-.1c.2-.1.4-.2.6-.3v.1l.5-.2v-.1c.4-.2.8-.4,1.2-.7l.1.1v-.1c.3-.2.7-.4,1-.6v.1l.3-.2v-.1c.4-.2.7-.5,1.1-.7h0l.3-.2h0c.5-.3,1-.7,1.5-1h0c.1-.1.2-.1.3-.2h0c.4-.3.8-.6,1.2-.9h0l.7-.5h0c.4-.3.7-.5,1.1-.8h0l.6-.5h0c.3-.2.6-.5.9-.7h0l.8-.6h0c.3-.2.6-.5,1-.7h0l.8-.7h0c.3-.2.6-.5.9-.8h0l.9-.7h0c.3-.3.6-.5,1-.8h0l.4-.4c11.4-9.3,23.6-20.6,25.8-22.6l22.8-17.1,18.2-4.4,18.2,1.4,1.8.5-.4,1.6-4.5,6-.8,7.8.7.4c.2.1,5.4,3,8.5,3.8s9.7.7,18.1.7c1,0,1.7,0,2.2.1l-3.4,1.5,4,.6c.2,0,4.6.7,6.9.7,2.5,0,7.7-5.5,9.9-8,.1-.1.8-1.2,1.8-2.7l6.4,3.2,65-5.7,22.8-6c.4-.1,9.3-2.8,14.7-6.2,3.9,1.2,10.1,3.3,13.3,4.4.1.4.3.9.5,1.5q0,.1.1.2c.2.6.5,1.3.8,2,.1.1.1.2.2.4.3.7.6,1.5,1,2.3.1.1.1.3.2.4.4.8.8,1.6,1.2,2.4,0,0,0,.1.1.1l-3.3,5.6,11.3,20.9,13.4,13.9,7.2,24.2c-15.7,11.9-15.7,13.3-15.6,13.9,0,1-.9,6.8-1.4,10.2l-.1.4.2.3c.8,1.6,2.9,5.5,4.7,6,1.3.4,5.4.8,7.3,1l4.5,23,6.8,3.7,4.4,15.1,14.3,18c2.6,10.3,6.7,26.9,6.7,28.5,0,1.2-1.9,4.5-3.3,6.6l-11.7,7.4-13.7,21.3-6,21.2v13.3l7.6,11.3,3.1,6.1-9.6,2.6-.4.1h0l-8,1.3-15.1-15-16.6,4.2-40.2,4.8h-.4l-12.6,13.4h-6.6l-2.6-9.7-15.6-8.8-6.9,12.5-8.2-.6-6.8-7.5h0l-4.8-5.2-2.2-10.6-7.5-.7-9-1.3-7.6,2.1c-1.4.4-2.4.7-3,.8-.6-.6-1.9-1.2-6-1.5-4-.3-4.4-1.2-4.4-1.3-.2-.5.5-1.5,1.1-1.9l.5-.5-1.7-7.4-8.4-2.3-4.9,1.9-5.8-7-8.6-2.1-10.5.9,8.1,9.5s1.2,2.5,1.2,6.8c0,.9-.3,1.2-.4,1.3-.8.8-3,.8-4.7.7-1.2,0-2.4,0-3.3.2-1,.3-3.3-2.6-4.7-5.4l-.3-.4c-.1-.1-10.7-8.7-13.4-11.3-.2-.2-.2-.3-.2-.4h0v-.1c.1-.5.8-1.1,1.7-1.8,0,0,.1,0,.1-.1,1-.7,2.2-1.3,3.3-1.8l.7-.3v-5.2l-38.6-2.6-4.8-10.8-9.8.9-.6,4.5-3.7-.4,4.5-28.8-4.4-5.1-9.1-9.7c-.1-2.5-.8-12.7-1.4-14.6-.5-1.6-2.1-9.6-2.7-12.6l-3.5-20.7-9.8-5.6-10.9-7v-5.6l8.7-9.4.7-9.5-8.2-12.8-.8-7.8c1.1.7,2.7,1.3,4,1.7Z"/>
    </clipPath>
    <clipPath id="clippath-1">
      <rect class="cls-9" x="121.34" y="138.91" width="98.1" height="91.5"/>
    </clipPath>
    <clipPath id="clippath-2">
      <rect class="cls-9" x="121.34" y="138.91" width="98.1" height="91.5"/>
    </clipPath>
    <clipPath id="clippath-3">
      <rect class="cls-9" x="121.34" y="138.91" width="98.1" height="91.5"/>
    </clipPath>
    <clipPath id="clippath-4">
      <rect class="cls-9" x="121.34" y="138.91" width="98.1" height="91.5"/>
    </clipPath>
    <clipPath id="clippath-5">
      <rect class="cls-9" x="121.34" y="138.91" width="98.1" height="91.5"/>
    </clipPath>
    <clipPath id="clippath-6">
      <rect class="cls-9" x="121.34" y="138.91" width="98.1" height="91.5"/>
    </clipPath>
    <clipPath id="clippath-7">
      <path class="cls-9" d="M188.24,144.71l-62.9,51.4c-.9.7-1,2.1-.2,3.1l18.1,22.3c.8,1,2.2,1.1,3.1.4l62.9-51.4c.9-.7,1-2.1.2-3.1l-18.1-22.3c-.4-.5-1.1-.8-1.7-.9h-.1c-.4.1-.9.2-1.3.5"/>
    </clipPath>
    <clipPath id="clippath-8">
      <rect class="cls-9" x="114.33" y="138.79" width="100.1" height="67" transform="translate(-71.65 140.71) rotate(-38.72)"/>
    </clipPath>
    <clipPath id="clippath-9">
      <rect class="cls-9" x="121.34" y="138.91" width="98.1" height="91.5"/>
    </clipPath>
    <clipPath id="clippath-10">
      <rect class="cls-9" x="121.34" y="138.91" width="98.1" height="91.5"/>
    </clipPath>
    <clipPath id="clippath-11">
      <rect class="cls-9" x="121.34" y="138.91" width="98.1" height="91.5"/>
    </clipPath>
    <clipPath id="clippath-12">
      <rect class="cls-9" x="121.34" y="138.91" width="98.1" height="91.5"/>
    </clipPath>
    <clipPath id="clippath-13">
      <rect class="cls-9" x="121.34" y="138.91" width="98.1" height="91.5"/>
    </clipPath>
    <clipPath id="clippath-14">
      <rect class="cls-9" x="121.34" y="138.91" width="98.1" height="91.5"/>
    </clipPath>
    <clipPath id="clippath-15">
      <rect class="cls-9" x="205.54" y="59.01" width="42.7" height="39.8"/>
    </clipPath>
    <clipPath id="clippath-16">
      <rect class="cls-9" x="205.54" y="59.01" width="42.7" height="39.8"/>
    </clipPath>
    <clipPath id="clippath-17">
      <rect class="cls-9" x="205.54" y="59.01" width="42.7" height="39.8"/>
    </clipPath>
    <clipPath id="clippath-18">
      <rect class="cls-9" x="205.54" y="59.01" width="42.7" height="39.8"/>
    </clipPath>
    <clipPath id="clippath-19">
      <rect class="cls-9" x="205.54" y="59.01" width="42.7" height="39.8"/>
    </clipPath>
    <clipPath id="clippath-20">
      <rect class="cls-9" x="205.54" y="59.01" width="42.7" height="39.8"/>
    </clipPath>
    <clipPath id="clippath-21">
      <path class="cls-9" d="M234.64,61.61l-27.4,22.4c-.4.3-.4.9-.1,1.3l7.9,9.7c.3.4.9.5,1.3.2l27.4-22.4c.4-.3.4-.9.1-1.3l-7.9-9.7c-.2-.2-.5-.4-.7-.4h0c-.2,0-.4,0-.6.2"/>
    </clipPath>
    <clipPath id="clippath-22">
      <rect class="cls-9" x="202.57" y="58.96" width="43.6" height="29.2" transform="translate(3.3 156.53) rotate(-38.72)"/>
    </clipPath>
    <clipPath id="clippath-23">
      <rect class="cls-9" x="205.54" y="59.01" width="42.7" height="39.8"/>
    </clipPath>
    <clipPath id="clippath-24">
      <rect class="cls-9" x="205.54" y="59.01" width="42.7" height="39.8"/>
    </clipPath>
    <clipPath id="clippath-25">
      <rect class="cls-9" x="205.54" y="59.01" width="42.7" height="39.8"/>
    </clipPath>
    <clipPath id="clippath-26">
      <rect class="cls-9" x="205.54" y="59.01" width="42.7" height="39.8"/>
    </clipPath>
    <clipPath id="clippath-27">
      <rect class="cls-9" x="205.54" y="59.01" width="42.7" height="39.8"/>
    </clipPath>
    <clipPath id="clippath-28">
      <rect class="cls-9" x="205.54" y="59.01" width="42.7" height="39.8"/>
    </clipPath>
  </defs>
  <g id="Warstwa_1-2" data-name="Warstwa 1">
    <g>
      <g>
        <image class="cls-17" width="399" height="333" transform="" xlink:href="../wzorpodstona-kontakt-ofirmie/675335FA78198B0D.png"/>
        <g>
          <path id="SVGID" class="cls-11" d="M21.84,100.01c1.8.6,3,.1,3.8-.4,2.4-1.6,2.9-5.4,3-5.8l1.4-11.5c1.6-1.4,9-7.6,14.5-7.6.3,0,.6-.1.9-.2v.1l.3-.1v-.1c.2-.1.4-.1.7-.2v.1l.4-.2v-.1c.2-.1.4-.2.6-.3v.1l.5-.2v-.1c.4-.2.8-.4,1.2-.7l.1.1v-.1c.3-.2.7-.4,1-.6v.1l.3-.2v-.1c.4-.2.7-.5,1.1-.7h0l.3-.2h0c.5-.3,1-.7,1.5-1h0c.1-.1.2-.1.3-.2h0c.4-.3.8-.6,1.2-.9h0l.7-.5h0c.4-.3.7-.5,1.1-.8h0l.6-.5h0c.3-.2.6-.5.9-.7h0l.8-.6h0c.3-.2.6-.5,1-.7h0l.8-.7h0c.3-.2.6-.5.9-.8h0l.9-.7h0c.3-.3.6-.5,1-.8h0l.4-.4c11.4-9.3,23.6-20.6,25.8-22.6l22.8-17.1,18.2-4.4,18.2,1.4,1.8.5-.4,1.6-4.5,6-.8,7.8.7.4c.2.1,5.4,3,8.5,3.8s9.7.7,18.1.7c1,0,1.7,0,2.2.1l-3.4,1.5,4,.6c.2,0,4.6.7,6.9.7,2.5,0,7.7-5.5,9.9-8,.1-.1.8-1.2,1.8-2.7l6.4,3.2,65-5.7,22.8-6c.4-.1,9.3-2.8,14.7-6.2,3.9,1.2,10.1,3.3,13.3,4.4.1.4.3.9.5,1.5q0,.1.1.2c.2.6.5,1.3.8,2,.1.1.1.2.2.4.3.7.6,1.5,1,2.3.1.1.1.3.2.4.4.8.8,1.6,1.2,2.4,0,0,0,.1.1.1l-3.3,5.6,11.3,20.9,13.4,13.9,7.2,24.2c-15.7,11.9-15.7,13.3-15.6,13.9,0,1-.9,6.8-1.4,10.2l-.1.4.2.3c.8,1.6,2.9,5.5,4.7,6,1.3.4,5.4.8,7.3,1l4.5,23,6.8,3.7,4.4,15.1,14.3,18c2.6,10.3,6.7,26.9,6.7,28.5,0,1.2-1.9,4.5-3.3,6.6l-11.7,7.4-13.7,21.3-6,21.2v13.3l7.6,11.3,3.1,6.1-9.6,2.6-.4.1h0l-8,1.3-15.1-15-16.6,4.2-40.2,4.8h-.4l-12.6,13.4h-6.6l-2.6-9.7-15.6-8.8-6.9,12.5-8.2-.6-6.8-7.5h0l-4.8-5.2-2.2-10.6-7.5-.7-9-1.3-7.6,2.1c-1.4.4-2.4.7-3,.8-.6-.6-1.9-1.2-6-1.5-4-.3-4.4-1.2-4.4-1.3-.2-.5.5-1.5,1.1-1.9l.5-.5-1.7-7.4-8.4-2.3-4.9,1.9-5.8-7-8.6-2.1-10.5.9,8.1,9.5s1.2,2.5,1.2,6.8c0,.9-.3,1.2-.4,1.3-.8.8-3,.8-4.7.7-1.2,0-2.4,0-3.3.2-1,.3-3.3-2.6-4.7-5.4l-.3-.4c-.1-.1-10.7-8.7-13.4-11.3-.2-.2-.2-.3-.2-.4h0v-.1c.1-.5.8-1.1,1.7-1.8,0,0,.1,0,.1-.1,1-.7,2.2-1.3,3.3-1.8l.7-.3v-5.2l-38.6-2.6-4.8-10.8-9.8.9-.6,4.5-3.7-.4,4.5-28.8-4.4-5.1-9.1-9.7c-.1-2.5-.8-12.7-1.4-14.6-.5-1.6-2.1-9.6-2.7-12.6l-3.5-20.7-9.8-5.6-10.9-7v-5.6l8.7-9.4.7-9.5-8.2-12.8-.8-7.8c1.1.7,2.7,1.3,4,1.7Z"/>
          <g class="cls-31">
            <path class="cls-1" d="M193.54,30.51c-.3.2-.4.7-1.9,2.8-.3.5-.6.8-.7,1.1,0,0-6.7,7.5-8.9,7.5s-6.7-.7-6.7-.7c0,0,5.2-2.3-3-2.2-8.2,0-14.9,0-17.9-.7s-8.2-3.7-8.2-3.7l.7-6.7,4.4-6,.7-3-3-.7-18.6-1.4-18.6,4.5-23,17.2s-37.8,35.1-44.5,35.1-15.6,8.2-15.6,8.2l-1.4,11.9s-.7,6.7-5.2,5.2c-1.8-.6-4.1-1.4-6.3-2.2l1,9.9,8.1,12.7-.6,8.7-8.7,9.4v6.7l11.4,7.3,9.4,5.3,3.4,20.1s2,10.7,2.7,12.7,1.4,14.8,1.4,14.8l9.4,10,4,4.7-4.6,29.5,6,.7.7-4.7,8-.7,4.7,10.7,38.2,2.6v3.4s-8,3.4-5.3,6.1,13.5,11.4,13.5,11.4c0,0,3.4,6.7,6.1,6,2.7-.7,9.4,1.3,9.4-3.4s-1.4-7.4-1.4-7.4l-6.7-8,8-.7,8.1,2,6.1,7.4,5.4-2,7.4,2,1.4,6s-5.4,4.7,4,5.4c9.4.6,2,2.7,9.4.6l7.4-2,8.7,1.3,6.7.6,2,10.1,12.1,13.4,9.4.6,6.7-12.1,14.1,8,2.7,10.1h8.1l12.7-13.5,40.2-4.8,16.1-4.1,15,14.9,9-1.4,11.2-3-3.7-7.4-7.5-11.1v-12.7l5.9-20.9,13.3-20.9,11.9-7.5s3.7-5.2,3.7-7.5-6.8-29-6.8-29l-14.2-17.8-4.5-15.6-6.7-3.7-4.5-23.3s-6.5-.5-7.9-1c-1.5-.5-4-5.4-4-5.4,0,0,1.5-8.9,1.5-10.4s15.8-13.5,15.8-13.5l-7.5-25.3-13.4-13.8-11-20.3,3-5,.7-.1c-2.7-4.4-4.7-10.8-4.7-10.8-4.9-1.6-9.8-3.2-14.6-4.8-1.6.9-4,2.2-7.1,3.5-3.1,1.4-6.7,2.7-17.6,5.5-3.2.8-7.4,1.9-12.4,3.1-21.6,2-43.1,4-64.7,6-4.8-4-6.6-4.3-7.3-3.8Z"/>
          </g>
          <path id="SVGID-2" data-name="SVGID" class="cls-3" d="M21.84,100.01c1.8.6,3,.1,3.8-.4,2.4-1.6,2.9-5.4,3-5.8l1.4-11.5c1.6-1.4,9-7.6,14.5-7.6.3,0,.6-.1.9-.2v.1l.3-.1v-.1c.2-.1.4-.1.7-.2v.1l.4-.2v-.1c.2-.1.4-.2.6-.3v.1l.5-.2v-.1c.4-.2.8-.4,1.2-.7l.1.1v-.1c.3-.2.7-.4,1-.6v.1l.3-.2v-.1c.4-.2.7-.5,1.1-.7h0l.3-.2h0c.5-.3,1-.7,1.5-1h0c.1-.1.2-.1.3-.2h0c.4-.3.8-.6,1.2-.9h0l.7-.5h0c.4-.3.7-.5,1.1-.8h0l.6-.5h0c.3-.2.6-.5.9-.7h0l.8-.6h0c.3-.2.6-.5,1-.7h0l.8-.7h0c.3-.2.6-.5.9-.8h0l.9-.7h0c.3-.3.6-.5,1-.8h0l.4-.4c11.4-9.3,23.6-20.6,25.8-22.6l22.8-17.1,18.2-4.4,18.2,1.4,1.8.5-.4,1.6-4.5,6-.8,7.8.7.4c.2.1,5.4,3,8.5,3.8s9.7.7,18.1.7c1,0,1.7,0,2.2.1l-3.4,1.5,4,.6c.2,0,4.6.7,6.9.7,2.5,0,7.7-5.5,9.9-8,.1-.1.8-1.2,1.8-2.7l6.4,3.2,65-5.7,22.8-6c.4-.1,9.3-2.8,14.7-6.2,3.9,1.2,10.1,3.3,13.3,4.4.1.4.3.9.5,1.5q0,.1.1.2c.2.6.5,1.3.8,2,.1.1.1.2.2.4.3.7.6,1.5,1,2.3.1.1.1.3.2.4.4.8.8,1.6,1.2,2.4,0,0,0,.1.1.1l-3.3,5.6,11.3,20.9,13.4,13.9,7.2,24.2c-15.7,11.9-15.7,13.3-15.6,13.9,0,1-.9,6.8-1.4,10.2l-.1.4.2.3c.8,1.6,2.9,5.5,4.7,6,1.3.4,5.4.8,7.3,1l4.5,23,6.8,3.7,4.4,15.1,14.3,18c2.6,10.3,6.7,26.9,6.7,28.5,0,1.2-1.9,4.5-3.3,6.6l-11.7,7.4-13.7,21.3-6,21.2v13.3l7.6,11.3,3.1,6.1-9.6,2.6-.4.1h0l-8,1.3-15.1-15-16.6,4.2-40.2,4.8h-.4l-12.6,13.4h-6.6l-2.6-9.7-15.6-8.8-6.9,12.5-8.2-.6-6.8-7.5h0l-4.8-5.2-2.2-10.6-7.5-.7-9-1.3-7.6,2.1c-1.4.4-2.4.7-3,.8-.6-.6-1.9-1.2-6-1.5-4-.3-4.4-1.2-4.4-1.3-.2-.5.5-1.5,1.1-1.9l.5-.5-1.7-7.4-8.4-2.3-4.9,1.9-5.8-7-8.6-2.1-10.5.9,8.1,9.5s1.2,2.5,1.2,6.8c0,.9-.3,1.2-.4,1.3-.8.8-3,.8-4.7.7-1.2,0-2.4,0-3.3.2-1,.3-3.3-2.6-4.7-5.4l-.3-.4c-.1-.1-10.7-8.7-13.4-11.3-.2-.2-.2-.3-.2-.4h0v-.1c.1-.5.8-1.1,1.7-1.8,0,0,.1,0,.1-.1,1-.7,2.2-1.3,3.3-1.8l.7-.3v-5.2l-38.6-2.6-4.8-10.8-9.8.9-.6,4.5-3.7-.4,4.5-28.8-4.4-5.1-9.1-9.7c-.1-2.5-.8-12.7-1.4-14.6-.5-1.6-2.1-9.6-2.7-12.6l-3.5-20.7-9.8-5.6-10.9-7v-5.6l8.7-9.4.7-9.5-8.2-12.8-.8-7.8c1.1.7,2.7,1.3,4,1.7Z"/>
        </g>
      </g>
      <g id="Logo">
        <g>
          <g class="cls-24">
            <g>
              <g class="cls-14">
                <path class="cls-13" d="M189.54,201.01l-31.4,25.5c-2.4,2-6,1.6-7.9-.8l-3.3-4.1c-.7-.8-.5-2,.3-2.6l34.3-27.9c.8-.7,2-.5,2.6.3l5.7,7c.7.8.6,2-.3,2.6"/>
              </g>
              <g class="cls-33">
                <path class="cls-4" d="M189.54,201.01l-31.4,25.5c-2.4,2-6,1.6-7.9-.8l-3.3-4.1c-.7-.8-.5-2,.3-2.6l34.3-27.9c.8-.7,2-.5,2.6.3l5.7,7c.7.8.6,2-.3,2.6"/>
              </g>
              <g class="cls-25">
                <path class="cls-12" d="M155.34,177.31l-25.5,20.7-6.9-8.5v-1.4c.1-.5.1-.9.2-1.2l22.6-18.4c.8-.6,2-.5,2.6.3l7,8.5Z"/>
              </g>
              <g class="cls-38">
                <path class="cls-4" d="M155.34,177.31l-25.5,20.7-6.9-8.5v-1.4c.1-.5.1-.9.2-1.2l22.6-18.4c.8-.6,2-.5,2.6.3l7,8.5Z"/>
              </g>
            </g>
          </g>
          <g class="cls-20">
            <g class="cls-22">
              <g class="cls-34">
                <image class="cls-16" width="2000" height="1339" transform="translate(104.31 177.51) rotate(-38.72) scale(.05)" xlink:href="../wzorpodstona-kontakt-ofirmie/675335FA78198B0F.jpg"/>
              </g>
            </g>
          </g>
          <g class="cls-30">
            <g class="cls-39">
              <path class="cls-4" d="M188.24,144.71l-62.9,51.4c-.9.7-1,2.1-.2,3.1l18.1,22.3c.8,1,2.2,1.1,3.1.4l62.9-51.4c.9-.7,1-2.1.2-3.1l-18.1-22.3c-.4-.5-1.1-.8-1.7-.9-.5.1-1,.2-1.4.5"/>
            </g>
          </g>
          <g class="cls-8">
            <g class="cls-27">
              <path class="cls-5" d="M211.04,184.91c0,24-19.4,43.4-43.4,43.4s-43.4-19.4-43.4-43.4,19.4-43.4,43.4-43.4c4.7,0,9.2.7,13.4,2.1"/>
            </g>
          </g>
          <g class="cls-15">
            <g class="cls-36">
              <path class="cls-11" d="M216.04,187.31h-10c-.7,0-1.2-.8-.8-1.4l5-8.7c.4-.6,1.3-.6,1.7,0l5,8.7c.3.6-.2,1.4-.9,1.4"/>
            </g>
          </g>
        </g>
      </g>
      <g id="Logo-2" data-name="Logo">
        <g>
          <g class="cls-19">
            <g>
              <g class="cls-10">
                <path class="cls-13" d="M235.24,86.11l-13.6,11.1c-1.1.9-2.6.7-3.5-.4l-1.4-1.8c-.3-.4-.2-.9.1-1.2l14.9-12.1c.4-.3.9-.2,1.2.1l2.5,3c.2.5.2,1-.2,1.3"/>
              </g>
              <g class="cls-37">
                <path class="cls-6" d="M235.24,86.11l-13.6,11.1c-1.1.9-2.6.7-3.5-.4l-1.4-1.8c-.3-.4-.2-.9.1-1.2l14.9-12.1c.4-.3.9-.2,1.2.1l2.5,3c.2.5.2,1-.2,1.3"/>
              </g>
              <g class="cls-35">
                <path class="cls-12" d="M220.34,75.71l-11.1,9-3-3.7v-.6c0-.2.1-.4.1-.5l9.8-8c.3-.3.9-.2,1.1.1l3.1,3.7Z"/>
              </g>
              <g class="cls-32">
                <path class="cls-6" d="M220.34,75.71l-11.1,9-3-3.7v-.6c0-.2.1-.4.1-.5l9.8-8c.3-.3.9-.2,1.1.1l3.1,3.7Z"/>
              </g>
            </g>
          </g>
          <g class="cls-7">
            <g class="cls-23">
              <g class="cls-29">
                <image class="cls-16" width="2000" height="1339" transform="translate(198.14 75.83) rotate(-38.72) scale(.02)" xlink:href="../wzorpodstona-kontakt-ofirmie/675335FA78198B0D.jpg"/>
              </g>
            </g>
          </g>
          <g class="cls-40">
            <g class="cls-28">
              <path class="cls-6" d="M234.64,61.61l-27.4,22.4c-.4.3-.4.9-.1,1.3l7.9,9.7c.3.4.9.5,1.3.2l27.4-22.4c.4-.3.4-.9.1-1.3l-7.9-9.7c-.2-.2-.5-.4-.7-.4-.2,0-.4,0-.6.2"/>
            </g>
          </g>
          <g class="cls-18">
            <g class="cls-21">
              <path class="cls-2" d="M244.54,79.01c0,10.4-8.5,18.9-18.9,18.9s-18.9-8.5-18.9-18.9,8.5-18.9,18.9-18.9c2,0,4,.3,5.8.9"/>
            </g>
          </g>
          <g class="cls-26">
            <g class="cls-41">
              <path class="cls-11" d="M246.74,80.11h-4.4c-.3,0-.5-.3-.4-.6l2.2-3.8c.2-.3.6-.3.7,0l2.2,3.8c.2.2,0,.6-.3.6"/>
            </g>
          </g>
        </g>
      </g>
    </g>
  </g>
</svg>