<?xml version="1.0" encoding="UTF-8" standalone="no"?>
<svg
   id="Warstwa_2"
   viewBox="0 0 599 599"
   version="1.1"
   sodipodi:docname="hero-circle-uslugi-en.svg"
   inkscape:version="1.2.2 (732a01da63, 2022-12-09)"
   xmlns:inkscape="http://www.inkscape.org/namespaces/inkscape"
   xmlns:sodipodi="http://sodipodi.sourceforge.net/DTD/sodipodi-0.dtd"
   xmlns="http://www.w3.org/2000/svg"
   xmlns:svg="http://www.w3.org/2000/svg">
  <sodipodi:namedview
     id="namedview838"
     pagecolor="#ffffff"
     bordercolor="#000000"
     borderopacity="0.25"
     inkscape:showpageshadow="2"
     inkscape:pageopacity="0.0"
     inkscape:pagecheckerboard="0"
     inkscape:deskcolor="#d1d1d1"
     showgrid="false"
     inkscape:zoom="1.114372"
     inkscape:cx="299.72039"
     inkscape:cy="299.72039"
     inkscape:window-width="1680"
     inkscape:window-height="987"
     inkscape:window-x="-8"
     inkscape:window-y="-8"
     inkscape:window-maximized="1"
     inkscape:current-layer="text646" />
  <defs
     id="defs618">
    <style
       id="style605">.cls-1,.cls-2{stroke-width:13px;}.cls-1,.cls-2,.cls-3{stroke-miterlimit:10;}.cls-1,.cls-4{fill:#fff;}.cls-1,.cls-3{stroke:#ca151a;}.cls-5{font-size:31.68px;}.cls-5,.cls-6{font-family:Poppins-Bold, Poppins;font-weight:700;}.cls-7,.cls-8{fill:#ca151a;}.cls-7,.cls-9{font-family:Poppins-Medium, Poppins;font-size:17.03px;font-weight:500;}.cls-10{fill:#fdd203;}.cls-10,.cls-11,.cls-4{stroke-width:0px;}.cls-2{stroke:#fdd203;}.cls-2,.cls-3{fill:none;}.cls-12,.cls-9,.cls-6{fill:#010000;}.cls-11{fill:#000;}.cls-6{font-size:21.61px;}.cls-3{filter:url(#drop-shadow-1);stroke-width:13.81px;}</style>
    <filter
       id="drop-shadow-1"
       filterUnits="userSpaceOnUse">
      <feOffset
         dx="0"
         dy="0"
         id="feOffset607" />
      <feGaussianBlur
         result="blur"
         stdDeviation="19.84"
         id="feGaussianBlur609" />
      <feFlood
         flood-color="#000"
         flood-opacity=".47"
         id="feFlood611" />
      <feComposite
         in2="blur"
         operator="in"
         id="feComposite613"
         result="result1" />
      <feComposite
         in="SourceGraphic"
         in2="result1"
         id="feComposite615" />
    </filter>
  </defs>
  <g
     id="Warstwa_1-2">
    <circle
       class="cls-3"
       cx="299.15"
       cy="299.75"
       r="232.52"
       id="circle620" />
    <path
       id="circle622"
       class="cls-1"
       style="fill:#ffffff;stroke:#ca151a;stroke-width:13px;stroke-miterlimit:10"
       d="M 518.07999,299.75 A 218.92999,218.92999 0 0 1 299.14999,518.67999 218.92999,218.92999 0 0 1 80.220001,299.75 218.92999,218.92999 0 0 1 299.14999,80.820007 218.92999,218.92999 0 0 1 518.07999,299.75 Z" />
    <path
       id="circle624"
       class="cls-2"
       style="fill:none;stroke:#fdd203;stroke-width:13px;stroke-miterlimit:10"
       d="M 518.07999,299.75 A 218.92999,218.92999 0 0 1 299.14999,518.67999 218.92999,218.92999 0 0 1 80.220001,299.75 218.92999,218.92999 0 0 1 299.14999,80.820007 218.92999,218.92999 0 0 1 518.07999,299.75 Z" />
    <g
       aria-label="Welcome to our service page."
       transform="translate(136.85 237.36) scale(.96 1)"
       id="text628"
       class="cls-9"
       style="font-weight:500;font-size:17.03px;font-family:Poppins-Medium, Poppins;fill:#010000">
      <path
         d="M 16.689401,-11.83585 13.181221,0 H 10.98435 L 8.4979703,-8.9577804 5.8583202,0 3.6784801,0.01703 0.32357001,-11.83585 H 2.3842001 l 2.4523201,9.6389799 2.6566801,-9.6389799 h 2.1798401 l 2.4693496,9.5878899 2.469351,-9.5878899 z"
         id="path944" />
      <path
         d="m 26.89038,-4.9216702 q 0,0.52793 -0.06812,0.95368 h -7.16963 q 0.08515,1.1239801 0.83447,1.8051801 0.74932,0.6812 1.83924,0.6812 1.56676,0 2.2139,-1.31131 h 2.09469 q -0.42575,1.29428 -1.54973,2.12875007 -1.10695,0.81744004 -2.75886,0.81744004 -1.34537,0 -2.41826,-0.59605003 -1.05586,-0.61307998 -1.66894,-1.70300008 -0.59605,-1.10695 -0.59605,-2.5545001 0,-1.44755 0.57902,-2.5374701 0.59605,-1.10695 1.65191,-1.7030001 1.07289,-0.59605 2.45232,-0.59605 1.32834,0 2.36717,0.57902 1.03883,0.5790201 1.61785,1.6348801 0.57902,1.03883 0.57902,2.4012301 z m -2.02657,-0.61308 q -0.01703,-1.0728901 -0.76635,-1.7200301 -0.74932,-0.64714 -1.85627,-0.64714 -1.00477,0 -1.72003,0.64714 -0.71526,0.63011 -0.8515,1.7200301 z"
         id="path946" />
      <path
         d="M 30.73917,-12.602201 V 0 h -1.94142 v -12.602201 z"
         id="path948" />
      <path
         d="m 32.646528,-4.7002802 q 0,-1.44755 0.579021,-2.5374701 0.59605,-1.10695 1.63488,-1.7030001 1.03883,-0.59605 2.3842,-0.59605 1.703,0 2.80995,0.81744 1.12398,0.8004101 1.51567,2.2990501 h -2.09469 q -0.25545,-0.69823 -0.81744,-1.08992 -0.56199,-0.39169 -1.41349,-0.39169 -1.1921,0 -1.90736,0.8515 -0.69823,0.83447 -0.69823,2.3501401 0,1.5156701 0.69823,2.3671701 0.71526,0.8515 1.90736,0.8515 1.68597,0 2.23093,-1.48161 h 2.09469 q -0.40872,1.43052 -1.5327,2.28202007 -1.12398,0.83447004 -2.79292,0.83447004 -1.34537,0 -2.3842,-0.59605003 -1.03883,-0.61307998 -1.63488,-1.70300008 -0.579021,-1.10695 -0.579021,-2.5545001 z"
         id="path950" />
      <path
         d="m 47.581849,0.15327001 q -1.32834,0 -2.40123,-0.59605003 -1.072891,-0.61307998 -1.685971,-1.70300008 -0.61308,-1.10695 -0.61308,-2.5545001 0,-1.43052 0.63011,-2.5374701 0.63011,-1.10695 1.720031,-1.7030001 1.08992,-0.59605 2.43529,-0.59605 1.34537,0 2.43529,0.59605 1.08992,0.5960501 1.72003,1.7030001 0.63011,1.1069501 0.63011,2.5374701 0,1.4305201 -0.64714,2.5374701 -0.64714,1.1069501 -1.77112,1.72003008 -1.10695,0.59605003 -2.45232,0.59605003 z m 0,-1.68597011 q 0.74932,0 1.39646,-0.35763 0.66417,-0.35763 1.07289,-1.07289 0.40872,-0.71526 0.40872,-1.7370601 0,-1.0218 -0.39169,-1.7200301 -0.39169,-0.71526 -1.03883,-1.07289 -0.64714,-0.35763 -1.39646,-0.35763 -0.74932,0 -1.39646,0.35763 -0.63011,0.35763 -1.00477,1.07289 -0.37466,0.6982301 -0.37466,1.7200301 0,1.5156701 0.76635,2.3501401 0.78338,0.81744 1.95845,0.81744 z"
         id="path952" />
      <path
         d="m 65.735836,-9.5368004 q 1.10695,0 1.97548,0.45981 0.88556,0.4598101 1.37943,1.3624001 0.5109,0.90259 0.5109,2.1798401 V 0 h -1.92439 v -5.2452402 q 0,-1.2602201 -0.63011,-1.9243901 -0.63011,-0.6812 -1.72003,-0.6812 -1.089921,0 -1.737061,0.6812 -0.63011,0.66417 -0.63011,1.9243901 V 0 h -1.92439 v -5.2452402 q 0,-1.2602201 -0.63011,-1.9243901 -0.63011,-0.6812 -1.72003,-0.6812 -1.08992,0 -1.73706,0.6812 -0.63011,0.66417 -0.63011,1.9243901 V 0 h -1.94142 v -9.3835304 h 1.94142 v 1.0728901 q 0.47684,-0.5790201 1.20913,-0.9025901 0.73229,-0.32357 1.56676,-0.32357 1.12398,0 2.00954,0.47684 0.88556,0.4768401 1.3624,1.3794301 0.42575,-0.8515 1.32834,-1.3453701 0.902591,-0.5109 1.941421,-0.5109 z"
         id="path954" />
      <path
         d="m 80.67114,-4.9216702 q 0,0.52793 -0.06812,0.95368 h -7.169631 q 0.08515,1.1239801 0.83447,1.8051801 0.74932,0.6812 1.839241,0.6812 1.56676,0 2.2139,-1.31131 h 2.09469 q -0.42575,1.29428 -1.54973,2.12875007 -1.10695,0.81744004 -2.75886,0.81744004 -1.345371,0 -2.418261,-0.59605003 -1.05586,-0.61307998 -1.66894,-1.70300008 -0.59605,-1.10695 -0.59605,-2.5545001 0,-1.44755 0.57902,-2.5374701 0.59605,-1.10695 1.65191,-1.7030001 1.07289,-0.59605 2.452321,-0.59605 1.32834,0 2.36717,0.57902 1.03883,0.5790201 1.61785,1.6348801 0.57902,1.03883 0.57902,2.4012301 z m -2.02657,-0.61308 q -0.01703,-1.0728901 -0.76635,-1.7200301 -0.74932,-0.64714 -1.85627,-0.64714 -1.004771,0 -1.720031,0.64714 -0.71526,0.63011 -0.8515,1.7200301 z"
         id="path956" />
      <path
         d="m 89.271305,-7.7997403 v 5.1941502 q 0,0.52793 0.23842,0.76635 0.25545,0.22139 0.8515,0.22139 h 1.1921 V 0 h -1.5327 q -1.31131,0 -2.00954,-0.61308002 -0.69823,-0.61307998 -0.69823,-1.99251008 v -5.1941502 h -1.10695 v -1.5837901 h 1.10695 V -11.71664 h 1.95845 v 2.3331096 h 2.28202 v 1.5837901 z"
         id="path958" />
      <path
         d="m 97.411637,0.15327001 q -1.32834,0 -2.40123,-0.59605003 -1.07289,-0.61307998 -1.68597,-1.70300008 -0.61308,-1.10695 -0.61308,-2.5545001 0,-1.43052 0.63011,-2.5374701 0.63011,-1.10695 1.72003,-1.7030001 1.08992,-0.59605 2.43529,-0.59605 1.34537,0 2.43529,0.59605 1.089923,0.5960501 1.720033,1.7030001 0.63011,1.1069501 0.63011,2.5374701 0,1.4305201 -0.64714,2.5374701 -0.64714,1.1069501 -1.771123,1.72003008 -1.10695,0.59605003 -2.45232,0.59605003 z m 0,-1.68597011 q 0.74932,0 1.39646,-0.35763 0.66417,-0.35763 1.07289,-1.07289 0.408723,-0.71526 0.408723,-1.7370601 0,-1.0218 -0.391693,-1.7200301 -0.39169,-0.71526 -1.03883,-1.07289 -0.64714,-0.35763 -1.39646,-0.35763 -0.74932,0 -1.39646,0.35763 -0.63011,0.35763 -1.00477,1.07289 -0.37466,0.6982301 -0.37466,1.7200301 0,1.5156701 0.76635,2.3501401 0.78338,0.81744 1.95845,0.81744 z"
         id="path960" />
      <path
         d="m 112.70459,0.15327001 q -1.32834,0 -2.40123,-0.59605003 -1.07289,-0.61307998 -1.68597,-1.70300008 -0.61308,-1.10695 -0.61308,-2.5545001 0,-1.43052 0.63011,-2.5374701 0.63011,-1.10695 1.72003,-1.7030001 1.08992,-0.59605 2.43529,-0.59605 1.34537,0 2.43529,0.59605 1.08992,0.5960501 1.72003,1.7030001 0.63011,1.1069501 0.63011,2.5374701 0,1.4305201 -0.64714,2.5374701 -0.64714,1.1069501 -1.77112,1.72003008 -1.10695,0.59605003 -2.45232,0.59605003 z m 0,-1.68597011 q 0.74932,0 1.39646,-0.35763 0.66417,-0.35763 1.07289,-1.07289 0.40872,-0.71526 0.40872,-1.7370601 0,-1.0218 -0.39169,-1.7200301 -0.39169,-0.71526 -1.03883,-1.07289 -0.64714,-0.35763 -1.39646,-0.35763 -0.74932,0 -1.39646,0.35763 -0.63011,0.35763 -1.00477,1.07289 -0.37466,0.6982301 -0.37466,1.7200301 0,1.5156701 0.76635,2.3501401 0.78338,0.81744 1.95845,0.81744 z"
         id="path962" />
      <path
         d="M 127.99754,-9.3835304 V 0 h -1.94142 v -1.10695 q -0.45981,0.57901998 -1.20913,0.91961999 -0.73229,0.32357002 -1.56676,0.32357002 -1.10695,0 -1.99251,-0.45981002 -0.86853,-0.45981002 -1.37943,-1.36240009 -0.49387,-0.90259 -0.49387,-2.1798401 v -5.5177202 h 1.92439 v 5.2282102 q 0,1.2602201 0.63011,1.9414201 0.63011,0.66417 1.72003,0.66417 1.08992,0 1.72003,-0.66417 0.64714,-0.6812 0.64714,-1.9414201 v -5.2282102 z"
         id="path964" />
      <path
         d="m 132.49347,-8.0211303 q 0.42575,-0.7152601 1.12398,-1.1069501 0.71526,-0.40872 1.68597,-0.40872 v 2.0095401 h -0.49387 q -1.14101,0 -1.73706,0.57902 -0.57902,0.57902 -0.57902,2.0095401 V 0 h -1.94142 v -9.3835304 h 1.94142 z"
         id="path966" />
      <path
         d="m 144.92538,0.15327001 q -1.10695,0 -1.99251,-0.39169002 -0.86853,-0.40872002 -1.37943,-1.08992009 -0.5109,-0.69823 -0.54496,-1.54973 h 2.00954 q 0.0511,0.59605 0.56199,1.00477 0.52793,0.39169 1.31131,0.39169 0.81744,0 1.26022,-0.30654 0.45981,-0.32357 0.45981,-0.81744 0,-0.52793 -0.5109,-0.78338 -0.49387,-0.25545 -1.58379,-0.5619901 -1.05586,-0.28951 -1.72003,-0.56199 -0.66417,-0.27248 -1.15804,-0.83447 -0.47684,-0.56199 -0.47684,-1.4816101 0,-0.74932 0.44278,-1.3624 0.44278,-0.6301101 1.26022,-0.9877401 0.83447,-0.35763 1.90736,-0.35763 1.60082,0 2.57153,0.81744 0.98774,0.8004101 1.05586,2.1968701 h -1.94142 q -0.0511,-0.63011 -0.5109,-1.00477 -0.45981,-0.37466 -1.24319,-0.37466 -0.76635,0 -1.17507,0.28951 -0.40872,0.28951 -0.40872,0.76635 0,0.37466 0.27248,0.63011 0.27248,0.2554501 0.66417,0.4087201 0.39169,0.13624 1.15804,0.35763 1.0218,0.27248 1.66894,0.56199 0.66417,0.27248 1.14101,0.81744 0.47684,0.5449601 0.49387,1.4475501 0,0.80041 -0.44278,1.4305201 -0.44278,0.63010998 -1.26022,0.98773999 -0.80041,0.35763002 -1.89033,0.35763002 z"
         id="path968" />
      <path
         d="m 159.21355,-4.9216702 q 0,0.52793 -0.0681,0.95368 h -7.16963 q 0.0851,1.1239801 0.83447,1.8051801 0.74932,0.6812 1.83924,0.6812 1.56676,0 2.2139,-1.31131 h 2.09469 q -0.42575,1.29428 -1.54973,2.12875007 -1.10695,0.81744004 -2.75886,0.81744004 -1.34537,0 -2.41826,-0.59605003 -1.05586,-0.61307998 -1.66894,-1.70300008 -0.59605,-1.10695 -0.59605,-2.5545001 0,-1.44755 0.57902,-2.5374701 0.59605,-1.10695 1.65191,-1.7030001 1.07289,-0.59605 2.45232,-0.59605 1.32834,0 2.36717,0.57902 1.03883,0.5790201 1.61785,1.6348801 0.57902,1.03883 0.57902,2.4012301 z m -2.02657,-0.61308 q -0.017,-1.0728901 -0.76635,-1.7200301 -0.74932,-0.64714 -1.85627,-0.64714 -1.00477,0 -1.72003,0.64714 -0.71526,0.63011 -0.8515,1.7200301 z"
         id="path970" />
      <path
         d="m 163.06234,-8.0211303 q 0.42575,-0.7152601 1.12398,-1.1069501 0.71526,-0.40872 1.68597,-0.40872 v 2.0095401 h -0.49387 q -1.14101,0 -1.73706,0.57902 -0.57902,0.57902 -0.57902,2.0095401 V 0 h -1.94142 v -9.3835304 h 1.94142 z"
         id="path972" />
      <path
         d="m 171.28785,-1.7370601 2.65668,-7.6464703 h 2.06063 L 172.42886,0 h -2.31608 l -3.55927,-9.3835304 h 2.07766 z"
         id="path974" />
      <path
         d="m 178.45748,-10.62672 q -0.52793,0 -0.88556,-0.35763 -0.35763,-0.35763 -0.35763,-0.88556 0,-0.52793 0.35763,-0.885561 0.35763,-0.35763 0.88556,-0.35763 0.5109,0 0.86853,0.35763 0.35763,0.357631 0.35763,0.885561 0,0.52793 -0.35763,0.88556 -0.35763,0.35763 -0.86853,0.35763 z m 0.95368,1.2431896 V 0 h -1.94142 v -9.3835304 z"
         id="path976" />
      <path
         d="m 181.31853,-4.7002802 q 0,-1.44755 0.57902,-2.5374701 0.59605,-1.10695 1.63488,-1.7030001 1.03883,-0.59605 2.3842,-0.59605 1.703,0 2.80995,0.81744 1.12398,0.8004101 1.51567,2.2990501 h -2.09469 q -0.25545,-0.69823 -0.81744,-1.08992 -0.56199,-0.39169 -1.41349,-0.39169 -1.1921,0 -1.90736,0.8515 -0.69823,0.83447 -0.69823,2.3501401 0,1.5156701 0.69823,2.3671701 0.71526,0.8515 1.90736,0.8515 1.68597,0 2.23093,-1.48161 h 2.09469 q -0.40872,1.43052 -1.5327,2.28202007 -1.12398,0.83447004 -2.79292,0.83447004 -1.34537,0 -2.3842,-0.59605003 -1.03883,-0.61307998 -1.63488,-1.70300008 -0.57902,-1.10695 -0.57902,-2.5545001 z"
         id="path978" />
      <path
         d="m 200.78382,-4.9216702 q 0,0.52793 -0.0681,0.95368 h -7.16963 q 0.0852,1.1239801 0.83447,1.8051801 0.74932,0.6812 1.83924,0.6812 1.56676,0 2.2139,-1.31131 h 2.09469 q -0.42575,1.29428 -1.54973,2.12875007 -1.10695,0.81744004 -2.75886,0.81744004 -1.34537,0 -2.41826,-0.59605003 -1.05586,-0.61307998 -1.66894,-1.70300008 -0.59605,-1.10695 -0.59605,-2.5545001 0,-1.44755 0.57902,-2.5374701 0.59605,-1.10695 1.65191,-1.7030001 1.07289,-0.59605 2.45232,-0.59605 1.32834,0 2.36717,0.57902 1.03883,0.5790201 1.61785,1.6348801 0.57902,1.03883 0.57902,2.4012301 z m -2.02657,-0.61308 q -0.017,-1.0728901 -0.76635,-1.7200301 -0.74932,-0.64714 -1.85627,-0.64714 -1.00477,0 -1.72003,0.64714 -0.71526,0.63011 -0.8515,1.7200301 z"
         id="path980" />
      <path
         d="m 209.06042,-8.0041003 q 0.49387,-0.64714 1.34537,-1.0899201 0.8515,-0.44278 1.92439,-0.44278 1.22616,0 2.23093,0.61308 1.0218,0.5960501 1.60082,1.6859701 0.57902,1.0899201 0.57902,2.5034101 0,1.4134901 -0.57902,2.5374701 -0.57902,1.1069501 -1.60082,1.73706008 -1.00477,0.61308003 -2.23093,0.61308003 -1.07289,0 -1.90736,-0.42575002 -0.83447,-0.44278002 -1.3624,-1.08992009 V 4.4618602 H 207.119 V -9.3835304 h 1.94142 z m 5.70505,3.2697601 q 0,-0.97071 -0.40872,-1.6689401 -0.39169,-0.71526 -1.05586,-1.07289 -0.64714,-0.37466 -1.39646,-0.37466 -0.73229,0 -1.39646,0.37466 -0.64714,0.37466 -1.05586,1.08992 -0.39169,0.7152601 -0.39169,1.6859701 0,0.97071 0.39169,1.7030001 0.40872,0.71526 1.05586,1.08992 0.66417,0.37466 1.39646,0.37466 0.74932,0 1.39646,-0.37466 0.66417,-0.39169 1.05586,-1.12398 0.40872,-0.7322901 0.40872,-1.7030001 z"
         id="path982" />
      <path
         d="m 218.01819,-4.7343402 q 0,-1.41349 0.57902,-2.5034101 0.59605,-1.08992 1.60082,-1.6859701 1.0218,-0.61308 2.24796,-0.61308 1.10695,0 1.92439,0.44278 0.83447,0.4257501 1.32834,1.0728901 v -1.3624001 h 1.95845 V 0 h -1.95845 v -1.3964601 q -0.49387,0.66417007 -1.34537,1.10695009 -0.8515,0.44278002 -1.94142,0.44278002 -1.20913,0 -2.2139,-0.61308003 -1.00477,-0.63010998 -1.60082,-1.73706008 -0.57902,-1.12398 -0.57902,-2.5374701 z m 7.68053,0.03406 q 0,-0.97071 -0.40872,-1.6859701 -0.39169,-0.71526 -1.03883,-1.08992 -0.64714,-0.37466 -1.39646,-0.37466 -0.74932,0 -1.39646,0.37466 -0.64714,0.35763 -1.05586,1.07289 -0.39169,0.6982301 -0.39169,1.6689401 0,0.97071 0.39169,1.7030001 0.40872,0.73229 1.05586,1.12398 0.66417,0.37466 1.39646,0.37466 0.74932,0 1.39646,-0.37466 0.64714,-0.37466 1.03883,-1.08992 0.40872,-0.7322901 0.40872,-1.7030001 z"
         id="path984" />
      <path
         d="m 233.99233,-9.5368004 q 1.08992,0 1.92439,0.44278 0.8515,0.4257501 1.32834,1.0728901 v -1.3624001 h 1.95845 v 9.53680041 q 0,1.29428009 -0.54496,2.29905009 -0.54496,1.0218 -1.58379,1.6008201 -1.0218,0.57902 -2.45232,0.57902 -1.90736,0 -3.16758,-0.90259 -1.26022,-0.8855601 -1.43052,-2.4182601 h 1.92439 q 0.22139,0.73229 0.93665,1.17507 0.73229,0.45981 1.73706,0.45981 1.17507,0 1.89033,-0.71526 0.73229,-0.71526 0.73229,-2.07766009 V -1.4134901 q -0.49387,0.66417007 -1.34537,1.12398009 -0.83447,0.44278002 -1.90736,0.44278002 -1.22616,0 -2.24796,-0.61308003 -1.00477,-0.63010998 -1.60082,-1.73706008 -0.57902,-1.12398 -0.57902,-2.5374701 0,-1.41349 0.57902,-2.5034101 0.59605,-1.08992 1.60082,-1.6859701 1.0218,-0.61308 2.24796,-0.61308 z m 3.25273,4.8365202 q 0,-0.97071 -0.40872,-1.6859701 -0.39169,-0.71526 -1.03883,-1.08992 -0.64714,-0.37466 -1.39646,-0.37466 -0.74932,0 -1.39646,0.37466 -0.64714,0.35763 -1.05586,1.07289 -0.39169,0.6982301 -0.39169,1.6689401 0,0.97071 0.39169,1.7030001 0.40872,0.73229 1.05586,1.12398 0.66417,0.37466 1.39646,0.37466 0.74932,0 1.39646,-0.37466 0.64714,-0.37466 1.03883,-1.08992 0.40872,-0.7322901 0.40872,-1.7030001 z"
         id="path986" />
      <path
         d="m 250.35814,-4.9216702 q 0,0.52793 -0.0681,0.95368 h -7.16963 q 0.0852,1.1239801 0.83447,1.8051801 0.74932,0.6812 1.83924,0.6812 1.56676,0 2.2139,-1.31131 h 2.09469 q -0.42575,1.29428 -1.54973,2.12875007 -1.10695,0.81744004 -2.75886,0.81744004 -1.34537,0 -2.41826,-0.59605003 -1.05586,-0.61307998 -1.66894,-1.70300008 -0.59605,-1.10695 -0.59605,-2.5545001 0,-1.44755 0.57902,-2.5374701 0.59605,-1.10695 1.65191,-1.7030001 1.07289,-0.59605 2.45232,-0.59605 1.32834,0 2.36717,0.57902 1.03883,0.5790201 1.61785,1.6348801 0.57902,1.03883 0.57902,2.4012301 z m -2.02657,-0.61308 q -0.017,-1.0728901 -0.76635,-1.7200301 -0.74932,-0.64714 -1.85627,-0.64714 -1.00477,0 -1.72003,0.64714 -0.71526,0.63011 -0.8515,1.7200301 z"
         id="path988" />
      <path
         d="m 253.0489,0.11921 q -0.52793,0 -0.88556,-0.35763001 -0.35763,-0.35763001 -0.35763,-0.88555999 0,-0.5279301 0.35763,-0.8855601 0.35763,-0.35763 0.88556,-0.35763 0.5109,0 0.86853,0.35763 0.35763,0.35763 0.35763,0.8855601 0,0.52792998 -0.35763,0.88555999 Q 253.5598,0.11921 253.0489,0.11921 Z"
         id="path990" />
    </g>
    <path
       class="cls-10"
       d="M385.61,134.62v28.34h27.65v13.14h-27.65v28.33h-14.52v-28.33h-27.65v-13.14h27.65v-28.34h14.52Z"
       id="path630" />
    <g
       aria-label="You will find here:"
       transform="translate(136.85 260.48) scale(.96 1)"
       id="text634"
       class="cls-7"
       style="font-weight:500;font-size:17.03px;font-family:Poppins-Medium, Poppins;fill:#ca151a">
      <path
         d="M 10.0477,-11.83585 6.1308002,-4.2915602 V 0 h -1.94142 V -4.2915602 L 0.25545001,-11.83585 H 2.4182601 l 2.7418301,5.8072298 2.7418301,-5.8072298 z"
         id="path993" />
      <path
         d="m 15.650563,0.15327001 q -1.32834,0 -2.40123,-0.59605003 -1.07289,-0.61307998 -1.68597,-1.70300008 -0.61308,-1.10695 -0.61308,-2.5545001 0,-1.43052 0.63011,-2.5374701 0.63011,-1.10695 1.72003,-1.7030001 1.08992,-0.59605 2.43529,-0.59605 1.34537,0 2.43529,0.59605 1.08992,0.5960501 1.72003,1.7030001 0.63011,1.1069501 0.63011,2.5374701 0,1.4305201 -0.64714,2.5374701 -0.64714,1.1069501 -1.77112,1.72003008 -1.10695,0.59605003 -2.45232,0.59605003 z m 0,-1.68597011 q 0.74932,0 1.39646,-0.35763 0.66417,-0.35763 1.07289,-1.07289 0.40872,-0.71526 0.40872,-1.7370601 0,-1.0218 -0.39169,-1.7200301 -0.39169,-0.71526 -1.03883,-1.07289 -0.64714,-0.35763 -1.39646,-0.35763 -0.74932,0 -1.39646,0.35763 -0.63011,0.35763 -1.00477,1.07289 -0.37466,0.6982301 -0.37466,1.7200301 0,1.5156701 0.76635,2.3501401 0.78338,0.81744 1.95845,0.81744 z"
         id="path995" />
      <path
         d="M 30.943511,-9.3835304 V 0 h -1.94142 v -1.10695 q -0.45981,0.57901998 -1.20913,0.91961999 -0.73229,0.32357002 -1.56676,0.32357002 -1.10695,0 -1.99251,-0.45981002 -0.86853,-0.45981002 -1.37943,-1.36240009 -0.49387,-0.90259 -0.49387,-2.1798401 v -5.5177202 h 1.92439 v 5.2282102 q 0,1.2602201 0.63011,1.9414201 0.63011,0.66417 1.72003,0.66417 1.08992,0 1.72003,-0.66417 0.64714,-0.6812 0.64714,-1.9414201 v -5.2282102 z"
         id="path997" />
      <path
         d="M 50.528018,-9.3835304 47.615888,0 h -2.0436 L 43.681957,-6.9312103 41.791627,0 h -2.0436 l -2.92916,-9.3835304 h 1.97548 l 1.95845,7.5442903 1.99251,-7.5442903 h 2.026571 l 1.90736,7.5102303 1.94142,-7.5102303 z"
         id="path999" />
      <path
         d="m 52.963324,-10.62672 q -0.52793,0 -0.88556,-0.35763 -0.35763,-0.35763 -0.35763,-0.88556 0,-0.52793 0.35763,-0.885561 0.35763,-0.35763 0.88556,-0.35763 0.5109,0 0.86853,0.35763 0.35763,0.357631 0.35763,0.885561 0,0.52793 -0.35763,0.88556 -0.35763,0.35763 -0.86853,0.35763 z m 0.95368,1.2431896 V 0 h -1.94142 v -9.3835304 z"
         id="path1001" />
      <path
         d="M 58.412922,-12.602201 V 0 h -1.94142 v -12.602201 z"
         id="path1003" />
      <path
         d="M 62.90884,-12.602201 V 0 h -1.94142 v -12.602201 z"
         id="path1005" />
      <path
         d="m 73.825072,-7.7997403 h -1.73706 V 0 h -1.95845 v -7.7997403 h -1.10695 v -1.5837901 h 1.10695 V -10.0477 q 0,-1.61785 0.8515,-2.35014 0.86853,-0.749321 2.70777,-0.749321 v 1.617851 q -0.88556,0 -1.24319,0.3406 -0.35763,0.32357 -0.35763,1.14101 v 0.6641696 h 1.73706 z"
         id="path1007" />
      <path
         d="m 76.532858,-10.62672 q -0.52793,0 -0.88556,-0.35763 -0.35763,-0.35763 -0.35763,-0.88556 0,-0.52793 0.35763,-0.885561 0.35763,-0.35763 0.88556,-0.35763 0.5109,0 0.86853,0.35763 0.35763,0.357631 0.35763,0.885561 0,0.52793 -0.35763,0.88556 -0.35763,0.35763 -0.86853,0.35763 z m 0.95368,1.2431896 V 0 h -1.94142 v -9.3835304 z"
         id="path1009" />
      <path
         d="m 84.775377,-9.5368004 q 1.10695,0 1.97548,0.45981 0.88556,0.4598101 1.37943,1.3624001 0.49387,0.90259 0.49387,2.1798401 V 0 h -1.92439 v -5.2452402 q 0,-1.2602201 -0.63011,-1.9243901 -0.63011,-0.6812 -1.72003,-0.6812 -1.089921,0 -1.737061,0.6812 -0.63011,0.66417 -0.63011,1.9243901 V 0 h -1.94142 v -9.3835304 h 1.94142 v 1.0728901 q 0.47684,-0.5790201 1.20913,-0.9025901 0.749321,-0.32357 1.583791,-0.32357 z"
         id="path1011" />
      <path
         d="m 90.446371,-4.7343402 q 0,-1.41349 0.57902,-2.5034101 0.59605,-1.08992 1.60082,-1.6859701 1.0218,-0.61308 2.26499,-0.61308 0.919621,0 1.805181,0.40872 0.90259,0.39169 1.43052,1.0558601 v -4.5299807 h 1.958448 V 0 h -1.958448 v -1.4134901 q -0.47684,0.68120007 -1.32834,1.12398009 -0.83447,0.44278002 -1.924391,0.44278002 -1.22616,0 -2.24796,-0.61308003 -1.00477,-0.63010998 -1.60082,-1.73706008 -0.57902,-1.12398 -0.57902,-2.5374701 z m 7.680531,0.03406 q 0,-0.97071 -0.40872,-1.6859701 -0.39169,-0.71526 -1.03883,-1.08992 -0.64714,-0.37466 -1.39646,-0.37466 -0.749321,0 -1.396461,0.37466 -0.64714,0.35763 -1.05586,1.07289 -0.39169,0.6982301 -0.39169,1.6689401 0,0.97071 0.39169,1.7030001 0.40872,0.73229 1.05586,1.12398 0.66417,0.37466 1.396461,0.37466 0.74932,0 1.39646,-0.37466 0.64714,-0.37466 1.03883,-1.08992 0.40872,-0.7322901 0.40872,-1.7030001 z"
         id="path1013" />
      <path
         d="m 111.9212,-9.5368004 q 1.07289,0 1.90736,0.45981 0.8515,0.4598101 1.32834,1.3624001 0.49387,0.90259 0.49387,2.1798401 V 0 h -1.92439 v -5.2452402 q 0,-1.2602201 -0.63011,-1.9243901 -0.63011,-0.6812 -1.72003,-0.6812 -1.08992,0 -1.73706,0.6812 -0.63011,0.66417 -0.63011,1.9243901 V 0 h -1.94142 v -12.602201 h 1.94142 v 4.3085907 q 0.49387,-0.5960501 1.24319,-0.9196201 0.76635,-0.32357 1.66894,-0.32357 z"
         id="path1015" />
      <path
         d="m 126.72027,-4.9216702 q 0,0.52793 -0.0681,0.95368 h -7.16963 q 0.0852,1.1239801 0.83447,1.8051801 0.74932,0.6812 1.83924,0.6812 1.56676,0 2.2139,-1.31131 h 2.09469 q -0.42575,1.29428 -1.54973,2.12875007 -1.10695,0.81744004 -2.75886,0.81744004 -1.34537,0 -2.41826,-0.59605003 -1.05586,-0.61307998 -1.66894,-1.70300008 -0.59605,-1.10695 -0.59605,-2.5545001 0,-1.44755 0.57902,-2.5374701 0.59605,-1.10695 1.65191,-1.7030001 1.07289,-0.59605 2.45232,-0.59605 1.32834,0 2.36717,0.57902 1.03883,0.5790201 1.61785,1.6348801 0.57902,1.03883 0.57902,2.4012301 z m -2.02657,-0.61308 q -0.017,-1.0728901 -0.76635,-1.7200301 -0.74932,-0.64714 -1.85627,-0.64714 -1.00477,0 -1.72003,0.64714 -0.71526,0.63011 -0.8515,1.7200301 z"
         id="path1017" />
      <path
         d="m 130.56906,-8.0211303 q 0.42575,-0.7152601 1.12398,-1.1069501 0.71526,-0.40872 1.68597,-0.40872 v 2.0095401 h -0.49387 q -1.14101,0 -1.73706,0.57902 -0.57902,0.57902 -0.57902,2.0095401 V 0 h -1.94142 v -9.3835304 h 1.94142 z"
         id="path1019" />
      <path
         d="m 143.76732,-4.9216702 q 0,0.52793 -0.0681,0.95368 h -7.16963 q 0.0851,1.1239801 0.83447,1.8051801 0.74932,0.6812 1.83924,0.6812 1.56676,0 2.2139,-1.31131 h 2.09469 q -0.42575,1.29428 -1.54973,2.12875007 -1.10695,0.81744004 -2.75886,0.81744004 -1.34537,0 -2.41826,-0.59605003 -1.05586,-0.61307998 -1.66894,-1.70300008 -0.59605,-1.10695 -0.59605,-2.5545001 0,-1.44755 0.57902,-2.5374701 0.59605,-1.10695 1.65191,-1.7030001 1.07289,-0.59605 2.45232,-0.59605 1.32834,0 2.36717,0.57902 1.03883,0.5790201 1.61785,1.6348801 0.57902,1.03883 0.57902,2.4012301 z m -2.02657,-0.61308 q -0.017,-1.0728901 -0.76635,-1.7200301 -0.74932,-0.64714 -1.85627,-0.64714 -1.00477,0 -1.72003,0.64714 -0.71526,0.63011 -0.8515,1.7200301 z"
         id="path1021" />
      <path
         d="m 146.45808,0.11921 q -0.52793,0 -0.88556,-0.35763001 -0.35763,-0.35763001 -0.35763,-0.88555999 0,-0.5279301 0.35763,-0.8855601 0.35763,-0.35763 0.88556,-0.35763 0.5109,0 0.86853,0.35763 0.35763,0.35763 0.35763,0.8855601 0,0.52792998 -0.35763,0.88555999 Q 146.96898,0.11921 146.45808,0.11921 Z m 0,-7.1526003 q -0.52793,0 -0.88556,-0.35763 -0.35763,-0.35763 -0.35763,-0.88556 0,-0.5279301 0.35763,-0.8855601 0.35763,-0.35763 0.88556,-0.35763 0.5109,0 0.86853,0.35763 0.35763,0.35763 0.35763,0.8855601 0,0.52793 -0.35763,0.88556 -0.35763,0.35763 -0.86853,0.35763 z"
         id="path1023" />
    </g>
    <g
       aria-label="the most importantmachines in our"
       transform="translate(217.76 310.43) scale(.96 1)"
       id="text640"
       class="cls-6"
       style="font-weight:700;font-size:21.61px;font-family:Poppins-Bold, Poppins;fill:#010000">
      <path
         d="M 8.0605302,-3.1334501 V 0 h -1.88007 Q 4.1707301,0 3.0470101,-0.97245003 1.9232901,-1.9665101 1.9232901,-4.1923401 V -8.9897603 H 0.45381001 V -12.05838 H 1.9232901 v -2.93896 h 3.6953101 v 2.93896 h 2.42032 v 3.0686197 h -2.42032 v 4.8406402 q 0,0.54025 0.25932,0.77796 0.25932,0.23771 0.8644,0.23771 z"
         id="path1026" />
      <path
         d="m 17.525714,-12.18804 q 2.07456,0 3.32794,1.38304 1.25338,1.3614297 1.25338,3.7601398 V 0 h -3.6737 v -6.5478302 q 0,-1.21016 -0.62669,-1.88007 -0.62669,-0.6699101 -1.68558,-0.6699101 -1.05889,0 -1.68558,0.6699101 -0.62669,0.66991 -0.62669,1.88007 V 0 h -3.69531 v -15.9914 h 3.69531 v 5.55377 q 0.56186,-0.79957 1.53431,-1.27499 0.97245,-0.47542 2.18261,-0.47542 z"
         id="path1028" />
      <path
         d="m 36.045479,-6.2236802 q 0,0.51864 -0.06483,1.0805001 h -8.36307 q 0.08644,1.12372 0.71313,1.7288 0.6483,0.58347 1.57753,0.58347 1.38304,0 1.92329,-1.16694 h 3.93302 q -0.30254,1.18855 -1.10211,2.13939 -0.77796,0.95084007 -1.96651,1.49109009 -1.18855,0.54025001 -2.65803,0.54025001 -1.77202,0 -3.15506,-0.75635002 -1.38304,-0.75634998 -2.161,-2.16100008 -0.77796,-1.40465 -0.77796,-3.2847201 0,-1.88007 0.75635,-3.2847201 0.77796,-1.4046497 2.161,-2.1609997 1.38304,-0.75635 3.17667,-0.75635 1.75041,0 3.11184,0.73474 1.36143,0.73474 2.11778,2.0961697 0.77796,1.3614301 0.77796,3.1766701 z m -3.78175,-0.97245 q 0,-0.95084 -0.6483,-1.5127 -0.6483,-0.5618601 -1.62075,-0.5618601 -0.92923,0 -1.57753,0.5402501 -0.62669,0.54025 -0.77796,1.53431 z"
         id="path1030" />
      <path
         d="m 57.958002,-12.18804 q 2.24744,0 3.56565,1.36143 1.33982,1.3614297 1.33982,3.7817498 V 0 h -3.6737 v -6.5478302 q 0,-1.16694 -0.62669,-1.79363 -0.60508,-0.6483001 -1.68558,-0.6483001 -1.0805,0 -1.70719,0.6483001 -0.605081,0.62669 -0.605081,1.79363 V 0 h -3.6737 v -6.5478302 q 0,-1.16694 -0.62669,-1.79363 -0.60508,-0.6483001 -1.68558,-0.6483001 -1.0805,0 -1.70719,0.6483001 -0.60508,0.62669 -0.60508,1.79363 V 0 h -3.69531 v -12.05838 h 3.69531 v 1.5127 q 0.56186,-0.75635 1.46948,-1.18855 0.90762,-0.45381 2.05295,-0.45381 1.36143,0 2.42032,0.58347 1.0805,0.58347 1.68558,1.6639697 0.62669,-0.9940597 1.707191,-1.6207497 1.0805,-0.62669 2.35549,-0.62669 z"
         id="path1032" />
      <path
         d="m 70.945612,0.17288 q -1.77202,0 -3.19828,-0.75635002 -1.40465,-0.75634998 -2.22583,-2.16100008 -0.79957,-1.40465 -0.79957,-3.2847201 0,-1.85846 0.82118,-3.2631101 0.82118,-1.4262597 2.24744,-2.1826097 1.42626,-0.75635 3.19828,-0.75635 1.77202,0 3.19828,0.75635 1.42626,0.75635 2.24744,2.1826097 0.82118,1.4046501 0.82118,3.2631101 0,1.8584601 -0.84279,3.2847201 -0.82118,1.4046501 -2.26905,2.16100008 Q 72.717632,0.17288 70.945612,0.17288 Z m 0,-3.1982801 q 1.05889,0 1.79363,-0.77796 0.75635,-0.77796 0.75635,-2.2258301 0,-1.44787 -0.73474,-2.22583 -0.71313,-0.7779601 -1.77202,-0.7779601 -1.0805,0 -1.79363,0.7779601 -0.71313,0.75635 -0.71313,2.22583 0,1.4478701 0.69152,2.2258301 0.71313,0.77796 1.77202,0.77796 z"
         id="path1034" />
      <path
         d="m 84.127691,0.17288 q -1.57753,0 -2.8093,-0.54025001 -1.23177,-0.54025002 -1.9449,-1.46948009 -0.71313,-0.95084 -0.79957,-2.11778 h 3.65209 q 0.06483,0.62669 0.58347,1.01567 0.51864,0.38898 1.27499,0.38898 0.69152,0 1.05889,-0.25932 0.38898,-0.28093 0.38898,-0.71313 0,-0.51864 -0.54025,-0.75635 -0.54025,-0.25932 -1.75041,-0.56186 -1.2966,-0.30254 -2.161,-0.6266901 -0.8644,-0.34576 -1.49109,-1.05889 -0.62669,-0.73474 -0.62669,-1.96651 0,-1.0372801 0.56186,-1.8800698 0.58347,-0.8644 1.68558,-1.36143 1.12372,-0.49703 2.65803,-0.49703 2.26905,0 3.56565,1.12372 1.31821,1.1237197 1.5127,2.9821798 h -3.41438 q -0.08644,-0.62669 -0.56186,-0.9940601 -0.45381,-0.36737 -1.21016,-0.36737 -0.6483,0 -0.99406,0.25932 -0.34576,0.23771 -0.34576,0.6699101 0,0.51864 0.54025,0.77796 0.56186,0.25932 1.7288,0.51864 1.33982,0.34576 2.18261,0.69152 0.84279,0.32415 1.46948,1.0805 0.6483,0.7347401 0.66991,1.9881201 0,1.05889 -0.60508,1.9016801 -0.58347,0.82117998 -1.70719,1.29659999 Q 85.597171,0.17288 84.127691,0.17288 Z"
         id="path1036" />
      <path
         d="M 98.001326,-3.1334501 V 0 h -1.88007 q -2.00973,0 -3.13345,-0.97245003 -1.12372,-0.99406007 -1.12372,-3.21989007 v -4.7974202 h -1.46948 V -12.05838 h 1.46948 v -2.93896 h 3.69531 v 2.93896 h 2.42032 v 3.0686197 h -2.42032 v 4.8406402 q 0,0.54025 0.25932,0.77796 0.25932,0.23771 0.8644,0.23771 z"
         id="path1038" />
      <path
         d="m 106.49406,-13.31176 q -0.97245,0 -1.59914,-0.56186 -0.60508,-0.58347 -0.60508,-1.42626 0,-0.8644 0.60508,-1.42626 0.62669,-0.58347 1.59914,-0.58347 0.95084,0 1.55592,0.58347 0.62669,0.56186 0.62669,1.42626 0,0.84279 -0.62669,1.42626 -0.60508,0.56186 -1.55592,0.56186 z m 1.83685,1.25338 V 0 h -3.69531 v -12.05838 z"
         id="path1040" />
      <path
         d="m 126.39687,-12.18804 q 2.24744,0 3.56565,1.36143 1.33982,1.3614297 1.33982,3.7817498 V 0 h -3.6737 v -6.5478302 q 0,-1.16694 -0.62669,-1.79363 -0.60508,-0.6483001 -1.68558,-0.6483001 -1.0805,0 -1.70719,0.6483001 -0.60508,0.62669 -0.60508,1.79363 V 0 h -3.6737 v -6.5478302 q 0,-1.16694 -0.62669,-1.79363 -0.60508,-0.6483001 -1.68558,-0.6483001 -1.0805,0 -1.70719,0.6483001 -0.60508,0.62669 -0.60508,1.79363 V 0 h -3.69531 v -12.05838 h 3.69531 v 1.5127 q 0.56186,-0.75635 1.46948,-1.18855 0.90762,-0.45381 2.05295,-0.45381 1.36143,0 2.42032,0.58347 1.0805,0.58347 1.68558,1.6639697 0.62669,-0.9940597 1.70719,-1.6207497 1.0805,-0.62669 2.35549,-0.62669 z"
         id="path1042" />
      <path
         d="m 137.59086,-10.35119 q 0.54025,-0.84279 1.49109,-1.36143 0.95084,-0.51864 2.22583,-0.51864 1.49109,0 2.70125,0.75635 1.21016,0.75635 1.90168,2.1609997 0.71313,1.4046501 0.71313,3.2631101 0,1.8584601 -0.71313,3.2847201 -0.69152,1.4046501 -1.90168,2.18261008 -1.21016,0.75635002 -2.70125,0.75635002 -1.25338,0 -2.22583,-0.51864001 -0.95084,-0.51864001 -1.49109,-1.33981999 v 7.4338402 h -3.69531 V -12.05838 h 3.69531 z m 5.27284,4.3003898 q 0,-1.38304 -0.77796,-2.161 -0.75635,-0.7995701 -1.88007,-0.7995701 -1.10211,0 -1.88007,0.7995701 -0.75635,0.79957 -0.75635,2.18261 0,1.3830401 0.75635,2.1826101 0.77796,0.79957 1.88007,0.79957 1.10211,0 1.88007,-0.79957 0.77796,-0.82118 0.77796,-2.2042201 z"
         id="path1044" />
      <path
         d="m 154.05769,0.17288 q -1.77202,0 -3.19828,-0.75635002 -1.40465,-0.75634998 -2.22583,-2.16100008 -0.79957,-1.40465 -0.79957,-3.2847201 0,-1.85846 0.82118,-3.2631101 0.82118,-1.4262597 2.24744,-2.1826097 1.42626,-0.75635 3.19828,-0.75635 1.77202,0 3.19828,0.75635 1.42626,0.75635 2.24744,2.1826097 0.82118,1.4046501 0.82118,3.2631101 0,1.8584601 -0.84279,3.2847201 -0.82118,1.4046501 -2.26905,2.16100008 Q 155.82971,0.17288 154.05769,0.17288 Z m 0,-3.1982801 q 1.05889,0 1.79363,-0.77796 0.75635,-0.77796 0.75635,-2.2258301 0,-1.44787 -0.73474,-2.22583 -0.71313,-0.7779601 -1.77202,-0.7779601 -1.0805,0 -1.79363,0.7779601 -0.71313,0.75635 -0.71313,2.22583 0,1.4478701 0.69152,2.2258301 0.71313,0.77796 1.77202,0.77796 z"
         id="path1046" />
      <path
         d="m 166.02961,-10.04865 q 0.6483,-0.99406 1.62075,-1.55592 0.97245,-0.58347 2.161,-0.58347 v 3.9114098 h -1.01567 q -1.38304,0 -2.07456,0.60508 -0.69152,0.58347 -0.69152,2.07456 V 0 h -3.69531 v -12.05838 h 3.69531 z"
         id="path1048" />
      <path
         d="M 178.30408,-3.1334501 V 0 h -1.88007 q -2.00973,0 -3.13345,-0.97245003 -1.12372,-0.99406007 -1.12372,-3.21989007 v -4.7974202 h -1.46948 V -12.05838 h 1.46948 v -2.93896 h 3.69531 v 2.93896 h 2.42032 v 3.0686197 h -2.42032 v 4.8406402 q 0,0.54025 0.25932,0.77796 0.25932,0.23771 0.8644,0.23771 z"
         id="path1050" />
      <path
         d="m 179.62229,-6.0508002 q 0,-1.85846 0.69152,-3.2631101 0.71313,-1.4046497 1.92329,-2.1609997 1.21016,-0.75635 2.70125,-0.75635 1.27499,0 2.22583,0.51864 0.97245,0.51864 1.49109,1.36143 v -1.70719 h 3.69531 V 0 h -3.69531 v -1.70719 q -0.54025,0.84278998 -1.5127,1.36142999 -0.95084,0.51864001 -2.22583,0.51864001 -1.46948,0 -2.67964,-0.75635002 -1.21016,-0.77795998 -1.92329,-2.18261008 -0.69152,-1.42626 -0.69152,-3.2847201 z m 9.03298,0.02161 q 0,-1.38304 -0.77796,-2.18261 -0.75635,-0.7995701 -1.85846,-0.7995701 -1.10211,0 -1.88007,0.7995701 -0.75635,0.77796 -0.75635,2.161 0,1.3830401 0.75635,2.2042201 0.77796,0.79957 1.88007,0.79957 1.10211,0 1.85846,-0.79957 0.77796,-0.79957 0.77796,-2.1826101 z"
         id="path1052" />
      <path
         d="m 202.37765,-12.18804 q 2.11778,0 3.37116,1.38304 1.27499,1.3614297 1.27499,3.7601398 V 0 h -3.6737 v -6.5478302 q 0,-1.21016 -0.62669,-1.88007 -0.62669,-0.6699101 -1.68558,-0.6699101 -1.05889,0 -1.68558,0.6699101 -0.62669,0.66991 -0.62669,1.88007 V 0 h -3.69531 v -12.05838 h 3.69531 v 1.59914 q 0.56186,-0.79957 1.5127,-1.25338 0.95084,-0.47542 2.13939,-0.47542 z"
         id="path1054" />
      <path
         d="M 216.31608,-3.1334501 V 0 h -1.88007 q -2.00973,0 -3.13345,-0.97245003 -1.12372,-0.99406007 -1.12372,-3.21989007 v -4.7974202 h -1.46948 V -12.05838 h 1.46948 v -2.93896 h 3.69531 v 2.93896 h 2.42032 v 3.0686197 h -2.42032 v 4.8406402 q 0,0.54025 0.25932,0.77796 0.25932,0.23771 0.8644,0.23771 z"
         id="path1056" />
      <path
         d="m 16.72614,13.74196 q 2.247441,0 3.565651,1.36143 1.33982,1.36143 1.33982,3.78175 V 25.93 h -3.6737 v -6.54783 q 0,-1.16694 -0.626691,-1.79363 -0.60508,-0.6483 -1.68558,-0.6483 -1.0805,0 -1.70719,0.6483 -0.60508,0.62669 -0.60508,1.79363 V 25.93 H 9.6596703 v -6.54783 q 0,-1.16694 -0.62669,-1.79363 -0.6050801,-0.6483 -1.6855801,-0.6483 -1.0805,0 -1.70719,0.6483 -0.6050801,0.62669 -0.6050801,1.79363 V 25.93 H 1.33982 V 13.87162 h 3.6953101 v 1.5127 q 0.5618601,-0.75635 1.4694801,-1.18855 0.90762,-0.45381 2.05295,-0.45381 1.3614301,0 2.4203198,0.58347 1.0805,0.58347 1.68558,1.66397 0.62669,-0.99406 1.70719,-1.62075 1.0805,-0.62669 2.35549,-0.62669 z"
         id="path1058" />
      <path
         d="m 23.490071,19.8792 q 0,-1.85846 0.69152,-3.26311 0.71313,-1.40465 1.92329,-2.161 1.21016,-0.75635 2.70125,-0.75635 1.27499,0 2.22583,0.51864 0.97245,0.51864 1.49109,1.36143 v -1.70719 h 3.69531 V 25.93 h -3.69531 v -1.70719 q -0.54025,0.84279 -1.5127,1.36143 -0.95084,0.51864 -2.22583,0.51864 -1.46948,0 -2.67964,-0.75635 -1.21016,-0.77796 -1.92329,-2.18261 -0.69152,-1.42626 -0.69152,-3.28472 z m 9.03298,0.02161 q 0,-1.38304 -0.77796,-2.18261 -0.75635,-0.79957 -1.85846,-0.79957 -1.10211,0 -1.88007,0.79957 -0.75635,0.77796 -0.75635,2.161 0,1.38304 0.75635,2.20422 0.77796,0.79957 1.88007,0.79957 1.10211,0 1.85846,-0.79957 0.77796,-0.79957 0.77796,-2.18261 z"
         id="path1060" />
      <path
         d="m 38.163281,19.90081 q 0,-1.88007 0.75635,-3.28472 0.77796,-1.40465 2.13939,-2.161 1.38304,-0.75635 3.15506,-0.75635 2.26905,0 3.78175,1.18855 1.53431,1.18855 2.00973,3.34955 h -3.93302 q -0.49703,-1.38304 -1.92329,-1.38304 -1.01567,0 -1.62075,0.79957 -0.60508,0.77796 -0.60508,2.24744 0,1.46948 0.60508,2.26905 0.60508,0.77796 1.62075,0.77796 1.42626,0 1.92329,-1.38304 h 3.93302 q -0.47542,2.11778 -2.00973,3.32794 -1.53431,1.21016 -3.78175,1.21016 -1.77202,0 -3.15506,-0.75635 -1.36143,-0.75635 -2.13939,-2.161 -0.75635,-1.40465 -0.75635,-3.28472 z"
         id="path1062" />
      <path
         d="m 59.384291,13.74196 q 2.07456,0 3.32794,1.38304 1.25338,1.36143 1.25338,3.76014 V 25.93 h -3.6737 v -6.54783 q 0,-1.21016 -0.62669,-1.88007 -0.62669,-0.66991 -1.68558,-0.66991 -1.058891,0 -1.685581,0.66991 -0.62669,0.66991 -0.62669,1.88007 V 25.93 H 51.97206 V 9.9385999 h 3.69531 V 15.49237 q 0.56186,-0.79957 1.53431,-1.27499 0.972451,-0.47542 2.182611,-0.47542 z"
         id="path1064" />
      <path
         d="m 68.395653,12.61824 q -0.972451,0 -1.599141,-0.56186 -0.60508,-0.58347 -0.60508,-1.42626 0,-0.8644002 0.60508,-1.4262602 0.62669,-0.58347 1.599141,-0.58347 0.95084,0 1.55592,0.58347 0.62669,0.56186 0.62669,1.4262602 0,0.84279 -0.62669,1.42626 -0.60508,0.56186 -1.55592,0.56186 z m 1.83685,1.25338 V 25.93 H 66.537192 V 13.87162 Z"
         id="path1066" />
      <path
         d="m 80.259547,13.74196 q 2.11778,0 3.37116,1.38304 1.27499,1.36143 1.27499,3.76014 V 25.93 h -3.6737 v -6.54783 q 0,-1.21016 -0.62669,-1.88007 -0.62669,-0.66991 -1.68558,-0.66991 -1.05889,0 -1.68558,0.66991 -0.62669,0.66991 -0.62669,1.88007 V 25.93 h -3.69531 V 13.87162 h 3.69531 v 1.59914 q 0.56186,-0.79957 1.5127,-1.25338 0.95084,-0.47542 2.13939,-0.47542 z"
         id="path1068" />
      <path
         d="m 98.844147,19.70632 q 0,0.51864 -0.06483,1.0805 h -8.36307 q 0.08644,1.12372 0.71313,1.7288 0.6483,0.58347 1.57753,0.58347 1.38304,0 1.92329,-1.16694 h 3.93302 q -0.30254,1.18855 -1.10211,2.13939 -0.77796,0.95084 -1.96651,1.49109 -1.18855,0.54025 -2.65803,0.54025 -1.77202,0 -3.15506,-0.75635 -1.383041,-0.75635 -2.161001,-2.161 -0.77796,-1.40465 -0.77796,-3.28472 0,-1.88007 0.75635,-3.28472 0.77796,-1.40465 2.161001,-2.161 1.38304,-0.75635 3.17667,-0.75635 1.75041,0 3.11184,0.73474 1.36143,0.73474 2.11778,2.09617 0.77796,1.36143 0.77796,3.17667 z m -3.78175,-0.97245 q 0,-0.95084 -0.6483,-1.5127 -0.6483,-0.56186 -1.62075,-0.56186 -0.92923,0 -1.57753,0.54025 -0.62669,0.54025 -0.77796,1.53431 z"
         id="path1070" />
      <path
         d="m 105.6945,26.10288 q -1.57753,0 -2.8093,-0.54025 -1.23177,-0.54025 -1.9449,-1.46948 -0.71313,-0.95084 -0.79957,-2.11778 h 3.65209 q 0.0648,0.62669 0.58347,1.01567 0.51864,0.38898 1.27499,0.38898 0.69152,0 1.05889,-0.25932 0.38898,-0.28093 0.38898,-0.71313 0,-0.51864 -0.54025,-0.75635 -0.54025,-0.25932 -1.75041,-0.56186 -1.2966,-0.30254 -2.161,-0.62669 -0.8644,-0.34576 -1.49109,-1.05889 -0.62669,-0.73474 -0.62669,-1.96651 0,-1.03728 0.56186,-1.88007 0.58347,-0.8644 1.68558,-1.36143 1.12372,-0.49703 2.65803,-0.49703 2.26905,0 3.56565,1.12372 1.31821,1.12372 1.5127,2.98218 h -3.41438 q -0.0864,-0.62669 -0.56186,-0.99406 -0.45381,-0.36737 -1.21016,-0.36737 -0.6483,0 -0.99406,0.25932 -0.34576,0.23771 -0.34576,0.66991 0,0.51864 0.54025,0.77796 0.56186,0.25932 1.7288,0.51864 1.33982,0.34576 2.18261,0.69152 0.84279,0.32415 1.46948,1.0805 0.6483,0.73474 0.66991,1.98812 0,1.05889 -0.60508,1.90168 -0.58347,0.82118 -1.70719,1.2966 -1.10211,0.47542 -2.57159,0.47542 z"
         id="path1072" />
      <path
         d="m 119.2872,12.61824 q -0.97245,0 -1.59914,-0.56186 -0.60508,-0.58347 -0.60508,-1.42626 0,-0.8644002 0.60508,-1.4262602 0.62669,-0.58347 1.59914,-0.58347 0.95084,0 1.55592,0.58347 0.62669,0.56186 0.62669,1.4262602 0,0.84279 -0.62669,1.42626 -0.60508,0.56186 -1.55592,0.56186 z m 1.83685,1.25338 V 25.93 h -3.69531 V 13.87162 Z"
         id="path1074" />
      <path
         d="m 131.15109,13.74196 q 2.11778,0 3.37116,1.38304 1.27499,1.36143 1.27499,3.76014 V 25.93 h -3.6737 v -6.54783 q 0,-1.21016 -0.62669,-1.88007 -0.62669,-0.66991 -1.68558,-0.66991 -1.05889,0 -1.68558,0.66991 -0.62669,0.66991 -0.62669,1.88007 V 25.93 h -3.69531 V 13.87162 h 3.69531 v 1.59914 q 0.56186,-0.79957 1.5127,-1.25338 0.95084,-0.47542 2.13939,-0.47542 z"
         id="path1076" />
      <path
         d="m 148.43908,26.10288 q -1.77202,0 -3.19828,-0.75635 -1.40465,-0.75635 -2.22583,-2.161 -0.79957,-1.40465 -0.79957,-3.28472 0,-1.85846 0.82118,-3.26311 0.82118,-1.42626 2.24744,-2.18261 1.42626,-0.75635 3.19828,-0.75635 1.77202,0 3.19828,0.75635 1.42626,0.75635 2.24744,2.18261 0.82118,1.40465 0.82118,3.26311 0,1.85846 -0.84279,3.28472 -0.82118,1.40465 -2.26905,2.161 -1.42626,0.75635 -3.19828,0.75635 z m 0,-3.19828 q 1.05889,0 1.79363,-0.77796 0.75635,-0.77796 0.75635,-2.22583 0,-1.44787 -0.73474,-2.22583 -0.71313,-0.77796 -1.77202,-0.77796 -1.0805,0 -1.79363,0.77796 -0.71313,0.75635 -0.71313,2.22583 0,1.44787 0.69152,2.22583 0.71313,0.77796 1.77202,0.77796 z"
         id="path1078" />
      <path
         d="M 168.6228,13.87162 V 25.93 h -3.69531 v -1.64236 q -0.56186,0.79957 -1.53431,1.2966 -0.95084,0.47542 -2.11778,0.47542 -1.38304,0 -2.44193,-0.60508 -1.05889,-0.62669 -1.64236,-1.79363 -0.58347,-1.16694 -0.58347,-2.74447 v -7.04486 h 3.6737 v 6.54783 q 0,1.21016 0.62669,1.88007 0.62669,0.66991 1.68558,0.66991 1.0805,0 1.70719,-0.66991 0.62669,-0.66991 0.62669,-1.88007 v -6.54783 z"
         id="path1080" />
      <path
         d="m 174.97614,15.88135 q 0.6483,-0.99406 1.62075,-1.55592 0.97245,-0.58347 2.161,-0.58347 v 3.91141 h -1.01567 q -1.38304,0 -2.07456,0.60508 -0.69152,0.58347 -0.69152,2.07456 V 25.93 h -3.69531 V 13.87162 h 3.69531 z"
         id="path1082" />
    </g>
    <g
       aria-label="machinery park."
       transform="translate(217.21 371.72) scale(.96 1)"
       id="text646"
       class="cls-5"
       style="font-weight:700;font-size:31.68px;font-family:Poppins-Bold, Poppins">
      <path
         d="m 24.52032,-17.86752 q 3.29472,0 5.2272,1.99584 1.96416,1.99584 1.96416,5.544 V 0 h -5.3856 v -9.5990401 q 0,-1.7107199 -0.91872,-2.6294399 -0.88704,-0.9504 -2.47104,-0.9504 -1.584,0 -2.50272,0.9504 -0.88704,0.91872 -0.88704,2.6294399 V 0 h -5.3856 v -9.5990401 q 0,-1.7107199 -0.91872,-2.6294399 -0.88704,-0.9504 -2.47104,-0.9504 -1.5839999,0 -2.5027199,0.9504 -0.88704,0.91872 -0.88704,2.6294399 V 0 H 1.96416 v -17.67744 h 5.4172801 v 2.2176 q 0.82368,-1.1088 2.15424,-1.7424 1.3305599,-0.66528 3.0095999,-0.66528 1.99584,0 3.54816,0.85536 1.584,0.85536 2.47104,2.43936 0.91872,-1.45728 2.50272,-2.376 1.584,-0.91872 3.45312,-0.91872 z"
         style="fill:#010000"
         id="path1085" />
      <path
         d="m 34.436162,-8.8704001 q 0,-2.7244799 1.01376,-4.7836799 1.04544,-2.0592 2.81952,-3.168 1.77408,-1.1088 3.96,-1.1088 1.86912,0 3.26304,0.76032 1.4256,0.76032 2.18592,1.99584 v -2.50272 h 5.41728 V 0 h -5.41728 v -2.50272 q -0.792,1.23552 -2.2176,1.99584 -1.39392,0.76032 -3.26304,0.76032 -2.15424,0 -3.92832,-1.10880001 -1.77408,-1.14047999 -2.81952,-3.19967999 -1.01376,-2.0908801 -1.01376,-4.8153601 z m 13.24224,0.03168 q 0,-2.0275199 -1.14048,-3.1996799 -1.1088,-1.17216 -2.72448,-1.17216 -1.61568,0 -2.75616,1.17216 -1.1088,1.14048 -1.1088,3.1679999 0,2.02752 1.1088,3.23136 1.14048,1.1721601 2.75616,1.1721601 1.61568,0 2.72448,-1.1721601 1.14048,-1.17216 1.14048,-3.19968 z"
         style="fill:#010000"
         id="path1087" />
      <path
         d="m 55.946908,-8.8387201 q 0,-2.7561599 1.1088,-4.8153599 1.14048,-2.0592 3.13632,-3.168 2.02752,-1.1088 4.62528,-1.1088 3.3264,0 5.544,1.7424 2.24928,1.7424 2.94624,4.9104 h -5.76576 q -0.72864,-2.02752 -2.81952,-2.02752 -1.48896,0 -2.376,1.17216 -0.88704,1.14048 -0.88704,3.2947199 0,2.15424 0.88704,3.3264 0.88704,1.1404801 2.376,1.1404801 2.09088,0 2.81952,-2.0275201 h 5.76576 q -0.69696,3.1046401 -2.94624,4.8787201 -2.24928,1.77408 -5.544,1.77408 -2.59776,0 -4.62528,-1.10880001 -1.99584,-1.10879999 -3.13632,-3.16799999 -1.1088,-2.0592001 -1.1088,-4.8153601 z"
         style="fill:#010000"
         id="path1089" />
      <path
         d="m 87.056657,-17.86752 q 3.04128,0 4.87872,2.02752 1.837441,1.99584 1.837441,5.51232 V 0 h -5.385601 v -9.5990401 q 0,-1.7740799 -0.91872,-2.7561599 -0.91872,-0.98208 -2.47104,-0.98208 -1.55232,0 -2.47104,0.98208 -0.91872,0.98208 -0.91872,2.7561599 V 0 h -5.41728 v -23.4432 h 5.41728 v 8.14176 q 0.82368,-1.17216 2.24928,-1.86912 1.4256,-0.69696 3.19968,-0.69696 z"
         style="fill:#010000"
         id="path1091" />
      <path
         d="m 100.26721,-19.51488 q -1.425602,0 -2.344322,-0.82368 -0.88704,-0.85536 -0.88704,-2.09088 0,-1.2672 0.88704,-2.09088 0.91872,-0.85536 2.344322,-0.85536 1.39392,0 2.28096,0.85536 0.91872,0.82368 0.91872,2.09088 0,1.23552 -0.91872,2.09088 -0.88704,0.82368 -2.28096,0.82368 z m 2.6928,1.83744 V 0 h -5.417282 v -17.67744 z"
         style="fill:#010000"
         id="path1093" />
      <path
         d="m 117.65953,-17.86752 q 3.10464,0 4.94208,2.02752 1.86912,1.99584 1.86912,5.51232 V 0 h -5.3856 v -9.5990401 q 0,-1.7740799 -0.91872,-2.7561599 -0.91872,-0.98208 -2.47104,-0.98208 -1.55232,0 -2.47104,0.98208 -0.91872,0.98208 -0.91872,2.7561599 V 0 h -5.41728 v -17.67744 h 5.41728 v 2.34432 q 0.82368,-1.17216 2.2176,-1.83744 1.39392,-0.69696 3.13632,-0.69696 z"
         style="fill:#010000"
         id="path1095" />
      <path
         d="m 144.90433,-9.1238401 q 0,0.76032 -0.095,1.584 h -12.26016 q 0.12672,1.64736 1.04544,2.5344001 0.9504,0.85536 2.31264,0.85536 2.02752,0 2.81952,-1.7107201 h 5.76576 q -0.44352,1.7424001 -1.61568,3.1363201 -1.14048,1.39392 -2.88288,2.18591999 -1.7424,0.79200001 -3.89664,0.79200001 -2.59776,0 -4.62528,-1.10880001 -2.02752,-1.10879999 -3.168,-3.16799999 -1.14048,-2.0592001 -1.14048,-4.8153601 0,-2.7561599 1.1088,-4.8153599 1.14048,-2.0592 3.168,-3.168 2.02752,-1.1088 4.65696,-1.1088 2.56608,0 4.56192,1.07712 1.99584,1.07712 3.10464,3.07296 1.14048,1.99584 1.14048,4.6569599 z m -5.544,-1.4255999 q 0,-1.39392 -0.9504,-2.2176 -0.9504,-0.82368 -2.376,-0.82368 -1.36224,0 -2.31264,0.792 -0.91872,0.792 -1.14048,2.24928 z"
         style="fill:#010000"
         id="path1097" />
      <path
         d="m 153.17278,-14.7312 q 0.9504,-1.45728 2.376,-2.28096 1.4256,-0.85536 3.168,-0.85536 v 5.73408 h -1.48896 q -2.02752,0 -3.04128,0.88704 -1.01376,0.85536 -1.01376,3.0412799 V 0 h -5.41728 v -17.67744 h 5.41728 z"
         style="fill:#010000"
         id="path1099" />
      <path
         d="m 179.37213,-17.67744 -11.088,26.0726401 h -5.82912 l 4.05504,-8.99712011 -7.19136,-17.07551999 h 6.05088 l 4.08672,11.0563199 4.05504,-11.0563199 z"
         style="fill:#010000"
         id="path1101" />
      <path
         d="m 193.46973,-15.17472 q 0.792,-1.23552 2.18592,-1.99584 1.39392,-0.76032 3.26304,-0.76032 2.18592,0 3.96,1.1088 1.77408,1.1088 2.78784,3.168 1.04544,2.0592 1.04544,4.7836799 0,2.72448 -1.04544,4.8153601 -1.01376,2.0592 -2.78784,3.19967999 -1.77408,1.10880001 -3.96,1.10880001 -1.83744,0 -3.26304,-0.76032 -1.39392,-0.76032 -2.18592,-1.96416 V 8.4268801 h -5.41728 V -17.67744 h 5.41728 z m 7.72992,6.3043199 q 0,-2.0275199 -1.14048,-3.1679999 -1.1088,-1.17216 -2.75616,-1.17216 -1.61568,0 -2.75616,1.17216 -1.1088,1.17216 -1.1088,3.1996799 0,2.02752 1.1088,3.19968 1.14048,1.1721601 2.75616,1.1721601 1.61568,0 2.75616,-1.1721601 1.14048,-1.20384 1.14048,-3.23136 z"
         style="fill:#010000"
         id="path1103" />
      <path
         d="m 208.48607,-8.8704001 q 0,-2.7244799 1.01376,-4.7836799 1.04544,-2.0592 2.81952,-3.168 1.77408,-1.1088 3.96,-1.1088 1.86912,0 3.26304,0.76032 1.4256,0.76032 2.18592,1.99584 v -2.50272 h 5.41728 V 0 h -5.41728 v -2.50272 q -0.792,1.23552 -2.2176,1.99584 -1.39392,0.76032 -3.26304,0.76032 -2.15424,0 -3.92832,-1.10880001 -1.77408,-1.14047999 -2.81952,-3.19967999 -1.01376,-2.0908801 -1.01376,-4.8153601 z m 13.24224,0.03168 q 0,-2.0275199 -1.14048,-3.1996799 -1.1088,-1.17216 -2.72448,-1.17216 -1.61568,0 -2.75616,1.17216 -1.1088,1.14048 -1.1088,3.1679999 0,2.02752 1.1088,3.23136 1.14048,1.1721601 2.75616,1.1721601 1.61568,0 2.72448,-1.1721601 1.14048,-1.17216 1.14048,-3.19968 z"
         style="fill:#010000"
         id="path1105" />
      <path
         d="m 236.49121,-14.7312 q 0.9504,-1.45728 2.376,-2.28096 1.4256,-0.85536 3.168,-0.85536 v 5.73408 h -1.48896 q -2.02752,0 -3.04128,0.88704 -1.01376,0.85536 -1.01376,3.0412799 V 0 h -5.41728 v -17.67744 h 5.41728 z"
         style="fill:#010000"
         id="path1107" />
      <path
         d="m 255.43585,0 -5.3856,-7.4131201 V 0 h -5.41728 v -23.4432 h 5.41728 v 12.95712 l 5.35392,-7.19136 h 6.68448 L 254.73889,-8.8070401 262.15201,0 Z"
         style="fill:#010000"
         id="path1109" />
      <path
         d="m 266.77856,0.25344 q -1.4256,0 -2.34432,-0.82368001 Q 263.5472,-1.4256 263.5472,-2.66112 q 0,-1.2672 0.88704,-2.12256 0.91872,-0.8553601 2.34432,-0.8553601 1.39392,0 2.28096,0.8553601 0.91872,0.85536 0.91872,2.12256 0,1.23552 -0.91872,2.09087999 Q 268.17248,0.25344 266.77856,0.25344 Z"
         style="fill:#ca151a"
         id="path1111" />
    </g>
    <path
       class="cls-11"
       d="M144.52,359.02h-4.13c-.64,0-1.16-.52-1.16-1.16v-66.48c0-.64.52-1.16,1.16-1.16h46.47v5.29l-42.34,63.51Z"
       id="path648" />
    <path
       class="cls-11"
       d="M181.75,290.22v5.29l1.58,5.29,3.53-5.29v-4.13c0-.64-.52-1.16-1.16-1.16h-3.95Z"
       id="path650" />
    <path
       class="cls-4"
       d="M155.2,363.7c-3.18.2-6.35.41-9.52.61-.64,0-1.16-.52-1.16-1.16v-66.48c0-.64.52-1.16,1.16-1.16h41.36c.84.01,1.69.03,2.53.04.09,3.26.19,6.52.28,9.79-11.55,19.45-23.1,38.9-34.65,58.36Z"
       id="path652" />
    <path
       class="cls-11"
       d="M193.29,300.64c-13.36.06-26.71.11-40.07.17-1.88,0-3.41,1.53-3.41,3.41v68.04c15.68,0,31.37,0,47.05,0-.05-22.73-.09-45.45-.14-68.18,0-.25-.04-1.42-.98-2.39-.98-1.01-2.22-1.05-2.46-1.05Z"
       id="path654" />
    <path
       class="cls-4"
       d="M155.1,307.37c-.72,0-1.28-.59-1.28-1.28s.54-1.28,1.28-1.28,1.28.58,1.28,1.28-.56,1.28-1.28,1.28h0Z"
       id="path656" />
    <path
       class="cls-4"
       d="M160.4,307.37c-.72,0-1.28-.58-1.28-1.28s.56-1.28,1.28-1.28,1.28.6,1.28,1.28-.53,1.28-1.28,1.28Z"
       id="path658" />
    <path
       class="cls-4"
       d="M165.69,307.37c-.72,0-1.28-.58-1.28-1.28s.57-1.28,1.28-1.28,1.28.59,1.28,1.28-.56,1.28-1.28,1.28h0Z"
       id="path660" />
    <path
       class="cls-4"
       d="M170.98,307.37c-.72,0-1.28-.58-1.28-1.28s.57-1.28,1.28-1.28,1.28.57,1.28,1.28c0,.72-.59,1.28-1.28,1.28h0Z"
       id="path662" />
    <path
       class="cls-4"
       d="M176.27,307.37c-.72,0-1.28-.59-1.28-1.28s.54-1.28,1.28-1.28,1.28.57,1.28,1.28c0,.71-.58,1.28-1.28,1.28Z"
       id="path664" />
    <path
       class="cls-4"
       d="M181.56,307.37c-.71,0-1.28-.58-1.28-1.28s.57-1.28,1.28-1.28,1.28.57,1.28,1.28c0,.73-.6,1.28-1.28,1.28Z"
       id="path666" />
    <path
       class="cls-4"
       d="M186.86,307.37c-.69,0-1.28-.56-1.28-1.28s.57-1.28,1.28-1.28,1.28.59,1.28,1.28-.57,1.28-1.28,1.28Z"
       id="path668" />
    <path
       class="cls-4"
       d="M192.15,307.37c-.61,0-1.14-.44-1.25-1.03-.16-.77.43-1.53,1.25-1.53.71,0,1.28.58,1.28,1.28,0,.68-.56,1.28-1.28,1.28h0Z"
       id="path670" />
    <path
       class="cls-4"
       d="M157.75,312.67c-.69,0-1.28-.56-1.28-1.28,0-.66.53-1.28,1.28-1.28.7,0,1.27.57,1.27,1.28,0,.73-.6,1.28-1.28,1.28Z"
       id="path672" />
    <path
       class="cls-4"
       d="M163.04,312.67c-.68,0-1.28-.55-1.28-1.28s.56-1.28,1.28-1.28,1.27.59,1.27,1.28c0,.73-.6,1.28-1.28,1.28h0Z"
       id="path674" />
    <path
       class="cls-4"
       d="M168.34,312.67c-.82,0-1.41-.76-1.25-1.53.11-.59.64-1.03,1.25-1.03.68,0,1.28.55,1.28,1.28,0,.7-.57,1.28-1.28,1.28h0Z"
       id="path676" />
    <path
       class="cls-4"
       d="M173.63,312.67c-.71,0-1.28-.58-1.28-1.28s.58-1.28,1.28-1.28,1.28.57,1.28,1.28c0,.7-.57,1.28-1.28,1.28Z"
       id="path678" />
    <path
       class="cls-4"
       d="M178.92,312.67c-.71,0-1.28-.58-1.28-1.28s.56-1.28,1.27-1.28,1.28.57,1.28,1.28-.6,1.28-1.28,1.28Z"
       id="path680" />
    <path
       class="cls-4"
       d="M184.21,312.67c-.67,0-1.28-.54-1.28-1.28,0-.7.56-1.28,1.27-1.28s1.28.58,1.28,1.28-.59,1.28-1.28,1.28Z"
       id="path682" />
    <path
       class="cls-4"
       d="M189.5,312.67c-.68,0-1.28-.55-1.28-1.28s.58-1.28,1.28-1.28,1.27.57,1.27,1.28c0,.7-.57,1.28-1.28,1.28Z"
       id="path684" />
    <path
       id="circle686"
       class="cls-4"
       style="fill:#ffffff;stroke-width:0px"
       d="m 156.38001,316.67999 a 1.28,1.28 0 0 1 -1.28,1.28 1.28,1.28 0 0 1 -1.28,-1.28 1.28,1.28 0 0 1 1.28,-1.28 1.28,1.28 0 0 1 1.28,1.28 z" />
    <path
       class="cls-4"
       d="M160.4,317.96c-.71,0-1.28-.58-1.28-1.28,0-.61.49-1.28,1.28-1.28.71,0,1.28.57,1.28,1.28,0,.71-.57,1.28-1.28,1.28Z"
       id="path688" />
    <path
       class="cls-4"
       d="M165.69,317.96c-.71,0-1.28-.57-1.28-1.28,0-.79.66-1.28,1.28-1.28.67,0,1.28.54,1.28,1.28s-.57,1.28-1.28,1.28Z"
       id="path690" />
    <path
       class="cls-4"
       d="M170.98,317.96c-.71,0-1.28-.57-1.28-1.28s.6-1.28,1.28-1.28,1.28.57,1.28,1.28c0,.71-.58,1.28-1.28,1.28h0Z"
       id="path692" />
    <path
       class="cls-4"
       d="M176.27,317.96c-.7,0-1.28-.57-1.28-1.28s.59-1.28,1.28-1.28c.65,0,1.28.52,1.28,1.28,0,.71-.58,1.28-1.28,1.28Z"
       id="path694" />
    <path
       class="cls-4"
       d="M181.56,317.96c-.7,0-1.28-.56-1.28-1.28s.59-1.28,1.28-1.28,1.28.53,1.28,1.28c0,.7-.57,1.28-1.28,1.28Z"
       id="path696" />
    <path
       class="cls-4"
       d="M186.86,317.96c-.73,0-1.28-.59-1.28-1.28s.56-1.28,1.28-1.28,1.28.59,1.28,1.28-.57,1.28-1.28,1.28Z"
       id="path698" />
    <path
       class="cls-4"
       d="M192.15,317.96c-.71,0-1.28-.57-1.28-1.28s.6-1.28,1.28-1.28,1.28.58,1.28,1.28c0,.71-.58,1.28-1.28,1.28Z"
       id="path700" />
    <path
       class="cls-4"
       d="M157.75,323.25c-.68,0-1.28-.56-1.28-1.28s.59-1.28,1.27-1.28c.72,0,1.28.58,1.28,1.28s-.58,1.28-1.28,1.28Z"
       id="path702" />
    <path
       class="cls-4"
       d="M163.04,323.25c-.7,0-1.28-.56-1.28-1.28s.58-1.28,1.27-1.28c.62,0,1.28.48,1.28,1.28,0,.69-.56,1.28-1.28,1.28Z"
       id="path704" />
    <path
       class="cls-4"
       d="M168.34,323.25c-.7,0-1.28-.57-1.28-1.28s.58-1.28,1.27-1.28c.62,0,1.28.48,1.28,1.28,0,.64-.5,1.28-1.28,1.28Z"
       id="path706" />
    <path
       class="cls-4"
       d="M173.63,323.25c-.68,0-1.28-.55-1.28-1.28s.59-1.28,1.27-1.28c.62,0,1.28.48,1.28,1.28,0,.71-.58,1.28-1.28,1.28Z"
       id="path708" />
    <path
       class="cls-4"
       d="M178.92,323.25c-.71,0-1.28-.59-1.28-1.28s.54-1.28,1.28-1.28c.7,0,1.28.57,1.28,1.28,0,.7-.57,1.28-1.28,1.28Z"
       id="path710" />
    <path
       class="cls-4"
       d="M184.21,323.25c-.72,0-1.28-.59-1.28-1.28s.57-1.28,1.28-1.28c.78,0,1.41.71,1.25,1.53-.13.62-.66,1.03-1.25,1.03Z"
       id="path712" />
    <path
       class="cls-4"
       d="M189.5,323.25c-.69,0-1.28-.56-1.28-1.28s.58-1.28,1.27-1.28c.62,0,1.28.48,1.28,1.28,0,.64-.51,1.28-1.28,1.28Z"
       id="path714" />
    <path
       class="cls-4"
       d="M155.1,328.54c-.63,0-1.28-.5-1.28-1.28,0-.71.58-1.28,1.28-1.28s1.28.55,1.28,1.28c0,.77-.63,1.28-1.28,1.28Z"
       id="path716" />
    <path
       class="cls-4"
       d="M160.4,328.54c-.7,0-1.28-.57-1.28-1.28s.58-1.28,1.28-1.28,1.28.56,1.28,1.28c0,.76-.63,1.28-1.28,1.28h0Z"
       id="path718" />
    <path
       class="cls-4"
       d="M165.69,328.54c-.66,0-1.28-.52-1.28-1.28s.59-1.28,1.28-1.28,1.28.57,1.28,1.28-.6,1.28-1.28,1.28Z"
       id="path720" />
    <path
       class="cls-4"
       d="M170.98,328.54c-.71,0-1.28-.58-1.28-1.28s.57-1.28,1.28-1.28,1.28.56,1.28,1.28c0,.72-.59,1.28-1.28,1.28h0Z"
       id="path722" />
    <path
       class="cls-4"
       d="M176.27,328.54c-.7,0-1.28-.57-1.28-1.28,0-.65.51-1.28,1.28-1.28.7,0,1.27.57,1.27,1.28,0,.77-.64,1.28-1.28,1.28Z"
       id="path724" />
    <path
       id="circle726"
       class="cls-4"
       style="fill:#ffffff;stroke-width:0px"
       d="m 182.84,327.26999 a 1.28,1.28 0 0 1 -1.28,1.28 1.28,1.28 0 0 1 -1.28,-1.28 1.28,1.28 0 0 1 1.28,-1.28 1.28,1.28 0 0 1 1.28,1.28 z" />
    <path
       class="cls-4"
       d="M186.86,328.54c-.64,0-1.28-.5-1.28-1.28,0-.71.57-1.28,1.28-1.28.66,0,1.28.52,1.28,1.28,0,.71-.58,1.28-1.28,1.28Z"
       id="path728" />
    <path
       class="cls-4"
       d="M192.15,328.54c-.66,0-1.28-.52-1.28-1.28,0-.71.57-1.28,1.28-1.28.8,0,1.28.66,1.28,1.28,0,.34-.14.67-.37.9-.24.24-.57.37-.9.37h0Z"
       id="path730" />
    <path
       class="cls-4"
       d="M157.75,333.83c-.67,0-1.28-.54-1.28-1.28,0-.7.57-1.28,1.28-1.28s1.28.57,1.28,1.28-.57,1.28-1.28,1.28h0Z"
       id="path732" />
    <path
       class="cls-4"
       d="M163.04,333.83c-.67,0-1.28-.54-1.28-1.28s.57-1.28,1.28-1.28,1.28.58,1.28,1.28c0,.74-.6,1.28-1.28,1.28Z"
       id="path734" />
    <path
       class="cls-4"
       d="M168.34,333.83c-.67,0-1.28-.54-1.28-1.28s.58-1.28,1.28-1.28,1.28.6,1.28,1.28c0,.7-.57,1.28-1.28,1.28Z"
       id="path736" />
    <path
       class="cls-4"
       d="M173.63,333.83c-.7,0-1.28-.57-1.28-1.28s.57-1.28,1.28-1.28,1.28.57,1.28,1.28c0,.69-.56,1.28-1.28,1.28Z"
       id="path738" />
    <path
       class="cls-4"
       d="M178.92,333.83c-.71,0-1.28-.58-1.28-1.28s.56-1.28,1.28-1.28,1.28.58,1.28,1.28-.58,1.28-1.28,1.28Z"
       id="path740" />
    <path
       class="cls-4"
       d="M184.21,333.83c-.67,0-1.28-.54-1.28-1.28,0-.69.57-1.28,1.28-1.28s1.28.58,1.28,1.28c0,.74-.6,1.28-1.28,1.28h0Z"
       id="path742" />
    <path
       class="cls-4"
       d="M189.5,333.83c-.08,0-.17,0-.25-.03-.57-.11-1.03-.63-1.03-1.25,0-.72.58-1.28,1.28-1.28.73,0,1.28.6,1.28,1.28,0,.73-.6,1.28-1.28,1.28Z"
       id="path744" />
    <path
       class="cls-4"
       d="M155.1,339.13c-.71,0-1.28-.58-1.28-1.28s.6-1.28,1.28-1.28,1.28.57,1.28,1.28c0,.71-.58,1.28-1.28,1.28Z"
       id="path746" />
    <path
       class="cls-4"
       d="M160.4,339.13c-.69,0-1.28-.56-1.28-1.28s.58-1.28,1.28-1.28,1.28.57,1.28,1.28c0,.69-.56,1.28-1.28,1.28h0Z"
       id="path748" />
    <path
       class="cls-4"
       d="M165.69,339.13c-.7,0-1.28-.57-1.28-1.28s.59-1.28,1.28-1.28,1.28.59,1.28,1.28-.57,1.28-1.28,1.28h0Z"
       id="path750" />
    <path
       id="circle752"
       class="cls-4"
       style="fill:#ffffff;stroke-width:0px"
       d="m 172.26,337.85001 a 1.28,1.28 0 0 1 -1.28,1.28 1.28,1.28 0 0 1 -1.28,-1.28 1.28,1.28 0 0 1 1.28,-1.28 1.28,1.28 0 0 1 1.28,1.28 z" />
    <path
       class="cls-4"
       d="M176.27,339.13c-.77,0-1.28-.63-1.28-1.28,0-.7.57-1.28,1.27-1.28s1.28.56,1.28,1.28-.57,1.28-1.28,1.28h0Z"
       id="path754" />
    <path
       class="cls-4"
       d="M181.56,339.13c-.69,0-1.28-.56-1.28-1.28s.56-1.28,1.28-1.28,1.28.58,1.28,1.28c0,.71-.57,1.28-1.28,1.28Z"
       id="path756" />
    <path
       class="cls-4"
       d="M186.86,339.13c-.69,0-1.28-.56-1.28-1.28s.54-1.28,1.28-1.28,1.27.59,1.27,1.28-.56,1.28-1.28,1.28Z"
       id="path758" />
    <path
       class="cls-4"
       d="M192.15,339.13c-.72,0-1.28-.58-1.28-1.28,0-.73.6-1.28,1.28-1.28s1.28.55,1.28,1.28c0,.69-.56,1.28-1.28,1.28Z"
       id="path760" />
    <path
       class="cls-4"
       d="M157.75,344.42c-.71,0-1.28-.57-1.28-1.28s.57-1.28,1.28-1.28,1.28.58,1.28,1.28-.56,1.28-1.28,1.28h0Z"
       id="path762" />
    <path
       class="cls-4"
       d="M163.04,344.42c-.71,0-1.28-.58-1.28-1.28s.59-1.28,1.27-1.28c.73,0,1.28.6,1.28,1.28s-.56,1.28-1.28,1.28Z"
       id="path764" />
    <path
       class="cls-4"
       d="M168.34,344.42c-.79,0-1.28-.66-1.28-1.28,0-.7.57-1.28,1.28-1.28s1.27.6,1.27,1.28c0,.71-.58,1.28-1.28,1.28Z"
       id="path766" />
    <path
       class="cls-4"
       d="M173.63,344.42c-.71,0-1.28-.57-1.28-1.28s.58-1.28,1.28-1.28,1.28.57,1.28,1.28c0,.71-.58,1.28-1.28,1.28Z"
       id="path768" />
    <path
       class="cls-4"
       d="M178.92,344.42c-.69,0-1.28-.55-1.28-1.28s.59-1.28,1.27-1.28,1.28.58,1.28,1.28c0,.7-.57,1.28-1.28,1.28h0Z"
       id="path770" />
    <path
       class="cls-4"
       d="M184.21,344.42c-.7,0-1.28-.57-1.28-1.28s.56-1.28,1.28-1.28,1.27.59,1.27,1.28c0,.34-.14.67-.37.9-.25.24-.57.37-.9.37Z"
       id="path772" />
    <path
       class="cls-4"
       d="M189.5,344.42c-.74,0-1.28-.6-1.28-1.28s.57-1.28,1.28-1.28,1.28.57,1.28,1.28c0,.71-.57,1.28-1.28,1.28Z"
       id="path774" />
    <path
       class="cls-4"
       d="M155.1,349.71c-.68,0-1.28-.56-1.28-1.28s.58-1.28,1.28-1.28,1.28.57,1.28,1.28c0,.7-.56,1.28-1.28,1.28Z"
       id="path776" />
    <path
       class="cls-4"
       d="M160.4,349.71c-.68,0-1.28-.55-1.28-1.28s.57-1.28,1.28-1.28,1.28.57,1.28,1.28-.58,1.28-1.28,1.28h0Z"
       id="path778" />
    <path
       class="cls-4"
       d="M164.44,348.68c-.15-.82.47-1.53,1.25-1.53.7,0,1.28.57,1.28,1.28,0,.25-.11.89-.79,1.18-.74.31-1.58-.13-1.74-.93h0Z"
       id="path780" />
    <path
       class="cls-4"
       d="M170.98,349.71c-.7,0-1.28-.57-1.28-1.28s.58-1.28,1.28-1.28,1.28.58,1.28,1.28-.59,1.28-1.28,1.28Z"
       id="path782" />
    <path
       class="cls-4"
       d="M176.27,349.71c-.68,0-1.28-.55-1.28-1.28,0-.68.55-1.28,1.28-1.28s1.28.58,1.28,1.28c0,.66-.53,1.28-1.28,1.28Z"
       id="path784" />
    <path
       class="cls-4"
       d="M181.56,349.71c-.71,0-1.28-.59-1.28-1.28s.57-1.28,1.28-1.28,1.28.57,1.28,1.28c0,.71-.57,1.28-1.28,1.28Z"
       id="path786" />
    <path
       class="cls-4"
       d="M186.86,349.71c-.68,0-1.28-.55-1.28-1.28s.57-1.28,1.28-1.28,1.28.6,1.28,1.28c0,.72-.6,1.28-1.28,1.28Z"
       id="path788" />
    <path
       class="cls-4"
       d="M192.15,349.71c-.66,0-1.28-.52-1.28-1.28,0-.71.57-1.28,1.28-1.28s1.28.57,1.28,1.28c0,.72-.59,1.28-1.28,1.28Z"
       id="path790" />
    <path
       class="cls-4"
       d="M157.75,355c-.71,0-1.28-.58-1.28-1.28s.55-1.28,1.28-1.28,1.28.59,1.28,1.28-.59,1.28-1.28,1.28Z"
       id="path792" />
    <path
       class="cls-4"
       d="M163.04,355c-.67,0-1.28-.54-1.28-1.28s.58-1.28,1.28-1.28c.76,0,1.28.63,1.28,1.28,0,.71-.58,1.28-1.28,1.28h0Z"
       id="path794" />
    <path
       class="cls-4"
       d="M168.34,355c-.69,0-1.28-.56-1.28-1.28s.57-1.28,1.28-1.28,1.28.58,1.28,1.28c0,.72-.59,1.28-1.28,1.28Z"
       id="path796" />
    <path
       class="cls-4"
       d="M173.63,355c-.71,0-1.28-.58-1.28-1.28s.57-1.28,1.28-1.28,1.28.57,1.28,1.28-.58,1.28-1.28,1.28h0Z"
       id="path798" />
    <path
       class="cls-4"
       d="M178.92,355c-.71,0-1.28-.58-1.28-1.28s.55-1.28,1.28-1.28,1.28.58,1.28,1.28c0,.77-.64,1.28-1.28,1.28Z"
       id="path800" />
    <path
       class="cls-4"
       d="M184.21,355c-.71,0-1.28-.57-1.28-1.28s.57-1.28,1.28-1.28,1.28.57,1.28,1.28c0,.71-.58,1.28-1.28,1.28Z"
       id="path802" />
    <path
       class="cls-4"
       d="M189.5,355c-.68,0-1.28-.54-1.28-1.28s.57-1.28,1.28-1.28,1.28.6,1.28,1.28-.58,1.28-1.28,1.28h0Z"
       id="path804" />
    <path
       class="cls-4"
       d="M157.75,365.59c-.7,0-1.28-.57-1.28-1.28s.56-1.28,1.28-1.28,1.28.57,1.28,1.28-.57,1.28-1.28,1.28h0Z"
       id="path806" />
    <path
       class="cls-4"
       d="M163.04,365.59c-.71,0-1.28-.57-1.28-1.28s.6-1.28,1.27-1.28c.73,0,1.28.6,1.28,1.28s-.55,1.28-1.28,1.28Z"
       id="path808" />
    <path
       id="circle810"
       class="cls-4"
       style="fill:#ffffff;stroke-width:0px"
       d="m 169.62,364.31 a 1.28,1.28 0 0 1 -1.28,1.28 1.28,1.28 0 0 1 -1.28,-1.28 1.28,1.28 0 0 1 1.28,-1.28 1.28,1.28 0 0 1 1.28,1.28 z" />
    <path
       class="cls-4"
       d="M173.63,365.59c-.83,0-1.41-.77-1.25-1.53.11-.59.64-1.03,1.25-1.03.71,0,1.28.58,1.28,1.28s-.57,1.28-1.28,1.28Z"
       id="path812" />
    <path
       class="cls-4"
       d="M178.92,365.59c-.69,0-1.28-.56-1.28-1.28s.57-1.28,1.28-1.28,1.28.58,1.28,1.28-.57,1.28-1.28,1.28Z"
       id="path814" />
    <path
       class="cls-4"
       d="M184.21,365.59c-.7,0-1.28-.56-1.28-1.28s.58-1.28,1.28-1.28,1.28.6,1.28,1.28c0,.71-.58,1.28-1.28,1.28Z"
       id="path816" />
    <path
       id="circle818"
       class="cls-4"
       style="fill:#ffffff;stroke-width:0px"
       d="m 190.78,364.31 a 1.28,1.28 0 0 1 -1.28,1.28 1.28,1.28 0 0 1 -1.28,-1.28 1.28,1.28 0 0 1 1.28,-1.28 1.28,1.28 0 0 1 1.28,1.28 z" />
    <path
       class="cls-4"
       d="M155.1,360.3c-.71,0-1.28-.58-1.28-1.28s.58-1.28,1.28-1.28,1.28.52,1.28,1.28c0,.72-.59,1.28-1.28,1.28Z"
       id="path820" />
    <path
       class="cls-4"
       d="M160.4,360.3c-.79,0-1.41-.71-1.25-1.53.13-.62.66-1.03,1.25-1.03.68,0,1.28.55,1.28,1.28,0,.7-.57,1.28-1.28,1.28h0Z"
       id="path822" />
    <path
       class="cls-4"
       d="M165.69,360.3c-.59,0-1.12-.4-1.25-1.03-.16-.85.49-1.53,1.25-1.53.68,0,1.28.55,1.28,1.28s-.57,1.28-1.28,1.28h0Z"
       id="path824" />
    <path
       class="cls-4"
       d="M170.98,360.3c-.7,0-1.28-.57-1.28-1.28s.59-1.28,1.28-1.28,1.28.56,1.28,1.28c0,.69-.56,1.28-1.28,1.28h0Z"
       id="path826" />
    <path
       class="cls-4"
       d="M176.27,360.3c-.73,0-1.28-.6-1.28-1.28,0-.72.59-1.28,1.28-1.28s1.28.56,1.28,1.28c0,.72-.59,1.28-1.28,1.28Z"
       id="path828" />
    <path
       class="cls-4"
       d="M181.56,360.3c-.72,0-1.28-.59-1.28-1.28s.56-1.28,1.28-1.28,1.28.55,1.28,1.28c0,.7-.56,1.28-1.28,1.28Z"
       id="path830" />
    <path
       class="cls-4"
       d="M186.86,360.3c-.71,0-1.28-.58-1.28-1.28s.58-1.28,1.28-1.28,1.28.55,1.28,1.28c0,.67-.54,1.28-1.28,1.28Z"
       id="path832" />
    <path
       class="cls-4"
       d="M192.15,360.3c-.7,0-1.28-.57-1.28-1.28s.59-1.28,1.28-1.28,1.28.58,1.28,1.28c0,.69-.56,1.28-1.28,1.28Z"
       id="path834" />
  </g>
</svg>
