<?xml version="1.0" encoding="UTF-8"?>
<svg id="Warstwa_2" data-name="Warstwa 2" xmlns="http://www.w3.org/2000/svg" xmlns:xlink="http://www.w3.org/1999/xlink" viewBox="0 0 599 598">
  <defs>
    <style>
      .cls-1 {
        fill: #000;
      }

      .cls-1, .cls-2, .cls-3 {
        stroke-width: 0px;
      }

      .cls-4, .cls-5, .cls-6 {
        fill: #010000;
      }

      .cls-5, .cls-7 {
        font-family: Poppins-Medium, Poppins;
        font-size: 17.03px;
        font-weight: 500;
      }

      .cls-8, .cls-9 {
        stroke: #ca151a;
      }

      .cls-8, .cls-9, .cls-10 {
        stroke-miterlimit: 10;
      }

      .cls-8, .cls-10 {
        stroke-width: 13px;
      }

      .cls-8, .cls-2 {
        fill: #fff;
      }

      .cls-9 {
        filter: url(#drop-shadow-1);
        stroke-width: 13.81px;
      }

      .cls-9, .cls-10 {
        fill: none;
      }

      .cls-6 {
        font-size: 25.46px;
      }

      .cls-6, .cls-11 {
        font-family: Poppins-Bold, Poppins;
        font-weight: 700;
      }

      .cls-11 {
        font-size: 35.32px;
      }

      .cls-7, .cls-12 {
        fill: #ca151a;
      }

      .cls-10 {
        stroke: #fdd203;
      }

      .cls-3 {
        fill: #fdd203;
      }
    </style>
    <filter id="drop-shadow-1" filterUnits="userSpaceOnUse">
      <feOffset dx="0" dy="0"/>
      <feGaussianBlur result="blur" stdDeviation="19.84"/>
      <feFlood flood-color="#000" flood-opacity=".47"/>
      <feComposite in2="blur" operator="in"/>
      <feComposite in="SourceGraphic"/>
    </filter>
  </defs>
  <g id="Warstwa_1-2" data-name="Warstwa 1">
    <circle class="cls-9" cx="299.8" cy="299.05" r="232.52"/>
    <circle class="cls-8" cx="299.8" cy="299.05" r="218.93"/>
    <circle class="cls-10" cx="299.8" cy="299.05" r="218.93"/>
    <text class="cls-5" transform="translate(137.5 236.66) scale(.96 1)"><tspan x="0" y="0">Witamy na naszej stronie produktowej. </tspan></text>
    <path class="cls-3" d="M386.26,133.92v28.34h27.65v13.14h-27.65v28.33h-14.52v-28.33h-27.65v-13.14h27.65v-28.34h14.52Z"/>
    <text class="cls-7" transform="translate(137.5 259.78) scale(.96 1)"><tspan x="0" y="0">Znajdziesz tu:</tspan></text>
    <g>
      <text class="cls-6" transform="translate(232.7 313.61) scale(.96 1)"><tspan x="0" y="0">pełną ofertę płyt</tspan></text>
      <text class="cls-11" transform="translate(232.15 353.32) scale(.96 1)"><tspan class="cls-4" x="0" y="0">pilśniowych</tspan><tspan class="cls-12" x="219.33" y="0">.</tspan></text>
      <g>
        <g>
          <path class="cls-1" d="M145.17,358.32h-4.13c-.64,0-1.16-.52-1.16-1.16v-66.48c0-.64.52-1.16,1.16-1.16h46.47v5.29l-42.34,63.51Z"/>
          <path class="cls-1" d="M182.4,289.52v5.29l1.58,5.29,3.53-5.29v-4.13c0-.64-.52-1.16-1.16-1.16h-3.95Z"/>
          <path class="cls-2" d="M155.85,363c-3.18.2-6.35.41-9.52.61-.64,0-1.16-.52-1.16-1.16v-66.48c0-.64.52-1.16,1.16-1.16h41.36c.84.01,1.69.03,2.53.04.09,3.26.19,6.52.28,9.79-11.55,19.45-23.1,38.9-34.65,58.36Z"/>
          <path class="cls-1" d="M193.94,299.94c-13.36.06-26.71.11-40.07.17-1.88,0-3.41,1.53-3.41,3.41v68.04c15.68,0,31.37,0,47.05,0-.05-22.73-.09-45.45-.14-68.18,0-.25-.04-1.42-.98-2.39-.98-1.01-2.22-1.05-2.46-1.05Z"/>
        </g>
        <g>
          <g>
            <path class="cls-2" d="M155.75,306.68c-.72,0-1.28-.59-1.28-1.28s.54-1.28,1.28-1.28,1.28.58,1.28,1.28-.56,1.28-1.28,1.28h0Z"/>
            <path class="cls-2" d="M161.05,306.68c-.72,0-1.28-.58-1.28-1.28s.56-1.28,1.28-1.28,1.28.6,1.28,1.28-.53,1.28-1.28,1.28Z"/>
            <path class="cls-2" d="M166.34,306.68c-.72,0-1.28-.58-1.28-1.28s.57-1.28,1.28-1.28,1.28.59,1.28,1.28-.56,1.28-1.28,1.28h0Z"/>
            <path class="cls-2" d="M171.63,306.68c-.72,0-1.28-.58-1.28-1.28s.57-1.28,1.28-1.28,1.28.57,1.28,1.28c0,.72-.59,1.28-1.28,1.28h0Z"/>
            <path class="cls-2" d="M176.92,306.68c-.72,0-1.28-.59-1.28-1.28s.54-1.28,1.28-1.28,1.28.57,1.28,1.28c0,.71-.58,1.28-1.28,1.28Z"/>
            <path class="cls-2" d="M182.21,306.68c-.71,0-1.28-.58-1.28-1.28s.57-1.28,1.28-1.28,1.28.57,1.28,1.28c0,.73-.6,1.28-1.28,1.28Z"/>
            <path class="cls-2" d="M187.51,306.68c-.69,0-1.28-.56-1.28-1.28s.57-1.28,1.28-1.28,1.28.59,1.28,1.28-.57,1.28-1.28,1.28Z"/>
            <path class="cls-2" d="M192.8,306.68c-.61,0-1.14-.44-1.25-1.03-.16-.77.43-1.53,1.25-1.53.71,0,1.28.58,1.28,1.28,0,.68-.56,1.28-1.28,1.28h0Z"/>
          </g>
          <g>
            <path class="cls-2" d="M158.4,311.97c-.69,0-1.28-.56-1.28-1.28,0-.66.53-1.28,1.28-1.28.7,0,1.27.57,1.27,1.28,0,.73-.6,1.28-1.28,1.28Z"/>
            <path class="cls-2" d="M163.69,311.97c-.68,0-1.28-.55-1.28-1.28s.56-1.28,1.28-1.28,1.27.59,1.27,1.28c0,.73-.6,1.28-1.28,1.28h0Z"/>
            <path class="cls-2" d="M168.98,311.97c-.82,0-1.41-.76-1.25-1.53.11-.59.64-1.03,1.25-1.03.68,0,1.28.55,1.28,1.28,0,.7-.57,1.28-1.28,1.28h0Z"/>
            <path class="cls-2" d="M174.28,311.97c-.71,0-1.28-.58-1.28-1.28s.58-1.28,1.28-1.28,1.28.57,1.28,1.28c0,.7-.57,1.28-1.28,1.28Z"/>
            <path class="cls-2" d="M179.57,311.97c-.71,0-1.28-.58-1.28-1.28s.56-1.28,1.27-1.28,1.28.57,1.28,1.28-.6,1.28-1.28,1.28Z"/>
            <path class="cls-2" d="M184.86,311.97c-.67,0-1.28-.54-1.28-1.28,0-.7.56-1.28,1.27-1.28s1.28.58,1.28,1.28-.59,1.28-1.28,1.28Z"/>
            <path class="cls-2" d="M190.15,311.97c-.68,0-1.28-.55-1.28-1.28s.58-1.28,1.28-1.28,1.27.57,1.27,1.28c0,.7-.57,1.28-1.28,1.28Z"/>
          </g>
          <g>
            <circle class="cls-2" cx="155.75" cy="315.98" r="1.28"/>
            <path class="cls-2" d="M161.05,317.26c-.71,0-1.28-.58-1.28-1.28,0-.61.49-1.28,1.28-1.28.71,0,1.28.57,1.28,1.28,0,.71-.57,1.28-1.28,1.28Z"/>
            <path class="cls-2" d="M166.34,317.26c-.71,0-1.28-.57-1.28-1.28,0-.79.66-1.28,1.28-1.28.67,0,1.28.54,1.28,1.28s-.57,1.28-1.28,1.28Z"/>
            <path class="cls-2" d="M171.63,317.26c-.71,0-1.28-.57-1.28-1.28s.6-1.28,1.28-1.28,1.28.57,1.28,1.28c0,.71-.58,1.28-1.28,1.28h0Z"/>
            <path class="cls-2" d="M176.92,317.26c-.7,0-1.28-.57-1.28-1.28s.59-1.28,1.28-1.28c.65,0,1.28.52,1.28,1.28,0,.71-.58,1.28-1.28,1.28Z"/>
            <path class="cls-2" d="M182.21,317.26c-.7,0-1.28-.56-1.28-1.28s.59-1.28,1.28-1.28,1.28.53,1.28,1.28c0,.7-.57,1.28-1.28,1.28Z"/>
            <path class="cls-2" d="M187.51,317.26c-.73,0-1.28-.59-1.28-1.28s.56-1.28,1.28-1.28,1.28.59,1.28,1.28-.57,1.28-1.28,1.28Z"/>
            <path class="cls-2" d="M192.8,317.26c-.71,0-1.28-.57-1.28-1.28s.6-1.28,1.28-1.28,1.28.58,1.28,1.28c0,.71-.58,1.28-1.28,1.28Z"/>
          </g>
          <g>
            <path class="cls-2" d="M158.4,322.55c-.68,0-1.28-.56-1.28-1.28s.59-1.28,1.27-1.28c.72,0,1.28.58,1.28,1.28s-.58,1.28-1.28,1.28Z"/>
            <path class="cls-2" d="M163.69,322.55c-.7,0-1.28-.56-1.28-1.28s.58-1.28,1.27-1.28c.62,0,1.28.48,1.28,1.28,0,.69-.56,1.28-1.28,1.28Z"/>
            <path class="cls-2" d="M168.98,322.55c-.7,0-1.28-.57-1.28-1.28s.58-1.28,1.27-1.28c.62,0,1.28.48,1.28,1.28,0,.64-.5,1.28-1.28,1.28Z"/>
            <path class="cls-2" d="M174.28,322.55c-.68,0-1.28-.55-1.28-1.28s.59-1.28,1.27-1.28c.62,0,1.28.48,1.28,1.28,0,.71-.58,1.28-1.28,1.28Z"/>
            <path class="cls-2" d="M179.57,322.55c-.71,0-1.28-.59-1.28-1.28s.54-1.28,1.28-1.28c.7,0,1.28.57,1.28,1.28,0,.7-.57,1.28-1.28,1.28Z"/>
            <path class="cls-2" d="M184.86,322.55c-.72,0-1.28-.59-1.28-1.28s.57-1.28,1.28-1.28c.78,0,1.41.71,1.25,1.53-.13.62-.66,1.03-1.25,1.03Z"/>
            <path class="cls-2" d="M190.15,322.55c-.69,0-1.28-.56-1.28-1.28s.58-1.28,1.27-1.28c.62,0,1.28.48,1.28,1.28,0,.64-.51,1.28-1.28,1.28Z"/>
          </g>
          <g>
            <path class="cls-2" d="M155.75,327.84c-.63,0-1.28-.5-1.28-1.28,0-.71.58-1.28,1.28-1.28s1.28.55,1.28,1.28c0,.77-.63,1.28-1.28,1.28Z"/>
            <path class="cls-2" d="M161.05,327.84c-.7,0-1.28-.57-1.28-1.28s.58-1.28,1.28-1.28,1.28.56,1.28,1.28c0,.76-.63,1.28-1.28,1.28h0Z"/>
            <path class="cls-2" d="M166.34,327.84c-.66,0-1.28-.52-1.28-1.28s.59-1.28,1.28-1.28,1.28.57,1.28,1.28-.6,1.28-1.28,1.28Z"/>
            <path class="cls-2" d="M171.63,327.84c-.71,0-1.28-.58-1.28-1.28s.57-1.28,1.28-1.28,1.28.56,1.28,1.28c0,.72-.59,1.28-1.28,1.28h0Z"/>
            <path class="cls-2" d="M176.92,327.84c-.7,0-1.28-.57-1.28-1.28,0-.65.51-1.28,1.28-1.28.7,0,1.27.57,1.27,1.28,0,.77-.64,1.28-1.28,1.28Z"/>
            <circle class="cls-2" cx="182.21" cy="326.57" r="1.28"/>
            <path class="cls-2" d="M187.51,327.84c-.64,0-1.28-.5-1.28-1.28,0-.71.57-1.28,1.28-1.28.66,0,1.28.52,1.28,1.28,0,.71-.58,1.28-1.28,1.28Z"/>
            <path class="cls-2" d="M192.8,327.84c-.66,0-1.28-.52-1.28-1.28,0-.71.57-1.28,1.28-1.28.8,0,1.28.66,1.28,1.28,0,.34-.14.67-.37.9-.24.24-.57.37-.9.37h0Z"/>
          </g>
          <g>
            <path class="cls-2" d="M158.4,333.14c-.67,0-1.28-.54-1.28-1.28,0-.7.57-1.28,1.28-1.28s1.28.57,1.28,1.28-.57,1.28-1.28,1.28h0Z"/>
            <path class="cls-2" d="M163.69,333.14c-.67,0-1.28-.54-1.28-1.28s.57-1.28,1.28-1.28,1.28.58,1.28,1.28c0,.74-.6,1.28-1.28,1.28Z"/>
            <path class="cls-2" d="M168.98,333.14c-.67,0-1.28-.54-1.28-1.28s.58-1.28,1.28-1.28,1.28.6,1.28,1.28c0,.7-.57,1.28-1.28,1.28Z"/>
            <path class="cls-2" d="M174.28,333.14c-.7,0-1.28-.57-1.28-1.28s.57-1.28,1.28-1.28,1.28.57,1.28,1.28c0,.69-.56,1.28-1.28,1.28Z"/>
            <path class="cls-2" d="M179.57,333.14c-.71,0-1.28-.58-1.28-1.28s.56-1.28,1.28-1.28,1.28.58,1.28,1.28-.58,1.28-1.28,1.28Z"/>
            <path class="cls-2" d="M184.86,333.14c-.67,0-1.28-.54-1.28-1.28,0-.69.57-1.28,1.28-1.28s1.28.58,1.28,1.28c0,.74-.6,1.28-1.28,1.28h0Z"/>
            <path class="cls-2" d="M190.15,333.14c-.08,0-.17,0-.25-.03-.57-.11-1.03-.63-1.03-1.25,0-.72.58-1.28,1.28-1.28.73,0,1.28.6,1.28,1.28,0,.73-.6,1.28-1.28,1.28Z"/>
          </g>
          <g>
            <path class="cls-2" d="M155.75,338.43c-.71,0-1.28-.58-1.28-1.28s.6-1.28,1.28-1.28,1.28.57,1.28,1.28c0,.71-.58,1.28-1.28,1.28Z"/>
            <path class="cls-2" d="M161.05,338.43c-.69,0-1.28-.56-1.28-1.28s.58-1.28,1.28-1.28,1.28.57,1.28,1.28c0,.69-.56,1.28-1.28,1.28h0Z"/>
            <path class="cls-2" d="M166.34,338.43c-.7,0-1.28-.57-1.28-1.28s.59-1.28,1.28-1.28,1.28.59,1.28,1.28-.57,1.28-1.28,1.28h0Z"/>
            <circle class="cls-2" cx="171.63" cy="337.15" r="1.28"/>
            <path class="cls-2" d="M176.92,338.43c-.77,0-1.28-.63-1.28-1.28,0-.7.57-1.28,1.27-1.28s1.28.56,1.28,1.28-.57,1.28-1.28,1.28h0Z"/>
            <path class="cls-2" d="M182.21,338.43c-.69,0-1.28-.56-1.28-1.28s.56-1.28,1.28-1.28,1.28.58,1.28,1.28c0,.71-.57,1.28-1.28,1.28Z"/>
            <path class="cls-2" d="M187.51,338.43c-.69,0-1.28-.56-1.28-1.28s.54-1.28,1.28-1.28,1.27.59,1.27,1.28-.56,1.28-1.28,1.28Z"/>
            <path class="cls-2" d="M192.8,338.43c-.72,0-1.28-.58-1.28-1.28,0-.73.6-1.28,1.28-1.28s1.28.55,1.28,1.28c0,.69-.56,1.28-1.28,1.28Z"/>
          </g>
          <g>
            <path class="cls-2" d="M158.4,343.72c-.71,0-1.28-.57-1.28-1.28s.57-1.28,1.28-1.28,1.28.58,1.28,1.28-.56,1.28-1.28,1.28h0Z"/>
            <path class="cls-2" d="M163.69,343.72c-.71,0-1.28-.58-1.28-1.28s.59-1.28,1.27-1.28c.73,0,1.28.6,1.28,1.28s-.56,1.28-1.28,1.28Z"/>
            <path class="cls-2" d="M168.98,343.72c-.79,0-1.28-.66-1.28-1.28,0-.7.57-1.28,1.28-1.28s1.27.6,1.27,1.28c0,.71-.58,1.28-1.28,1.28Z"/>
            <path class="cls-2" d="M174.28,343.72c-.71,0-1.28-.57-1.28-1.28s.58-1.28,1.28-1.28,1.28.57,1.28,1.28c0,.71-.58,1.28-1.28,1.28Z"/>
            <path class="cls-2" d="M179.57,343.72c-.69,0-1.28-.55-1.28-1.28s.59-1.28,1.27-1.28,1.28.58,1.28,1.28c0,.7-.57,1.28-1.28,1.28h0Z"/>
            <path class="cls-2" d="M184.86,343.72c-.7,0-1.28-.57-1.28-1.28s.56-1.28,1.28-1.28,1.27.59,1.27,1.28c0,.34-.14.67-.37.9-.25.24-.57.37-.9.37Z"/>
            <path class="cls-2" d="M190.15,343.72c-.74,0-1.28-.6-1.28-1.28s.57-1.28,1.28-1.28,1.28.57,1.28,1.28c0,.71-.57,1.28-1.28,1.28Z"/>
          </g>
          <g>
            <path class="cls-2" d="M155.75,349.01c-.68,0-1.28-.56-1.28-1.28s.58-1.28,1.28-1.28,1.28.57,1.28,1.28c0,.7-.56,1.28-1.28,1.28Z"/>
            <path class="cls-2" d="M161.05,349.01c-.68,0-1.28-.55-1.28-1.28s.57-1.28,1.28-1.28,1.28.57,1.28,1.28-.58,1.28-1.28,1.28h0Z"/>
            <path class="cls-2" d="M165.08,347.98c-.15-.82.47-1.53,1.25-1.53.7,0,1.28.57,1.28,1.28,0,.25-.11.89-.79,1.18-.74.31-1.58-.13-1.74-.93h0Z"/>
            <path class="cls-2" d="M171.63,349.01c-.7,0-1.28-.57-1.28-1.28s.58-1.28,1.28-1.28,1.28.58,1.28,1.28-.59,1.28-1.28,1.28Z"/>
            <path class="cls-2" d="M176.92,349.01c-.68,0-1.28-.55-1.28-1.28,0-.68.55-1.28,1.28-1.28s1.28.58,1.28,1.28c0,.66-.53,1.28-1.28,1.28Z"/>
            <path class="cls-2" d="M182.21,349.01c-.71,0-1.28-.59-1.28-1.28s.57-1.28,1.28-1.28,1.28.57,1.28,1.28c0,.71-.57,1.28-1.28,1.28Z"/>
            <path class="cls-2" d="M187.51,349.01c-.68,0-1.28-.55-1.28-1.28s.57-1.28,1.28-1.28,1.28.6,1.28,1.28c0,.72-.6,1.28-1.28,1.28Z"/>
            <path class="cls-2" d="M192.8,349.01c-.66,0-1.28-.52-1.28-1.28,0-.71.57-1.28,1.28-1.28s1.28.57,1.28,1.28c0,.72-.59,1.28-1.28,1.28Z"/>
          </g>
          <g>
            <path class="cls-2" d="M158.4,354.31c-.71,0-1.28-.58-1.28-1.28s.55-1.28,1.28-1.28,1.28.59,1.28,1.28-.59,1.28-1.28,1.28Z"/>
            <path class="cls-2" d="M163.69,354.31c-.67,0-1.28-.54-1.28-1.28s.58-1.28,1.28-1.28c.76,0,1.28.63,1.28,1.28,0,.71-.58,1.28-1.28,1.28h0Z"/>
            <path class="cls-2" d="M168.98,354.31c-.69,0-1.28-.56-1.28-1.28s.57-1.28,1.28-1.28,1.28.58,1.28,1.28c0,.72-.59,1.28-1.28,1.28Z"/>
            <path class="cls-2" d="M174.28,354.31c-.71,0-1.28-.58-1.28-1.28s.57-1.28,1.28-1.28,1.28.57,1.28,1.28-.58,1.28-1.28,1.28h0Z"/>
            <path class="cls-2" d="M179.57,354.31c-.71,0-1.28-.58-1.28-1.28s.55-1.28,1.28-1.28,1.28.58,1.28,1.28c0,.77-.64,1.28-1.28,1.28Z"/>
            <path class="cls-2" d="M184.86,354.31c-.71,0-1.28-.57-1.28-1.28s.57-1.28,1.28-1.28,1.28.57,1.28,1.28c0,.71-.58,1.28-1.28,1.28Z"/>
            <path class="cls-2" d="M190.15,354.31c-.68,0-1.28-.54-1.28-1.28s.57-1.28,1.28-1.28,1.28.6,1.28,1.28-.58,1.28-1.28,1.28h0Z"/>
          </g>
          <g>
            <path class="cls-2" d="M158.4,364.89c-.7,0-1.28-.57-1.28-1.28s.56-1.28,1.28-1.28,1.28.57,1.28,1.28-.57,1.28-1.28,1.28h0Z"/>
            <path class="cls-2" d="M163.69,364.89c-.71,0-1.28-.57-1.28-1.28s.6-1.28,1.27-1.28c.73,0,1.28.6,1.28,1.28s-.55,1.28-1.28,1.28Z"/>
            <circle class="cls-2" cx="168.98" cy="363.61" r="1.28"/>
            <path class="cls-2" d="M174.28,364.89c-.83,0-1.41-.77-1.25-1.53.11-.59.64-1.03,1.25-1.03.71,0,1.28.58,1.28,1.28s-.57,1.28-1.28,1.28Z"/>
            <path class="cls-2" d="M179.57,364.89c-.69,0-1.28-.56-1.28-1.28s.57-1.28,1.28-1.28,1.28.58,1.28,1.28-.57,1.28-1.28,1.28Z"/>
            <path class="cls-2" d="M184.86,364.89c-.7,0-1.28-.56-1.28-1.28s.58-1.28,1.28-1.28,1.28.6,1.28,1.28c0,.71-.58,1.28-1.28,1.28Z"/>
            <circle class="cls-2" cx="190.15" cy="363.61" r="1.28"/>
          </g>
          <g>
            <path class="cls-2" d="M155.75,359.6c-.71,0-1.28-.58-1.28-1.28s.58-1.28,1.28-1.28,1.28.52,1.28,1.28c0,.72-.59,1.28-1.28,1.28Z"/>
            <path class="cls-2" d="M161.05,359.6c-.79,0-1.41-.71-1.25-1.53.13-.62.66-1.03,1.25-1.03.68,0,1.28.55,1.28,1.28,0,.7-.57,1.28-1.28,1.28h0Z"/>
            <path class="cls-2" d="M166.34,359.6c-.59,0-1.12-.4-1.25-1.03-.16-.85.49-1.53,1.25-1.53.68,0,1.28.55,1.28,1.28s-.57,1.28-1.28,1.28h0Z"/>
            <path class="cls-2" d="M171.63,359.6c-.7,0-1.28-.57-1.28-1.28s.59-1.28,1.28-1.28,1.28.56,1.28,1.28c0,.69-.56,1.28-1.28,1.28h0Z"/>
            <path class="cls-2" d="M176.92,359.6c-.73,0-1.28-.6-1.28-1.28,0-.72.59-1.28,1.28-1.28s1.28.56,1.28,1.28c0,.72-.59,1.28-1.28,1.28Z"/>
            <path class="cls-2" d="M182.21,359.6c-.72,0-1.28-.59-1.28-1.28s.56-1.28,1.28-1.28,1.28.55,1.28,1.28c0,.7-.56,1.28-1.28,1.28Z"/>
            <path class="cls-2" d="M187.51,359.6c-.71,0-1.28-.58-1.28-1.28s.58-1.28,1.28-1.28,1.28.55,1.28,1.28c0,.67-.54,1.28-1.28,1.28Z"/>
            <path class="cls-2" d="M192.8,359.6c-.7,0-1.28-.57-1.28-1.28s.59-1.28,1.28-1.28,1.28.58,1.28,1.28c0,.69-.56,1.28-1.28,1.28Z"/>
          </g>
        </g>
      </g>
    </g>
  </g>
</svg>