<?xml version="1.0" encoding="UTF-8"?>
<svg id="Warstwa_2" data-name="Warstwa 2" xmlns="http://www.w3.org/2000/svg" xmlns:xlink="http://www.w3.org/1999/xlink" viewBox="0 0 599 599">
  <defs>
    <style>
      .cls-1 {
        fill: #000;
      }

      .cls-1, .cls-2 {
        stroke-width: 0px;
      }

      .cls-3, .cls-4, .cls-5 {
        fill: #010000;
      }

      .cls-4, .cls-6 {
        font-family: Poppins-Medium, Poppins;
        font-size: 17.03px;
        font-weight: 500;
      }

      .cls-7 {
        fill: #fff;
      }

      .cls-7, .cls-8 {
        stroke: #ca151a;
      }

      .cls-7, .cls-8, .cls-9 {
        stroke-miterlimit: 10;
      }

      .cls-7, .cls-9 {
        stroke-width: 13px;
      }

      .cls-8 {
        filter: url(#drop-shadow-1);
        stroke-width: 13.81px;
      }

      .cls-8, .cls-9 {
        fill: none;
      }

      .cls-5 {
        font-size: 25.46px;
      }

      .cls-5, .cls-10 {
        font-family: Poppins-Bold, Poppins;
        font-weight: 700;
      }

      .cls-6, .cls-11 {
        fill: #ca151a;
      }

      .cls-9 {
        stroke: #fdd203;
      }

      .cls-2 {
        fill: #fdd203;
      }

      .cls-10 {
        font-size: 44.15px;
      }
    </style>
    <filter id="drop-shadow-1" filterUnits="userSpaceOnUse">
      <feOffset dx="0" dy="0"/>
      <feGaussianBlur result="blur" stdDeviation="19.84"/>
      <feFlood flood-color="#000" flood-opacity=".47"/>
      <feComposite in2="blur" operator="in"/>
      <feComposite in="SourceGraphic"/>
    </filter>
  </defs>
  <g id="Warstwa_1-2" data-name="Warstwa 1">
    <circle class="cls-8" cx="299.87" cy="299.21" r="232.52"/>
    <circle class="cls-7" cx="299.87" cy="299.21" r="218.93"/>
    <circle class="cls-9" cx="299.87" cy="299.21" r="218.93"/>
    <text class="cls-4" transform="translate(137.57 236.82) scale(.96 1)"><tspan x="0" y="0">Witamy na naszej stronie produktowej. </tspan></text>
    <path class="cls-2" d="M386.33,134.08v28.34h27.65v13.14h-27.65v28.33h-14.52v-28.33h-27.65v-13.14h27.65v-28.34h14.52Z"/>
    <text class="cls-6" transform="translate(137.57 259.94) scale(.96 1)"><tspan x="0" y="0">Znajdziesz tu:</tspan></text>
    <g>
      <text class="cls-5" transform="translate(232.77 313.77) scale(.96 1)"><tspan x="0" y="0">pełną ofertę</tspan></text>
      <text class="cls-10" transform="translate(232.22 361.57) scale(.96 1)"><tspan class="cls-3" x="0" y="0">sklejek</tspan><tspan class="cls-11" x="159.62" y="0">.</tspan></text>
      <g>
        <path class="cls-1" d="M157.01,328.62v-4.19c0-3.47-.56-6.92-1.66-10.21-1.18-3.52-1.77-7.21-1.77-10.93v-8.29h-2.29v1.14c-.03,11.24-3.63,22.18-10.29,31.23v3.83l2.29,3.05c.36.48.92.76,1.52.76,2.31,0,4.19,1.88,4.19,4.19v22.1h2.29v-8.47c0-4.38,1.02-8.7,2.98-12.62,1.8-3.6,2.73-7.57,2.74-11.6h0ZM151.29,336.15c-1.08,0-2.09-.51-2.74-1.37l-.87-1.16c-2.56-3.42-2.8-8.05-.6-11.71l1.46-2.43c.95-1.58,3-2.09,4.57-1.14,1,.6,1.62,1.69,1.62,2.86v11.53c0,1.89-1.54,3.43-3.43,3.43Z"/>
        <path class="cls-1" d="M159.3,361.3h2.29v-19.62c-1.5,2.32-2.29,5.03-2.29,7.8v11.82Z"/>
        <path class="cls-1" d="M182.16,361.3h2.29v-20.7c-1.51,3.35-2.29,6.98-2.29,10.65v10.05Z"/>
        <path class="cls-1" d="M151.39,320.15c-.37,0-.71.19-.9.51l-1.46,2.43c-1.72,2.87-1.53,6.49.47,9.16l.87,1.16c.38.51,1.1.61,1.6.23.29-.22.46-.55.46-.91v-11.53c0-.58-.47-1.05-1.05-1.05Z"/>
        <path class="cls-1" d="M155.87,303.29c0,3.47.56,6.92,1.66,10.21,1.18,3.52,1.77,7.21,1.77,10.93v4.19c0,4.38-1.02,8.7-2.97,12.62-1.8,3.6-2.74,7.57-2.74,11.6v8.47h3.43v-11.82c0-4.27,1.63-8.38,4.57-11.48v-43h-5.72v8.29Z"/>
        <path class="cls-1" d="M166.15,331.87v-4.19c0-4.38,1.02-8.7,2.98-12.62,1.8-3.6,2.73-7.57,2.74-11.6v-8.47h-3.43v11.82c0,4.27-1.63,8.38-4.57,11.48v43h5.72v-8.29c0-3.47-.56-6.92-1.66-10.21-1.18-3.52-1.77-7.21-1.77-10.93Z"/>
        <path class="cls-1" d="M143.29,295h-2.29v20.7c1.51-3.35,2.29-6.98,2.29-10.65v-10.05Z"/>
        <path class="cls-1" d="M144.81,337.3c-1.32,0-2.56-.62-3.35-1.68l-.46-.61v10.05l3.09,6.93c.5,1.11,1.46,1.95,2.63,2.29v-15.07c0-1.05-.85-1.9-1.91-1.91Z"/>
        <path class="cls-1" d="M166.15,295h-2.29v19.62c1.5-2.32,2.29-5.03,2.29-7.8v-11.82Z"/>
        <path class="cls-1" d="M142,352.92l-.99-2.23v10.62h5.72v-4.69c-2.09-.38-3.86-1.76-4.72-3.7Z"/>
        <path class="cls-1" d="M149.01,295h-3.43v10.05c0,5.48-1.59,10.83-4.57,15.42v2.88c5.2-8.12,7.98-17.56,8-27.21v-1.14Z"/>
        <path class="cls-1" d="M176.44,361.3h3.43v-10.05c0-5.48,1.59-10.83,4.57-15.42v-2.88c-5.2,8.12-7.98,17.56-8,27.21v1.14Z"/>
        <path class="cls-1" d="M186.73,327.01h20.58v2.29h-20.58v-2.29Z"/>
        <path class="cls-1" d="M186.73,345.3h20.58v2.29h-20.58v-2.29Z"/>
        <path class="cls-1" d="M175.07,322.89c-.38-.51-1.1-.61-1.6-.23-.29.22-.46.55-.46.91v11.53c0,.58.47,1.05,1.05,1.05.37,0,.71-.19.89-.51l1.46-2.43c1.72-2.87,1.53-6.49-.47-9.16l-.87-1.16Z"/>
        <path class="cls-1" d="M186.73,336.15h20.58v2.29h-20.58v-2.29Z"/>
        <path class="cls-1" d="M186.73,299.57h20.58v2.29h-20.58v-2.29Z"/>
        <path class="cls-1" d="M186.73,308.72h20.58v2.29h-20.58v-2.29Z"/>
        <path class="cls-1" d="M186.73,317.86h20.58v2.29h-20.58v-2.29Z"/>
        <path class="cls-1" d="M178.73,302.02v15.08c0,1.05.85,1.9,1.91,1.91,1.32,0,2.56.62,3.35,1.68l.46.61v-10.05l-3.08-6.93c-.5-1.11-1.46-1.95-2.64-2.29Z"/>
        <path class="cls-1" d="M178.73,299.69c2.09.38,3.86,1.76,4.72,3.7l.99,2.23v-10.62h-5.72v4.69Z"/>
        <path class="cls-1" d="M180.63,321.29c-2.31,0-4.19-1.88-4.19-4.19v-22.1h-2.29v8.47c0,4.38-1.02,8.7-2.97,12.62-1.8,3.6-2.74,7.57-2.74,11.6v4.19c0,3.47.56,6.92,1.66,10.21,1.18,3.52,1.77,7.21,1.77,10.93v8.29h2.29v-1.14c.03-11.24,3.63-22.18,10.29-31.23v-3.83l-2.29-3.05c-.36-.48-.92-.76-1.52-.76ZM178.37,334.39l-1.46,2.43c-.95,1.58-3,2.09-4.57,1.14-1-.6-1.62-1.69-1.62-2.86v-11.53c0-1.89,1.54-3.43,3.43-3.43,1.08,0,2.1.51,2.74,1.37l.87,1.16c2.56,3.42,2.8,8.05.6,11.71h0Z"/>
        <path class="cls-1" d="M186.73,354.44h20.58v2.29h-20.58v-2.29Z"/>
      </g>
    </g>
  </g>
</svg>