<?xml version="1.0" encoding="UTF-8" standalone="no"?>
<svg
   id="Warstwa_2"
   viewBox="0 0 599 599"
   version="1.1"
   sodipodi:docname="hero-circle-produkty-en.svg"
   inkscape:version="1.2.2 (732a01da63, 2022-12-09)"
   xmlns:inkscape="http://www.inkscape.org/namespaces/inkscape"
   xmlns:sodipodi="http://sodipodi.sourceforge.net/DTD/sodipodi-0.dtd"
   xmlns="http://www.w3.org/2000/svg"
   xmlns:svg="http://www.w3.org/2000/svg">
  <sodipodi:namedview
     id="namedview1546"
     pagecolor="#ffffff"
     bordercolor="#000000"
     borderopacity="0.25"
     inkscape:showpageshadow="2"
     inkscape:pageopacity="0.0"
     inkscape:pagecheckerboard="0"
     inkscape:deskcolor="#d1d1d1"
     showgrid="false"
     inkscape:zoom="0.78797997"
     inkscape:cx="299.5"
     inkscape:cy="299.5"
     inkscape:window-width="1680"
     inkscape:window-height="987"
     inkscape:window-x="-8"
     inkscape:window-y="-8"
     inkscape:window-maximized="1"
     inkscape:current-layer="text1348" />
  <defs
     id="defs1328">
    <style
       id="style1315">.cls-1,.cls-2{stroke-width:13px;}.cls-1,.cls-2,.cls-3{stroke-miterlimit:10;}.cls-1,.cls-4{fill:#fff;}.cls-1,.cls-3{stroke:#ca151a;}.cls-5,.cls-6{font-family:Poppins-Medium, Poppins;font-size:17.03px;font-weight:500;}.cls-5,.cls-7{fill:#ca151a;}.cls-8{fill:#fdd203;}.cls-8,.cls-9,.cls-4{stroke-width:0px;}.cls-2{stroke:#fdd203;}.cls-2,.cls-3{fill:none;}.cls-10,.cls-11{font-family:Poppins-Bold, Poppins;font-weight:700;}.cls-10,.cls-6,.cls-12{fill:#010000;}.cls-10,.cls-12{font-size:25.46px;}.cls-9{fill:#000;}.cls-7{font-size:25.19px;}.cls-3{filter:url(#drop-shadow-1);stroke-width:13.81px;}</style>
    <filter
       id="drop-shadow-1"
       filterUnits="userSpaceOnUse">
      <feOffset
         dx="0"
         dy="0"
         id="feOffset1317" />
      <feGaussianBlur
         result="blur"
         stdDeviation="19.84"
         id="feGaussianBlur1319" />
      <feFlood
         flood-color="#000"
         flood-opacity=".47"
         id="feFlood1321" />
      <feComposite
         in2="blur"
         operator="in"
         id="feComposite1323"
         result="result1" />
      <feComposite
         in="SourceGraphic"
         in2="result1"
         id="feComposite1325" />
    </filter>
  </defs>
  <g
     id="Warstwa_1-2">
    <circle
       class="cls-3"
       cx="299.29"
       cy="299.7"
       r="232.52"
       id="circle1330" />
    <path
       id="circle1332"
       class="cls-1"
       style="fill:#ffffff;stroke:#ca151a;stroke-width:13px;stroke-miterlimit:10"
       d="M 518.22,299.70001 A 218.92999,218.92999 0 0 1 299.29001,518.63 218.92999,218.92999 0 0 1 80.360016,299.70001 218.92999,218.92999 0 0 1 299.29001,80.77002 218.92999,218.92999 0 0 1 518.22,299.70001 Z" />
    <path
       id="circle1334"
       class="cls-2"
       style="fill:none;stroke:#fdd203;stroke-width:13px;stroke-miterlimit:10"
       d="M 518.22,299.70001 A 218.92999,218.92999 0 0 1 299.29001,518.63 218.92999,218.92999 0 0 1 80.360016,299.70001 218.92999,218.92999 0 0 1 299.29001,80.77002 218.92999,218.92999 0 0 1 518.22,299.70001 Z" />
    <g
       aria-label="Welcome to our product page."
       transform="translate(136.99 237.31) scale(.96 1)"
       id="text1338"
       class="cls-6"
       style="font-weight:500;font-size:17.03px;font-family:Poppins-Medium, Poppins;fill:#010000">
      <path
         d="M 16.689401,-11.83585 13.181221,0 H 10.98435 L 8.4979703,-8.9577804 5.8583202,0 3.6784801,0.01703 0.32357001,-11.83585 H 2.3842001 l 2.4523201,9.6389799 2.6566801,-9.6389799 h 2.1798401 l 2.4693496,9.5878899 2.469351,-9.5878899 z"
         id="path1550" />
      <path
         d="m 26.89038,-4.9216702 q 0,0.52793 -0.06812,0.95368 h -7.16963 q 0.08515,1.1239801 0.83447,1.8051801 0.74932,0.6812 1.83924,0.6812 1.56676,0 2.2139,-1.31131 h 2.09469 q -0.42575,1.29428 -1.54973,2.12875007 -1.10695,0.81744004 -2.75886,0.81744004 -1.34537,0 -2.41826,-0.59605003 -1.05586,-0.61307998 -1.66894,-1.70300008 -0.59605,-1.10695 -0.59605,-2.5545001 0,-1.44755 0.57902,-2.5374701 0.59605,-1.10695 1.65191,-1.7030001 1.07289,-0.59605 2.45232,-0.59605 1.32834,0 2.36717,0.57902 1.03883,0.5790201 1.61785,1.6348801 0.57902,1.03883 0.57902,2.4012301 z m -2.02657,-0.61308 q -0.01703,-1.0728901 -0.76635,-1.7200301 -0.74932,-0.64714 -1.85627,-0.64714 -1.00477,0 -1.72003,0.64714 -0.71526,0.63011 -0.8515,1.7200301 z"
         id="path1552" />
      <path
         d="M 30.73917,-12.602201 V 0 h -1.94142 v -12.602201 z"
         id="path1554" />
      <path
         d="m 32.646528,-4.7002802 q 0,-1.44755 0.579021,-2.5374701 0.59605,-1.10695 1.63488,-1.7030001 1.03883,-0.59605 2.3842,-0.59605 1.703,0 2.80995,0.81744 1.12398,0.8004101 1.51567,2.2990501 h -2.09469 q -0.25545,-0.69823 -0.81744,-1.08992 -0.56199,-0.39169 -1.41349,-0.39169 -1.1921,0 -1.90736,0.8515 -0.69823,0.83447 -0.69823,2.3501401 0,1.5156701 0.69823,2.3671701 0.71526,0.8515 1.90736,0.8515 1.68597,0 2.23093,-1.48161 h 2.09469 q -0.40872,1.43052 -1.5327,2.28202007 -1.12398,0.83447004 -2.79292,0.83447004 -1.34537,0 -2.3842,-0.59605003 -1.03883,-0.61307998 -1.63488,-1.70300008 -0.579021,-1.10695 -0.579021,-2.5545001 z"
         id="path1556" />
      <path
         d="m 47.581849,0.15327001 q -1.32834,0 -2.40123,-0.59605003 -1.072891,-0.61307998 -1.685971,-1.70300008 -0.61308,-1.10695 -0.61308,-2.5545001 0,-1.43052 0.63011,-2.5374701 0.63011,-1.10695 1.720031,-1.7030001 1.08992,-0.59605 2.43529,-0.59605 1.34537,0 2.43529,0.59605 1.08992,0.5960501 1.72003,1.7030001 0.63011,1.1069501 0.63011,2.5374701 0,1.4305201 -0.64714,2.5374701 -0.64714,1.1069501 -1.77112,1.72003008 -1.10695,0.59605003 -2.45232,0.59605003 z m 0,-1.68597011 q 0.74932,0 1.39646,-0.35763 0.66417,-0.35763 1.07289,-1.07289 0.40872,-0.71526 0.40872,-1.7370601 0,-1.0218 -0.39169,-1.7200301 -0.39169,-0.71526 -1.03883,-1.07289 -0.64714,-0.35763 -1.39646,-0.35763 -0.74932,0 -1.39646,0.35763 -0.63011,0.35763 -1.00477,1.07289 -0.37466,0.6982301 -0.37466,1.7200301 0,1.5156701 0.76635,2.3501401 0.78338,0.81744 1.95845,0.81744 z"
         id="path1558" />
      <path
         d="m 65.735836,-9.5368004 q 1.10695,0 1.97548,0.45981 0.88556,0.4598101 1.37943,1.3624001 0.5109,0.90259 0.5109,2.1798401 V 0 h -1.92439 v -5.2452402 q 0,-1.2602201 -0.63011,-1.9243901 -0.63011,-0.6812 -1.72003,-0.6812 -1.089921,0 -1.737061,0.6812 -0.63011,0.66417 -0.63011,1.9243901 V 0 h -1.92439 v -5.2452402 q 0,-1.2602201 -0.63011,-1.9243901 -0.63011,-0.6812 -1.72003,-0.6812 -1.08992,0 -1.73706,0.6812 -0.63011,0.66417 -0.63011,1.9243901 V 0 h -1.94142 v -9.3835304 h 1.94142 v 1.0728901 q 0.47684,-0.5790201 1.20913,-0.9025901 0.73229,-0.32357 1.56676,-0.32357 1.12398,0 2.00954,0.47684 0.88556,0.4768401 1.3624,1.3794301 0.42575,-0.8515 1.32834,-1.3453701 0.902591,-0.5109 1.941421,-0.5109 z"
         id="path1560" />
      <path
         d="m 80.67114,-4.9216702 q 0,0.52793 -0.06812,0.95368 h -7.169631 q 0.08515,1.1239801 0.83447,1.8051801 0.74932,0.6812 1.839241,0.6812 1.56676,0 2.2139,-1.31131 h 2.09469 q -0.42575,1.29428 -1.54973,2.12875007 -1.10695,0.81744004 -2.75886,0.81744004 -1.345371,0 -2.418261,-0.59605003 -1.05586,-0.61307998 -1.66894,-1.70300008 -0.59605,-1.10695 -0.59605,-2.5545001 0,-1.44755 0.57902,-2.5374701 0.59605,-1.10695 1.65191,-1.7030001 1.07289,-0.59605 2.452321,-0.59605 1.32834,0 2.36717,0.57902 1.03883,0.5790201 1.61785,1.6348801 0.57902,1.03883 0.57902,2.4012301 z m -2.02657,-0.61308 q -0.01703,-1.0728901 -0.76635,-1.7200301 -0.74932,-0.64714 -1.85627,-0.64714 -1.004771,0 -1.720031,0.64714 -0.71526,0.63011 -0.8515,1.7200301 z"
         id="path1562" />
      <path
         d="m 89.271305,-7.7997403 v 5.1941502 q 0,0.52793 0.23842,0.76635 0.25545,0.22139 0.8515,0.22139 h 1.1921 V 0 h -1.5327 q -1.31131,0 -2.00954,-0.61308002 -0.69823,-0.61307998 -0.69823,-1.99251008 v -5.1941502 h -1.10695 v -1.5837901 h 1.10695 V -11.71664 h 1.95845 v 2.3331096 h 2.28202 v 1.5837901 z"
         id="path1564" />
      <path
         d="m 97.411637,0.15327001 q -1.32834,0 -2.40123,-0.59605003 -1.07289,-0.61307998 -1.68597,-1.70300008 -0.61308,-1.10695 -0.61308,-2.5545001 0,-1.43052 0.63011,-2.5374701 0.63011,-1.10695 1.72003,-1.7030001 1.08992,-0.59605 2.43529,-0.59605 1.34537,0 2.43529,0.59605 1.089923,0.5960501 1.720033,1.7030001 0.63011,1.1069501 0.63011,2.5374701 0,1.4305201 -0.64714,2.5374701 -0.64714,1.1069501 -1.771123,1.72003008 -1.10695,0.59605003 -2.45232,0.59605003 z m 0,-1.68597011 q 0.74932,0 1.39646,-0.35763 0.66417,-0.35763 1.07289,-1.07289 0.408723,-0.71526 0.408723,-1.7370601 0,-1.0218 -0.391693,-1.7200301 -0.39169,-0.71526 -1.03883,-1.07289 -0.64714,-0.35763 -1.39646,-0.35763 -0.74932,0 -1.39646,0.35763 -0.63011,0.35763 -1.00477,1.07289 -0.37466,0.6982301 -0.37466,1.7200301 0,1.5156701 0.76635,2.3501401 0.78338,0.81744 1.95845,0.81744 z"
         id="path1566" />
      <path
         d="m 112.70459,0.15327001 q -1.32834,0 -2.40123,-0.59605003 -1.07289,-0.61307998 -1.68597,-1.70300008 -0.61308,-1.10695 -0.61308,-2.5545001 0,-1.43052 0.63011,-2.5374701 0.63011,-1.10695 1.72003,-1.7030001 1.08992,-0.59605 2.43529,-0.59605 1.34537,0 2.43529,0.59605 1.08992,0.5960501 1.72003,1.7030001 0.63011,1.1069501 0.63011,2.5374701 0,1.4305201 -0.64714,2.5374701 -0.64714,1.1069501 -1.77112,1.72003008 -1.10695,0.59605003 -2.45232,0.59605003 z m 0,-1.68597011 q 0.74932,0 1.39646,-0.35763 0.66417,-0.35763 1.07289,-1.07289 0.40872,-0.71526 0.40872,-1.7370601 0,-1.0218 -0.39169,-1.7200301 -0.39169,-0.71526 -1.03883,-1.07289 -0.64714,-0.35763 -1.39646,-0.35763 -0.74932,0 -1.39646,0.35763 -0.63011,0.35763 -1.00477,1.07289 -0.37466,0.6982301 -0.37466,1.7200301 0,1.5156701 0.76635,2.3501401 0.78338,0.81744 1.95845,0.81744 z"
         id="path1568" />
      <path
         d="M 127.99754,-9.3835304 V 0 h -1.94142 v -1.10695 q -0.45981,0.57901998 -1.20913,0.91961999 -0.73229,0.32357002 -1.56676,0.32357002 -1.10695,0 -1.99251,-0.45981002 -0.86853,-0.45981002 -1.37943,-1.36240009 -0.49387,-0.90259 -0.49387,-2.1798401 v -5.5177202 h 1.92439 v 5.2282102 q 0,1.2602201 0.63011,1.9414201 0.63011,0.66417 1.72003,0.66417 1.08992,0 1.72003,-0.66417 0.64714,-0.6812 0.64714,-1.9414201 v -5.2282102 z"
         id="path1570" />
      <path
         d="m 132.49347,-8.0211303 q 0.42575,-0.7152601 1.12398,-1.1069501 0.71526,-0.40872 1.68597,-0.40872 v 2.0095401 h -0.49387 q -1.14101,0 -1.73706,0.57902 -0.57902,0.57902 -0.57902,2.0095401 V 0 h -1.94142 v -9.3835304 h 1.94142 z"
         id="path1572" />
      <path
         d="m 143.4608,-8.0041003 q 0.49387,-0.64714 1.34537,-1.0899201 0.8515,-0.44278 1.92439,-0.44278 1.22616,0 2.23093,0.61308 1.0218,0.5960501 1.60082,1.6859701 0.57902,1.0899201 0.57902,2.5034101 0,1.4134901 -0.57902,2.5374701 -0.57902,1.1069501 -1.60082,1.73706008 -1.00477,0.61308003 -2.23093,0.61308003 -1.07289,0 -1.90736,-0.42575002 -0.83447,-0.44278002 -1.3624,-1.08992009 v 5.8242603 h -1.94142 V -9.3835304 h 1.94142 z m 5.70505,3.2697601 q 0,-0.97071 -0.40872,-1.6689401 -0.39169,-0.71526 -1.05586,-1.07289 -0.64714,-0.37466 -1.39646,-0.37466 -0.73229,0 -1.39646,0.37466 -0.64714,0.37466 -1.05586,1.08992 -0.39169,0.7152601 -0.39169,1.6859701 0,0.97071 0.39169,1.7030001 0.40872,0.71526 1.05586,1.08992 0.66417,0.37466 1.39646,0.37466 0.74932,0 1.39646,-0.37466 0.66417,-0.39169 1.05586,-1.12398 0.40872,-0.7322901 0.40872,-1.7030001 z"
         id="path1574" />
      <path
         d="m 155.00714,-8.0211303 q 0.42575,-0.7152601 1.12398,-1.1069501 0.71526,-0.40872 1.68597,-0.40872 v 2.0095401 h -0.49387 q -1.14101,0 -1.73706,0.57902 -0.57902,0.57902 -0.57902,2.0095401 V 0 h -1.94142 v -9.3835304 h 1.94142 z"
         id="path1576" />
      <path
         d="m 163.67542,0.15327001 q -1.32834,0 -2.40123,-0.59605003 -1.07289,-0.61307998 -1.68597,-1.70300008 -0.61308,-1.10695 -0.61308,-2.5545001 0,-1.43052 0.63011,-2.5374701 0.63011,-1.10695 1.72003,-1.7030001 1.08992,-0.59605 2.43529,-0.59605 1.34537,0 2.43529,0.59605 1.08992,0.5960501 1.72003,1.7030001 0.63011,1.1069501 0.63011,2.5374701 0,1.4305201 -0.64714,2.5374701 -0.64714,1.1069501 -1.77112,1.72003008 -1.10695,0.59605003 -2.45232,0.59605003 z m 0,-1.68597011 q 0.74932,0 1.39646,-0.35763 0.66417,-0.35763 1.07289,-1.07289 0.40872,-0.71526 0.40872,-1.7370601 0,-1.0218 -0.39169,-1.7200301 -0.39169,-0.71526 -1.03883,-1.07289 -0.64714,-0.35763 -1.39646,-0.35763 -0.74932,0 -1.39646,0.35763 -0.63011,0.35763 -1.00477,1.07289 -0.37466,0.6982301 -0.37466,1.7200301 0,1.5156701 0.76635,2.3501401 0.78338,0.81744 1.95845,0.81744 z"
         id="path1578" />
      <path
         d="m 169.82326,-4.7343402 q 0,-1.41349 0.57902,-2.5034101 0.59605,-1.08992 1.60082,-1.6859701 1.0218,-0.61308 2.26499,-0.61308 0.91962,0 1.80518,0.40872 0.90259,0.39169 1.43052,1.0558601 v -4.5299807 h 1.95845 V 0 h -1.95845 v -1.4134901 q -0.47684,0.68120007 -1.32834,1.12398009 -0.83447,0.44278002 -1.92439,0.44278002 -1.22616,0 -2.24796,-0.61308003 -1.00477,-0.63010998 -1.60082,-1.73706008 -0.57902,-1.12398 -0.57902,-2.5374701 z m 7.68053,0.03406 q 0,-0.97071 -0.40872,-1.6859701 -0.39169,-0.71526 -1.03883,-1.08992 -0.64714,-0.37466 -1.39646,-0.37466 -0.74932,0 -1.39646,0.37466 -0.64714,0.35763 -1.05586,1.07289 -0.39169,0.6982301 -0.39169,1.6689401 0,0.97071 0.39169,1.7030001 0.40872,0.73229 1.05586,1.12398 0.66417,0.37466 1.39646,0.37466 0.74932,0 1.39646,-0.37466 0.64714,-0.37466 1.03883,-1.08992 0.40872,-0.7322901 0.40872,-1.7030001 z"
         id="path1580" />
      <path
         d="M 190.51469,-9.3835304 V 0 h -1.94142 v -1.10695 q -0.45981,0.57901998 -1.20913,0.91961999 -0.73229,0.32357002 -1.56676,0.32357002 -1.10695,0 -1.99251,-0.45981002 -0.86853,-0.45981002 -1.37943,-1.36240009 -0.49387,-0.90259 -0.49387,-2.1798401 v -5.5177202 h 1.92439 v 5.2282102 q 0,1.2602201 0.63011,1.9414201 0.63011,0.66417 1.72003,0.66417 1.08992,0 1.72003,-0.66417 0.64714,-0.6812 0.64714,-1.9414201 v -5.2282102 z"
         id="path1582" />
      <path
         d="m 192.42206,-4.7002802 q 0,-1.44755 0.57902,-2.5374701 0.59605,-1.10695 1.63488,-1.7030001 1.03883,-0.59605 2.3842,-0.59605 1.703,0 2.80995,0.81744 1.12398,0.8004101 1.51567,2.2990501 h -2.09469 q -0.25545,-0.69823 -0.81744,-1.08992 -0.56199,-0.39169 -1.41349,-0.39169 -1.1921,0 -1.90736,0.8515 -0.69823,0.83447 -0.69823,2.3501401 0,1.5156701 0.69823,2.3671701 0.71526,0.8515 1.90736,0.8515 1.68597,0 2.23093,-1.48161 h 2.09469 q -0.40872,1.43052 -1.5327,2.28202007 -1.12398,0.83447004 -2.79292,0.83447004 -1.34537,0 -2.3842,-0.59605003 -1.03883,-0.61307998 -1.63488,-1.70300008 -0.57902,-1.10695 -0.57902,-2.5545001 z"
         id="path1584" />
      <path
         d="m 205.5522,-7.7997403 v 5.1941502 q 0,0.52793 0.23842,0.76635 0.25545,0.22139 0.8515,0.22139 h 1.1921 V 0 h -1.5327 q -1.31131,0 -2.00954,-0.61308002 -0.69823,-0.61307998 -0.69823,-1.99251008 v -5.1941502 h -1.10695 v -1.5837901 h 1.10695 V -11.71664 h 1.95845 v 2.3331096 h 2.28202 v 1.5837901 z"
         id="path1586" />
      <path
         d="m 215.99159,-8.0041003 q 0.49387,-0.64714 1.34537,-1.0899201 0.8515,-0.44278 1.92439,-0.44278 1.22616,0 2.23093,0.61308 1.0218,0.5960501 1.60082,1.6859701 0.57902,1.0899201 0.57902,2.5034101 0,1.4134901 -0.57902,2.5374701 -0.57902,1.1069501 -1.60082,1.73706008 -1.00477,0.61308003 -2.23093,0.61308003 -1.07289,0 -1.90736,-0.42575002 -0.83447,-0.44278002 -1.3624,-1.08992009 v 5.8242603 h -1.94142 V -9.3835304 h 1.94142 z m 5.70505,3.2697601 q 0,-0.97071 -0.40872,-1.6689401 -0.39169,-0.71526 -1.05586,-1.07289 -0.64714,-0.37466 -1.39646,-0.37466 -0.73229,0 -1.39646,0.37466 -0.64714,0.37466 -1.05586,1.08992 -0.39169,0.7152601 -0.39169,1.6859701 0,0.97071 0.39169,1.7030001 0.40872,0.71526 1.05586,1.08992 0.66417,0.37466 1.39646,0.37466 0.74932,0 1.39646,-0.37466 0.66417,-0.39169 1.05586,-1.12398 0.40872,-0.7322901 0.40872,-1.7030001 z"
         id="path1588" />
      <path
         d="m 224.94935,-4.7343402 q 0,-1.41349 0.57902,-2.5034101 0.59605,-1.08992 1.60082,-1.6859701 1.0218,-0.61308 2.24796,-0.61308 1.10695,0 1.92439,0.44278 0.83447,0.4257501 1.32834,1.0728901 v -1.3624001 h 1.95845 V 0 h -1.95845 v -1.3964601 q -0.49387,0.66417007 -1.34537,1.10695009 -0.8515,0.44278002 -1.94142,0.44278002 -1.20913,0 -2.2139,-0.61308003 -1.00477,-0.63010998 -1.60082,-1.73706008 -0.57902,-1.12398 -0.57902,-2.5374701 z m 7.68053,0.03406 q 0,-0.97071 -0.40872,-1.6859701 -0.39169,-0.71526 -1.03883,-1.08992 -0.64714,-0.37466 -1.39646,-0.37466 -0.74932,0 -1.39646,0.37466 -0.64714,0.35763 -1.05586,1.07289 -0.39169,0.6982301 -0.39169,1.6689401 0,0.97071 0.39169,1.7030001 0.40872,0.73229 1.05586,1.12398 0.66417,0.37466 1.39646,0.37466 0.74932,0 1.39646,-0.37466 0.64714,-0.37466 1.03883,-1.08992 0.40872,-0.7322901 0.40872,-1.7030001 z"
         id="path1590" />
      <path
         d="m 240.9235,-9.5368004 q 1.08992,0 1.92439,0.44278 0.8515,0.4257501 1.32834,1.0728901 v -1.3624001 h 1.95845 v 9.53680041 q 0,1.29428009 -0.54496,2.29905009 -0.54496,1.0218 -1.58379,1.6008201 -1.0218,0.57902 -2.45232,0.57902 -1.90736,0 -3.16758,-0.90259 -1.26022,-0.8855601 -1.43052,-2.4182601 h 1.92439 q 0.22139,0.73229 0.93665,1.17507 0.73229,0.45981 1.73706,0.45981 1.17507,0 1.89033,-0.71526 0.73229,-0.71526 0.73229,-2.07766009 V -1.4134901 q -0.49387,0.66417007 -1.34537,1.12398009 -0.83447,0.44278002 -1.90736,0.44278002 -1.22616,0 -2.24796,-0.61308003 -1.00477,-0.63010998 -1.60082,-1.73706008 -0.57902,-1.12398 -0.57902,-2.5374701 0,-1.41349 0.57902,-2.5034101 0.59605,-1.08992 1.60082,-1.6859701 1.0218,-0.61308 2.24796,-0.61308 z m 3.25273,4.8365202 q 0,-0.97071 -0.40872,-1.6859701 -0.39169,-0.71526 -1.03883,-1.08992 -0.64714,-0.37466 -1.39646,-0.37466 -0.74932,0 -1.39646,0.37466 -0.64714,0.35763 -1.05586,1.07289 -0.39169,0.6982301 -0.39169,1.6689401 0,0.97071 0.39169,1.7030001 0.40872,0.73229 1.05586,1.12398 0.66417,0.37466 1.39646,0.37466 0.74932,0 1.39646,-0.37466 0.64714,-0.37466 1.03883,-1.08992 0.40872,-0.7322901 0.40872,-1.7030001 z"
         id="path1592" />
      <path
         d="m 257.28931,-4.9216702 q 0,0.52793 -0.0681,0.95368 h -7.16963 q 0.0851,1.1239801 0.83447,1.8051801 0.74932,0.6812 1.83924,0.6812 1.56676,0 2.2139,-1.31131 h 2.09469 q -0.42575,1.29428 -1.54973,2.12875007 -1.10695,0.81744004 -2.75886,0.81744004 -1.34537,0 -2.41826,-0.59605003 -1.05586,-0.61307998 -1.66894,-1.70300008 -0.59605,-1.10695 -0.59605,-2.5545001 0,-1.44755 0.57902,-2.5374701 0.59605,-1.10695 1.65191,-1.7030001 1.07289,-0.59605 2.45232,-0.59605 1.32834,0 2.36717,0.57902 1.03883,0.5790201 1.61785,1.6348801 0.57902,1.03883 0.57902,2.4012301 z m -2.02657,-0.61308 q -0.017,-1.0728901 -0.76635,-1.7200301 -0.74932,-0.64714 -1.85627,-0.64714 -1.00477,0 -1.72003,0.64714 -0.71526,0.63011 -0.8515,1.7200301 z"
         id="path1594" />
      <path
         d="m 259.98006,0.11921 q -0.52793,0 -0.88556,-0.35763001 -0.35763,-0.35763001 -0.35763,-0.88555999 0,-0.5279301 0.35763,-0.8855601 0.35763,-0.35763 0.88556,-0.35763 0.5109,0 0.86853,0.35763 0.35763,0.35763 0.35763,0.8855601 0,0.52792998 -0.35763,0.88555999 Q 260.49096,0.11921 259.98006,0.11921 Z"
         id="path1596" />
    </g>
    <path
       class="cls-8"
       d="M385.75,134.57v28.34h27.65v13.14h-27.65v28.33h-14.52v-28.33h-27.65v-13.14h27.65v-28.34h14.52Z"
       id="path1340" />
    <g
       aria-label="You will find here:"
       transform="translate(136.99 260.43) scale(.96 1)"
       id="text1344"
       class="cls-5"
       style="font-weight:500;font-size:17.03px;font-family:Poppins-Medium, Poppins;fill:#ca151a">
      <path
         d="M 10.0477,-11.83585 6.1308002,-4.2915602 V 0 h -1.94142 V -4.2915602 L 0.25545001,-11.83585 H 2.4182601 l 2.7418301,5.8072298 2.7418301,-5.8072298 z"
         id="path1599" />
      <path
         d="m 15.650563,0.15327001 q -1.32834,0 -2.40123,-0.59605003 -1.07289,-0.61307998 -1.68597,-1.70300008 -0.61308,-1.10695 -0.61308,-2.5545001 0,-1.43052 0.63011,-2.5374701 0.63011,-1.10695 1.72003,-1.7030001 1.08992,-0.59605 2.43529,-0.59605 1.34537,0 2.43529,0.59605 1.08992,0.5960501 1.72003,1.7030001 0.63011,1.1069501 0.63011,2.5374701 0,1.4305201 -0.64714,2.5374701 -0.64714,1.1069501 -1.77112,1.72003008 -1.10695,0.59605003 -2.45232,0.59605003 z m 0,-1.68597011 q 0.74932,0 1.39646,-0.35763 0.66417,-0.35763 1.07289,-1.07289 0.40872,-0.71526 0.40872,-1.7370601 0,-1.0218 -0.39169,-1.7200301 -0.39169,-0.71526 -1.03883,-1.07289 -0.64714,-0.35763 -1.39646,-0.35763 -0.74932,0 -1.39646,0.35763 -0.63011,0.35763 -1.00477,1.07289 -0.37466,0.6982301 -0.37466,1.7200301 0,1.5156701 0.76635,2.3501401 0.78338,0.81744 1.95845,0.81744 z"
         id="path1601" />
      <path
         d="M 30.943511,-9.3835304 V 0 h -1.94142 v -1.10695 q -0.45981,0.57901998 -1.20913,0.91961999 -0.73229,0.32357002 -1.56676,0.32357002 -1.10695,0 -1.99251,-0.45981002 -0.86853,-0.45981002 -1.37943,-1.36240009 -0.49387,-0.90259 -0.49387,-2.1798401 v -5.5177202 h 1.92439 v 5.2282102 q 0,1.2602201 0.63011,1.9414201 0.63011,0.66417 1.72003,0.66417 1.08992,0 1.72003,-0.66417 0.64714,-0.6812 0.64714,-1.9414201 v -5.2282102 z"
         id="path1603" />
      <path
         d="M 50.528018,-9.3835304 47.615888,0 h -2.0436 L 43.681957,-6.9312103 41.791627,0 h -2.0436 l -2.92916,-9.3835304 h 1.97548 l 1.95845,7.5442903 1.99251,-7.5442903 h 2.026571 l 1.90736,7.5102303 1.94142,-7.5102303 z"
         id="path1605" />
      <path
         d="m 52.963324,-10.62672 q -0.52793,0 -0.88556,-0.35763 -0.35763,-0.35763 -0.35763,-0.88556 0,-0.52793 0.35763,-0.885561 0.35763,-0.35763 0.88556,-0.35763 0.5109,0 0.86853,0.35763 0.35763,0.357631 0.35763,0.885561 0,0.52793 -0.35763,0.88556 -0.35763,0.35763 -0.86853,0.35763 z m 0.95368,1.2431896 V 0 h -1.94142 v -9.3835304 z"
         id="path1607" />
      <path
         d="M 58.412922,-12.602201 V 0 h -1.94142 v -12.602201 z"
         id="path1609" />
      <path
         d="M 62.90884,-12.602201 V 0 h -1.94142 v -12.602201 z"
         id="path1611" />
      <path
         d="m 73.825072,-7.7997403 h -1.73706 V 0 h -1.95845 v -7.7997403 h -1.10695 v -1.5837901 h 1.10695 V -10.0477 q 0,-1.61785 0.8515,-2.35014 0.86853,-0.749321 2.70777,-0.749321 v 1.617851 q -0.88556,0 -1.24319,0.3406 -0.35763,0.32357 -0.35763,1.14101 v 0.6641696 h 1.73706 z"
         id="path1613" />
      <path
         d="m 76.532858,-10.62672 q -0.52793,0 -0.88556,-0.35763 -0.35763,-0.35763 -0.35763,-0.88556 0,-0.52793 0.35763,-0.885561 0.35763,-0.35763 0.88556,-0.35763 0.5109,0 0.86853,0.35763 0.35763,0.357631 0.35763,0.885561 0,0.52793 -0.35763,0.88556 -0.35763,0.35763 -0.86853,0.35763 z m 0.95368,1.2431896 V 0 h -1.94142 v -9.3835304 z"
         id="path1615" />
      <path
         d="m 84.775377,-9.5368004 q 1.10695,0 1.97548,0.45981 0.88556,0.4598101 1.37943,1.3624001 0.49387,0.90259 0.49387,2.1798401 V 0 h -1.92439 v -5.2452402 q 0,-1.2602201 -0.63011,-1.9243901 -0.63011,-0.6812 -1.72003,-0.6812 -1.089921,0 -1.737061,0.6812 -0.63011,0.66417 -0.63011,1.9243901 V 0 h -1.94142 v -9.3835304 h 1.94142 v 1.0728901 q 0.47684,-0.5790201 1.20913,-0.9025901 0.749321,-0.32357 1.583791,-0.32357 z"
         id="path1617" />
      <path
         d="m 90.446371,-4.7343402 q 0,-1.41349 0.57902,-2.5034101 0.59605,-1.08992 1.60082,-1.6859701 1.0218,-0.61308 2.26499,-0.61308 0.919621,0 1.805181,0.40872 0.90259,0.39169 1.43052,1.0558601 v -4.5299807 h 1.958448 V 0 h -1.958448 v -1.4134901 q -0.47684,0.68120007 -1.32834,1.12398009 -0.83447,0.44278002 -1.924391,0.44278002 -1.22616,0 -2.24796,-0.61308003 -1.00477,-0.63010998 -1.60082,-1.73706008 -0.57902,-1.12398 -0.57902,-2.5374701 z m 7.680531,0.03406 q 0,-0.97071 -0.40872,-1.6859701 -0.39169,-0.71526 -1.03883,-1.08992 -0.64714,-0.37466 -1.39646,-0.37466 -0.749321,0 -1.396461,0.37466 -0.64714,0.35763 -1.05586,1.07289 -0.39169,0.6982301 -0.39169,1.6689401 0,0.97071 0.39169,1.7030001 0.40872,0.73229 1.05586,1.12398 0.66417,0.37466 1.396461,0.37466 0.74932,0 1.39646,-0.37466 0.64714,-0.37466 1.03883,-1.08992 0.40872,-0.7322901 0.40872,-1.7030001 z"
         id="path1619" />
      <path
         d="m 111.9212,-9.5368004 q 1.07289,0 1.90736,0.45981 0.8515,0.4598101 1.32834,1.3624001 0.49387,0.90259 0.49387,2.1798401 V 0 h -1.92439 v -5.2452402 q 0,-1.2602201 -0.63011,-1.9243901 -0.63011,-0.6812 -1.72003,-0.6812 -1.08992,0 -1.73706,0.6812 -0.63011,0.66417 -0.63011,1.9243901 V 0 h -1.94142 v -12.602201 h 1.94142 v 4.3085907 q 0.49387,-0.5960501 1.24319,-0.9196201 0.76635,-0.32357 1.66894,-0.32357 z"
         id="path1621" />
      <path
         d="m 126.72027,-4.9216702 q 0,0.52793 -0.0681,0.95368 h -7.16963 q 0.0852,1.1239801 0.83447,1.8051801 0.74932,0.6812 1.83924,0.6812 1.56676,0 2.2139,-1.31131 h 2.09469 q -0.42575,1.29428 -1.54973,2.12875007 -1.10695,0.81744004 -2.75886,0.81744004 -1.34537,0 -2.41826,-0.59605003 -1.05586,-0.61307998 -1.66894,-1.70300008 -0.59605,-1.10695 -0.59605,-2.5545001 0,-1.44755 0.57902,-2.5374701 0.59605,-1.10695 1.65191,-1.7030001 1.07289,-0.59605 2.45232,-0.59605 1.32834,0 2.36717,0.57902 1.03883,0.5790201 1.61785,1.6348801 0.57902,1.03883 0.57902,2.4012301 z m -2.02657,-0.61308 q -0.017,-1.0728901 -0.76635,-1.7200301 -0.74932,-0.64714 -1.85627,-0.64714 -1.00477,0 -1.72003,0.64714 -0.71526,0.63011 -0.8515,1.7200301 z"
         id="path1623" />
      <path
         d="m 130.56906,-8.0211303 q 0.42575,-0.7152601 1.12398,-1.1069501 0.71526,-0.40872 1.68597,-0.40872 v 2.0095401 h -0.49387 q -1.14101,0 -1.73706,0.57902 -0.57902,0.57902 -0.57902,2.0095401 V 0 h -1.94142 v -9.3835304 h 1.94142 z"
         id="path1625" />
      <path
         d="m 143.76732,-4.9216702 q 0,0.52793 -0.0681,0.95368 h -7.16963 q 0.0851,1.1239801 0.83447,1.8051801 0.74932,0.6812 1.83924,0.6812 1.56676,0 2.2139,-1.31131 h 2.09469 q -0.42575,1.29428 -1.54973,2.12875007 -1.10695,0.81744004 -2.75886,0.81744004 -1.34537,0 -2.41826,-0.59605003 -1.05586,-0.61307998 -1.66894,-1.70300008 -0.59605,-1.10695 -0.59605,-2.5545001 0,-1.44755 0.57902,-2.5374701 0.59605,-1.10695 1.65191,-1.7030001 1.07289,-0.59605 2.45232,-0.59605 1.32834,0 2.36717,0.57902 1.03883,0.5790201 1.61785,1.6348801 0.57902,1.03883 0.57902,2.4012301 z m -2.02657,-0.61308 q -0.017,-1.0728901 -0.76635,-1.7200301 -0.74932,-0.64714 -1.85627,-0.64714 -1.00477,0 -1.72003,0.64714 -0.71526,0.63011 -0.8515,1.7200301 z"
         id="path1627" />
      <path
         d="m 146.45808,0.11921 q -0.52793,0 -0.88556,-0.35763001 -0.35763,-0.35763001 -0.35763,-0.88555999 0,-0.5279301 0.35763,-0.8855601 0.35763,-0.35763 0.88556,-0.35763 0.5109,0 0.86853,0.35763 0.35763,0.35763 0.35763,0.8855601 0,0.52792998 -0.35763,0.88555999 Q 146.96898,0.11921 146.45808,0.11921 Z m 0,-7.1526003 q -0.52793,0 -0.88556,-0.35763 -0.35763,-0.35763 -0.35763,-0.88556 0,-0.5279301 0.35763,-0.8855601 0.35763,-0.35763 0.88556,-0.35763 0.5109,0 0.86853,0.35763 0.35763,0.35763 0.35763,0.8855601 0,0.52793 -0.35763,0.88556 -0.35763,0.35763 -0.86853,0.35763 z"
         id="path1629" />
    </g>
    <g
       aria-label="full offer of"
       transform="translate(232.19 322.26) scale(.96 1)"
       id="text1348"
       class="cls-10"
       style="font-weight:700;font-size:25.46px;font-family:Poppins-Bold, Poppins;fill:#010000">
      <path
         d="M 8.7073197,-10.59136 H 6.3649998 V 0 H 2.0113399 V -10.59136 H 0.43281998 v -3.615319 H 2.0113399 v -0.40736 q 0,-2.62238 1.50214,-3.97176 1.5021399,-1.37484 4.4045798,-1.37484 0.48374,0 0.71288,0.02546 v 3.6917 q -1.24754,-0.07638 -1.7567399,0.35644 -0.5092,0.43282 -0.5092,1.55306 v 0.1273 h 2.3423199 z"
         id="path1632" />
      <path
         d="M 24.772595,-14.206679 V 0 h -4.35366 v -1.9349599 q -0.66196,0.94201994 -1.80766,1.52759991 -1.12024,0.56011998 -2.49508,0.56011998 -1.62944,0 -2.87698,-0.71287997 -1.24754,-0.73834002 -1.93496,-2.11317992 -0.68742,-1.37484 -0.68742,-3.2334199 v -8.2999592 h 4.3282 v 7.7143792 q 0,1.42576 0.73834,2.21502 0.73834,0.7892599 1.98588,0.7892599 1.273,0 2.01134,-0.7892599 0.73834,-0.78926 0.73834,-2.21502 v -7.7143792 z"
         id="path1634" />
      <path
         d="M 32.257829,-18.840399 V 0 h -4.35366 v -18.840399 z"
         id="path1636" />
      <path
         d="M 39.768529,-18.840399 V 0 h -4.35366 v -18.840399 z"
         id="path1638" />
      <path
         d="m 54.789928,0.20367999 q -2.08772,0 -3.76808,-0.89109997 -1.6549,-0.89109992 -2.62238,-2.54599992 -0.94202,-1.6548999 -0.94202,-3.8699198 0,-2.18956 0.96748,-3.8444603 0.96748,-1.68036 2.64784,-2.57146 1.68036,-0.891099 3.76808,-0.891099 2.08772,0 3.768079,0.891099 1.68036,0.8911 2.64784,2.57146 0.96748,1.6549003 0.96748,3.8444603 0,2.1895599 -0.99294,3.8699198 -0.96748,1.6549 -2.6733,2.54599992 -1.680359,0.89109997 -3.768079,0.89109997 z m 0,-3.76807989 q 1.24754,0 2.11318,-0.9165599 0.891099,-0.91656 0.891099,-2.6223799 0,-1.70582 -0.865639,-2.62238 -0.84018,-0.9165603 -2.08772,-0.9165603 -1.273,0 -2.11318,0.9165603 -0.84018,0.8911 -0.84018,2.62238 0,1.7058199 0.81472,2.6223799 0.84018,0.9165599 2.08772,0.9165599 z"
         id="path1640" />
      <path
         d="m 71.669886,-10.59136 h -2.34232 V 0 h -4.35366 v -10.59136 h -1.57852 v -3.615319 h 1.57852 v -0.40736 q 0,-2.62238 1.50214,-3.97176 1.50214,-1.37484 4.40458,-1.37484 0.48374,0 0.71288,0.02546 v 3.6917 q -1.24754,-0.07638 -1.75674,0.35644 -0.5092,0.43282 -0.5092,1.55306 v 0.1273 h 2.34232 z"
         id="path1642" />
      <path
         d="m 80.835501,-10.59136 h -2.34232 V 0 h -4.35366 v -10.59136 h -1.57852 v -3.615319 h 1.57852 v -0.40736 q 0,-2.62238 1.50214,-3.97176 1.50214,-1.37484 4.40458,-1.37484 0.48374,0 0.71288,0.02546 v 3.6917 q -1.24754,-0.07638 -1.75674,0.35644 -0.5092,0.43282 -0.5092,1.55306 v 0.1273 h 2.34232 z"
         id="path1644" />
      <path
         d="m 96.264272,-7.3324797 q 0,0.6110399 -0.07638,1.2729999 h -9.853019 q 0.10184,1.32392 0.84018,2.0367999 0.763799,0.68742 1.858579,0.68742 1.62944,0 2.26594,-1.3748399 h 4.63372 q -0.35644,1.4002999 -1.29846,2.5205399 -0.91656,1.1202399 -2.31686,1.75673992 -1.4003,0.63649997 -3.13158,0.63649997 -2.087719,0 -3.717159,-0.89109997 -1.62944,-0.89109992 -2.546,-2.54599992 -0.91656,-1.6548999 -0.91656,-3.8699198 0,-2.21502 0.8911,-3.8699203 0.91656,-1.6549 2.546,-2.546 1.62944,-0.891099 3.742619,-0.891099 2.06226,0 3.66624,0.865639 1.60398,0.86564 2.49508,2.46962 0.91656,1.6039803 0.91656,3.7426203 z m -4.4555,-1.1457 q 0,-1.12024 -0.7638,-1.7822003 -0.7638,-0.66196 -1.9095,-0.66196 -1.09478,0 -1.858579,0.6365 -0.73834,0.6365003 -0.91656,1.8076603 z"
         id="path1646" />
      <path
         d="m 102.90931,-11.8389 q 0.7638,-1.17116 1.9095,-1.83312 1.1457,-0.687419 2.546,-0.687419 v 4.6082594 h -1.19662 q -1.62944,0 -2.44416,0.7128799 -0.81472,0.68742 -0.81472,2.4441599 V 0 h -4.353655 v -14.206679 h 4.353655 z"
         id="path1648" />
      <path
         d="m 121.31688,0.20367999 q -2.08772,0 -3.76808,-0.89109997 -1.6549,-0.89109992 -2.62238,-2.54599992 -0.94202,-1.6548999 -0.94202,-3.8699198 0,-2.18956 0.96748,-3.8444603 0.96748,-1.68036 2.64784,-2.57146 1.68036,-0.891099 3.76808,-0.891099 2.08772,0 3.76808,0.891099 1.68036,0.8911 2.64784,2.57146 0.96748,1.6549003 0.96748,3.8444603 0,2.1895599 -0.99294,3.8699198 -0.96748,1.6549 -2.6733,2.54599992 -1.68036,0.89109997 -3.76808,0.89109997 z m 0,-3.76807989 q 1.24754,0 2.11318,-0.9165599 0.8911,-0.91656 0.8911,-2.6223799 0,-1.70582 -0.86564,-2.62238 -0.84018,-0.9165603 -2.08772,-0.9165603 -1.273,0 -2.11318,0.9165603 -0.84018,0.8911 -0.84018,2.62238 0,1.7058199 0.81472,2.6223799 0.84018,0.9165599 2.08772,0.9165599 z"
         id="path1650" />
      <path
         d="m 138.19684,-10.59136 h -2.34232 V 0 h -4.35366 v -10.59136 h -1.57852 v -3.615319 h 1.57852 v -0.40736 q 0,-2.62238 1.50214,-3.97176 1.50214,-1.37484 4.40458,-1.37484 0.48374,0 0.71288,0.02546 v 3.6917 q -1.24754,-0.07638 -1.75674,0.35644 -0.5092,0.43282 -0.5092,1.55306 v 0.1273 h 2.34232 z"
         id="path1652" />
    </g>
    <g
       aria-label="wood-based boards."
       transform="translate(231.64 352.72) scale(.96 1)"
       id="text1354"
       class="cls-11"
       style="font-weight:700;font-family:Poppins-Bold, Poppins">
      <path
         d="M 21.971979,-14.206679 18.127519,0 H 13.31558 L 11.0751,-9.2165197 8.7582397,0 H 3.9717599 L 0.10184,-14.206679 h 4.3536598 l 2.01134,10.1585391 2.3932399,-10.1585391 H 13.46834 l 2.418699,10.1076191 1.98588,-10.1076191 z"
         style="font-size:25.46px;fill:#010000"
         id="path1655" />
      <path
         d="m 30.0937,0.20367999 q -2.08772,0 -3.76808,-0.89109997 -1.6549,-0.89109992 -2.62238,-2.54599992 -0.94202,-1.6548999 -0.94202,-3.8699198 0,-2.18956 0.96748,-3.8444603 0.96748,-1.68036 2.64784,-2.57146 1.68036,-0.891099 3.76808,-0.891099 2.087719,0 3.768079,0.891099 1.68036,0.8911 2.64784,2.57146 0.96748,1.6549003 0.96748,3.8444603 0,2.1895599 -0.99294,3.8699198 -0.96748,1.6549 -2.6733,2.54599992 -1.68036,0.89109997 -3.768079,0.89109997 z m 0,-3.76807989 q 1.24754,0 2.113179,-0.9165599 0.8911,-0.91656 0.8911,-2.6223799 0,-1.70582 -0.86564,-2.62238 -0.840179,-0.9165603 -2.087719,-0.9165603 -1.273,0 -2.11318,0.9165603 -0.84018,0.8911 -0.84018,2.62238 0,1.7058199 0.81472,2.6223799 0.84018,0.9165599 2.08772,0.9165599 z"
         style="font-size:25.46px;fill:#010000"
         id="path1657" />
      <path
         d="m 46.311694,0.20367999 q -2.08772,0 -3.76808,-0.89109997 -1.6549,-0.89109992 -2.62238,-2.54599992 -0.942019,-1.6548999 -0.942019,-3.8699198 0,-2.18956 0.967479,-3.8444603 0.96748,-1.68036 2.64784,-2.57146 1.68036,-0.891099 3.76808,-0.891099 2.08772,0 3.76808,0.891099 1.68036,0.8911 2.64784,2.57146 0.96748,1.6549003 0.96748,3.8444603 0,2.1895599 -0.99294,3.8699198 -0.96748,1.6549 -2.6733,2.54599992 -1.68036,0.89109997 -3.76808,0.89109997 z m 0,-3.76807989 q 1.24754,0 2.11318,-0.9165599 0.8911,-0.91656 0.8911,-2.6223799 0,-1.70582 -0.86564,-2.62238 -0.84018,-0.9165603 -2.08772,-0.9165603 -1.273,0 -2.11318,0.9165603 -0.84018,0.8911 -0.84018,2.62238 0,1.7058199 0.81472,2.6223799 0.84018,0.9165599 2.08772,0.9165599 z"
         style="font-size:25.46px;fill:#010000"
         id="path1659" />
      <path
         d="m 55.197213,-7.1287997 q 0,-2.18956 0.81472,-3.8444603 0.84018,-1.6549 2.26594,-2.546 1.42576,-0.891099 3.1825,-0.891099 1.4003,0 2.546,0.585579 1.17116,0.58558 1.83312,1.57852 v -6.594139 h 4.353659 V 0 h -4.353659 v -2.0367999 q -0.61104,1.0183999 -1.75674,1.62943991 -1.12024,0.61103998 -2.62238,0.61103998 -1.75674,0 -3.1825,-0.89109997 -1.42576,-0.91655992 -2.26594,-2.57145992 -0.81472,-1.6803599 -0.81472,-3.8699198 z m 10.64228,0.02546 q 0,-1.62944 -0.91656,-2.57146 -0.8911,-0.9420203 -2.18956,-0.9420203 -1.29846,0 -2.21502,0.9420203 -0.8911,0.91656 -0.8911,2.546 0,1.6294399 0.8911,2.5969199 0.91656,0.9420199 2.21502,0.9420199 1.29846,0 2.18956,-0.9420199 0.91656,-0.94202 0.91656,-2.5714599 z"
         style="font-size:25.46px;fill:#010000"
         id="path1661" />
      <path
         d="m 84.298018,-10.74412 v 3.6153203 h -11.2024 V -10.74412 Z"
         style="font-size:25.46px;fill:#010000"
         id="path1663" />
      <path
         d="m 92.47067,-12.19534 q 0.61104,-0.99294 1.75674,-1.60398 1.1457,-0.611039 2.62238,-0.611039 1.75674,0 3.1825,0.891099 1.42576,0.8911 2.24048,2.546 0.84018,1.6549003 0.84018,3.8444603 0,2.1895599 -0.84018,3.8699198 -0.81472,1.6549 -2.24048,2.57145992 -1.42576,0.89109997 -3.1825,0.89109997 -1.50214,0 -2.62238,-0.58557998 -1.12024,-0.61103997 -1.75674,-1.60397991 V 0 h -4.35366 v -18.840399 h 4.35366 z m 6.21224,5.0665403 q 0,-1.62944 -0.91656,-2.546 -0.8911,-0.9420203 -2.21502,-0.9420203 -1.29846,0 -2.21502,0.9420203 -0.8911,0.94202 -0.8911,2.57146 0,1.6294399 0.8911,2.5714599 0.91656,0.9420199 2.21502,0.9420199 1.29846,0 2.21502,-0.9420199 0.91656,-0.96748 0.91656,-2.5969199 z"
         style="font-size:25.46px;fill:#010000"
         id="path1665" />
      <path
         d="m 104.53873,-7.1287997 q 0,-2.18956 0.81472,-3.8444603 0.84018,-1.6549 2.26594,-2.546 1.42576,-0.891099 3.1825,-0.891099 1.50214,0 2.62238,0.611039 1.1457,0.61104 1.75674,1.60398 v -2.011339 h 4.35366 V 0 h -4.35366 v -2.0113399 q -0.6365,0.9929399 -1.7822,1.60397991 -1.12024,0.61103998 -2.62238,0.61103998 -1.73128,0 -3.15704,-0.89109997 -1.42576,-0.91655992 -2.26594,-2.57145992 -0.81472,-1.6803599 -0.81472,-3.8699198 z m 10.64228,0.02546 q 0,-1.62944 -0.91656,-2.57146 -0.8911,-0.9420203 -2.18956,-0.9420203 -1.29846,0 -2.21502,0.9420203 -0.8911,0.91656 -0.8911,2.546 0,1.6294399 0.8911,2.5969199 0.91656,0.9420199 2.21502,0.9420199 1.29846,0 2.18956,-0.9420199 0.91656,-0.94202 0.91656,-2.5714599 z"
         style="font-size:25.46px;fill:#010000"
         id="path1667" />
      <path
         d="m 128.47115,0.20367999 q -1.85858,0 -3.3098,-0.63649997 -1.45122,-0.63650002 -2.2914,-1.73127992 -0.84018,-1.12024 -0.94202,-2.4950799 h 4.30274 q 0.0764,0.7383399 0.68742,1.1966199 0.61104,0.45828 1.50214,0.45828 0.81472,0 1.24754,-0.30552 0.45828,-0.33098 0.45828,-0.84018 0,-0.6110399 -0.6365,-0.8910999 -0.6365,-0.30552 -2.06226,-0.66196 -1.5276,-0.35644 -2.546,-0.73834 -1.0184,-0.40736 -1.75674,-1.2475399 -0.73834,-0.86564 -0.73834,-2.3168603 0,-1.22208 0.66196,-2.21502 0.68742,-1.0184 1.98588,-1.60398 1.32392,-0.585579 3.13158,-0.585579 2.6733,0 4.2009,1.323919 1.55306,1.32392 1.7822,3.5134803 h -4.02268 q -0.10184,-0.7383403 -0.66196,-1.1711603 -0.53466,-0.43282 -1.42576,-0.43282 -0.7638,0 -1.17116,0.30552 -0.40736,0.28006 -0.40736,0.78926 0,0.6110403 0.6365,0.9165603 0.66196,0.30552 2.0368,0.61104 1.57852,0.40736 2.57146,0.81472 0.99294,0.3819 1.73128,1.2729999 0.7638,0.86564 0.78926,2.3423199 0,1.24754 -0.71288,2.24048 -0.68742,0.96747993 -2.01134,1.52759991 -1.29846,0.56011998 -3.02974,0.56011998 z"
         style="font-size:25.46px;fill:#010000"
         id="path1669" />
      <path
         d="m 150.29038,-7.3324797 q 0,0.6110399 -0.0764,1.2729999 h -9.85302 q 0.10184,1.32392 0.84018,2.0367999 0.7638,0.68742 1.85858,0.68742 1.62944,0 2.26594,-1.3748399 h 4.63372 q -0.35644,1.4002999 -1.29846,2.5205399 -0.91656,1.1202399 -2.31686,1.75673992 -1.4003,0.63649997 -3.13158,0.63649997 -2.08772,0 -3.71716,-0.89109997 -1.62944,-0.89109992 -2.546,-2.54599992 -0.91656,-1.6548999 -0.91656,-3.8699198 0,-2.21502 0.8911,-3.8699203 0.91656,-1.6549 2.546,-2.546 1.62944,-0.891099 3.74262,-0.891099 2.06226,0 3.66624,0.865639 1.60398,0.86564 2.49508,2.46962 0.91656,1.6039803 0.91656,3.7426203 z m -4.4555,-1.1457 q 0,-1.12024 -0.7638,-1.7822003 -0.7638,-0.66196 -1.9095,-0.66196 -1.09478,0 -1.85858,0.6365 -0.73834,0.6365003 -0.91656,1.8076603 z"
         style="font-size:25.46px;fill:#010000"
         id="path1671" />
      <path
         d="m 151.71613,-7.1287997 q 0,-2.18956 0.81472,-3.8444603 0.84018,-1.6549 2.26594,-2.546 1.42576,-0.891099 3.1825,-0.891099 1.4003,0 2.546,0.585579 1.17116,0.58558 1.83312,1.57852 v -6.594139 h 4.35366 V 0 h -4.35366 v -2.0367999 q -0.61104,1.0183999 -1.75674,1.62943991 -1.12024,0.61103998 -2.62238,0.61103998 -1.75674,0 -3.1825,-0.89109997 -1.42576,-0.91655992 -2.26594,-2.57145992 -0.81472,-1.6803599 -0.81472,-3.8699198 z m 10.64228,0.02546 q 0,-1.62944 -0.91656,-2.57146 -0.8911,-0.9420203 -2.18956,-0.9420203 -1.29846,0 -2.21502,0.9420203 -0.8911,0.91656 -0.8911,2.546 0,1.6294399 0.8911,2.5969199 0.91656,0.9420199 2.21502,0.9420199 1.29846,0 2.18956,-0.9420199 0.91656,-0.94202 0.91656,-2.5714599 z"
         style="font-size:25.46px;fill:#010000"
         id="path1673" />
      <path
         d="m 179.62031,-12.19534 q 0.61104,-0.99294 1.75674,-1.60398 1.1457,-0.611039 2.62238,-0.611039 1.75674,0 3.1825,0.891099 1.42576,0.8911 2.24048,2.546 0.84018,1.6549003 0.84018,3.8444603 0,2.1895599 -0.84018,3.8699198 -0.81472,1.6549 -2.24048,2.57145992 -1.42576,0.89109997 -3.1825,0.89109997 -1.50214,0 -2.62238,-0.58557998 -1.12024,-0.61103997 -1.75674,-1.60397991 V 0 h -4.35366 v -18.840399 h 4.35366 z m 6.21224,5.0665403 q 0,-1.62944 -0.91656,-2.546 -0.8911,-0.9420203 -2.21502,-0.9420203 -1.29846,0 -2.21502,0.9420203 -0.8911,0.94202 -0.8911,2.57146 0,1.6294399 0.8911,2.5714599 0.91656,0.9420199 2.21502,0.9420199 1.29846,0 2.21502,-0.9420199 0.91656,-0.96748 0.91656,-2.5969199 z"
         style="font-size:25.46px;fill:#010000"
         id="path1675" />
      <path
         d="m 199.02085,0.20367999 q -2.08772,0 -3.76808,-0.89109997 -1.6549,-0.89109992 -2.62238,-2.54599992 -0.94202,-1.6548999 -0.94202,-3.8699198 0,-2.18956 0.96748,-3.8444603 0.96748,-1.68036 2.64784,-2.57146 1.68036,-0.891099 3.76808,-0.891099 2.08772,0 3.76808,0.891099 1.68036,0.8911 2.64784,2.57146 0.96748,1.6549003 0.96748,3.8444603 0,2.1895599 -0.99294,3.8699198 -0.96748,1.6549 -2.6733,2.54599992 -1.68036,0.89109997 -3.76808,0.89109997 z m 0,-3.76807989 q 1.24754,0 2.11318,-0.9165599 0.8911,-0.91656 0.8911,-2.6223799 0,-1.70582 -0.86564,-2.62238 -0.84018,-0.9165603 -2.08772,-0.9165603 -1.273,0 -2.11318,0.9165603 -0.84018,0.8911 -0.84018,2.62238 0,1.7058199 0.81472,2.6223799 0.84018,0.9165599 2.08772,0.9165599 z"
         style="font-size:25.46px;fill:#010000"
         id="path1677" />
      <path
         d="m 207.90636,-7.1287997 q 0,-2.18956 0.81472,-3.8444603 0.84018,-1.6549 2.26594,-2.546 1.42576,-0.891099 3.1825,-0.891099 1.50214,0 2.62238,0.611039 1.1457,0.61104 1.75674,1.60398 v -2.011339 h 4.35366 V 0 h -4.35366 v -2.0113399 q -0.6365,0.9929399 -1.7822,1.60397991 -1.12024,0.61103998 -2.62238,0.61103998 -1.73128,0 -3.15704,-0.89109997 -1.42576,-0.91655992 -2.26594,-2.57145992 -0.81472,-1.6803599 -0.81472,-3.8699198 z m 10.64228,0.02546 q 0,-1.62944 -0.91656,-2.57146 -0.8911,-0.9420203 -2.18956,-0.9420203 -1.29846,0 -2.21502,0.9420203 -0.8911,0.91656 -0.8911,2.546 0,1.6294399 0.8911,2.5969199 0.91656,0.9420199 2.21502,0.9420199 1.29846,0 2.18956,-0.9420199 0.91656,-0.94202 0.91656,-2.5714599 z"
         style="font-size:25.46px;fill:#010000"
         id="path1679" />
      <path
         d="m 230.41303,-11.8389 q 0.7638,-1.17116 1.9095,-1.83312 1.1457,-0.687419 2.546,-0.687419 v 4.6082594 h -1.19662 q -1.62944,0 -2.44416,0.7128799 -0.81472,0.68742 -0.81472,2.4441599 V 0 h -4.35366 v -14.206679 h 4.35366 z"
         style="font-size:25.46px;fill:#010000"
         id="path1681" />
      <path
         d="m 236.0906,-7.1287997 q 0,-2.18956 0.81472,-3.8444603 0.84018,-1.6549 2.26594,-2.546 1.42576,-0.891099 3.1825,-0.891099 1.4003,0 2.546,0.585579 1.17116,0.58558 1.83312,1.57852 v -6.594139 h 4.35366 V 0 h -4.35366 v -2.0367999 q -0.61104,1.0183999 -1.75674,1.62943991 -1.12024,0.61103998 -2.62238,0.61103998 -1.75674,0 -3.1825,-0.89109997 -1.42576,-0.91655992 -2.26594,-2.57145992 -0.81472,-1.6803599 -0.81472,-3.8699198 z m 10.64228,0.02546 q 0,-1.62944 -0.91656,-2.57146 -0.8911,-0.9420203 -2.18956,-0.9420203 -1.29846,0 -2.21502,0.9420203 -0.8911,0.91656 -0.8911,2.546 0,1.6294399 0.8911,2.5969199 0.91656,0.9420199 2.21502,0.9420199 1.29846,0 2.18956,-0.9420199 0.91656,-0.94202 0.91656,-2.5714599 z"
         style="font-size:25.46px;fill:#010000"
         id="path1683" />
      <path
         d="m 260.02301,0.20367999 q -1.85858,0 -3.3098,-0.63649997 -1.45122,-0.63650002 -2.2914,-1.73127992 -0.84018,-1.12024 -0.94202,-2.4950799 h 4.30274 q 0.0764,0.7383399 0.68742,1.1966199 0.61104,0.45828 1.50214,0.45828 0.81472,0 1.24754,-0.30552 0.45828,-0.33098 0.45828,-0.84018 0,-0.6110399 -0.6365,-0.8910999 -0.6365,-0.30552 -2.06226,-0.66196 -1.5276,-0.35644 -2.546,-0.73834 -1.0184,-0.40736 -1.75674,-1.2475399 -0.73834,-0.86564 -0.73834,-2.3168603 0,-1.22208 0.66196,-2.21502 0.68742,-1.0184 1.98588,-1.60398 1.32392,-0.585579 3.13158,-0.585579 2.6733,0 4.2009,1.323919 1.55306,1.32392 1.7822,3.5134803 h -4.02268 q -0.10184,-0.7383403 -0.66196,-1.1711603 -0.53466,-0.43282 -1.42576,-0.43282 -0.7638,0 -1.17116,0.30552 -0.40736,0.28006 -0.40736,0.78926 0,0.6110403 0.6365,0.9165603 0.66196,0.30552 2.0368,0.61104 1.57852,0.40736 2.57146,0.81472 0.99294,0.3819 1.73128,1.2729999 0.7638,0.86564 0.78926,2.3423199 0,1.24754 -0.71288,2.24048 -0.68742,0.96747993 -2.01134,1.52759991 -1.29846,0.56011998 -3.02974,0.56011998 z"
         style="font-size:25.46px;fill:#010000"
         id="path1685" />
      <path
         d="m 270.43697,0.20152 q -1.13355,0 -1.86406,-0.65494001 -0.70532,-0.68012999 -0.70532,-1.66253999 0,-1.0076001 0.70532,-1.6877301 0.73051,-0.68013 1.86406,-0.68013 1.10836,0 1.81368,0.68013 0.73051,0.68013 0.73051,1.6877301 0,0.98241 -0.73051,1.66253999 Q 271.54533,0.20152 270.43697,0.20152 Z"
         style="font-size:25.19px;fill:#ca151a"
         id="path1687" />
    </g>
    <path
       class="cls-9"
       d="M144.66,358.97h-4.13c-.64,0-1.16-.52-1.16-1.16v-66.48c0-.64.52-1.16,1.16-1.16h46.47v5.29l-42.34,63.51Z"
       id="path1356" />
    <path
       class="cls-9"
       d="M181.89,290.17v5.29l1.58,5.29,3.53-5.29v-4.13c0-.64-.52-1.16-1.16-1.16h-3.95Z"
       id="path1358" />
    <path
       class="cls-4"
       d="M155.34,363.65c-3.18.2-6.35.41-9.52.61-.64,0-1.16-.52-1.16-1.16v-66.48c0-.64.52-1.16,1.16-1.16h41.36c.84.01,1.69.03,2.53.04.09,3.26.19,6.52.28,9.79-11.55,19.45-23.1,38.9-34.65,58.36Z"
       id="path1360" />
    <path
       class="cls-9"
       d="M193.43,300.59c-13.36.06-26.71.11-40.07.17-1.88,0-3.41,1.53-3.41,3.41v68.04c15.68,0,31.37,0,47.05,0-.05-22.73-.09-45.45-.14-68.18,0-.25-.04-1.42-.98-2.39-.98-1.01-2.22-1.05-2.46-1.05Z"
       id="path1362" />
    <path
       class="cls-4"
       d="M155.24,307.32c-.72,0-1.28-.59-1.28-1.28s.54-1.28,1.28-1.28,1.28.58,1.28,1.28-.56,1.28-1.28,1.28h0Z"
       id="path1364" />
    <path
       class="cls-4"
       d="M160.54,307.32c-.72,0-1.28-.58-1.28-1.28s.56-1.28,1.28-1.28,1.28.6,1.28,1.28-.53,1.28-1.28,1.28Z"
       id="path1366" />
    <path
       class="cls-4"
       d="M165.83,307.32c-.72,0-1.28-.58-1.28-1.28s.57-1.28,1.28-1.28,1.28.59,1.28,1.28-.56,1.28-1.28,1.28h0Z"
       id="path1368" />
    <path
       class="cls-4"
       d="M171.12,307.32c-.72,0-1.28-.58-1.28-1.28s.57-1.28,1.28-1.28,1.28.57,1.28,1.28c0,.72-.59,1.28-1.28,1.28h0Z"
       id="path1370" />
    <path
       class="cls-4"
       d="M176.41,307.32c-.72,0-1.28-.59-1.28-1.28s.54-1.28,1.28-1.28,1.28.57,1.28,1.28c0,.71-.58,1.28-1.28,1.28Z"
       id="path1372" />
    <path
       class="cls-4"
       d="M181.71,307.32c-.71,0-1.28-.58-1.28-1.28s.57-1.28,1.28-1.28,1.28.57,1.28,1.28c0,.73-.6,1.28-1.28,1.28Z"
       id="path1374" />
    <path
       class="cls-4"
       d="M187,307.32c-.69,0-1.28-.56-1.28-1.28s.57-1.28,1.28-1.28,1.28.59,1.28,1.28-.57,1.28-1.28,1.28Z"
       id="path1376" />
    <path
       class="cls-4"
       d="M192.29,307.32c-.61,0-1.14-.44-1.25-1.03-.16-.77.43-1.53,1.25-1.53.71,0,1.28.58,1.28,1.28,0,.68-.56,1.28-1.28,1.28h0Z"
       id="path1378" />
    <path
       class="cls-4"
       d="M157.89,312.62c-.69,0-1.28-.56-1.28-1.28,0-.66.53-1.28,1.28-1.28.7,0,1.27.57,1.27,1.28,0,.73-.6,1.28-1.28,1.28Z"
       id="path1380" />
    <path
       class="cls-4"
       d="M163.18,312.62c-.68,0-1.28-.55-1.28-1.28s.56-1.28,1.28-1.28,1.27.59,1.27,1.28c0,.73-.6,1.28-1.28,1.28h0Z"
       id="path1382" />
    <path
       class="cls-4"
       d="M168.48,312.62c-.82,0-1.41-.76-1.25-1.53.11-.59.64-1.03,1.25-1.03.68,0,1.28.55,1.28,1.28,0,.7-.57,1.28-1.28,1.28h0Z"
       id="path1384" />
    <path
       class="cls-4"
       d="M173.77,312.62c-.71,0-1.28-.58-1.28-1.28s.58-1.28,1.28-1.28,1.28.57,1.28,1.28c0,.7-.57,1.28-1.28,1.28Z"
       id="path1386" />
    <path
       class="cls-4"
       d="M179.06,312.62c-.71,0-1.28-.58-1.28-1.28s.56-1.28,1.27-1.28,1.28.57,1.28,1.28-.6,1.28-1.28,1.28Z"
       id="path1388" />
    <path
       class="cls-4"
       d="M184.35,312.62c-.67,0-1.28-.54-1.28-1.28,0-.7.56-1.28,1.27-1.28s1.28.58,1.28,1.28-.59,1.28-1.28,1.28Z"
       id="path1390" />
    <path
       class="cls-4"
       d="M189.64,312.62c-.68,0-1.28-.55-1.28-1.28s.58-1.28,1.28-1.28,1.27.57,1.27,1.28c0,.7-.57,1.28-1.28,1.28Z"
       id="path1392" />
    <path
       id="circle1394"
       class="cls-4"
       style="fill:#ffffff;stroke-width:0px"
       d="m 156.52001,316.63 a 1.28,1.28 0 0 1 -1.28,1.28 1.28,1.28 0 0 1 -1.28,-1.28 1.28,1.28 0 0 1 1.28,-1.28 1.28,1.28 0 0 1 1.28,1.28 z" />
    <path
       class="cls-4"
       d="M160.54,317.91c-.71,0-1.28-.58-1.28-1.28,0-.61.49-1.28,1.28-1.28.71,0,1.28.57,1.28,1.28,0,.71-.57,1.28-1.28,1.28Z"
       id="path1396" />
    <path
       class="cls-4"
       d="M165.83,317.91c-.71,0-1.28-.57-1.28-1.28,0-.79.66-1.28,1.28-1.28.67,0,1.28.54,1.28,1.28s-.57,1.28-1.28,1.28Z"
       id="path1398" />
    <path
       class="cls-4"
       d="M171.12,317.91c-.71,0-1.28-.57-1.28-1.28s.6-1.28,1.28-1.28,1.28.57,1.28,1.28c0,.71-.58,1.28-1.28,1.28h0Z"
       id="path1400" />
    <path
       class="cls-4"
       d="M176.41,317.91c-.7,0-1.28-.57-1.28-1.28s.59-1.28,1.28-1.28c.65,0,1.28.52,1.28,1.28,0,.71-.58,1.28-1.28,1.28Z"
       id="path1402" />
    <path
       class="cls-4"
       d="M181.71,317.91c-.7,0-1.28-.56-1.28-1.28s.59-1.28,1.28-1.28,1.28.53,1.28,1.28c0,.7-.57,1.28-1.28,1.28Z"
       id="path1404" />
    <path
       class="cls-4"
       d="M187,317.91c-.73,0-1.28-.59-1.28-1.28s.56-1.28,1.28-1.28,1.28.59,1.28,1.28-.57,1.28-1.28,1.28Z"
       id="path1406" />
    <path
       class="cls-4"
       d="M192.29,317.91c-.71,0-1.28-.57-1.28-1.28s.6-1.28,1.28-1.28,1.28.58,1.28,1.28c0,.71-.58,1.28-1.28,1.28Z"
       id="path1408" />
    <path
       class="cls-4"
       d="M157.89,323.2c-.68,0-1.28-.56-1.28-1.28s.59-1.28,1.27-1.28c.72,0,1.28.58,1.28,1.28s-.58,1.28-1.28,1.28Z"
       id="path1410" />
    <path
       class="cls-4"
       d="M163.18,323.2c-.7,0-1.28-.56-1.28-1.28s.58-1.28,1.27-1.28c.62,0,1.28.48,1.28,1.28,0,.69-.56,1.28-1.28,1.28Z"
       id="path1412" />
    <path
       class="cls-4"
       d="M168.48,323.2c-.7,0-1.28-.57-1.28-1.28s.58-1.28,1.27-1.28c.62,0,1.28.48,1.28,1.28,0,.64-.5,1.28-1.28,1.28Z"
       id="path1414" />
    <path
       class="cls-4"
       d="M173.77,323.2c-.68,0-1.28-.55-1.28-1.28s.59-1.28,1.27-1.28c.62,0,1.28.48,1.28,1.28,0,.71-.58,1.28-1.28,1.28Z"
       id="path1416" />
    <path
       class="cls-4"
       d="M179.06,323.2c-.71,0-1.28-.59-1.28-1.28s.54-1.28,1.28-1.28c.7,0,1.28.57,1.28,1.28,0,.7-.57,1.28-1.28,1.28Z"
       id="path1418" />
    <path
       class="cls-4"
       d="M184.35,323.2c-.72,0-1.28-.59-1.28-1.28s.57-1.28,1.28-1.28c.78,0,1.41.71,1.25,1.53-.13.62-.66,1.03-1.25,1.03Z"
       id="path1420" />
    <path
       class="cls-4"
       d="M189.64,323.2c-.69,0-1.28-.56-1.28-1.28s.58-1.28,1.27-1.28c.62,0,1.28.48,1.28,1.28,0,.64-.51,1.28-1.28,1.28Z"
       id="path1422" />
    <path
       class="cls-4"
       d="M155.24,328.49c-.63,0-1.28-.5-1.28-1.28,0-.71.58-1.28,1.28-1.28s1.28.55,1.28,1.28c0,.77-.63,1.28-1.28,1.28Z"
       id="path1424" />
    <path
       class="cls-4"
       d="M160.54,328.49c-.7,0-1.28-.57-1.28-1.28s.58-1.28,1.28-1.28,1.28.56,1.28,1.28c0,.76-.63,1.28-1.28,1.28h0Z"
       id="path1426" />
    <path
       class="cls-4"
       d="M165.83,328.49c-.66,0-1.28-.52-1.28-1.28s.59-1.28,1.28-1.28,1.28.57,1.28,1.28-.6,1.28-1.28,1.28Z"
       id="path1428" />
    <path
       class="cls-4"
       d="M171.12,328.49c-.71,0-1.28-.58-1.28-1.28s.57-1.28,1.28-1.28,1.28.56,1.28,1.28c0,.72-.59,1.28-1.28,1.28h0Z"
       id="path1430" />
    <path
       class="cls-4"
       d="M176.41,328.49c-.7,0-1.28-.57-1.28-1.28,0-.65.51-1.28,1.28-1.28.7,0,1.27.57,1.27,1.28,0,.77-.64,1.28-1.28,1.28Z"
       id="path1432" />
    <path
       id="circle1434"
       class="cls-4"
       style="fill:#ffffff;stroke-width:0px"
       d="m 182.99001,327.22 a 1.28,1.28 0 0 1 -1.28,1.28 1.28,1.28 0 0 1 -1.28,-1.28 1.28,1.28 0 0 1 1.28,-1.28 1.28,1.28 0 0 1 1.28,1.28 z" />
    <path
       class="cls-4"
       d="M187,328.49c-.64,0-1.28-.5-1.28-1.28,0-.71.57-1.28,1.28-1.28.66,0,1.28.52,1.28,1.28,0,.71-.58,1.28-1.28,1.28Z"
       id="path1436" />
    <path
       class="cls-4"
       d="M192.29,328.49c-.66,0-1.28-.52-1.28-1.28,0-.71.57-1.28,1.28-1.28.8,0,1.28.66,1.28,1.28,0,.34-.14.67-.37.9-.24.24-.57.37-.9.37h0Z"
       id="path1438" />
    <path
       class="cls-4"
       d="M157.89,333.79c-.67,0-1.28-.54-1.28-1.28,0-.7.57-1.28,1.28-1.28s1.28.57,1.28,1.28-.57,1.28-1.28,1.28h0Z"
       id="path1440" />
    <path
       class="cls-4"
       d="M163.18,333.79c-.67,0-1.28-.54-1.28-1.28s.57-1.28,1.28-1.28,1.28.58,1.28,1.28c0,.74-.6,1.28-1.28,1.28Z"
       id="path1442" />
    <path
       class="cls-4"
       d="M168.48,333.79c-.67,0-1.28-.54-1.28-1.28s.58-1.28,1.28-1.28,1.28.6,1.28,1.28c0,.7-.57,1.28-1.28,1.28Z"
       id="path1444" />
    <path
       class="cls-4"
       d="M173.77,333.79c-.7,0-1.28-.57-1.28-1.28s.57-1.28,1.28-1.28,1.28.57,1.28,1.28c0,.69-.56,1.28-1.28,1.28Z"
       id="path1446" />
    <path
       class="cls-4"
       d="M179.06,333.79c-.71,0-1.28-.58-1.28-1.28s.56-1.28,1.28-1.28,1.28.58,1.28,1.28-.58,1.28-1.28,1.28Z"
       id="path1448" />
    <path
       class="cls-4"
       d="M184.35,333.79c-.67,0-1.28-.54-1.28-1.28,0-.69.57-1.28,1.28-1.28s1.28.58,1.28,1.28c0,.74-.6,1.28-1.28,1.28h0Z"
       id="path1450" />
    <path
       class="cls-4"
       d="M189.64,333.79c-.08,0-.17,0-.25-.03-.57-.11-1.03-.63-1.03-1.25,0-.72.58-1.28,1.28-1.28.73,0,1.28.6,1.28,1.28,0,.73-.6,1.28-1.28,1.28Z"
       id="path1452" />
    <path
       class="cls-4"
       d="M155.24,339.08c-.71,0-1.28-.58-1.28-1.28s.6-1.28,1.28-1.28,1.28.57,1.28,1.28c0,.71-.58,1.28-1.28,1.28Z"
       id="path1454" />
    <path
       class="cls-4"
       d="M160.54,339.08c-.69,0-1.28-.56-1.28-1.28s.58-1.28,1.28-1.28,1.28.57,1.28,1.28c0,.69-.56,1.28-1.28,1.28h0Z"
       id="path1456" />
    <path
       class="cls-4"
       d="M165.83,339.08c-.7,0-1.28-.57-1.28-1.28s.59-1.28,1.28-1.28,1.28.59,1.28,1.28-.57,1.28-1.28,1.28h0Z"
       id="path1458" />
    <path
       id="circle1460"
       class="cls-4"
       style="fill:#ffffff;stroke-width:0px"
       d="m 172.4,337.79999 a 1.28,1.28 0 0 1 -1.28,1.28 1.28,1.28 0 0 1 -1.28,-1.28 1.28,1.28 0 0 1 1.28,-1.28 1.28,1.28 0 0 1 1.28,1.28 z" />
    <path
       class="cls-4"
       d="M176.41,339.08c-.77,0-1.28-.63-1.28-1.28,0-.7.57-1.28,1.27-1.28s1.28.56,1.28,1.28-.57,1.28-1.28,1.28h0Z"
       id="path1462" />
    <path
       class="cls-4"
       d="M181.71,339.08c-.69,0-1.28-.56-1.28-1.28s.56-1.28,1.28-1.28,1.28.58,1.28,1.28c0,.71-.57,1.28-1.28,1.28Z"
       id="path1464" />
    <path
       class="cls-4"
       d="M187,339.08c-.69,0-1.28-.56-1.28-1.28s.54-1.28,1.28-1.28,1.27.59,1.27,1.28-.56,1.28-1.28,1.28Z"
       id="path1466" />
    <path
       class="cls-4"
       d="M192.29,339.08c-.72,0-1.28-.58-1.28-1.28,0-.73.6-1.28,1.28-1.28s1.28.55,1.28,1.28c0,.69-.56,1.28-1.28,1.28Z"
       id="path1468" />
    <path
       class="cls-4"
       d="M157.89,344.37c-.71,0-1.28-.57-1.28-1.28s.57-1.28,1.28-1.28,1.28.58,1.28,1.28-.56,1.28-1.28,1.28h0Z"
       id="path1470" />
    <path
       class="cls-4"
       d="M163.18,344.37c-.71,0-1.28-.58-1.28-1.28s.59-1.28,1.27-1.28c.73,0,1.28.6,1.28,1.28s-.56,1.28-1.28,1.28Z"
       id="path1472" />
    <path
       class="cls-4"
       d="M168.48,344.37c-.79,0-1.28-.66-1.28-1.28,0-.7.57-1.28,1.28-1.28s1.27.6,1.27,1.28c0,.71-.58,1.28-1.28,1.28Z"
       id="path1474" />
    <path
       class="cls-4"
       d="M173.77,344.37c-.71,0-1.28-.57-1.28-1.28s.58-1.28,1.28-1.28,1.28.57,1.28,1.28c0,.71-.58,1.28-1.28,1.28Z"
       id="path1476" />
    <path
       class="cls-4"
       d="M179.06,344.37c-.69,0-1.28-.55-1.28-1.28s.59-1.28,1.27-1.28,1.28.58,1.28,1.28c0,.7-.57,1.28-1.28,1.28h0Z"
       id="path1478" />
    <path
       class="cls-4"
       d="M184.35,344.37c-.7,0-1.28-.57-1.28-1.28s.56-1.28,1.28-1.28,1.27.59,1.27,1.28c0,.34-.14.67-.37.9-.25.24-.57.37-.9.37Z"
       id="path1480" />
    <path
       class="cls-4"
       d="M189.64,344.37c-.74,0-1.28-.6-1.28-1.28s.57-1.28,1.28-1.28,1.28.57,1.28,1.28c0,.71-.57,1.28-1.28,1.28Z"
       id="path1482" />
    <path
       class="cls-4"
       d="M155.24,349.66c-.68,0-1.28-.56-1.28-1.28s.58-1.28,1.28-1.28,1.28.57,1.28,1.28c0,.7-.56,1.28-1.28,1.28Z"
       id="path1484" />
    <path
       class="cls-4"
       d="M160.54,349.66c-.68,0-1.28-.55-1.28-1.28s.57-1.28,1.28-1.28,1.28.57,1.28,1.28-.58,1.28-1.28,1.28h0Z"
       id="path1486" />
    <path
       class="cls-4"
       d="M164.58,348.63c-.15-.82.47-1.53,1.25-1.53.7,0,1.28.57,1.28,1.28,0,.25-.11.89-.79,1.18-.74.31-1.58-.13-1.74-.93h0Z"
       id="path1488" />
    <path
       class="cls-4"
       d="M171.12,349.66c-.7,0-1.28-.57-1.28-1.28s.58-1.28,1.28-1.28,1.28.58,1.28,1.28-.59,1.28-1.28,1.28Z"
       id="path1490" />
    <path
       class="cls-4"
       d="M176.41,349.66c-.68,0-1.28-.55-1.28-1.28,0-.68.55-1.28,1.28-1.28s1.28.58,1.28,1.28c0,.66-.53,1.28-1.28,1.28Z"
       id="path1492" />
    <path
       class="cls-4"
       d="M181.71,349.66c-.71,0-1.28-.59-1.28-1.28s.57-1.28,1.28-1.28,1.28.57,1.28,1.28c0,.71-.57,1.28-1.28,1.28Z"
       id="path1494" />
    <path
       class="cls-4"
       d="M187,349.66c-.68,0-1.28-.55-1.28-1.28s.57-1.28,1.28-1.28,1.28.6,1.28,1.28c0,.72-.6,1.28-1.28,1.28Z"
       id="path1496" />
    <path
       class="cls-4"
       d="M192.29,349.66c-.66,0-1.28-.52-1.28-1.28,0-.71.57-1.28,1.28-1.28s1.28.57,1.28,1.28c0,.72-.59,1.28-1.28,1.28Z"
       id="path1498" />
    <path
       class="cls-4"
       d="M157.89,354.96c-.71,0-1.28-.58-1.28-1.28s.55-1.28,1.28-1.28,1.28.59,1.28,1.28-.59,1.28-1.28,1.28Z"
       id="path1500" />
    <path
       class="cls-4"
       d="M163.18,354.96c-.67,0-1.28-.54-1.28-1.28s.58-1.28,1.28-1.28c.76,0,1.28.63,1.28,1.28,0,.71-.58,1.28-1.28,1.28h0Z"
       id="path1502" />
    <path
       class="cls-4"
       d="M168.48,354.96c-.69,0-1.28-.56-1.28-1.28s.57-1.28,1.28-1.28,1.28.58,1.28,1.28c0,.72-.59,1.28-1.28,1.28Z"
       id="path1504" />
    <path
       class="cls-4"
       d="M173.77,354.96c-.71,0-1.28-.58-1.28-1.28s.57-1.28,1.28-1.28,1.28.57,1.28,1.28-.58,1.28-1.28,1.28h0Z"
       id="path1506" />
    <path
       class="cls-4"
       d="M179.06,354.96c-.71,0-1.28-.58-1.28-1.28s.55-1.28,1.28-1.28,1.28.58,1.28,1.28c0,.77-.64,1.28-1.28,1.28Z"
       id="path1508" />
    <path
       class="cls-4"
       d="M184.35,354.96c-.71,0-1.28-.57-1.28-1.28s.57-1.28,1.28-1.28,1.28.57,1.28,1.28c0,.71-.58,1.28-1.28,1.28Z"
       id="path1510" />
    <path
       class="cls-4"
       d="M189.64,354.96c-.68,0-1.28-.54-1.28-1.28s.57-1.28,1.28-1.28,1.28.6,1.28,1.28-.58,1.28-1.28,1.28h0Z"
       id="path1512" />
    <path
       class="cls-4"
       d="M157.89,365.54c-.7,0-1.28-.57-1.28-1.28s.56-1.28,1.28-1.28,1.28.57,1.28,1.28-.57,1.28-1.28,1.28h0Z"
       id="path1514" />
    <path
       class="cls-4"
       d="M163.18,365.54c-.71,0-1.28-.57-1.28-1.28s.6-1.28,1.27-1.28c.73,0,1.28.6,1.28,1.28s-.55,1.28-1.28,1.28Z"
       id="path1516" />
    <path
       id="circle1518"
       class="cls-4"
       style="fill:#ffffff;stroke-width:0px"
       d="m 169.76,364.26001 a 1.28,1.28 0 0 1 -1.28,1.28 1.28,1.28 0 0 1 -1.28,-1.28 1.28,1.28 0 0 1 1.28,-1.28 1.28,1.28 0 0 1 1.28,1.28 z" />
    <path
       class="cls-4"
       d="M173.77,365.54c-.83,0-1.41-.77-1.25-1.53.11-.59.64-1.03,1.25-1.03.71,0,1.28.58,1.28,1.28s-.57,1.28-1.28,1.28Z"
       id="path1520" />
    <path
       class="cls-4"
       d="M179.06,365.54c-.69,0-1.28-.56-1.28-1.28s.57-1.28,1.28-1.28,1.28.58,1.28,1.28-.57,1.28-1.28,1.28Z"
       id="path1522" />
    <path
       class="cls-4"
       d="M184.35,365.54c-.7,0-1.28-.56-1.28-1.28s.58-1.28,1.28-1.28,1.28.6,1.28,1.28c0,.71-.58,1.28-1.28,1.28Z"
       id="path1524" />
    <path
       id="circle1526"
       class="cls-4"
       style="fill:#ffffff;stroke-width:0px"
       d="m 190.92,364.26001 a 1.28,1.28 0 0 1 -1.28,1.28 1.28,1.28 0 0 1 -1.28,-1.28 1.28,1.28 0 0 1 1.28,-1.28 1.28,1.28 0 0 1 1.28,1.28 z" />
    <path
       class="cls-4"
       d="M155.24,360.25c-.71,0-1.28-.58-1.28-1.28s.58-1.28,1.28-1.28,1.28.52,1.28,1.28c0,.72-.59,1.28-1.28,1.28Z"
       id="path1528" />
    <path
       class="cls-4"
       d="M160.54,360.25c-.79,0-1.41-.71-1.25-1.53.13-.62.66-1.03,1.25-1.03.68,0,1.28.55,1.28,1.28,0,.7-.57,1.28-1.28,1.28h0Z"
       id="path1530" />
    <path
       class="cls-4"
       d="M165.83,360.25c-.59,0-1.12-.4-1.25-1.03-.16-.85.49-1.53,1.25-1.53.68,0,1.28.55,1.28,1.28s-.57,1.28-1.28,1.28h0Z"
       id="path1532" />
    <path
       class="cls-4"
       d="M171.12,360.25c-.7,0-1.28-.57-1.28-1.28s.59-1.28,1.28-1.28,1.28.56,1.28,1.28c0,.69-.56,1.28-1.28,1.28h0Z"
       id="path1534" />
    <path
       class="cls-4"
       d="M176.41,360.25c-.73,0-1.28-.6-1.28-1.28,0-.72.59-1.28,1.28-1.28s1.28.56,1.28,1.28c0,.72-.59,1.28-1.28,1.28Z"
       id="path1536" />
    <path
       class="cls-4"
       d="M181.71,360.25c-.72,0-1.28-.59-1.28-1.28s.56-1.28,1.28-1.28,1.28.55,1.28,1.28c0,.7-.56,1.28-1.28,1.28Z"
       id="path1538" />
    <path
       class="cls-4"
       d="M187,360.25c-.71,0-1.28-.58-1.28-1.28s.58-1.28,1.28-1.28,1.28.55,1.28,1.28c0,.67-.54,1.28-1.28,1.28Z"
       id="path1540" />
    <path
       class="cls-4"
       d="M192.29,360.25c-.7,0-1.28-.57-1.28-1.28s.59-1.28,1.28-1.28,1.28.58,1.28,1.28c0,.69-.56,1.28-1.28,1.28Z"
       id="path1542" />
  </g>
</svg>
