<?xml version="1.0" encoding="UTF-8"?><svg id="Warstwa_2" xmlns="http://www.w3.org/2000/svg" xmlns:xlink="http://www.w3.org/1999/xlink" viewBox="0 0 599 599"><defs><style>.cls-1,.cls-2{stroke-width:13px;}.cls-1,.cls-2,.cls-3{stroke-miterlimit:10;}.cls-1,.cls-4{fill:#fff;}.cls-1,.cls-3{stroke:#ca151a;}.cls-5,.cls-6{font-family:Poppins-Medium, Poppins;font-size:17.03px;font-weight:500;}.cls-5,.cls-7{fill:#ca151a;}.cls-8{fill:#fdd203;}.cls-8,.cls-9,.cls-4{stroke-width:0px;}.cls-2{stroke:#fdd203;}.cls-2,.cls-3{fill:none;}.cls-10,.cls-11{font-family:Poppins-Bold, Poppins;font-weight:700;}.cls-10,.cls-6,.cls-12{fill:#010000;}.cls-10,.cls-12{font-size:25.46px;}.cls-9{fill:#000;}.cls-7{font-size:25.19px;}.cls-3{filter:url(#drop-shadow-1);stroke-width:13.81px;}</style><filter id="drop-shadow-1" filterUnits="userSpaceOnUse"><feOffset dx="0" dy="0"/><feGaussianBlur result="blur" stdDeviation="19.84"/><feFlood flood-color="#000" flood-opacity=".47"/><feComposite in2="blur" operator="in"/><feComposite in="SourceGraphic"/></filter></defs><g id="Warstwa_1-2"><circle class="cls-3" cx="299.29" cy="299.7" r="232.52"/><circle class="cls-1" cx="299.29" cy="299.7" r="218.93"/><circle class="cls-2" cx="299.29" cy="299.7" r="218.93"/><text class="cls-6" transform="translate(136.99 237.31) scale(.96 1)"><tspan x="0" y="0">Welcome to our product page.</tspan></text><path class="cls-8" d="M385.75,134.57v28.34h27.65v13.14h-27.65v28.33h-14.52v-28.33h-27.65v-13.14h27.65v-28.34h14.52Z"/><text class="cls-5" transform="translate(136.99 260.43) scale(.96 1)"><tspan x="0" y="0">You will find here:</tspan></text><text class="cls-10" transform="translate(232.19 322.26) scale(.96 1)"><tspan x="0" y="0">full offer of </tspan></text><text class="cls-11" transform="translate(231.64 352.72) scale(.96 1)"><tspan class="cls-12" x="0" y="0">wood-based boards</tspan><tspan class="cls-7" x="266.86" y="0">.</tspan></text><path class="cls-9" d="M144.66,358.97h-4.13c-.64,0-1.16-.52-1.16-1.16v-66.48c0-.64.52-1.16,1.16-1.16h46.47v5.29l-42.34,63.51Z"/><path class="cls-9" d="M181.89,290.17v5.29l1.58,5.29,3.53-5.29v-4.13c0-.64-.52-1.16-1.16-1.16h-3.95Z"/><path class="cls-4" d="M155.34,363.65c-3.18.2-6.35.41-9.52.61-.64,0-1.16-.52-1.16-1.16v-66.48c0-.64.52-1.16,1.16-1.16h41.36c.84.01,1.69.03,2.53.04.09,3.26.19,6.52.28,9.79-11.55,19.45-23.1,38.9-34.65,58.36Z"/><path class="cls-9" d="M193.43,300.59c-13.36.06-26.71.11-40.07.17-1.88,0-3.41,1.53-3.41,3.41v68.04c15.68,0,31.37,0,47.05,0-.05-22.73-.09-45.45-.14-68.18,0-.25-.04-1.42-.98-2.39-.98-1.01-2.22-1.05-2.46-1.05Z"/><path class="cls-4" d="M155.24,307.32c-.72,0-1.28-.59-1.28-1.28s.54-1.28,1.28-1.28,1.28.58,1.28,1.28-.56,1.28-1.28,1.28h0Z"/><path class="cls-4" d="M160.54,307.32c-.72,0-1.28-.58-1.28-1.28s.56-1.28,1.28-1.28,1.28.6,1.28,1.28-.53,1.28-1.28,1.28Z"/><path class="cls-4" d="M165.83,307.32c-.72,0-1.28-.58-1.28-1.28s.57-1.28,1.28-1.28,1.28.59,1.28,1.28-.56,1.28-1.28,1.28h0Z"/><path class="cls-4" d="M171.12,307.32c-.72,0-1.28-.58-1.28-1.28s.57-1.28,1.28-1.28,1.28.57,1.28,1.28c0,.72-.59,1.28-1.28,1.28h0Z"/><path class="cls-4" d="M176.41,307.32c-.72,0-1.28-.59-1.28-1.28s.54-1.28,1.28-1.28,1.28.57,1.28,1.28c0,.71-.58,1.28-1.28,1.28Z"/><path class="cls-4" d="M181.71,307.32c-.71,0-1.28-.58-1.28-1.28s.57-1.28,1.28-1.28,1.28.57,1.28,1.28c0,.73-.6,1.28-1.28,1.28Z"/><path class="cls-4" d="M187,307.32c-.69,0-1.28-.56-1.28-1.28s.57-1.28,1.28-1.28,1.28.59,1.28,1.28-.57,1.28-1.28,1.28Z"/><path class="cls-4" d="M192.29,307.32c-.61,0-1.14-.44-1.25-1.03-.16-.77.43-1.53,1.25-1.53.71,0,1.28.58,1.28,1.28,0,.68-.56,1.28-1.28,1.28h0Z"/><path class="cls-4" d="M157.89,312.62c-.69,0-1.28-.56-1.28-1.28,0-.66.53-1.28,1.28-1.28.7,0,1.27.57,1.27,1.28,0,.73-.6,1.28-1.28,1.28Z"/><path class="cls-4" d="M163.18,312.62c-.68,0-1.28-.55-1.28-1.28s.56-1.28,1.28-1.28,1.27.59,1.27,1.28c0,.73-.6,1.28-1.28,1.28h0Z"/><path class="cls-4" d="M168.48,312.62c-.82,0-1.41-.76-1.25-1.53.11-.59.64-1.03,1.25-1.03.68,0,1.28.55,1.28,1.28,0,.7-.57,1.28-1.28,1.28h0Z"/><path class="cls-4" d="M173.77,312.62c-.71,0-1.28-.58-1.28-1.28s.58-1.28,1.28-1.28,1.28.57,1.28,1.28c0,.7-.57,1.28-1.28,1.28Z"/><path class="cls-4" d="M179.06,312.62c-.71,0-1.28-.58-1.28-1.28s.56-1.28,1.27-1.28,1.28.57,1.28,1.28-.6,1.28-1.28,1.28Z"/><path class="cls-4" d="M184.35,312.62c-.67,0-1.28-.54-1.28-1.28,0-.7.56-1.28,1.27-1.28s1.28.58,1.28,1.28-.59,1.28-1.28,1.28Z"/><path class="cls-4" d="M189.64,312.62c-.68,0-1.28-.55-1.28-1.28s.58-1.28,1.28-1.28,1.27.57,1.27,1.28c0,.7-.57,1.28-1.28,1.28Z"/><circle class="cls-4" cx="155.24" cy="316.63" r="1.28"/><path class="cls-4" d="M160.54,317.91c-.71,0-1.28-.58-1.28-1.28,0-.61.49-1.28,1.28-1.28.71,0,1.28.57,1.28,1.28,0,.71-.57,1.28-1.28,1.28Z"/><path class="cls-4" d="M165.83,317.91c-.71,0-1.28-.57-1.28-1.28,0-.79.66-1.28,1.28-1.28.67,0,1.28.54,1.28,1.28s-.57,1.28-1.28,1.28Z"/><path class="cls-4" d="M171.12,317.91c-.71,0-1.28-.57-1.28-1.28s.6-1.28,1.28-1.28,1.28.57,1.28,1.28c0,.71-.58,1.28-1.28,1.28h0Z"/><path class="cls-4" d="M176.41,317.91c-.7,0-1.28-.57-1.28-1.28s.59-1.28,1.28-1.28c.65,0,1.28.52,1.28,1.28,0,.71-.58,1.28-1.28,1.28Z"/><path class="cls-4" d="M181.71,317.91c-.7,0-1.28-.56-1.28-1.28s.59-1.28,1.28-1.28,1.28.53,1.28,1.28c0,.7-.57,1.28-1.28,1.28Z"/><path class="cls-4" d="M187,317.91c-.73,0-1.28-.59-1.28-1.28s.56-1.28,1.28-1.28,1.28.59,1.28,1.28-.57,1.28-1.28,1.28Z"/><path class="cls-4" d="M192.29,317.91c-.71,0-1.28-.57-1.28-1.28s.6-1.28,1.28-1.28,1.28.58,1.28,1.28c0,.71-.58,1.28-1.28,1.28Z"/><path class="cls-4" d="M157.89,323.2c-.68,0-1.28-.56-1.28-1.28s.59-1.28,1.27-1.28c.72,0,1.28.58,1.28,1.28s-.58,1.28-1.28,1.28Z"/><path class="cls-4" d="M163.18,323.2c-.7,0-1.28-.56-1.28-1.28s.58-1.28,1.27-1.28c.62,0,1.28.48,1.28,1.28,0,.69-.56,1.28-1.28,1.28Z"/><path class="cls-4" d="M168.48,323.2c-.7,0-1.28-.57-1.28-1.28s.58-1.28,1.27-1.28c.62,0,1.28.48,1.28,1.28,0,.64-.5,1.28-1.28,1.28Z"/><path class="cls-4" d="M173.77,323.2c-.68,0-1.28-.55-1.28-1.28s.59-1.28,1.27-1.28c.62,0,1.28.48,1.28,1.28,0,.71-.58,1.28-1.28,1.28Z"/><path class="cls-4" d="M179.06,323.2c-.71,0-1.28-.59-1.28-1.28s.54-1.28,1.28-1.28c.7,0,1.28.57,1.28,1.28,0,.7-.57,1.28-1.28,1.28Z"/><path class="cls-4" d="M184.35,323.2c-.72,0-1.28-.59-1.28-1.28s.57-1.28,1.28-1.28c.78,0,1.41.71,1.25,1.53-.13.62-.66,1.03-1.25,1.03Z"/><path class="cls-4" d="M189.64,323.2c-.69,0-1.28-.56-1.28-1.28s.58-1.28,1.27-1.28c.62,0,1.28.48,1.28,1.28,0,.64-.51,1.28-1.28,1.28Z"/><path class="cls-4" d="M155.24,328.49c-.63,0-1.28-.5-1.28-1.28,0-.71.58-1.28,1.28-1.28s1.28.55,1.28,1.28c0,.77-.63,1.28-1.28,1.28Z"/><path class="cls-4" d="M160.54,328.49c-.7,0-1.28-.57-1.28-1.28s.58-1.28,1.28-1.28,1.28.56,1.28,1.28c0,.76-.63,1.28-1.28,1.28h0Z"/><path class="cls-4" d="M165.83,328.49c-.66,0-1.28-.52-1.28-1.28s.59-1.28,1.28-1.28,1.28.57,1.28,1.28-.6,1.28-1.28,1.28Z"/><path class="cls-4" d="M171.12,328.49c-.71,0-1.28-.58-1.28-1.28s.57-1.28,1.28-1.28,1.28.56,1.28,1.28c0,.72-.59,1.28-1.28,1.28h0Z"/><path class="cls-4" d="M176.41,328.49c-.7,0-1.28-.57-1.28-1.28,0-.65.51-1.28,1.28-1.28.7,0,1.27.57,1.27,1.28,0,.77-.64,1.28-1.28,1.28Z"/><circle class="cls-4" cx="181.71" cy="327.22" r="1.28"/><path class="cls-4" d="M187,328.49c-.64,0-1.28-.5-1.28-1.28,0-.71.57-1.28,1.28-1.28.66,0,1.28.52,1.28,1.28,0,.71-.58,1.28-1.28,1.28Z"/><path class="cls-4" d="M192.29,328.49c-.66,0-1.28-.52-1.28-1.28,0-.71.57-1.28,1.28-1.28.8,0,1.28.66,1.28,1.28,0,.34-.14.67-.37.9-.24.24-.57.37-.9.37h0Z"/><path class="cls-4" d="M157.89,333.79c-.67,0-1.28-.54-1.28-1.28,0-.7.57-1.28,1.28-1.28s1.28.57,1.28,1.28-.57,1.28-1.28,1.28h0Z"/><path class="cls-4" d="M163.18,333.79c-.67,0-1.28-.54-1.28-1.28s.57-1.28,1.28-1.28,1.28.58,1.28,1.28c0,.74-.6,1.28-1.28,1.28Z"/><path class="cls-4" d="M168.48,333.79c-.67,0-1.28-.54-1.28-1.28s.58-1.28,1.28-1.28,1.28.6,1.28,1.28c0,.7-.57,1.28-1.28,1.28Z"/><path class="cls-4" d="M173.77,333.79c-.7,0-1.28-.57-1.28-1.28s.57-1.28,1.28-1.28,1.28.57,1.28,1.28c0,.69-.56,1.28-1.28,1.28Z"/><path class="cls-4" d="M179.06,333.79c-.71,0-1.28-.58-1.28-1.28s.56-1.28,1.28-1.28,1.28.58,1.28,1.28-.58,1.28-1.28,1.28Z"/><path class="cls-4" d="M184.35,333.79c-.67,0-1.28-.54-1.28-1.28,0-.69.57-1.28,1.28-1.28s1.28.58,1.28,1.28c0,.74-.6,1.28-1.28,1.28h0Z"/><path class="cls-4" d="M189.64,333.79c-.08,0-.17,0-.25-.03-.57-.11-1.03-.63-1.03-1.25,0-.72.58-1.28,1.28-1.28.73,0,1.28.6,1.28,1.28,0,.73-.6,1.28-1.28,1.28Z"/><path class="cls-4" d="M155.24,339.08c-.71,0-1.28-.58-1.28-1.28s.6-1.28,1.28-1.28,1.28.57,1.28,1.28c0,.71-.58,1.28-1.28,1.28Z"/><path class="cls-4" d="M160.54,339.08c-.69,0-1.28-.56-1.28-1.28s.58-1.28,1.28-1.28,1.28.57,1.28,1.28c0,.69-.56,1.28-1.28,1.28h0Z"/><path class="cls-4" d="M165.83,339.08c-.7,0-1.28-.57-1.28-1.28s.59-1.28,1.28-1.28,1.28.59,1.28,1.28-.57,1.28-1.28,1.28h0Z"/><circle class="cls-4" cx="171.12" cy="337.8" r="1.28"/><path class="cls-4" d="M176.41,339.08c-.77,0-1.28-.63-1.28-1.28,0-.7.57-1.28,1.27-1.28s1.28.56,1.28,1.28-.57,1.28-1.28,1.28h0Z"/><path class="cls-4" d="M181.71,339.08c-.69,0-1.28-.56-1.28-1.28s.56-1.28,1.28-1.28,1.28.58,1.28,1.28c0,.71-.57,1.28-1.28,1.28Z"/><path class="cls-4" d="M187,339.08c-.69,0-1.28-.56-1.28-1.28s.54-1.28,1.28-1.28,1.27.59,1.27,1.28-.56,1.28-1.28,1.28Z"/><path class="cls-4" d="M192.29,339.08c-.72,0-1.28-.58-1.28-1.28,0-.73.6-1.28,1.28-1.28s1.28.55,1.28,1.28c0,.69-.56,1.28-1.28,1.28Z"/><path class="cls-4" d="M157.89,344.37c-.71,0-1.28-.57-1.28-1.28s.57-1.28,1.28-1.28,1.28.58,1.28,1.28-.56,1.28-1.28,1.28h0Z"/><path class="cls-4" d="M163.18,344.37c-.71,0-1.28-.58-1.28-1.28s.59-1.28,1.27-1.28c.73,0,1.28.6,1.28,1.28s-.56,1.28-1.28,1.28Z"/><path class="cls-4" d="M168.48,344.37c-.79,0-1.28-.66-1.28-1.28,0-.7.57-1.28,1.28-1.28s1.27.6,1.27,1.28c0,.71-.58,1.28-1.28,1.28Z"/><path class="cls-4" d="M173.77,344.37c-.71,0-1.28-.57-1.28-1.28s.58-1.28,1.28-1.28,1.28.57,1.28,1.28c0,.71-.58,1.28-1.28,1.28Z"/><path class="cls-4" d="M179.06,344.37c-.69,0-1.28-.55-1.28-1.28s.59-1.28,1.27-1.28,1.28.58,1.28,1.28c0,.7-.57,1.28-1.28,1.28h0Z"/><path class="cls-4" d="M184.35,344.37c-.7,0-1.28-.57-1.28-1.28s.56-1.28,1.28-1.28,1.27.59,1.27,1.28c0,.34-.14.67-.37.9-.25.24-.57.37-.9.37Z"/><path class="cls-4" d="M189.64,344.37c-.74,0-1.28-.6-1.28-1.28s.57-1.28,1.28-1.28,1.28.57,1.28,1.28c0,.71-.57,1.28-1.28,1.28Z"/><path class="cls-4" d="M155.24,349.66c-.68,0-1.28-.56-1.28-1.28s.58-1.28,1.28-1.28,1.28.57,1.28,1.28c0,.7-.56,1.28-1.28,1.28Z"/><path class="cls-4" d="M160.54,349.66c-.68,0-1.28-.55-1.28-1.28s.57-1.28,1.28-1.28,1.28.57,1.28,1.28-.58,1.28-1.28,1.28h0Z"/><path class="cls-4" d="M164.58,348.63c-.15-.82.47-1.53,1.25-1.53.7,0,1.28.57,1.28,1.28,0,.25-.11.89-.79,1.18-.74.31-1.58-.13-1.74-.93h0Z"/><path class="cls-4" d="M171.12,349.66c-.7,0-1.28-.57-1.28-1.28s.58-1.28,1.28-1.28,1.28.58,1.28,1.28-.59,1.28-1.28,1.28Z"/><path class="cls-4" d="M176.41,349.66c-.68,0-1.28-.55-1.28-1.28,0-.68.55-1.28,1.28-1.28s1.28.58,1.28,1.28c0,.66-.53,1.28-1.28,1.28Z"/><path class="cls-4" d="M181.71,349.66c-.71,0-1.28-.59-1.28-1.28s.57-1.28,1.28-1.28,1.28.57,1.28,1.28c0,.71-.57,1.28-1.28,1.28Z"/><path class="cls-4" d="M187,349.66c-.68,0-1.28-.55-1.28-1.28s.57-1.28,1.28-1.28,1.28.6,1.28,1.28c0,.72-.6,1.28-1.28,1.28Z"/><path class="cls-4" d="M192.29,349.66c-.66,0-1.28-.52-1.28-1.28,0-.71.57-1.28,1.28-1.28s1.28.57,1.28,1.28c0,.72-.59,1.28-1.28,1.28Z"/><path class="cls-4" d="M157.89,354.96c-.71,0-1.28-.58-1.28-1.28s.55-1.28,1.28-1.28,1.28.59,1.28,1.28-.59,1.28-1.28,1.28Z"/><path class="cls-4" d="M163.18,354.96c-.67,0-1.28-.54-1.28-1.28s.58-1.28,1.28-1.28c.76,0,1.28.63,1.28,1.28,0,.71-.58,1.28-1.28,1.28h0Z"/><path class="cls-4" d="M168.48,354.96c-.69,0-1.28-.56-1.28-1.28s.57-1.28,1.28-1.28,1.28.58,1.28,1.28c0,.72-.59,1.28-1.28,1.28Z"/><path class="cls-4" d="M173.77,354.96c-.71,0-1.28-.58-1.28-1.28s.57-1.28,1.28-1.28,1.28.57,1.28,1.28-.58,1.28-1.28,1.28h0Z"/><path class="cls-4" d="M179.06,354.96c-.71,0-1.28-.58-1.28-1.28s.55-1.28,1.28-1.28,1.28.58,1.28,1.28c0,.77-.64,1.28-1.28,1.28Z"/><path class="cls-4" d="M184.35,354.96c-.71,0-1.28-.57-1.28-1.28s.57-1.28,1.28-1.28,1.28.57,1.28,1.28c0,.71-.58,1.28-1.28,1.28Z"/><path class="cls-4" d="M189.64,354.96c-.68,0-1.28-.54-1.28-1.28s.57-1.28,1.28-1.28,1.28.6,1.28,1.28-.58,1.28-1.28,1.28h0Z"/><path class="cls-4" d="M157.89,365.54c-.7,0-1.28-.57-1.28-1.28s.56-1.28,1.28-1.28,1.28.57,1.28,1.28-.57,1.28-1.28,1.28h0Z"/><path class="cls-4" d="M163.18,365.54c-.71,0-1.28-.57-1.28-1.28s.6-1.28,1.27-1.28c.73,0,1.28.6,1.28,1.28s-.55,1.28-1.28,1.28Z"/><circle class="cls-4" cx="168.48" cy="364.26" r="1.28"/><path class="cls-4" d="M173.77,365.54c-.83,0-1.41-.77-1.25-1.53.11-.59.64-1.03,1.25-1.03.71,0,1.28.58,1.28,1.28s-.57,1.28-1.28,1.28Z"/><path class="cls-4" d="M179.06,365.54c-.69,0-1.28-.56-1.28-1.28s.57-1.28,1.28-1.28,1.28.58,1.28,1.28-.57,1.28-1.28,1.28Z"/><path class="cls-4" d="M184.35,365.54c-.7,0-1.28-.56-1.28-1.28s.58-1.28,1.28-1.28,1.28.6,1.28,1.28c0,.71-.58,1.28-1.28,1.28Z"/><circle class="cls-4" cx="189.64" cy="364.26" r="1.28"/><path class="cls-4" d="M155.24,360.25c-.71,0-1.28-.58-1.28-1.28s.58-1.28,1.28-1.28,1.28.52,1.28,1.28c0,.72-.59,1.28-1.28,1.28Z"/><path class="cls-4" d="M160.54,360.25c-.79,0-1.41-.71-1.25-1.53.13-.62.66-1.03,1.25-1.03.68,0,1.28.55,1.28,1.28,0,.7-.57,1.28-1.28,1.28h0Z"/><path class="cls-4" d="M165.83,360.25c-.59,0-1.12-.4-1.25-1.03-.16-.85.49-1.53,1.25-1.53.68,0,1.28.55,1.28,1.28s-.57,1.28-1.28,1.28h0Z"/><path class="cls-4" d="M171.12,360.25c-.7,0-1.28-.57-1.28-1.28s.59-1.28,1.28-1.28,1.28.56,1.28,1.28c0,.69-.56,1.28-1.28,1.28h0Z"/><path class="cls-4" d="M176.41,360.25c-.73,0-1.28-.6-1.28-1.28,0-.72.59-1.28,1.28-1.28s1.28.56,1.28,1.28c0,.72-.59,1.28-1.28,1.28Z"/><path class="cls-4" d="M181.71,360.25c-.72,0-1.28-.59-1.28-1.28s.56-1.28,1.28-1.28,1.28.55,1.28,1.28c0,.7-.56,1.28-1.28,1.28Z"/><path class="cls-4" d="M187,360.25c-.71,0-1.28-.58-1.28-1.28s.58-1.28,1.28-1.28,1.28.55,1.28,1.28c0,.67-.54,1.28-1.28,1.28Z"/><path class="cls-4" d="M192.29,360.25c-.7,0-1.28-.57-1.28-1.28s.59-1.28,1.28-1.28,1.28.58,1.28,1.28c0,.69-.56,1.28-1.28,1.28Z"/></g></svg>