<?xml version="1.0" encoding="UTF-8"?>
<svg id="Warstwa_2" data-name="Warstwa 2" xmlns="http://www.w3.org/2000/svg" xmlns:xlink="http://www.w3.org/1999/xlink" viewBox="0 0 598 599">
  <defs>
    <style>
      .cls-1 {
        fill: #000;
      }

      .cls-1, .cls-2, .cls-3 {
        stroke-width: 0px;
      }

      .cls-4, .cls-5, .cls-6 {
        fill: #010000;
      }

      .cls-5, .cls-7 {
        font-family: Poppins-Medium, Poppins;
        font-size: 17.03px;
        font-weight: 500;
      }

      .cls-8, .cls-9 {
        stroke: #ca151a;
      }

      .cls-8, .cls-9, .cls-10 {
        stroke-miterlimit: 10;
      }

      .cls-8, .cls-10 {
        stroke-width: 13px;
      }

      .cls-8, .cls-2 {
        fill: #fff;
      }

      .cls-9 {
        filter: url(#drop-shadow-1);
        stroke-width: 13.81px;
      }

      .cls-9, .cls-10 {
        fill: none;
      }

      .cls-6 {
        font-size: 25.46px;
      }

      .cls-6, .cls-11 {
        font-family: Poppins-Bold, Poppins;
        font-weight: 700;
      }

      .cls-7, .cls-12 {
        fill: #ca151a;
      }

      .cls-10 {
        stroke: #fdd203;
      }

      .cls-11 {
        font-size: 25.19px;
      }

      .cls-3 {
        fill: #fdd203;
      }

      .cls-12 {
        letter-spacing: 0em;
      }
    </style>
    <filter id="drop-shadow-1" filterUnits="userSpaceOnUse">
      <feOffset dx="0" dy="0"/>
      <feGaussianBlur result="blur" stdDeviation="19.84"/>
      <feFlood flood-color="#000" flood-opacity=".47"/>
      <feComposite in2="blur" operator="in"/>
      <feComposite in="SourceGraphic"/>
    </filter>
  </defs>
  <g id="Warstwa_1-2" data-name="Warstwa 1">
    <circle class="cls-9" cx="298.98" cy="299.66" r="232.52"/>
    <circle class="cls-8" cx="298.98" cy="299.66" r="218.93"/>
    <g>
      <circle class="cls-10" cx="298.98" cy="299.66" r="218.93"/>
      <text class="cls-5" transform="translate(136.68 237.27) scale(.96 1)"><tspan x="0" y="0">Witamy na naszej stronie produktowej. </tspan></text>
      <path class="cls-3" d="M385.44,134.53v28.34h27.65v13.14h-27.65v28.33h-14.52v-28.33h-27.65v-13.14h27.65v-28.34h14.52Z"/>
      <text class="cls-7" transform="translate(136.68 260.39) scale(.96 1)"><tspan x="0" y="0">Znajdziesz tu:</tspan></text>
      <g>
        <text class="cls-6" transform="translate(231.88 322.23) scale(.96 1)"><tspan x="0" y="0">pełną ofertę płyt</tspan></text>
        <text class="cls-11" transform="translate(231.33 352.69) scale(.96 1)"><tspan class="cls-4" x="0" y="0">drewnopochodnych</tspan><tspan class="cls-12" x="261.91" y="0">.</tspan></text>
        <g>
          <g>
            <path class="cls-1" d="M144.35,358.93h-4.13c-.64,0-1.16-.52-1.16-1.16v-66.48c0-.64.52-1.16,1.16-1.16h46.47v5.29l-42.34,63.51Z"/>
            <path class="cls-1" d="M181.57,290.14v5.29l1.58,5.29,3.53-5.29v-4.13c0-.64-.52-1.16-1.16-1.16h-3.95Z"/>
            <path class="cls-2" d="M155.03,363.61c-3.18.2-6.35.41-9.52.61-.64,0-1.16-.52-1.16-1.16v-66.48c0-.64.52-1.16,1.16-1.16h41.36c.84.01,1.69.03,2.53.04.09,3.26.19,6.52.28,9.79-11.55,19.45-23.1,38.9-34.65,58.36Z"/>
            <path class="cls-1" d="M193.12,300.56c-13.36.06-26.71.11-40.07.17-1.88,0-3.41,1.53-3.41,3.41v68.04c15.68,0,31.37,0,47.05,0-.05-22.73-.09-45.45-.14-68.18,0-.25-.04-1.42-.98-2.39-.98-1.01-2.22-1.05-2.46-1.05Z"/>
          </g>
          <g>
            <g>
              <path class="cls-2" d="M154.93,307.29c-.72,0-1.28-.59-1.28-1.28s.54-1.28,1.28-1.28,1.28.58,1.28,1.28-.56,1.28-1.28,1.28h0Z"/>
              <path class="cls-2" d="M160.22,307.29c-.72,0-1.28-.58-1.28-1.28s.56-1.28,1.28-1.28,1.28.6,1.28,1.28-.53,1.28-1.28,1.28Z"/>
              <path class="cls-2" d="M165.52,307.29c-.72,0-1.28-.58-1.28-1.28s.57-1.28,1.28-1.28,1.28.59,1.28,1.28-.56,1.28-1.28,1.28h0Z"/>
              <path class="cls-2" d="M170.81,307.29c-.72,0-1.28-.58-1.28-1.28s.57-1.28,1.28-1.28,1.28.57,1.28,1.28c0,.72-.59,1.28-1.28,1.28h0Z"/>
              <path class="cls-2" d="M176.1,307.29c-.72,0-1.28-.59-1.28-1.28s.54-1.28,1.28-1.28,1.28.57,1.28,1.28c0,.71-.58,1.28-1.28,1.28Z"/>
              <path class="cls-2" d="M181.39,307.29c-.71,0-1.28-.58-1.28-1.28s.57-1.28,1.28-1.28,1.28.57,1.28,1.28c0,.73-.6,1.28-1.28,1.28Z"/>
              <path class="cls-2" d="M186.69,307.29c-.69,0-1.28-.56-1.28-1.28s.57-1.28,1.28-1.28,1.28.59,1.28,1.28-.57,1.28-1.28,1.28Z"/>
              <path class="cls-2" d="M191.98,307.29c-.61,0-1.14-.44-1.25-1.03-.16-.77.43-1.53,1.25-1.53.71,0,1.28.58,1.28,1.28,0,.68-.56,1.28-1.28,1.28h0Z"/>
            </g>
            <g>
              <path class="cls-2" d="M157.58,312.58c-.69,0-1.28-.56-1.28-1.28,0-.66.53-1.28,1.28-1.28.7,0,1.27.57,1.27,1.28,0,.73-.6,1.28-1.28,1.28Z"/>
              <path class="cls-2" d="M162.87,312.58c-.68,0-1.28-.55-1.28-1.28s.56-1.28,1.28-1.28,1.27.59,1.27,1.28c0,.73-.6,1.28-1.28,1.28h0Z"/>
              <path class="cls-2" d="M168.16,312.58c-.82,0-1.41-.76-1.25-1.53.11-.59.64-1.03,1.25-1.03.68,0,1.28.55,1.28,1.28,0,.7-.57,1.28-1.28,1.28h0Z"/>
              <path class="cls-2" d="M173.46,312.58c-.71,0-1.28-.58-1.28-1.28s.58-1.28,1.28-1.28,1.28.57,1.28,1.28c0,.7-.57,1.28-1.28,1.28Z"/>
              <path class="cls-2" d="M178.75,312.58c-.71,0-1.28-.58-1.28-1.28s.56-1.28,1.27-1.28,1.28.57,1.28,1.28-.6,1.28-1.28,1.28Z"/>
              <path class="cls-2" d="M184.04,312.58c-.67,0-1.28-.54-1.28-1.28,0-.7.56-1.28,1.27-1.28s1.28.58,1.28,1.28-.59,1.28-1.28,1.28Z"/>
              <path class="cls-2" d="M189.33,312.58c-.68,0-1.28-.55-1.28-1.28s.58-1.28,1.28-1.28,1.27.57,1.27,1.28c0,.7-.57,1.28-1.28,1.28Z"/>
            </g>
            <g>
              <circle class="cls-2" cx="154.93" cy="316.6" r="1.28"/>
              <path class="cls-2" d="M160.23,317.87c-.71,0-1.28-.58-1.28-1.28,0-.61.49-1.28,1.28-1.28.71,0,1.28.57,1.28,1.28,0,.71-.57,1.28-1.28,1.28Z"/>
              <path class="cls-2" d="M165.52,317.87c-.71,0-1.28-.57-1.28-1.28,0-.79.66-1.28,1.28-1.28.67,0,1.28.54,1.28,1.28s-.57,1.28-1.28,1.28Z"/>
              <path class="cls-2" d="M170.81,317.87c-.71,0-1.28-.57-1.28-1.28s.6-1.28,1.28-1.28,1.28.57,1.28,1.28c0,.71-.58,1.28-1.28,1.28h0Z"/>
              <path class="cls-2" d="M176.1,317.87c-.7,0-1.28-.57-1.28-1.28s.59-1.28,1.28-1.28c.65,0,1.28.52,1.28,1.28,0,.71-.58,1.28-1.28,1.28Z"/>
              <path class="cls-2" d="M181.39,317.87c-.7,0-1.28-.56-1.28-1.28s.59-1.28,1.28-1.28,1.28.53,1.28,1.28c0,.7-.57,1.28-1.28,1.28Z"/>
              <path class="cls-2" d="M186.69,317.87c-.73,0-1.28-.59-1.28-1.28s.56-1.28,1.28-1.28,1.28.59,1.28,1.28-.57,1.28-1.28,1.28Z"/>
              <path class="cls-2" d="M191.98,317.87c-.71,0-1.28-.57-1.28-1.28s.6-1.28,1.28-1.28,1.28.58,1.28,1.28c0,.71-.58,1.28-1.28,1.28Z"/>
            </g>
            <g>
              <path class="cls-2" d="M157.58,323.17c-.68,0-1.28-.56-1.28-1.28s.59-1.28,1.27-1.28c.72,0,1.28.58,1.28,1.28s-.58,1.28-1.28,1.28Z"/>
              <path class="cls-2" d="M162.87,323.17c-.7,0-1.28-.56-1.28-1.28s.58-1.28,1.27-1.28c.62,0,1.28.48,1.28,1.28,0,.69-.56,1.28-1.28,1.28Z"/>
              <path class="cls-2" d="M168.16,323.17c-.7,0-1.28-.57-1.28-1.28s.58-1.28,1.27-1.28c.62,0,1.28.48,1.28,1.28,0,.64-.5,1.28-1.28,1.28Z"/>
              <path class="cls-2" d="M173.46,323.17c-.68,0-1.28-.55-1.28-1.28s.59-1.28,1.27-1.28c.62,0,1.28.48,1.28,1.28,0,.71-.58,1.28-1.28,1.28Z"/>
              <path class="cls-2" d="M178.75,323.17c-.71,0-1.28-.59-1.28-1.28s.54-1.28,1.28-1.28c.7,0,1.28.57,1.28,1.28,0,.7-.57,1.28-1.28,1.28Z"/>
              <path class="cls-2" d="M184.04,323.17c-.72,0-1.28-.59-1.28-1.28s.57-1.28,1.28-1.28c.78,0,1.41.71,1.25,1.53-.13.62-.66,1.03-1.25,1.03Z"/>
              <path class="cls-2" d="M189.33,323.17c-.69,0-1.28-.56-1.28-1.28s.58-1.28,1.27-1.28c.62,0,1.28.48,1.28,1.28,0,.64-.51,1.28-1.28,1.28Z"/>
            </g>
            <g>
              <path class="cls-2" d="M154.93,328.46c-.63,0-1.28-.5-1.28-1.28,0-.71.58-1.28,1.28-1.28s1.28.55,1.28,1.28c0,.77-.63,1.28-1.28,1.28Z"/>
              <path class="cls-2" d="M160.22,328.46c-.7,0-1.28-.57-1.28-1.28s.58-1.28,1.28-1.28,1.28.56,1.28,1.28c0,.76-.63,1.28-1.28,1.28h0Z"/>
              <path class="cls-2" d="M165.52,328.46c-.66,0-1.28-.52-1.28-1.28s.59-1.28,1.28-1.28,1.28.57,1.28,1.28-.6,1.28-1.28,1.28Z"/>
              <path class="cls-2" d="M170.81,328.46c-.71,0-1.28-.58-1.28-1.28s.57-1.28,1.28-1.28,1.28.56,1.28,1.28c0,.72-.59,1.28-1.28,1.28h0Z"/>
              <path class="cls-2" d="M176.1,328.46c-.7,0-1.28-.57-1.28-1.28,0-.65.51-1.28,1.28-1.28.7,0,1.27.57,1.27,1.28,0,.77-.64,1.28-1.28,1.28Z"/>
              <circle class="cls-2" cx="181.39" cy="327.18" r="1.28"/>
              <path class="cls-2" d="M186.69,328.46c-.64,0-1.28-.5-1.28-1.28,0-.71.57-1.28,1.28-1.28.66,0,1.28.52,1.28,1.28,0,.71-.58,1.28-1.28,1.28Z"/>
              <path class="cls-2" d="M191.98,328.46c-.66,0-1.28-.52-1.28-1.28,0-.71.57-1.28,1.28-1.28.8,0,1.28.66,1.28,1.28,0,.34-.14.67-.37.9-.24.24-.57.37-.9.37h0Z"/>
            </g>
            <g>
              <path class="cls-2" d="M157.58,333.75c-.67,0-1.28-.54-1.28-1.28,0-.7.57-1.28,1.28-1.28s1.28.57,1.28,1.28-.57,1.28-1.28,1.28h0Z"/>
              <path class="cls-2" d="M162.87,333.75c-.67,0-1.28-.54-1.28-1.28s.57-1.28,1.28-1.28,1.28.58,1.28,1.28c0,.74-.6,1.28-1.28,1.28Z"/>
              <path class="cls-2" d="M168.16,333.75c-.67,0-1.28-.54-1.28-1.28s.58-1.28,1.28-1.28,1.28.6,1.28,1.28c0,.7-.57,1.28-1.28,1.28Z"/>
              <path class="cls-2" d="M173.46,333.75c-.7,0-1.28-.57-1.28-1.28s.57-1.28,1.28-1.28,1.28.57,1.28,1.28c0,.69-.56,1.28-1.28,1.28Z"/>
              <path class="cls-2" d="M178.75,333.75c-.71,0-1.28-.58-1.28-1.28s.56-1.28,1.28-1.28,1.28.58,1.28,1.28-.58,1.28-1.28,1.28Z"/>
              <path class="cls-2" d="M184.04,333.75c-.67,0-1.28-.54-1.28-1.28,0-.69.57-1.28,1.28-1.28s1.28.58,1.28,1.28c0,.74-.6,1.28-1.28,1.28h0Z"/>
              <path class="cls-2" d="M189.33,333.75c-.08,0-.17,0-.25-.03-.57-.11-1.03-.63-1.03-1.25,0-.72.58-1.28,1.28-1.28.73,0,1.28.6,1.28,1.28,0,.73-.6,1.28-1.28,1.28Z"/>
            </g>
            <g>
              <path class="cls-2" d="M154.93,339.04c-.71,0-1.28-.58-1.28-1.28s.6-1.28,1.28-1.28,1.28.57,1.28,1.28c0,.71-.58,1.28-1.28,1.28Z"/>
              <path class="cls-2" d="M160.23,339.04c-.69,0-1.28-.56-1.28-1.28s.58-1.28,1.28-1.28,1.28.57,1.28,1.28c0,.69-.56,1.28-1.28,1.28h0Z"/>
              <path class="cls-2" d="M165.52,339.04c-.7,0-1.28-.57-1.28-1.28s.59-1.28,1.28-1.28,1.28.59,1.28,1.28-.57,1.28-1.28,1.28h0Z"/>
              <circle class="cls-2" cx="170.81" cy="337.77" r="1.28"/>
              <path class="cls-2" d="M176.1,339.04c-.77,0-1.28-.63-1.28-1.28,0-.7.57-1.28,1.27-1.28s1.28.56,1.28,1.28-.57,1.28-1.28,1.28h0Z"/>
              <path class="cls-2" d="M181.39,339.04c-.69,0-1.28-.56-1.28-1.28s.56-1.28,1.28-1.28,1.28.58,1.28,1.28c0,.71-.57,1.28-1.28,1.28Z"/>
              <path class="cls-2" d="M186.69,339.04c-.69,0-1.28-.56-1.28-1.28s.54-1.28,1.28-1.28,1.27.59,1.27,1.28-.56,1.28-1.28,1.28Z"/>
              <path class="cls-2" d="M191.98,339.04c-.72,0-1.28-.58-1.28-1.28,0-.73.6-1.28,1.28-1.28s1.28.55,1.28,1.28c0,.69-.56,1.28-1.28,1.28Z"/>
            </g>
            <g>
              <path class="cls-2" d="M157.58,344.34c-.71,0-1.28-.57-1.28-1.28s.57-1.28,1.28-1.28,1.28.58,1.28,1.28-.56,1.28-1.28,1.28h0Z"/>
              <path class="cls-2" d="M162.87,344.34c-.71,0-1.28-.58-1.28-1.28s.59-1.28,1.27-1.28c.73,0,1.28.6,1.28,1.28s-.56,1.28-1.28,1.28Z"/>
              <path class="cls-2" d="M168.16,344.34c-.79,0-1.28-.66-1.28-1.28,0-.7.57-1.28,1.28-1.28s1.27.6,1.27,1.28c0,.71-.58,1.28-1.28,1.28Z"/>
              <path class="cls-2" d="M173.46,344.34c-.71,0-1.28-.57-1.28-1.28s.58-1.28,1.28-1.28,1.28.57,1.28,1.28c0,.71-.58,1.28-1.28,1.28Z"/>
              <path class="cls-2" d="M178.75,344.34c-.69,0-1.28-.55-1.28-1.28s.59-1.28,1.27-1.28,1.28.58,1.28,1.28c0,.7-.57,1.28-1.28,1.28h0Z"/>
              <path class="cls-2" d="M184.04,344.34c-.7,0-1.28-.57-1.28-1.28s.56-1.28,1.28-1.28,1.27.59,1.27,1.28c0,.34-.14.67-.37.9-.25.24-.57.37-.9.37Z"/>
              <path class="cls-2" d="M189.33,344.34c-.74,0-1.28-.6-1.28-1.28s.57-1.28,1.28-1.28,1.28.57,1.28,1.28c0,.71-.57,1.28-1.28,1.28Z"/>
            </g>
            <g>
              <path class="cls-2" d="M154.93,349.63c-.68,0-1.28-.56-1.28-1.28s.58-1.28,1.28-1.28,1.28.57,1.28,1.28c0,.7-.56,1.28-1.28,1.28Z"/>
              <path class="cls-2" d="M160.22,349.63c-.68,0-1.28-.55-1.28-1.28s.57-1.28,1.28-1.28,1.28.57,1.28,1.28-.58,1.28-1.28,1.28h0Z"/>
              <path class="cls-2" d="M164.26,348.6c-.15-.82.47-1.53,1.25-1.53.7,0,1.28.57,1.28,1.28,0,.25-.11.89-.79,1.18-.74.31-1.58-.13-1.74-.93h0Z"/>
              <path class="cls-2" d="M170.81,349.63c-.7,0-1.28-.57-1.28-1.28s.58-1.28,1.28-1.28,1.28.58,1.28,1.28-.59,1.28-1.28,1.28Z"/>
              <path class="cls-2" d="M176.1,349.63c-.68,0-1.28-.55-1.28-1.28,0-.68.55-1.28,1.28-1.28s1.28.58,1.28,1.28c0,.66-.53,1.28-1.28,1.28Z"/>
              <path class="cls-2" d="M181.39,349.63c-.71,0-1.28-.59-1.28-1.28s.57-1.28,1.28-1.28,1.28.57,1.28,1.28c0,.71-.57,1.28-1.28,1.28Z"/>
              <path class="cls-2" d="M186.69,349.63c-.68,0-1.28-.55-1.28-1.28s.57-1.28,1.28-1.28,1.28.6,1.28,1.28c0,.72-.6,1.28-1.28,1.28Z"/>
              <path class="cls-2" d="M191.98,349.63c-.66,0-1.28-.52-1.28-1.28,0-.71.57-1.28,1.28-1.28s1.28.57,1.28,1.28c0,.72-.59,1.28-1.28,1.28Z"/>
            </g>
            <g>
              <path class="cls-2" d="M157.58,354.92c-.71,0-1.28-.58-1.28-1.28s.55-1.28,1.28-1.28,1.28.59,1.28,1.28-.59,1.28-1.28,1.28Z"/>
              <path class="cls-2" d="M162.87,354.92c-.67,0-1.28-.54-1.28-1.28s.58-1.28,1.28-1.28c.76,0,1.28.63,1.28,1.28,0,.71-.58,1.28-1.28,1.28h0Z"/>
              <path class="cls-2" d="M168.16,354.92c-.69,0-1.28-.56-1.28-1.28s.57-1.28,1.28-1.28,1.28.58,1.28,1.28c0,.72-.59,1.28-1.28,1.28Z"/>
              <path class="cls-2" d="M173.46,354.92c-.71,0-1.28-.58-1.28-1.28s.57-1.28,1.28-1.28,1.28.57,1.28,1.28-.58,1.28-1.28,1.28h0Z"/>
              <path class="cls-2" d="M178.75,354.92c-.71,0-1.28-.58-1.28-1.28s.55-1.28,1.28-1.28,1.28.58,1.28,1.28c0,.77-.64,1.28-1.28,1.28Z"/>
              <path class="cls-2" d="M184.04,354.92c-.71,0-1.28-.57-1.28-1.28s.57-1.28,1.28-1.28,1.28.57,1.28,1.28c0,.71-.58,1.28-1.28,1.28Z"/>
              <path class="cls-2" d="M189.33,354.92c-.68,0-1.28-.54-1.28-1.28s.57-1.28,1.28-1.28,1.28.6,1.28,1.28-.58,1.28-1.28,1.28h0Z"/>
            </g>
            <g>
              <path class="cls-2" d="M157.58,365.5c-.7,0-1.28-.57-1.28-1.28s.56-1.28,1.28-1.28,1.28.57,1.28,1.28-.57,1.28-1.28,1.28h0Z"/>
              <path class="cls-2" d="M162.87,365.5c-.71,0-1.28-.57-1.28-1.28s.6-1.28,1.27-1.28c.73,0,1.28.6,1.28,1.28s-.55,1.28-1.28,1.28Z"/>
              <circle class="cls-2" cx="168.16" cy="364.23" r="1.28"/>
              <path class="cls-2" d="M173.46,365.5c-.83,0-1.41-.77-1.25-1.53.11-.59.64-1.03,1.25-1.03.71,0,1.28.58,1.28,1.28s-.57,1.28-1.28,1.28Z"/>
              <path class="cls-2" d="M178.75,365.5c-.69,0-1.28-.56-1.28-1.28s.57-1.28,1.28-1.28,1.28.58,1.28,1.28-.57,1.28-1.28,1.28Z"/>
              <path class="cls-2" d="M184.04,365.5c-.7,0-1.28-.56-1.28-1.28s.58-1.28,1.28-1.28,1.28.6,1.28,1.28c0,.71-.58,1.28-1.28,1.28Z"/>
              <circle class="cls-2" cx="189.33" cy="364.23" r="1.28"/>
            </g>
            <g>
              <path class="cls-2" d="M154.93,360.21c-.71,0-1.28-.58-1.28-1.28s.58-1.28,1.28-1.28,1.28.52,1.28,1.28c0,.72-.59,1.28-1.28,1.28Z"/>
              <path class="cls-2" d="M160.23,360.21c-.79,0-1.41-.71-1.25-1.53.13-.62.66-1.03,1.25-1.03.68,0,1.28.55,1.28,1.28,0,.7-.57,1.28-1.28,1.28h0Z"/>
              <path class="cls-2" d="M165.52,360.21c-.59,0-1.12-.4-1.25-1.03-.16-.85.49-1.53,1.25-1.53.68,0,1.28.55,1.28,1.28s-.57,1.28-1.28,1.28h0Z"/>
              <path class="cls-2" d="M170.81,360.21c-.7,0-1.28-.57-1.28-1.28s.59-1.28,1.28-1.28,1.28.56,1.28,1.28c0,.69-.56,1.28-1.28,1.28h0Z"/>
              <path class="cls-2" d="M176.1,360.21c-.73,0-1.28-.6-1.28-1.28,0-.72.59-1.28,1.28-1.28s1.28.56,1.28,1.28c0,.72-.59,1.28-1.28,1.28Z"/>
              <path class="cls-2" d="M181.39,360.21c-.72,0-1.28-.59-1.28-1.28s.56-1.28,1.28-1.28,1.28.55,1.28,1.28c0,.7-.56,1.28-1.28,1.28Z"/>
              <path class="cls-2" d="M186.69,360.21c-.71,0-1.28-.58-1.28-1.28s.58-1.28,1.28-1.28,1.28.55,1.28,1.28c0,.67-.54,1.28-1.28,1.28Z"/>
              <path class="cls-2" d="M191.98,360.21c-.7,0-1.28-.57-1.28-1.28s.59-1.28,1.28-1.28,1.28.58,1.28,1.28c0,.69-.56,1.28-1.28,1.28Z"/>
            </g>
          </g>
        </g>
      </g>
    </g>
  </g>
</svg>