<?xml version="1.0" encoding="UTF-8"?>
<svg id="Warstwa_2" data-name="Warstwa 2" xmlns="http://www.w3.org/2000/svg" viewBox="0 0 93.26 66.61">
  <defs>
    <style>
      .cls-1, .cls-2 {
        fill: #000;
        stroke-width: 0px;
      }

      .cls-2 {
        fill-rule: evenodd;
      }
    </style>
  </defs>
  <g id="Warstwa_1-2" data-name="Warstwa 1">
    <g id="Page-1">
      <g id="_097---Cut-Wood-Pile" data-name="097---Cut-Wood-Pile">
        <path id="Path" class="cls-2" d="M12.2,43.3h6.84c4.67-2.57,8.92-5.85,12.6-9.71v-6.77c-4.83,7.19-11.56,12.9-19.44,16.49h0Z"/>
        <path id="Path-2" data-name="Path" class="cls-2" d="M31.64,43.3v-5c-1.98,1.82-4.1,3.49-6.33,5h6.33Z"/>
        <path id="Path-3" data-name="Path" class="cls-2" d="M11.66,0v4.51c2.07-1.27,3.98-2.78,5.69-4.51h-5.69Z"/>
        <path id="Path-4" data-name="Path" class="cls-2" d="M27.44,0h-5.68c-2.77,3.44-6.21,6.29-10.1,8.36v4.18c6.31-2.66,11.77-7,15.79-12.55Z"/>
        <path id="Path-5" data-name="Path" class="cls-2" d="M36.51,0h-5.18c-3.92,6.79-10.82,12.48-19.67,16.18v3.2C23.04,15.3,31.93,8.36,36.51,0Z"/>
        <path id="Shape" class="cls-1" d="M38.3,23.31h-3.33v19.98h53.29v-18.32c0-.92-.75-1.67-1.67-1.67h-48.29ZM41.63,29.98c0-.92.75-1.67,1.67-1.67h29.98c.92,0,1.67.75,1.67,1.67s-.75,1.67-1.67,1.67h-29.98c-.92,0-1.67-.75-1.67-1.67ZM83.27,36.64c0,.92-.75,1.67-1.67,1.67h-29.98c-.92,0-1.67-.75-1.67-1.67s.75-1.67,1.67-1.67h29.98c.92,0,1.67.75,1.67,1.67Z"/>
        <path id="Shape-2" data-name="Shape" class="cls-1" d="M79.94,0h-38.3v19.98h39.97V1.67c0-.92-.75-1.67-1.67-1.67ZM44.96,6.66c0-.92.75-1.67,1.67-1.67h21.65c.92,0,1.67.75,1.67,1.67s-.75,1.67-1.67,1.67h-21.65c-.92,0-1.67-.75-1.67-1.67ZM76.61,14.99h-21.65c-.92,0-1.67-.75-1.67-1.67s.75-1.67,1.67-1.67h21.65c.92,0,1.67.75,1.67,1.67s-.75,1.67-1.67,1.67Z"/>
        <g>
          <path id="Path-6" data-name="Path" class="cls-2" d="M18.86,19.98h6.84c4.67-2.57,8.92-5.85,12.6-9.71V3.5c-4.83,7.19-11.56,12.9-19.44,16.49Z"/>
          <path id="Path-7" data-name="Path" class="cls-2" d="M38.3,19.98v-5c-1.98,1.82-4.1,3.49-6.33,5h6.33Z"/>
          <path id="Path-8" data-name="Path" class="cls-2" d="M5,23.31v4.51c2.07-1.27,3.98-2.78,5.69-4.51h-5.69Z"/>
          <path id="Path-9" data-name="Path" class="cls-2" d="M26.65,50.13c-4.83,7.19-11.56,12.9-19.44,16.49h6.84c4.67-2.57,8.92-5.85,12.6-9.71v-6.77Z"/>
          <path id="Path-10" data-name="Path" class="cls-2" d="M24.85,46.63h-5.18c-3.92,6.79-10.83,12.48-19.67,16.18v3.2c11.39-4.08,20.27-11.01,24.85-19.38Z"/>
          <path id="Path-11" data-name="Path" class="cls-2" d="M20.32,66.61h6.33v-5c-1.98,1.82-4.1,3.49-6.33,5Z"/>
          <path id="Path-12" data-name="Path" class="cls-2" d="M20.78,23.31h-5.68c-2.77,3.44-6.2,6.29-10.1,8.36v4.18c6.31-2.66,11.77-7,15.79-12.55h0Z"/>
        </g>
        <path id="Shape-3" data-name="Shape" class="cls-1" d="M88.26,46.63H29.98v19.98h61.62c.92,0,1.67-.75,1.67-1.67v-16.65c0-.92-.75-1.67-1.67-1.67h-3.33,0ZM36.64,53.29c0-.92.75-1.67,1.67-1.67h39.97c.92,0,1.67.75,1.67,1.67s-.75,1.67-1.67,1.67h-39.97c-.92,0-1.67-.75-1.67-1.67h0ZM86.6,61.62h-39.97c-.92,0-1.67-.75-1.67-1.67s.75-1.67,1.67-1.67h39.97c.92,0,1.67.75,1.67,1.67,0,.92-.75,1.67-1.67,1.67Z"/>
        <path id="Path-13" data-name="Path" class="cls-2" d="M29.85,23.31h-5.18c-3.92,6.79-10.82,12.48-19.67,16.18v3.2c11.39-4.08,20.27-11.01,24.85-19.38h0Z"/>
        <path id="Path-14" data-name="Path" class="cls-2" d="M15.79,46.63h-5.68c-2.77,3.44-6.21,6.29-10.1,8.36v4.18c6.31-2.66,11.77-7,15.79-12.55Z"/>
        <path id="Path-15" data-name="Path" class="cls-2" d="M5,46.63H0v4.51c2.07-1.27,3.98-2.78,5.69-4.51h-.69Z"/>
      </g>
    </g>
  </g>
</svg>