<?xml version="1.0" encoding="UTF-8"?>
<svg id="Warstwa_2" data-name="Warstwa 2" xmlns="http://www.w3.org/2000/svg" xmlns:xlink="http://www.w3.org/1999/xlink" viewBox="0 0 98.77 98.77">
  <defs>
    <style>
      .cls-1 {
        fill: none;
      }

      .cls-1, .cls-2 {
        stroke-width: 1.15px;
      }

      .cls-1, .cls-2, .cls-3 {
        stroke: #1d1d1b;
        stroke-miterlimit: 10;
      }

      .cls-4, .cls-2 {
        fill: #fdd202;
      }

      .cls-5 {
        clip-path: url(#clippath);
      }

      .cls-6 {
        fill: #fff;
        stroke-width: 0px;
      }

      .cls-3 {
        fill: #ca151a;
        stroke-width: 1px;
      }
    </style>
    <clipPath id="clippath">
      <path class="cls-2" d="M14.87,14.87c-19.06,19.06-19.06,49.97,0,69.03,19.06,19.07,49.96,19.07,69.02,0,19.07-19.06,19.07-49.96,0-69.03C74.36,5.34,61.87.57,49.38.57S24.4,5.34,14.87,14.87"/>
    </clipPath>
  </defs>
  <g id="Warstwa_1-2" data-name="Warstwa 1">
    <g>
      <path class="cls-4" d="M14.87,14.87c-19.06,19.06-19.06,49.97,0,69.03,19.06,19.07,49.96,19.07,69.02,0,19.07-19.06,19.07-49.96,0-69.03C74.36,5.34,61.87.57,49.38.57S24.4,5.34,14.87,14.87"/>
      <g class="cls-5">
        <rect class="cls-3" x="-4.19" y=".57" width="107.15" height="102.38"/>
      </g>
      <path class="cls-1" d="M14.87,14.87c-19.06,19.06-19.06,49.97,0,69.03,19.06,19.07,49.96,19.07,69.02,0,19.07-19.06,19.07-49.96,0-69.03C74.36,5.34,61.87.57,49.38.57S24.4,5.34,14.87,14.87"/>
    </g>
    <path class="cls-6" d="M54.51,37.4l6.83,6.85c.45.45.9.8,1.36,1.05,1.82,1,3.33.82,4.73-.58l.84-.85c.14-.14.17-.35.08-.52-.38-.71-1.82-1.74-2.63-2.22-.17-.1-.29-.1-.32-.1l-.05.11c-.83,1-1.05,1.15-1.13,1.2-1.25.85-2.54.72-3.61-.35l-3.82-3.82c-1.08-1.08-1.2-2.36-.35-3.61.06-.08.2-.29,1.2-1.13l.13-.09s-.03-.12-.12-.29c-.48-.81-1.5-2.25-2.21-2.63-.17-.09-.38-.06-.52.08l-.84.84c-1.31,1.31-1.55,2.69-.78,4.35.27.59.69,1.16,1.23,1.7Z"/>
    <path class="cls-6" d="M60.62,52.84c8.1,0,14.69-6.59,14.69-14.69s-6.59-14.69-14.69-14.69c-6.03,0-11.21,3.65-13.48,8.86-.7-.14-1.4-.22-2.08-.22-6.19,0-11.23,5.33-11.23,11.88v4.54c0,3.08,1.02,6.39,2.71,9.08l-.89,2.75c-.07.22-.04.45.06.65-2.81.55-5.98,1.79-10.06,3.94-1.36.72-2.2,2.12-2.2,3.65v5.86c0,.48.39.86.86.86h41.48c.48,0,.86-.39.86-.86v-5.86c0-1.54-.84-2.94-2.2-3.65-4.07-2.14-7.24-3.39-10.06-3.94.1-.2.13-.43.06-.65l-.88-2.73c1.07-1.7,1.85-3.63,2.3-5.58,1.49.51,3.07.8,4.73.8ZM52.83,30.12l.84-.85c.68-.68,1.71-.83,2.55-.38,1.37.73,2.75,3.03,2.9,3.29.32.56.41,1.14.27,1.65-.11.4-.36.73-.72.95-.35.29-.76.66-.85.76-.36.54-.33.88.17,1.39l3.82,3.82c.5.5.84.54,1.42.15.07-.06.44-.48.73-.83.22-.36.55-.6.95-.71.51-.14,1.09-.05,1.64.27.27.16,2.57,1.53,3.3,2.91.45.85.29,1.88-.38,2.55l-.84.85c-1.15,1.15-2.43,1.72-3.8,1.72-.96,0-1.96-.28-2.98-.85-.6-.33-1.19-.78-1.75-1.34l-6.83-6.85c-.68-.69-1.21-1.42-1.57-2.19-1.08-2.31-.69-4.49,1.12-6.3ZM37.87,61.17h0s-.45-.68-.45-.68l.37-1.14s.03.03.04.05c.05.06.11.12.16.18.2.22.4.44.6.65.1.1.21.2.31.3.16.15.33.3.5.44.12.1.24.21.37.3.2.15.4.29.6.43.2.13.4.26.61.37.15.09.3.17.46.25.16.08.31.15.47.22.17.08.35.14.53.2.13.05.26.1.4.14.26.08.53.15.8.2l-2.09,3.67-3.68-5.58ZM45.06,64.09l1.97,3.44h-3.93l1.96-3.44ZM41.02,73.58l1.23-4.32h5.61l1.23,4.32h-8.08ZM52.25,61.17h0s-3.68,5.58-3.68,5.58l-2.1-3.67c.09-.02.17-.04.26-.06,2.15-.47,4.06-1.82,5.6-3.65l.36,1.13-.45.68ZM51.81,57.16c-.18.26-.36.51-.55.75-.04.06-.09.12-.14.17-1,1.23-2.12,2.15-3.3,2.73,0,0-.02,0-.03.01-.28.13-.56.25-.85.34-.03,0-.05.02-.08.03-.27.08-.53.15-.8.19-.04,0-.08.02-.12.03-.3.05-.6.07-.9.07s-.63-.03-.93-.08c-1.84-.3-3.65-1.48-5.17-3.36-.06-.08-.12-.17-.19-.25-.17-.22-.34-.44-.5-.68-1.68-2.49-2.72-5.69-2.72-8.6v-4.54c0-5.6,4.26-10.15,9.51-10.15.49,0,.98.04,1.48.13-.16.55-.29,1.11-.39,1.68-.04.24-.08.48-.11.72-.02.17-.04.33-.06.5-.04.43-.07.86-.07,1.3s.03.9.07,1.34c.01.12.03.24.04.36.04.37.1.73.17,1.09.01.07.03.15.04.22.09.44.2.87.33,1.29.02.06.04.12.06.19.12.39.26.77.42,1.14.02.04.04.09.05.13,1.28,3,3.54,5.53,6.48,7.13.03.02.07.03.1.05.19.1.38.21.57.3-.42,2.02-1.28,4.05-2.45,5.77Z"/>
  </g>
</svg>