<?xml version="1.0" encoding="UTF-8" standalone="no"?>
<svg
   id="Warstwa_1"
   viewBox="0 0 36.54 40.49"
   version="1.1"
   sodipodi:docname="icon-jakosc1.svg"
   inkscape:version="1.2.2 (732a01da63, 2022-12-09)"
   xmlns:inkscape="http://www.inkscape.org/namespaces/inkscape"
   xmlns:sodipodi="http://sodipodi.sourceforge.net/DTD/sodipodi-0.dtd"
   xmlns="http://www.w3.org/2000/svg"
   xmlns:svg="http://www.w3.org/2000/svg">
  <sodipodi:namedview
     id="namedview2205"
     pagecolor="#ffffff"
     bordercolor="#000000"
     borderopacity="0.25"
     inkscape:showpageshadow="2"
     inkscape:pageopacity="0.0"
     inkscape:pagecheckerboard="0"
     inkscape:deskcolor="#d1d1d1"
     showgrid="false"
     inkscape:zoom="5.8285994"
     inkscape:cx="18.186187"
     inkscape:cy="20.245001"
     inkscape:window-width="1680"
     inkscape:window-height="987"
     inkscape:window-x="-8"
     inkscape:window-y="-8"
     inkscape:window-maximized="1"
     inkscape:current-layer="Warstwa_1" />
  <defs
     id="defs2166">
    <style
       id="style2164">.cls-1{fill:#000;}.cls-1,.cls-2{stroke-width:0px;}.cls-2{fill:#fff;}</style>
  </defs>
  <path
     class="cls-1"
     d="M36.05,35.55c.27,0,.49.23.49.5s-.22.49-.49.49h-3.55c-.2.95-.94,1.68-1.88,1.88v1.58c0,.27-.22.49-.49.49s-.5-.22-.5-.49v-1.58c-.94-.2-1.68-.93-1.87-1.88h-4.12c-.49.76-1.01,1.49-1.58,2.19-.44.53-.98.96-1.59,1.26-.25.12-.55.02-.67-.23-.12-.24-.01-.54.23-.66.49-.24.92-.58,1.26-1,2.4-2.84,3.92-6.32,4.39-10.01.1-.88.13-1.78.09-2.67,0-.15-.07-.29-.19-.39-.1-.09-.23-.12-.36-.1-2.52.4-5.05-.69-6.49-2.8-.09-.13-.24-.21-.4-.21-.16-.01-.31.06-.4.2-.86,1.17-2.07,2.06-3.45,2.55-1.01.33-2.1.42-3.15.26-.13-.02-.26.01-.36.1-.12.1-.19.24-.2.39-.04.89-.01,1.79.09,2.67.47,3.69,1.99,7.17,4.39,10.01.75.9,1.86,1.42,3.02,1.4.21,0,.39.13.46.31.03.06.04.12.04.19,0,.27-.22.49-.5.49-1.46.01-2.85-.63-3.78-1.76-.57-.7-1.1-1.43-1.58-2.19h-4.12c-.19.95-.93,1.68-1.88,1.88v1.58c0,.27-.22.49-.49.49s-.49-.22-.49-.49v-1.58c-.95-.19-1.69-.93-1.88-1.88H.49c-.27,0-.49-.22-.49-.49s.22-.49.49-.49h3.56c.19-.95.93-1.69,1.88-1.88v-1.14c-2.25-.25-3.95-2.14-3.95-4.39v-15.81c0-.27.22-.49.49-.49s.49.22.49.49v15.81c0,1.91,1.55,3.45,3.46,3.45s3.46-1.54,3.46-3.45h0c-.1-.92-.13-1.85-.1-2.77.02-.13.05-.25.1-.36V4.44c0-1.91-1.55-3.45-3.46-3.45s-3.46,1.54-3.46,3.45v5.93c0,.27-.22.49-.49.49s-.49-.22-.49-.49v-5.93C1.98,1.99,3.97,0,6.42,0s4.45,1.99,4.45,4.44v19.55c.19-.06.4-.07.61-.04.78.12,1.58.06,2.35-.15V4.44c0-1.18.47-2.31,1.31-3.14C15.97.46,17.1,0,18.27,0,20.73,0,22.71,1.99,22.72,4.44v19.36c.76.21,1.56.27,2.35.15.2-.03.41-.02.61.04V4.44C25.68,1.99,27.67,0,30.12,0c.28,0,.5.22.5.49,0,.11-.03.2-.08.28-.09.13-.25.22-.42.22-1.9,0-3.45,1.55-3.45,3.45v20.58c.04.12.07.24.09.36.04.92.01,1.85-.09,2.76h0c0,1.92,1.55,3.46,3.45,3.46s3.46-1.54,3.46-3.45V4.44c0-1.23-.66-2.37-1.73-2.99-.23-.14-.31-.44-.18-.68.14-.23.44-.31.68-.18,1.37.8,2.22,2.27,2.22,3.85v23.71c-.01,2.25-1.71,4.14-3.95,4.39v1.14c.94.19,1.68.93,1.87,1.87h3.56ZM31.61,36.05c0-.82-.67-1.48-1.49-1.48s-1.48.66-1.48,1.48.67,1.48,1.48,1.48,1.48-.66,1.49-1.48ZM29.63,33.68v-1.14c-1.4-.16-2.65-.97-3.35-2.2-.43,1.83-1.12,3.58-2.05,5.21h3.53c.19-.94.93-1.68,1.87-1.87ZM21.73,23.45V4.44c0-1.9-1.55-3.45-3.46-3.45-1.9.01-3.44,1.55-3.45,3.45v18.99c.91-.44,1.7-1.1,2.32-1.9.17-.21.39-.37.64-.46v-4.77c0-.28.22-.5.49-.5s.5.22.5.5v4.74c.3.08.57.27.76.52.56.8,1.32,1.45,2.2,1.89ZM8.79,35.55h3.52c-.93-1.63-1.62-3.38-2.05-5.21-.7,1.23-1.94,2.04-3.35,2.2v1.14c.95.19,1.69.93,1.88,1.87ZM7.9,36.05c0-.82-.66-1.48-1.48-1.48s-1.48.66-1.48,1.48.66,1.48,1.48,1.48,1.48-.66,1.48-1.48Z"
     id="path2168" />
  <path
     class="cls-2"
     d="M33.58,4.44v23.71c0,1.91-1.55,3.45-3.46,3.45s-3.45-1.54-3.45-3.45h0c.1-.92.13-1.85.09-2.77-.02-.12-.05-.24-.09-.36V4.44c0-1.9,1.55-3.45,3.45-3.45.17,0,.33-.09.42-.22h1.13c-.13.24-.05.54.18.68,1.07.62,1.73,1.76,1.73,2.99Z"
     id="path2170" />
  <path
     class="cls-2"
     d="M30.12,34.57c.82,0,1.49.66,1.49,1.48-.01.82-.67,1.48-1.49,1.48s-1.48-.66-1.48-1.48.67-1.48,1.48-1.48Z"
     id="path2172" />
  <path
     class="cls-2"
     d="M25.77,25.42c.04.89,0,1.79-.09,2.67-.47,3.69-1.99,7.17-4.39,10.01-.34.42-.77.76-1.26,1-.24.12-.35.42-.23.66l-1.07.05c-.07-.18-.25-.31-.46-.31-1.16.02-2.27-.5-3.02-1.4-2.4-2.84-3.92-6.32-4.39-10.01-.1-.88-.13-1.78-.09-2.67,0-.15.08-.29.2-.39.1-.09.23-.12.36-.1,1.05.16,2.14.07,3.15-.26,1.38-.49,2.59-1.38,3.45-2.55.09-.14.24-.21.4-.2.16,0,.31.08.4.21,1.44,2.11,3.97,3.2,6.49,2.8.13-.02.26.01.36.1.12.1.19.24.19.39Z"
     id="path2174" />
  <path
     class="cls-2"
     d="M21.73,4.44v19.01c-.88-.44-1.64-1.09-2.2-1.89-.19-.25-.46-.44-.76-.52v-4.74c0-.28-.22-.5-.5-.5s-.49.22-.49.5h-2.96V4.44c0-1.9,1.55-3.44,3.45-3.45,1.91,0,3.46,1.55,3.46,3.45Z"
     id="path2176" />
  <path
     class="cls-2"
     d="M17.78,16.3v4.77c-.25.09-.47.25-.64.46-.62.8-1.41,1.46-2.32,1.9v-7.13h2.96Z"
     id="path2178" />
  <path
     class="cls-2"
     d="M9.88,28.14h0c0,1.92-1.55,3.46-3.46,3.46s-3.46-1.54-3.46-3.45v-15.81c0-.27-.22-.49-.49-.49v-.99c.27,0,.49-.22.49-.49v-5.93c0-1.91,1.55-3.45,3.46-3.45s3.46,1.54,3.46,3.45v20.58c-.05.11-.08.23-.1.36-.03.92,0,1.85.1,2.76Z"
     id="path2180" />
  <circle
     class="cls-2"
     cx="6.42"
     cy="36.05"
     r="1.48"
     id="circle2182" />
  <path
     class="cls-1"
     d="M6.42,3.95c-1.36,0-2.47,1.11-2.47,2.47s1.11,2.47,2.47,2.47,2.47-1.11,2.47-2.47c0-1.36-1.11-2.47-2.47-2.47ZM6.42,7.9c-.82,0-1.48-.66-1.48-1.48s.66-1.48,1.48-1.48,1.48.66,1.48,1.48c0,.82-.66,1.48-1.48,1.48Z"
     id="path2184" />
  <path
     class="cls-1"
     d="M3.95,28.15c0,.27.22.49.49.49s.49-.22.49-.49v-3.95c0-.27-.22-.49-.49-.49s-.49.22-.49.49v3.95Z"
     id="path2186" />
  <path
     class="cls-1"
     d="M7.9,24.2v3.95c0,.27.22.49.49.49s.49-.22.49-.49v-3.95c0-.27-.22-.49-.49-.49s-.49.22-.49.49Z"
     id="path2188" />
  <path
     class="cls-1"
     d="M5.93,16.3v11.85c0,.27.22.49.49.49s.49-.22.49-.49v-11.85c0-.27-.22-.49-.49-.49s-.49.22-.49.49Z"
     id="path2190" />
  <path
     class="cls-1"
     d="M18.27,3.95c-1.36,0-2.47,1.11-2.47,2.47s1.11,2.47,2.47,2.47,2.47-1.11,2.47-2.47c0-1.36-1.11-2.47-2.47-2.47ZM18.27,7.9c-.82,0-1.48-.66-1.48-1.48s.66-1.48,1.48-1.48,1.48.66,1.48,1.48c0,.82-.66,1.48-1.48,1.48Z"
     id="path2192" />
  <path
     class="cls-1"
     d="M30.12,3.95c-1.36,0-2.47,1.11-2.47,2.47s1.11,2.47,2.47,2.47,2.47-1.11,2.47-2.47c0-1.36-1.11-2.47-2.47-2.47ZM30.12,7.9c-.82,0-1.48-.66-1.48-1.48s.66-1.48,1.48-1.48,1.48.66,1.48,1.48c0,.82-.66,1.48-1.48,1.48Z"
     id="path2194" />
  <path
     class="cls-1"
     d="M27.66,24.2v3.95c0,.27.22.49.49.49s.49-.22.49-.49v-3.95c0-.27-.22-.49-.49-.49s-.49.22-.49.49Z"
     id="path2196" />
  <path
     class="cls-1"
     d="M31.61,24.2v3.95c0,.27.22.49.49.49s.49-.22.49-.49v-3.95c0-.27-.22-.49-.49-.49s-.49.22-.49.49Z"
     id="path2198" />
  <path
     class="cls-1"
     d="M29.63,16.3v11.85c0,.27.22.49.49.49s.49-.22.49-.49v-11.85c0-.27-.22-.49-.49-.49s-.49.22-.49.49Z"
     id="path2200" />
  <path
     class="cls-1"
     d="M21.58,28.39c-.19-.19-.51-.19-.7,0h0s-3.25,3.25-3.25,3.25c-.19.19-.51.19-.7,0h0s-1.28-1.28-1.28-1.28c-.19-.19-.5-.2-.7,0-.19.19-.2.5,0,.7,0,0,0,0,0,0l1.28,1.28c.58.58,1.52.58,2.1,0l3.25-3.25c.19-.19.19-.51,0-.7Z"
     id="path2202" />
</svg>
