<?xml version="1.0" encoding="UTF-8"?>
<svg id="Warstwa_2" data-name="Warstwa 2" xmlns="http://www.w3.org/2000/svg" viewBox="0 0 29.52 29.52">
  <defs>
    <style>
      .cls-1 {
        fill: #fff;
        stroke-width: 0px;
      }
    </style>
  </defs>
  <g id="Warstwa_1-2" data-name="Warstwa 1">
    <g>
      <path class="cls-1" d="M7.13,14.97v-1.87c0-1.54-.25-3.08-.74-4.54-.52-1.57-.79-3.21-.79-4.87V0h-1.02v.51c-.01,5-1.62,9.88-4.58,13.91v1.7l1.02,1.36c.16.21.41.34.68.34,1.03,0,1.87.84,1.87,1.87v9.84h1.02v-3.77c0-1.95.46-3.87,1.33-5.62.8-1.6,1.22-3.37,1.22-5.16h0ZM4.58,18.32c-.48,0-.93-.23-1.22-.61l-.39-.52c-1.14-1.52-1.25-3.58-.27-5.21l.65-1.08c.42-.7,1.33-.93,2.04-.51.45.27.72.75.72,1.27v5.13c0,.84-.68,1.53-1.53,1.53Z"/>
      <path class="cls-1" d="M8.14,29.52h1.02v-8.74c-.67,1.04-1.02,2.24-1.02,3.47v5.26Z"/>
      <path class="cls-1" d="M18.32,29.52h1.02v-9.22c-.67,1.49-1.02,3.11-1.02,4.74v4.47Z"/>
      <path class="cls-1" d="M4.62,11.2c-.16,0-.31.09-.4.23l-.65,1.08c-.77,1.28-.68,2.89.21,4.08l.39.52c.17.22.49.27.71.1.13-.1.2-.25.2-.41v-5.13c0-.26-.21-.47-.47-.47Z"/>
      <path class="cls-1" d="M6.62,3.69c0,1.54.25,3.08.74,4.54.52,1.57.79,3.21.79,4.87v1.87c0,1.95-.45,3.87-1.32,5.62-.8,1.6-1.22,3.37-1.22,5.16v3.77h1.53v-5.26c0-1.9.73-3.73,2.04-5.11V0h-2.55v3.69Z"/>
      <path class="cls-1" d="M11.2,16.42v-1.87c0-1.95.46-3.87,1.33-5.62.8-1.6,1.22-3.37,1.22-5.16V0h-1.53v5.26c0,1.9-.73,3.73-2.04,5.11v19.15h2.55v-3.69c0-1.54-.25-3.08-.74-4.54-.52-1.57-.79-3.21-.79-4.87Z"/>
      <path class="cls-1" d="M1.02,0H0v9.22c.67-1.49,1.02-3.11,1.02-4.74V0Z"/>
      <path class="cls-1" d="M1.7,18.83c-.59,0-1.14-.28-1.49-.75l-.2-.27v4.47l1.37,3.09c.22.5.65.87,1.17,1.02v-6.71c0-.47-.38-.85-.85-.85Z"/>
      <path class="cls-1" d="M11.2,0h-1.02v8.74c.67-1.04,1.02-2.24,1.02-3.47V0Z"/>
      <path class="cls-1" d="M.44,25.79l-.44-.99v4.73h2.55v-2.09c-.93-.17-1.72-.78-2.1-1.65Z"/>
      <path class="cls-1" d="M3.56,0h-1.53v4.47c0,2.44-.71,4.82-2.04,6.87v1.28C2.32,9.01,3.55,4.8,3.56.51V0Z"/>
      <path class="cls-1" d="M15.78,29.52h1.53v-4.47c0-2.44.71-4.82,2.04-6.87v-1.28c-2.32,3.62-3.55,7.82-3.56,12.11v.51Z"/>
      <path class="cls-1" d="M20.36,14.25h9.16v1.02h-9.16v-1.02Z"/>
      <path class="cls-1" d="M20.36,22.4h9.16v1.02h-9.16v-1.02Z"/>
      <path class="cls-1" d="M15.17,12.42c-.17-.22-.49-.27-.71-.1-.13.1-.2.25-.2.41v5.13c0,.26.21.47.47.47.16,0,.31-.09.4-.23l.65-1.08c.77-1.28.68-2.89-.21-4.08l-.39-.52Z"/>
      <path class="cls-1" d="M20.36,18.32h9.16v1.02h-9.16v-1.02Z"/>
      <path class="cls-1" d="M20.36,2.04h9.16v1.02h-9.16v-1.02Z"/>
      <path class="cls-1" d="M20.36,6.11h9.16v1.02h-9.16v-1.02Z"/>
      <path class="cls-1" d="M20.36,10.18h9.16v1.02h-9.16v-1.02Z"/>
      <path class="cls-1" d="M16.8,3.13v6.71c0,.47.38.85.85.85.59,0,1.14.28,1.49.75l.2.27v-4.47l-1.37-3.09c-.22-.5-.65-.87-1.17-1.02Z"/>
      <path class="cls-1" d="M16.8,2.09c.93.17,1.72.78,2.1,1.65l.44.99V0h-2.55v2.09Z"/>
      <path class="cls-1" d="M17.65,11.71c-1.03,0-1.87-.84-1.87-1.87V0h-1.02v3.77c0,1.95-.45,3.87-1.32,5.62-.8,1.6-1.22,3.37-1.22,5.16v1.87c0,1.54.25,3.08.74,4.54.52,1.57.79,3.21.79,4.87v3.69h1.02v-.51c.01-5,1.62-9.88,4.58-13.91v-1.7l-1.02-1.36c-.16-.21-.41-.34-.68-.34ZM16.64,17.54l-.65,1.08c-.42.7-1.33.93-2.04.51-.45-.27-.72-.75-.72-1.27v-5.13c0-.84.68-1.53,1.53-1.53.48,0,.93.23,1.22.61l.39.52c1.14,1.52,1.25,3.58.27,5.21h0Z"/>
      <path class="cls-1" d="M20.36,26.47h9.16v1.02h-9.16v-1.02Z"/>
    </g>
  </g>
</svg>