<?xml version="1.0" encoding="UTF-8" standalone="no"?>
<!-- Created with Inkscape (http://www.inkscape.org/) -->

<svg
   width="50"
   height="42"
   viewBox="0 0 13.229166 11.1125"
   version="1.1"
   id="svg63534"
   inkscape:version="1.2.2 (732a01da63, 2022-12-09)"
   sodipodi:docname="icon-terminy.svg"
   xmlns:inkscape="http://www.inkscape.org/namespaces/inkscape"
   xmlns:sodipodi="http://sodipodi.sourceforge.net/DTD/sodipodi-0.dtd"
   xmlns="http://www.w3.org/2000/svg"
   xmlns:svg="http://www.w3.org/2000/svg">
  <sodipodi:namedview
     id="namedview63536"
     pagecolor="#ffffff"
     bordercolor="#000000"
     borderopacity="0.25"
     inkscape:showpageshadow="2"
     inkscape:pageopacity="0.0"
     inkscape:pagecheckerboard="0"
     inkscape:deskcolor="#d1d1d1"
     inkscape:document-units="mm"
     showgrid="false"
     inkscape:zoom="13.455443"
     inkscape:cx="23.707877"
     inkscape:cy="20.512145"
     inkscape:window-width="1680"
     inkscape:window-height="987"
     inkscape:window-x="-8"
     inkscape:window-y="-8"
     inkscape:window-maximized="1"
     inkscape:current-layer="g64847">
    <sodipodi:guide
       position="0,11.1125"
       orientation="0,50"
       id="guide69644"
       inkscape:locked="false" />
    <sodipodi:guide
       position="13.229166,11.1125"
       orientation="42,0"
       id="guide69646"
       inkscape:locked="false" />
    <sodipodi:guide
       position="13.229166,0"
       orientation="0,-50"
       id="guide69648"
       inkscape:locked="false" />
    <sodipodi:guide
       position="0,0"
       orientation="-42,0"
       id="guide69650"
       inkscape:locked="false" />
  </sodipodi:namedview>
  <defs
     id="defs63531" />
  <g
     inkscape:label="Warstwa 1"
     inkscape:groupmode="layer"
     id="layer1">
    <g
       id="g8808"
       transform="matrix(0.26458333,0,0,0.26458333,764.47091,2879.8358)">
			
			
			
			
			
			<g
   id="g64847">
  <g
     id="g67827"
     transform="translate(-363.78109,-581.80611)">
    <g
       id="g67806">
      <path
         d="m -2516.6,-10266 c 0,1.5 1.2,2.8 2.8,2.8 1.5,0 2.8,-1.2 2.8,-2.8 0,-1.6 -1.2,-2.8 -2.8,-2.8 -1.5,0 -2.8,1.3 -2.8,2.8 z m 1.1,0 c 0,-0.9 0.7,-1.7 1.7,-1.7 0.9,0 1.7,0.7 1.7,1.7 0,1 -0.7,1.7 -1.7,1.7 -0.9,-0.1 -1.7,-0.8 -1.7,-1.7 z"
         id="path8773" />
      <path
         d="m -2484.5,-10266 c 0,-1.5 -1.2,-2.8 -2.8,-2.8 -1.6,0 -2.8,1.2 -2.8,2.8 0,1.6 1.2,2.8 2.8,2.8 1.5,-0.1 2.7,-1.3 2.8,-2.8 z m -1.2,0 c 0,0.9 -0.7,1.7 -1.7,1.7 -1,0 -1.7,-0.7 -1.7,-1.7 0,-1 0.7,-1.7 1.7,-1.7 1,0 1.7,0.8 1.7,1.7 z"
         id="path8775" />
      <g
         id="XMLID_00000015317930859894418240000006484564115826869126_">
				<g
   id="g8797">
					<path
   d="m -2475.7,-10268.2 v 0.3 c 0,1.3 -1,2.5 -2.3,2.7 -1.6,0.3 -3.1,0.5 -4.6,0.7 -0.8,2.6 -3.6,4 -6.2,3.2 -1.2,-0.4 -2.2,-1.2 -2.8,-2.3 -2.9,0.2 -5.9,0.3 -8.9,0.3 -0.3,0 -0.6,-0.2 -0.6,-0.5 0,-0.3 0.2,-0.5 0.6,-0.5 2.9,0 5.7,-0.1 8.5,-0.3 -0.6,-1.9 0.1,-4 1.7,-5.2 h -20.3 c 1.6,1.2 2.3,3.3 1.7,5.2 2.1,0.1 4.2,0.2 6.3,0.3 0.3,0 0.5,0.2 0.5,0.6 0,0.3 -0.2,0.5 -0.5,0.5 v 0 c -2.2,0 -4.5,-0.1 -6.8,-0.3 -1.3,2.4 -4.4,3.2 -6.7,1.9 -1.1,-0.6 -1.9,-1.6 -2.3,-2.8 -1.6,-0.2 -3.2,-0.5 -4.6,-0.7 -1.3,-0.2 -2.3,-1.4 -2.3,-2.7 v -0.3 c 0,-1.5 1.2,-2.8 2.8,-2.8 h 1.7 v -6.1 c 0,-0.3 0.2,-0.6 0.6,-0.6 0.3,0 0.6,0.2 0.6,0.6 v 6.1 h 14.3 c -0.2,-3.3 -0.3,-6.6 -0.2,-9.9 h -12.5 c -0.9,0 -1.7,0.7 -1.7,1.7 0,0.3 -0.2,0.5 -0.6,0.5 -0.3,0 -0.6,-0.2 -0.6,-0.5 0,-1.4 1.1,-2.5 2.4,-2.7 l 5.8,-7.8 h -3.3 c -1.5,0 -2.8,-1.2 -2.8,-2.8 0,-1.5 1.2,-2.8 2.8,-2.8 h 11.6 c 0.1,-0.8 0.2,-1.7 0.4,-2.6 0.4,-2.4 2.5,-4.1 4.9,-4.1 h 9.6 c 0.3,0 0.5,0.2 0.5,0.6 0,0.3 -0.2,0.5 -0.5,0.5 h -9.6 c -1.9,0 -3.5,1.3 -3.8,3.1 -0.7,3.9 -1.2,7.8 -1.5,11.8 -0.1,1.4 -0.2,2.9 -0.2,4.3 0,0 0,0 0,0 0,0 0,0 0,0 -0.1,3.5 -0.1,7 0.2,10.4 h 25.5 c 0.6,-8.9 0.1,-17.9 -1.5,-26.7 -0.3,-1.8 -1.9,-3.2 -3.8,-3.1 h -3 c -0.3,0 -0.6,-0.2 -0.6,-0.5 0,-0.3 0.2,-0.6 0.6,-0.6 h 3 c 2.4,0 4.5,1.7 4.9,4.1 1.6,8.9 2.1,18 1.5,27 1.2,0.4 2.1,1.5 2.1,2.8 z m -1.1,0.3 v -0.3 c 0,-0.9 -0.7,-1.7 -1.7,-1.7 h -5.8 c 1.2,0.9 1.9,2.4 1.9,3.9 0,0.1 0,0.3 0,0.4 1.3,-0.2 2.7,-0.4 4.2,-0.6 0.8,-0.2 1.4,-0.9 1.4,-1.7 z m -7.5,1.9 c 0,-1.7 -1.4,-3 -3,-3 -1.6,0 -3,1.4 -3,3 0,1.7 1.4,3 3,3 1.6,0 3,-1.3 3,-3 z m -20.3,-28.2 h -11.4 c -0.9,0 -1.7,0.7 -1.7,1.6 0,0.9 0.7,1.7 1.7,1.7 h 11 c 0.1,-1.1 0.2,-2.2 0.4,-3.3 z m -0.6,4.4 h -1.5 v 7.7 h 0.9 c 0,-1.3 0.1,-2.6 0.2,-3.9 0.2,-1.2 0.3,-2.5 0.4,-3.8 z m -2.5,7.8 v -7.7 h -3.6 l -5.8,7.7 z m -3,16 c 0,-1.7 -1.4,-3.1 -3.1,-3.1 -1.7,0 -3.1,1.4 -3.1,3.1 0,1.7 1.4,3.1 3.1,3.1 1.7,0 3.1,-1.4 3.1,-3.1 z m -6.2,-3.9 h -5.8 c -0.9,0 -1.7,0.8 -1.7,1.7 v 0.3 c 0,0.8 0.6,1.5 1.3,1.7 1.3,0.2 2.8,0.4 4.2,0.6 0,-0.1 -0.1,-0.3 -0.1,-0.4 0.2,-1.5 0.9,-2.9 2.1,-3.9 z"
   id="path8777" />

					<path
   class="st29"
   d="m -2476.8,-10268.2 v 0.3 c 0,0.8 -0.6,1.5 -1.4,1.7 -1.4,0.2 -2.8,0.4 -4.2,0.6 0,-0.1 0,-0.3 0,-0.4 0,-1.5 -0.7,-2.9 -1.9,-3.9 h 5.8 c 0.9,0 1.7,0.8 1.7,1.7 z"
   id="path8779"
   style="fill:#ffffff" />

					<path
   class="st29"
   d="m -2480.5,-10297.7 c 1.6,8.8 2.1,17.8 1.5,26.7 h -25.5 c -0.2,-3.5 -0.3,-7 -0.2,-10.4 0,0 0,0 0,0 0,0 0,0 0,0 0,-1.5 0.1,-2.9 0.2,-4.3 0.3,-4 0.8,-7.9 1.5,-11.8 0.3,-1.8 1.9,-3.2 3.8,-3.1 h 9.6 c 0.3,0 0.5,-0.2 0.5,-0.5 h 1.1 c 0,0.3 0.2,0.5 0.6,0.5 h 3 c 1.9,-0.2 3.5,1.1 3.9,2.9 z"
   id="path8781"
   style="fill:#ffffff" />

					<circle
   class="st29"
   cx="-2487.3"
   cy="-10266"
   r="3"
   id="circle8783"
   style="fill:#ffffff" />

					<path
   class="st29"
   d="m -2510.7,-10269.9 h 20.3 c -1.6,1.2 -2.3,3.3 -1.7,5.2 -2.8,0.2 -5.6,0.3 -8.5,0.3 -0.3,0 -0.6,0.2 -0.6,0.5 h -1.1 c 0,-0.3 -0.2,-0.6 -0.5,-0.6 -2.1,0 -4.2,-0.1 -6.3,-0.3 0.6,-1.8 0,-3.9 -1.6,-5.1 z"
   id="path8785"
   style="fill:#ffffff" />

					<path
   class="st29"
   d="m -2516,-10294.2 h 11.4 c -0.2,1.1 -0.3,2.2 -0.4,3.3 h -11 c -0.9,0 -1.7,-0.7 -1.7,-1.7 0,-0.8 0.8,-1.6 1.7,-1.6 z"
   id="path8787"
   style="fill:#ffffff" />

					<path
   class="st29"
   d="m -2505.6,-10271 h -14.3 v -6.1 c 0,-0.3 -0.2,-0.6 -0.6,-0.6 v -1.1 c 0.3,0 0.6,-0.2 0.6,-0.5 0,-0.9 0.7,-1.7 1.7,-1.7 h 12.5 c -0.1,3.4 -0.1,6.7 0.1,10 z"
   id="path8789"
   style="fill:#ffffff" />

					<polygon
   class="st29"
   points="-2507.7,-10282 -2517.1,-10282 -2511.3,-10289.8 -2507.7,-10289.8 "
   id="polygon8791"
   style="fill:#ffffff" />

					<path
   class="st29"
   d="m -2513.8,-10269.1 c 1.7,0 3.1,1.4 3.1,3.1 0,1.7 -1.4,3.1 -3.1,3.1 -1.7,0 -3.1,-1.4 -3.1,-3.1 0,-1.7 1.4,-3.1 3.1,-3.1 z"
   id="path8793"
   style="fill:#ffffff" />

					<path
   class="st29"
   d="m -2522.7,-10269.9 h 5.8 c -1.2,0.9 -1.9,2.4 -1.9,3.9 0,0.1 0,0.3 0.1,0.4 -1.5,-0.2 -2.9,-0.4 -4.2,-0.6 -0.8,-0.2 -1.3,-0.8 -1.3,-1.7 v -0.3 c -0.1,-0.9 0.6,-1.7 1.5,-1.7 z"
   id="path8795"
   style="fill:#ffffff" />

				</g>

				<g
   id="g8799">
				</g>

			</g>
      <path
         d="m -2490.1,-10282 c 0.6,-1 1,-2.1 1.1,-3.3 h 8.3 c 0.3,0 0.6,-0.2 0.6,-0.6 0,-0.4 -0.2,-0.6 -0.6,-0.6 h -8.3 c -0.1,-1.2 -0.5,-2.3 -1.1,-3.3 h 5 c 0.3,0 0.6,-0.2 0.6,-0.6 0,-0.4 -0.2,-0.6 -0.6,-0.6 h -5.9 c -0.1,-0.1 -0.1,-0.1 -0.2,-0.2 -2.9,-2.7 -7.4,-2.7 -10.2,0.2 -2.7,2.9 -2.7,7.4 0.2,10.2 2.9,2.8 7.4,2.7 10.2,-0.2 h 5.9 c 0.3,0 0.6,-0.2 0.6,-0.6 0,-0.4 -0.2,-0.6 -0.6,-0.6 h -5 z m 0,-3.9 c 0,3.4 -2.7,6.1 -6.1,6.1 -3.4,0 -6.1,-2.7 -6.1,-6.1 0,-3.4 2.7,-6.1 6.1,-6.1 3.4,0 6.1,2.8 6.1,6.1 z"
         id="path8802" />
      <path
         d="m -2495.6,-10281.5 v -4.4 c 0,-0.1 -0.1,-0.3 -0.2,-0.4 l -2.2,-2.2 c -0.2,-0.2 -0.6,-0.2 -0.8,0 -0.2,0.2 -0.2,0.6 0,0.8 l 2,2 v 4.2 c 0,0.3 0.2,0.6 0.6,0.6 0.4,0 0.6,-0.3 0.6,-0.6 z"
         id="path8804" />
      <path
         class="st102"
         d="m -2516.9,-10266 c 0,-1.7 1.4,-3.1 3.1,-3.1 1.7,0 3.1,1.4 3.1,3.1 0,1.7 -1.4,3.1 -3.1,3.1 -1.7,0 -3.1,-1.4 -3.1,-3.1 z"
         id="path8806"
         style="fill:none;stroke:#000000;stroke-width:0.4016;stroke-linecap:round;stroke-linejoin:round" />
    </g>
  </g>
</g>

		</g>
  </g>
</svg>
