<?xml version="1.0" encoding="UTF-8"?>
<svg id="Warstwa_2" data-name="Warstwa 2" xmlns="http://www.w3.org/2000/svg" viewBox="0 0 72.05 66.29">
  <defs>
    <style>
      .cls-1 {
        fill: #000;
        stroke-width: 0px;
      }
    </style>
  </defs>
  <g id="Warstwa_1-2" data-name="Warstwa 1">
    <g>
      <path class="cls-1" d="M58.95,64.94c.09.77.73,1.35,1.51,1.35h2.73c.84,0,1.52-.68,1.52-1.52v-7.84h-6.65l.89,8.01Z"/>
      <path class="cls-1" d="M7.29,64.75c0,.84.68,1.52,1.52,1.52h2.59c.77,0,1.42-.58,1.51-1.35l.89-7.98h-6.51v7.81Z"/>
      <path class="cls-1" d="M69.49,14.51l2.39-12.2c.24-1.2-.68-2.32-1.91-2.32H1.94C.71,0-.21,1.14.04,2.34l2.57,12.17h66.88ZM36.02,4.74c1.17,0,2.11.95,2.11,2.11s-.95,2.11-2.11,2.11-2.11-.95-2.11-2.11.95-2.11,2.11-2.11Z"/>
      <path class="cls-1" d="M70.11,37.33H2.02c-1.22,0-2.14,1.11-1.91,2.31l2.21,11.5c.18.91.98,1.58,1.91,1.58h63.66c.93,0,1.73-.66,1.91-1.58l2.21-11.5c.23-1.2-.69-2.31-1.91-2.31h0ZM36.02,45.87c-1.17,0-2.11-.95-2.11-2.11s.95-2.11,2.11-2.11,2.11.95,2.11,2.11-.94,2.11-2.11,2.11h0Z"/>
      <path class="cls-1" d="M70.11,17.72H2.02c-1.22,0-2.14,1.11-1.91,2.31l2.52,13.07h66.87l2.52-13.07c.23-1.2-.69-2.31-1.91-2.31ZM36.02,26.85c-1.17,0-2.11-.95-2.11-2.11s.95-2.11,2.11-2.11,2.11.95,2.11,2.11-.94,2.11-2.11,2.11h0Z"/>
    </g>
  </g>
</svg>