<?xml version="1.0" encoding="UTF-8" standalone="no"?>
<svg
   id="Warstwa_1"
   viewBox="0 0 38.76 38.76"
   version="1.1"
   sodipodi:docname="icon-doradztwo1.svg"
   inkscape:version="1.2.2 (732a01da63, 2022-12-09)"
   xmlns:inkscape="http://www.inkscape.org/namespaces/inkscape"
   xmlns:sodipodi="http://sodipodi.sourceforge.net/DTD/sodipodi-0.dtd"
   xmlns="http://www.w3.org/2000/svg"
   xmlns:svg="http://www.w3.org/2000/svg">
  <sodipodi:namedview
     id="namedview2012"
     pagecolor="#ffffff"
     bordercolor="#000000"
     borderopacity="0.25"
     inkscape:showpageshadow="2"
     inkscape:pageopacity="0.0"
     inkscape:pagecheckerboard="0"
     inkscape:deskcolor="#d1d1d1"
     showgrid="false"
     inkscape:zoom="6.0887516"
     inkscape:cx="19.379999"
     inkscape:cy="19.379999"
     inkscape:window-width="1680"
     inkscape:window-height="987"
     inkscape:window-x="-8"
     inkscape:window-y="-8"
     inkscape:window-maximized="1"
     inkscape:current-layer="Warstwa_1" />
  <defs
     id="defs1979">
    <style
       id="style1977">.cls-1{fill:#000;}.cls-1,.cls-2{stroke-width:0px;}.cls-2{fill:#fff;}</style>
  </defs>
  <path
     class="cls-1"
     d="M38.76,15.19v11.2c0,.69-.28,1.36-.77,1.85l-7.15,7.15c-.3.3-.46.7-.46,1.11v1.73c0,.29-.24.53-.53.53h-6.28c-1.45,0-2.62-1.18-2.62-2.62v-7.86c0-.69.27-1.36.76-1.85l6.8-6.81c1.03-1.02,2.68-1.02,3.7,0,.5.52.76,1.18.76,1.86s-.26,1.34-.76,1.85l-3.38,3.37-.06.06c-.43.47-.41,1.2.06,1.64s1.21.41,1.65-.06l2.58-2.58c.29-.29.46-.69.46-1.11v-7.42c-.45.36-1,.56-1.57.58H6.81c-.58-.02-1.13-.22-1.57-.58v7.42c-.01.42.16.83.46,1.12l2.58,2.59s.04.04.06.05c.47.44,1.21.41,1.64-.06.44-.47.41-1.2-.06-1.64l-3.38-3.37c-.51-.52-.77-1.19-.77-1.86s.26-1.34.77-1.86c1.02-1.02,2.67-1.02,3.69,0l6.81,6.81c.49.49.77,1.16.77,1.85v7.86c0,1.44-1.18,2.62-2.62,2.62h-6.29c-.29,0-.52-.24-.52-.53v-1.73c0-.41-.17-.81-.46-1.11L.77,28.24c-.5-.49-.77-1.16-.77-1.85v-11.2c0-1.45,1.17-2.62,2.62-2.62.57.01,1.12.22,1.57.58V2.62c0-1.45,1.17-2.62,2.62-2.62h25.14c1.44,0,2.62,1.17,2.62,2.62v10.53c.44-.36.99-.57,1.57-.58,1.44,0,2.62,1.17,2.62,2.62ZM37.71,26.39v-11.2c0-.87-.7-1.57-1.57-1.57s-1.57.7-1.57,1.57v9.48c0,.7-.27,1.36-.76,1.85l-2.58,2.58c-.87.87-2.27.86-3.14-.01s-.85-2.27.01-3.13l3.38-3.36c.61-.63.61-1.62,0-2.24-.61-.61-1.6-.61-2.21,0l-6.81,6.81c-.3.3-.46.7-.46,1.11v7.86c0,.87.7,1.57,1.57,1.57h5.76v-1.21c0-.69.27-1.36.77-1.85l7.15-7.15c.29-.3.46-.69.46-1.11ZM33.52,15.19V2.62c0-.87-.7-1.57-1.57-1.57H6.81c-.87,0-1.57.7-1.57,1.57v12.57c0,.87.7,1.57,1.57,1.57h25.14c.87,0,1.57-.7,1.57-1.57ZM16.76,36.14v-7.86c.01-.42-.16-.83-.45-1.13l-6.81-6.81c-.62-.61-1.61-.61-2.22,0-.6.62-.6,1.62,0,2.24l3.38,3.36c.87.86.87,2.27.01,3.13-.86.87-2.26.88-3.13.01l-2.58-2.58c-.49-.49-.77-1.16-.77-1.85v-9.46c0-.87-.7-1.57-1.57-1.57s-1.57.7-1.57,1.57v11.2c0,.41.16.81.46,1.11l7.15,7.15c.49.49.77,1.16.77,1.85v1.21h5.76c.87,0,1.57-.7,1.57-1.57Z"
     id="path1981" />
  <path
     class="cls-2"
     d="M37.71,15.19v11.2c0,.42-.17.81-.46,1.11l-7.15,7.15c-.5.49-.77,1.16-.77,1.85v1.21h-5.76c-.87,0-1.57-.7-1.57-1.57v-7.86c0-.41.16-.81.46-1.11l6.81-6.81c.61-.61,1.6-.61,2.21,0,.61.62.61,1.61,0,2.24l-3.38,3.36c-.86.86-.87,2.27-.01,3.13s2.27.88,3.14.01l2.58-2.58c.49-.49.76-1.15.76-1.85v-9.48c0-.87.7-1.57,1.57-1.57s1.57.7,1.57,1.57Z"
     id="path1983" />
  <path
     class="cls-2"
     d="M33.52,13.09v2.1c0,.87-.7,1.57-1.57,1.57h-2.1v-1.05c.29,0,.53-.23.53-.52,0-.87.7-1.57,1.57-1.57.29,0,.52-.24.52-.53h1.05Z"
     id="path1985" />
  <path
     class="cls-2"
     d="M33.52,4.71v8.38h-1.05c0-.29-.23-.52-.52-.52-1.45,0-2.62,1.17-2.62,2.62,0,.29.23.52.52.52v1.05h-10.47v-1.05c.29,0,.52-.23.52-.52v-1.57h1.57c1.45,0,2.62-1.18,2.62-2.62s-1.17-2.62-2.62-2.62h-4.19c-.86,0-1.57-.7-1.57-1.57s.71-1.57,1.57-1.57h6.29c.29,0,.52-.24.52-.53s-.23-.52-.52-.52h-3.67v-1.57c0-.29-.23-.53-.52-.53v-1.04h10.47v1.04c-.29,0-.52.24-.52.53,0,1.44,1.17,2.62,2.62,2.62.29,0,.52-.24.52-.53h1.05Z"
     id="path1987" />
  <path
     class="cls-2"
     d="M33.52,2.62v2.09h-1.05c0-.29-.23-.52-.52-.52-.87,0-1.57-.7-1.57-1.57,0-.29-.24-.53-.53-.53v-1.04h2.1c.87,0,1.57.7,1.57,1.57Z"
     id="path1989" />
  <path
     class="cls-1"
     d="M31.95,4.19c.29,0,.52.23.52.52s-.23.53-.52.53c-1.45,0-2.62-1.18-2.62-2.62,0-.29.23-.53.52-.53s.53.24.53.53c0,.87.7,1.57,1.57,1.57Z"
     id="path1991" />
  <path
     class="cls-1"
     d="M31.95,12.57c.29,0,.52.23.52.52s-.23.53-.52.53c-.87,0-1.57.7-1.57,1.57,0,.29-.24.52-.53.52s-.52-.23-.52-.52c0-1.45,1.17-2.62,2.62-2.62Z"
     id="path1993" />
  <path
     class="cls-1"
     d="M23.57,4.19c.29,0,.52.23.52.52s-.23.53-.52.53h-6.29c-.86,0-1.57.7-1.57,1.57s.71,1.57,1.57,1.57h4.19c1.45,0,2.62,1.17,2.62,2.62s-1.17,2.62-2.62,2.62h-1.57v1.57c0,.29-.23.52-.52.52s-.53-.23-.53-.52v-1.57h-3.66c-.29,0-.53-.24-.53-.53s.24-.52.53-.52h6.28c.87,0,1.57-.7,1.57-1.57s-.7-1.57-1.57-1.57h-4.19c-1.44,0-2.62-1.18-2.62-2.62s1.18-2.62,2.62-2.62h1.57v-1.57c0-.29.24-.53.53-.53s.52.24.52.53v1.57h3.67Z"
     id="path1995" />
  <path
     class="cls-2"
     d="M21.47,9.43c.87,0,1.57.7,1.57,1.57s-.7,1.57-1.57,1.57h-6.28c-.29,0-.53.23-.53.52s.24.53.53.53h3.66v1.57c0,.29.24.52.53.52v1.05h-10.48v-1.05c.29,0,.53-.23.53-.52,0-1.45-1.18-2.62-2.62-2.62-.29,0-.53.23-.53.52h-1.04V4.71h1.04c0,.29.24.53.53.53,1.44,0,2.62-1.18,2.62-2.62,0-.29-.24-.53-.53-.53v-1.04h10.48v1.04c-.29,0-.53.24-.53.53v1.57h-1.57c-1.44,0-2.62,1.17-2.62,2.62s1.18,2.62,2.62,2.62h4.19Z"
     id="path1997" />
  <path
     class="cls-1"
     d="M21.47,20.95c.29,0,.53.23.53.52s-.24.53-.53.53h-4.19c-.29,0-.52-.24-.52-.53s.23-.52.52-.52h4.19Z"
     id="path1999" />
  <path
     class="cls-2"
     d="M16.76,28.28v7.86c0,.87-.7,1.57-1.57,1.57h-5.76v-1.21c0-.69-.28-1.36-.77-1.85l-7.15-7.15c-.3-.3-.46-.7-.46-1.11v-11.2c0-.87.7-1.57,1.57-1.57s1.57.7,1.57,1.57v9.46c0,.69.28,1.36.77,1.85l2.58,2.58c.87.87,2.27.86,3.13-.01.86-.86.86-2.27-.01-3.13l-3.38-3.36c-.6-.62-.6-1.62,0-2.24.61-.61,1.6-.61,2.22,0l6.81,6.81c.29.3.46.71.45,1.13Z"
     id="path2001" />
  <path
     class="cls-1"
     d="M8.9,2.09c.29,0,.53.24.53.53,0,1.44-1.18,2.62-2.62,2.62-.29,0-.53-.24-.53-.53s.24-.52.53-.52c.87,0,1.57-.7,1.57-1.57,0-.29.23-.53.52-.53Z"
     id="path2003" />
  <path
     class="cls-1"
     d="M9.43,15.19c0,.29-.24.52-.53.52s-.52-.23-.52-.52c0-.87-.7-1.57-1.57-1.57-.29,0-.53-.24-.53-.53s.24-.52.53-.52c1.44,0,2.62,1.17,2.62,2.62Z"
     id="path2005" />
  <path
     class="cls-2"
     d="M8.9,15.71v1.05h-2.09c-.87,0-1.57-.7-1.57-1.57v-2.1h1.04c0,.29.24.53.53.53.87,0,1.57.7,1.57,1.57,0,.29.23.52.52.52Z"
     id="path2007" />
  <path
     class="cls-2"
     d="M8.9,1.05v1.04c-.29,0-.52.24-.52.53,0,.87-.7,1.57-1.57,1.57-.29,0-.53.23-.53.52h-1.04v-2.09c0-.87.7-1.57,1.57-1.57h2.09Z"
     id="path2009" />
</svg>
