<?xml version="1.0" encoding="UTF-8"?>
<svg id="Warstwa_2" data-name="Warstwa 2" xmlns="http://www.w3.org/2000/svg" viewBox="0 0 66.3 66.3">
  <defs>
    <style>
      .cls-1 {
        fill: #000;
        stroke-width: 0px;
      }
    </style>
  </defs>
  <g id="Warstwa_1-2" data-name="Warstwa 1">
    <g>
      <path class="cls-1" d="M16,33.62v-4.19c0-3.47-.56-6.92-1.66-10.21-1.18-3.52-1.77-7.21-1.77-10.93V0h-2.29v1.14c-.03,11.24-3.63,22.18-10.29,31.23v3.83l2.29,3.05c.36.48.92.76,1.52.76,2.31,0,4.19,1.88,4.19,4.19v22.1h2.29v-8.47c0-4.38,1.02-8.7,2.98-12.62,1.8-3.6,2.73-7.57,2.74-11.6h0ZM10.29,41.15c-1.08,0-2.09-.51-2.74-1.37l-.87-1.16c-2.56-3.42-2.8-8.05-.6-11.71l1.46-2.43c.95-1.58,3-2.09,4.57-1.14,1,.6,1.62,1.69,1.62,2.86v11.53c0,1.89-1.54,3.43-3.43,3.43Z"/>
      <path class="cls-1" d="M18.29,66.3h2.29v-19.62c-1.5,2.32-2.29,5.03-2.29,7.8v11.82Z"/>
      <path class="cls-1" d="M41.15,66.3h2.29v-20.7c-1.51,3.35-2.29,6.98-2.29,10.65v10.05Z"/>
      <path class="cls-1" d="M10.38,25.15c-.37,0-.71.19-.9.51l-1.46,2.43c-1.72,2.87-1.53,6.49.47,9.16l.87,1.16c.38.51,1.1.61,1.6.23.29-.22.46-.55.46-.91v-11.53c0-.58-.47-1.05-1.05-1.05Z"/>
      <path class="cls-1" d="M14.86,8.29c0,3.47.56,6.92,1.66,10.21,1.18,3.52,1.77,7.21,1.77,10.93v4.19c0,4.38-1.02,8.7-2.97,12.62-1.8,3.6-2.74,7.57-2.74,11.6v8.47h3.43v-11.82c0-4.27,1.63-8.38,4.57-11.48V0h-5.72v8.29Z"/>
      <path class="cls-1" d="M25.15,36.87v-4.19c0-4.38,1.02-8.7,2.98-12.62,1.8-3.6,2.73-7.57,2.74-11.6V0h-3.43v11.82c0,4.27-1.63,8.38-4.57,11.48v43h5.72v-8.29c0-3.47-.56-6.92-1.66-10.21-1.18-3.52-1.77-7.21-1.77-10.93Z"/>
      <path class="cls-1" d="M2.29,0H0v20.7c1.51-3.35,2.29-6.98,2.29-10.65V0Z"/>
      <path class="cls-1" d="M3.81,42.3c-1.32,0-2.56-.62-3.35-1.68l-.46-.61v10.05l3.09,6.93c.5,1.11,1.46,1.95,2.63,2.29v-15.07c0-1.05-.85-1.9-1.91-1.91Z"/>
      <path class="cls-1" d="M25.15,0h-2.29v19.62c1.5-2.32,2.29-5.03,2.29-7.8V0Z"/>
      <path class="cls-1" d="M.99,57.92l-.99-2.23v10.62h5.72v-4.69c-2.09-.38-3.86-1.76-4.72-3.7Z"/>
      <path class="cls-1" d="M8,0h-3.43v10.05c0,5.48-1.59,10.83-4.57,15.42v2.88C5.2,20.23,7.98,10.79,8,1.14V0Z"/>
      <path class="cls-1" d="M35.44,66.3h3.43v-10.05c0-5.48,1.59-10.83,4.57-15.42v-2.88c-5.2,8.12-7.98,17.56-8,27.21v1.14Z"/>
      <path class="cls-1" d="M45.73,32.01h20.58v2.29h-20.58v-2.29Z"/>
      <path class="cls-1" d="M45.73,50.3h20.58v2.29h-20.58v-2.29Z"/>
      <path class="cls-1" d="M34.07,27.89c-.38-.51-1.1-.61-1.6-.23-.29.22-.46.55-.46.91v11.53c0,.58.47,1.05,1.05,1.05.37,0,.71-.19.89-.51l1.46-2.43c1.72-2.87,1.53-6.49-.47-9.16l-.87-1.16Z"/>
      <path class="cls-1" d="M45.73,41.15h20.58v2.29h-20.58v-2.29Z"/>
      <path class="cls-1" d="M45.73,4.57h20.58v2.29h-20.58v-2.29Z"/>
      <path class="cls-1" d="M45.73,13.72h20.58v2.29h-20.58v-2.29Z"/>
      <path class="cls-1" d="M45.73,22.86h20.58v2.29h-20.58v-2.29Z"/>
      <path class="cls-1" d="M37.72,7.02v15.08c0,1.05.85,1.9,1.91,1.91,1.32,0,2.56.62,3.35,1.68l.46.61v-10.05l-3.08-6.93c-.5-1.11-1.46-1.95-2.64-2.29Z"/>
      <path class="cls-1" d="M37.72,4.69c2.09.38,3.86,1.76,4.72,3.7l.99,2.23V0h-5.72v4.69Z"/>
      <path class="cls-1" d="M39.63,26.29c-2.31,0-4.19-1.88-4.19-4.19V0h-2.29v8.47c0,4.38-1.02,8.7-2.97,12.62-1.8,3.6-2.74,7.57-2.74,11.6v4.19c0,3.47.56,6.92,1.66,10.21,1.18,3.52,1.77,7.21,1.77,10.93v8.29h2.29v-1.14c.03-11.24,3.63-22.18,10.29-31.23v-3.83l-2.29-3.05c-.36-.48-.92-.76-1.52-.76ZM37.37,39.39l-1.46,2.43c-.95,1.58-3,2.09-4.57,1.14-1-.6-1.62-1.69-1.62-2.86v-11.53c0-1.89,1.54-3.43,3.43-3.43,1.08,0,2.1.51,2.74,1.37l.87,1.16c2.56,3.42,2.8,8.05.6,11.71h0Z"/>
      <path class="cls-1" d="M45.73,59.44h20.58v2.29h-20.58v-2.29Z"/>
    </g>
  </g>
</svg>