<?xml version="1.0" encoding="UTF-8"?>
<svg id="Warstwa_2" data-name="Warstwa 2" xmlns="http://www.w3.org/2000/svg" viewBox="0 0 45.46 45.46">
  <defs>
    <style>
      .cls-1 {
        fill: #cb151c;
      }

      .cls-1, .cls-2 {
        stroke-width: 0px;
      }

      .cls-2 {
        fill: #fff;
      }

      .cls-3 {
        fill: none;
        stroke: #010101;
        stroke-miterlimit: 10;
        stroke-width: 1.6px;
      }
    </style>
  </defs>
  <g id="Warstwa_1-2" data-name="Warstwa 1">
    <g>
      <path class="cls-1" d="M26.05,45.46c-1.53,0-3.07-.59-4.24-1.75-2.34-2.34-2.34-6.13,0-8.47,3.19-3.19,3.19-8.39,0-11.58-3.19-3.19-8.39-3.19-11.58,0-2.34,2.34-6.13,2.34-8.48,0-2.34-2.34-2.34-6.13,0-8.48,7.87-7.87,20.67-7.87,28.53,0,7.87,7.87,7.87,20.67,0,28.53-1.17,1.17-2.7,1.76-4.24,1.76h0Z"/>
      <path class="cls-2" d="M30.93,40.58c-1.53,0-3.07-.59-4.24-1.75-2.34-2.34-2.34-6.13,0-8.47,3.19-3.19,3.19-8.39,0-11.58-3.19-3.19-8.39-3.19-11.58,0-2.34,2.34-6.13,2.34-8.48,0-2.34-2.34-2.34-6.13,0-8.48,7.87-7.87,20.67-7.87,28.53,0,7.87,7.87,7.87,20.67,0,28.53-1.17,1.17-2.7,1.76-4.24,1.76h0Z"/>
      <path class="cls-3" d="M34.52,36.99c-1.53,0-3.07-.59-4.24-1.75-2.34-2.34-2.34-6.13,0-8.47,3.19-3.19,3.19-8.39,0-11.58-3.19-3.19-8.39-3.19-11.58,0-2.34,2.34-6.13,2.34-8.48,0-2.34-2.34-2.34-6.13,0-8.48,7.87-7.87,20.67-7.87,28.53,0,7.87,7.87,7.87,20.66,0,28.53-1.17,1.17-2.7,1.76-4.24,1.76h0Z"/>
    </g>
  </g>
</svg>