<?xml version="1.0" encoding="UTF-8"?>
<svg id="Warstwa_2" data-name="Warstwa 2" xmlns="http://www.w3.org/2000/svg" viewBox="0 0 91.46 67.45">
  <defs>
    <style>
      .cls-1 {
        fill: #000;
        stroke-width: 0px;
      }
    </style>
  </defs>
  <g id="Warstwa_1-2" data-name="Warstwa 1">
    <g>
      <path class="cls-1" d="M89.47,67.45H1.99c-1.1,0-1.99-1.04-1.99-2.32v-9.29c0-1.28.89-2.32,1.99-2.32h87.49c1.1,0,1.99,1.04,1.99,2.32v9.29c0,1.28-.89,2.32-1.99,2.32ZM3.98,62.8h83.51v-4.65H3.98v4.65Z"/>
      <g id="_05_Popular" data-name="05 Popular">
        <path class="cls-1" d="M58.15,18.71c-.13-.17-.29-.13-.38-.1-.07.03-.23.12-.21.35.03.28.04.56.04.84.01,1.16-.45,2.29-1.27,3.11-.82.81-1.89,1.25-3.03,1.24-1.56-.02-2.86-.83-3.74-2.35-.73-1.26-.41-2.88-.07-4.6.2-1,.41-2.04.41-3.03,0-7.7-5.18-12.14-8.26-14.1-.06-.04-.12-.05-.18-.05-.09,0-.16.04-.19.06-.07.04-.17.15-.14.33,1.18,6.26-2.34,10.03-6.06,14.02-3.84,4.11-8.19,8.77-8.19,17.17,0,9.76,7.94,17.71,17.71,17.71,8.04,0,15.13-5.6,17.24-13.63,1.44-5.47-.07-12.44-3.67-16.95ZM45.02,45.51c-2.44.11-4.77-.77-6.55-2.46-1.76-1.68-2.76-4.02-2.76-6.43,0-4.52,1.73-7.84,6.37-12.24.08-.07.15-.09.22-.09.06,0,.11.02.15.04.08.04.2.13.19.33-.17,1.93-.16,3.54,0,4.77.44,3.15,2.74,5.26,5.73,5.26,1.47,0,2.86-.55,3.93-1.55.12-.12.26-.1.32-.09.07.02.16.06.21.18.44,1.07.67,2.21.67,3.38.01,4.71-3.8,8.71-8.5,8.92h0Z"/>
      </g>
    </g>
  </g>
</svg>