<?xml version="1.0" encoding="UTF-8"?>
<svg id="Warstwa_2" data-name="Warstwa 2" xmlns="http://www.w3.org/2000/svg" viewBox="0 0 41.1 29.36">
  <defs>
    <style>
      .cls-1 {
        fill-rule: evenodd;
      }

      .cls-1, .cls-2 {
        fill: #fff;
        stroke-width: 0px;
      }
    </style>
  </defs>
  <g id="Warstwa_1-2" data-name="Warstwa 1">
    <g id="Page-1">
      <g id="_097---Cut-Wood-Pile" data-name="097---Cut-Wood-Pile">
        <path id="Path" class="cls-1" d="M5.38,19.08h3.02c2.06-1.13,3.93-2.58,5.55-4.28v-2.99c-2.13,3.17-5.09,5.68-8.57,7.27h0Z"/>
        <path id="Path-2" data-name="Path" class="cls-1" d="M13.94,19.08v-2.2c-.87.8-1.81,1.54-2.79,2.2h2.79Z"/>
        <path id="Path-3" data-name="Path" class="cls-1" d="M5.14,0v1.99c.91-.56,1.76-1.23,2.51-1.99h-2.51Z"/>
        <path id="Path-4" data-name="Path" class="cls-1" d="M12.09,0h-2.5c-1.22,1.52-2.73,2.77-4.45,3.69v1.84c2.78-1.17,5.19-3.08,6.96-5.53Z"/>
        <path id="Path-5" data-name="Path" class="cls-1" d="M16.09,0h-2.28c-1.73,2.99-4.77,5.5-8.67,7.13v1.41C10.16,6.74,14.07,3.69,16.09,0Z"/>
        <path id="Shape" class="cls-2" d="M16.88,10.28h-1.47v8.81h23.49v-8.07c0-.41-.33-.73-.73-.73h-21.28ZM18.35,13.21c0-.41.33-.73.73-.73h13.21c.41,0,.73.33.73.73s-.33.73-.73.73h-13.21c-.41,0-.73-.33-.73-.73ZM36.7,16.15c0,.41-.33.73-.73.73h-13.21c-.41,0-.73-.33-.73-.73s.33-.73.73-.73h13.21c.41,0,.73.33.73.73Z"/>
        <path id="Shape-2" data-name="Shape" class="cls-2" d="M35.23,0h-16.88v8.81h17.61V.73c0-.41-.33-.73-.73-.73ZM19.82,2.94c0-.41.33-.73.73-.73h9.54c.41,0,.73.33.73.73s-.33.73-.73.73h-9.54c-.41,0-.73-.33-.73-.73ZM33.76,6.61h-9.54c-.41,0-.73-.33-.73-.73s.33-.73.73-.73h9.54c.41,0,.73.33.73.73s-.33.73-.73.73Z"/>
        <g>
          <path id="Path-6" data-name="Path" class="cls-1" d="M8.31,8.81h3.02c2.06-1.13,3.93-2.58,5.55-4.28V1.54c-2.13,3.17-5.09,5.68-8.57,7.27Z"/>
          <path id="Path-7" data-name="Path" class="cls-1" d="M16.88,8.81v-2.2c-.87.8-1.81,1.54-2.79,2.2h2.79Z"/>
          <path id="Path-8" data-name="Path" class="cls-1" d="M2.2,10.28v1.99c.91-.56,1.76-1.23,2.51-1.99h-2.51Z"/>
          <path id="Path-9" data-name="Path" class="cls-1" d="M11.74,22.09c-2.13,3.17-5.09,5.68-8.57,7.27h3.02c2.06-1.13,3.93-2.58,5.55-4.28v-2.99Z"/>
          <path id="Path-10" data-name="Path" class="cls-1" d="M10.95,20.55h-2.28c-1.73,2.99-4.77,5.5-8.67,7.13v1.41c5.02-1.8,8.93-4.85,10.95-8.54Z"/>
          <path id="Path-11" data-name="Path" class="cls-1" d="M8.95,29.36h2.79v-2.2c-.87.8-1.81,1.54-2.79,2.2Z"/>
          <path id="Path-12" data-name="Path" class="cls-1" d="M9.16,10.28h-2.5c-1.22,1.52-2.73,2.77-4.45,3.69v1.84c2.78-1.17,5.19-3.08,6.96-5.53h0Z"/>
        </g>
        <path id="Shape-3" data-name="Shape" class="cls-2" d="M38.9,20.55H13.21v8.81h27.16c.41,0,.73-.33.73-.73v-7.34c0-.41-.33-.73-.73-.73h-1.47,0ZM16.15,23.49c0-.41.33-.73.73-.73h17.61c.41,0,.73.33.73.73s-.33.73-.73.73h-17.61c-.41,0-.73-.33-.73-.73h0ZM38.16,27.16h-17.61c-.41,0-.73-.33-.73-.73s.33-.73.73-.73h17.61c.41,0,.73.33.73.73,0,.41-.33.73-.73.73Z"/>
        <path id="Path-13" data-name="Path" class="cls-1" d="M13.16,10.28h-2.28c-1.73,2.99-4.77,5.5-8.67,7.13v1.41c5.02-1.8,8.93-4.85,10.95-8.54h0Z"/>
        <path id="Path-14" data-name="Path" class="cls-1" d="M6.96,20.55h-2.5c-1.22,1.52-2.73,2.77-4.45,3.69v1.84c2.78-1.17,5.19-3.08,6.96-5.53Z"/>
        <path id="Path-15" data-name="Path" class="cls-1" d="M2.2,20.55H0v1.99c.91-.56,1.76-1.23,2.51-1.99h-.31Z"/>
      </g>
    </g>
  </g>
</svg>