<?xml version="1.0" encoding="UTF-8" standalone="no"?>
<svg
   id="Warstwa_1"
   viewBox="0 0 49.74 36.48"
   version="1.1"
   xmlns="http://www.w3.org/2000/svg"
   xmlns:svg="http://www.w3.org/2000/svg">
  <defs
     id="defs2070">
    <style
       id="style2068">.cls-1{fill:#000;}.cls-1,.cls-2{stroke-width:0px;}.cls-2{fill:#fff;}</style>
  </defs>
  <path
     class="cls-1"
     d="M34.26,2.77v13.26c0,1.53-1.24,2.76-2.76,2.76H9.39c-1.52,0-2.76-1.23-2.76-2.76V2.77C6.63,1.24,7.87,0,9.39,0c.31,0,.55.25.55.56s-.24.55-.55.55c-.91,0-1.65.74-1.66,1.66v13.26c.01.92.75,1.66,1.66,1.66h22.11c.91,0,1.65-.74,1.66-1.66V2.77c0-.92-.75-1.66-1.66-1.66h-6.08v6.63c.01.98-.63,1.84-1.57,2.12-.22.06-.44.09-.67.09-.73,0-1.41-.37-1.81-.98-.07-.11-.16-.2-.26-.27-.51-.36-1.22-.25-1.58.26-.41.62-1.11.99-1.85.99-1.22,0-2.21-.99-2.21-2.21V1.11h-3.87c-.3,0-.55-.25-.55-.55s.25-.56.55-.56h19.9c1.52,0,2.76,1.24,2.76,2.77ZM24.31,7.74V1.11h-7.73v6.63c0,.37.18.71.49.92.51.34,1.19.2,1.53-.31.14-.18.3-.35.49-.48,1.01-.75,2.44-.54,3.19.48.21.31.56.5.93.5.61,0,1.1-.5,1.1-1.11Z"
     id="path2072" />
  <path
     class="cls-2"
     d="M33.16,2.77v13.26c0,.92-.75,1.66-1.66,1.66H9.39c-.91,0-1.65-.74-1.66-1.66V2.77c.01-.92.75-1.66,1.66-1.66.31,0,.55-.25.55-.55h1.11c0,.3.25.55.55.55h3.87v6.63c0,1.22.99,2.21,2.21,2.21.74,0,1.44-.37,1.85-.99.36-.51,1.07-.62,1.58-.26.1.07.19.16.26.27.4.61,1.08.98,1.81.98.23,0,.45-.03.67-.09.94-.28,1.58-1.14,1.57-2.12V1.11h6.08c.91,0,1.65.74,1.66,1.66Z"
     id="path2074" />
  <path
     class="cls-2"
     d="M24.31,1.11v6.63c0,.61-.49,1.11-1.1,1.11-.37,0-.72-.19-.93-.5-.75-1.02-2.18-1.23-3.19-.48-.19.13-.35.3-.49.48-.34.51-1.02.65-1.53.31-.31-.21-.49-.55-.49-.92V1.11h7.73Z"
     id="path2076" />
  <path
     class="cls-1"
     d="M7.18,27.64c.31,0,.55-.25.55-.55v-1.66h25.42v1.66c0,.31.25.55.55.55s.55-.25.55-.55v-4.42c0-.31-.25-.55-.55-.55s-.55.25-.55.55v1.66H7.73v-1.66c0-.31-.25-.55-.55-.55s-.55.25-.55.55v4.42c0,.31.25.55.55.55Z"
     id="path2078" />
  <path
     class="cls-1"
     d="M38.13,17.69c-.31,0-.55.25-.55.55s.25.55.55.55h4.42c.31,0,.55-.25.55-.55s-.25-.55-.55-.55h-1.66V1.11h1.66c.31,0,.55-.25.55-.55s-.25-.55-.55-.55h-4.42c-.31,0-.55.25-.55.55s.25.55.55.55h1.66v16.58h-1.66Z"
     id="path2080" />
  <path
     class="cls-1"
     d="M46.97,30.95c1.53,0,2.77,1.24,2.77,2.77s-1.24,2.76-2.77,2.76h-6.63c-.31,0-.55-.25-.55-.55s.24-.56.55-.56h6.63c.92,0,1.66-.74,1.66-1.65s-.74-1.66-1.66-1.66h-3.87v1.66c0,.3-.24.55-.55.55s-.55-.25-.55-.55v-1.66h-7.74v3.31h3.87c.3,0,.55.25.55.56s-.25.55-.55.55H2.76c-1.53,0-2.76-1.24-2.76-2.76s1.23-2.77,2.76-2.77h6.63c.31,0,.55.25.55.56s-.24.55-.55.55h-1.66v1.66c0,.3-.24.55-.55.55s-.55-.25-.55-.55v-1.66h-3.87c-.92,0-1.66.74-1.66,1.66s.74,1.65,1.66,1.65h12.71v-3.31h-3.87c-.3,0-.55-.25-.55-.55s.25-.56.55-.56h35.37ZM33.16,35.37v-3.31h-7.74v1.66c0,.3-.25.55-.55.55s-.56-.25-.56-.55v-1.66h-7.73v3.31h16.58Z"
     id="path2082" />
  <path
     class="cls-2"
     d="M46.97,32.06c.92,0,1.66.74,1.66,1.66s-.74,1.65-1.66,1.65h-4.42v-1.1c.31,0,.55-.25.55-.55v-1.66h3.87Z"
     id="path2084" />
  <path
     class="cls-2"
     d="M42.55,34.27v1.1h-2.21c-.31,0-.55.25-.55.56h-1.11c0-.31-.25-.56-.55-.56h-3.87v-3.31h7.74v1.66c0,.3.25.55.55.55Z"
     id="path2086" />
  <path
     class="cls-2"
     d="M33.16,32.06v3.31h-8.29v-1.1c.3,0,.55-.25.55-.55v-1.66h7.74Z"
     id="path2088" />
  <path
     class="cls-2"
     d="M24.87,34.27v1.1h-8.29v-3.31h7.73v1.66c0,.3.25.55.56.55Z"
     id="path2090" />
  <path
     class="cls-2"
     d="M15.47,32.06v3.31H7.18v-1.1c.31,0,.55-.25.55-.55v-1.66h1.66c.31,0,.55-.25.55-.55h1.11c0,.3.25.55.55.55h3.87Z"
     id="path2092" />
  <path
     class="cls-2"
     d="M7.18,34.27v1.1H2.76c-.92,0-1.66-.74-1.66-1.65s.74-1.66,1.66-1.66h3.87v1.66c0,.3.25.55.55.55Z"
     id="path2094" />
  <path
     class="cls-1"
     d="M13.81,8.85h-4.42c-.31,0-.55.25-.55.55s.25.55.55.55h4.42c.31,0,.55-.25.55-.55s-.25-.55-.55-.55Z"
     id="path2096" />
  <path
     class="cls-1"
     d="M8.84,13.82c0,.31.25.55.55.55h8.84c.31,0,.55-.25.55-.55s-.25-.55-.55-.55h-8.84c-.31,0-.55.25-.55.55Z"
     id="path2098" />
</svg>
