<?xml version="1.0" encoding="UTF-8"?>
<svg id="Warstwa_2" data-name="Warstwa 2" xmlns="http://www.w3.org/2000/svg" viewBox="0 0 49.38 70.29">
  <defs>
    <style>
      .cls-1 {
        fill: #000;
      }

      .cls-1, .cls-2 {
        stroke-width: 0px;
      }

      .cls-2 {
        fill: #fff;
      }
    </style>
  </defs>
  <g id="Warstwa_1-2" data-name="Warstwa 1">
    <g>
      <g>
        <path class="cls-1" d="M4.53,58.95H.99c-.55,0-.99-.44-.99-.99V.99C0,.44.44,0,.99,0h39.82v4.53L4.53,58.95Z"/>
        <path class="cls-1" d="M36.43,0v4.53l1.36,4.53,3.02-4.53V.99c0-.55-.44-.99-.99-.99h-3.39Z"/>
        <path class="cls-2" d="M13.69,62.96c-2.72.18-5.44.35-8.16.53-.55,0-.99-.44-.99-.99V5.53c0-.55.44-.99.99-.99h35.44c.72.01,1.45.02,2.17.04.08,2.8.16,5.59.24,8.38-9.9,16.67-19.79,33.33-29.69,50Z"/>
        <path class="cls-1" d="M46.32,8.93c-11.44.05-22.89.09-34.33.14-1.61,0-2.92,1.31-2.92,2.92v58.29c13.44,0,26.88,0,40.31,0-.04-19.47-.08-38.94-.12-58.41,0-.21-.04-1.22-.84-2.04-.84-.87-1.9-.9-2.1-.9Z"/>
      </g>
      <g>
        <g>
          <path class="cls-2" d="M13.6,14.7c-.62,0-1.09-.51-1.09-1.09s.47-1.09,1.1-1.09,1.09.5,1.09,1.09-.48,1.09-1.09,1.09h0Z"/>
          <path class="cls-2" d="M18.14,14.7c-.61,0-1.09-.5-1.09-1.09s.48-1.09,1.09-1.09,1.1.51,1.1,1.09-.45,1.09-1.1,1.09Z"/>
          <path class="cls-2" d="M22.67,14.7c-.61,0-1.09-.5-1.09-1.09s.49-1.09,1.09-1.09,1.1.51,1.1,1.09-.48,1.09-1.09,1.09h0Z"/>
          <path class="cls-2" d="M27.21,14.7c-.61,0-1.09-.5-1.09-1.09s.49-1.09,1.09-1.09,1.1.49,1.1,1.09c0,.62-.5,1.09-1.09,1.09h0Z"/>
          <path class="cls-2" d="M31.74,14.7c-.62,0-1.09-.51-1.09-1.09s.47-1.09,1.09-1.09,1.1.48,1.1,1.09c0,.61-.5,1.09-1.09,1.09Z"/>
          <path class="cls-2" d="M36.27,14.7c-.61,0-1.09-.5-1.09-1.09s.49-1.09,1.1-1.09,1.09.49,1.09,1.09c0,.63-.51,1.09-1.09,1.09Z"/>
          <path class="cls-2" d="M40.81,14.7c-.59,0-1.09-.48-1.09-1.09s.49-1.09,1.09-1.09,1.1.51,1.1,1.09-.49,1.09-1.09,1.09Z"/>
          <path class="cls-2" d="M45.34,14.7c-.52,0-.98-.38-1.07-.88-.14-.66.37-1.31,1.07-1.31.61,0,1.1.5,1.1,1.09,0,.59-.48,1.09-1.09,1.09h0Z"/>
        </g>
        <g>
          <path class="cls-2" d="M15.87,19.23c-.59,0-1.09-.48-1.09-1.09,0-.56.45-1.09,1.1-1.09.6,0,1.09.49,1.09,1.09,0,.63-.51,1.09-1.09,1.09Z"/>
          <path class="cls-2" d="M20.41,19.23c-.58,0-1.09-.47-1.09-1.09s.48-1.09,1.1-1.09,1.09.51,1.09,1.09c0,.63-.51,1.09-1.09,1.09h0Z"/>
          <path class="cls-2" d="M24.94,19.23c-.7,0-1.21-.65-1.07-1.31.09-.5.55-.88,1.07-.88.58,0,1.1.47,1.1,1.09,0,.6-.49,1.09-1.09,1.09h0Z"/>
          <path class="cls-2" d="M29.47,19.23c-.61,0-1.09-.5-1.09-1.09s.5-1.09,1.09-1.09,1.09.49,1.09,1.09c0,.6-.49,1.09-1.09,1.09Z"/>
          <path class="cls-2" d="M34.01,19.23c-.61,0-1.09-.5-1.09-1.09s.48-1.09,1.09-1.09,1.1.49,1.1,1.09-.51,1.09-1.09,1.09Z"/>
          <path class="cls-2" d="M38.54,19.23c-.58,0-1.09-.46-1.09-1.09,0-.6.48-1.09,1.09-1.09s1.1.49,1.1,1.09-.51,1.09-1.09,1.09Z"/>
          <path class="cls-2" d="M43.08,19.23c-.59,0-1.09-.47-1.09-1.09s.5-1.09,1.1-1.09,1.09.49,1.09,1.09c0,.6-.49,1.09-1.09,1.09Z"/>
        </g>
        <g>
          <circle class="cls-2" cx="13.6" cy="22.67" r="1.09"/>
          <path class="cls-2" d="M18.14,23.77c-.61,0-1.1-.49-1.1-1.09,0-.53.42-1.09,1.1-1.09.6,0,1.09.49,1.09,1.09,0,.6-.49,1.09-1.09,1.09Z"/>
          <path class="cls-2" d="M22.67,23.77c-.61,0-1.09-.49-1.09-1.09,0-.68.57-1.09,1.09-1.09.58,0,1.1.47,1.1,1.09s-.49,1.09-1.09,1.09Z"/>
          <path class="cls-2" d="M27.21,23.77c-.6,0-1.09-.49-1.09-1.09s.51-1.09,1.09-1.09,1.1.49,1.1,1.09c0,.61-.5,1.09-1.09,1.09h0Z"/>
          <path class="cls-2" d="M31.74,23.77c-.6,0-1.09-.49-1.09-1.09s.51-1.09,1.1-1.09c.56,0,1.09.44,1.09,1.09,0,.61-.49,1.09-1.09,1.09Z"/>
          <path class="cls-2" d="M36.27,23.77c-.6,0-1.09-.48-1.09-1.09s.51-1.09,1.1-1.09,1.09.45,1.09,1.09c0,.6-.49,1.09-1.09,1.09Z"/>
          <path class="cls-2" d="M40.81,23.77c-.62,0-1.09-.51-1.09-1.09s.48-1.09,1.09-1.09,1.1.51,1.1,1.09-.49,1.09-1.09,1.09Z"/>
          <path class="cls-2" d="M45.34,23.77c-.61,0-1.09-.49-1.09-1.09s.51-1.09,1.09-1.09,1.1.5,1.1,1.09c0,.61-.5,1.09-1.09,1.09Z"/>
        </g>
        <g>
          <path class="cls-2" d="M15.87,28.3c-.59,0-1.09-.48-1.09-1.1s.51-1.09,1.09-1.09c.61,0,1.1.49,1.1,1.09s-.49,1.1-1.09,1.1Z"/>
          <path class="cls-2" d="M20.41,28.3c-.6,0-1.09-.48-1.09-1.1s.5-1.09,1.09-1.09c.53,0,1.1.41,1.1,1.09,0,.59-.48,1.1-1.09,1.1Z"/>
          <path class="cls-2" d="M24.94,28.3c-.6,0-1.09-.49-1.09-1.1s.49-1.09,1.09-1.09c.53,0,1.1.41,1.1,1.09,0,.55-.43,1.1-1.09,1.1Z"/>
          <path class="cls-2" d="M29.47,28.3c-.58,0-1.09-.47-1.09-1.1s.5-1.09,1.09-1.09c.53,0,1.1.41,1.1,1.09,0,.61-.5,1.1-1.09,1.1Z"/>
          <path class="cls-2" d="M34.01,28.3c-.61,0-1.09-.5-1.09-1.1s.46-1.09,1.09-1.09c.6,0,1.09.49,1.09,1.09,0,.6-.49,1.1-1.09,1.1Z"/>
          <path class="cls-2" d="M38.54,28.3c-.62,0-1.09-.51-1.09-1.1s.49-1.09,1.09-1.09c.67,0,1.21.61,1.07,1.31-.11.53-.57.88-1.07.88Z"/>
          <path class="cls-2" d="M43.08,28.3c-.59,0-1.09-.48-1.09-1.1s.5-1.09,1.09-1.09c.53,0,1.1.41,1.1,1.09,0,.55-.43,1.1-1.09,1.1Z"/>
        </g>
        <g>
          <path class="cls-2" d="M13.6,32.84c-.54,0-1.09-.43-1.09-1.09,0-.61.49-1.09,1.1-1.09s1.09.47,1.09,1.09c0,.66-.54,1.09-1.09,1.09Z"/>
          <path class="cls-2" d="M18.14,32.84c-.6,0-1.09-.49-1.09-1.09s.5-1.09,1.1-1.09,1.09.48,1.09,1.09c0,.65-.54,1.09-1.09,1.09h0Z"/>
          <path class="cls-2" d="M22.67,32.84c-.56,0-1.09-.44-1.09-1.09s.5-1.09,1.09-1.09,1.1.49,1.1,1.09-.51,1.09-1.09,1.09Z"/>
          <path class="cls-2" d="M27.21,32.84c-.61,0-1.09-.5-1.09-1.09s.48-1.09,1.1-1.09,1.09.48,1.09,1.09c0,.61-.5,1.09-1.09,1.09h0Z"/>
          <path class="cls-2" d="M31.74,32.84c-.6,0-1.09-.49-1.09-1.09,0-.56.44-1.09,1.1-1.09.6,0,1.09.49,1.09,1.09,0,.66-.55,1.09-1.09,1.09Z"/>
          <circle class="cls-2" cx="36.27" cy="31.74" r="1.09"/>
          <path class="cls-2" d="M40.81,32.84c-.55,0-1.09-.43-1.09-1.09,0-.61.49-1.09,1.09-1.09.57,0,1.1.45,1.1,1.09,0,.61-.5,1.09-1.09,1.09Z"/>
          <path class="cls-2" d="M45.34,32.84c-.56,0-1.09-.44-1.09-1.09,0-.6.49-1.09,1.09-1.09.68,0,1.1.57,1.1,1.09,0,.29-.12.57-.32.77-.2.2-.49.32-.77.32h0Z"/>
        </g>
        <g>
          <path class="cls-2" d="M15.87,37.37c-.57,0-1.09-.46-1.09-1.09,0-.6.49-1.09,1.1-1.09s1.09.49,1.09,1.09-.49,1.09-1.09,1.09h0Z"/>
          <path class="cls-2" d="M20.41,37.37c-.58,0-1.09-.46-1.09-1.09s.49-1.09,1.09-1.09,1.1.5,1.1,1.09c0,.63-.52,1.09-1.09,1.09Z"/>
          <path class="cls-2" d="M24.94,37.37c-.57,0-1.09-.46-1.09-1.09s.49-1.09,1.09-1.09,1.1.51,1.1,1.09c0,.6-.49,1.09-1.09,1.09Z"/>
          <path class="cls-2" d="M29.47,37.37c-.6,0-1.09-.49-1.09-1.09s.49-1.09,1.1-1.09,1.09.49,1.09,1.09c0,.59-.48,1.09-1.09,1.09Z"/>
          <path class="cls-2" d="M34.01,37.37c-.61,0-1.09-.49-1.09-1.09s.48-1.09,1.1-1.09,1.09.5,1.09,1.09-.49,1.09-1.09,1.09Z"/>
          <path class="cls-2" d="M38.54,37.37c-.57,0-1.09-.46-1.09-1.09,0-.59.48-1.09,1.1-1.09s1.09.49,1.09,1.09c0,.63-.52,1.09-1.09,1.09h0Z"/>
          <path class="cls-2" d="M43.08,37.37c-.07,0-.14,0-.21-.02-.49-.09-.88-.54-.88-1.07,0-.61.5-1.09,1.09-1.09.62,0,1.1.51,1.1,1.09,0,.63-.52,1.09-1.09,1.09Z"/>
        </g>
        <g>
          <path class="cls-2" d="M13.6,41.9c-.61,0-1.09-.5-1.09-1.09s.51-1.09,1.1-1.09,1.09.48,1.09,1.09c0,.61-.5,1.09-1.09,1.09Z"/>
          <path class="cls-2" d="M18.14,41.9c-.59,0-1.09-.48-1.09-1.09s.49-1.09,1.09-1.09,1.1.48,1.1,1.09c0,.59-.48,1.09-1.09,1.09h0Z"/>
          <path class="cls-2" d="M22.67,41.9c-.6,0-1.09-.49-1.09-1.09s.5-1.09,1.09-1.09,1.1.51,1.1,1.09-.49,1.09-1.09,1.09h0Z"/>
          <circle class="cls-2" cx="27.21" cy="40.81" r="1.09"/>
          <path class="cls-2" d="M31.74,41.9c-.66,0-1.09-.54-1.09-1.09,0-.6.49-1.09,1.09-1.09s1.1.48,1.1,1.09-.48,1.09-1.09,1.09h0Z"/>
          <path class="cls-2" d="M36.27,41.9c-.59,0-1.09-.48-1.09-1.09s.48-1.09,1.1-1.09,1.09.49,1.09,1.09c0,.61-.49,1.09-1.09,1.09Z"/>
          <path class="cls-2" d="M40.81,41.9c-.6,0-1.09-.48-1.09-1.09s.47-1.09,1.1-1.09,1.09.51,1.09,1.09-.48,1.09-1.09,1.09Z"/>
          <path class="cls-2" d="M45.34,41.9c-.61,0-1.09-.5-1.09-1.09,0-.63.52-1.09,1.09-1.09s1.1.47,1.1,1.09c0,.59-.48,1.09-1.09,1.09Z"/>
        </g>
        <g>
          <path class="cls-2" d="M15.87,46.44c-.6,0-1.09-.49-1.09-1.09s.49-1.09,1.1-1.09,1.09.5,1.09,1.09-.48,1.09-1.09,1.09h0Z"/>
          <path class="cls-2" d="M20.41,46.44c-.61,0-1.09-.5-1.09-1.09s.51-1.09,1.09-1.09c.63,0,1.1.51,1.1,1.09s-.48,1.09-1.09,1.09Z"/>
          <path class="cls-2" d="M24.94,46.44c-.68,0-1.09-.57-1.09-1.09,0-.6.49-1.09,1.1-1.09s1.09.51,1.09,1.09c0,.61-.5,1.09-1.09,1.09Z"/>
          <path class="cls-2" d="M29.47,46.44c-.61,0-1.09-.49-1.09-1.09s.49-1.09,1.1-1.09,1.09.49,1.09,1.09c0,.61-.49,1.09-1.09,1.09Z"/>
          <path class="cls-2" d="M34.01,46.44c-.59,0-1.09-.47-1.09-1.09s.5-1.09,1.09-1.09,1.1.49,1.1,1.09c0,.6-.49,1.09-1.09,1.09h0Z"/>
          <path class="cls-2" d="M38.54,46.44c-.6,0-1.09-.49-1.09-1.09s.48-1.09,1.1-1.09,1.09.51,1.09,1.09c0,.29-.12.57-.32.78-.22.21-.48.32-.78.32Z"/>
          <path class="cls-2" d="M43.08,46.44c-.63,0-1.09-.52-1.09-1.09s.49-1.09,1.09-1.09,1.1.49,1.1,1.09c0,.61-.49,1.09-1.09,1.09Z"/>
        </g>
        <g>
          <path class="cls-2" d="M13.6,50.97c-.59,0-1.09-.48-1.09-1.09s.49-1.1,1.1-1.1,1.09.49,1.09,1.1c0,.6-.48,1.09-1.09,1.09Z"/>
          <path class="cls-2" d="M18.14,50.97c-.58,0-1.09-.47-1.09-1.09s.49-1.1,1.09-1.1,1.09.49,1.09,1.1-.49,1.09-1.09,1.09h0Z"/>
          <path class="cls-2" d="M21.6,50.09c-.13-.7.4-1.31,1.07-1.31.6,0,1.1.49,1.1,1.1,0,.21-.09.76-.68,1.01-.64.26-1.35-.11-1.49-.8h0Z"/>
          <path class="cls-2" d="M27.21,50.97c-.6,0-1.09-.49-1.09-1.09s.5-1.1,1.09-1.1,1.09.5,1.09,1.1-.51,1.09-1.09,1.09Z"/>
          <path class="cls-2" d="M31.74,50.97c-.58,0-1.09-.47-1.09-1.09,0-.58.47-1.1,1.1-1.1s1.09.5,1.09,1.1c0,.56-.45,1.09-1.09,1.09Z"/>
          <path class="cls-2" d="M36.27,50.97c-.61,0-1.09-.5-1.09-1.09s.49-1.1,1.1-1.1,1.09.49,1.09,1.1c0,.61-.49,1.09-1.09,1.09Z"/>
          <path class="cls-2" d="M40.81,50.97c-.58,0-1.09-.47-1.09-1.09s.49-1.1,1.09-1.1,1.1.52,1.1,1.1c0,.62-.51,1.09-1.09,1.09Z"/>
          <path class="cls-2" d="M45.34,50.97c-.56,0-1.09-.45-1.09-1.09,0-.61.49-1.1,1.09-1.1s1.1.49,1.1,1.1c0,.62-.51,1.09-1.09,1.09Z"/>
        </g>
        <g>
          <path class="cls-2" d="M15.87,55.51c-.61,0-1.09-.5-1.09-1.09s.47-1.09,1.1-1.09,1.09.5,1.09,1.09-.5,1.09-1.09,1.09Z"/>
          <path class="cls-2" d="M20.41,55.51c-.58,0-1.09-.46-1.09-1.09s.49-1.09,1.09-1.09c.65,0,1.1.54,1.1,1.09,0,.61-.5,1.09-1.09,1.09h0Z"/>
          <path class="cls-2" d="M24.94,55.51c-.59,0-1.09-.48-1.09-1.09s.49-1.09,1.09-1.09,1.1.5,1.1,1.09c0,.62-.51,1.09-1.09,1.09Z"/>
          <path class="cls-2" d="M29.47,55.51c-.6,0-1.09-.49-1.09-1.09s.49-1.09,1.09-1.09,1.1.49,1.1,1.09-.5,1.09-1.09,1.09h0Z"/>
          <path class="cls-2" d="M34.01,55.51c-.61,0-1.09-.5-1.09-1.09s.47-1.09,1.1-1.09,1.09.5,1.09,1.09c0,.66-.54,1.09-1.09,1.09Z"/>
          <path class="cls-2" d="M38.54,55.51c-.6,0-1.09-.49-1.09-1.09s.49-1.09,1.1-1.09,1.09.49,1.09,1.09c0,.61-.5,1.09-1.09,1.09Z"/>
          <path class="cls-2" d="M43.08,55.51c-.58,0-1.09-.47-1.09-1.09s.49-1.09,1.09-1.09,1.1.51,1.1,1.09-.5,1.09-1.09,1.09h0Z"/>
        </g>
        <g>
          <path class="cls-2" d="M15.87,64.58c-.6,0-1.09-.49-1.09-1.09s.48-1.09,1.1-1.09,1.09.49,1.09,1.09-.49,1.09-1.09,1.09h0Z"/>
          <path class="cls-2" d="M20.41,64.58c-.6,0-1.09-.49-1.09-1.09s.51-1.09,1.09-1.09c.63,0,1.1.51,1.1,1.09s-.47,1.09-1.09,1.09Z"/>
          <circle class="cls-2" cx="24.94" cy="63.48" r="1.09"/>
          <path class="cls-2" d="M29.47,64.58c-.71,0-1.21-.66-1.07-1.31.09-.5.55-.88,1.07-.88.61,0,1.09.49,1.09,1.09s-.49,1.09-1.09,1.09Z"/>
          <path class="cls-2" d="M34.01,64.58c-.59,0-1.09-.48-1.09-1.09s.49-1.09,1.1-1.09,1.09.49,1.09,1.09-.49,1.09-1.09,1.09Z"/>
          <path class="cls-2" d="M38.54,64.58c-.6,0-1.09-.48-1.09-1.09s.49-1.09,1.09-1.09,1.1.51,1.1,1.09c0,.61-.49,1.09-1.1,1.09Z"/>
          <circle class="cls-2" cx="43.08" cy="63.48" r="1.09"/>
        </g>
        <g>
          <path class="cls-2" d="M13.6,60.04c-.61,0-1.09-.5-1.09-1.09s.5-1.09,1.1-1.09,1.09.45,1.09,1.09c0,.61-.5,1.09-1.09,1.09Z"/>
          <path class="cls-2" d="M18.14,60.04c-.68,0-1.21-.61-1.07-1.31.11-.53.56-.88,1.07-.88.58,0,1.09.47,1.09,1.09,0,.6-.49,1.09-1.09,1.09h0Z"/>
          <path class="cls-2" d="M22.67,60.04c-.51,0-.96-.34-1.07-.88-.13-.73.42-1.31,1.07-1.31.58,0,1.1.47,1.1,1.09s-.48,1.09-1.09,1.09h0Z"/>
          <path class="cls-2" d="M27.21,60.04c-.6,0-1.09-.49-1.09-1.09s.51-1.09,1.09-1.09,1.1.48,1.1,1.09c0,.59-.48,1.09-1.09,1.09h0Z"/>
          <path class="cls-2" d="M31.74,60.04c-.62,0-1.09-.51-1.09-1.09,0-.62.51-1.09,1.1-1.09s1.09.48,1.09,1.09c0,.62-.5,1.09-1.09,1.09Z"/>
          <path class="cls-2" d="M36.27,60.04c-.61,0-1.09-.5-1.09-1.09s.48-1.09,1.1-1.09,1.09.47,1.09,1.09c0,.6-.48,1.09-1.09,1.09Z"/>
          <path class="cls-2" d="M40.81,60.04c-.61,0-1.09-.5-1.09-1.09s.5-1.09,1.09-1.09,1.1.47,1.1,1.09c0,.57-.46,1.09-1.09,1.09Z"/>
          <path class="cls-2" d="M45.34,60.04c-.6,0-1.09-.48-1.09-1.09s.5-1.09,1.09-1.09,1.1.5,1.1,1.09c0,.59-.48,1.09-1.09,1.09Z"/>
        </g>
      </g>
    </g>
  </g>
</svg>