<?xml version="1.0" encoding="UTF-8" standalone="no"?>
<svg
   id="Warstwa_1"
   viewBox="0 0 49.71 40.87"
   version="1.1"
   xmlns="http://www.w3.org/2000/svg"
   xmlns:svg="http://www.w3.org/2000/svg">
  <defs
     id="defs1596">
    <style
       id="style1594">.cls-1{fill:none;stroke:#000;stroke-linecap:round;stroke-linejoin:round;stroke-width:.4px;}.cls-2{fill:#000;}.cls-2,.cls-3{stroke-width:0px;}.cls-3{fill:#fff;}</style>
  </defs>
  <path
     class="cls-2"
     d="M8.84,35.9c0,1.52,1.24,2.76,2.76,2.76s2.76-1.24,2.76-2.76-1.24-2.76-2.76-2.76c-1.52,0-2.76,1.24-2.76,2.76ZM9.94,35.9c0-.91.74-1.66,1.66-1.66s1.66.74,1.66,1.66-.74,1.66-1.66,1.66c-.91,0-1.66-.74-1.66-1.66Z"
     id="path1598" />
  <path
     class="cls-2"
     d="M40.87,35.9c0-1.52-1.24-2.76-2.76-2.76s-2.76,1.24-2.76,2.76c0,1.52,1.24,2.76,2.76,2.76,1.52,0,2.76-1.24,2.76-2.76ZM39.77,35.9c0,.91-.74,1.66-1.66,1.66s-1.66-.74-1.66-1.66.74-1.66,1.66-1.66c.91,0,1.66.74,1.66,1.66Z"
     id="path1600" />
  <path
     class="cls-2"
     d="M49.71,33.69v.35c-.02,1.35-.99,2.5-2.32,2.74-1.58.26-3.11.49-4.59.68-.84,2.59-3.62,4.01-6.21,3.17-1.18-.38-2.17-1.2-2.78-2.28-2.94.2-5.87.31-8.95.31-.31,0-.56-.25-.56-.55s.25-.55.56-.55c2.92,0,5.7-.11,8.49-.29-.59-1.93.08-4.01,1.67-5.24H14.69c1.6,1.23,2.27,3.32,1.66,5.25,2.09.13,4.2.23,6.3.26.31,0,.56.25.55.56,0,.3-.25.55-.55.54h-.01c-2.26-.03-4.52-.13-6.75-.27-1.34,2.37-4.35,3.2-6.72,1.86-1.07-.6-1.87-1.58-2.26-2.75-1.6-.23-3.17-.46-4.64-.71-1.32-.24-2.27-1.39-2.27-2.73v-.35c.01-1.52,1.24-2.76,2.77-2.76h1.65v-6.07c0-.31.25-.56.55-.56s.56.25.56.56v6.07h14.32c-.21-3.3-.27-6.62-.19-9.94H7.18c-.91,0-1.65.74-1.65,1.66,0,.3-.25.55-.56.55s-.55-.25-.55-.55c.01-1.39,1.06-2.55,2.44-2.7l5.85-7.8h-3.32c-1.52,0-2.76-1.23-2.76-2.76s1.24-2.76,2.76-2.76h11.6c.14-.85.24-1.72.39-2.56.44-2.36,2.5-4.07,4.9-4.07h9.62c.31,0,.55.25.55.56s-.24.55-.55.55h-9.62c-1.87-.01-3.47,1.32-3.81,3.15-.71,3.91-1.2,7.84-1.48,11.8-.1,1.44-.17,2.89-.21,4.34,0,.02.01.02.01.04,0,.01-.01.02-.01.04-.11,3.48-.05,6.98.18,10.45h25.46c.6-8.92.09-17.87-1.51-26.67-.34-1.83-1.94-3.16-3.81-3.15h-2.99c-.31,0-.55-.25-.55-.55s.24-.56.55-.56h2.99c2.4,0,4.46,1.71,4.9,4.07,1.62,8.89,2.13,17.96,1.52,26.98,1.26.25,2.17,1.35,2.19,2.64ZM48.6,34.04v-.35c0-.91-.74-1.65-1.66-1.66h-5.75c1.19.94,1.88,2.36,1.89,3.87,0,.14-.03.28-.04.42,1.34-.18,2.73-.39,4.17-.63.79-.15,1.38-.84,1.39-1.65ZM41.15,35.9c0-1.68-1.36-3.04-3.04-3.04s-3.04,1.36-3.05,3.04c0,1.68,1.37,3.04,3.05,3.04s3.04-1.36,3.04-3.04ZM20.82,7.74h-11.43c-.91,0-1.65.74-1.65,1.65s.74,1.66,1.65,1.66h10.98c.13-1.11.29-2.21.45-3.31ZM20.26,12.15h-1.48v7.74h.9c.05-1.31.11-2.61.21-3.91.09-1.27.24-2.55.37-3.83ZM17.68,19.89v-7.74h-3.59l-5.8,7.74h9.39ZM14.71,35.9c0-1.71-1.39-3.1-3.11-3.1s-3.1,1.39-3.1,3.1,1.39,3.1,3.1,3.1,3.11-1.39,3.11-3.1ZM8.52,32.03H2.77c-.92,0-1.66.75-1.66,1.66v.35c0,.81.56,1.49,1.35,1.65,1.34.22,2.76.43,4.21.64-.01-.14-.04-.28-.04-.43.01-1.51.7-2.93,1.89-3.87Z"
     id="path1602" />
  <path
     class="cls-3"
     d="M48.6,33.69v.35c-.01.81-.6,1.5-1.39,1.65-1.44.24-2.83.45-4.17.63,0-.14.04-.28.04-.42-.01-1.51-.7-2.93-1.89-3.87h5.75c.92,0,1.66.75,1.66,1.66Z"
     id="path1604" />
  <path
     class="cls-3"
     d="M44.91,4.26c1.6,8.8,2.11,17.75,1.51,26.67h-25.46c-.23-3.47-.29-6.97-.18-10.45,0-.02.01-.03.01-.04,0-.02-.01-.02-.01-.04.04-1.45.11-2.9.21-4.34.28-3.96.77-7.89,1.48-11.8.34-1.83,1.94-3.16,3.81-3.15h9.62c.31,0,.55-.25.55-.55h1.11c0,.3.24.55.55.55h2.99c1.87-.01,3.47,1.32,3.81,3.15Z"
     id="path1606" />
  <path
     class="cls-3"
     d="M38.11,32.86c1.68,0,3.04,1.36,3.04,3.04s-1.36,3.04-3.04,3.04-3.05-1.36-3.05-3.04c.01-1.68,1.37-3.04,3.05-3.04Z"
     id="path1608" />
  <path
     class="cls-3"
     d="M14.69,32.03h20.33c-1.59,1.23-2.26,3.31-1.67,5.24-2.79.18-5.57.29-8.49.29-.31,0-.56.24-.56.55h-1.1c.01-.32-.24-.57-.55-.57-2.1-.03-4.21-.13-6.3-.26.61-1.93-.06-4.02-1.66-5.25Z"
     id="path1610" />
  <path
     class="cls-3"
     d="M9.39,7.74h11.43c-.16,1.1-.32,2.2-.45,3.31h-10.98c-.91,0-1.65-.74-1.65-1.66s.74-1.65,1.65-1.65Z"
     id="path1612" />
  <path
     class="cls-3"
     d="M19.85,30.93H5.53v-6.07c0-.31-.25-.56-.56-.56v-1.1c.31,0,.56-.25.56-.55,0-.92.74-1.66,1.65-1.66h12.48c-.08,3.32-.02,6.64.19,9.94Z"
     id="path1614" />
  <polygon
     class="cls-3"
     points="17.68 12.15 17.68 19.89 8.29 19.89 14.09 12.15 17.68 12.15"
     id="polygon1616" />
  <path
     class="cls-3"
     d="M11.6,32.8c1.72,0,3.11,1.39,3.11,3.1s-1.39,3.1-3.11,3.1-3.1-1.39-3.1-3.1,1.39-3.1,3.1-3.1Z"
     id="path1618" />
  <path
     class="cls-3"
     d="M2.77,32.03h5.75c-1.19.94-1.88,2.36-1.89,3.87,0,.15.03.29.04.43-1.45-.21-2.87-.42-4.21-.64-.79-.16-1.35-.84-1.35-1.65v-.35c0-.91.74-1.65,1.66-1.66Z"
     id="path1620" />
  <path
     class="cls-2"
     d="M35.3,19.89c.63-1,1.01-2.14,1.09-3.31h8.34c.3,0,.55-.25.55-.55,0-.3-.25-.55-.55-.55h-8.34c-.08-1.18-.46-2.32-1.09-3.31h5.01c.3,0,.55-.25.55-.55,0-.3-.25-.55-.55-.55h-5.89c-.07-.07-.14-.14-.21-.21-2.86-2.74-7.41-2.65-10.15.21-2.74,2.86-2.65,7.41.21,10.15,2.86,2.74,7.41,2.65,10.15-.21h5.89c.3,0,.55-.25.55-.55,0-.3-.25-.55-.55-.55h-5.01ZM35.35,16.02c0,3.35-2.72,6.07-6.07,6.07s-6.07-2.72-6.07-6.07,2.72-6.07,6.07-6.07c3.35,0,6.07,2.72,6.07,6.07Z"
     id="path1622" />
  <path
     class="cls-2"
     d="M29.83,20.44v-4.42c0-.15-.06-.29-.16-.39l-2.21-2.21c-.22-.22-.57-.22-.78,0s-.22.57,0,.78l2.05,2.05v4.19c0,.3.25.55.55.55s.55-.25.55-.55Z"
     id="path1624" />
  <path
     class="cls-1"
     d="M8.5,35.9c0-1.71,1.39-3.1,3.1-3.1s3.1,1.39,3.1,3.1-1.39,3.1-3.1,3.1c-1.71,0-3.1-1.39-3.1-3.1Z"
     id="path1626" />
</svg>
