<?xml version="1.0" encoding="UTF-8"?>
<svg id="Warstwa_2" data-name="Warstwa 2" xmlns="http://www.w3.org/2000/svg" viewBox="0 0 41.8 44.46">
  <defs>
    <style>
      .cls-1 {
        stroke: #fff;
      }

      .cls-1, .cls-2 {
        fill: none;
        stroke-miterlimit: 10;
        stroke-width: 1.16px;
      }

      .cls-2 {
        stroke: #ca151a;
      }

      .cls-3 {
        fill: #010101;
        stroke-width: 0px;
      }
    </style>
  </defs>
  <g id="Warstwa_1-2" data-name="Warstwa 1">
    <rect class="cls-1" x="4.45" y="7.12" width="36.77" height="36.77"/>
    <g>
      <path class="cls-3" d="M1.18.59c0,.32-.26.59-.59.59C.26,1.18,0,.91,0,.59,0,.26.26,0,.59,0,.91,0,1.18.26,1.18.59h0Z"/>
      <path class="cls-3" d="M10.4.59c0,.33-.26.59-.59.59-.32,0-.59-.26-.59-.59C9.22.26,9.48,0,9.81,0c.32,0,.59.26.59.59h0Z"/>
      <path class="cls-3" d="M19.61.59c0,.32-.26.59-.59.59-.32,0-.59-.26-.59-.59,0-.32.26-.59.59-.59.32,0,.59.26.59.59h0Z"/>
      <path class="cls-3" d="M28.83.59c0,.32-.26.59-.59.59-.33,0-.59-.26-.59-.59,0-.32.26-.59.59-.59.32,0,.59.26.59.59h0Z"/>
      <path class="cls-3" d="M38.05.59c0,.33-.26.59-.59.59-.32,0-.59-.26-.59-.59C36.87.26,37.14,0,37.46,0c.32,0,.59.26.59.59h0Z"/>
      <path class="cls-3" d="M1.18,8.83c0,.33-.26.59-.59.59C.26,9.41,0,9.15,0,8.83c0-.33.26-.59.59-.59.32,0,.59.26.59.59h0Z"/>
      <path class="cls-3" d="M10.4,8.83c0,.32-.26.59-.59.59-.33,0-.59-.26-.59-.59,0-.32.26-.59.59-.59.33,0,.59.26.59.59h0Z"/>
      <path class="cls-3" d="M19.61,8.83c0,.32-.26.59-.59.59-.32,0-.59-.26-.59-.59,0-.33.26-.59.59-.59.32,0,.59.26.59.59h0Z"/>
      <path class="cls-3" d="M28.83,8.83c0,.33-.26.59-.59.59-.32,0-.59-.26-.59-.59,0-.32.26-.59.59-.59.33,0,.59.26.59.59h0Z"/>
      <path class="cls-3" d="M38.05,8.83c0,.33-.26.59-.59.59-.33,0-.59-.26-.59-.59,0-.33.26-.59.59-.59.33,0,.59.26.59.59h0Z"/>
      <path class="cls-3" d="M1.18,17.06c0,.32-.26.59-.59.59C.26,17.65,0,17.39,0,17.06c0-.32.26-.59.59-.59.32,0,.59.26.59.59h0Z"/>
      <path class="cls-3" d="M10.4,17.06c0,.33-.26.59-.59.59-.32,0-.59-.26-.59-.59,0-.33.26-.59.59-.59.32,0,.59.26.59.59h0Z"/>
      <path class="cls-3" d="M19.61,17.06c0,.32-.26.59-.59.59-.33,0-.59-.26-.59-.59,0-.32.26-.59.59-.59.33,0,.59.26.59.59h0Z"/>
      <path class="cls-3" d="M28.83,17.06c0,.33-.26.59-.59.59-.33,0-.59-.26-.59-.59,0-.33.26-.59.59-.59.33,0,.59.26.59.59h0Z"/>
      <path class="cls-3" d="M38.05,17.06c0,.33-.26.59-.59.59-.33,0-.59-.26-.59-.59,0-.33.26-.59.59-.59s.59.26.59.59h0Z"/>
      <path class="cls-3" d="M1.18,25.3c0,.32-.26.59-.59.59-.32,0-.59-.26-.59-.59,0-.32.26-.59.59-.59.33,0,.59.26.59.59h0Z"/>
      <path class="cls-3" d="M10.4,25.3c0,.32-.26.59-.59.59-.33,0-.59-.26-.59-.59,0-.32.26-.59.59-.59.32,0,.59.26.59.59h0Z"/>
      <path class="cls-3" d="M19.61,25.3c0,.33-.26.59-.59.59-.33,0-.59-.26-.59-.59,0-.32.26-.59.59-.59.33,0,.59.26.59.59h0Z"/>
      <path class="cls-3" d="M28.83,25.3c0,.33-.26.59-.59.59s-.59-.26-.59-.59.26-.59.59-.59c.33,0,.59.26.59.59h0Z"/>
      <path class="cls-3" d="M38.05,25.3c0,.33-.26.59-.59.59-.33,0-.59-.26-.59-.59,0-.33.26-.59.59-.59.33,0,.59.26.59.59h0Z"/>
      <path class="cls-3" d="M1.18,33.54c0,.32-.26.59-.59.59C.26,34.13,0,33.86,0,33.54c0-.33.26-.59.59-.59.32,0,.59.26.59.59h0Z"/>
      <path class="cls-3" d="M10.4,33.54c0,.33-.26.59-.59.59-.33,0-.59-.26-.59-.59,0-.32.26-.59.59-.59.33,0,.59.26.59.59h0Z"/>
      <path class="cls-3" d="M19.61,33.54c0,.33-.26.59-.59.59-.33,0-.59-.26-.59-.59,0-.33.26-.59.59-.59.33,0,.59.26.59.59h0Z"/>
      <path class="cls-3" d="M28.83,33.54c0,.33-.26.59-.59.59-.33,0-.59-.26-.59-.59,0-.33.26-.59.59-.59.33,0,.59.26.59.59h0Z"/>
      <path class="cls-3" d="M38.05,33.54c0,.33-.26.59-.59.59-.33,0-.59-.26-.59-.59,0-.33.26-.59.59-.59.33,0,.59.26.59.59h0Z"/>
      <path class="cls-3" d="M1.18,41.78c0,.32-.26.59-.59.59-.32,0-.59-.26-.59-.59,0-.32.26-.59.59-.59.33,0,.59.26.59.59h0Z"/>
      <path class="cls-3" d="M10.4,41.78c0,.33-.26.59-.59.59-.33,0-.59-.26-.59-.59,0-.33.26-.59.59-.59.32,0,.59.26.59.59h0Z"/>
      <path class="cls-3" d="M19.61,41.78c0,.33-.26.59-.59.59-.32,0-.59-.26-.59-.59,0-.33.26-.59.59-.59.33,0,.59.26.59.59h0Z"/>
      <path class="cls-3" d="M28.83,41.78c0,.33-.26.59-.59.59-.32,0-.59-.26-.59-.59,0-.32.26-.59.59-.59.32,0,.59.26.59.59h0Z"/>
      <path class="cls-3" d="M38.05,41.78c0,.33-.26.59-.59.59-.33,0-.59-.26-.59-.59,0-.33.26-.59.59-.59.33,0,.59.26.59.59h0Z"/>
      <path class="cls-2" d="M41.22,32.14c0,3.91,0,7.81,0,11.72-4.26,0-8.52.02-12.78.02"/>
    </g>
  </g>
</svg>