<?xml version="1.0" encoding="UTF-8"?>
<svg id="Warstwa_2" data-name="Warstwa 2" xmlns="http://www.w3.org/2000/svg" viewBox="0 0 66.39 66.39">
  <defs>
    <style>
      .cls-1 {
        fill: #000;
      }

      .cls-1, .cls-2 {
        stroke-width: 0px;
      }

      .cls-2 {
        fill: #fff;
      }
    </style>
  </defs>
  <g id="Warstwa_1-2" data-name="Warstwa 1">
    <g>
      <rect class="cls-1" x=".85" y="1.2" width="64.72" height="64.21"/>
      <circle class="cls-2" cx="4.86" cy="22.37" r=".97"/>
      <circle class="cls-2" cx="4.86" cy="44.02" r=".97"/>
      <circle class="cls-2" cx="22.37" cy="61.52" r=".97"/>
      <circle class="cls-2" cx="44.02" cy="61.52" r=".97"/>
      <circle class="cls-2" cx="61.52" cy="44.02" r=".97"/>
      <circle class="cls-2" cx="61.52" cy="22.37" r=".97"/>
      <circle class="cls-2" cx="44.02" cy="4.86" r=".97"/>
      <circle class="cls-2" cx="22.37" cy="4.86" r=".97"/>
      <path class="cls-1" d="M65.41,0H.97C.44,0,0,.44,0,.97v64.44c0,.54.44.97.97.97h64.44c.54,0,.97-.44.97-.97V.97c0-.54-.44-.97-.97-.97ZM64.44,64.44H1.94V1.94h62.5v62.5Z"/>
      <g>
        <path class="cls-1" d="M62.49,49.86v11.67c0,.54-.43.97-.97.97h-11.67c-.26,0-.49-.11-.69-.29l-3.6-3.6h-24.74l-3.6,3.6c-.17.17-.43.29-.69.29H4.86c-.54,0-.97-.43-.97-.97v-11.67c0-.26.11-.51.29-.69l3.6-3.6v-10.44c0,.54.4,1,.92,1.03.54.03,1.03-.43,1.03-1.03v10.84c0,.26-.11.51-.29.69l-3.6,3.6v10.3h10.3l3.6-3.6c.17-.17.43-.29.69-.29h25.54c.26,0,.51.11.69.29l3.6,3.6h10.3v-10.3l-3.6-3.6c-.17-.17-.29-.43-.29-.69v-25.54c0-.26.11-.51.29-.69l3.6-3.6V5.84h-10.3l-3.6,3.6c-.17.17-.43.29-.69.29h-25.54c-.26,0-.51-.11-.69-.29l-3.6-3.6H5.83v10.3l3.6,3.6c.17.17.29.43.29.69v14.7c0-.51-.43-.97-.97-.97s-.97.46-.97.97v-14.3l-3.6-3.6c-.17-.2-.29-.43-.29-.69V4.87c0-.54.43-.97.97-.97h11.67c.26,0,.51.09.69.29l3.6,3.6h24.74l3.6-3.6c.2-.2.43-.29.69-.29h11.67c.54,0,.97.43.97.97v11.67c0,.26-.09.49-.29.69l-3.6,3.6v24.74l3.6,3.6c.2.17.29.43.29.69Z"/>
        <path class="cls-2" d="M60.54,50.26v10.3h-10.3l-3.6-3.6c-.17-.17-.43-.29-.69-.29h-25.54c-.26,0-.51.11-.69.29l-3.6,3.6H5.83v-10.3l3.6-3.6c.17-.17.29-.43.29-.69v-25.54c0-.26-.11-.51-.29-.69l-3.6-3.6V5.84h10.3l3.6,3.6c.17.17.43.29.69.29h25.54c.26,0,.51-.11.69-.29l3.6-3.6h10.3v10.3l-3.6,3.6c-.17.17-.29.43-.29.69v25.54c0,.26.11.51.29.69l3.6,3.6Z"/>
        <path class="cls-1" d="M8.75,34.16c.54,0,.97.46.97.97,0,.6-.49,1.06-1.03,1.03-.51-.03-.92-.49-.92-1.03,0-.51.43-.97.97-.97Z"/>
      </g>
      <path class="cls-1" d="M23.34,19.45h19.71c2.14,0,3.89-1.75,3.89-3.89s-1.75-3.89-3.89-3.89h-19.71c-2.14,0-3.89,1.74-3.89,3.89s1.75,3.89,3.89,3.89ZM23.34,13.61h19.71c1.07,0,1.94.87,1.94,1.94s-.87,1.94-1.94,1.94h-19.71c-1.07,0-1.94-.87-1.94-1.94s.87-1.94,1.94-1.94Z"/>
    </g>
  </g>
</svg>