<?xml version="1.0" encoding="UTF-8"?>
<svg id="Warstwa_2" data-name="Warstwa 2" xmlns="http://www.w3.org/2000/svg" viewBox="0 0 21.11 30.05">
  <defs>
    <style>
      .cls-1 {
        fill: #000;
      }

      .cls-1, .cls-2 {
        stroke-width: 0px;
      }

      .cls-2 {
        fill: #fff;
      }
    </style>
  </defs>
  <g id="Warstwa_1-2" data-name="Warstwa 1">
    <g>
      <g>
        <path class="cls-2" d="M1.94,25.2H.42c-.23,0-.42-.19-.42-.42V.42c0-.23.19-.42.42-.42h17.02v1.94L1.94,25.2Z"/>
        <path class="cls-2" d="M15.57,0v1.94l.58,1.94,1.29-1.94V.42c0-.23-.19-.42-.42-.42h-1.45Z"/>
        <path class="cls-1" d="M5.85,26.91c-1.16.07-2.33.15-3.49.23-.23,0-.42-.19-.42-.42V2.36c0-.23.19-.42.42-.42h15.15c.31,0,.62.01.93.02.03,1.19.07,2.39.1,3.58-4.23,7.12-8.46,14.25-12.69,21.37Z"/>
        <path class="cls-2" d="M19.8,3.82c-4.89.02-9.78.04-14.68.06-.69,0-1.25.56-1.25,1.25v24.92c5.74,0,11.49,0,17.23,0-.02-8.32-.03-16.65-.05-24.97,0-.09-.02-.52-.36-.87-.36-.37-.81-.38-.9-.39Z"/>
      </g>
      <g>
        <g>
          <path class="cls-1" d="M5.81,6.28c-.26,0-.47-.22-.47-.47s.2-.47.47-.47.47.21.47.47-.21.47-.47.47h0Z"/>
          <path class="cls-1" d="M7.75,6.28c-.26,0-.47-.21-.47-.47s.2-.47.47-.47.47.22.47.47-.19.47-.47.47Z"/>
          <path class="cls-1" d="M9.69,6.28c-.26,0-.47-.21-.47-.47s.21-.47.47-.47.47.22.47.47-.2.47-.47.47h0Z"/>
          <path class="cls-1" d="M11.63,6.28c-.26,0-.47-.21-.47-.47s.21-.47.47-.47.47.21.47.47c0,.26-.22.47-.47.47h0Z"/>
          <path class="cls-1" d="M13.57,6.28c-.27,0-.47-.22-.47-.47s.2-.47.47-.47.47.21.47.47c0,.26-.21.47-.47.47Z"/>
          <path class="cls-1" d="M15.51,6.28c-.26,0-.47-.21-.47-.47s.21-.47.47-.47.47.21.47.47c0,.27-.22.47-.47.47Z"/>
          <path class="cls-1" d="M17.45,6.28c-.25,0-.47-.2-.47-.47s.21-.47.47-.47.47.22.47.47-.21.47-.47.47Z"/>
          <path class="cls-1" d="M19.38,6.28c-.22,0-.42-.16-.46-.38-.06-.28.16-.56.46-.56.26,0,.47.21.47.47,0,.25-.2.47-.47.47h0Z"/>
        </g>
        <g>
          <path class="cls-1" d="M6.78,8.22c-.25,0-.47-.2-.47-.47,0-.24.19-.47.47-.47.26,0,.47.21.47.47,0,.27-.22.47-.47.47Z"/>
          <path class="cls-1" d="M8.72,8.22c-.25,0-.47-.2-.47-.47s.21-.47.47-.47.47.22.47.47c0,.27-.22.47-.47.47h0Z"/>
          <path class="cls-1" d="M10.66,8.22c-.3,0-.52-.28-.46-.56.04-.22.23-.38.46-.38.25,0,.47.2.47.47,0,.26-.21.47-.47.47h0Z"/>
          <path class="cls-1" d="M12.6,8.22c-.26,0-.47-.21-.47-.47s.21-.47.47-.47.47.21.47.47c0,.26-.21.47-.47.47Z"/>
          <path class="cls-1" d="M14.54,8.22c-.26,0-.47-.21-.47-.47s.21-.47.47-.47.47.21.47.47-.22.47-.47.47Z"/>
          <path class="cls-1" d="M16.48,8.22c-.25,0-.47-.2-.47-.47,0-.26.21-.47.47-.47s.47.21.47.47-.22.47-.47.47Z"/>
          <path class="cls-1" d="M18.41,8.22c-.25,0-.47-.2-.47-.47s.21-.47.47-.47.47.21.47.47c0,.26-.21.47-.47.47Z"/>
        </g>
        <g>
          <circle class="cls-1" cx="5.81" cy="9.69" r=".47"/>
          <path class="cls-1" d="M7.75,10.16c-.26,0-.47-.21-.47-.47,0-.22.18-.47.47-.47.26,0,.47.21.47.47,0,.26-.21.47-.47.47Z"/>
          <path class="cls-1" d="M9.69,10.16c-.26,0-.47-.21-.47-.47,0-.29.24-.47.47-.47.25,0,.47.2.47.47s-.21.47-.47.47Z"/>
          <path class="cls-1" d="M11.63,10.16c-.26,0-.47-.21-.47-.47s.22-.47.47-.47.47.21.47.47c0,.26-.21.47-.47.47h0Z"/>
          <path class="cls-1" d="M13.57,10.16c-.26,0-.47-.21-.47-.47s.22-.47.47-.47c.24,0,.47.19.47.47,0,.26-.21.47-.47.47Z"/>
          <path class="cls-1" d="M15.51,10.16c-.26,0-.47-.21-.47-.47s.22-.47.47-.47.47.19.47.47c0,.26-.21.47-.47.47Z"/>
          <path class="cls-1" d="M17.45,10.16c-.27,0-.47-.22-.47-.47s.21-.47.47-.47.47.22.47.47-.21.47-.47.47Z"/>
          <path class="cls-1" d="M19.38,10.16c-.26,0-.47-.21-.47-.47s.22-.47.47-.47.47.21.47.47c0,.26-.21.47-.47.47Z"/>
        </g>
        <g>
          <path class="cls-1" d="M6.78,12.1c-.25,0-.47-.2-.47-.47s.22-.47.47-.47c.26,0,.47.21.47.47s-.21.47-.47.47Z"/>
          <path class="cls-1" d="M8.72,12.1c-.26,0-.47-.21-.47-.47s.21-.47.47-.47c.23,0,.47.18.47.47,0,.25-.2.47-.47.47Z"/>
          <path class="cls-1" d="M10.66,12.1c-.26,0-.47-.21-.47-.47s.21-.47.47-.47c.23,0,.47.18.47.47,0,.23-.18.47-.47.47Z"/>
          <path class="cls-1" d="M12.6,12.1c-.25,0-.47-.2-.47-.47s.22-.47.47-.47c.23,0,.47.18.47.47,0,.26-.21.47-.47.47Z"/>
          <path class="cls-1" d="M14.54,12.1c-.26,0-.47-.21-.47-.47s.2-.47.47-.47c.26,0,.47.21.47.47,0,.26-.21.47-.47.47Z"/>
          <path class="cls-1" d="M16.48,12.1c-.26,0-.47-.22-.47-.47s.21-.47.47-.47c.29,0,.52.26.46.56-.05.23-.24.38-.46.38Z"/>
          <path class="cls-1" d="M18.41,12.1c-.25,0-.47-.2-.47-.47s.21-.47.47-.47c.23,0,.47.18.47.47,0,.23-.19.47-.47.47Z"/>
        </g>
        <g>
          <path class="cls-1" d="M5.81,14.04c-.23,0-.47-.18-.47-.47,0-.26.21-.47.47-.47s.47.2.47.47c0,.28-.23.47-.47.47Z"/>
          <path class="cls-1" d="M7.75,14.04c-.26,0-.47-.21-.47-.47s.21-.47.47-.47.47.21.47.47c0,.28-.23.47-.47.47h0Z"/>
          <path class="cls-1" d="M9.69,14.04c-.24,0-.47-.19-.47-.47s.22-.47.47-.47.47.21.47.47-.22.47-.47.47Z"/>
          <path class="cls-1" d="M11.63,14.04c-.26,0-.47-.21-.47-.47s.21-.47.47-.47.47.21.47.47c0,.26-.22.47-.47.47h0Z"/>
          <path class="cls-1" d="M13.57,14.04c-.26,0-.47-.21-.47-.47,0-.24.19-.47.47-.47.26,0,.47.21.47.47,0,.28-.23.47-.47.47Z"/>
          <circle class="cls-1" cx="15.51" cy="13.57" r=".47"/>
          <path class="cls-1" d="M17.45,14.04c-.23,0-.47-.18-.47-.47,0-.26.21-.47.47-.47.24,0,.47.19.47.47,0,.26-.21.47-.47.47Z"/>
          <path class="cls-1" d="M19.38,14.04c-.24,0-.47-.19-.47-.47,0-.26.21-.47.47-.47.29,0,.47.24.47.47,0,.12-.05.24-.14.33-.09.09-.21.14-.33.14h0Z"/>
        </g>
        <g>
          <path class="cls-1" d="M6.78,15.97c-.25,0-.47-.2-.47-.47,0-.26.21-.47.47-.47s.47.21.47.47-.21.47-.47.47h0Z"/>
          <path class="cls-1" d="M8.72,15.97c-.25,0-.47-.2-.47-.47s.21-.47.47-.47.47.21.47.47c0,.27-.22.47-.47.47Z"/>
          <path class="cls-1" d="M10.66,15.97c-.25,0-.47-.2-.47-.47s.21-.47.47-.47.47.22.47.47c0,.26-.21.47-.47.47Z"/>
          <path class="cls-1" d="M12.6,15.97c-.26,0-.47-.21-.47-.47s.21-.47.47-.47.47.21.47.47c0,.25-.21.47-.47.47Z"/>
          <path class="cls-1" d="M14.54,15.97c-.26,0-.47-.21-.47-.47s.2-.47.47-.47.47.21.47.47-.21.47-.47.47Z"/>
          <path class="cls-1" d="M16.48,15.97c-.25,0-.47-.2-.47-.47,0-.25.21-.47.47-.47s.47.21.47.47c0,.27-.22.47-.47.47h0Z"/>
          <path class="cls-1" d="M18.41,15.97s-.06,0-.09,0c-.21-.04-.38-.23-.38-.46,0-.26.21-.47.47-.47.27,0,.47.22.47.47,0,.27-.22.47-.47.47Z"/>
        </g>
        <g>
          <path class="cls-1" d="M5.81,17.91c-.26,0-.47-.21-.47-.47s.22-.47.47-.47.47.21.47.47c0,.26-.21.47-.47.47Z"/>
          <path class="cls-1" d="M7.75,17.91c-.25,0-.47-.2-.47-.47s.21-.47.47-.47.47.21.47.47c0,.25-.21.47-.47.47h0Z"/>
          <path class="cls-1" d="M9.69,17.91c-.26,0-.47-.21-.47-.47s.21-.47.47-.47.47.22.47.47-.21.47-.47.47h0Z"/>
          <circle class="cls-1" cx="11.63" cy="17.44" r=".47"/>
          <path class="cls-1" d="M13.57,17.91c-.28,0-.47-.23-.47-.47,0-.26.21-.47.47-.47s.47.21.47.47-.21.47-.47.47h0Z"/>
          <path class="cls-1" d="M15.51,17.91c-.25,0-.47-.2-.47-.47s.21-.47.47-.47.47.21.47.47c0,.26-.21.47-.47.47Z"/>
          <path class="cls-1" d="M17.45,17.91c-.25,0-.47-.2-.47-.47s.2-.47.47-.47.47.22.47.47-.21.47-.47.47Z"/>
          <path class="cls-1" d="M19.38,17.91c-.26,0-.47-.21-.47-.47,0-.27.22-.47.47-.47s.47.2.47.47c0,.25-.21.47-.47.47Z"/>
        </g>
        <g>
          <path class="cls-1" d="M6.78,19.85c-.26,0-.47-.21-.47-.47s.21-.47.47-.47.47.21.47.47-.21.47-.47.47h0Z"/>
          <path class="cls-1" d="M8.72,19.85c-.26,0-.47-.21-.47-.47s.22-.47.47-.47c.27,0,.47.22.47.47s-.21.47-.47.47Z"/>
          <path class="cls-1" d="M10.66,19.85c-.29,0-.47-.24-.47-.47,0-.26.21-.47.47-.47s.47.22.47.47c0,.26-.21.47-.47.47Z"/>
          <path class="cls-1" d="M12.6,19.85c-.26,0-.47-.21-.47-.47s.21-.47.47-.47.47.21.47.47c0,.26-.21.47-.47.47Z"/>
          <path class="cls-1" d="M14.54,19.85c-.25,0-.47-.2-.47-.47s.21-.47.47-.47.47.21.47.47c0,.26-.21.47-.47.47h0Z"/>
          <path class="cls-1" d="M16.48,19.85c-.26,0-.47-.21-.47-.47s.21-.47.47-.47.47.22.47.47c0,.12-.05.24-.14.33-.09.09-.21.14-.33.14Z"/>
          <path class="cls-1" d="M18.41,19.85c-.27,0-.47-.22-.47-.47s.21-.47.47-.47.47.21.47.47c0,.26-.21.47-.47.47Z"/>
        </g>
        <g>
          <path class="cls-1" d="M5.81,21.79c-.25,0-.47-.2-.47-.47s.21-.47.47-.47.47.21.47.47c0,.26-.21.47-.47.47Z"/>
          <path class="cls-1" d="M7.75,21.79c-.25,0-.47-.2-.47-.47s.21-.47.47-.47.47.21.47.47-.21.47-.47.47h0Z"/>
          <path class="cls-1" d="M9.23,21.41c-.06-.3.17-.56.46-.56.26,0,.47.21.47.47,0,.09-.04.33-.29.43-.27.11-.58-.05-.64-.34h0Z"/>
          <path class="cls-1" d="M11.63,21.79c-.25,0-.47-.21-.47-.47s.21-.47.47-.47.47.21.47.47-.22.47-.47.47Z"/>
          <path class="cls-1" d="M13.57,21.79c-.25,0-.47-.2-.47-.47,0-.25.2-.47.47-.47s.47.21.47.47c0,.24-.19.47-.47.47Z"/>
          <path class="cls-1" d="M15.51,21.79c-.26,0-.47-.21-.47-.47s.21-.47.47-.47.47.21.47.47c0,.26-.21.47-.47.47Z"/>
          <path class="cls-1" d="M17.45,21.79c-.25,0-.47-.2-.47-.47s.21-.47.47-.47.47.22.47.47c0,.27-.22.47-.47.47Z"/>
          <path class="cls-1" d="M19.38,21.79c-.24,0-.47-.19-.47-.47,0-.26.21-.47.47-.47s.47.21.47.47c0,.26-.22.47-.47.47Z"/>
        </g>
        <g>
          <path class="cls-1" d="M6.78,23.73c-.26,0-.47-.21-.47-.47s.2-.47.47-.47.47.21.47.47-.22.47-.47.47Z"/>
          <path class="cls-1" d="M8.72,23.73c-.25,0-.47-.2-.47-.47s.21-.47.47-.47c.28,0,.47.23.47.47,0,.26-.21.47-.47.47h0Z"/>
          <path class="cls-1" d="M10.66,23.73c-.25,0-.47-.2-.47-.47s.21-.47.47-.47.47.21.47.47c0,.26-.22.47-.47.47Z"/>
          <path class="cls-1" d="M12.6,23.73c-.26,0-.47-.21-.47-.47s.21-.47.47-.47.47.21.47.47-.21.47-.47.47h0Z"/>
          <path class="cls-1" d="M14.54,23.73c-.26,0-.47-.21-.47-.47s.2-.47.47-.47.47.21.47.47c0,.28-.23.47-.47.47Z"/>
          <path class="cls-1" d="M16.48,23.73c-.26,0-.47-.21-.47-.47s.21-.47.47-.47.47.21.47.47c0,.26-.21.47-.47.47Z"/>
          <path class="cls-1" d="M18.41,23.73c-.25,0-.47-.2-.47-.47s.21-.47.47-.47.47.22.47.47-.21.47-.47.47h0Z"/>
        </g>
        <g>
          <path class="cls-1" d="M6.78,27.6c-.26,0-.47-.21-.47-.47s.2-.47.47-.47.47.21.47.47-.21.47-.47.47h0Z"/>
          <path class="cls-1" d="M8.72,27.6c-.26,0-.47-.21-.47-.47s.22-.47.47-.47c.27,0,.47.22.47.47s-.2.47-.47.47Z"/>
          <circle class="cls-1" cx="10.66" cy="27.14" r=".47"/>
          <path class="cls-1" d="M12.6,27.6c-.3,0-.52-.28-.46-.56.04-.22.23-.38.46-.38.26,0,.47.21.47.47s-.21.47-.47.47Z"/>
          <path class="cls-1" d="M14.54,27.6c-.25,0-.47-.21-.47-.47s.21-.47.47-.47.47.21.47.47-.21.47-.47.47Z"/>
          <path class="cls-1" d="M16.48,27.6c-.25,0-.47-.21-.47-.47s.21-.47.47-.47.47.22.47.47c0,.26-.21.47-.47.47Z"/>
          <circle class="cls-1" cx="18.41" cy="27.14" r=".47"/>
        </g>
        <g>
          <path class="cls-1" d="M5.81,25.67c-.26,0-.47-.21-.47-.47s.21-.47.47-.47.47.19.47.47c0,.26-.21.47-.47.47Z"/>
          <path class="cls-1" d="M7.75,25.67c-.29,0-.52-.26-.46-.56.05-.23.24-.38.46-.38.25,0,.47.2.47.47,0,.26-.21.47-.47.47h0Z"/>
          <path class="cls-1" d="M9.69,25.67c-.22,0-.41-.15-.46-.38-.06-.31.18-.56.46-.56.25,0,.47.2.47.47s-.21.47-.47.47h0Z"/>
          <path class="cls-1" d="M11.63,25.67c-.26,0-.47-.21-.47-.47s.22-.47.47-.47.47.2.47.47c0,.25-.21.47-.47.47h0Z"/>
          <path class="cls-1" d="M13.57,25.67c-.27,0-.47-.22-.47-.47,0-.26.22-.47.47-.47s.47.21.47.47c0,.26-.22.47-.47.47Z"/>
          <path class="cls-1" d="M15.51,25.67c-.26,0-.47-.22-.47-.47s.21-.47.47-.47.47.2.47.47c0,.26-.21.47-.47.47Z"/>
          <path class="cls-1" d="M17.45,25.67c-.26,0-.47-.21-.47-.47s.21-.47.47-.47.47.2.47.47c0,.24-.2.47-.47.47Z"/>
          <path class="cls-1" d="M19.38,25.67c-.25,0-.47-.21-.47-.47s.21-.47.47-.47.47.21.47.47c0,.25-.2.47-.47.47Z"/>
        </g>
      </g>
    </g>
  </g>
</svg>