<?xml version="1.0" encoding="UTF-8"?>
<svg id="Warstwa_2" data-name="Warstwa 2" xmlns="http://www.w3.org/2000/svg" viewBox="0 0 43.53 45.37">
  <defs>
    <style>
      .cls-1 {
        stroke: #fff;
      }

      .cls-1, .cls-2 {
        fill: none;
        stroke-miterlimit: 10;
        stroke-width: 1.23px;
      }

      .cls-3 {
        fill: #010101;
        stroke-width: 0px;
      }

      .cls-2 {
        stroke: #ca151a;
      }
    </style>
  </defs>
  <g id="Warstwa_1-2" data-name="Warstwa 1">
    <g>
      <g>
        <path class="cls-3" d="M1.17.59c0,.32-.26.59-.59.59C.26,1.17,0,.91,0,.59,0,.26.26,0,.59,0,.91,0,1.17.26,1.17.59h0Z"/>
        <path class="cls-3" d="M10.35.59c0,.32-.26.59-.59.59-.32,0-.59-.26-.59-.59C9.18.26,9.44,0,9.76,0c.32,0,.59.26.59.59h0Z"/>
        <path class="cls-3" d="M19.53.59c0,.32-.26.59-.59.59-.32,0-.59-.26-.59-.59,0-.32.26-.59.59-.59.32,0,.59.26.59.59h0Z"/>
        <path class="cls-3" d="M28.71.59c0,.32-.26.59-.59.59-.32,0-.59-.26-.59-.59,0-.32.26-.59.59-.59.32,0,.59.26.59.59h0Z"/>
        <path class="cls-3" d="M37.88.59c0,.32-.26.59-.59.59-.32,0-.59-.26-.59-.59C36.71.26,36.97,0,37.3,0c.32,0,.59.26.59.59h0Z"/>
        <path class="cls-3" d="M1.17,8.79c0,.32-.26.59-.59.59C.26,9.37,0,9.11,0,8.79c0-.32.26-.59.59-.59.32,0,.59.26.59.59h0Z"/>
        <path class="cls-3" d="M10.35,8.79c0,.32-.26.59-.59.59-.32,0-.59-.26-.59-.59,0-.32.26-.59.59-.59.32,0,.59.26.59.59h0Z"/>
        <path class="cls-3" d="M19.53,8.79c0,.32-.26.59-.59.59-.32,0-.59-.26-.59-.59,0-.32.26-.59.59-.59.32,0,.59.26.59.59h0Z"/>
        <path class="cls-3" d="M28.71,8.79c0,.32-.26.59-.59.59-.32,0-.59-.26-.59-.59,0-.32.26-.59.59-.59.32,0,.59.26.59.59h0Z"/>
        <path class="cls-3" d="M37.88,8.79c0,.32-.26.59-.59.59-.32,0-.59-.26-.59-.59,0-.32.26-.59.59-.59.32,0,.59.26.59.59h0Z"/>
        <path class="cls-3" d="M1.17,16.99c0,.32-.26.59-.59.59C.26,17.57,0,17.31,0,16.99c0-.32.26-.59.59-.59.32,0,.59.26.59.59h0Z"/>
        <path class="cls-3" d="M10.35,16.99c0,.32-.26.59-.59.59-.32,0-.59-.26-.59-.59,0-.32.26-.59.59-.59.32,0,.59.26.59.59h0Z"/>
        <path class="cls-3" d="M19.53,16.99c0,.32-.26.59-.59.59-.32,0-.59-.26-.59-.59,0-.32.26-.59.59-.59.32,0,.59.26.59.59h0Z"/>
        <path class="cls-3" d="M28.71,16.99c0,.32-.26.59-.59.59-.32,0-.59-.26-.59-.59,0-.32.26-.59.59-.59.32,0,.59.26.59.59h0Z"/>
        <path class="cls-3" d="M37.88,16.99c0,.32-.26.59-.59.59-.32,0-.59-.26-.59-.59,0-.32.26-.59.59-.59s.59.26.59.59h0Z"/>
        <path class="cls-3" d="M1.17,25.19c0,.32-.26.59-.59.59-.32,0-.59-.26-.59-.59,0-.32.26-.59.59-.59.32,0,.59.26.59.59h0Z"/>
        <path class="cls-3" d="M10.35,25.19c0,.32-.26.59-.59.59-.32,0-.59-.26-.59-.59,0-.32.26-.59.59-.59.32,0,.59.26.59.59h0Z"/>
        <path class="cls-3" d="M19.53,25.19c0,.32-.26.59-.59.59-.32,0-.59-.26-.59-.59,0-.32.26-.59.59-.59.32,0,.59.26.59.59h0Z"/>
        <path class="cls-3" d="M28.71,25.19c0,.32-.26.59-.59.59s-.59-.26-.59-.59.26-.59.59-.59c.32,0,.59.26.59.59h0Z"/>
        <path class="cls-3" d="M37.88,25.19c0,.32-.26.59-.59.59-.32,0-.59-.26-.59-.59,0-.32.26-.59.59-.59.32,0,.59.26.59.59h0Z"/>
        <path class="cls-3" d="M1.17,33.39c0,.32-.26.59-.59.59C.26,33.98,0,33.72,0,33.39c0-.32.26-.59.59-.59.32,0,.59.26.59.59h0Z"/>
        <path class="cls-3" d="M10.35,33.39c0,.32-.26.59-.59.59-.32,0-.59-.26-.59-.59,0-.32.26-.59.59-.59.32,0,.59.26.59.59h0Z"/>
        <path class="cls-3" d="M19.53,33.39c0,.32-.26.59-.59.59-.32,0-.59-.26-.59-.59,0-.32.26-.59.59-.59.32,0,.59.26.59.59h0Z"/>
        <path class="cls-3" d="M28.71,33.39c0,.32-.26.59-.59.59-.32,0-.59-.26-.59-.59,0-.32.26-.59.59-.59.32,0,.59.26.59.59h0Z"/>
        <path class="cls-3" d="M37.88,33.39c0,.32-.26.59-.59.59-.32,0-.59-.26-.59-.59,0-.32.26-.59.59-.59.32,0,.59.26.59.59h0Z"/>
        <path class="cls-3" d="M1.17,41.59c0,.32-.26.59-.59.59-.32,0-.59-.26-.59-.59,0-.32.26-.59.59-.59.32,0,.59.26.59.59h0Z"/>
        <path class="cls-3" d="M10.35,41.59c0,.32-.26.59-.59.59-.32,0-.59-.26-.59-.59,0-.32.26-.59.59-.59.32,0,.59.26.59.59h0Z"/>
        <path class="cls-3" d="M19.53,41.59c0,.32-.26.59-.59.59-.32,0-.59-.26-.59-.59,0-.32.26-.59.59-.59.32,0,.59.26.59.59h0Z"/>
        <path class="cls-3" d="M28.71,41.59c0,.32-.26.59-.59.59-.32,0-.59-.26-.59-.59,0-.32.26-.59.59-.59.32,0,.59.26.59.59h0Z"/>
        <path class="cls-3" d="M37.88,41.59c0,.32-.26.59-.59.59-.32,0-.59-.26-.59-.59,0-.32.26-.59.59-.59.32,0,.59.26.59.59h0Z"/>
      </g>
      <g>
        <circle class="cls-1" cx="23.25" cy="25.09" r="19.66"/>
        <path class="cls-2" d="M42.91,25.09c0,10.86-8.8,19.66-19.66,19.66"/>
      </g>
    </g>
  </g>
</svg>