<?xml version="1.0" encoding="UTF-8"?>
<svg id="Warstwa_2" data-name="Warstwa 2" xmlns="http://www.w3.org/2000/svg" xmlns:xlink="http://www.w3.org/1999/xlink" viewBox="0 0 86.7 80.9">
  <defs>
    <style>
      .cls-1 {
        clip-path: url(#clippath-11);
      }

      .cls-2 {
        fill: #000;
      }

      .cls-2, .cls-3, .cls-4, .cls-5 {
        stroke-width: 0px;
      }

      .cls-6 {
        clip-path: url(#clippath-2);
      }

      .cls-7 {
        clip-path: url(#clippath-13);
      }

      .cls-8 {
        isolation: isolate;
      }

      .cls-9 {
        clip-path: url(#clippath-6);
      }

      .cls-10 {
        stroke-width: .39px;
      }

      .cls-10, .cls-3, .cls-11 {
        fill: none;
      }

      .cls-10, .cls-11 {
        stroke: #000;
        stroke-miterlimit: 10;
      }

      .cls-12 {
        clip-path: url(#clippath-7);
      }

      .cls-13 {
        clip-path: url(#clippath-1);
      }

      .cls-14 {
        clip-path: url(#clippath-4);
      }

      .cls-4 {
        fill: #fed302;
      }

      .cls-15 {
        clip-path: url(#clippath-12);
      }

      .cls-11 {
        stroke-linecap: round;
        stroke-width: 3.36px;
      }

      .cls-16 {
        clip-path: url(#clippath-9);
      }

      .cls-17 {
        clip-path: url(#clippath);
      }

      .cls-5 {
        fill: #cb1517;
      }

      .cls-18 {
        clip-path: url(#clippath-3);
      }

      .cls-19 {
        clip-path: url(#clippath-8);
      }

      .cls-20 {
        clip-path: url(#clippath-5);
      }

      .cls-21 {
        clip-path: url(#clippath-10);
      }
    </style>
    <clipPath id="clippath">
      <rect class="cls-3" width="86.7" height="80.9"/>
    </clipPath>
    <clipPath id="clippath-1">
      <rect class="cls-3" width="86.7" height="80.9"/>
    </clipPath>
    <clipPath id="clippath-2">
      <rect class="cls-3" width="86.7" height="80.9"/>
    </clipPath>
    <clipPath id="clippath-3">
      <rect class="cls-3" width="86.7" height="80.9"/>
    </clipPath>
    <clipPath id="clippath-4">
      <rect class="cls-3" width="86.7" height="80.9"/>
    </clipPath>
    <clipPath id="clippath-5">
      <rect class="cls-3" width="86.7" height="80.9"/>
    </clipPath>
    <clipPath id="clippath-6">
      <path class="cls-3" d="M59.1,5.2L3.5,50.6c-.8.7-.9,1.9-.2,2.7l16,19.8c.7.9,1.9,1,2.7.3l55.6-45.4c.8-.7.9-1.9.2-2.7L61.8,5.5c-.4-.5-1-.7-1.5-.8h0c-.5,0-.9.2-1.2.5"/>
    </clipPath>
    <clipPath id="clippath-7">
      <rect class="cls-3" x="-6.26" y="-.12" width="88.5" height="59.2" transform="translate(-10.09 30.25) rotate(-38.72)"/>
    </clipPath>
    <clipPath id="clippath-8">
      <rect class="cls-3" width="86.7" height="80.9"/>
    </clipPath>
    <clipPath id="clippath-9">
      <rect class="cls-3" width="86.7" height="80.9"/>
    </clipPath>
    <clipPath id="clippath-10">
      <rect class="cls-3" width="86.7" height="80.9"/>
    </clipPath>
    <clipPath id="clippath-11">
      <rect class="cls-3" width="86.7" height="80.9"/>
    </clipPath>
    <clipPath id="clippath-12">
      <rect class="cls-3" width="86.7" height="80.9"/>
    </clipPath>
    <clipPath id="clippath-13">
      <rect class="cls-3" width="86.7" height="80.9"/>
    </clipPath>
  </defs>
  <g id="Warstwa_1-2" data-name="Warstwa 1">
    <g id="Logo">
      <g>
        <g class="cls-17">
          <g>
            <g class="cls-13">
              <path class="cls-5" d="M60.3,54.9l-27.7,22.5c-2.1,1.7-5.3,1.4-7-.7l-2.9-3.6c-.6-.7-.5-1.8.2-2.3l30.3-24.6c.7-.6,1.8-.5,2.3.2l5,6.2c.6.7.5,1.7-.2,2.3"/>
            </g>
            <g class="cls-6">
              <path class="cls-10" d="M60.3,54.9l-27.7,22.5c-2.1,1.7-5.3,1.4-7-.7l-2.9-3.6c-.6-.7-.5-1.8.2-2.3l30.3-24.6c.7-.6,1.8-.5,2.3.2l5,6.2c.6.7.5,1.7-.2,2.3"/>
            </g>
            <g class="cls-18">
              <path class="cls-4" d="M30,33.9L7.5,52.2l-6.1-7.5v-1.3c0-.4.1-.8.2-1l20-16.3c.7-.6,1.7-.5,2.3.2l6.1,7.6Z"/>
            </g>
            <g class="cls-14">
              <path class="cls-10" d="M30,33.9L7.5,52.2l-6.1-7.5v-1.3c0-.4.1-.8.2-1l20-16.3c.7-.6,1.7-.5,2.3.2l6.1,7.6Z"/>
            </g>
          </g>
        </g>
        <g class="cls-20">
          <g class="cls-9">
            <g class="cls-12">
              <image class="cls-8" width="2000" height="1339" transform="translate(-15.11 34.1) rotate(-38.72) scale(.04)" xlink:href="../../../wzorpodstona-kontakt-ofirmie/675335FA78198B7D.jpg"/>
            </g>
          </g>
        </g>
        <g class="cls-19">
          <g class="cls-16">
            <path class="cls-10" d="M59.1,5.2L3.5,50.6c-.8.7-.9,1.9-.2,2.7l16,19.8c.7.9,1.9,1,2.7.4l55.6-45.4c.8-.7.9-1.9.2-2.7L61.8,5.6c-.4-.5-1-.7-1.5-.8-.4-.1-.9.1-1.2.4"/>
          </g>
        </g>
        <g class="cls-21">
          <g class="cls-1">
            <path class="cls-11" d="M79.2,40.6c0,21.2-17.2,38.4-38.4,38.4S2.4,61.8,2.4,40.6,19.6,2.2,40.8,2.2c4.1,0,8.1.7,11.9,1.9"/>
          </g>
        </g>
        <g class="cls-15">
          <g class="cls-7">
            <path class="cls-2" d="M83.6,42.8h-8.8c-.7,0-1.1-.7-.7-1.3l4.4-7.7c.3-.6,1.1-.6,1.5,0l4.4,7.7c.3.6-.1,1.3-.8,1.3"/>
          </g>
        </g>
      </g>
    </g>
  </g>
</svg>