<?xml version="1.0" encoding="UTF-8" standalone="no"?>
<svg
   id="Warstwa_2"
   data-name="Warstwa 2"
   viewBox="0 0 325.71 112.37"
   version="1.1"
   xmlns:xlink="http://www.w3.org/1999/xlink"
   xmlns="http://www.w3.org/2000/svg"
   xmlns:svg="http://www.w3.org/2000/svg">
  <defs
     id="defs46">
    <style
       id="style2">
      .cls-1 {
        fill: #000;
      }

      .cls-1, .cls-2, .cls-3, .cls-4, .cls-5, .cls-6, .cls-7 {
        stroke-width: 0px;
      }

      .cls-8 {
        stroke: #4e4d4d;
        stroke-width: 3.11px;
      }

      .cls-8, .cls-3, .cls-9 {
        fill: none;
      }

      .cls-8, .cls-9 {
        stroke-linecap: round;
        stroke-miterlimit: 10;
      }

      .cls-2 {
        fill: #4b4a4a;
      }

      .cls-10 {
        clip-path: url(#clippath-2);
      }

      .cls-11 {
        clip-path: url(#clippath-6);
      }

      .cls-12 {
        clip-path: url(#clippath-7);
      }

      .cls-13 {
        clip-path: url(#clippath-1);
      }

      .cls-14 {
        clip-path: url(#clippath-4);
      }

      .cls-4 {
        fill: #fed302;
      }

      .cls-15 {
        clip-path: url(#clippath-9);
      }

      .cls-16 {
        clip-path: url(#clippath);
      }

      .cls-5 {
        fill: #cb1517;
      }

      .cls-17 {
        clip-path: url(#clippath-3);
      }

      .cls-6 {
        fill: url(#Gradient_bez_nazwy_2);
      }

      .cls-18 {
        clip-path: url(#clippath-8);
      }

      .cls-9 {
        stroke: #231f20;
        stroke-width: 3.84px;
      }

      .cls-19 {
        clip-path: url(#clippath-5);
      }

      .cls-7 {
        fill: url(#Gradient_bez_nazwy_2-2);
      }
    </style>
    <clipPath
       id="clippath">
      <rect
         class="cls-3"
         x="120.05"
         y="9.15"
         width="201.03"
         height="103.22"
         id="rect4" />
    </clipPath>
    <clipPath
       id="clippath-1">
      <rect
         class="cls-3"
         x="124.68"
         y="9.15"
         width="201.03"
         height="103.22"
         id="rect7" />
    </clipPath>
    <clipPath
       id="clippath-2">
      <path
         class="cls-3"
         d="M120.56,51.53l-54.3,44.15c-.79.64-1.95.52-2.59-.27l-14.86-18.28c-.64-.79-.52-1.95.27-2.59l54.31-44.15c.79-.64,1.95-.52,2.59.27l14.86,18.28c.64.79.52,1.95-.27,2.59"
         id="path10" />
    </clipPath>
    <clipPath
       id="clippath-3">
      <rect
         class="cls-3"
         x="48.16"
         y="29.75"
         width="73.31"
         height="66.57"
         id="rect13" />
    </clipPath>
    <radialGradient
       id="Gradient_bez_nazwy_2"
       data-name="Gradient bez nazwy 2"
       cx="6521.74"
       cy="7507.82"
       fx="6521.74"
       fy="7507.82"
       r="1.98"
       gradientTransform="translate(-114596.8 131991.5) rotate(-.06) scale(17.56 -17.56) skewX(.12)"
       gradientUnits="userSpaceOnUse">
      <stop
         offset="0"
         stop-color="#fbfbfb"
         id="stop16" />
      <stop
         offset=".03"
         stop-color="#fbfbfb"
         id="stop18" />
      <stop
         offset=".26"
         stop-color="#eeefee"
         id="stop20" />
      <stop
         offset=".66"
         stop-color="#cfcfcf"
         id="stop22" />
      <stop
         offset="1"
         stop-color="#afb0af"
         id="stop24" />
    </radialGradient>
    <clipPath
       id="clippath-4">
      <rect
         class="cls-3"
         x="124.68"
         y="27.85"
         width="191.77"
         height="75.04"
         id="rect27" />
    </clipPath>
    <clipPath
       id="clippath-5">
      <rect
         class="cls-3"
         x="124.68"
         y="9.15"
         width="201.03"
         height="103.22"
         id="rect30" />
    </clipPath>
    <clipPath
       id="clippath-6">
      <rect
         class="cls-3"
         x="0"
         width="116.06"
         height="108.36"
         id="rect33" />
    </clipPath>
    <clipPath
       id="clippath-7">
      <path
         class="cls-3"
         d="M88.2,18.9L21.23,73.35c-.97.79-1.12,2.22-.33,3.19l18.33,22.54c.79.97,2.22,1.12,3.19.33l66.97-54.45c.97-.79,1.12-2.22.33-3.2l-18.33-22.54c-.45-.55-1.1-.84-1.76-.84-.5,0-1.01.17-1.43.51"
         id="path36" />
    </clipPath>
    <radialGradient
       id="Gradient_bez_nazwy_2-2"
       data-name="Gradient bez nazwy 2"
       cx="6595.34"
       cy="7432.24"
       fx="6595.34"
       fy="7432.24"
       r="1.98"
       gradientTransform="translate(-142947.16 161112.46) rotate(-.06) scale(21.66 -21.65) skewX(.12)"
       xlink:href="#Gradient_bez_nazwy_2" />
    <clipPath
       id="clippath-8">
      <rect
         class="cls-3"
         x="16.93"
         y="15.77"
         width="99.13"
         height="92.54"
         id="rect40" />
    </clipPath>
    <clipPath
       id="clippath-9">
      <rect
         class="cls-3"
         x="0"
         width="116.06"
         height="108.36"
         id="rect43" />
    </clipPath>
  </defs>
  <g
     id="Warstwa_1-2"
     data-name="Warstwa 1">
    <g
       id="g176">
      <g
         class="cls-16"
         clip-path="url(#clippath)"
         id="g98">
        <path
           class="cls-1"
           d="M168.44,55.36c.76,0,1.17.41,1.17,1.17v17.49c0,.75-.41,1.17-1.17,1.17h-2.61c-.75,0-1.17-.41-1.17-1.17v-4.43c-2.89,4.25-7.95,6.29-13.57,6.29-11.34,0-19.66-8.85-19.66-19.93s8.37-19.94,19.94-19.94c8.17,0,15.22,4.85,17.8,11.73.29.81-.12,1.33-.95,1.33h-3.07c-.65,0-1.08-.29-1.39-.87-2.09-4.29-6.89-7.25-12.4-7.25-8.8,0-14.85,6.54-14.85,14.99s6.13,15.12,14.85,15.12c6.96,0,13.1-3.7,13.25-11.05h-11.3c-.76,0-1.17-.41-1.17-1.17v-2.31c0-.76.41-1.17,1.17-1.17h15.12Z"
           id="path48" />
        <path
           class="cls-1"
           d="M174.98,55.94c0-11.08,8.76-19.93,19.94-19.93s19.93,8.85,19.93,19.93-8.76,19.94-19.93,19.94-19.94-8.86-19.94-19.94M209.77,55.94c0-8.44-6.43-14.99-14.85-14.99s-14.85,6.54-14.85,14.99,6.43,14.99,14.85,14.99,14.85-6.55,14.85-14.99"
           id="path50" />
        <path
           class="cls-1"
           d="M242.63,71.52v2.5c0,.76-.41,1.17-1.17,1.17h-19.25c-.76,0-1.17-.41-1.17-1.17v-36.16c0-.76.41-1.17,1.17-1.17h2.75c.76,0,1.17.41,1.17,1.17v32.49h15.33c.76,0,1.17.41,1.17,1.17"
           id="path52" />
        <path
           class="cls-1"
           d="M248.88,36.69h2.75c.76,0,1.17.41,1.17,1.17v36.16c0,.76-.41,1.17-1.17,1.17h-2.75c-.76,0-1.17-.41-1.17-1.17v-36.16c0-.76.41-1.17,1.17-1.17"
           id="path54" />
        <path
           class="cls-1"
           d="M290.15,75.19h-3.01c-.65,0-1.11-.33-1.33-.95l-2.75-7.66h-17.16l-2.75,7.66c-.22.62-.69.95-1.33.95h-3.01c-.87,0-1.24-.51-.95-1.33l13.39-36.21c.22-.6.7-.95,1.35-.95h3.77c.65,0,1.13.34,1.35.95l13.39,36.21c.29.83-.08,1.33-.95,1.33M281.34,61.8l-6.86-19.11-6.86,19.11h13.72Z"
           id="path56" />
        <path
           class="cls-1"
           d="M315.77,37.86v2.5c0,.76-.41,1.17-1.17,1.17h-9.08v32.49c0,.76-.41,1.17-1.17,1.17h-2.75c-.76,0-1.17-.41-1.17-1.17v-32.49h-9.08c-.75,0-1.17-.41-1.17-1.17v-2.5c0-.76.41-1.17,1.17-1.17h23.24c.76,0,1.17.41,1.17,1.17"
           id="path58" />
        <path
           class="cls-1"
           d="M144.24,85.46c.17,0,.26.11.21.28l-3.43,10.83c-.04.13-.13.2-.27.2h-.72c-.13,0-.23-.07-.27-.2l-1.9-6-1.9,6c-.04.13-.13.2-.27.2h-.72c-.13,0-.23-.07-.27-.2l-3.43-10.83c-.05-.17.04-.28.21-.28h.34c.13,0,.23.07.27.2l3.25,10.22,2.11-6.65-1.11-3.5c-.05-.17.03-.28.2-.28h.34c.13,0,.23.07.27.2l3.24,10.22,3.25-10.22c.04-.13.13-.2.27-.2h.34Z"
           id="path60" />
        <path
           class="cls-1"
           d="M153.44,85.46c.19,0,.27.13.16.29l-3.77,5.73v5.04c0,.16-.09.24-.24.24h-.38c-.16,0-.24-.08-.24-.24v-5.06l-3.76-5.72c-.11-.16-.04-.29.16-.29h.43c.12,0,.22.05.29.16l3.32,5.04,3.32-5.04c.07-.11.17-.16.29-.16h.43Z"
           id="path62" />
        <path
           class="cls-1"
           d="M153.8,91.12c0-3.23,2.45-5.84,5.89-5.84,2.33,0,4.36,1.36,5.14,3.35.06.17-.02.28-.19.28h-.43c-.13,0-.23-.06-.29-.18-.69-1.56-2.34-2.62-4.22-2.62-2.97,0-5.03,2.24-5.03,5.01s2.06,5.01,5.03,5.01c1.89,0,3.53-1.06,4.22-2.62.06-.12.15-.18.29-.18h.44c.17,0,.27.11.21.25-.79,2-2.81,3.38-5.16,3.38-3.44,0-5.89-2.61-5.89-5.84"
           id="path64" />
        <path
           class="cls-1"
           d="M167.11,85.46h.38c.15,0,.24.09.24.24v10.83c0,.16-.09.24-.24.24h-.38c-.16,0-.24-.09-.24-.24v-10.83c0-.16.09-.24.24-.24"
           id="path66" />
        <path
           class="cls-1"
           d="M177.29,85.46h.38c.16,0,.24.09.24.24v10.83c0,.16-.09.24-.24.24h-.32c-.13,0-.23-.05-.29-.16l-5.67-9.44v9.35c0,.16-.08.24-.24.24h-.38c-.16,0-.24-.08-.24-.24v-10.83c0-.16.09-.24.24-.24h.32c.13,0,.23.05.29.16l5.67,9.44v-9.35c0-.16.08-.24.24-.24"
           id="path68" />
        <path
           class="cls-1"
           d="M188.94,96.77h-.4c-.13,0-.23-.07-.28-.19l-1.03-2.69h-5.66l-1.03,2.69c-.05.12-.14.19-.28.19h-.4c-.18,0-.25-.11-.19-.28l4.21-10.84c.05-.12.14-.19.28-.19h.49c.13,0,.23.07.28.19l4.21,10.84c.06.17-.01.28-.19.28M186.92,93.08l-2.52-6.57-2.52,6.57h5.04Z"
           id="path70" />
        <path
           class="cls-1"
           d="M201.11,85.71v10.83c0,.16-.09.24-.24.24h-.38c-.16,0-.24-.09-.24-.24v-9.66l-3.74,7.71c-.06.13-.15.18-.28.18h-.46c-.13,0-.22-.05-.28-.18l-3.74-7.71v9.66c0,.16-.09.24-.24.24h-.38c-.16,0-.24-.09-.24-.24v-10.83c0-.16.09-.24.24-.24h.65c.13,0,.22.05.28.18l3.94,8.13,3.94-8.13c.06-.13.15-.18.28-.18h.65c.16,0,.24.08.24.24"
           id="path72" />
        <path
           class="cls-1"
           d="M211.32,85.75l-3.77,5.73v5.04c0,.16-.09.24-.24.24h-.38c-.16,0-.24-.08-.24-.24v-5.06l-3.76-5.72c-.11-.16-.04-.29.16-.29h.42c.12,0,.22.05.29.16l3.32,5.04,3.32-5.04c.07-.11.17-.16.29-.16h.42c.2,0,.27.13.16.29"
           id="path74" />
        <path
           class="cls-1"
           d="M224.2,85.46h.38c.16,0,.24.09.24.24v10.83c0,.16-.09.24-.24.24h-.32c-.13,0-.23-.05-.29-.16l-5.67-9.44v9.35c0,.16-.09.24-.24.24h-.38c-.16,0-.24-.08-.24-.24v-10.83c0-.16.09-.24.24-.24h.32c.13,0,.23.05.29.16l5.66,9.44v-9.35c0-.16.09-.24.24-.24"
           id="path76" />
        <path
           class="cls-1"
           d="M235.85,96.77h-.4c-.13,0-.23-.07-.28-.19l-1.03-2.69h-5.66l-1.03,2.69c-.05.12-.14.19-.28.19h-.4c-.18,0-.26-.11-.19-.28l4.21-10.84c.05-.12.14-.19.28-.19h.49c.13,0,.23.07.28.19l4.21,10.84c.06.17-.01.28-.19.28M233.82,93.08l-2.52-6.57-2.52,6.57h5.04Z"
           id="path78" />
        <path
           class="cls-1"
           d="M241.46,91.12c0-3.22,2.57-5.84,5.84-5.84s5.84,2.61,5.84,5.84-2.57,5.84-5.84,5.84-5.84-2.61-5.84-5.84M252.27,91.12c0-2.77-2.18-5.01-4.98-5.01s-4.98,2.24-4.98,5.01,2.18,5.01,4.98,5.01,4.98-2.24,4.98-5.01"
           id="path80" />
        <path
           class="cls-1"
           d="M262.54,96.77h-.54c-.12,0-.22-.03-.3-.12l-5.55-5.45v5.33c0,.16-.09.24-.24.24h-.38c-.16,0-.24-.09-.24-.24v-10.83c0-.16.09-.24.24-.24h.38c.16,0,.24.08.24.24v5.01l5.39-5.14c.09-.09.17-.12.29-.12h.54c.21,0,.28.16.13.3l-5.42,5.2,5.58,5.51c.15.16.09.3-.12.3"
           id="path82" />
        <path
           class="cls-1"
           d="M273.04,96.47c.13.16.07.3-.13.3h-.5c-.12,0-.22-.04-.3-.13l-3.96-4.5h-2.76v4.39c0,.16-.09.24-.24.24h-.38c-.16,0-.24-.09-.24-.24v-10.83c0-.15.09-.24.24-.24h3.63c1.84,0,3.34,1.5,3.34,3.34,0,1.58-1.11,2.92-2.6,3.26l3.9,4.41ZM265.39,91.33h3.02c1.36,0,2.48-1.14,2.48-2.53s-1.11-2.53-2.48-2.53h-3.02v5.06Z"
           id="path84" />
        <path
           class="cls-1"
           d="M282.96,99.43c.16-.04.24.01.24.17v.25c0,.12-.05.2-.14.23-.22.08-.45.11-.73.11-.82,0-1.27-.48-1.27-1.17,0-.6.32-1.24,1.23-2.31-.04-.03-.07-.08-.09-.13l-1.03-2.69h-5.66l-1.03,2.69c-.05.12-.14.19-.28.19h-.4c-.18,0-.25-.11-.19-.28l4.21-10.84c.05-.12.14-.19.28-.19h.49c.13,0,.23.07.28.19l4.21,10.84h0c.09.23.03.35-.13.52-.68.67-1.09,1.33-1.09,1.87,0,.62.57.67,1.11.55ZM280.86,93.08l-2.52-6.57-2.52,6.57h5.04Z"
           id="path86" />
        <path
           class="cls-1"
           d="M294.86,91.44v5.09c0,.16-.09.24-.24.24h-.38c-.16,0-.24-.09-.24-.24v-1.75c-.84,1.48-2.55,2.18-4.33,2.18-3.46,0-5.89-2.61-5.89-5.84s2.45-5.84,5.84-5.84c2.33,0,4.36,1.36,5.14,3.35.06.17-.02.28-.19.28h-.43c-.13,0-.23-.06-.29-.18-.69-1.56-2.34-2.62-4.22-2.62-2.92,0-4.98,2.24-4.98,5.01s2.04,5.01,5.03,5.01c2.23,0,4.23-1.21,4.33-3.5v-.62h-3.9c-.16,0-.24-.09-.24-.24v-.32c0-.16.09-.24.24-.24h4.52c.16,0,.24.09.24.24"
           id="path88" />
        <path
           class="cls-1"
           d="M303.62,95.97c.16,0,.24.09.24.24v.32c0,.16-.09.24-.24.24h-5.71c-.16,0-.24-.09-.24-.24v-3.86l-.68.45c-.16.11-.29.04-.29-.16v-.24c0-.12.04-.23.16-.3l.81-.53v-6.18c0-.16.09-.24.24-.24h.38c.16,0,.24.09.24.24v5.61l2.67-1.75c.15-.11.29-.04.29.16v.24c0,.12-.04.23-.15.3l-2.81,1.84v3.86h5.09Z"
           id="path90" />
        <path
           class="cls-1"
           d="M304.02,91.12c0-3.22,2.57-5.84,5.84-5.84s5.84,2.61,5.84,5.84-2.57,5.84-5.84,5.84-5.84-2.61-5.84-5.84M314.83,91.12c0-2.77-2.18-5.01-4.98-5.01s-4.98,2.24-4.98,5.01,2.18,5.01,4.98,5.01,4.98-2.24,4.98-5.01"
           id="path92" />
        <path
           class="cls-5"
           d="M101.52,78.77l-25.7,20.9c-1.98,1.61-4.9,1.31-6.51-.67l-2.71-3.34c-.54-.66-.44-1.63.22-2.17l28.1-22.84c.66-.54,1.63-.44,2.17.22l4.66,5.73c.54.66.44,1.63-.22,2.17"
           id="path94" />
        <path
           class="cls-4"
           d="M73.42,59.3l-20.89,16.99-5.65-6.95c-.53-.65-.43-1.6.22-2.13l18.54-15.08c.65-.53,1.6-.43,2.13.22l5.65,6.95Z"
           id="path96" />
      </g>
      <g
         class="cls-13"
         clip-path="url(#clippath-1)"
         id="g106">
        <g
           class="cls-10"
           clip-path="url(#clippath-2)"
           id="g104">
          <g
             class="cls-17"
             clip-path="url(#clippath-3)"
             id="g102">
            <polygon
               class="cls-6"
               points="48.16 29.75 121.54 29.68 121.47 96.32 48.1 96.4 48.16 29.75"
               id="polygon100" />
          </g>
        </g>
      </g>
      <g
         class="cls-14"
         clip-path="url(#clippath-4)"
         id="g110">
        <path
           class="cls-8"
           d="M119.08,65.5c0,19.66-15.93,35.59-35.59,35.59s-35.59-15.94-35.59-35.59,15.93-35.59,35.59-35.59c3.84,0,7.55.61,11.02,1.74"
           id="path108" />
      </g>
      <g
         class="cls-19"
         clip-path="url(#clippath-5)"
         id="g114">
        <path
           class="cls-2"
           d="M123.18,67.5h-8.2c-.61,0-.98-.66-.68-1.18l4.1-7.1c.3-.52,1.06-.52,1.36,0l4.1,7.1c.3.52-.08,1.18-.68,1.18"
           id="path112" />
      </g>
      <g
         class="cls-11"
         clip-path="url(#clippath-6)"
         id="g162">
        <path
           class="cls-2"
           d="M168.43,49.7c.93,0,1.44.51,1.44,1.44v21.57c0,.93-.51,1.44-1.44,1.44h-3.22c-.93,0-1.44-.51-1.44-1.44v-5.46c-3.56,5.24-9.81,7.75-16.73,7.75-13.99,0-24.25-10.92-24.25-24.58s10.33-24.58,24.58-24.58c10.07,0,18.77,5.98,21.96,14.46.36,1-.15,1.65-1.17,1.65h-3.78c-.8,0-1.34-.36-1.71-1.07-2.58-5.29-8.49-8.93-15.29-8.93-10.85,0-18.31,8.07-18.31,18.48s7.56,18.65,18.31,18.65c8.58,0,16.15-4.56,16.34-13.63h-13.94c-.93,0-1.44-.51-1.44-1.44v-2.85c0-.93.51-1.44,1.44-1.44h18.65Z"
           id="path116" />
        <path
           class="cls-2"
           d="M176.5,50.41c0-13.66,10.8-24.58,24.58-24.58s24.58,10.92,24.58,24.58-10.8,24.58-24.58,24.58-24.58-10.92-24.58-24.58M219.39,50.41c0-10.41-7.93-18.48-18.31-18.48s-18.31,8.07-18.31,18.48,7.93,18.48,18.31,18.48,18.31-8.07,18.31-18.48"
           id="path118" />
        <path
           class="cls-2"
           d="M259.91,69.62v3.09c0,.93-.51,1.44-1.44,1.44h-23.74c-.93,0-1.44-.51-1.44-1.44V28.12c0-.93.51-1.44,1.44-1.44h3.39c.93,0,1.44.51,1.44,1.44v40.06h18.9c.93,0,1.44.51,1.44,1.44"
           id="path120" />
        <path
           class="cls-2"
           d="M267.63,26.67h3.39c.93,0,1.44.51,1.44,1.44v44.59c0,.93-.51,1.44-1.44,1.44h-3.39c-.93,0-1.44-.51-1.44-1.44V28.12c0-.93.51-1.44,1.44-1.44"
           id="path122" />
        <path
           class="cls-2"
           d="M318.52,74.14h-3.71c-.8,0-1.37-.41-1.64-1.17l-3.39-9.44h-21.16l-3.39,9.44c-.27.76-.85,1.17-1.65,1.17h-3.71c-1.07,0-1.53-.63-1.17-1.65l16.51-44.66c.27-.74.86-1.17,1.66-1.17h4.64c.8,0,1.39.42,1.66,1.17l16.51,44.66c.35,1.02-.1,1.65-1.17,1.65M307.66,57.63l-8.46-23.56-8.46,23.56h16.92Z"
           id="path124" />
        <path
           class="cls-2"
           d="M350.11,28.12v3.08c0,.93-.51,1.44-1.44,1.44h-11.19v40.06c0,.93-.51,1.44-1.44,1.44h-3.39c-.93,0-1.44-.51-1.44-1.44v-40.06h-11.19c-.93,0-1.44-.51-1.44-1.44v-3.08c0-.93.51-1.44,1.44-1.44h28.65c.93,0,1.44.51,1.44,1.44"
           id="path126" />
        <path
           class="cls-2"
           d="M138.59,86.82c.21,0,.31.13.25.34l-4.24,13.35c-.05.16-.16.25-.33.25h-.89c-.16,0-.28-.09-.33-.25l-2.35-7.4-2.35,7.4c-.05.16-.16.25-.33.25h-.88c-.17,0-.29-.09-.33-.25l-4.24-13.35c-.06-.21.04-.34.26-.34h.42c.17,0,.29.09.33.25l4,12.6,2.61-8.2-1.37-4.32c-.06-.21.04-.34.25-.34h.42c.17,0,.28.09.33.25l4,12.6,4-12.6c.05-.16.16-.25.33-.25h.42Z"
           id="path128" />
        <path
           class="cls-2"
           d="M149.94,86.82c.24,0,.33.16.19.36l-4.65,7.07v6.22c0,.19-.1.3-.3.3h-.47c-.19,0-.3-.1-.3-.3v-6.24l-4.63-7.05c-.13-.19-.05-.36.19-.36h.52c.15,0,.27.06.36.19l4.1,6.22,4.1-6.22c.09-.13.21-.19.36-.19h.52Z"
           id="path130" />
        <path
           class="cls-2"
           d="M150.37,93.79c0-3.98,3.02-7.2,7.27-7.2,2.87,0,5.37,1.68,6.34,4.13.08.21-.03.34-.24.34h-.54c-.16,0-.28-.07-.36-.22-.85-1.93-2.88-3.23-5.21-3.23-3.67,0-6.2,2.76-6.2,6.17s2.54,6.18,6.2,6.18c2.33,0,4.36-1.3,5.21-3.23.08-.15.19-.23.36-.23h.54c.21,0,.33.13.25.31-.97,2.47-3.47,4.16-6.36,4.16-4.24,0-7.27-3.22-7.27-7.2"
           id="path132" />
        <path
           class="cls-2"
           d="M166.79,86.82h.47c.19,0,.3.1.3.3v13.35c0,.19-.11.3-.3.3h-.47c-.19,0-.3-.11-.3-.3v-13.35c0-.19.1-.3.3-.3"
           id="path134" />
        <path
           class="cls-2"
           d="M179.35,86.82h.47c.19,0,.3.1.3.3v13.35c0,.19-.1.3-.3.3h-.39c-.16,0-.28-.06-.36-.19l-6.99-11.64v11.53c0,.19-.1.3-.3.3h-.47c-.19,0-.3-.1-.3-.3v-13.35c0-.19.1-.3.3-.3h.39c.16,0,.28.06.36.19l6.99,11.64v-11.53c0-.19.1-.3.3-.3"
           id="path136" />
        <path
           class="cls-2"
           d="M193.71,100.76h-.49c-.16,0-.28-.09-.34-.24l-1.27-3.32h-6.97l-1.27,3.32c-.06.15-.18.24-.34.24h-.49c-.22,0-.31-.13-.24-.34l5.19-13.36c.06-.15.18-.24.34-.24h.61c.16,0,.28.09.34.24l5.19,13.36c.08.21-.01.34-.24.34M191.22,96.21l-3.11-8.1-3.1,8.1h6.21Z"
           id="path138" />
        <path
           class="cls-2"
           d="M208.72,87.12v13.35c0,.2-.1.3-.3.3h-.47c-.19,0-.3-.1-.3-.3v-11.91l-4.61,9.51c-.08.16-.18.22-.34.22h-.57c-.16,0-.27-.06-.34-.22l-4.62-9.51v11.91c0,.2-.1.3-.3.3h-.47c-.19,0-.3-.1-.3-.3v-13.35c0-.19.1-.3.3-.3h.8c.17,0,.27.06.35.22l4.86,10.03,4.86-10.03c.08-.16.18-.22.34-.22h.8c.19,0,.3.1.3.3"
           id="path140" />
        <path
           class="cls-2"
           d="M221.31,87.18l-4.65,7.07v6.22c0,.19-.1.3-.3.3h-.47c-.19,0-.3-.1-.3-.3v-6.24l-4.63-7.05c-.13-.2-.05-.36.19-.36h.52c.15,0,.27.06.36.19l4.1,6.22,4.1-6.22c.09-.13.21-.19.36-.19h.52c.24,0,.33.16.19.36"
           id="path142" />
        <path
           class="cls-2"
           d="M237.2,86.82h.46c.2,0,.3.1.3.3v13.35c0,.19-.1.3-.3.3h-.39c-.16,0-.29-.06-.36-.19l-6.98-11.64v11.53c0,.19-.1.3-.3.3h-.46c-.19,0-.3-.1-.3-.3v-13.35c0-.19.1-.3.3-.3h.39c.16,0,.28.06.36.19l6.99,11.64v-11.53c0-.19.1-.3.3-.3"
           id="path144" />
        <path
           class="cls-2"
           d="M251.55,100.76h-.5c-.16,0-.28-.09-.34-.24l-1.27-3.32h-6.97l-1.27,3.32c-.06.15-.18.24-.34.24h-.49c-.23,0-.31-.13-.24-.34l5.19-13.36c.06-.15.18-.24.34-.24h.61c.16,0,.29.09.34.24l5.19,13.36c.08.21-.01.34-.24.34M249.06,96.21l-3.1-8.1-3.11,8.1h6.21Z"
           id="path146" />
        <path
           class="cls-2"
           d="M258.47,93.79c0-3.98,3.17-7.2,7.2-7.2s7.2,3.22,7.2,7.2-3.17,7.2-7.2,7.2-7.2-3.22-7.2-7.2M271.81,93.79c0-3.42-2.68-6.18-6.14-6.18s-6.14,2.76-6.14,6.18,2.68,6.18,6.14,6.18,6.14-2.76,6.14-6.18"
           id="path148" />
        <path
           class="cls-2"
           d="M284.48,100.76h-.67c-.15,0-.27-.03-.37-.15l-6.85-6.72v6.57c0,.19-.1.3-.3.3h-.47c-.19,0-.3-.1-.3-.3v-13.35c0-.19.1-.3.3-.3h.47c.19,0,.3.1.3.3v6.18l6.65-6.34c.1-.1.21-.15.36-.15h.66c.26,0,.34.2.16.37l-6.69,6.41,6.89,6.79c.18.19.11.37-.15.37"
           id="path150" />
        <path
           class="cls-2"
           d="M297.42,100.39c.17.19.09.37-.16.37h-.61c-.15,0-.27-.05-.37-.16l-4.88-5.55h-3.4v5.41c0,.19-.1.3-.3.3h-.46c-.19,0-.3-.1-.3-.3v-13.35c0-.19.11-.3.3-.3h4.48c2.27,0,4.12,1.85,4.12,4.12,0,1.95-1.37,3.6-3.21,4.01l4.8,5.44ZM287.99,94.05h3.72c1.68,0,3.05-1.41,3.05-3.12s-1.37-3.12-3.05-3.12h-3.72v6.24Z"
           id="path152" />
        <path
           class="cls-2"
           d="M309.66,104.04c.19-.05.3.01.3.21v.3c0,.15-.06.25-.18.28-.27.1-.56.14-.9.14-1.01,0-1.57-.59-1.57-1.45,0-.74.39-1.53,1.52-2.84-.04-.04-.08-.09-.11-.16l-1.27-3.31h-6.98l-1.27,3.31c-.06.15-.18.24-.34.24h-.49c-.22,0-.31-.13-.24-.34l5.19-13.36c.06-.15.18-.24.34-.24h.61c.16,0,.28.09.34.24l5.19,13.36h0c.1.29.04.44-.17.64-.84.83-1.34,1.64-1.34,2.31,0,.76.7.82,1.37.68h0ZM307.07,96.21l-3.11-8.1-3.1,8.1h6.21Z"
           id="path154" />
        <path
           class="cls-2"
           d="M324.32,94.19v6.28c0,.19-.1.3-.3.3h-.47c-.19,0-.3-.1-.3-.3v-2.16c-1.03,1.83-3.15,2.69-5.34,2.69-4.27,0-7.27-3.22-7.27-7.2s3.02-7.2,7.2-7.2c2.87,0,5.37,1.68,6.34,4.13.08.21-.03.34-.24.34h-.53c-.16,0-.28-.08-.36-.23-.85-1.92-2.88-3.23-5.21-3.23-3.6,0-6.14,2.76-6.14,6.18s2.51,6.18,6.2,6.18c2.74,0,5.21-1.49,5.34-4.32v-.76h-4.81c-.19,0-.3-.1-.3-.3v-.4c0-.19.11-.3.3-.3h5.58c.19,0,.3.1.3.3"
           id="path156" />
        <path
           class="cls-5"
           d="M85.9,78.56l-31.7,25.77c-2.44,1.99-6.04,1.62-8.02-.83l-3.35-4.12c-.66-.82-.54-2.01.28-2.67l34.65-28.17c.81-.66,2.01-.54,2.67.28l5.75,7.07c.66.82.54,2.01-.28,2.67"
           id="path158" />
        <path
           class="cls-4"
           d="M51.25,54.55l-25.76,20.95-6.97-8.57c-.65-.8-.53-1.98.27-2.63l22.86-18.59c.8-.65,1.98-.53,2.63.27l6.97,8.57Z"
           id="path160" />
      </g>
      <g
         class="cls-12"
         clip-path="url(#clippath-7)"
         id="g166">
        <polygon
           class="cls-7"
           points="20.11 18.39 110.6 18.3 110.51 100.21 20.03 100.3 20.11 18.39"
           id="polygon164" />
      </g>
      <g
         class="cls-18"
         clip-path="url(#clippath-8)"
         id="g170">
        <path
           class="cls-9"
           d="M107.57,62.2c0,24.24-19.65,43.89-43.89,43.89s-43.89-19.65-43.89-43.89S39.44,18.31,63.67,18.31c4.74,0,9.31.75,13.58,2.14"
           id="path168" />
      </g>
      <g
         class="cls-15"
         clip-path="url(#clippath-9)"
         id="g174">
        <path
           class="cls-1"
           d="M112.62,64.66h-10.11c-.74,0-1.21-.81-.84-1.45l5.06-8.76c.37-.65,1.3-.65,1.68,0l5.06,8.76c.37.65-.1,1.45-.84,1.45"
           id="path172" />
      </g>
    </g>
  </g>
</svg>
