<?xml version="1.0" standalone="no"?>
<!DOCTYPE svg PUBLIC "-//W3C//DTD SVG 20010904//EN"
 "http://www.w3.org/TR/2001/REC-SVG-20010904/DTD/svg10.dtd">
<svg version="1.0" xmlns="http://www.w3.org/2000/svg"
 width="2001.000000pt" height="2001.000000pt" viewBox="0 0 2001.000000 2001.000000"
 preserveAspectRatio="xMidYMid meet">

<g transform="translate(0.000000,2001.000000) scale(0.100000,-0.100000)"
fill="#000000" stroke="none">
<path d="M13510 15433 c-998 -44 -1929 -344 -2750 -888 -549 -363 -997 -794
-1404 -1347 l-57 -78 195 0 194 0 78 98 c337 418 728 775 1169 1067 1380 913
3114 1095 4655 488 661 -260 1262 -660 1766 -1176 1172 -1198 1673 -2864 1358
-4512 -140 -732 -456 -1450 -904 -2050 -160 -215 -294 -370 -494 -571 -201
-200 -356 -334 -571 -494 -1267 -944 -2917 -1237 -4445 -789 -991 290 -1880
887 -2534 1701 l-78 98 -189 0 c-104 0 -189 -4 -189 -8 0 -13 194 -267 298
-392 137 -163 432 -461 602 -608 552 -475 1183 -830 1870 -1051 754 -242 1561
-314 2358 -210 1792 232 3351 1359 4143 2993 290 601 459 1219 520 1911 16
180 16 690 0 870 -49 556 -169 1068 -365 1565 -76 191 -263 570 -369 747 -677
1129 -1711 1961 -2945 2370 -606 200 -1280 294 -1912 266z"/>
<path d="M10570 12099 c-17 -30 -4 -68 24 -75 36 -9 66 12 66 44 0 16 -5 33
-12 40 -20 20 -66 15 -78 -9z"/>
<path d="M12812 12108 c-7 -7 -12 -24 -12 -38 0 -14 5 -31 12 -38 28 -28 88
-2 88 38 0 40 -60 66 -88 38z"/>
<path d="M15041 12106 c-16 -19 -10 -66 10 -79 44 -28 95 25 69 72 -13 25 -61
29 -79 7z"/>
<path d="M9468 11969 c-21 -12 -24 -59 -6 -77 19 -19 66 -15 78 7 29 54 -20
101 -72 70z"/>
<path d="M11701 11966 c-16 -19 -10 -66 10 -79 26 -16 68 0 75 29 12 47 -55
87 -85 50z"/>
<path d="M13931 11966 c-16 -19 -10 -66 10 -79 26 -16 68 0 75 29 12 47 -55
87 -85 50z"/>
<path d="M2635 11958 c-2 -7 -38 -211 -80 -453 -42 -242 -79 -450 -82 -462 -5
-22 -3 -23 69 -23 l74 0 34 193 c37 220 49 265 82 313 46 68 157 102 232 70
54 -22 76 -60 76 -128 0 -47 -37 -286 -66 -420 l-6 -28 74 0 73 0 39 219 c21
121 38 244 38 274 -1 140 -88 220 -237 220 -56 0 -84 -5 -130 -27 -33 -15 -67
-34 -77 -43 -24 -21 -23 -19 7 147 14 74 25 141 25 148 0 8 -21 12 -70 12 -48
0 -72 -4 -75 -12z"/>
<path d="M4285 11958 c-2 -7 -38 -211 -80 -453 -42 -242 -79 -450 -82 -462 -5
-22 -3 -23 69 -23 l74 0 82 468 c45 257 82 470 82 475 0 13 -140 8 -145 -5z"/>
<path d="M6965 11958 c-2 -7 -38 -211 -80 -453 -42 -242 -79 -450 -82 -462 -5
-22 -3 -23 69 -23 l74 0 82 468 c45 257 82 470 82 475 0 13 -140 8 -145 -5z"/>
<path d="M8810 11951 c-16 -31 -12 -49 15 -67 36 -24 75 -6 75 34 0 15 -5 33
-12 40 -19 19 -66 15 -78 -7z"/>
<path d="M9142 11958 c-26 -26 -3 -88 31 -88 24 0 57 31 57 54 0 29 -18 46
-50 46 -14 0 -31 -5 -38 -12z"/>
<path d="M11052 11958 c-28 -28 -3 -88 37 -88 23 0 51 31 51 56 0 27 -19 44
-50 44 -14 0 -31 -5 -38 -12z"/>
<path d="M11377 11963 c-4 -3 -7 -21 -7 -39 0 -41 30 -62 65 -46 52 24 38 92
-19 92 -18 0 -36 -3 -39 -7z"/>
<path d="M13282 11958 c-18 -18 -15 -53 6 -71 24 -22 45 -21 65 1 34 37 15 82
-33 82 -14 0 -31 -5 -38 -12z"/>
<path d="M13607 11963 c-4 -3 -7 -21 -7 -39 0 -41 30 -62 65 -46 52 24 38 92
-19 92 -18 0 -36 -3 -39 -7z"/>
<path d="M10418 11949 c-22 -12 -24 -62 -4 -78 46 -38 111 25 71 69 -20 22
-41 25 -67 9z"/>
<path d="M12658 11949 c-12 -6 -18 -22 -18 -43 0 -36 13 -46 56 -46 46 0 53
77 8 94 -21 8 -26 7 -46 -5z"/>
<path d="M14888 11949 c-23 -13 -25 -74 -2 -83 31 -12 63 -6 74 13 14 28 13
38 -10 61 -22 22 -37 24 -62 9z"/>
<path d="M1290 11886 c0 -23 74 -727 86 -818 l6 -48 81 0 82 0 154 330 c85
181 157 328 159 325 2 -2 20 -149 38 -327 18 -178 34 -324 34 -325 0 -2 37 -3
83 -3 l82 0 150 318 c82 174 177 375 211 445 l61 128 -80 -3 -80 -3 -150 -347
c-83 -192 -153 -348 -157 -348 -3 0 -16 131 -29 291 -13 161 -26 318 -28 350
l-6 59 -81 0 -82 0 -160 -355 c-87 -195 -161 -355 -164 -355 -3 0 -16 138 -28
308 -13 169 -26 328 -29 355 l-6 47 -73 0 c-71 0 -74 -1 -74 -24z"/>
<path d="M9308 11809 c-18 -10 -23 -44 -12 -73 9 -24 71 -21 84 3 14 28 13 38
-10 61 -22 22 -37 24 -62 9z"/>
<path d="M11540 11800 c-38 -38 -15 -84 40 -78 32 3 35 6 38 38 6 55 -40 78
-78 40z"/>
<path d="M13770 11800 c-38 -38 -15 -84 40 -78 32 3 35 6 38 38 6 55 -40 78
-78 40z"/>
<path d="M8982 11798 c-7 -7 -12 -24 -12 -38 0 -32 17 -50 46 -50 23 0 54 33
54 57 0 34 -62 57 -88 31z"/>
<path d="M11210 11791 c-15 -28 -12 -46 8 -64 37 -34 82 -15 82 33 0 14 -5 31
-12 38 -19 19 -66 15 -78 -7z"/>
<path d="M13446 11794 c-21 -21 -20 -47 2 -67 37 -34 82 -15 82 33 0 14 -5 31
-12 38 -17 17 -54 15 -72 -4z"/>
<path d="M10241 11768 c-18 -48 20 -90 64 -70 26 12 35 39 24 70 -7 17 -16 22
-44 22 -28 0 -37 -5 -44 -22z"/>
<path d="M10572 11778 c-33 -33 8 -94 56 -81 26 6 40 48 25 72 -13 20 -64 26
-81 9z"/>
<path d="M12480 11771 c-16 -31 -12 -49 14 -66 49 -32 92 11 70 69 -9 24 -71
21 -84 -3z"/>
<path d="M12812 11778 c-20 -20 -14 -56 13 -74 23 -15 27 -15 50 0 44 29 28
86 -25 86 -14 0 -31 -5 -38 -12z"/>
<path d="M14710 11770 c-24 -44 17 -88 64 -70 26 10 34 38 20 74 -9 24 -71 21
-84 -4z"/>
<path d="M15042 11778 c-20 -20 -14 -56 13 -74 23 -15 27 -15 50 0 44 29 28
86 -25 86 -14 0 -31 -5 -38 -12z"/>
<path d="M3669 11730 c-202 -34 -349 -211 -349 -421 0 -140 76 -250 198 -285
113 -33 260 -4 361 70 177 130 226 397 100 540 -49 56 -94 80 -174 95 -65 12
-69 12 -136 1z m158 -146 c15 -11 38 -40 51 -65 19 -36 23 -55 19 -105 -8
-111 -68 -211 -152 -253 -85 -43 -162 -38 -224 15 -80 67 -59 275 37 367 52
50 100 68 174 64 48 -2 75 -8 95 -23z"/>
<path d="M4800 11726 c-200 -43 -340 -235 -328 -450 7 -121 47 -185 148 -238
38 -20 59 -23 145 -23 87 0 107 4 157 27 32 15 74 39 93 54 32 24 105 113 105
128 0 3 -34 6 -75 6 -74 0 -76 -1 -116 -39 -66 -65 -170 -78 -246 -31 -37 22
-58 58 -68 118 l-7 42 275 0 275 0 12 65 c32 170 -43 300 -196 340 -68 17 -99
18 -174 1z m149 -134 c47 -23 72 -61 78 -116 l6 -46 -197 0 c-154 0 -196 3
-196 13 0 7 13 34 29 59 29 45 69 80 112 97 40 16 131 13 168 -7z"/>
<path d="M5520 11730 c-130 -22 -210 -99 -210 -201 0 -94 48 -143 211 -213
121 -53 149 -79 133 -123 -15 -43 -53 -64 -120 -65 -79 -3 -125 22 -138 75
l-10 37 -69 0 -70 0 5 -50 c10 -101 102 -170 239 -178 173 -10 309 76 309 197
0 94 -49 147 -193 207 -114 48 -147 75 -147 119 0 54 44 85 121 85 69 0 119
-38 119 -89 0 -19 6 -21 71 -21 l72 0 -5 50 c-7 65 -45 115 -112 145 -59 26
-141 36 -206 25z"/>
<path d="M6250 11724 c-146 -40 -264 -167 -300 -322 -16 -69 -9 -197 13 -239
49 -93 125 -143 228 -151 84 -6 157 15 231 66 l55 40 -8 -37 c-14 -62 -15 -61
64 -61 l73 0 58 333 c32 182 60 342 63 355 5 21 3 22 -70 22 l-75 0 -7 -50 -7
-51 -40 37 c-22 20 -55 42 -72 49 -53 22 -145 26 -206 9z m176 -133 c99 -45
126 -178 63 -308 -25 -51 -97 -118 -146 -134 -53 -17 -143 -7 -182 21 -94 66
-93 238 1 345 76 86 178 115 264 76z"/>
<path d="M7480 11726 c-200 -43 -340 -235 -328 -450 7 -121 47 -185 148 -238
38 -20 59 -23 145 -23 87 0 107 4 157 27 32 15 74 39 93 54 32 24 105 113 105
128 0 3 -34 6 -75 6 -74 0 -76 -1 -116 -39 -66 -65 -170 -78 -246 -31 -37 22
-58 58 -68 118 l-7 42 275 0 275 0 12 65 c32 170 -43 300 -196 340 -68 17 -99
18 -174 1z m149 -134 c47 -23 72 -61 78 -116 l6 -46 -197 0 c-154 0 -196 3
-196 13 0 7 13 34 29 59 29 45 69 80 112 97 40 16 131 13 168 -7z"/>
<path d="M8814 11625 c-24 -36 -6 -75 34 -75 35 0 52 16 52 52 0 49 -59 65
-86 23z"/>
<path d="M9130 11630 c-24 -45 21 -92 66 -71 27 12 33 58 12 79 -20 20 -66 15
-78 -8z"/>
<path d="M9462 11638 c-33 -33 6 -96 52 -84 29 7 45 49 29 75 -13 20 -64 26
-81 9z"/>
<path d="M11056 11634 c-19 -18 -21 -55 -4 -72 7 -7 24 -12 38 -12 34 0 50 17
50 52 0 43 -53 64 -84 32z"/>
<path d="M11372 11638 c-33 -33 6 -96 52 -84 29 7 45 49 29 75 -13 20 -64 26
-81 9z"/>
<path d="M11701 11636 c-21 -26 -10 -69 22 -80 23 -8 31 -6 49 12 18 18 20 26
12 49 -7 21 -17 29 -40 31 -18 2 -36 -3 -43 -12z"/>
<path d="M13286 11634 c-19 -18 -20 -38 -6 -65 12 -22 59 -26 78 -7 19 19 15
66 -7 78 -27 14 -47 13 -65 -6z"/>
<path d="M13602 11638 c-18 -18 -14 -53 8 -73 44 -40 107 25 69 71 -14 17 -60
19 -77 2z"/>
<path d="M13931 11636 c-21 -26 -10 -69 22 -80 23 -8 31 -6 49 12 18 18 20 26
12 49 -7 21 -17 29 -40 31 -18 2 -36 -3 -43 -12z"/>
<path d="M10718 11619 c-21 -12 -24 -59 -6 -77 19 -19 66 -15 78 7 29 54 -20
101 -72 70z"/>
<path d="M12951 11616 c-16 -19 -10 -66 10 -79 24 -15 66 -1 72 25 13 49 -51
91 -82 54z"/>
<path d="M15181 11616 c-16 -19 -10 -66 10 -79 23 -14 67 0 74 24 15 47 -54
92 -84 55z"/>
<path d="M8631 11456 c-21 -26 -10 -69 22 -80 23 -8 31 -6 49 12 18 18 20 26
12 49 -7 21 -17 29 -40 31 -18 2 -36 -3 -43 -12z"/>
<path d="M8950 11450 c-24 -45 21 -92 66 -71 27 12 33 58 12 79 -20 20 -66 15
-78 -8z"/>
<path d="M9912 11458 c-7 -7 -12 -24 -12 -38 0 -14 5 -31 12 -38 28 -28 88 -2
88 38 0 40 -60 66 -88 38z"/>
<path d="M10866 11449 c-18 -27 -8 -60 25 -76 31 -16 63 3 67 39 6 52 -62 79
-92 37z"/>
<path d="M11192 11458 c-33 -33 6 -96 52 -84 29 7 45 49 29 75 -13 20 -64 26
-81 9z"/>
<path d="M12144 11445 c-15 -23 -15 -27 0 -50 29 -44 86 -28 86 25 0 53 -57
69 -86 25z"/>
<path d="M13102 11458 c-17 -17 -15 -63 3 -78 35 -29 95 -7 95 36 0 41 -69 71
-98 42z"/>
<path d="M13422 11458 c-33 -33 6 -96 52 -84 29 7 45 49 29 75 -13 20 -64 26
-81 9z"/>
<path d="M14374 11445 c-15 -23 -15 -27 0 -50 10 -15 26 -25 41 -25 15 0 31
10 41 25 15 23 15 27 0 50 -10 15 -26 25 -41 25 -15 0 -31 -10 -41 -25z"/>
<path d="M15352 11454 c-28 -19 -26 -61 3 -80 50 -33 102 46 53 80 -12 9 -25
16 -28 16 -3 0 -16 -7 -28 -16z"/>
<path d="M10070 11300 c-38 -38 -15 -84 40 -78 32 3 35 6 38 38 6 55 -40 78
-78 40z"/>
<path d="M12312 11304 c-41 -29 -23 -84 28 -84 31 0 50 17 50 45 0 44 -42 65
-78 39z"/>
<path d="M14542 11304 c-41 -29 -23 -84 28 -84 31 0 50 17 50 45 0 44 -42 65
-78 39z"/>
<path d="M8796 11294 c-32 -31 -11 -84 32 -84 35 0 52 16 52 50 0 14 -5 31
-12 38 -17 17 -54 15 -72 -4z"/>
<path d="M9758 11298 c-21 -18 -27 -39 -17 -65 7 -18 16 -23 44 -23 28 0 37 5
44 23 5 12 6 29 3 37 -6 18 -32 40 -47 40 -6 0 -18 -6 -27 -12z"/>
<path d="M11032 11298 c-39 -39 13 -113 63 -90 32 15 36 76 6 92 -26 13 -54
13 -69 -2z"/>
<path d="M11985 11290 c-27 -29 -10 -74 28 -78 37 -4 57 13 57 49 0 47 -53 65
-85 29z"/>
<path d="M13261 11296 c-7 -8 -11 -27 -9 -43 7 -65 108 -69 108 -4 0 49 -70
82 -99 47z"/>
<path d="M14215 11290 c-27 -29 -10 -74 28 -78 37 -4 57 13 57 49 0 47 -53 65
-85 29z"/>
<path d="M10712 11288 c-20 -20 -15 -66 9 -78 30 -17 68 -4 75 24 9 36 -12 66
-44 66 -16 0 -33 -5 -40 -12z"/>
<path d="M12952 11288 c-7 -7 -12 -24 -12 -38 0 -32 17 -50 46 -50 23 0 54 33
54 57 0 34 -62 57 -88 31z"/>
<path d="M15182 11288 c-7 -7 -12 -24 -12 -38 0 -32 17 -50 46 -50 23 0 54 33
54 57 0 34 -62 57 -88 31z"/>
<path d="M15498 11274 c-13 -27 -5 -49 24 -68 27 -17 68 8 68 42 0 15 -5 33
-12 40 -22 22 -67 14 -80 -14z"/>
<path d="M8960 11130 c-46 -46 0 -98 64 -74 24 9 21 71 -3 84 -28 14 -38 13
-61 -10z"/>
<path d="M10232 11138 c-19 -19 -15 -66 7 -78 31 -16 49 -12 67 15 24 36 6 75
-34 75 -15 0 -33 -5 -40 -12z"/>
<path d="M11197 11132 c-34 -37 -15 -82 33 -82 32 0 50 17 50 46 0 48 -52 70
-83 36z"/>
<path d="M12458 11125 c-9 -19 -8 -29 6 -50 18 -27 36 -31 67 -15 22 12 26 59
7 78 -22 22 -67 14 -80 -13z"/>
<path d="M13427 11132 c-34 -37 -15 -82 33 -82 34 0 50 17 50 52 0 45 -53 64
-83 30z"/>
<path d="M14688 11125 c-9 -19 -8 -29 6 -50 18 -27 36 -31 67 -15 22 12 26 59
7 78 -22 22 -67 14 -80 -13z"/>
<path d="M9582 11128 c-33 -33 8 -94 56 -81 26 6 40 48 25 72 -13 20 -64 26
-81 9z"/>
<path d="M9912 11128 c-13 -13 -16 -47 -4 -64 24 -36 92 -14 92 29 0 30 -18
47 -50 47 -14 0 -31 -5 -38 -12z"/>
<path d="M11822 11128 c-20 -20 -14 -56 13 -74 23 -15 27 -15 50 0 44 29 28
86 -25 86 -14 0 -31 -5 -38 -12z"/>
<path d="M12147 11133 c-4 -3 -7 -21 -7 -40 0 -27 5 -35 26 -43 47 -18 88 26
64 70 -7 14 -21 20 -44 20 -18 0 -36 -3 -39 -7z"/>
<path d="M14052 11128 c-20 -20 -14 -56 13 -74 23 -15 27 -15 50 0 44 29 28
86 -25 86 -14 0 -31 -5 -38 -12z"/>
<path d="M14377 11133 c-4 -3 -7 -21 -7 -40 0 -27 5 -35 26 -43 47 -18 88 26
64 70 -7 14 -21 20 -44 20 -18 0 -36 -3 -39 -7z"/>
<path d="M10065 10970 c-24 -27 -13 -68 22 -76 34 -9 57 6 61 40 6 53 -47 76
-83 36z"/>
<path d="M10392 10978 c-20 -20 -15 -66 9 -78 47 -26 100 25 72 69 -13 20 -64
26 -81 9z"/>
<path d="M12306 10974 c-19 -18 -20 -38 -6 -65 12 -22 59 -26 78 -7 19 19 15
66 -7 78 -27 14 -47 13 -65 -6z"/>
<path d="M12632 10978 c-7 -7 -12 -24 -12 -38 0 -14 5 -31 12 -38 28 -28 88
-2 88 38 0 40 -60 66 -88 38z"/>
<path d="M14536 10974 c-19 -18 -20 -38 -6 -65 12 -22 59 -26 78 -7 19 19 15
66 -7 78 -27 14 -47 13 -65 -6z"/>
<path d="M14862 10978 c-7 -7 -12 -24 -12 -38 0 -14 5 -31 12 -38 28 -28 88
-2 88 38 0 40 -60 66 -88 38z"/>
<path d="M9810 10463 c-123 -21 -191 -83 -221 -203 l-17 -65 -40 -3 c-44 -3
-46 -6 -57 -79 l-7 -43 41 0 c23 0 41 -2 41 -5 0 -2 -22 -132 -50 -287 -27
-155 -50 -286 -50 -290 0 -4 33 -8 73 -8 l72 0 48 278 c27 152 51 285 53 295
4 14 17 17 69 17 63 0 63 0 69 30 3 17 9 44 12 60 l6 30 -67 0 -67 0 7 33 c16
82 39 108 107 121 30 5 38 12 42 36 3 17 9 44 12 60 5 28 4 30 -23 29 -15 -1
-39 -4 -53 -6z"/>
<path d="M3587 10423 c-3 -5 -17 -81 -32 -170 l-28 -162 -39 35 c-120 108
-325 88 -457 -47 -93 -94 -137 -213 -129 -347 5 -83 20 -120 70 -177 54 -62
100 -80 203 -80 99 0 153 18 225 75 l38 30 -9 -37 c-15 -64 -15 -63 64 -63
l73 0 82 468 c45 257 82 470 82 475 0 4 -31 7 -69 7 -39 0 -72 -3 -74 -7z
m-201 -372 c99 -45 126 -178 63 -308 -25 -51 -97 -118 -146 -134 -53 -17 -143
-7 -182 21 -94 66 -93 238 1 345 76 86 178 115 264 76z"/>
<path d="M13107 10423 c-3 -5 -17 -81 -32 -170 l-28 -162 -39 35 c-120 108
-325 88 -457 -47 -93 -94 -137 -213 -129 -347 5 -83 20 -120 70 -177 54 -62
100 -80 203 -80 99 0 153 18 225 75 l38 30 -9 -37 c-15 -64 -15 -63 64 -63
l73 0 82 468 c45 257 82 470 82 475 0 4 -31 7 -69 7 -39 0 -72 -3 -74 -7z
m-201 -372 c99 -45 126 -178 63 -308 -25 -51 -97 -118 -146 -134 -53 -17 -143
-7 -182 21 -94 66 -93 238 1 345 76 86 178 115 264 76z"/>
<path d="M7927 10343 c-3 -10 -11 -48 -17 -85 l-12 -68 -43 0 -42 0 -10 -60
-9 -59 41 -3 41 -3 -40 -227 c-39 -221 -39 -227 -23 -270 25 -64 60 -81 178
-86 108 -5 101 -10 114 76 l7 42 -60 0 c-43 0 -66 5 -82 18 l-23 18 38 217 39
217 86 0 87 0 10 60 10 60 -84 0 c-95 0 -90 -7 -69 103 l13 67 -73 0 c-61 0
-73 -3 -77 -17z"/>
<path d="M15057 10343 c-3 -10 -11 -48 -17 -85 l-12 -68 -43 0 -42 0 -10 -60
-9 -59 41 -3 41 -3 -40 -227 c-39 -221 -39 -227 -23 -270 25 -64 60 -81 178
-86 108 -5 101 -10 114 76 l7 42 -60 0 c-43 0 -66 5 -82 18 l-23 18 38 217 39
217 86 0 87 0 10 60 10 60 -84 0 c-95 0 -90 -7 -69 103 l13 67 -73 0 c-61 0
-73 -3 -77 -17z"/>
<path d="M1520 10184 c-146 -40 -264 -167 -300 -322 -16 -69 -9 -197 13 -239
49 -93 125 -143 228 -151 84 -6 157 15 231 66 l55 40 -8 -37 c-14 -62 -15 -61
64 -61 l73 0 58 333 c32 182 60 342 63 355 5 21 3 22 -70 22 l-75 0 -7 -50 -7
-51 -40 37 c-22 20 -55 42 -72 49 -53 22 -145 26 -206 9z m176 -133 c99 -45
126 -178 63 -308 -25 -51 -97 -118 -146 -134 -53 -17 -143 -7 -182 21 -94 66
-93 238 1 345 76 86 178 115 264 76z"/>
<path d="M2477 10190 c-43 -11 -114 -45 -141 -69 -18 -15 -19 -15 -12 27 l6
42 -73 0 -73 0 -58 -332 c-32 -183 -60 -343 -63 -355 -5 -22 -3 -23 69 -23
l74 0 34 193 c37 220 49 265 82 313 46 68 157 102 232 70 54 -22 76 -60 76
-128 0 -47 -37 -286 -66 -420 l-6 -28 74 0 73 0 39 219 c21 121 38 244 38 274
-1 95 -46 169 -122 201 -47 19 -137 27 -183 16z"/>
<path d="M4490 10186 c-200 -43 -340 -235 -328 -450 7 -121 47 -185 148 -238
38 -20 59 -23 145 -23 87 0 107 4 157 27 32 15 74 39 93 54 32 24 105 113 105
128 0 3 -34 6 -75 6 -74 0 -76 -1 -116 -39 -66 -65 -170 -78 -246 -31 -37 22
-58 58 -68 118 l-7 42 275 0 275 0 12 65 c32 170 -43 300 -196 340 -68 17 -99
18 -174 1z m149 -134 c47 -23 72 -61 78 -116 l6 -46 -197 0 c-154 0 -196 3
-196 13 0 7 13 34 29 59 29 45 69 80 112 97 40 16 131 13 168 -7z"/>
<path d="M6023 10190 c-63 -13 -124 -43 -167 -81 -31 -26 -38 -29 -33 -14 3
11 8 37 12 58 l6 37 -74 0 -73 0 -88 -502 c-48 -277 -90 -513 -93 -525 -5 -22
-3 -23 69 -23 l74 0 33 193 c18 105 36 205 38 220 l6 28 30 -31 c47 -48 104
-72 179 -78 211 -15 402 175 416 414 5 99 -13 163 -63 221 -58 68 -175 103
-272 83z m97 -142 c65 -33 93 -90 87 -179 -10 -155 -119 -268 -258 -269 -174
0 -233 207 -107 372 69 90 187 122 278 76z"/>
<path d="M6799 10190 c-202 -34 -349 -211 -349 -421 0 -140 76 -250 198 -285
113 -33 260 -4 361 70 177 130 226 397 100 540 -49 56 -94 80 -174 95 -65 12
-69 12 -136 1z m158 -146 c15 -11 38 -40 51 -65 19 -36 23 -55 19 -105 -8
-111 -68 -211 -152 -253 -85 -43 -162 -38 -224 15 -80 67 -59 275 37 367 52
50 100 68 174 64 48 -2 75 -8 95 -23z"/>
<path d="M7680 10186 c-58 -15 -113 -49 -146 -89 l-25 -32 5 33 c3 17 9 46 12
62 l6 30 -74 0 -74 0 -58 -332 c-32 -183 -60 -343 -63 -355 -5 -22 -3 -23 69
-23 l74 0 33 193 c35 199 52 265 80 304 23 34 78 60 143 68 l56 7 11 62 c17
98 21 91 -49 72z"/>
<path d="M8969 10190 c-202 -34 -349 -211 -349 -421 0 -140 76 -250 198 -285
113 -33 260 -4 361 70 177 130 226 397 100 540 -49 56 -94 80 -174 95 -65 12
-69 12 -136 1z m158 -146 c15 -11 38 -40 51 -65 19 -36 23 -55 19 -105 -8
-111 -68 -211 -152 -253 -85 -43 -162 -38 -224 15 -80 67 -59 275 37 367 52
50 100 68 174 64 48 -2 75 -8 95 -23z"/>
<path d="M10693 10190 c-63 -13 -124 -43 -167 -81 -31 -26 -38 -29 -33 -14 3
11 8 37 12 58 l6 37 -74 0 -73 0 -88 -502 c-48 -277 -90 -513 -93 -525 -5 -22
-3 -23 69 -23 l74 0 33 193 c18 105 36 205 38 220 l6 28 30 -31 c47 -48 104
-72 179 -78 211 -15 402 175 416 414 5 99 -13 163 -63 221 -58 68 -175 103
-272 83z m97 -142 c65 -33 93 -90 87 -179 -10 -155 -119 -268 -258 -269 -174
0 -233 207 -107 372 69 90 187 122 278 76z"/>
<path d="M11530 10186 c-58 -15 -113 -49 -146 -89 l-25 -32 5 33 c3 17 9 46
12 62 l6 30 -74 0 -74 0 -58 -332 c-32 -183 -60 -343 -63 -355 -5 -22 -3 -23
69 -23 l74 0 33 193 c35 199 52 265 80 304 23 34 78 60 143 68 l56 7 11 62
c17 98 21 91 -49 72z"/>
<path d="M11959 10190 c-202 -34 -349 -211 -349 -421 0 -140 76 -250 198 -285
113 -33 260 -4 361 70 177 130 226 397 100 540 -49 56 -94 80 -174 95 -65 12
-69 12 -136 1z m158 -146 c15 -11 38 -40 51 -65 19 -36 23 -55 19 -105 -8
-111 -68 -211 -152 -253 -85 -43 -162 -38 -224 15 -80 67 -59 275 37 367 52
50 100 68 174 64 48 -2 75 -8 95 -23z"/>
<path d="M14445 10186 c-195 -50 -325 -222 -325 -428 0 -95 16 -141 67 -198
145 -161 461 -96 572 118 12 22 11 22 -64 22 l-75 0 -43 -44 c-64 -66 -144
-83 -225 -46 -53 24 -81 79 -82 161 0 110 47 214 122 266 37 25 50 28 119 28
72 0 80 -2 108 -29 16 -15 32 -39 35 -52 6 -23 10 -24 86 -24 l80 0 -6 28
c-12 51 -41 107 -73 139 -56 56 -198 85 -296 59z"/>
<path d="M15630 10190 c-130 -22 -210 -99 -210 -201 0 -94 48 -143 211 -213
121 -53 149 -79 133 -123 -15 -43 -53 -64 -120 -65 -79 -3 -125 22 -138 75
l-10 37 -69 0 -70 0 5 -50 c10 -101 102 -170 239 -178 173 -10 309 76 309 197
0 94 -49 147 -193 207 -114 48 -147 75 -147 119 0 54 44 85 121 85 69 0 119
-38 119 -89 0 -19 6 -21 71 -21 l72 0 -5 50 c-7 65 -45 115 -112 145 -59 26
-141 36 -206 25z"/>
<path d="M4994 10158 c8 -18 44 -98 80 -177 36 -79 66 -148 66 -153 0 -7 -147
-188 -268 -330 -14 -17 -10 -18 61 -18 l76 0 92 120 93 119 34 -72 c18 -39 43
-93 54 -119 l20 -48 84 0 83 0 -35 78 c-101 218 -125 276 -121 286 3 6 66 84
141 173 75 89 136 165 136 168 0 3 -33 5 -73 5 l-72 0 -95 -122 -94 -121 -53
113 c-29 62 -53 117 -53 121 0 5 -38 9 -85 9 l-85 0 14 -32z"/>
<path d="M13396 10173 c-13 -45 -76 -433 -76 -472 0 -104 48 -177 136 -210 92
-35 191 -25 269 28 63 42 65 43 61 29 -3 -7 -7 -25 -10 -40 l-6 -28 75 0 c41
0 75 3 75 7 0 3 27 158 60 345 33 186 60 343 60 349 0 6 -27 9 -72 7 l-72 -3
-37 -213 c-40 -227 -48 -258 -87 -304 -42 -49 -96 -71 -169 -66 -55 3 -68 8
-95 35 -46 47 -47 97 -4 338 20 109 36 203 36 207 0 4 -31 8 -69 8 -58 0 -71
-3 -75 -17z"/>
<path d="M3515 8888 c-2 -7 -38 -211 -80 -453 -42 -242 -79 -450 -82 -462 -5
-22 -3 -23 69 -23 l74 0 34 193 c37 220 49 265 82 313 46 68 157 102 232 70
54 -22 76 -60 76 -128 0 -47 -37 -286 -66 -420 l-6 -28 74 0 73 0 39 219 c21
121 38 244 38 274 -1 140 -88 220 -237 220 -56 0 -84 -5 -130 -27 -33 -15 -67
-34 -77 -43 -24 -21 -23 -19 7 147 14 74 25 141 25 148 0 8 -21 12 -70 12 -48
0 -72 -4 -75 -12z"/>
<path d="M14755 8888 c-2 -7 -38 -211 -80 -453 -42 -242 -79 -450 -82 -462 -5
-22 -3 -23 69 -23 l75 0 23 138 c12 75 26 141 30 145 4 5 52 -57 106 -137 l99
-146 98 0 98 0 -22 33 c-13 17 -69 94 -126 169 -56 75 -104 141 -105 145 -2 7
148 148 376 354 6 5 -35 9 -93 9 l-102 0 -155 -152 c-85 -83 -154 -147 -154
-143 0 5 20 122 45 262 25 139 45 257 45 263 0 15 -140 13 -145 -2z"/>
<path d="M5505 8828 c-2 -7 -36 -197 -75 -423 -40 -225 -74 -420 -77 -432 l-5
-23 245 0 c273 0 248 -7 262 73 l6 37 -171 0 c-129 0 -170 3 -170 13 0 6 10
69 22 140 l23 127 151 0 c168 0 158 -5 169 74 l7 46 -151 0 c-114 0 -151 3
-151 13 0 6 9 64 20 127 11 63 20 118 20 123 0 4 78 7 174 7 l174 0 6 38 c4
20 9 45 12 55 5 16 -11 17 -241 17 -188 0 -247 -3 -250 -12z"/>
<path d="M16712 8548 c-24 -161 -46 -301 -49 -311 -4 -16 2 -18 58 -15 l64 3
56 275 c30 151 58 290 62 308 l7 32 -78 0 -77 0 -43 -292z"/>
<path d="M1377 8813 c-3 -10 -11 -48 -17 -85 l-12 -68 -43 0 -42 0 -10 -60 -9
-59 41 -3 41 -3 -40 -227 c-39 -221 -39 -227 -23 -270 25 -64 60 -81 178 -86
108 -5 101 -10 114 76 l7 42 -60 0 c-43 0 -66 5 -82 18 l-23 18 38 217 39 217
86 0 87 0 10 60 10 60 -84 0 c-95 0 -90 -7 -69 103 l13 67 -73 0 c-61 0 -73
-3 -77 -17z"/>
<path d="M3047 8813 c-3 -10 -11 -48 -17 -85 l-12 -68 -43 0 -42 0 -10 -60 -9
-59 41 -3 41 -3 -40 -227 c-39 -221 -39 -227 -23 -270 25 -64 60 -81 178 -86
108 -5 101 -10 114 76 l7 42 -60 0 c-43 0 -66 5 -82 18 l-23 18 38 217 39 217
86 0 87 0 10 60 10 60 -84 0 c-95 0 -90 -7 -69 103 l13 67 -73 0 c-61 0 -73
-3 -77 -17z"/>
<path d="M16267 8813 c-3 -10 -11 -48 -17 -85 l-12 -68 -43 0 -42 0 -10 -60
-9 -59 41 -3 41 -3 -40 -227 c-39 -221 -39 -227 -23 -270 25 -64 60 -81 178
-86 108 -5 101 -10 114 76 l7 42 -60 0 c-43 0 -66 5 -82 18 l-23 18 38 217 39
217 86 0 87 0 10 60 10 60 -84 0 c-95 0 -90 -7 -69 103 l13 67 -73 0 c-61 0
-73 -3 -77 -17z"/>
<path d="M2029 8660 c-202 -34 -349 -211 -349 -421 0 -140 76 -250 198 -285
113 -33 260 -4 361 70 177 130 226 397 100 540 -49 56 -94 80 -174 95 -65 12
-69 12 -136 1z m158 -146 c15 -11 38 -40 51 -65 19 -36 23 -55 19 -105 -8
-111 -68 -211 -152 -253 -85 -43 -162 -38 -224 15 -80 67 -59 275 37 367 52
50 100 68 174 64 48 -2 75 -8 95 -23z"/>
<path d="M4520 8656 c-200 -43 -340 -235 -328 -450 7 -121 47 -185 148 -238
38 -20 59 -23 145 -23 87 0 107 4 157 27 32 15 74 39 93 54 32 24 105 113 105
128 0 3 -34 6 -75 6 -74 0 -76 -1 -116 -39 -66 -65 -170 -78 -246 -31 -37 22
-58 58 -68 118 l-7 42 275 0 275 0 12 65 c32 170 -43 300 -196 340 -68 17 -99
18 -174 1z m149 -134 c47 -23 72 -61 78 -116 l6 -46 -197 0 c-154 0 -196 3
-196 13 0 7 13 34 29 59 29 45 69 80 112 97 40 16 131 13 168 -7z"/>
<path d="M7280 8656 c-58 -15 -113 -49 -146 -89 l-25 -32 5 33 c3 17 9 46 12
62 l6 30 -74 0 -74 0 -58 -332 c-32 -183 -60 -343 -63 -355 -5 -22 -3 -23 69
-23 l74 0 33 193 c35 199 52 265 80 304 23 34 78 60 143 68 l56 7 11 62 c17
98 21 91 -49 72z"/>
<path d="M7709 8660 c-202 -34 -349 -211 -349 -421 0 -140 76 -250 198 -285
113 -33 260 -4 361 70 177 130 226 397 100 540 -49 56 -94 80 -174 95 -65 12
-69 12 -136 1z m158 -146 c15 -11 38 -40 51 -65 19 -36 23 -55 19 -105 -8
-111 -68 -211 -152 -253 -85 -43 -162 -38 -224 15 -80 67 -59 275 37 367 52
50 100 68 174 64 48 -2 75 -8 95 -23z"/>
<path d="M8613 8660 c-63 -13 -124 -43 -167 -81 -31 -26 -38 -29 -33 -14 3 11
8 37 12 58 l6 37 -74 0 -73 0 -88 -502 c-48 -277 -90 -513 -93 -525 -5 -22 -3
-23 69 -23 l74 0 33 193 c18 105 36 205 38 220 l6 28 30 -31 c47 -48 104 -72
179 -78 211 -15 402 175 416 414 5 99 -13 163 -63 221 -58 68 -175 103 -272
83z m97 -142 c65 -33 93 -90 87 -179 -10 -155 -119 -268 -258 -269 -174 0
-233 207 -107 372 69 90 187 122 278 76z"/>
<path d="M9370 8656 c-200 -43 -340 -235 -328 -450 7 -121 47 -185 148 -238
38 -20 59 -23 145 -23 87 0 107 4 157 27 32 15 74 39 93 54 32 24 105 113 105
128 0 3 -34 6 -75 6 -74 0 -76 -1 -116 -39 -66 -65 -170 -78 -246 -31 -37 22
-58 58 -68 118 l-7 42 275 0 275 0 12 65 c32 170 -43 300 -196 340 -68 17 -99
18 -174 1z m149 -134 c47 -23 72 -61 78 -116 l6 -46 -197 0 c-154 0 -196 3
-196 13 0 7 13 34 29 59 29 45 69 80 112 97 40 16 131 13 168 -7z"/>
<path d="M10140 8654 c-146 -40 -264 -167 -300 -322 -16 -69 -9 -197 13 -239
49 -93 125 -143 228 -151 84 -6 157 15 231 66 l55 40 -8 -37 c-14 -62 -15 -61
64 -61 l73 0 58 333 c32 182 60 342 63 355 5 21 3 22 -70 22 l-75 0 -7 -50 -7
-51 -40 37 c-22 20 -55 42 -72 49 -53 22 -145 26 -206 9z m176 -133 c99 -45
126 -178 63 -308 -25 -51 -97 -118 -146 -134 -53 -17 -143 -7 -182 21 -94 66
-93 238 1 345 76 86 178 115 264 76z"/>
<path d="M11107 8660 c-43 -11 -114 -45 -141 -69 -18 -15 -19 -15 -12 27 l6
42 -73 0 -73 0 -58 -332 c-32 -183 -60 -343 -63 -355 -5 -22 -3 -23 69 -23
l74 0 34 193 c37 220 49 265 82 313 46 68 157 102 232 70 54 -22 76 -60 76
-128 0 -47 -37 -286 -66 -420 l-6 -28 74 0 73 0 39 219 c21 121 38 244 38 274
-1 95 -46 169 -122 201 -47 19 -137 27 -183 16z"/>
<path d="M12301 8654 c-29 -8 -74 -28 -99 -45 l-45 -30 7 40 6 41 -73 0 -73 0
-58 -332 c-32 -183 -60 -343 -63 -355 -5 -22 -3 -23 69 -23 l74 0 34 193 c37
220 49 265 82 313 46 68 157 102 232 70 54 -22 76 -60 76 -128 0 -47 -37 -286
-66 -420 l-6 -28 74 0 73 0 39 218 c40 230 61 290 114 329 58 42 136 54 195
29 85 -35 93 -94 48 -346 -17 -96 -34 -188 -37 -203 l-6 -28 74 3 73 3 37 205
c20 113 37 236 37 274 1 129 -60 204 -183 225 -107 19 -206 -12 -286 -88 l-41
-39 -15 29 c-21 42 -87 86 -145 98 -63 14 -81 13 -148 -5z"/>
<path d="M13550 8654 c-146 -40 -264 -167 -300 -322 -16 -69 -9 -197 13 -239
49 -93 125 -143 228 -151 84 -6 157 15 231 66 l55 40 -8 -37 c-14 -62 -15 -61
64 -61 l73 0 58 333 c32 182 60 342 63 355 5 21 3 22 -70 22 l-75 0 -7 -50 -7
-51 -40 37 c-22 20 -55 42 -72 49 -53 22 -145 26 -206 9z m176 -133 c99 -45
126 -178 63 -308 -25 -51 -97 -118 -146 -134 -53 -17 -143 -7 -182 21 -94 66
-93 238 1 345 76 86 178 115 264 76z"/>
<path d="M14520 8656 c-58 -15 -113 -49 -146 -89 l-25 -32 5 33 c3 17 9 46 12
62 l6 30 -74 0 -74 0 -58 -332 c-32 -183 -60 -343 -63 -355 -5 -22 -3 -23 69
-23 l74 0 33 193 c35 199 52 265 80 304 23 34 78 60 143 68 l56 7 11 62 c17
98 21 91 -49 72z"/>
<path d="M15640 8656 c-200 -43 -340 -235 -328 -450 7 -121 47 -185 148 -238
38 -20 59 -23 145 -23 87 0 107 4 157 27 32 15 74 39 93 54 32 24 105 113 105
128 0 3 -34 6 -75 6 -74 0 -76 -1 -116 -39 -66 -65 -170 -78 -246 -31 -37 22
-58 58 -68 118 l-7 42 275 0 275 0 12 65 c32 170 -43 300 -196 340 -68 17 -99
18 -174 1z m149 -134 c47 -23 72 -61 78 -116 l6 -46 -197 0 c-154 0 -196 3
-196 13 0 7 13 34 29 59 29 45 69 80 112 97 40 16 131 13 168 -7z"/>
<path d="M6136 8643 c-13 -45 -76 -433 -76 -472 0 -104 48 -177 136 -210 92
-35 191 -25 269 28 63 42 65 43 61 29 -3 -7 -7 -25 -10 -40 l-6 -28 75 0 c41
0 75 3 75 7 0 3 27 158 60 345 33 186 60 343 60 349 0 6 -27 9 -72 7 l-72 -3
-37 -213 c-40 -227 -48 -258 -87 -304 -42 -49 -96 -71 -169 -66 -55 3 -68 8
-95 35 -46 47 -47 97 -4 338 20 109 36 203 36 207 0 4 -31 8 -69 8 -58 0 -71
-3 -75 -17z"/>
<path d="M16674 8120 c-34 -13 -74 -69 -74 -101 0 -19 10 -40 26 -56 21 -21
32 -24 61 -20 93 15 136 134 63 172 -32 17 -45 18 -76 5z"/>
</g>
</svg>
