<?xml version="1.0" encoding="UTF-8" standalone="no"?>
<!-- Created with Inkscape (http://www.inkscape.org/) -->

<svg
   version="1.0"
   width="300"
   height="280"
   id="svg2"
   xmlns="http://www.w3.org/2000/svg"
   xmlns:svg="http://www.w3.org/2000/svg"
   xmlns:rdf="http://www.w3.org/1999/02/22-rdf-syntax-ns#"
   xmlns:cc="http://creativecommons.org/ns#"
   xmlns:dc="http://purl.org/dc/elements/1.1/">
  <metadata
     id="metadata1386">
    <rdf:RDF>
      <cc:Work
         rdf:about="">
        <dc:format>image/svg+xml</dc:format>
        <dc:type
           rdf:resource="http://purl.org/dc/dcmitype/StillImage" />
      </cc:Work>
    </rdf:RDF>
  </metadata>
  <defs
     id="defs5" />
  <path
     d="m 254.22119,270.49694 c -2.28485,-0.79009 -4.83407,-1.63056 -5.66492,-1.8677 -0.83085,-0.23713 -2.36039,-0.97956 -3.39895,-1.64979 -1.03857,-0.67028 -3.14667,-1.60384 -4.68468,-2.07469 -1.60475,-0.49125 -2.99947,-1.46009 -3.27298,-2.27359 -0.78623,-2.33843 -5.52333,-6.33757 -7.50706,-6.33757 -1.0002,0 -2.04651,-0.34821 -2.32512,-0.77375 -0.29079,-0.44418 -2.15972,-0.68014 -4.38768,-0.55397 -2.13462,0.12087 -4.41056,-0.0924 -5.05764,-0.47403 -1.32779,-0.78307 -4.00089,-7.36809 -5.2775,-13.00085 -0.54094,-2.38674 -1.37608,-4.01648 -2.29645,-4.48149 -1.72729,-0.87263 -1.89352,-2.50507 -0.31341,-3.07747 0.62315,-0.22572 1.13299,-0.86248 1.13299,-1.415 0,-0.55254 -0.50984,-1.40405 -1.13299,-1.89225 -0.75631,-0.59254 -1.13298,-2.19413 -1.13298,-4.81749 0,-2.16141 -0.38402,-5.13983 -0.8534,-6.61872 -0.78311,-2.4674 -0.67312,-2.94226 1.33529,-5.76524 1.20377,-1.692 4.15493,-4.37791 6.55811,-5.96868 2.40318,-1.59077 5.11629,-4.03573 6.02911,-5.43325 5.4143,-8.28914 6.1793,-9.14159 8.22418,-9.16427 1.11791,-0.0124 2.24264,-0.34339 2.49938,-0.73556 0.25675,-0.39216 1.12656,-0.71302 1.93289,-0.71302 1.24055,0 1.46606,0.50888 1.46606,3.30826 0,3.80445 1.32069,5.18984 4.98136,5.22535 2.01959,0.0196 4.83784,1.78976 4.83784,3.03872 0,0.2245 -1.18963,1.07078 -2.64363,1.88062 -2.1807,1.21459 -2.64363,1.88866 -2.64363,3.84945 0,3.13801 1.15484,4.08826 4.96843,4.08826 1.7356,0 4.37586,0.48131 5.86725,1.06953 1.49139,0.58825 4.68131,1.06955 7.0887,1.06955 3.75747,0 4.48263,-0.21885 5.12269,-1.54598 1.64001,-3.40051 5.02952,-3.4867 8.91464,-0.22665 l 2.12646,1.78432 -3.37382,4.18782 c -1.85559,2.30331 -3.7981,4.94776 -4.31666,5.87659 -0.51857,0.92881 -1.18281,1.8492 -1.47606,2.04528 -0.80314,0.53697 -6.79388,10.03224 -6.79388,10.7682 0,0.35208 -0.28441,0.64015 -0.632,0.64015 -0.34759,0 -1.78012,2.07036 -3.18339,4.6008 l -2.55139,4.60082 1.35498,3.55706 c 1.01682,2.6693 1.22599,4.53163 0.83813,7.46206 -0.59813,4.51925 0.95116,7.91893 3.93042,8.62479 1.34428,0.31849 1.7539,0.91197 1.7539,2.54106 0,2.50778 -0.49566,2.56046 -6.04259,0.64232 z"
     style="fill:#94add6;fill-opacity:1;stroke-width:0.589657"
     id="path1364" />
  <path
     d="m 173.73891,265.52072 c -1.36272,-1.42145 -1.99828,-1.45661 -5.24686,-0.29028 -1.2422,0.44595 -1.34287,0.37163 -0.5665,-0.41823 0.5193,-0.52836 0.94416,-2.50071 0.94416,-4.38309 0,-3.4191 -0.002,-3.42252 -2.57649,-3.42252 -3.13889,0 -6.48739,-3.30113 -6.48739,-6.39561 0,-1.12721 -0.497,-2.18813 -1.13298,-2.41847 -0.62314,-0.22575 -1.13298,-1.01437 -1.13298,-1.75249 0,-3.29635 -1.62574,-5.72155 -4.58458,-6.83915 -2.73188,-1.03187 -2.96866,-1.33933 -2.96866,-3.85488 0,-1.98252 -0.51083,-3.1866 -1.85928,-4.38246 l -1.8593,-1.64889 1.67047,-2.04685 c 0.91875,-1.12577 2.94506,-3.35362 4.50292,-4.95079 2.98722,-3.06259 3.59796,-5.20978 1.67953,-5.90472 -2.07608,-0.75204 4.23637,-5.43911 7.3253,-5.43911 3.21094,0 6.53764,-1.39537 7.077,-2.96844 0.30639,-0.89359 1.53073,-1.24508 4.96728,-1.42604 6.14156,-0.32341 6.709,0.0836 6.709,4.81151 0,3.68712 1.30845,6.90129 3.38151,8.30658 1.29884,0.88047 6.46452,0.60467 8.58712,-0.45846 2.00369,-1.00359 11.64929,-3.98701 12.89025,-3.98701 0.90703,0 1.72974,4.43189 1.86903,10.06838 0.0683,2.76525 0.53973,5.20195 1.13799,5.88245 0.66963,0.76165 0.72939,1.16171 0.17352,1.16171 -1.51948,0 -0.99772,4.86523 0.60882,5.67687 0.9619,0.48596 1.75818,2.10727 2.34459,4.7738 0.4884,2.22086 1.54094,5.47586 2.339,7.23336 0.79804,1.75751 1.26842,3.36777 1.04529,3.57843 -0.22314,0.21065 -2.61095,0.32561 -5.30625,0.25554 -4.67577,-0.12164 -4.90053,-0.0508 -4.90053,1.54461 0,3.64197 -5.02029,5.38519 -6.74542,2.34227 -0.88323,-1.5579 -1.44776,-1.69628 -7.22463,-1.77061 -5.88454,-0.0757 -6.34148,0.0274 -7.49551,1.68996 -0.67592,0.97385 -1.82627,1.77061 -2.55631,1.77061 -0.83143,0 -2.05048,1.33267 -3.2628,3.56687 -1.93084,3.55831 -1.93883,3.56332 -3.34631,2.09515 z"
     style="fill:#94add6;fill-opacity:1;stroke-width:0.589657"
     id="path1340" />
  <path
     d="m 143.94405,256.35371 c 0,-0.35906 -1.34318,-1.85442 -2.98485,-3.32295 -2.48496,-2.22286 -3.02258,-3.20585 -3.21012,-5.86948 -0.13978,-1.98538 -0.6552,-3.38642 -1.35826,-3.69216 -5.85012,-2.54365 -5.66491,-2.33229 -5.66491,-6.46467 0,-3.7885 -0.0558,-3.88983 -2.26598,-4.11721 -1.24628,-0.12821 -2.58886,-0.52929 -2.98352,-0.89128 -0.39466,-0.36199 -1.51557,-0.65816 -2.49092,-0.65816 -2.13734,0 -8.57505,-6.11354 -7.97977,-7.57796 0.21873,-0.53806 1.17968,-0.9783 2.13548,-0.9783 0.95578,0 3.49629,-0.86124 5.64556,-1.91388 3.49165,-1.71009 3.85942,-2.1087 3.45363,-3.74337 -1.29259,-5.20708 -1.31946,-6.89281 -0.12475,-7.8288 0.66622,-0.52195 1.21131,-1.38277 1.21131,-1.91292 0,-0.53016 1.01969,-1.46168 2.26597,-2.07007 1.24628,-0.60839 2.26597,-1.30069 2.26597,-1.53845 0,-0.73522 -3.29706,-5.57709 -3.97945,-5.84398 -0.35466,-0.1387 -0.0997,-0.82085 0.5666,-1.51585 0.6663,-0.69503 1.41507,-2.5067 1.66395,-4.02594 0.24888,-1.51925 1.12274,-3.37028 1.94191,-4.11338 1.18202,-1.07225 1.4124,-1.99624 1.11619,-4.47694 -0.43037,-3.60442 0.58311,-4.51077 5.04397,-4.51077 2.02679,0 2.97855,0.43606 3.92364,1.79769 1.08945,1.56957 1.74131,1.78246 5.13709,1.67772 4.59764,-0.14183 7.02068,1.06416 7.66015,3.81259 0.37083,1.5938 0.87661,1.98128 2.58613,1.98128 1.19224,0 2.316,0.46952 2.55991,1.06954 0.23912,0.58824 0.92293,1.06953 1.51958,1.06953 0.82534,0 0.99013,0.66644 0.68895,2.78616 -0.35286,2.48341 -0.12029,3.01861 2.14034,4.92536 2.43368,2.05271 2.48311,2.19454 1.22306,3.50891 -1.61334,1.6829 -1.69792,3.65842 -0.18015,4.20821 3.19767,1.15835 -1.4263,4.13835 -5.3482,3.44676 -1.86659,-0.32916 -2.75572,0.11712 -5.79282,2.90752 -3.8247,3.51403 -4.25583,4.40166 -2.45479,5.05408 1.67488,0.60671 1.40492,1.46026 -1.32182,4.17926 -6.26753,6.24975 -7.20315,8.75848 -4.00433,10.73706 1.43991,0.89062 1.89985,1.86779 2.07715,4.41291 0.21101,3.02938 0.42098,3.33014 2.86474,4.10346 1.97719,0.62564 2.89788,1.48138 3.67949,3.41999 1.32134,3.27729 0.813,4.48195 -2.5256,5.9848 -1.77279,0.79806 -3.10426,2.12124 -3.94524,3.92062 -0.94182,2.01511 -1.71916,2.71596 -3.01234,2.71596 -0.95862,0 -1.74295,-0.29376 -1.74295,-0.65289 z"
     style="fill:#94add6;fill-opacity:1;stroke-width:0.589657"
     id="path1338" />
  <path
     d="m 107.82021,228.2615 c -0.90326,-0.90763 -1.6423,-2.01936 -1.6423,-2.47048 0,-0.45113 -0.67979,-1.16367 -1.51065,-1.58344 -0.83085,-0.41975 -1.51064,-1.10279 -1.51064,-1.51787 0,-0.41508 0.67979,-0.92251 1.51064,-1.12761 1.12219,-0.27703 1.51065,-0.97259 1.51065,-2.70488 v -2.33196 l -5.20747,-0.27776 c -4.902849,-0.26152 -5.383998,-0.44441 -8.225137,-3.12643 -3.071908,-2.89988 -4.847018,-3.97504 -8.802457,-5.33155 l -2.219015,-0.761 2.407847,-1.38231 c 1.379792,-0.79211 2.407836,-1.97445 2.407836,-2.76922 0,-0.8553 0.601014,-1.47427 1.567946,-1.61478 1.457739,-0.21183 3.549153,-4.23247 4.959748,-9.53487 0.214164,-0.80507 1.892116,-3.00876 3.728757,-4.89709 1.836658,-1.88833 3.339355,-4.02588 3.339355,-4.75009 0,-0.72422 0.6798,-1.66018 1.51065,-2.07995 1.60847,-0.81263 2.08245,-2.85209 0.66285,-2.85209 -0.58576,0 -0.55718,-0.33058 0.0925,-1.06954 0.51717,-0.58823 1.91837,-1.06952 3.11378,-1.06952 1.66994,0 2.17348,0.33038 2.17348,1.42604 0,1.23113 0.50356,1.42604 3.68414,1.42604 2.35332,0 4.02378,-0.38634 4.62442,-1.06953 1.05438,-1.19931 5.69959,-1.45726 6.42025,-0.35651 0.25674,0.39216 1.5837,0.71302 2.94879,0.71302 2.79446,0 4.98209,1.80642 4.98209,4.11393 0,0.82835 0.3399,1.70438 0.75532,1.94676 1.17663,0.68647 0.89245,2.3154 -0.6482,3.71558 -0.77193,0.70157 -1.60714,2.51859 -1.85601,4.03784 -0.24888,1.51926 -0.97688,3.30925 -1.61778,3.97776 -1.20788,1.25996 -1.61331,4.31181 -0.57279,4.31181 0.32586,0 1.16534,0.91549 1.86552,2.03442 1.24542,1.99027 1.23258,2.05184 -0.59247,2.83681 -1.02603,0.44131 -1.86553,1.25127 -1.86553,1.7999 0,0.54863 -0.55266,1.4305 -1.22815,1.95971 -0.9994,0.78297 -1.14827,1.86172 -0.79927,5.79149 0.3292,3.70684 0.19945,4.82928 -0.55829,4.82928 -0.54295,0 -1.85138,0.64172 -2.90765,1.42604 -1.05626,0.78433 -2.94862,1.42605 -4.20524,1.42605 -2.43356,0 -3.61113,1.69567 -2.8472,4.09988 0.40005,1.25898 -1.83605,4.45639 -3.11656,4.45639 -0.38027,0 -1.43045,-0.74261 -2.33373,-1.65027 z"
     style="fill:#94add6;fill-opacity:1;stroke-width:0.589657"
     id="path1336" />
  <path
     d="m 71.45992,221.739 c -0.845633,-0.84972 -1.537507,-2.28754 -1.537507,-3.19512 0,-1.48057 -2.484527,-4.78585 -6.786442,-9.02829 -2.130505,-2.10106 -1.897943,-3.52662 0.743858,-4.5596 1.961354,-0.76691 2.265965,-1.25407 2.265965,-3.62385 0,-1.89823 -0.506917,-3.18364 -1.653075,-4.19163 -1.76998,-1.55663 -4.005592,-1.90404 -4.767167,-0.74079 -1.360311,2.07776 -9.441532,-0.71012 -9.441532,-3.25714 0,-0.67898 -0.831996,-1.021 -2.483581,-1.021 -5.568234,0 -12.622881,-5.46708 -12.622881,-9.78227 0,-1.36645 -0.355691,-1.69305 -1.699475,-1.56054 -0.934714,0.0922 -2.660588,-0.26858 -3.835276,-0.80168 -2.88846,-1.31084 -4.594932,-0.22152 -4.896536,3.12568 -0.200218,2.22206 -0.503254,2.60161 -2.077141,2.60161 -2.23087,0 -2.310653,-0.67215 -0.357927,-3.0156 0.816631,-0.98004 2.044227,-3.34955 2.72798,-5.26557 0.683759,-1.91603 1.885027,-4.74718 2.669497,-6.29144 1.646949,-3.24214 1.785655,-4.76757 0.540393,-5.94309 -0.671781,-0.63415 -0.675689,-1.27179 -0.01619,-2.63818 0.883038,-1.82953 2.696253,-2.38636 3.545721,-1.08887 1.426265,2.17852 7.175568,-0.26076 7.175568,-3.04441 0,-1.98058 1.479532,-2.11683 2.248689,-0.20709 0.404368,1.004 1.168487,1.82108 1.698064,1.81573 2.780313,-0.0281 4.356536,-1.02334 5.131492,-3.24 0.458861,-1.31247 1.492707,-2.58358 2.29743,-2.82469 0.99608,-0.29845 1.6169,-1.346 1.944773,-3.28159 0.338056,-1.99569 0.788613,-2.73201 1.511482,-2.47017 0.56641,0.20519 1.02985,0.0623 1.02985,-0.31758 0,-0.37985 0.04569,-0.93129 0.101526,-1.22541 0.186191,-0.98069 2.631531,-2.22182 4.825442,-2.44916 2.006651,-0.20791 2.217642,0.005 2.828356,2.84825 0.849578,3.95579 2.605825,3.79315 4.759465,-0.44074 l 1.562616,-3.07199 3.158157,3.23432 c 1.736982,1.77887 3.158157,3.87992 3.158157,4.66901 0,0.94406 1.388725,2.30511 4.060892,3.97997 5.442637,3.41132 11.170827,4.08595 15.27661,1.79913 l 2.81003,-1.56511 1.577887,1.55318 c 1.11263,1.09523 1.2995,1.65123 0.63374,1.88566 -0.519282,0.18286 -0.944153,1.06978 -0.944153,1.97096 0,1.34151 0.602759,1.78176 3.325543,2.42897 3.27862,0.77933 3.32995,0.83838 3.63718,4.18452 0.17141,1.86673 0.45936,3.87534 0.63991,4.46357 0.24203,0.7886 -0.26693,1.05655 -1.9377,1.02011 -2.51611,-0.0549 -4.09377,1.37779 -4.13026,3.75071 -0.0132,0.85922 -0.363921,1.76053 -0.779346,2.0029 -0.415431,0.24236 -0.755327,1.02555 -0.755327,1.74043 0,0.71486 -1.502706,2.84477 -3.339359,4.73309 -1.836641,1.88833 -3.514593,4.09203 -3.728762,4.8971 -1.410596,5.3024 -3.50201,9.32304 -4.959749,9.53486 -0.976909,0.14196 -1.56794,0.7592 -1.56794,1.63747 0,0.81975 -0.946223,1.9179 -2.2612,2.62425 -1.243652,0.66804 -2.263334,1.63862 -2.265964,2.15683 -0.0024,0.51821 -0.514623,1.42349 -1.137761,2.01173 -1.751218,1.65316 -1.366248,3.06924 1.510648,5.55678 3.310607,2.86259 3.325414,3.78181 0.07021,4.35829 -1.415372,0.25065 -3.782557,1.50125 -5.260403,2.77908 l -2.68698,2.32335 z"
     style="fill:#94add6;fill-opacity:1;stroke-width:0.589657"
     id="path1334" />
  <path
     d="m 185.09171,218.67075 c -2.07542,-1.4069 -3.38151,-4.61928 -3.38151,-8.31692 0,-4.89994 -0.90971,-5.46455 -8.0058,-4.96864 -5.61238,0.39221 -8.20137,-0.38837 -6.52785,-1.96816 1.72187,-1.62545 1.09038,-4.6303 -1.38657,-6.59781 -2.19699,-1.74511 -2.27659,-1.9831 -1.45207,-4.34151 0.47979,-1.37236 1.13131,-2.4952 1.44785,-2.4952 0.75404,0 2.32863,-3.28984 2.32863,-4.86528 0,-1.00858 0.55007,-1.18356 3.02129,-0.96109 l 3.02129,0.272 v -2.85071 c 0,-1.8618 -0.38861,-2.99147 -1.12025,-3.25651 -0.63744,-0.23089 -0.92815,-0.87838 -0.67451,-1.50232 0.31705,-0.77995 1.51273,-1.09652 4.14154,-1.09652 3.14929,0 3.6958,-0.20377 3.6958,-1.378 0,-0.7579 0.67979,-1.58166 1.51065,-1.83061 0.83086,-0.24894 1.51065,-1.03341 1.51065,-1.74329 0,-3.18461 4.02239,-3.47889 4.85292,-0.35503 0.26964,1.01412 1.1935,1.89451 2.25099,2.14505 0.98649,0.23373 2.54672,1.2426 3.46716,2.24192 1.52334,1.65388 2.0467,1.7806 5.83085,1.41191 3.58388,-0.34918 4.20647,-0.22751 4.51386,0.88212 0.20412,0.73684 1.58367,1.63423 3.22661,2.09889 1.5785,0.44646 3.29186,1.29155 3.80743,1.87798 1.21003,1.37636 4.82851,1.37437 6.0397,-0.004 0.51717,-0.58823 2.01313,-1.06952 3.32438,-1.06952 2.34833,0 2.41129,0.0916 4.19768,6.10377 1.78562,6.00953 1.79201,6.13887 0.41496,8.37801 -0.76925,1.25083 -1.85247,2.53208 -2.40717,2.84725 -0.5547,0.31514 -1.66933,1.79572 -2.47697,3.29017 -0.8805,1.62927 -2.94416,3.6111 -5.15423,4.94987 -3.79425,2.29843 -7.71784,5.96392 -7.71784,7.21019 0,0.38808 -0.93471,0.90149 -2.07714,1.14088 -4.70388,0.98571 -12.78294,3.35074 -14.65651,4.29048 -2.19065,1.0988 -4.35904,1.27797 -5.56582,0.45991 z"
     style="fill:#94add6;fill-opacity:1;stroke-width:0.589657"
     id="path1332" />
  <path
     d="m 252.71054,212.44272 c -1.45399,-0.52857 -4.0202,-0.98545 -5.70268,-1.01529 -5.44729,-0.0966 -6.58751,-3.10667 -2.04625,-5.40191 1.55183,-0.78432 2.94125,-2.01616 3.08761,-2.73743 0.40332,-1.98757 -2.76286,-4.74547 -5.47836,-4.77197 -3.64613,-0.0356 -4.96677,-1.42498 -4.96677,-5.22534 v -3.30827 h -2.97671 c -1.6372,0 -3.18679,0.32087 -3.44353,0.71303 -0.25675,0.39216 -1.0777,0.71302 -1.82435,0.71302 -2.08849,0 -4.17676,-8.1592 -3.92184,-15.32332 0.1115,-3.13364 0.56182,-5.90704 1.00072,-6.1631 0.46886,-0.27354 0.5838,-1.30563 0.27867,-2.50224 -0.28564,-1.12016 -0.84957,-3.80137 -1.25316,-5.95827 -0.517,-2.76289 -1.28681,-4.35089 -2.60536,-5.37444 -2.38185,-1.84897 -2.39277,-3.18184 -0.0261,-3.18184 2.66534,0 4.19711,-2.51465 4.19711,-6.89026 0,-2.0465 0.33989,-3.9192 0.75532,-4.16158 1.08227,-0.6314 0.93406,-4.44967 -0.18883,-4.86507 -0.51928,-0.1921 0.16757,-0.58113 1.52637,-0.86453 1.35878,-0.28341 2.65345,-0.79469 2.87703,-1.1362 0.22359,-0.3415 2.42584,-0.62093 4.89389,-0.62093 2.48802,0 4.48735,-0.31767 4.48735,-0.71302 0,-0.39216 1.38249,-0.71302 3.0722,-0.71302 2.72846,0 3.01854,-0.15956 2.59273,-1.42605 -0.33481,-0.9958 -0.13574,-1.42604 0.65985,-1.42604 0.62661,0 1.34937,0.32086 1.60612,0.71303 0.65894,1.00648 3.529,0.84503 5.10984,-0.28742 0.73327,-0.5253 2.11784,-2.36003 3.07681,-4.0772 1.9657,-3.51985 4.55639,-4.37304 7.45632,-2.45563 0.92835,0.61384 2.23921,1.11606 2.91302,1.11606 0.6738,0 2.21267,0.80176 3.41972,1.7817 1.20704,0.97992 2.4981,1.78207 2.86904,1.78255 0.37326,4.8e-4 0.49176,2.51662 0.26536,5.63469 -0.25969,3.57656 -0.11255,5.91373 0.40296,6.40035 0.57912,0.54669 0.44886,1.14532 -0.4542,2.08732 -0.8971,0.93576 -1.2662,2.60485 -1.2662,5.72573 0,3.80998 0.25505,4.61432 1.8883,5.95488 1.63545,1.34237 1.88831,2.1432 1.88831,5.98056 0,3.92461 0.25514,4.6885 2.23391,6.68816 2.3937,2.41894 6.82996,9.67771 6.82996,11.17541 0,0.49913 0.4638,1.16409 1.03066,1.47767 0.56686,0.31362 1.60057,1.62268 2.29713,2.90902 1.14086,2.1068 1.15101,2.44787 0.10234,3.43779 -1.60967,1.51953 -1.4656,2.65353 0.72415,5.6996 2.14784,2.98777 2.29452,4.473 0.8331,8.43646 -1.10344,2.99261 -2.94329,4.68661 -5.09015,4.68661 -1.17582,0 -5.94105,4.196 -8.46354,7.45252 -0.84239,1.08753 -1.18448,0.99924 -3.83635,-0.99019 -2.25418,-1.69108 -3.66339,-2.1842 -6.24173,-2.1842 -2.90861,0 -3.49313,0.27024 -4.61691,2.13456 -1.10364,1.83088 -1.7165,2.12749 -4.30798,2.08483 -1.66171,-0.0274 -4.21093,-0.48222 -5.66493,-1.01079 z"
     style="fill:#94add6;fill-opacity:1;stroke-width:0.589657"
     id="path1330" />
  <path
     d="m 161.93579,188.61585 c -0.60742,-0.91818 -1.77313,-1.48542 -3.05257,-1.48542 -1.56121,0 -2.18294,-0.42516 -2.52987,-1.73008 -0.80259,-3.01863 -3.09417,-4.33061 -7.56414,-4.33061 -3.35343,0 -4.26665,-0.27903 -5.25048,-1.6043 -1.00559,-1.35457 -1.88279,-1.6043 -5.63551,-1.6043 -2.44449,0 -4.66498,0.33671 -4.9344,0.74825 -0.29669,0.45315 -1.19368,0.0314 -2.27449,-1.06954 -1.14581,-1.16709 -2.59266,-1.81777 -4.04206,-1.81777 -1.24161,0 -2.46752,-0.32086 -2.72427,-0.71302 -0.25675,-0.39218 -1.2965,-0.71303 -2.31055,-0.71303 -1.01406,0 -1.84373,-0.27177 -1.84373,-0.60393 0,-0.33214 -0.67979,-1.34382 -1.51065,-2.24817 -1.82085,-1.98188 -1.96517,-5.17345 -0.29316,-6.48338 0.66962,-0.52461 2.32366,-0.86387 3.67567,-0.75391 3.00553,0.24444 3.35795,-0.64718 3.48038,-8.8057 0.12862,-8.57068 0.44636,-9.22717 4.5897,-9.48288 4.80751,-0.29672 7.37523,-2.7855 6.11795,-5.92987 -1.21113,-3.02894 -0.11586,-5.45515 2.59515,-5.74872 1.75216,-0.18976 2.15575,-0.61125 2.34535,-2.44935 0.15901,-1.54152 0.79393,-2.46314 2.07713,-3.01505 1.16367,-0.50051 1.85242,-1.39473 1.85971,-2.4145 0.016,-2.24455 0.99809,-3.49388 3.50808,-4.4628 1.90776,-0.73646 2.47976,-0.59938 5.16656,1.23822 2.75202,1.8822 3.4252,2.03257 7.55323,1.68726 2.49256,-0.20851 5.6795,-0.47275 7.08209,-0.58719 2.72214,-0.22213 3.44997,0.44787 4.21372,3.87881 0.26656,1.19753 1.30223,2.37189 2.6886,3.04865 2.02544,0.98875 2.25503,1.44741 2.25503,4.50502 0,1.87232 0.40788,3.78923 0.90638,4.25983 0.52676,0.49724 3.05167,0.85561 6.0282,0.85561 4.97458,0 5.13476,0.0564 5.57261,1.96082 0.24795,1.07844 0.81995,2.67962 1.27109,3.55817 1.22173,2.37917 -1.1643,4.68627 -4.1964,4.05761 -3.57973,-0.74221 -4.98081,3.23134 -2.02865,5.75339 0.83086,0.7098 1.51065,1.97881 1.51065,2.81999 0,0.84119 0.37411,1.88259 0.83135,2.31424 0.60492,0.57104 0.39921,0.91427 -0.75533,1.26018 -0.87267,0.26147 -1.59423,0.85485 -1.60347,1.31862 -0.009,0.46377 -0.68146,1.64538 -1.49384,2.62578 -0.81238,0.98041 -1.48462,2.32244 -1.49385,2.9823 -0.009,0.65986 -0.69659,1.40341 -1.52745,1.65234 -0.83086,0.24895 -1.51064,1.07271 -1.51064,1.83061 0,1.17424 -0.54651,1.378 -3.69581,1.378 -2.67331,0 -3.82264,0.31204 -4.15427,1.12786 -0.79886,1.96517 -0.4976,3.89388 0.67451,4.31846 1.44882,0.52485 1.48586,3.10994 0.0446,3.10994 -0.59862,0 -1.29847,-0.32085 -1.55522,-0.71302 -1.01508,-1.55044 -2.62256,-0.58278 -3.36693,2.02681 -0.42984,1.5069 -1.44206,3.45876 -2.24941,4.3375 l -1.46786,1.5977 z"
     style="fill:#94add6;fill-opacity:1;stroke-width:0.589657"
     id="path1328" />
  <path
     d="m 212.68132,179.64698 c -0.51558,-0.58644 -2.22893,-1.43152 -3.80744,-1.87799 -1.68782,-0.47735 -3.02146,-1.35835 -3.23764,-2.13875 -0.48785,-1.76104 -2.63858,-2.47186 -4.37746,-1.44673 -2.17835,1.28421 -4.36048,0.98118 -6.17767,-0.85792 -0.91488,-0.9259 -2.42737,-1.90986 -3.36113,-2.18658 -0.93375,-0.27673 -1.90604,-1.28669 -2.16067,-2.24437 -0.27115,-1.01982 -1.18986,-1.91347 -2.21744,-2.15692 -2.02215,-0.47912 -1.73773,-2.13675 0.48069,-2.80141 1.5364,-0.46033 2.02224,-3.47739 0.68554,-4.25724 -0.41542,-0.24237 -0.75532,-1.17416 -0.75532,-2.07063 0,-0.89648 -0.67178,-2.20387 -1.49284,-2.90531 -1.92817,-1.64725 -1.30978,-2.51079 1.79802,-2.51079 1.44525,0 3.00414,-0.54466 3.73203,-1.30393 1.32317,-1.38019 1.71051,-5.47349 0.58035,-6.13284 -0.36833,-0.2149 -0.89358,-1.51727 -1.16721,-2.89417 l -0.49752,-2.50346 h -5.10196 c -2.9611,0 -5.48231,-0.35903 -6.00836,-0.85562 -0.4985,-0.4706 -0.90638,-2.37825 -0.90638,-4.23922 0,-2.98104 -0.24505,-3.49449 -2.05958,-4.31545 -1.19462,-0.5405 -2.34193,-1.82947 -2.73192,-3.06926 -1.27754,-4.06125 -1.57427,-4.28493 -5.49394,-4.14168 -2.02842,0.0741 -5.13223,0.34844 -6.89736,0.60957 -2.79183,0.41305 -3.70067,0.17716 -6.98672,-1.8134 -4.05995,-2.45936 -4.66069,-3.78222 -2.26678,-4.99165 1.60084,-0.80876 2.02712,-3.50537 0.7454,-4.71531 -1.024,-0.96666 0.57311,-5.31932 2.40532,-6.55522 1.47718,-0.99645 1.90429,-4.73965 0.62589,-5.485497 -0.41543,-0.242373 -0.75532,-1.223881 -0.75532,-2.181142 0,-1.244224 0.41575,-1.74048 1.45811,-1.74048 0.92771,0 1.54591,-0.572946 1.69948,-1.575069 0.1521,-0.992605 0.93966,-1.732059 2.12967,-1.999586 1.69851,-0.381851 1.8883,-0.778371 1.8883,-3.94509 0,-3.497877 0.0206,-3.527318 3.19058,-4.567527 2.59322,-0.850934 3.66385,-0.885388 5.71854,-0.18402 1.39039,0.474621 4.03338,0.854655 5.87331,0.844537 3.15678,-0.01734 3.42334,-0.1781 4.72934,-2.85209 1.32517,-2.713196 1.53435,-2.833692 4.91933,-2.833692 2.94177,0 3.66047,-0.269344 4.28089,-1.604298 0.50348,-1.083313 1.5171,-1.675051 3.1213,-1.822159 1.30665,-0.119818 2.97383,-0.841759 3.70486,-1.604304 0.91673,-0.956247 2.31877,-1.386443 4.51854,-1.386443 1.81936,0 3.56815,-0.430792 4.0711,-1.002872 0.48493,-0.551583 2.52402,-1.113084 4.53132,-1.247785 l 3.64963,-0.244908 0.38574,6.401295 c 0.3073,5.099657 0.65535,6.549523 1.71161,7.130224 2.66836,1.466985 5.64208,4.639352 5.64208,6.018997 0,3.605094 4.54672,7.900835 8.36243,7.900835 1.0307,0 2.26616,0.631004 2.79213,1.426039 0.65078,0.983719 1.76143,1.426045 3.58064,1.426045 2.24834,0 2.63723,0.24183 2.63723,1.63996 0,0.90197 0.39767,2.01534 0.8837,2.47416 0.67473,0.63694 0.65458,1.48962 -0.0852,3.60566 -1.34222,3.83919 -0.63337,5.25583 4.12097,8.23575 3.45975,2.16849 4.77493,2.58305 8.19458,2.58305 2.69936,0 4.39059,0.36078 5.01371,1.06953 0.51716,0.58825 1.66343,1.10751 2.54727,1.1539 1.20166,0.0631 1.06313,0.19797 -0.5492,0.53476 -1.54216,0.32215 -2.65697,1.33548 -3.91461,3.55828 -1.93511,3.42015 -4.49013,5.5533 -5.25402,4.38651 -0.25951,-0.39635 -1.67322,-0.72067 -3.14159,-0.72067 -2.03454,0 -2.76376,0.33931 -3.06481,1.42605 -0.27982,1.0101 -1.03027,1.42604 -2.57292,1.42604 -1.19783,0 -2.17787,0.32087 -2.17787,0.71302 0,0.39535 -1.99934,0.71303 -4.48736,0.71303 -2.46805,0 -4.6703,0.27942 -4.89388,0.62093 -0.22359,0.34151 -1.43328,0.81477 -2.68821,1.05171 -2.4241,0.45766 -3.07134,2.28788 -1.37529,3.88894 0.70496,0.66548 0.70496,1.04577 0,1.71125 -0.49852,0.4706 -0.90639,2.48479 -0.90639,4.47598 0,4.27228 -1.5562,6.78977 -4.19711,6.78977 -2.74927,0 -2.62104,3.99729 0.19625,6.11793 1.61659,1.21683 2.06359,2.18748 2.14663,4.66142 0.0577,1.71852 0.19769,3.44543 0.31112,3.83761 0.3256,1.12582 -0.0173,9.84882 -0.44148,11.23009 -0.2885,0.93943 -1.18774,1.24779 -3.63875,1.24779 -1.97238,0 -3.62619,0.42155 -4.19587,1.06953 -1.18332,1.34598 -1.83733,1.3467 -3.0184,0.004 z"
     style="fill:#94add6;fill-opacity:1;stroke-width:0.589657"
     id="path1326" />
  <path
     d="m 108.55501,173.04823 c -0.54322,-1.86276 -1.16338,-4.91416 -1.37814,-6.78088 -0.38611,-3.35627 -0.42937,-3.40329 -3.88546,-4.22482 -1.92226,-0.45691 -3.07886,-0.96171 -2.57023,-1.12175 1.56198,-0.49151 1.04631,-4.09395 -0.823364,-5.75207 -2.213013,-1.96258 -3.367026,-1.9515 -5.628408,0.054 -2.975942,2.63917 -7.992109,2.23217 -13.271475,-1.07681 -2.884804,-1.80815 -4.277615,-3.15697 -4.277615,-4.14257 0,-0.8038 -1.672852,-3.13117 -3.717447,-5.17196 -2.044596,-2.04078 -3.958865,-4.61854 -4.253929,-5.72834 -0.510296,-1.91932 -0.693172,-1.99567 -3.745686,-1.56353 -2.941711,0.41642 -3.247107,0.31164 -3.664265,-1.25735 -0.250286,-0.9414 -1.990318,-3.04752 -3.866715,-4.68027 -3.733656,-3.24881 -3.905604,-3.94465 -2.549724,-10.31798 0.763776,-3.59016 0.708907,-4.21106 -0.481909,-5.45322 -1.112923,-1.16089 -1.176748,-1.59178 -0.371444,-2.50778 0.785086,-0.89299 0.790984,-1.68526 0.03063,-4.11325 -0.517956,-1.65397 -1.233296,-3.54137 -1.589627,-4.19421 -0.422686,-0.7744 -0.293294,-1.46479 0.372259,-1.98621 0.561087,-0.43958 1.244412,-1.92767 1.518496,-3.306892 0.274091,-1.379202 1.002013,-2.690081 1.617598,-2.913083 1.581375,-0.572841 3.329343,-4.045544 3.329343,-6.614416 0,-1.943917 0.241852,-2.174485 2.280976,-2.174485 2.920267,0 8.142796,-3.097988 9.059507,-5.374089 0.389002,-0.96587 1.140568,-1.756406 1.670145,-1.756759 1.536582,-0.0012 6.627759,-5.367698 6.627759,-6.986419 0,-0.812235 -0.633021,-1.662786 -1.411026,-1.895883 -0.776066,-0.23252 -2.018385,-1.056295 -2.760705,-1.830603 -1.308272,-1.364679 -1.293961,-1.407925 0.466885,-1.410507 3.1636,-0.0047 6.595475,-2.503508 6.863976,-4.997894 0.235662,-2.189235 0.266094,-2.205086 1.750474,-0.911657 4.168729,3.632483 6.474372,4.660256 9.447677,4.211438 3.269467,-0.493531 4.798442,0.653824 2.752886,2.065799 -1.968766,1.358977 -1.6001,5.08873 0.639925,6.474254 2.372079,1.467197 2.410926,2.948817 0.103338,3.941346 -1.558854,0.670487 -1.84193,1.409027 -2.234536,5.829841 -0.485718,5.469041 -0.12986,6.331957 3.301992,8.007262 2.841619,1.387163 3.285229,3.552508 1.015414,4.956464 -2.643888,1.635338 -2.584085,5.866003 0.09189,6.500023 1.045235,0.24764 2.574765,0.28379 3.398955,0.0803 1.19184,-0.29421 1.49852,-0.0142 1.49852,1.36825 0,2.20578 1.90968,2.93186 3.69644,1.40541 1.53253,-1.30924 2.48306,-0.69085 3.43224,2.23293 0.34601,1.06585 1.46567,1.82989 3.40341,2.32244 1.58826,0.40372 3.30886,1.21303 3.82355,1.79846 1.26181,1.43524 6.03808,1.4312 6.03808,-0.005 0,-1.51853 1.32923,-1.3244 2.44126,0.35651 0.57644,0.87134 1.76143,1.42605 3.04639,1.42605 1.48473,0 2.29404,0.47164 2.75291,1.60429 1.26013,3.11046 3.49979,4.3342 6.97288,3.80993 2.06897,-0.31231 3.35182,-0.19547 3.70046,0.33704 0.71586,1.09342 -0.8504,5.07914 -2.43625,6.19965 -0.69985,0.49449 -1.37964,1.77641 -1.51065,2.8487 -0.18722,1.53238 -0.71728,2.0272 -2.47666,2.31203 -2.77525,0.44933 -4.17794,3.94094 -2.88361,7.17797 0.71651,1.79195 0.59884,2.15641 -1.01936,3.15731 -1.22528,0.75788 -2.64938,0.9863 -4.31265,0.69176 -3.82993,-0.67827 -4.50401,0.67472 -4.9885,10.0126 -0.23056,4.44383 -0.64103,8.28833 -0.91214,8.54334 -0.27112,0.25501 -1.21757,0.0403 -2.10322,-0.47702 -1.45282,-0.8487 -1.82059,-0.71407 -3.76081,1.37663 -1.18278,1.27453 -2.53063,2.31733 -2.99521,2.31733 -1.1442,0 -1.06522,1.116 0.1609,2.27344 0.55307,0.52212 1.23934,1.82847 1.52504,2.90303 0.2857,1.07457 0.85287,1.95374 1.26038,1.95374 0.40751,0 0.74093,0.32087 0.74093,0.71302 0,0.39219 -0.36417,0.71303 -0.80927,0.71303 -0.4451,0 -1.31912,0.4813 -1.94226,1.06954 -0.62314,0.58824 -2.05111,1.06953 -3.17327,1.06953 -1.79187,0 -2.16054,-0.41238 -3.02794,-3.38686 z"
     style="fill:#94add6;fill-opacity:1;stroke-width:0.589657"
     id="path1324" />
  <path
     d="m 33.245427,159.96866 c -0.281027,-0.42925 -1.829414,-0.66124 -3.443531,-0.51594 -1.825059,0.16431 -2.932889,-0.0371 -2.932889,-0.53322 0,-0.43848 -1.319263,-1.17037 -2.931691,-1.62641 -3.910885,-1.10612 -4.865606,-2.26285 -3.882456,-4.70392 1.359818,-3.37629 0.919203,-5.70067 -1.494403,-7.88357 -1.246284,-1.12714 -2.256519,-2.39039 -2.244963,-2.80723 0.01157,-0.41682 1.054745,-2.04132 2.318201,-3.60996 l 2.297172,-2.85209 -0.519734,-7.48673 c -0.343919,-4.95399 -0.99362,-8.42336 -1.920493,-10.25534 -1.373598,-2.71494 -1.371849,-2.80688 0.08986,-4.7447 1.676088,-2.22202 1.973202,-6.36288 0.552764,-7.70376 -0.746914,-0.70508 -0.708461,-1.02223 0.188833,-1.55773 0.619664,-0.36983 1.696817,-0.67734 2.393663,-0.68334 1.655582,-0.0143 4.397924,-3.338085 4.397924,-5.330443 0,-0.859166 0.848511,-2.314611 1.885573,-3.234317 1.709371,-1.515932 2.066213,-1.580942 3.818614,-0.695613 1.733604,0.875836 2.284197,0.796462 5.336471,-0.769402 1.871875,-0.960304 3.945025,-2.307512 4.606992,-2.993802 0.66197,-0.686273 1.789079,-1.247786 2.504683,-1.247786 0.715597,0 1.72423,-0.481284 2.241388,-1.069532 0.517163,-0.588236 1.875877,-1.069538 3.019355,-1.069538 1.143495,0 3.141247,-0.200536 4.439458,-0.445633 1.986824,-0.375111 2.360387,-0.770063 2.360387,-2.495577 0,-1.317271 0.392214,-2.049949 1.097388,-2.049949 0.868862,0 1.017751,0.779574 0.714944,3.743374 -0.720102,7.048185 -1.108073,8.312422 -2.976797,9.700044 -1.024996,0.761106 -2.072997,2.372115 -2.328911,3.580022 -0.255909,1.207895 -0.93418,2.563532 -1.507257,3.012512 -1.274214,0.99827 -1.359888,3.62147 -0.155409,4.7585 0.513501,0.48474 0.855378,2.77711 0.812482,5.44774 -0.04768,2.96816 0.272617,4.88246 0.899019,5.37321 0.706295,0.55336 0.803191,1.59133 0.353403,3.78591 -0.340832,1.66294 -0.634495,4.38056 -0.652583,6.03917 -0.02923,2.6796 0.347311,3.34651 3.378744,5.9843 1.876403,1.63275 3.620424,3.7539 3.875604,4.7137 0.416694,1.56724 0.796243,1.72012 3.724614,1.50025 3.938633,-0.29571 4.56084,0.84262 2.788595,5.10167 -1.246577,2.99575 -2.470611,3.17512 -2.470611,0.36207 0,-0.9341 -0.352373,-1.90397 -0.783041,-2.15522 -1.482978,-0.86521 -7.015018,0.53896 -8.814031,2.23723 -0.990785,0.9353 -2.08244,1.70055 -2.425889,1.70055 -0.343449,0 -0.847349,1.31582 -1.119767,2.92405 -0.347223,2.04979 -0.931017,3.03161 -1.952555,3.2838 -0.814859,0.20115 -1.830259,1.4267 -2.303423,2.78012 -1.016908,2.90869 -3.123687,3.21633 -4.368227,0.63784 -0.473202,-0.98042 -1.309517,-1.78257 -1.858479,-1.78257 -1.375863,0 -2.810891,1.47244 -2.810891,2.88419 0,1.10475 -2.216575,3.53301 -3.225026,3.53301 -0.254341,0 -0.692222,-0.35097 -0.973073,-0.77994 z"
     style="fill:#94add6;fill-opacity:1;stroke-width:0.589657"
     id="path1322" />
  <path
     d="m 144.69938,120.01562 c 0,-0.53954 -1.29872,-0.68593 -3.951,-0.44536 -4.18514,0.37962 -5.10174,-0.11303 -6.63065,-3.5638 -0.51233,-1.15633 -1.34133,-1.6043 -2.9689,-1.6043 -1.48505,0 -2.53485,-0.48819 -3.06656,-1.42605 -1.00677,-1.7758 -6.04258,-2.07292 -6.04258,-0.35651 0,1.48437 -1.7749,1.33754 -3.3205,-0.27467 -0.70877,-0.73932 -2.2169,-1.51946 -3.35142,-1.73365 -1.41709,-0.26756 -2.46509,-1.18591 -3.34812,-2.93394 -1.35236,-2.67708 -3.85653,-3.42027 -5.69067,-1.68884 -0.70497,0.66548 -0.90639,0.40707 -0.90639,-1.16282 0,-1.87458 -0.17497,-1.9932 -2.4548,-1.66405 -4.660398,0.67281 -5.859584,-1.14513 -2.34815,-3.559787 2.89974,-1.994026 2.07843,-5.704421 -1.789098,-8.082473 -2.714782,-1.669255 -2.785452,-1.822831 -2.56883,-5.582179 0.1782,-3.092404 0.587906,-4.136823 2.04818,-5.22115 2.478278,-1.840231 2.448048,-4.980988 -0.06288,-6.53408 -2.119092,-1.310714 -2.461913,-2.913803 -0.755321,-3.532006 0.623144,-0.225726 1.132985,-0.841505 1.132985,-1.368405 0,-1.225208 2.796264,-6.714563 3.684274,-7.232654 0.37077,-0.216321 1.74837,-0.0398 3.06132,0.392258 1.99456,0.656377 2.62996,0.578165 3.86338,-0.475558 0.81191,-0.693619 1.4762,-1.658358 1.4762,-2.143866 0,-0.994943 1.66426,-1.74833 3.86209,-1.74833 0.80992,0 1.66823,-0.481297 1.90735,-1.069533 0.63691,-1.566805 4.99082,-1.381225 6.0759,0.258967 0.66055,0.998477 2.20803,1.452145 6.22919,1.826181 4.56557,0.4247 5.65423,0.801304 7.42251,2.567777 1.69419,1.692423 2.96791,2.172262 6.98183,2.630202 l 4.9096,0.560121 0.23562,2.69277 c 0.25293,2.890529 2.02118,4.329063 9.58593,7.798476 2.97177,1.362946 3.3966,1.842597 3.3966,3.834996 0,1.501338 0.45035,2.448993 1.32182,2.781419 1.1874,0.452945 1.15623,0.564596 -0.30652,1.098 -1.97627,0.720662 -3.0825,4.54489 -1.75237,6.057862 0.91993,1.046376 0.80122,1.136487 -2.85071,2.164319 -0.51929,0.146152 -0.94416,0.917524 -0.94416,1.714163 0,0.939259 -0.49627,1.448411 -1.41182,1.448411 -2.06097,0 -2.80137,4.779991 -1.02707,6.630769 1.22669,1.27957 1.20624,1.41467 -0.40013,2.64258 -0.93111,0.71174 -1.69291,1.6437 -1.69291,2.07105 0,0.42734 -0.3399,0.77698 -0.75533,0.77698 -1.03498,0 -0.95864,5.94006 0.0891,6.92908 0.62229,0.58744 0.42362,1.04514 -0.75532,1.74017 -0.87984,0.51869 -1.5997,1.65675 -1.5997,2.52903 0,0.87228 -0.65745,1.9181 -1.46099,2.32407 -1.9039,0.96186 -3.07094,0.93692 -3.07094,-0.0656 z"
     style="fill:#94add6;fill-opacity:1;stroke-width:0.589657"
     id="path1320" />
  <path
     d="m 259.50846,118.32378 c -0.62312,-0.70875 -2.31436,-1.06953 -5.01371,-1.06953 -3.41381,0 -4.73558,-0.41503 -8.16269,-2.56307 -2.24911,-1.4097 -4.28203,-3.03724 -4.51761,-3.61678 -0.49207,-1.21049 0.77499,-3.80246 1.8588,-3.80246 1.17184,0 0.81175,-1.64184 -0.7819,-3.56512 -0.81238,-0.9804 -1.48461,-2.50448 -1.49385,-3.38686 -0.017,-1.620982 -0.37893,-1.802697 -3.79341,-1.904507 -1.36279,-0.04063 -1.82654,-0.403544 -1.66636,-1.304086 0.17837,-1.002895 -0.3313,-1.247786 -2.5969,-1.247786 -4.73859,0 -9.33255,-3.889196 -9.33255,-7.900835 0,-1.379644 -2.97372,-4.552018 -5.64208,-6.018997 -1.05861,-0.58198 -1.40502,-2.039324 -1.71853,-7.229852 l -0.39265,-6.50093 3.11734,-0.497181 c 1.71455,-0.273448 3.2849,-0.753099 3.48969,-1.065883 0.20478,-0.312795 1.94871,-0.791862 3.87541,-1.064608 3.59131,-0.508385 4.40634,-1.091084 9.33891,-6.676683 1.4446,-1.635851 2.99551,-2.974284 3.44647,-2.974284 1.43181,0 5.1056,-4.159056 6.13246,-6.942481 1.39712,-3.787076 1.26169,-4.860858 -0.77169,-6.118572 -1.3116,-0.811259 -1.88804,-1.971961 -2.17566,-4.380815 -0.26655,-2.232335 -0.95384,-3.737707 -2.15578,-4.721768 l -1.76449,-1.444625 3.47324,-2.991083 c 1.91029,-1.645093 3.67268,-3.552584 3.91643,-4.23887 0.63091,-1.776247 2.95372,-1.543148 5.32883,0.534768 1.12064,0.980408 2.37412,1.782553 2.78551,1.782553 0.4114,0 1.47766,0.64172 2.36947,1.426045 0.89183,0.784324 2.18452,1.42605 2.87265,1.42605 2.92408,0 6.14653,6.634492 5.48475,11.292163 -0.26384,1.856891 -0.12363,2.968278 0.37444,2.968278 1.33597,0 2.50646,4.60976 1.97185,7.765782 -0.37102,2.190319 -0.19678,3.287504 0.66629,4.195545 0.64278,0.676264 1.41416,2.477781 1.71418,4.003343 0.30003,1.525571 1.34437,4.092455 2.32078,5.704189 0.97641,1.611727 1.77939,3.584514 1.78438,4.383948 0.005,0.799457 0.6998,2.724611 1.54397,4.278134 1.81701,3.343834 4.18347,11.841963 4.92613,17.690083 0.67647,5.326934 -0.56356,9.163875 -3.32653,10.292995 -3.84074,1.56955 -7.08396,3.6348 -8.28401,5.27512 -0.66487,0.90882 -1.64766,2.07641 -2.18394,2.59462 -0.53629,0.51821 -0.97506,1.56101 -0.97506,2.31732 0,0.7563 -0.27694,1.37511 -0.61543,1.37511 -0.33848,0 -1.18273,1.12301 -1.87609,2.49558 -1.3844,2.74053 -2.13161,3.0406 -3.55106,1.42604 z"
     style="fill:#94add6;fill-opacity:1;stroke-width:0.589657"
     id="path1318" />
  <path
     d="m 17.049808,102.56982 c 0,-0.39005 -2.368104,-2.940882 -5.262452,-5.668525 -2.8943524,-2.727624 -5.2736197,-5.407351 -5.2872649,-5.954936 -0.013639,-0.547568 1.5047269,-2.539194 3.3741493,-4.42582 1.8694286,-1.88665 3.3989576,-3.785063 3.3989576,-4.218721 0,-0.433645 0.904441,-2.532112 2.009876,-4.66328 1.782327,-3.436145 1.914783,-4.177734 1.169999,-6.550567 -0.461925,-1.471655 -1.054352,-4.119623 -1.316493,-5.884349 -0.262153,-1.764727 -0.720598,-4.812899 -1.018769,-6.773715 -0.29817,-1.960809 -0.947349,-4.261123 -1.44261,-5.111805 -0.557107,-0.95689 -0.719636,-2.792186 -0.426236,-4.8129 0.446531,-3.075349 0.611688,-3.268035 2.826367,-3.297506 1.29368,-0.01721 3.711718,-0.521565 5.373427,-1.120789 1.661715,-0.599225 4.550827,-1.552452 6.420248,-2.118282 1.869422,-0.56583 4.248689,-1.610336 5.28726,-2.32112 2.139392,-1.464174 6.172979,-2.605215 14.252016,-4.031672 3.457007,-0.610379 6.194167,-1.539968 7.22425,-2.45349 1.175082,-1.042105 2.663059,-1.470769 5.105302,-1.470769 6.21691,0 11.566552,-3.281578 14.881404,-9.128567 0.917018,-1.617492 4.507193,-3.705836 6.370887,-3.705836 1.458547,0 2.605572,3.079607 2.966153,7.963724 0.271242,3.674012 0.138452,4.110899 -1.458128,4.797616 -2.179468,0.937417 -2.344648,3.796018 -0.329282,5.698524 1.122406,1.059548 1.34522,2.034442 1.043168,4.564181 -0.328834,2.753966 -0.1538,3.333199 1.216375,4.025425 1.798608,0.908678 2.249513,4.323512 0.570888,4.323512 -0.726623,0 -1.149419,1.40938 -1.436853,4.789677 -0.224005,2.634327 -0.780388,4.907091 -1.236393,5.050572 -0.456024,0.143494 -0.829123,1.173454 -0.829123,2.288796 0,2.617647 -3.096273,4.9835 -6.522111,4.9835 -3.623667,0 -3.422724,2.240709 0.437673,4.880557 l 2.979432,2.037419 -2.822447,2.601698 c -1.552349,1.430939 -3.241399,2.601697 -3.753451,2.601697 -0.512053,0 -1.248794,0.789044 -1.637207,1.753435 -0.856725,2.127147 -6.180611,5.595699 -8.063446,5.253415 -1.10005,-0.2 -1.315058,-0.823421 -1.127892,-3.270451 l 0.231247,-3.023379 h -2.70138 c -2.471902,0 -2.701394,0.174155 -2.701394,2.049937 0,1.72552 -0.373557,2.120473 -2.360387,2.495577 -1.298205,0.245103 -3.295963,0.44564 -4.439452,0.44564 -1.143483,0 -2.502192,0.481301 -3.019361,1.069538 -0.517158,0.588253 -1.559185,1.069532 -2.315618,1.069532 -0.756442,0 -1.82522,0.561513 -2.375079,1.247785 -1.85742,2.318267 -5.493435,3.60974 -9.086448,3.227436 -3.084406,-0.328186 -3.508342,-0.175966 -4.993566,1.793024 -0.892652,1.183412 -1.62301,2.620354 -1.62301,3.193218 0,1.590459 -2.965625,4.798974 -4.43569,4.798974 -0.717617,0 -1.712634,0.38505 -2.211152,0.85563 -0.498506,0.4706 -0.906384,0.5365 -0.906384,0.14644 z"
     style="fill:#94add6;fill-opacity:1;stroke-width:0.589657"
     id="path1316" />
  <path
     d="m 172.67235,82.237086 c -1.02427,-0.385937 -3.06363,-0.606244 -4.53194,-0.489569 -3.22218,0.256035 -5.31177,-1.412052 -5.3167,-4.244264 -0.003,-1.741423 -0.72135,-2.306958 -6.42025,-5.054607 -6.41291,-3.091909 -6.41683,-3.095512 -6.41683,-5.904816 0,-2.769142 -0.1431,-2.925685 -3.52915,-3.860574 -1.57664,-0.435309 -0.16692,-3.042296 2.131,-3.940821 1.51646,-0.592963 2.3733,-1.52833 2.66612,-2.910474 0.27569,-1.301209 0.90479,-2.036695 1.74209,-2.036695 1.84933,0 6.80914,-4.608799 6.80914,-6.327243 0,-1.660306 -0.87217,-2.285869 -4.03961,-2.897398 -1.68067,-0.324485 -2.43336,-0.970923 -2.85228,-2.449621 -0.31301,-1.104845 -1.0944,-2.379365 -1.73642,-2.832267 -1.206,-0.850747 -0.88419,-4.032056 0.40786,-4.032056 0.36697,0 0.66723,-1.283439 0.66723,-2.852088 0,-2.554167 0.194,-2.852088 1.85726,-2.852088 2.82248,0 7.16665,-2.299123 7.18803,-3.804206 0.0166,-1.167197 0.52879,-1.269583 4.73935,-0.94737 2.59643,0.198698 6.76014,0.675108 9.2527,1.058693 14.71742,2.26488 18.48352,2.58445 29.83526,2.531661 6.85455,-0.03188 15.69183,-0.426805 19.63839,-0.877626 3.94656,-0.450821 9.72478,-0.996377 12.84049,-1.21234 l 5.66492,-0.392663 -2.83249,2.356689 c -3.3333,2.773374 -3.59367,4.781872 -0.94412,7.283031 1.38826,1.310515 1.8883,2.54205 1.8883,4.650616 0,2.231038 0.39788,3.114151 1.7913,3.976028 1.65262,1.022202 1.72172,1.299018 0.89246,3.576038 -1.02793,2.822588 -3.50824,5.527576 -6.8633,7.484989 -1.27435,0.743484 -3.41901,2.800374 -4.76591,4.570866 -1.88573,2.478774 -3.17975,3.398221 -5.62678,3.998073 -1.74781,0.428451 -5.55712,1.598938 -8.46511,2.601102 -2.90799,1.00217 -6.88652,1.973736 -8.84116,2.159042 -1.95465,0.185306 -3.95066,0.788218 -4.43559,1.339796 -0.50296,0.572079 -2.25175,1.002871 -4.0711,1.002871 -2.23014,0 -3.60058,0.428911 -4.55652,1.426045 -0.75192,0.784338 -2.01657,1.42605 -2.81035,1.42605 -2.09368,0 -4.36521,1.311675 -4.36521,2.520667 0,0.756996 -0.90324,1.044442 -3.28189,1.044442 -3.47168,0 -5.16349,1.133133 -6.12121,4.099881 -0.40035,1.240173 -1.06351,1.594032 -2.9218,1.559107 -1.32214,-0.02482 -3.24193,-0.360965 -4.26618,-0.746901 z"
     style="fill:#94add6;fill-opacity:1;stroke-width:0.589657"
     id="path1314" />
  <path
     d="m 89.183148,64.305173 c -5.02339,-3.483845 -5.407063,-4.129972 -5.076489,-8.549101 0.217843,-2.912026 0.6147,-4.099875 1.36978,-4.099875 0.755156,0 1.063075,-0.922116 1.063075,-3.183516 0,-2.441792 -0.348039,-3.359343 -1.493779,-3.938192 -1.261801,-0.637473 -1.423356,-1.239859 -1.040202,-3.878691 0.380116,-2.61798 0.193873,-3.333937 -1.149844,-4.420024 -2.072845,-1.675436 -2.020649,-2.256255 0.292164,-3.251028 1.858994,-0.79958 1.886461,-0.926611 1.422459,-6.58017 -0.260227,-3.170668 -0.928209,-6.453757 -1.484403,-7.295754 -0.933799,-1.413627 -0.825773,-1.598432 1.41,-2.412293 5.724192,-2.083714 8.048444,-3.238964 8.066706,-4.009486 0.01073,-0.452354 1.633982,-0.996767 3.60727,-1.209798 7.154805,-0.772432 1.910672,-0.96217 4.695935,-2.7021392 2.77482,-1.7334513 13.84519,-2.6411271 23.11919,-2.1361844 8.83646,0.4811288 15.87262,8.9704176 15.44958,10.2286576 -0.21579,0.641808 0.0373,3.389445 -1.95828,2.202841 -1.99557,-1.186603 -8.65903,-9.2041777 -9.90363,-8.345516 -2.26293,1.561217 3.87381,6.855729 3.87381,8.342372 0,2.143228 0.21644,6.365646 2.16288,8.031432 2.31697,1.982897 4.22283,0.620624 9.40702,0.39986 7.5978,-0.323552 9.46419,1.596055 6.59724,6.785331 -1.55477,2.814195 -1.42441,5.451841 0.32028,6.480402 0.80185,0.472723 1.56661,1.740519 1.69948,2.817333 0.20283,1.643972 0.71872,2.050804 3.21802,2.537726 1.63706,0.318934 3.13375,0.728362 3.32599,0.90984 0.71881,0.678547 -4.85532,5.325133 -6.39687,5.332425 -1.15836,0.0055 -1.72515,0.574425 -2.03658,2.044291 -0.29579,1.396181 -1.15107,2.318062 -2.71957,2.931372 -1.71042,0.668798 -2.40899,1.503156 -2.76706,3.304924 -0.43186,2.173109 -0.6752,2.366735 -2.47327,1.967932 -1.09684,-0.243263 -2.89103,-1.228837 -3.98708,-2.19015 -2.05894,-1.805841 -6.09149,-3.012978 -10.16412,-3.042612 -1.36023,-0.0099 -2.90939,-0.613309 -3.70485,-1.443054 -1.72056,-1.794715 -8.26881,-2.05528 -8.95936,-0.356506 -0.23912,0.588242 -1.2102,1.074442 -2.15795,1.080444 -2.04036,0.01293 -2.93722,0.559042 -4.08048,2.484667 -0.66613,1.121986 -1.63243,1.426046 -4.53194,1.426046 -3.36549,0 -3.78231,0.189655 -4.803503,2.185714 -0.883648,1.727212 -1.596644,2.184025 -3.398943,2.177698 -1.254408,-0.0041 -2.790583,0.20625 -3.413721,0.468135 -0.651925,0.273978 -2.095111,-0.191108 -3.398955,-1.095353 z"
     style="fill:#94add6;fill-opacity:1;stroke-width:0.589657"
     id="path1312" />
</svg>
