<?xml version="1.0" encoding="UTF-8"?>
<svg id="Warstwa_2" data-name="Warstwa 2" xmlns="http://www.w3.org/2000/svg" xmlns:xlink="http://www.w3.org/1999/xlink" viewBox="0 0 140 140">
  <defs>
    <style>
      .cls-1 {
        stroke: #fdd203;
        stroke-width: 3.2px;
      }

      .cls-1, .cls-2, .cls-3 {
        stroke-miterlimit: 10;
      }

      .cls-1, .cls-3 {
        fill: none;
      }

      .cls-4 {
        fill: #000;
      }

      .cls-4, .cls-5, .cls-6 {
        stroke-width: 0px;
      }

      .cls-7 {
        opacity: .47;
      }

      .cls-7, .cls-6 {
        isolation: isolate;
      }

      .cls-2, .cls-3 {
        stroke: #ca151a;
        stroke-width: 3.02px;
      }

      .cls-2, .cls-6 {
        fill: #fff;
      }

      .cls-5 {
        fill: #fdd203;
      }

      .cls-6 {
        opacity: .56;
      }
    </style>
  </defs>
  <g id="Warstwa_1-2" data-name="Warstwa 1">
    <g>
      <circle class="cls-6" cx="70.18" cy="69.68" r="50.8"/>
      <circle class="cls-2" cx="70.18" cy="69.68" r="50.8"/>
      <g>
        <circle class="cls-3" cx="70.18" cy="69.68" r="50.8"/>
        <g>
          <image class="cls-7" width="141" height="141" transform="" xlink:href="../../../wzorpodstona-kontakt-ofirmie/675335FA78198AFF.png"/>
          <circle class="cls-1" cx="70.18" cy="69.68" r="54"/>
        </g>
        <g>
          <g>
            <path class="cls-4" d="M59.88,72.38v-2.2c0-1.8-.3-3.5-.9-5.2-.6-1.8-.9-3.7-.9-5.6v-4.3h-1.2v.6c0,5.8-1.9,11.4-5.3,16v2l1.2,1.6c.2.2.5.4.8.4,1.2,0,2.2,1,2.2,2.2v11.3h1.2v-4.3c0-2.2.5-4.5,1.5-6.5.9-1.9,1.4-3.9,1.4-6h0ZM56.88,76.28c-.6,0-1.1-.3-1.4-.7l-.4-.6c-1.3-1.8-1.4-4.1-.3-6l.7-1.2c.5-.8,1.5-1.1,2.3-.6.5.3.8.9.8,1.5v5.9c.1.9-.7,1.7-1.7,1.7Z"/>
            <path class="cls-4" d="M60.98,89.18h1.2v-10.1c-.8,1.2-1.2,2.6-1.2,4v6.1Z"/>
            <path class="cls-4" d="M72.78,89.18h1.2v-10.6c-.8,1.7-1.2,3.6-1.2,5.5v5.1Z"/>
            <path class="cls-4" d="M56.98,68.08c-.2,0-.4.1-.5.3l-.7,1.2c-.9,1.5-.8,3.3.2,4.7l.4.6c.2.3.6.3.8.1.1-.1.2-.3.2-.5v-5.9c.1-.3-.1-.5-.4-.5Z"/>
            <path class="cls-4" d="M59.28,59.38c0,1.8.3,3.5.9,5.2.6,1.8.9,3.7.9,5.6v2.2c0,2.2-.5,4.5-1.5,6.5-.9,1.8-1.4,3.9-1.4,6v4.3h1.8v-6.1c0-2.2.8-4.3,2.3-5.9v-22.1h-2.9v4.3h-.1Z"/>
            <path class="cls-4" d="M64.58,74.08v-2.2c0-2.2.5-4.5,1.5-6.5.9-1.8,1.4-3.9,1.4-6v-4.3h-1.8v6.1c0,2.2-.8,4.3-2.3,5.9v22.1h2.9v-4.3c0-1.8-.3-3.5-.9-5.2-.5-1.8-.8-3.7-.8-5.6Z"/>
            <path class="cls-4" d="M52.78,55.08h-1.2v10.6c.8-1.7,1.2-3.6,1.2-5.5v-5.1Z"/>
            <path class="cls-4" d="M53.58,76.88c-.7,0-1.3-.3-1.7-.9l-.2-.3v5.2l1.6,3.6c.3.6.7,1,1.3,1.2v-7.7c0-.7-.5-1.1-1-1.1Z"/>
            <path class="cls-4" d="M64.58,55.08h-1.2v10.1c.8-1.2,1.2-2.6,1.2-4v-6.1Z"/>
            <path class="cls-4" d="M52.18,84.88l-.5-1.1v5.5h2.9v-2.4c-1.1-.3-2-1-2.4-2Z"/>
            <path class="cls-4" d="M55.78,55.08h-1.8v5.2c0,2.8-.8,5.6-2.3,7.9v1.5c2.7-4.2,4.1-9,4.1-14,0,0,0-.6,0-.6Z"/>
            <path class="cls-4" d="M69.78,89.18h1.8v-5.2c0-2.8.8-5.6,2.3-7.9v-1.5c-2.7,4.2-4.1,9-4.1,14,0,0,0,.6,0,.6Z"/>
            <path class="cls-4" d="M75.08,71.58h10.6v1.2h-10.6s0-1.2,0-1.2Z"/>
            <path class="cls-4" d="M75.08,80.98h10.6v1.2h-10.6s0-1.2,0-1.2Z"/>
            <path class="cls-4" d="M69.08,69.48c-.2-.3-.6-.3-.8-.1-.1.1-.2.3-.2.5v5.9c0,.3.2.5.5.5.2,0,.4-.1.5-.3l.7-1.2c.9-1.5.8-3.3-.2-4.7l-.5-.6Z"/>
            <path class="cls-4" d="M75.08,76.28h10.6v1.2h-10.6s0-1.2,0-1.2Z"/>
            <path class="cls-4" d="M75.08,57.48h10.6v1.2h-10.6s0-1.2,0-1.2Z"/>
            <path class="cls-4" d="M75.08,62.18h10.6v1.2h-10.6s0-1.2,0-1.2Z"/>
            <path class="cls-4" d="M75.08,66.88h10.6v1.2h-10.6s0-1.2,0-1.2Z"/>
            <path class="cls-4" d="M70.98,58.68v7.7c0,.5.4,1,1,1,.7,0,1.3.3,1.7.9l.2.3v-5.2l-1.6-3.6c-.2-.4-.7-.9-1.3-1.1Z"/>
            <path class="cls-4" d="M70.98,57.48c1.1.2,2,.9,2.4,1.9l.5,1.1v-5.5h-2.9v2.5Z"/>
            <path class="cls-4" d="M71.98,68.58c-1.2,0-2.2-1-2.2-2.2v-11.3h-1.2v4.3c0,2.2-.5,4.5-1.5,6.5-.9,1.8-1.4,3.9-1.4,6v2.2c0,1.8.3,3.5.9,5.2.6,1.8.9,3.7.9,5.6v4.3h1.2v-.6c0-5.8,1.9-11.4,5.3-16v-2l-1.2-1.6c-.2-.2-.5-.4-.8-.4ZM70.78,75.38l-.7,1.2c-.5.8-1.5,1.1-2.3.6-.5-.3-.8-.9-.8-1.5v-5.9c0-1,.8-1.8,1.8-1.8.6,0,1.1.3,1.4.7l.4.6c1.2,1.8,1.4,4.2.2,6.1h0Z"/>
            <path class="cls-4" d="M75.08,85.68h10.6v1.2h-10.6s0-1.2,0-1.2Z"/>
          </g>
          <path class="cls-5" d="M95.18,42.28v6.6h6.4v3.1h-6.4v6.6h-3.3v-6.6h-6.4v-3.1h6.4v-6.6h3.3Z"/>
        </g>
      </g>
    </g>
  </g>
</svg>