<?xml version="1.0" encoding="UTF-8"?>
<svg id="Warstwa_2" data-name="Warstwa 2" xmlns="http://www.w3.org/2000/svg" xmlns:xlink="http://www.w3.org/1999/xlink" viewBox="0 0 140 140">
  <defs>
    <style>
      .cls-1 {
        stroke: #fdd203;
        stroke-width: 3.2px;
      }

      .cls-1, .cls-2, .cls-3 {
        stroke-miterlimit: 10;
      }

      .cls-1, .cls-3 {
        fill: none;
      }

      .cls-4 {
        fill: #000;
      }

      .cls-4, .cls-5, .cls-6 {
        stroke-width: 0px;
      }

      .cls-7 {
        opacity: .47;
      }

      .cls-7, .cls-6 {
        isolation: isolate;
      }

      .cls-2, .cls-3 {
        stroke: #ca151a;
        stroke-width: 3.02px;
      }

      .cls-2, .cls-6 {
        fill: #fff;
      }

      .cls-5 {
        fill: #fdd203;
      }

      .cls-6 {
        opacity: .56;
      }
    </style>
  </defs>
  <g id="Warstwa_1-2" data-name="Warstwa 1">
    <g>
      <circle class="cls-6" cx="70.19" cy="69.69" r="50.8" transform="translate(-13.76 121.99) rotate(-76.72)"/>
      <circle class="cls-2" cx="70.19" cy="69.69" r="50.8" transform="translate(-13.76 121.99) rotate(-76.72)"/>
      <g>
        <circle class="cls-3" cx="70.19" cy="69.69" r="50.8" transform="translate(-13.76 121.99) rotate(-76.72)"/>
        <g>
          <image class="cls-7" width="141" height="141" transform="" xlink:href="../../../wzorpodstona-kontakt-ofirmie/675335FA78198AC4.png"/>
          <circle class="cls-1" cx="70.19" cy="69.69" r="54"/>
        </g>
        <g>
          <path class="cls-5" d="M95.19,42.29v6.6h6.4v3.1h-6.4v6.6h-3.4v-6.6h-6.4v-3.1h6.4v-6.6h3.4Z"/>
          <g>
            <path class="cls-4" d="M79.79,90.99c0,.4.4.7.8.7h1.4c.4,0,.8-.4.8-.8v-4.1h-3.5l.5,4.2Z"/>
            <path class="cls-4" d="M52.69,90.89c0,.4.4.8.8.8h1.4c.4,0,.7-.3.8-.7l.5-4.2h-3.4v4.1h-.1Z"/>
            <path class="cls-4" d="M85.39,64.49l1.3-6.4c.1-.6-.4-1.2-1-1.2h-35.7c-.6,0-1.1.6-1,1.2l1.3,6.4h35.1ZM67.79,59.39c.6,0,1.1.5,1.1,1.1s-.5,1.1-1.1,1.1-1.1-.5-1.1-1.1.5-1.1,1.1-1.1Z"/>
            <path class="cls-4" d="M85.69,76.49h-35.7c-.6,0-1.1.6-1,1.2l1.2,6c.1.5.5.8,1,.8h33.4c.5,0,.9-.3,1-.8l1.2-6c0-.6-.5-1.2-1.1-1.2h0ZM67.79,80.99c-.6,0-1.1-.5-1.1-1.1s.5-1.1,1.1-1.1,1.1.5,1.1,1.1c0,.6-.5,1.1-1.1,1.1h0Z"/>
            <path class="cls-4" d="M85.69,66.19h-35.7c-.6,0-1.1.6-1,1.2l1.3,6.9h35.1l1.3-6.9c.1-.6-.4-1.2-1-1.2ZM67.79,70.99c-.6,0-1.1-.5-1.1-1.1s.5-1.1,1.1-1.1,1.1.5,1.1,1.1c0,.6-.5,1.1-1.1,1.1h0Z"/>
          </g>
        </g>
      </g>
    </g>
  </g>
</svg>