<?xml version="1.0" encoding="UTF-8"?>
<svg id="Warstwa_2" data-name="Warstwa 2" xmlns="http://www.w3.org/2000/svg" xmlns:xlink="http://www.w3.org/1999/xlink" viewBox="0 0 140 140">
  <defs>
    <style>
      .cls-1 {
        stroke: #fdd203;
        stroke-width: 3.2px;
      }

      .cls-1, .cls-2, .cls-3 {
        stroke-miterlimit: 10;
      }

      .cls-1, .cls-3 {
        fill: none;
      }

      .cls-4 {
        fill: #000;
      }

      .cls-4, .cls-5, .cls-6, .cls-7 {
        stroke-width: 0px;
      }

      .cls-8 {
        opacity: .47;
      }

      .cls-8, .cls-7 {
        isolation: isolate;
      }

      .cls-2, .cls-3 {
        stroke: #ca151a;
        stroke-width: 3.02px;
      }

      .cls-2, .cls-5, .cls-7 {
        fill: #fff;
      }

      .cls-6 {
        fill: #fdd203;
      }

      .cls-7 {
        opacity: .56;
      }
    </style>
  </defs>
  <g id="Warstwa_1-2" data-name="Warstwa 1">
    <g>
      <circle class="cls-7" cx="70.2" cy="69.68" r="50.8"/>
      <circle class="cls-2" cx="70.2" cy="69.68" r="50.8"/>
      <g>
        <circle class="cls-3" cx="70.2" cy="69.68" r="50.8"/>
        <g>
          <image class="cls-8" width="141" height="141" transform="" xlink:href="../../../wzorpodstona-kontakt-ofirmie/675335FA78198AFB.png"/>
          <circle class="cls-1" cx="70.2" cy="69.68" r="54"/>
        </g>
        <g>
          <path class="cls-6" d="M95.2,42.28v6.6h6.4v3.1h-6.4v6.6h-3.4v-6.6h-6.4v-3.1h6.4v-6.6h3.4Z"/>
          <g>
            <g>
              <path class="cls-4" d="M55.2,85.78h-2.2c-.3,0-.6-.3-.6-.6v-35.2c0-.3.3-.6.6-.6h24.6v2.8l-22.4,33.6Z"/>
              <path class="cls-4" d="M74.9,49.38v2.8l.8,2.8,1.9-2.8v-2.2c0-.3-.3-.6-.6-.6h-2.1Z"/>
              <path class="cls-5" d="M60.9,88.28c-1.7.1-3.4.2-5,.3-.3,0-.6-.3-.6-.6v-35.2c0-.3.3-.6.6-.6h23.2c0,1.7.1,3.5.1,5.2-6.1,10.3-12.2,20.6-18.3,30.9Z"/>
              <path class="cls-4" d="M81,54.88c-7.1,0-14.1.1-21.2.1-1,0-1.8.8-1.8,1.8v36h24.9c0-12,0-24.1-.1-36.1,0-.1,0-.8-.5-1.3s-1.2-.5-1.3-.5Z"/>
            </g>
            <g>
              <g>
                <path class="cls-5" d="M60.8,58.48c-.4,0-.7-.3-.7-.7s.3-.7.7-.7.7.3.7.7-.3.7-.7.7h0Z"/>
                <path class="cls-5" d="M63.6,58.48c-.4,0-.7-.3-.7-.7s.3-.7.7-.7.7.3.7.7c0,.3-.3.7-.7.7Z"/>
                <path class="cls-5" d="M66.4,58.48c-.4,0-.7-.3-.7-.7s.3-.7.7-.7.7.3.7.7c0,.3-.3.7-.7.7h0Z"/>
                <path class="cls-5" d="M69.2,58.48c-.4,0-.7-.3-.7-.7s.3-.7.7-.7.7.3.7.7-.3.7-.7.7h0Z"/>
                <path class="cls-5" d="M72,58.48c-.4,0-.7-.3-.7-.7s.3-.7.7-.7.7.3.7.7c0,.4-.3.7-.7.7Z"/>
                <path class="cls-5" d="M74.8,58.48c-.4,0-.7-.3-.7-.7s.3-.7.7-.7.7.3.7.7-.3.7-.7.7Z"/>
                <path class="cls-5" d="M77.6,58.48c-.4,0-.7-.3-.7-.7s.3-.7.7-.7.7.3.7.7c0,.4-.3.7-.7.7Z"/>
                <path class="cls-5" d="M80.4,58.48c-.3,0-.6-.2-.7-.5-.1-.4.2-.8.7-.8.4,0,.7.3.7.7,0,.2-.3.6-.7.6h0Z"/>
              </g>
              <g>
                <path class="cls-5" d="M62.2,61.28c-.4,0-.7-.3-.7-.7,0-.3.3-.7.7-.7s.7.3.7.7-.3.7-.7.7Z"/>
                <path class="cls-5" d="M65,61.28c-.4,0-.7-.3-.7-.7s.3-.7.7-.7.7.3.7.7c0,.4-.3.7-.7.7h0Z"/>
                <path class="cls-5" d="M67.8,61.28c-.4,0-.7-.4-.7-.8.1-.3.3-.5.7-.5s.7.3.7.7c0,.3-.3.6-.7.6h0Z"/>
                <path class="cls-5" d="M70.6,61.28c-.4,0-.7-.3-.7-.7s.3-.7.7-.7.7.3.7.7c0,.4-.3.7-.7.7Z"/>
                <path class="cls-5" d="M73.4,61.28c-.4,0-.7-.3-.7-.7s.3-.7.7-.7.7.3.7.7-.3.7-.7.7Z"/>
                <path class="cls-5" d="M76.2,61.28c-.4,0-.7-.3-.7-.7s.3-.7.7-.7.7.3.7.7-.3.7-.7.7Z"/>
                <path class="cls-5" d="M79,61.28c-.4,0-.7-.3-.7-.7s.3-.7.7-.7.7.3.7.7c0,.4-.3.7-.7.7Z"/>
              </g>
              <g>
                <circle class="cls-5" cx="60.8" cy="63.38" r=".7"/>
                <path class="cls-5" d="M63.6,64.08c-.4,0-.7-.3-.7-.7,0-.3.3-.7.7-.7s.7.3.7.7c0,.4-.3.7-.7.7Z"/>
                <path class="cls-5" d="M66.4,64.08c-.4,0-.7-.3-.7-.7s.4-.7.7-.7c.4,0,.7.3.7.7s-.3.7-.7.7Z"/>
                <path class="cls-5" d="M69.2,64.08c-.4,0-.7-.3-.7-.7s.3-.7.7-.7.7.3.7.7-.3.7-.7.7h0Z"/>
                <path class="cls-5" d="M72,64.08c-.4,0-.7-.3-.7-.7s.3-.7.7-.7c.3,0,.7.3.7.7,0,.4-.3.7-.7.7Z"/>
                <path class="cls-5" d="M74.8,64.08c-.4,0-.7-.3-.7-.7s.3-.7.7-.7.7.3.7.7-.3.7-.7.7Z"/>
                <path class="cls-5" d="M77.6,64.08c-.4,0-.7-.3-.7-.7s.3-.7.7-.7.7.3.7.7c0,.4-.3.7-.7.7Z"/>
                <path class="cls-5" d="M80.4,64.08c-.4,0-.7-.3-.7-.7s.3-.7.7-.7.7.3.7.7-.3.7-.7.7Z"/>
              </g>
              <g>
                <path class="cls-5" d="M62.2,66.88c-.4,0-.7-.3-.7-.7s.3-.7.7-.7.7.3.7.7-.3.7-.7.7Z"/>
                <path class="cls-5" d="M65,66.88c-.4,0-.7-.3-.7-.7s.3-.7.7-.7c.3,0,.7.3.7.7,0,.4-.3.7-.7.7Z"/>
                <path class="cls-5" d="M67.8,66.88c-.4,0-.7-.3-.7-.7s.3-.7.7-.7c.3,0,.7.3.7.7,0,.3-.3.7-.7.7Z"/>
                <path class="cls-5" d="M70.6,66.88c-.4,0-.7-.3-.7-.7s.3-.7.7-.7c.3,0,.7.3.7.7,0,.4-.3.7-.7.7Z"/>
                <path class="cls-5" d="M73.4,66.88c-.4,0-.7-.3-.7-.7s.3-.7.7-.7.7.3.7.7-.3.7-.7.7Z"/>
                <path class="cls-5" d="M76.2,66.88c-.4,0-.7-.3-.7-.7s.3-.7.7-.7.7.4.7.8c-.1.3-.4.6-.7.6Z"/>
                <path class="cls-5" d="M79,66.88c-.4,0-.7-.3-.7-.7s.3-.7.7-.7c.3,0,.7.3.7.7,0,.3-.3.7-.7.7Z"/>
              </g>
              <g>
                <path class="cls-5" d="M60.8,69.68c-.3,0-.7-.3-.7-.7s.3-.7.7-.7.7.3.7.7-.3.7-.7.7Z"/>
                <path class="cls-5" d="M63.6,69.68c-.4,0-.7-.3-.7-.7s.3-.7.7-.7.7.3.7.7c0,.4-.3.7-.7.7h0Z"/>
                <path class="cls-5" d="M66.4,69.68c-.3,0-.7-.3-.7-.7s.3-.7.7-.7.7.3.7.7-.3.7-.7.7Z"/>
                <path class="cls-5" d="M69.2,69.68c-.4,0-.7-.3-.7-.7s.3-.7.7-.7.7.3.7.7-.3.7-.7.7h0Z"/>
                <path class="cls-5" d="M72,69.68c-.4,0-.7-.3-.7-.7,0-.3.3-.7.7-.7s.7.3.7.7c0,.4-.3.7-.7.7Z"/>
                <circle class="cls-5" cx="74.8" cy="68.98" r=".7"/>
                <path class="cls-5" d="M77.6,69.68c-.3,0-.7-.3-.7-.7s.3-.7.7-.7.7.3.7.7c0,.4-.3.7-.7.7Z"/>
                <path class="cls-5" d="M80.4,69.68c-.3,0-.7-.3-.7-.7s.3-.7.7-.7.7.3.7.7c0,.2-.1.4-.2.5-.1.1-.3.2-.5.2h0Z"/>
              </g>
              <g>
                <path class="cls-5" d="M62.2,72.48c-.4,0-.7-.3-.7-.7s.3-.7.7-.7.7.3.7.7-.3.7-.7.7h0Z"/>
                <path class="cls-5" d="M65,72.48c-.4,0-.7-.3-.7-.7s.3-.7.7-.7.7.3.7.7c0,.4-.3.7-.7.7Z"/>
                <path class="cls-5" d="M67.8,72.48c-.4,0-.7-.3-.7-.7s.3-.7.7-.7.7.3.7.7-.3.7-.7.7Z"/>
                <path class="cls-5" d="M70.6,72.48c-.4,0-.7-.3-.7-.7s.3-.7.7-.7.7.3.7.7c0,.4-.3.7-.7.7Z"/>
                <path class="cls-5" d="M73.4,72.48c-.4,0-.7-.3-.7-.7s.3-.7.7-.7.7.3.7.7-.3.7-.7.7Z"/>
                <path class="cls-5" d="M76.2,72.48c-.4,0-.7-.3-.7-.7s.3-.7.7-.7.7.3.7.7-.3.7-.7.7h0Z"/>
                <path class="cls-5" d="M79,72.48h-.1c-.3-.1-.5-.3-.5-.7s.3-.7.7-.7.7.3.7.7c-.1.4-.4.7-.8.7Z"/>
              </g>
              <g>
                <path class="cls-5" d="M60.8,75.28c-.4,0-.7-.3-.7-.7s.3-.7.7-.7.7.3.7.7-.3.7-.7.7Z"/>
                <path class="cls-5" d="M63.6,75.28c-.4,0-.7-.3-.7-.7s.3-.7.7-.7.7.3.7.7c0,.4-.3.7-.7.7h0Z"/>
                <path class="cls-5" d="M66.4,75.28c-.4,0-.7-.3-.7-.7s.3-.7.7-.7.7.3.7.7-.3.7-.7.7h0Z"/>
                <circle class="cls-5" cx="69.2" cy="74.58" r=".7"/>
                <path class="cls-5" d="M72,75.28c-.4,0-.7-.3-.7-.7s.3-.7.7-.7.7.3.7.7c0,.4-.3.7-.7.7h0Z"/>
                <path class="cls-5" d="M74.8,75.28c-.4,0-.7-.3-.7-.7s.3-.7.7-.7.7.3.7.7-.3.7-.7.7Z"/>
                <path class="cls-5" d="M77.6,75.28c-.4,0-.7-.3-.7-.7s.3-.7.7-.7.7.3.7.7c0,.4-.3.7-.7.7Z"/>
                <path class="cls-5" d="M80.4,75.28c-.4,0-.7-.3-.7-.7s.3-.7.7-.7.7.3.7.7-.3.7-.7.7Z"/>
              </g>
              <g>
                <path class="cls-5" d="M62.2,78.08c-.4,0-.7-.3-.7-.7s.3-.7.7-.7.7.3.7.7-.3.7-.7.7h0Z"/>
                <path class="cls-5" d="M65,78.08c-.4,0-.7-.3-.7-.7s.3-.7.7-.7.7.3.7.7c0,.4-.3.7-.7.7Z"/>
                <path class="cls-5" d="M67.8,78.08c-.4,0-.7-.3-.7-.7s.3-.7.7-.7.7.3.7.7-.3.7-.7.7Z"/>
                <path class="cls-5" d="M70.6,78.08c-.4,0-.7-.3-.7-.7s.3-.7.7-.7.7.3.7.7c0,.4-.3.7-.7.7Z"/>
                <path class="cls-5" d="M73.4,78.08c-.4,0-.7-.3-.7-.7s.3-.7.7-.7.7.3.7.7-.3.7-.7.7h0Z"/>
                <path class="cls-5" d="M76.2,78.08c-.4,0-.7-.3-.7-.7s.3-.7.7-.7.7.3.7.7c0,.2-.1.4-.2.5-.1.1-.3.2-.5.2Z"/>
                <path class="cls-5" d="M79,78.08c-.4,0-.7-.3-.7-.7s.3-.7.7-.7.7.3.7.7c0,.4-.3.7-.7.7Z"/>
              </g>
              <g>
                <path class="cls-5" d="M60.8,80.88c-.4,0-.7-.3-.7-.7s.3-.7.7-.7.7.3.7.7-.3.7-.7.7Z"/>
                <path class="cls-5" d="M63.6,80.88c-.4,0-.7-.3-.7-.7s.3-.7.7-.7.7.3.7.7c0,.4-.3.7-.7.7h0Z"/>
                <path class="cls-5" d="M65.8,80.28c-.1-.4.2-.8.7-.8.4,0,.7.3.7.7,0,.1-.1.5-.4.6-.5.2-1-.1-1-.5h0Z"/>
                <path class="cls-5" d="M69.2,80.88c-.4,0-.7-.3-.7-.7s.3-.7.7-.7.7.3.7.7-.3.7-.7.7Z"/>
                <path class="cls-5" d="M72,80.88c-.4,0-.7-.3-.7-.7s.3-.7.7-.7.7.3.7.7c0,.3-.3.7-.7.7Z"/>
                <path class="cls-5" d="M74.8,80.88c-.4,0-.7-.3-.7-.7s.3-.7.7-.7.7.3.7.7-.3.7-.7.7Z"/>
                <path class="cls-5" d="M77.6,80.88c-.4,0-.7-.3-.7-.7s.3-.7.7-.7.7.3.7.7c0,.4-.3.7-.7.7Z"/>
                <path class="cls-5" d="M80.4,80.88c-.3,0-.7-.3-.7-.7s.3-.7.7-.7.7.3.7.7-.3.7-.7.7Z"/>
              </g>
              <g>
                <path class="cls-5" d="M62.2,83.68c-.4,0-.7-.3-.7-.7s.3-.7.7-.7.7.3.7.7-.3.7-.7.7Z"/>
                <path class="cls-5" d="M65,83.68c-.4,0-.7-.3-.7-.7s.3-.7.7-.7.7.3.7.7c0,.4-.3.7-.7.7h0Z"/>
                <path class="cls-5" d="M67.8,83.68c-.4,0-.7-.3-.7-.7s.3-.7.7-.7.7.3.7.7-.3.7-.7.7Z"/>
                <path class="cls-5" d="M70.6,83.68c-.4,0-.7-.3-.7-.7s.3-.7.7-.7.7.3.7.7c0,.4-.3.7-.7.7h0Z"/>
                <path class="cls-5" d="M73.4,83.68c-.4,0-.7-.3-.7-.7s.3-.7.7-.7.7.3.7.7-.3.7-.7.7Z"/>
                <path class="cls-5" d="M76.2,83.68c-.4,0-.7-.3-.7-.7s.3-.7.7-.7.7.3.7.7-.3.7-.7.7Z"/>
                <path class="cls-5" d="M79,83.68c-.4,0-.7-.3-.7-.7s.3-.7.7-.7.7.3.7.7c0,.4-.3.7-.7.7h0Z"/>
              </g>
              <g>
                <path class="cls-5" d="M62.2,89.28c-.4,0-.7-.3-.7-.7s.3-.7.7-.7.7.3.7.7-.3.7-.7.7h0Z"/>
                <path class="cls-5" d="M65,89.28c-.4,0-.7-.3-.7-.7s.3-.7.7-.7.7.3.7.7c0,.4-.3.7-.7.7Z"/>
                <circle class="cls-5" cx="67.8" cy="88.58" r=".7"/>
                <path class="cls-5" d="M70.6,89.28c-.4,0-.7-.4-.7-.8.1-.3.3-.5.7-.5s.7.3.7.7c0,.3-.3.6-.7.6Z"/>
                <path class="cls-5" d="M73.4,89.28c-.4,0-.7-.3-.7-.7s.3-.7.7-.7.7.3.7.7-.3.7-.7.7Z"/>
                <path class="cls-5" d="M76.2,89.28c-.4,0-.7-.3-.7-.7s.3-.7.7-.7.7.3.7.7-.3.7-.7.7Z"/>
                <circle class="cls-5" cx="79" cy="88.58" r=".7"/>
              </g>
              <g>
                <path class="cls-5" d="M60.8,86.48c-.4,0-.7-.3-.7-.7s.3-.7.7-.7c.3,0,.7.3.7.7s-.3.7-.7.7Z"/>
                <path class="cls-5" d="M63.6,86.48c-.4,0-.7-.4-.7-.8.1-.3.3-.5.7-.5s.7.3.7.7c0,.3-.3.6-.7.6h0Z"/>
                <path class="cls-5" d="M66.4,86.48c-.3,0-.6-.2-.7-.5-.1-.4.3-.8.7-.8s.7.3.7.7c0,.3-.3.6-.7.6h0Z"/>
                <path class="cls-5" d="M69.2,86.48c-.4,0-.7-.3-.7-.7s.3-.7.7-.7.7.3.7.7-.3.7-.7.7h0Z"/>
                <path class="cls-5" d="M72,86.48c-.4,0-.7-.3-.7-.7s.3-.7.7-.7.7.3.7.7c0,.4-.3.7-.7.7Z"/>
                <path class="cls-5" d="M74.8,86.48c-.4,0-.7-.3-.7-.7s.3-.7.7-.7.7.3.7.7-.3.7-.7.7Z"/>
                <path class="cls-5" d="M77.6,86.48c-.4,0-.7-.3-.7-.7s.3-.7.7-.7.7.3.7.7c0,.3-.3.7-.7.7Z"/>
                <path class="cls-5" d="M80.4,86.48c-.4,0-.7-.3-.7-.7s.3-.7.7-.7.7.3.7.7-.3.7-.7.7Z"/>
              </g>
            </g>
          </g>
        </g>
      </g>
    </g>
  </g>
</svg>