<?xml version="1.0" encoding="UTF-8"?>
<svg id="Warstwa_2" data-name="Warstwa 2" xmlns="http://www.w3.org/2000/svg" xmlns:xlink="http://www.w3.org/1999/xlink" viewBox="0 0 140 140">
  <defs>
    <style>
      .cls-1 {
        stroke: #fdd203;
        stroke-width: 3.2px;
      }

      .cls-1, .cls-2, .cls-3 {
        stroke-miterlimit: 10;
      }

      .cls-1, .cls-3 {
        fill: none;
      }

      .cls-4 {
        fill: #000;
      }

      .cls-4, .cls-5, .cls-6 {
        stroke-width: 0px;
      }

      .cls-7 {
        opacity: .47;
      }

      .cls-7, .cls-6 {
        isolation: isolate;
      }

      .cls-2, .cls-3 {
        stroke: #ca151a;
        stroke-width: 3.02px;
      }

      .cls-2, .cls-6 {
        fill: #fff;
      }

      .cls-5 {
        fill: #fdd203;
      }

      .cls-6 {
        opacity: .56;
      }
    </style>
  </defs>
  <g id="Warstwa_1-2" data-name="Warstwa 1">
    <g>
      <circle class="cls-6" cx="70.21" cy="69.69" r="50.8"/>
      <circle class="cls-2" cx="70.21" cy="69.69" r="50.8"/>
      <g>
        <circle class="cls-3" cx="70.21" cy="69.69" r="50.8"/>
        <g>
          <image class="cls-7" width="141" height="141" transform="" xlink:href="../../../wzorpodstona-kontakt-ofirmie/675335FA78198AC5.png"/>
          <circle class="cls-1" cx="70.21" cy="69.69" r="54"/>
        </g>
        <g>
          <path class="cls-5" d="M95.21,42.29v6.6h6.4v3.1h-6.4v6.6h-3.4v-6.6h-6.4v-3.1h6.4v-6.6h3.4Z"/>
          <g>
            <path class="cls-4" d="M93.21,86.69h-46.7c-.6,0-1.1-.6-1.1-1.2v-5c0-.7.5-1.2,1.1-1.2h46.7c.6,0,1.1.6,1.1,1.2v5c-.1.7-.6,1.2-1.1,1.2ZM47.51,84.19h44.6v-2.5h-44.6v2.5Z"/>
            <g id="_05_Popular" data-name="05 Popular">
              <path class="cls-4" d="M76.41,60.69c-.1-.1-.2-.1-.2-.1,0,0-.1.1-.1.2v.4c0,.6-.2,1.2-.7,1.7-.4.4-1,.7-1.6.7-.8,0-1.5-.4-2-1.3-.4-.7-.2-1.5,0-2.5.1-.5.2-1.1.2-1.6,0-4.1-2.8-6.5-4.4-7.5h-.2s-.1.1-.1.2c.6,3.3-1.2,5.4-3.2,7.5-2.1,2.2-4.4,4.7-4.4,9.2,0,5.2,4.2,9.5,9.5,9.5,4.3,0,8.1-3,9.2-7.3.8-3-.1-6.7-2-9.1ZM69.41,74.99c-1.3.1-2.5-.4-3.5-1.3-.9-.9-1.5-2.1-1.5-3.4,0-2.4.9-4.2,3.4-6.5l.1-.1h.1s.1.1.1.2c-.1,1-.1,1.9,0,2.5.2,1.7,1.5,2.8,3.1,2.8.8,0,1.5-.3,2.1-.8q.1-.1.2,0s.1,0,.1.1c.2.6.4,1.2.4,1.8,0,2.5-2.1,4.6-4.6,4.7h0Z"/>
            </g>
          </g>
        </g>
      </g>
    </g>
  </g>
</svg>