<?xml version="1.0" encoding="UTF-8"?>
<svg id="Warstwa_2" data-name="Warstwa 2" xmlns="http://www.w3.org/2000/svg" xmlns:xlink="http://www.w3.org/1999/xlink" viewBox="0 0 140 140">
  <defs>
    <style>
      .cls-1 {
        stroke: #fdd203;
        stroke-width: 3.2px;
      }

      .cls-1, .cls-2, .cls-3 {
        stroke-miterlimit: 10;
      }

      .cls-1, .cls-3 {
        fill: none;
      }

      .cls-4 {
        fill: #000;
      }

      .cls-4, .cls-5, .cls-6, .cls-7 {
        stroke-width: 0px;
      }

      .cls-8 {
        opacity: .47;
      }

      .cls-8, .cls-7 {
        isolation: isolate;
      }

      .cls-2, .cls-3 {
        stroke: #ca151a;
        stroke-width: 3.02px;
      }

      .cls-2, .cls-5, .cls-7 {
        fill: #fff;
      }

      .cls-6 {
        fill: #fdd203;
      }

      .cls-7 {
        opacity: .56;
      }
    </style>
  </defs>
  <g id="Warstwa_1-2" data-name="Warstwa 1">
    <g>
      <circle class="cls-7" cx="70.18" cy="69.68" r="50.8"/>
      <circle class="cls-2" cx="70.18" cy="69.68" r="50.8"/>
      <g>
        <circle class="cls-3" cx="70.18" cy="69.68" r="50.8"/>
        <g>
          <image class="cls-8" width="141" height="141" transform="" xlink:href="../../../wzorpodstona-kontakt-ofirmie/675335FA78198AFD.png"/>
          <circle class="cls-1" cx="70.18" cy="69.68" r="54"/>
        </g>
        <g>
          <path class="cls-6" d="M95.18,42.28v6.6h6.4v3.1h-6.4v6.6h-3.4v-6.6h-6.4v-3.1h6.4v-6.6h3.4Z"/>
          <g>
            <rect class="cls-4" x="52.68" y="54.78" width="34.1" height="33.8"/>
            <circle class="cls-5" cx="54.78" cy="65.98" r=".5"/>
            <circle class="cls-5" cx="54.78" cy="77.38" r=".5"/>
            <circle class="cls-5" cx="63.98" cy="86.58" r=".5"/>
            <circle class="cls-5" cx="75.38" cy="86.58" r=".5"/>
            <circle class="cls-5" cx="84.68" cy="77.38" r=".5"/>
            <circle class="cls-5" cx="84.68" cy="65.98" r=".5"/>
            <circle class="cls-5" cx="75.38" cy="56.78" r=".5"/>
            <circle class="cls-5" cx="63.98" cy="56.78" r=".5"/>
            <path class="cls-4" d="M86.68,54.18h-33.9c-.3,0-.5.2-.5.5v34c0,.3.2.5.5.5h33.9c.3,0,.5-.2.5-.5v-34c0-.3-.2-.5-.5-.5ZM86.18,88.08h-32.9v-32.9h32.9v32.9Z"/>
            <g>
              <path class="cls-5" d="M84.18,80.68v5.4h-5.4l-1.9-1.9c-.1-.1-.2-.2-.4-.2h-13.5c-.1,0-.3,0-.4.2l-1.9,1.9h-5.4v-5.4l1.9-1.9c.1-.1.2-.2.2-.4v-5.7h0v-7.8c0-.1,0-.3-.2-.4l-1.9-1.9v-5.4h5.4l1.9,1.9c.1.1.2.2.4.2h13.5c.2,0,.3,0,.4-.2l1.9-1.9h5.4v5.4l-1.9,1.9c-.1.1-.1.2-.1.4v13.5c0,.1,0,.3.1.4l1.9,1.9Z"/>
              <path class="cls-4" d="M57.38,72.68h0c0,.3-.3.6-.5.5-.3,0-.5-.3-.5-.5s.2-.5.5-.5.5.2.5.5Z"/>
              <path class="cls-4" d="M55.28,62.68l1.9,1.9c.1.1.2.2.2.4v7.8c0-.3-.2-.5-.5-.5s-.5.2-.5.5v-7.5l-1.9-1.9c-.1-.1-.2-.2-.2-.4v-6.1c0-.3.2-.5.5-.5h6.1c.1,0,.3.1.4.2l1.9,1.9h13l1.9-1.9c.1-.1.2-.2.4-.2h6.1c.3,0,.5.2.5.5v6.1c0,.1-.1.3-.2.4l-1.9,1.9v13l1.9,1.9c.1.1.2.2.2.4v6.1c0,.3-.2.5-.5.5h-6.1c-.2,0-.3-.1-.4-.2l-1.9-1.9h-13l-1.9,1.9c-.1.1-.2.2-.4.2h-6.1c-.3,0-.5-.2-.5-.5v-6.1c0-.1.1-.3.2-.4l1.9-1.9v-5.6c0,.3.2.5.5.5s.5-.2.5-.5v5.7c0,.1,0,.3-.2.4l-1.9,1.9v5.4h5.4l1.9-1.9c.1-.1.2-.2.4-.2h13.5c.2,0,.3,0,.4.2l1.9,1.9h5.4v-5.4l-1.9-1.9c-.1-.1-.1-.2-.1-.4v-13.5c0-.1,0-.3.1-.4l1.9-1.9v-5.4h-5.4l-1.9,1.9c-.1.1-.2.2-.4.2h-13.5c-.1,0-.3,0-.4-.2l-1.9-1.9h-5.4v5.5h0Z"/>
            </g>
            <path class="cls-4" d="M64.58,64.48h10.4c1.1,0,2-.9,2-2s-.9-2-2-2h-10.4c-1.1,0-2,.9-2,2-.1,1,.8,2,2,2ZM64.58,61.38h10.4c.6,0,1,.5,1,1,0,.6-.5,1-1,1h-10.4c-.6,0-1-.5-1-1-.1-.6.4-1,1-1Z"/>
          </g>
        </g>
      </g>
    </g>
  </g>
</svg>