<?xml version="1.0" encoding="UTF-8" standalone="no"?>
<!-- Created with Inkscape (http://www.inkscape.org/) -->

<svg
   width="658"
   height="121"
   viewBox="0 0 658 121"
   version="1.1"
   id="svg1319"
   xmlns="http://www.w3.org/2000/svg"
   xmlns:svg="http://www.w3.org/2000/svg">
  <defs
     id="defs1316" />
  <g
     id="layer1">
    <g
       aria-label="respond to"
       id="text10"
       style="font-weight:700;font-size:58.31px;font-family:Poppins-Bold, Poppins;fill:#cb151c"
       class="cls-13">
      <path
         d="m 60.942725,40.916085 q 1.7493,-2.68226 4.37325,-4.19832 2.62395,-1.57437 5.831,-1.57437 v 10.55411 h -2.74057 q -3.73184,0 -5.59776,1.63268 -1.86592,1.57437 -1.86592,5.59776 v 15.10229 h -9.97101 v -32.53698 h 9.97101 z"
         id="path6208" />
      <path
         d="m 106.59943,51.236955 q 0,1.39944 -0.17493,2.9155 H 83.858527 q 0.23324,3.03212 1.92423,4.6648 1.7493,1.57437 4.25663,1.57437 3.73184,0 5.18959,-3.14874 H 105.8414 q -0.81634,3.20705 -2.97381,5.77269 -2.09916,2.56564 -5.306213,4.02339 -3.20705,1.45775 -7.17213,1.45775 -4.78142,0 -8.51326,-2.04085 -3.73184,-2.04085 -5.831,-5.831 -2.09916,-3.79015 -2.09916,-8.86312 0,-5.07297 2.04085,-8.86312 2.09916,-3.79015 5.831,-5.831 3.73184,-2.04085 8.57157,-2.04085 4.72311,0 8.39664,1.98254 3.673533,1.98254 5.714383,5.65607 2.09916,3.67353 2.09916,8.57157 z m -10.204253,-2.62395 q 0,-2.56564 -1.7493,-4.0817 -1.7493,-1.51606 -4.37325,-1.51606 -2.50733,0 -4.25663,1.45775 -1.69099,1.45775 -2.09916,4.14001 z"
         id="path6210" />
      <path
         d="m 125.08365,68.496715 q -4.25663,0 -7.5803,-1.45775 -3.32367,-1.45775 -5.2479,-3.96508 -1.92423,-2.56564 -2.15747,-5.71438 h 9.85439 q 0.17493,1.69099 1.57437,2.74057 1.39944,1.04958 3.44029,1.04958 1.86592,0 2.85719,-0.69972 1.04958,-0.75803 1.04958,-1.92423 0,-1.39944 -1.45775,-2.04085 -1.45775,-0.69972 -4.72311,-1.51606 -3.4986,-0.81634 -5.831,-1.69099 -2.3324,-0.93296 -4.02339,-2.85719 -1.69099,-1.98254 -1.69099,-5.30621 0,-2.79888 1.51606,-5.07297 1.57437,-2.3324 4.54818,-3.67353 3.03212,-1.34113 7.17213,-1.34113 6.12255,0 9.62115,3.03212 3.55691,3.03212 4.0817,8.04678 h -9.21298 q -0.23324,-1.69099 -1.51606,-2.68226 -1.22451,-0.99127 -3.26536,-0.99127 -1.7493,0 -2.68226,0.69972 -0.93296,0.64141 -0.93296,1.80761 0,1.39944 1.45775,2.09916 1.51606,0.69972 4.6648,1.39944 3.61522,0.93296 5.88931,1.86592 2.27409,0.87465 3.96508,2.9155 1.7493,1.98254 1.80761,5.36452 0,2.85719 -1.63268,5.13128 -1.57437,2.21578 -4.60649,3.4986 -2.97381,1.28282 -6.93889,1.28282 z"
         id="path6212" />
      <path
         d="m 154.35531,40.099745 q 1.45775,-2.27409 4.02339,-3.67353 2.56564,-1.39944 6.00593,-1.39944 4.02339,0 7.28875,2.04085 3.26536,2.04085 5.13128,5.831 1.92423,3.79015 1.92423,8.80481 0,5.01466 -1.92423,8.86312 -1.86592,3.79015 -5.13128,5.88931 -3.26536,2.04085 -7.28875,2.04085 -3.38198,0 -6.00593,-1.39944 -2.56564,-1.39944 -4.02339,-3.61522 V 83.540696 H 144.3843 V 35.493255 h 9.97101 z m 14.22764,11.60369 q 0,-3.73184 -2.09916,-5.831 -2.04085,-2.15747 -5.07297,-2.15747 -2.97381,0 -5.07297,2.15747 -2.04085,2.15747 -2.04085,5.88931 0,3.73184 2.04085,5.88931 2.09916,2.15747 5.07297,2.15747 2.97381,0 5.07297,-2.15747 2.09916,-2.21578 2.09916,-5.94762 z"
         id="path6214" />
      <path
         d="m 198.78758,68.496715 q -4.78142,0 -8.62988,-2.04085 -3.79015,-2.04085 -6.00593,-5.831 -2.15747,-3.79015 -2.15747,-8.86312 0,-5.01466 2.21578,-8.80481 2.21578,-3.84846 6.06424,-5.88931 3.84846,-2.04085 8.62988,-2.04085 4.78142,0 8.62988,2.04085 3.84846,2.04085 6.06424,5.88931 2.21578,3.79015 2.21578,8.80481 0,5.01466 -2.27409,8.86312 -2.21578,3.79015 -6.12255,5.831 -3.84846,2.04085 -8.62988,2.04085 z m 0,-8.62988 q 2.85719,0 4.83973,-2.09916 2.04085,-2.09916 2.04085,-6.00593 0,-3.90677 -1.98254,-6.00593 -1.92423,-2.09916 -4.78142,-2.09916 -2.9155,0 -4.83973,2.09916 -1.92423,2.04085 -1.92423,6.00593 0,3.90677 1.86592,6.00593 1.92423,2.09916 4.78142,2.09916 z"
         id="path6216" />
      <path
         d="m 240.94566,35.143395 q 5.71438,0 9.09636,3.73184 3.44029,3.67353 3.44029,10.14594 v 19.00906 h -9.9127 v -17.66793 q 0,-3.26536 -1.69099,-5.07297 -1.69099,-1.80761 -4.54818,-1.80761 -2.85719,0 -4.54818,1.80761 -1.69099,1.80761 -1.69099,5.07297 v 17.66793 h -9.97101 v -32.53698 h 9.97101 v 4.31494 q 1.51606,-2.15747 4.0817,-3.38198 2.56564,-1.28282 5.77269,-1.28282 z"
         id="path6218" />
      <path
         d="m 258.43865,51.703435 q 0,-5.01466 1.86592,-8.80481 1.92423,-3.79015 5.18959,-5.831 3.26536,-2.04085 7.28875,-2.04085 3.20705,0 5.831,1.34113 2.68226,1.34113 4.19832,3.61522 V 24.880834 h 9.97101 v 43.149401 h -9.97101 v -4.6648 q -1.39944,2.3324 -4.02339,3.73184 -2.56564,1.39944 -6.00593,1.39944 -4.02339,0 -7.28875,-2.04085 -3.26536,-2.09916 -5.18959,-5.88931 -1.86592,-3.84846 -1.86592,-8.86312 z m 24.37358,0.05831 q 0,-3.73184 -2.09916,-5.88931 -2.04085,-2.15747 -5.01466,-2.15747 -2.97381,0 -5.07297,2.15747 -2.04085,2.09916 -2.04085,5.831 0,3.73184 2.04085,5.94762 2.09916,2.15747 5.07297,2.15747 2.97381,0 5.01466,-2.15747 2.09916,-2.15747 2.09916,-5.88931 z"
         id="path6220" />
      <path
         d="m 330.50984,59.575285 v 8.45495 h -5.07297 q -5.42283,0 -8.45495,-2.62395 -3.03212,-2.68226 -3.03212,-8.68819 v -12.94482 h -3.96508 v -8.28002 h 3.96508 v -7.930161 h 9.97101 v 7.930161 h 6.53072 v 8.28002 h -6.53072 v 13.06144 q 0,1.45775 0.69972,2.09916 0.69972,0.64141 2.3324,0.64141 z"
         id="path6222" />
      <path
         d="m 350.86006,68.496715 q -4.78142,0 -8.62988,-2.04085 -3.79015,-2.04085 -6.00593,-5.831 -2.15747,-3.79015 -2.15747,-8.86312 0,-5.01466 2.21578,-8.80481 2.21578,-3.84846 6.06424,-5.88931 3.84846,-2.04085 8.62988,-2.04085 4.78142,0 8.62988,2.04085 3.84846,2.04085 6.06424,5.88931 2.21578,3.79015 2.21578,8.80481 0,5.01466 -2.27409,8.86312 -2.21578,3.79015 -6.12255,5.831 -3.84846,2.04085 -8.62988,2.04085 z m 0,-8.62988 q 2.85719,0 4.83973,-2.09916 2.04085,-2.09916 2.04085,-6.00593 0,-3.90677 -1.98254,-6.00593 -1.92423,-2.09916 -4.78142,-2.09916 -2.9155,0 -4.83973,2.09916 -1.92423,2.04085 -1.92423,6.00593 0,3.90677 1.86592,6.00593 1.92423,2.09916 4.78142,2.09916 z"
         id="path6224" />
    </g>
    <g
       aria-label="   boards market."
       id="text446"
       style="font-weight:700;font-size:42.67px;font-family:Poppins-Bold, Poppins;fill:#fdd202"
       class="cls-12">
      <path
         d="m 273.53671,96.901311 q 1.02408,-1.66413 2.94423,-2.68821 1.92015,-1.024079 4.39501,-1.024079 2.94423,0 5.33375,1.493449 2.38952,1.49345 3.75496,4.267 1.40811,2.773549 1.40811,6.443169 0,3.66962 -1.40811,6.48584 -1.36544,2.77355 -3.75496,4.30967 -2.38952,1.49345 -5.33375,1.49345 -2.51753,0 -4.39501,-0.98141 -1.87748,-1.02408 -2.94423,-2.68821 v 3.32826 h -7.29657 V 85.764442 h 7.29657 z m 10.41148,8.491329 q 0,-2.73088 -1.53612,-4.267 -1.49345,-1.578789 -3.71229,-1.578789 -2.17617,0 -3.71229,1.578789 -1.49345,1.57879 -1.49345,4.30967 0,2.73088 1.49345,4.30967 1.53612,1.57879 3.71229,1.57879 2.17617,0 3.71229,-1.57879 1.53612,-1.62146 1.53612,-4.35234 z"
         id="path6227" />
      <path
         d="m 306.05129,117.6816 q -3.49894,0 -6.31516,-1.49345 -2.77355,-1.49345 -4.39501,-4.267 -1.57879,-2.77355 -1.57879,-6.48584 0,-3.66962 1.62146,-6.443169 1.62146,-2.81622 4.43768,-4.30967 2.81622,-1.493449 6.31516,-1.493449 3.49894,0 6.31516,1.493449 2.81621,1.49345 4.43767,4.30967 1.62146,2.773549 1.62146,6.443169 0,3.66962 -1.66413,6.48584 -1.62146,2.77355 -4.48034,4.267 -2.81622,1.49345 -6.31516,1.49345 z m 0,-6.31516 q 2.09083,0 3.54161,-1.53612 1.49345,-1.53612 1.49345,-4.39501 0,-2.85889 -1.45078,-4.39501 -1.40811,-1.536119 -3.49894,-1.536119 -2.1335,0 -3.54161,1.536119 -1.40811,1.49345 -1.40811,4.39501 0,2.85889 1.36544,4.39501 1.40811,1.53612 3.49894,1.53612 z"
         id="path6229" />
      <path
         d="m 320.94308,105.39264 q 0,-3.66962 1.36544,-6.443169 1.40811,-2.77355 3.79763,-4.267 2.38952,-1.493449 5.33375,-1.493449 2.51753,0 4.39501,1.024079 1.92015,1.02408 2.94423,2.68821 v -3.370929 h 7.29657 v 23.809858 h -7.29657 v -3.37093 q -1.06675,1.66413 -2.9869,2.68821 -1.87748,1.02408 -4.39501,1.02408 -2.90156,0 -5.29108,-1.49345 -2.38952,-1.53612 -3.79763,-4.30967 -1.36544,-2.81622 -1.36544,-6.48584 z m 17.83606,0.0427 q 0,-2.73088 -1.53612,-4.30967 -1.49345,-1.578789 -3.66962,-1.578789 -2.17617,0 -3.71229,1.578789 -1.49345,1.53612 -1.49345,4.267 0,2.73088 1.49345,4.35234 1.53612,1.57879 3.71229,1.57879 2.17617,0 3.66962,-1.57879 1.53612,-1.57879 1.53612,-4.30967 z"
         id="path6231" />
      <path
         d="m 358.66339,97.498691 q 1.2801,-1.96282 3.20025,-3.07224 1.92015,-1.152089 4.267,-1.152089 v 7.723268 h -2.00549 q -2.73088,0 -4.09632,1.19476 -1.36544,1.15209 -1.36544,4.09632 v 11.05153 h -7.29657 V 93.530382 h 7.29657 z"
         id="path6233" />
      <path
         d="m 368.17878,105.39264 q 0,-3.66962 1.36544,-6.443169 1.40811,-2.77355 3.79763,-4.267 2.38952,-1.493449 5.33375,-1.493449 2.34685,0 4.267,0.981409 1.96282,0.98141 3.07224,2.64554 V 85.764442 h 7.29657 v 31.575798 h -7.29657 v -3.4136 q -1.02408,1.7068 -2.94423,2.73088 -1.87748,1.02408 -4.39501,1.02408 -2.94423,0 -5.33375,-1.49345 -2.38952,-1.53612 -3.79763,-4.30967 -1.36544,-2.81622 -1.36544,-6.48584 z m 17.83606,0.0427 q 0,-2.73088 -1.53612,-4.30967 -1.49345,-1.578789 -3.66962,-1.578789 -2.17617,0 -3.71229,1.578789 -1.49345,1.53612 -1.49345,4.267 0,2.73088 1.49345,4.35234 1.53612,1.57879 3.71229,1.57879 2.17617,0 3.66962,-1.57879 1.53612,-1.57879 1.53612,-4.30967 z"
         id="path6235" />
      <path
         d="m 408.28861,117.6816 q -3.1149,0 -5.54709,-1.06675 -2.43219,-1.06675 -3.8403,-2.90156 -1.40811,-1.87748 -1.57879,-4.18166 h 7.21123 q 0.12801,1.23743 1.15209,2.00549 1.02408,0.76806 2.51752,0.76806 1.36544,0 2.09083,-0.51204 0.76806,-0.55471 0.76806,-1.40811 0,-1.02408 -1.06675,-1.49345 -1.06675,-0.51204 -3.45626,-1.10942 -2.5602,-0.59738 -4.267,-1.23743 -1.7068,-0.68272 -2.94423,-2.09083 -1.23743,-1.45078 -1.23743,-3.88297 0,-2.048159 1.10942,-3.712289 1.15209,-1.7068 3.32826,-2.68821 2.21884,-0.981409 5.2484,-0.981409 4.48035,0 7.04055,2.218839 2.60287,2.21884 2.9869,5.888459 h -6.74186 q -0.17068,-1.23743 -1.10942,-1.962819 -0.89607,-0.72539 -2.38952,-0.72539 -1.28009,0 -1.96281,0.51204 -0.68272,0.46937 -0.68272,1.322769 0,1.02408 1.06675,1.53612 1.10941,0.51204 3.41359,1.02408 2.64554,0.68272 4.30967,1.36544 1.66413,0.64005 2.90156,2.1335 1.2801,1.45078 1.32277,3.92564 0,2.09083 -1.19476,3.75496 -1.15209,1.62146 -3.37093,2.5602 -2.17617,0.93874 -5.07773,0.93874 z"
         id="path6237" />
      <path
         d="m 461.83949,93.274362 q 4.43768,0 7.04055,2.688209 2.64554,2.68821 2.64554,7.467249 v 13.91042 h -7.2539 v -12.92901 q 0,-2.30418 -1.23743,-3.54161 -1.19476,-1.280099 -3.32826,-1.280099 -2.1335,0 -3.37093,1.280099 -1.19476,1.23743 -1.19476,3.54161 v 12.92901 h -7.2539 v -12.92901 q 0,-2.30418 -1.23743,-3.54161 -1.19476,-1.280099 -3.32826,-1.280099 -2.1335,0 -3.37093,1.280099 -1.19476,1.23743 -1.19476,3.54161 v 12.92901 h -7.29657 V 93.530382 h 7.29657 v 2.986899 q 1.10942,-1.49345 2.90156,-2.34685 1.79214,-0.896069 4.05365,-0.896069 2.68821,0 4.77904,1.152089 2.1335,1.15209 3.32826,3.28559 1.23743,-1.96282 3.37093,-3.20025 2.1335,-1.237429 4.65103,-1.237429 z"
         id="path6239" />
      <path
         d="m 475.1952,105.39264 q 0,-3.66962 1.36544,-6.443169 1.40811,-2.77355 3.79763,-4.267 2.38952,-1.493449 5.33375,-1.493449 2.51753,0 4.39501,1.024079 1.92015,1.02408 2.94423,2.68821 v -3.370929 h 7.29657 v 23.809858 h -7.29657 v -3.37093 q -1.06675,1.66413 -2.9869,2.68821 -1.87748,1.02408 -4.39501,1.02408 -2.90156,0 -5.29108,-1.49345 -2.38952,-1.53612 -3.79763,-4.30967 -1.36544,-2.81622 -1.36544,-6.48584 z m 17.83606,0.0427 q 0,-2.73088 -1.53612,-4.30967 -1.49345,-1.578789 -3.66962,-1.578789 -2.17617,0 -3.71229,1.578789 -1.49345,1.53612 -1.49345,4.267 0,2.73088 1.49345,4.35234 1.53612,1.57879 3.71229,1.57879 2.17617,0 3.66962,-1.57879 1.53612,-1.57879 1.53612,-4.30967 z"
         id="path6241" />
      <path
         d="m 512.91551,97.498691 q 1.2801,-1.96282 3.20025,-3.07224 1.92015,-1.152089 4.267,-1.152089 v 7.723268 h -2.00549 q -2.73088,0 -4.09632,1.19476 -1.36544,1.15209 -1.36544,4.09632 v 11.05153 h -7.29657 V 93.530382 h 7.29657 z"
         id="path6243" />
      <path
         d="m 538.43214,117.34024 -7.2539,-9.98478 v 9.98478 h -7.29657 V 85.764442 h 7.29657 v 17.452028 l 7.21123,-9.686088 h 9.00337 l -9.89944,11.947598 9.98478,11.86226 z"
         id="path6245" />
      <path
         d="m 572.69614,105.05128 q 0,1.02408 -0.12801,2.1335 h -16.51328 q 0.17068,2.21884 1.40811,3.4136 1.2801,1.15209 3.11491,1.15209 2.73088,0 3.79763,-2.30418 h 7.76593 q -0.59738,2.34685 -2.17617,4.22433 -1.53611,1.87748 -3.88296,2.94423 -2.34685,1.06675 -5.24841,1.06675 -3.49894,0 -6.22982,-1.49345 -2.73088,-1.49345 -4.267,-4.267 -1.53612,-2.77355 -1.53612,-6.48584 0,-3.71229 1.49345,-6.485839 1.53612,-2.77355 4.267,-4.267 2.73088,-1.493449 6.27249,-1.493449 3.45627,0 6.14448,1.450779 2.6882,1.45078 4.18165,4.13899 1.53612,2.688209 1.53612,6.272489 z m -7.46724,-1.92015 q 0,-1.87748 -1.2801,-2.9869 -1.2801,-1.109419 -3.20025,-1.109419 -1.83481,0 -3.11491,1.066749 -1.23743,1.06675 -1.53612,3.02957 z"
         id="path6247" />
      <path
         d="m 589.80679,111.15309 v 6.18715 h -3.71229 q -3.96831,0 -6.18715,-1.92015 -2.21884,-1.96282 -2.21884,-6.35783 v -9.472739 h -2.90156 v -6.059139 h 2.90156 v -5.80312 h 7.29657 v 5.80312 h 4.77904 v 6.059139 h -4.77904 v 9.558079 q 0,1.06675 0.51204,1.53612 0.51204,0.46937 1.7068,0.46937 z"
         id="path6249" />
      <path
         d="m 597.27406,117.6816 q -1.92015,0 -3.15758,-1.10942 -1.19476,-1.15209 -1.19476,-2.81622 0,-1.7068 1.19476,-2.85889 1.23743,-1.15209 3.15758,-1.15209 1.87748,0 3.07224,1.15209 1.23743,1.15209 1.23743,2.85889 0,1.66413 -1.23743,2.81622 -1.19476,1.10942 -3.07224,1.10942 z"
         id="path6251" />
    </g>
    <g
       aria-label="We constantly"
       id="text450"
       style="font-weight:700;font-size:24.15px;font-family:Poppins-Bold, Poppins"
       class="cls-11">
      <path
         d="m 70.712693,1.9969375 -4.41945,16.9532995 h -4.99905 L 58.589393,7.7929375 55.787994,18.950237 h -4.99905 l -4.2987,-16.9532995 h 4.41945 l 2.43915,12.3406495 3.01875,-12.3406495 h 4.540199 l 2.898,12.3406495 2.4633,-12.3406495 z"
         id="path6254" />
      <path
         d="m 85.492493,11.995037 q 0,0.5796 -0.07245,1.2075 h -9.34605 q 0.0966,1.2558 0.79695,1.932 0.7245,0.65205 1.76295,0.65205 1.5456,0 2.14935,-1.3041 h 4.3953 q -0.3381,1.32825 -1.23165,2.39085 -0.8694,1.0626 -2.19765,1.66635 -1.32825,0.60375 -2.97045,0.60375 -1.9803,0 -3.5259,-0.84525 -1.545599,-0.84525 -2.414999,-2.415 -0.8694,-1.56975 -0.8694,-3.6708 0,-2.10105 0.84525,-3.6707996 0.8694,-1.5697499 2.414999,-2.4149999 1.5456,-0.84525 3.55005,-0.84525 1.95615,0 3.4776,0.8211 1.52145,0.8211 2.3667,2.3425499 0.8694,1.52145 0.8694,3.5500496 z m -4.22625,-1.08675 q 0,-1.0625996 -0.7245,-1.6904996 -0.7245,-0.6279 -1.81125,-0.6279 -1.03845,0 -1.76295,0.60375 -0.70035,0.60375 -0.8694,1.7146496 z"
         id="path6256" />
      <path
         d="m 91.964671,12.212387 q 0,-2.10105 0.84525,-3.6707996 0.8694,-1.5697499 2.39085,-2.4149999 1.5456,-0.84525 3.5259,-0.84525 2.535749,0 4.226249,1.32825 1.71465,1.3282499 2.24595,3.7432495 h -4.3953 q -0.55545,-1.5455996 -2.149349,-1.5455996 -1.13505,0 -1.81125,0.89355 -0.6762,0.8693996 -0.6762,2.5115996 0,1.6422 0.6762,2.53575 0.6762,0.8694 1.81125,0.8694 1.593899,0 2.149349,-1.5456 h 4.3953 q -0.5313,2.3667 -2.24595,3.7191 -1.71465,1.3524 -4.226249,1.3524 -1.9803,0 -3.5259,-0.84525 -1.52145,-0.84525 -2.39085,-2.415 -0.84525,-1.56975 -0.84525,-3.6708 z"
         id="path6258" />
      <path
         d="m 113.53061,19.143437 q -1.9803,0 -3.5742,-0.84525 -1.56975,-0.84525 -2.48745,-2.415 -0.89355,-1.56975 -0.89355,-3.6708 0,-2.0769 0.9177,-3.6466496 0.9177,-1.5938999 2.5116,-2.4391499 1.5939,-0.84525 3.5742,-0.84525 1.9803,0 3.5742,0.84525 1.5939,0.84525 2.5116,2.4391499 0.9177,1.5697496 0.9177,3.6466496 0,2.0769 -0.94185,3.6708 -0.9177,1.56975 -2.53575,2.415 -1.5939,0.84525 -3.5742,0.84525 z m 0,-3.5742 q 1.18335,0 2.00445,-0.8694 0.84525,-0.8694 0.84525,-2.48745 0,-1.61805 -0.8211,-2.4874496 -0.79695,-0.8694 -1.9803,-0.8694 -1.2075,0 -2.00445,0.8694 -0.79695,0.8452496 -0.79695,2.4874496 0,1.61805 0.7728,2.48745 0.79695,0.8694 1.9803,0.8694 z"
         id="path6260" />
      <path
         d="m 130.99104,5.3296375 q 2.3667,0 3.7674,1.5456 1.42485,1.5214499 1.42485,4.2020995 v 7.8729 h -4.1055 v -7.31745 q 0,-1.3524 -0.70035,-2.1010496 -0.70035,-0.74865 -1.8837,-0.74865 -1.18335,0 -1.8837,0.74865 -0.70035,0.7486496 -0.70035,2.1010496 v 7.31745 h -4.12965 V 5.4745375 h 4.12965 v 1.7871 q 0.6279,-0.89355 1.6905,-1.4007 1.0626,-0.5313 2.39085,-0.5313 z"
         id="path6262" />
      <path
         d="m 144.53918,19.143437 q -1.76295,0 -3.1395,-0.60375 -1.37655,-0.60375 -2.1735,-1.6422 -0.79695,-1.0626 -0.89355,-2.3667 h 4.08135 q 0.0725,0.70035 0.65205,1.13505 0.5796,0.4347 1.42485,0.4347 0.7728,0 1.18335,-0.2898 0.4347,-0.31395 0.4347,-0.79695 0,-0.5796 -0.60375,-0.84525 -0.60375,-0.2898 -1.95615,-0.6279 -1.449,-0.3381 -2.415,-0.70035 -0.966,-0.3864 -1.66635,-1.18335 -0.70035,-0.8211 -0.70035,-2.1976496 0,-1.1592 0.6279,-2.1010499 0.65205,-0.966 1.8837,-1.52145 1.2558,-0.55545 2.97045,-0.55545 2.53575,0 3.98475,1.2558 1.47315,1.2558 1.6905,3.3326999 h -3.8157 q -0.0966,-0.70035 -0.6279,-1.1109 -0.50715,-0.41055 -1.3524,-0.41055 -0.7245,0 -1.1109,0.2898 -0.3864,0.26565 -0.3864,0.74865 0,0.5796 0.60375,0.8693996 0.6279,0.2898 1.932,0.5796 1.4973,0.3864 2.43915,0.7728 0.94185,0.36225 1.6422,1.2075 0.7245,0.8211 0.74865,2.2218 0,1.18335 -0.6762,2.1252 -0.65205,0.9177 -1.90785,1.449 -1.23165,0.5313 -2.87385,0.5313 z"
         id="path6264" />
      <path
         d="m 160.0435,15.448487 v 3.50175 h -2.10105 q -2.24595,0 -3.50175,-1.08675 -1.2558,-1.1109 -1.2558,-3.59835 V 8.9038374 h -1.6422 V 5.4745375 h 1.6422 v -3.2844 h 4.12965 v 3.2844 h 2.7048 v 3.4292999 h -2.7048 v 5.4095996 q 0,0.60375 0.2898,0.8694 0.2898,0.26565 0.966,0.26565 z"
         id="path6266" />
      <path
         d="m 161.51665,12.188237 q 0,-2.0769 0.7728,-3.6466496 0.79695,-1.5697499 2.14935,-2.4149999 1.3524,-0.84525 3.01875,-0.84525 1.42485,0 2.48745,0.5796 1.08675,0.5796 1.66635,1.52145 v -1.90785 H 175.741 V 18.950237 h -4.12965 v -1.90785 q -0.60375,0.94185 -1.6905,1.52145 -1.0626,0.5796 -2.48745,0.5796 -1.6422,0 -2.9946,-0.84525 -1.3524,-0.8694 -2.14935,-2.43915 -0.7728,-1.5939 -0.7728,-3.6708 z m 10.0947,0.02415 q 0,-1.5456 -0.8694,-2.4391496 -0.84525,-0.89355 -2.0769,-0.89355 -1.23165,0 -2.10105,0.89355 -0.84525,0.8693996 -0.84525,2.4149996 0,1.5456 0.84525,2.4633 0.8694,0.89355 2.10105,0.89355 1.23165,0 2.0769,-0.89355 0.8694,-0.89355 0.8694,-2.43915 z"
         id="path6268" />
      <path
         d="m 186.94662,5.3296375 q 2.3667,0 3.7674,1.5456 1.42485,1.5214499 1.42485,4.2020995 v 7.8729 h -4.1055 v -7.31745 q 0,-1.3524 -0.70035,-2.1010496 -0.70035,-0.74865 -1.8837,-0.74865 -1.18335,0 -1.8837,0.74865 -0.70035,0.7486496 -0.70035,2.1010496 v 7.31745 h -4.12965 V 5.4745375 h 4.12965 v 1.7871 q 0.6279,-0.89355 1.6905,-1.4007 1.0626,-0.5313 2.39085,-0.5313 z"
         id="path6270" />
      <path
         d="m 202.52337,15.448487 v 3.50175 h -2.10105 q -2.24595,0 -3.50175,-1.08675 -1.2558,-1.1109 -1.2558,-3.59835 V 8.9038374 h -1.6422 V 5.4745375 h 1.6422 v -3.2844 h 4.12965 v 3.2844 h 2.7048 v 3.4292999 h -2.7048 v 5.4095996 q 0,0.60375 0.2898,0.8694 0.2898,0.26565 0.966,0.26565 z"
         id="path6272" />
      <path
         d="M 208.94727,1.0792376 V 18.950237 h -4.12965 V 1.0792376 Z"
         id="path6274" />
      <path
         d="m 225.70737,5.4745375 -8.4525,19.8754495 h -4.4436 l 3.0912,-6.8586 -5.48205,-13.0168495 h 4.61265 l 3.11535,8.4283495 3.0912,-8.4283495 z"
         id="path6276" />
    </g>
    <g
       aria-label="the needs of"
       id="text454"
       style="font-weight:700;font-size:32.86px;font-family:Poppins-Bold, Poppins"
       class="cls-14">
      <path
         d="m 396.14325,63.315538 v 4.7647 h -2.85882 q -3.05598,0 -4.7647,-1.4787 -1.70872,-1.51156 -1.70872,-4.89614 v -7.29492 h -2.23448 v -4.66612 h 2.23448 v -4.46896 h 5.61906 v 4.46896 h 3.68032 v 4.66612 h -3.68032 v 7.36064 q 0,0.8215 0.39432,1.18296 0.39432,0.36146 1.3144,0.36146 z"
         id="path6279" />
      <path
         d="m 410.53594,49.547198 q 3.15456,0 5.06044,2.10304 1.90588,2.07018 1.90588,5.71764 v 10.71236 h -5.5862 v -9.95658 q 0,-1.84016 -0.95294,-2.85882 -0.95294,-1.01866 -2.56308,-1.01866 -1.61014,0 -2.56308,1.01866 -0.95294,1.01866 -0.95294,2.85882 v 9.95658 h -5.61906 v -24.3164 h 5.61906 v 8.44502 q 0.85436,-1.21582 2.33306,-1.93874 1.4787,-0.72292 3.31886,-0.72292 z"
         id="path6281" />
      <path
         d="m 438.69695,58.616558 q 0,0.78864 -0.0986,1.643 h -12.71682 q 0.13144,1.70872 1.08438,2.6288 0.9858,0.88722 2.39878,0.88722 2.10304,0 2.92454,-1.77444 h 5.98052 q -0.46004,1.8073 -1.67586,3.25314 -1.18296,1.44584 -2.99026,2.26734 -1.8073,0.8215 -4.04178,0.8215 -2.69452,0 -4.79756,-1.1501 -2.10304,-1.1501 -3.286,-3.286 -1.18296,-2.1359 -1.18296,-4.99472 0,-2.85882 1.1501,-4.99472 1.18296,-2.1359 3.286,-3.286 2.10304,-1.1501 4.83042,-1.1501 2.66166,0 4.73184,1.11724 2.07018,1.11724 3.22028,3.18742 1.18296,2.07018 1.18296,4.83042 z m -5.7505,-1.4787 q 0,-1.44584 -0.9858,-2.3002 -0.9858,-0.85436 -2.4645,-0.85436 -1.41298,0 -2.39878,0.8215 -0.95294,0.8215 -1.18296,2.33306 z"
         id="path6283" />
      <path
         d="m 459.79304,49.547198 q 3.22028,0 5.12616,2.10304 1.93874,2.07018 1.93874,5.71764 v 10.71236 h -5.5862 v -9.95658 q 0,-1.84016 -0.95294,-2.85882 -0.95294,-1.01866 -2.56308,-1.01866 -1.61014,0 -2.56308,1.01866 -0.95294,1.01866 -0.95294,2.85882 v 9.95658 h -5.61906 v -18.33588 h 5.61906 v 2.43164 q 0.85436,-1.21582 2.3002,-1.90588 1.44584,-0.72292 3.25314,-0.72292 z"
         id="path6285" />
      <path
         d="m 488.05264,58.616558 q 0,0.78864 -0.0986,1.643 h -12.71682 q 0.13144,1.70872 1.08438,2.6288 0.9858,0.88722 2.39878,0.88722 2.10304,0 2.92454,-1.77444 h 5.98052 q -0.46004,1.8073 -1.67586,3.25314 -1.18296,1.44584 -2.99026,2.26734 -1.8073,0.8215 -4.04178,0.8215 -2.69452,0 -4.79756,-1.1501 -2.10304,-1.1501 -3.286,-3.286 -1.18296,-2.1359 -1.18296,-4.99472 0,-2.85882 1.1501,-4.99472 1.18296,-2.1359 3.286,-3.286 2.10304,-1.1501 4.83042,-1.1501 2.66166,0 4.73184,1.11724 2.07018,1.11724 3.22028,3.18742 1.18296,2.07018 1.18296,4.83042 z m -5.7505,-1.4787 q 0,-1.44584 -0.9858,-2.3002 -0.9858,-0.85436 -2.4645,-0.85436 -1.41298,0 -2.39878,0.8215 -0.95294,0.8215 -1.18296,2.33306 z"
         id="path6287" />
      <path
         d="m 508.29437,58.616558 q 0,0.78864 -0.0986,1.643 h -12.71682 q 0.13144,1.70872 1.08438,2.6288 0.9858,0.88722 2.39878,0.88722 2.10304,0 2.92454,-1.77444 h 5.98052 q -0.46004,1.8073 -1.67586,3.25314 -1.18296,1.44584 -2.99026,2.26734 -1.8073,0.8215 -4.04178,0.8215 -2.69452,0 -4.79756,-1.1501 -2.10304,-1.1501 -3.286,-3.286 -1.18296,-2.1359 -1.18296,-4.99472 0,-2.85882 1.1501,-4.99472 1.18296,-2.1359 3.286,-3.286 2.10304,-1.1501 4.83042,-1.1501 2.66166,0 4.73184,1.11724 2.07018,1.11724 3.22028,3.18742 1.18296,2.07018 1.18296,4.83042 z m -5.7505,-1.4787 q 0,-1.44584 -0.9858,-2.3002 -0.9858,-0.85436 -2.4645,-0.85436 -1.41298,0 -2.39878,0.8215 -0.95294,0.8215 -1.18296,2.33306 z"
         id="path6289" />
      <path
         d="m 510.1345,58.879438 q 0,-2.82596 1.05152,-4.96186 1.08438,-2.1359 2.92454,-3.286 1.84016,-1.1501 4.1075,-1.1501 1.8073,0 3.286,0.75578 1.51156,0.75578 2.36592,2.03732 v -8.51074 h 5.61906 v 24.3164 h -5.61906 v -2.6288 q -0.78864,1.3144 -2.26734,2.10304 -1.44584,0.78864 -3.38458,0.78864 -2.26734,0 -4.1075,-1.1501 -1.84016,-1.18296 -2.92454,-3.31886 -1.05152,-2.16876 -1.05152,-4.99472 z m 13.73548,0.03286 q 0,-2.10304 -1.18296,-3.31886 -1.1501,-1.21582 -2.82596,-1.21582 -1.67586,0 -2.85882,1.21582 -1.1501,1.18296 -1.1501,3.286 0,2.10304 1.1501,3.35172 1.18296,1.21582 2.85882,1.21582 1.67586,0 2.82596,-1.21582 1.18296,-1.21582 1.18296,-3.31886 z"
         id="path6291" />
      <path
         d="m 541.02294,68.343118 q -2.39878,0 -4.2718,-0.8215 -1.87302,-0.8215 -2.9574,-2.23448 -1.08438,-1.44584 -1.21582,-3.22028 h 5.55334 q 0.0986,0.95294 0.88722,1.54442 0.78864,0.59148 1.93874,0.59148 1.05152,0 1.61014,-0.39432 0.59148,-0.42718 0.59148,-1.08438 0,-0.78864 -0.8215,-1.1501 -0.8215,-0.39432 -2.66166,-0.85436 -1.9716,-0.46004 -3.286,-0.95294 -1.3144,-0.52576 -2.26734,-1.61014 -0.95294,-1.11724 -0.95294,-2.99026 0,-1.57728 0.85436,-2.85882 0.88722,-1.3144 2.56308,-2.07018 1.70872,-0.75578 4.04178,-0.75578 3.4503,0 5.4219,1.70872 2.00446,1.70872 2.3002,4.53468 h -5.19188 q -0.13144,-0.95294 -0.85436,-1.51156 -0.69006,-0.55862 -1.84016,-0.55862 -0.9858,0 -1.51156,0.39432 -0.52576,0.36146 -0.52576,1.01866 0,0.78864 0.8215,1.18296 0.85436,0.39432 2.6288,0.78864 2.03732,0.52576 3.31886,1.05152 1.28154,0.4929 2.23448,1.643 0.9858,1.11724 1.01866,3.02312 0,1.61014 -0.92008,2.89168 -0.88722,1.24868 -2.59594,1.9716 -1.67586,0.72292 -3.91034,0.72292 z"
         id="path6293" />
      <path
         d="m 567.21237,68.343118 q -2.69452,0 -4.86328,-1.1501 -2.1359,-1.1501 -3.38458,-3.286 -1.21582,-2.1359 -1.21582,-4.99472 0,-2.82596 1.24868,-4.96186 1.24868,-2.16876 3.41744,-3.31886 2.16876,-1.1501 4.86328,-1.1501 2.69452,0 4.86328,1.1501 2.16876,1.1501 3.41744,3.31886 1.24868,2.1359 1.24868,4.96186 0,2.82596 -1.28154,4.99472 -1.24868,2.1359 -3.4503,3.286 -2.16876,1.1501 -4.86328,1.1501 z m 0,-4.86328 q 1.61014,0 2.72738,-1.18296 1.1501,-1.18296 1.1501,-3.38458 0,-2.20162 -1.11724,-3.38458 -1.08438,-1.18296 -2.69452,-1.18296 -1.643,0 -2.72738,1.18296 -1.08438,1.1501 -1.08438,3.38458 0,2.20162 1.05152,3.38458 1.08438,1.18296 2.69452,1.18296 z"
         id="path6295" />
      <path
         d="m 588.99853,54.410478 h -3.02312 v 13.66976 h -5.61906 v -13.66976 h -2.03732 v -4.66612 h 2.03732 v -0.52576 q 0,-3.38458 1.93874,-5.12616 1.93874,-1.77444 5.68478,-1.77444 0.62434,0 0.92008,0.03286 v 4.7647 q -1.61014,-0.09858 -2.26734,0.46004 -0.6572,0.55862 -0.6572,2.00446 v 0.1643 h 3.02312 z"
         id="path6297" />
    </g>
    <g
       aria-label="the wood-based"
       id="text458"
       style="font-weight:700;font-size:24.15px;font-family:Poppins-Bold, Poppins"
       class="cls-11">
      <path
         d="m 57.464443,105.20849 v 3.50175 h -2.10105 q -2.24595,0 -3.50175,-1.08675 -1.2558,-1.1109 -1.2558,-3.59835 v -5.361297 h -1.6422 v -3.4293 h 1.6422 v -3.2844 h 4.12965 v 3.2844 h 2.7048 v 3.4293 h -2.7048 v 5.409597 q 0,0.60375 0.2898,0.8694 0.2898,0.26565 0.966,0.26565 z"
         id="path6300" />
      <path
         d="m 68.042146,95.089643 q 2.3184,0 3.7191,1.5456 1.4007,1.52145 1.4007,4.202097 v 7.8729 h -4.1055 v -7.31745 q 0,-1.3524 -0.70035,-2.101047 -0.70035,-0.74865 -1.8837,-0.74865 -1.18335,0 -1.8837,0.74865 -0.70035,0.748647 -0.70035,2.101047 v 7.31745 h -4.12965 V 90.839244 h 4.12965 v 6.206549 q 0.6279,-0.89355 1.71465,-1.42485 1.08675,-0.5313 2.43915,-0.5313 z"
         id="path6302" />
      <path
         d="m 88.73869,101.75504 q 0,0.5796 -0.07245,1.2075 h -9.34605 q 0.0966,1.2558 0.79695,1.932 0.7245,0.65205 1.76295,0.65205 1.5456,0 2.14935,-1.3041 h 4.3953 q -0.3381,1.32825 -1.23165,2.39085 -0.8694,1.0626 -2.19765,1.66635 -1.32825,0.60375 -2.97045,0.60375 -1.9803,0 -3.5259,-0.84525 -1.5456,-0.84525 -2.415,-2.415 -0.8694,-1.56975 -0.8694,-3.6708 0,-2.101047 0.84525,-3.670797 0.8694,-1.56975 2.415,-2.415 1.5456,-0.84525 3.55005,-0.84525 1.95615,0 3.4776,0.8211 1.52145,0.8211 2.3667,2.34255 0.8694,1.52145 0.8694,3.550047 z m -4.22625,-1.08675 q 0,-1.062597 -0.7245,-1.690497 -0.7245,-0.6279 -1.81125,-0.6279 -1.03845,0 -1.76295,0.60375 -0.70035,0.60375 -0.8694,1.714647 z"
         id="path6304" />
      <path
         d="m 115.37612,95.234543 -3.64665,13.475697 h -4.56435 l -2.1252,-8.742297 -2.19765,8.742297 h -4.540202 l -3.6708,-13.475697 h 4.12965 l 1.907852,9.635847 2.2701,-9.635847 h 4.37115 l 2.29425,9.587547 1.8837,-9.587547 z"
         id="path6306" />
      <path
         d="m 123.07995,108.90344 q -1.9803,0 -3.5742,-0.84525 -1.56975,-0.84525 -2.48745,-2.415 -0.89355,-1.56975 -0.89355,-3.6708 0,-2.076897 0.9177,-3.646647 0.9177,-1.5939 2.5116,-2.43915 1.5939,-0.84525 3.5742,-0.84525 1.9803,0 3.5742,0.84525 1.5939,0.84525 2.5116,2.43915 0.9177,1.56975 0.9177,3.646647 0,2.0769 -0.94185,3.6708 -0.9177,1.56975 -2.53575,2.415 -1.5939,0.84525 -3.5742,0.84525 z m 0,-3.5742 q 1.18335,0 2.00445,-0.8694 0.84525,-0.8694 0.84525,-2.48745 0,-1.61805 -0.8211,-2.487447 -0.79695,-0.8694 -1.9803,-0.8694 -1.2075,0 -2.00445,0.8694 -0.79695,0.845247 -0.79695,2.487447 0,1.61805 0.7728,2.48745 0.79695,0.8694 1.9803,0.8694 z"
         id="path6308" />
      <path
         d="m 138.46348,108.90344 q -1.9803,0 -3.5742,-0.84525 -1.56975,-0.84525 -2.48745,-2.415 -0.89355,-1.56975 -0.89355,-3.6708 0,-2.076897 0.9177,-3.646647 0.9177,-1.5939 2.5116,-2.43915 1.5939,-0.84525 3.5742,-0.84525 1.9803,0 3.5742,0.84525 1.5939,0.84525 2.5116,2.43915 0.9177,1.56975 0.9177,3.646647 0,2.0769 -0.94185,3.6708 -0.9177,1.56975 -2.53575,2.415 -1.5939,0.84525 -3.5742,0.84525 z m 0,-3.5742 q 1.18335,0 2.00445,-0.8694 0.84525,-0.8694 0.84525,-2.48745 0,-1.61805 -0.8211,-2.487447 -0.79695,-0.8694 -1.9803,-0.8694 -1.2075,0 -2.00445,0.8694 -0.79695,0.845247 -0.79695,2.487447 0,1.61805 0.7728,2.48745 0.79695,0.8694 1.9803,0.8694 z"
         id="path6310" />
      <path
         d="m 146.89181,101.94824 q 0,-2.076897 0.7728,-3.646647 0.79695,-1.56975 2.14935,-2.415 1.3524,-0.84525 3.01875,-0.84525 1.32825,0 2.415,0.55545 1.1109,0.55545 1.7388,1.4973 v -6.254849 h 4.12965 v 17.870996 h -4.12965 v -1.932 q -0.5796,0.966 -1.66635,1.5456 -1.0626,0.5796 -2.48745,0.5796 -1.66635,0 -3.01875,-0.84525 -1.3524,-0.8694 -2.14935,-2.43915 -0.7728,-1.5939 -0.7728,-3.6708 z m 10.0947,0.0242 q 0,-1.5456 -0.8694,-2.439147 -0.84525,-0.89355 -2.0769,-0.89355 -1.23165,0 -2.10105,0.89355 -0.84525,0.869397 -0.84525,2.414997 0,1.5456 0.84525,2.4633 0.8694,0.89355 2.10105,0.89355 1.23165,0 2.0769,-0.89355 0.8694,-0.89355 0.8694,-2.43915 z"
         id="path6312" />
      <path
         d="m 174.49528,98.518943 v 3.429297 h -10.626 v -3.429297 z"
         id="path6314" />
      <path
         d="m 182.24743,97.142393 q 0.5796,-0.94185 1.66635,-1.52145 1.08675,-0.5796 2.48745,-0.5796 1.66635,0 3.01875,0.84525 1.3524,0.84525 2.1252,2.415 0.79695,1.56975 0.79695,3.646647 0,2.0769 -0.79695,3.6708 -0.7728,1.56975 -2.1252,2.43915 -1.3524,0.84525 -3.01875,0.84525 -1.42485,0 -2.48745,-0.55545 -1.0626,-0.5796 -1.66635,-1.52145 v 1.8837 h -4.12965 V 90.839244 h 4.12965 z m 5.8926,4.805847 q 0,-1.5456 -0.8694,-2.414997 -0.84525,-0.89355 -2.10105,-0.89355 -1.23165,0 -2.10105,0.89355 -0.84525,0.893547 -0.84525,2.439147 0,1.5456 0.84525,2.43915 0.8694,0.89355 2.10105,0.89355 1.23165,0 2.10105,-0.89355 0.8694,-0.9177 0.8694,-2.4633 z"
         id="path6316" />
      <path
         d="m 193.69455,101.94824 q 0,-2.076897 0.7728,-3.646647 0.79695,-1.56975 2.14935,-2.415 1.3524,-0.84525 3.01875,-0.84525 1.42485,0 2.48745,0.5796 1.08675,0.5796 1.66635,1.52145 v -1.90785 h 4.12965 v 13.475697 h -4.12965 v -1.90785 q -0.60375,0.94185 -1.6905,1.52145 -1.0626,0.5796 -2.48745,0.5796 -1.6422,0 -2.9946,-0.84525 -1.3524,-0.8694 -2.14935,-2.43915 -0.7728,-1.5939 -0.7728,-3.6708 z m 10.0947,0.0242 q 0,-1.5456 -0.8694,-2.439147 -0.84525,-0.89355 -2.0769,-0.89355 -1.23165,0 -2.10105,0.89355 -0.84525,0.869397 -0.84525,2.414997 0,1.5456 0.84525,2.4633 0.8694,0.89355 2.10105,0.89355 1.23165,0 2.0769,-0.89355 0.8694,-0.89355 0.8694,-2.43915 z"
         id="path6318" />
      <path
         d="m 216.39558,108.90344 q -1.76295,0 -3.1395,-0.60375 -1.37655,-0.60375 -2.1735,-1.6422 -0.79695,-1.0626 -0.89355,-2.3667 h 4.08135 q 0.0725,0.70035 0.65205,1.13505 0.5796,0.4347 1.42485,0.4347 0.7728,0 1.18335,-0.2898 0.4347,-0.31395 0.4347,-0.79695 0,-0.5796 -0.60375,-0.84525 -0.60375,-0.2898 -1.95615,-0.6279 -1.449,-0.3381 -2.415,-0.70035 -0.966,-0.3864 -1.66635,-1.18335 -0.70035,-0.8211 -0.70035,-2.197647 0,-1.1592 0.6279,-2.10105 0.65205,-0.966 1.8837,-1.52145 1.2558,-0.55545 2.97045,-0.55545 2.53575,0 3.98475,1.2558 1.47315,1.2558 1.6905,3.3327 h -3.8157 q -0.0966,-0.70035 -0.6279,-1.1109 -0.50715,-0.41055 -1.3524,-0.41055 -0.7245,0 -1.1109,0.2898 -0.3864,0.26565 -0.3864,0.74865 0,0.5796 0.60375,0.869397 0.6279,0.2898 1.932,0.5796 1.4973,0.3864 2.43915,0.7728 0.94185,0.36225 1.6422,1.2075 0.7245,0.8211 0.74865,2.2218 0,1.18335 -0.6762,2.1252 -0.65205,0.9177 -1.90785,1.449 -1.23165,0.5313 -2.87385,0.5313 z"
         id="path6320" />
      <path
         d="m 237.09213,101.75504 q 0,0.5796 -0.0725,1.2075 h -9.34605 q 0.0966,1.2558 0.79695,1.932 0.7245,0.65205 1.76295,0.65205 1.5456,0 2.14935,-1.3041 h 4.3953 q -0.3381,1.32825 -1.23165,2.39085 -0.8694,1.0626 -2.19765,1.66635 -1.32825,0.60375 -2.97045,0.60375 -1.9803,0 -3.5259,-0.84525 -1.5456,-0.84525 -2.415,-2.415 -0.8694,-1.56975 -0.8694,-3.6708 0,-2.101047 0.84525,-3.670797 0.8694,-1.56975 2.415,-2.415 1.5456,-0.84525 3.55005,-0.84525 1.95615,0 3.4776,0.8211 1.52145,0.8211 2.3667,2.34255 0.8694,1.52145 0.8694,3.550047 z m -4.22625,-1.08675 q 0,-1.062597 -0.7245,-1.690497 -0.7245,-0.6279 -1.81125,-0.6279 -1.03845,0 -1.76295,0.60375 -0.70035,0.60375 -0.8694,1.714647 z"
         id="path6322" />
      <path
         d="m 238.44451,101.94824 q 0,-2.076897 0.7728,-3.646647 0.79695,-1.56975 2.14935,-2.415 1.3524,-0.84525 3.01875,-0.84525 1.32825,0 2.415,0.55545 1.1109,0.55545 1.7388,1.4973 v -6.254849 h 4.12965 v 17.870996 h -4.12965 v -1.932 q -0.5796,0.966 -1.66635,1.5456 -1.0626,0.5796 -2.48745,0.5796 -1.66635,0 -3.01875,-0.84525 -1.3524,-0.8694 -2.14935,-2.43915 -0.7728,-1.5939 -0.7728,-3.6708 z m 10.0947,0.0242 q 0,-1.5456 -0.8694,-2.439147 -0.84525,-0.89355 -2.0769,-0.89355 -1.23165,0 -2.10105,0.89355 -0.84525,0.869397 -0.84525,2.414997 0,1.5456 0.84525,2.4633 0.8694,0.89355 2.10105,0.89355 1.23165,0 2.0769,-0.89355 0.8694,-0.89355 0.8694,-2.43915 z"
         id="path6324" />
    </g>
  </g>
</svg>
