<?xml version="1.0" encoding="UTF-8" standalone="no"?>
<!-- Created with Inkscape (http://www.inkscape.org/) -->

<svg
   width="662"
   height="125"
   viewBox="0 0 662 125"
   version="1.1"
   id="svg63348"
   xmlns="http://www.w3.org/2000/svg"
   xmlns:svg="http://www.w3.org/2000/svg">
  <defs
     id="defs63345" />
  <g
     id="layer1">
    <g
       id="g8723"
       transform="translate(2094.2568,9976.044)">
	<g
   id="g8721">
		<g
   id="g8611">
			<path
   class="st16"
   d="m -2079.1,-9972.4 v 16.5 h -3.2 l -7.2,-11.3 v 11.3 h -3.2 v -16.5 h 3.2 l 7.2,11.3 v -11.3 z"
   id="path8589"
   style="fill:#010000" />

			<path
   class="st16"
   d="m -2076.3,-9972.5 c 0,-1.1 0.8,-1.9 2,-1.9 1.1,0 2,0.8 2,1.9 0,1.1 -0.8,1.9 -2,1.9 -1.2,0.1 -2,-0.8 -2,-1.9 z m 0.3,3.5 h 3.2 v 13 h -3.2 z"
   id="path8591"
   style="fill:#010000" />

			<path
   class="st16"
   d="m -2064.1,-9955.7 c -3.7,0 -6.3,-2.6 -6.3,-6.7 0,-4.1 2.6,-6.7 6.3,-6.7 3.6,0 6.2,2.6 6.2,6.5 0,0.4 0,0.8 -0.1,1.3 h -9.2 c 0.2,1.9 1.4,3 3,3 1.4,0 2.1,-0.7 2.5,-1.6 h 3.4 c -0.6,2.3 -2.7,4.2 -5.8,4.2 z m -3.1,-8 h 6 c 0,-1.7 -1.4,-2.8 -3,-2.8 -1.6,0 -2.8,1 -3,2.8 z"
   id="path8593"
   style="fill:#010000" />

			<path
   class="st16"
   d="m -2043.8,-9955.9 h -3.2 v -1.6 c -0.8,1.1 -2.2,1.8 -3.7,1.8 -2.9,0 -5,-2 -5,-5.6 v -7.7 h 3.2 v 7.2 c 0,2.1 1.1,3.2 2.8,3.2 1.7,0 2.8,-1.1 2.8,-3.2 v -7.2 h 3.2 v 13.1 z"
   id="path8595"
   style="fill:#010000" />

			<path
   class="st16"
   d="m -2035.8,-9955.7 c -3.2,0 -5.4,-1.9 -5.5,-4.3 h 3.2 c 0.1,1 1,1.7 2.3,1.7 1.2,0 1.9,-0.6 1.9,-1.3 0,-2.3 -7.1,-0.8 -7.1,-5.6 0,-2.2 1.9,-3.9 5,-3.9 3,0 4.9,1.7 5.1,4.3 h -3 c -0.1,-1 -0.9,-1.7 -2.1,-1.7 -1.2,0 -1.8,0.5 -1.8,1.2 0,2.4 7,0.9 7.1,5.7 -0.2,2.2 -2,3.9 -5.1,3.9 z"
   id="path8597"
   style="fill:#010000" />

			<path
   class="st16"
   d="m -2027.7,-9966.3 h -1.5 v -2.7 h 1.5 v -3.2 h 3.2 v 3.2 h 2.8 v 2.7 h -2.8 v 6.3 c 0,0.9 0.3,1.2 1.3,1.2 h 1.5 v 2.8 h -2 c -2.4,0 -4,-1.1 -4,-4.1 z"
   id="path8599"
   style="fill:#010000" />

			<path
   class="st16"
   d="m -2014.5,-9969.2 c 2,0 3.4,1 4.2,2.1 v -1.9 h 3.2 v 13 h -3.2 v -1.9 c -0.7,1.1 -2.2,2.1 -4.2,2.1 -3.2,0 -5.7,-2.7 -5.7,-6.8 0,-4.1 2.5,-6.6 5.7,-6.6 z m 0.8,2.9 c -1.7,0 -3.3,1.3 -3.3,3.8 0,2.5 1.6,3.9 3.3,3.9 1.7,0 3.3,-1.4 3.3,-3.8 0,-2.4 -1.5,-3.9 -3.3,-3.9 z"
   id="path8601"
   style="fill:#010000" />

			<path
   class="st16"
   d="m -1995.2,-9963.1 c 0,-2.1 -1.1,-3.2 -2.8,-3.2 -1.7,0 -2.8,1.1 -2.8,3.2 v 7.2 h -3.2 v -13 h 3.2 v 1.6 c 0.8,-1.1 2.2,-1.8 3.8,-1.8 2.9,0 5,2 5,5.6 v 7.7 h -3.2 z"
   id="path8603"
   style="fill:#010000" />

			<path
   class="st16"
   d="m -1980.2,-9963.1 c 0,-2.1 -1.1,-3.2 -2.8,-3.2 -1.7,0 -2.8,1.1 -2.8,3.2 v 7.2 h -3.2 v -13 h 3.2 v 1.6 c 0.8,-1.1 2.2,-1.8 3.8,-1.8 2.9,0 5,2 5,5.6 v 7.7 h -3.2 z"
   id="path8605"
   style="fill:#010000" />

			<path
   class="st16"
   d="m -1974.3,-9972.5 c 0,-1.1 0.8,-1.9 2,-1.9 1.1,0 2,0.8 2,1.9 0,1.1 -0.8,1.9 -2,1.9 -1.2,0.1 -2,-0.8 -2,-1.9 z m 0.3,3.5 h 3.2 v 13 h -3.2 z"
   id="path8607"
   style="fill:#010000" />

			<path
   class="st16"
   d="m -1962.2,-9955.7 c -3.7,0 -6.3,-2.6 -6.3,-6.7 0,-4.1 2.6,-6.7 6.3,-6.7 3.6,0 6.2,2.6 6.2,6.5 0,0.4 0,0.8 -0.1,1.3 h -9.2 c 0.2,1.9 1.4,3 3,3 1.4,0 2.1,-0.7 2.5,-1.6 h 3.4 c -0.6,2.3 -2.7,4.2 -5.8,4.2 z m -3.1,-8 h 6 c 0,-1.7 -1.4,-2.8 -3,-2.8 -1.5,0 -2.7,1 -3,2.8 z"
   id="path8609"
   style="fill:#010000" />

		</g>

		<g
   id="g8629">
			<path
   class="st16"
   d="m -1773.4,-9943.7 c 7.6,0 13.5,6.1 13.5,15.7 0,9.5 -5.9,15.9 -13.5,15.9 -4.6,0 -7.9,-2.4 -9.7,-4.9 v 18.9 h -7.5 v -45.1 h 7.5 v 4.4 c 1.8,-2.6 5.2,-4.9 9.7,-4.9 z m -1.9,6.8 c -4,0 -7.8,3.2 -7.8,9 0,5.8 3.8,9 7.8,9 4,0 7.8,-3.3 7.8,-9.1 0,-5.8 -3.8,-8.9 -7.8,-8.9 z"
   id="path8613"
   style="fill:#010000" />

			<path
   class="st16"
   d="m -1741.4,-9912.1 c -8.5,0 -15,-6.2 -15,-15.8 0,-9.7 6.7,-15.8 15.2,-15.8 8.5,0 15.2,6.1 15.2,15.8 0,9.6 -6.8,15.8 -15.4,15.8 z m 0,-6.8 c 3.9,0 7.7,-3 7.7,-9.1 0,-6.1 -3.7,-9.1 -7.6,-9.1 -3.9,0 -7.5,2.9 -7.5,9.1 0,6.1 3.4,9.1 7.4,9.1 z"
   id="path8615"
   style="fill:#010000" />

			<path
   class="st16"
   d="m -1719.3,-9936.9 h -3.5 v -6.3 h 3.5 v -7.6 h 7.5 v 7.6 h 6.6 v 6.3 h -6.6 v 14.8 c 0,2 0.8,2.9 3.1,2.9 h 3.5 v 6.5 h -4.7 c -5.6,0 -9.4,-2.5 -9.4,-9.5 z"
   id="path8617"
   style="fill:#010000" />

			<path
   class="st16"
   d="m -1692.4,-9912.6 h -7.5 v -30.6 h 7.5 v 4.7 c 1.9,-3.1 4.9,-5.2 9,-5.2 v 8.1 h -2 c -4.4,0 -7.1,1.8 -7.1,7.7 v 15.3 z"
   id="path8619"
   style="fill:#010000" />

			<path
   class="st16"
   d="m -1658.6,-9937 -13,18 h 13.1 v 6.3 h -21.6 v -6.2 l 12.9,-18 h -12.8 v -6.3 h 21.4 z"
   id="path8621"
   style="fill:#010000" />

			<path
   class="st16"
   d="m -1639.8,-9912.1 c -8.6,0 -14.8,-6.2 -14.8,-15.8 0,-9.7 6.1,-15.8 14.8,-15.8 8.5,0 14.5,6 14.5,15.1 0,1 -0.1,2 -0.2,3 h -21.6 c 0.4,4.5 3.4,7.1 7.1,7.1 3.2,0 4.9,-1.7 5.9,-3.7 h 8 c -1.5,5.6 -6.4,10.1 -13.7,10.1 z m -7.2,-18.7 h 14 c -0.1,-4 -3.2,-6.6 -7,-6.6 -3.5,0 -6.4,2.4 -7,6.6 z"
   id="path8623"
   style="fill:#010000" />

			<path
   class="st16"
   d="m -1602.6,-9943.7 c 7.6,0 13.5,6.1 13.5,15.7 0,9.5 -5.9,15.9 -13.5,15.9 -4.6,0 -7.9,-2.2 -9.7,-4.9 v 4.4 h -7.5 v -40.8 h 7.5 v 14.7 c 1.8,-2.9 5.2,-5 9.7,-5 z m -2,6.8 c -4,0 -7.8,3.2 -7.8,9 0,5.8 3.8,9 7.8,9 4,0 7.8,-3.3 7.8,-9.1 0,-5.8 -3.7,-8.9 -7.8,-8.9 z"
   id="path8625"
   style="fill:#010000" />

			<path
   class="st16"
   d="m -1563.4,-9943.2 h 7.9 l -18.3,45 h -7.9 l 6.4,-15.2 -11.8,-29.8 h 8.4 l 7.6,21.4 z"
   id="path8627"
   style="fill:#010000" />

		</g>

		<g
   id="g8635">
			<path
   class="st16"
   d="m -1827.6,-9927.8 c 0,-2.5 -1.4,-3.9 -3.5,-3.9 -2.2,0 -3.5,1.4 -3.5,3.9 v 8.7 h -4 v -15.7 h 4 v 2 c 1,-1.3 2.7,-2.2 4.7,-2.2 3.7,0 6.3,2.4 6.3,6.7 v 9.2 h -4 z"
   id="path8631"
   style="fill:#010000" />

			<path
   class="st16"
   d="m -1813.2,-9935.1 c 2.5,0 4.3,1.2 5.2,2.5 v -2.2 h 4 v 15.7 h -4 v -2.3 c -0.9,1.4 -2.7,2.6 -5.2,2.6 -4,0 -7.1,-3.3 -7.1,-8.2 0,-4.9 3.1,-8.1 7.1,-8.1 z m 1,3.5 c -2.1,0 -4.1,1.6 -4.1,4.6 0,3 2,4.7 4.1,4.7 2.2,0 4.2,-1.6 4.2,-4.6 0,-3 -2,-4.7 -4.2,-4.7 z"
   id="path8633"
   style="fill:#010000" />

		</g>

		<g
   id="g8639">
			<path
   class="st17"
   d="m -1439.1,-9863.9 c -2.3,0 -4.1,-1.9 -4.1,-4.2 0,-2.3 1.8,-4.2 4.1,-4.2 2.2,0 4,1.9 4,4.2 0,2.3 -1.8,4.2 -4,4.2 z"
   id="path8637"
   style="fill:#fdd203" />

		</g>

		<g
   id="g8651">
			<path
   d="m -2089,-9883.3 h -3.7 v -14.5 h 3.7 v 2.3 c 0.9,-1.5 2.4,-2.5 4.5,-2.5 v 3.9 h -1 c -2.2,0 -3.5,0.8 -3.5,3.6 z"
   id="path8641" />

			<path
   d="m -2071.6,-9897.9 h 3.9 l -9,21.4 h -3.9 l 3.1,-7.2 -5.8,-14.2 h 4.1 l 3.7,10.1 z"
   id="path8643" />

			<path
   d="m -2055.1,-9891.4 c 0,-2.3 -1.3,-3.6 -3.2,-3.6 -2,0 -3.3,1.3 -3.3,3.6 v 8 h -3.7 v -14.5 h 3.7 v 1.8 c 0.9,-1.2 2.5,-2 4.4,-2 3.4,0 5.8,2.2 5.8,6.2 v 8.5 h -3.7 z"
   id="path8645" />

			<path
   d="m -2047.4,-9902.7 h 3.7 v 11 l 4.9,-6.2 h 4.8 l -6.4,7.3 6.5,7.2 h -4.8 l -4.9,-6.2 v 6.2 h -3.7 v -19.3 z"
   id="path8647" />

			<path
   d="m -2017.9,-9883.3 h -3.7 v -1.8 c -0.9,1.2 -2.5,2 -4.3,2 -3.4,0 -5.8,-2.2 -5.8,-6.2 v -8.5 h 3.7 v 8 c 0,2.3 1.3,3.6 3.2,3.6 2,0 3.3,-1.3 3.3,-3.6 v -8 h 3.7 v 14.5 z"
   id="path8649" />

		</g>

		<g
   id="g8675">
			<path
   class="st18"
   d="m -2083.5,-9919.7 c -5.2,0 -9.2,-3.6 -9.2,-9.3 0,-5.7 4.1,-9.3 9.3,-9.3 5.2,0 9.3,3.6 9.3,9.3 0,5.6 -4.2,9.3 -9.4,9.3 z m 0,-4 c 2.4,0 4.7,-1.8 4.7,-5.3 0,-3.6 -2.2,-5.3 -4.7,-5.3 -2.4,0 -4.6,1.7 -4.6,5.3 0.1,3.6 2.2,5.3 4.6,5.3 z"
   id="path8653"
   style="fill:#cb151c" />

			<path
   class="st18"
   d="m -2063,-9938.3 c 2.4,0 4.7,1.1 5.9,2.8 v -8.6 h 4.6 v 24.1 h -4.6 v -2.7 c -1.1,1.7 -3.1,3 -5.9,3 -4.6,0 -8.2,-3.7 -8.2,-9.4 -0.1,-5.6 3.5,-9.2 8.2,-9.2 z m 1.1,4 c -2.4,0 -4.8,1.8 -4.8,5.2 0,3.4 2.3,5.4 4.8,5.4 2.5,0 4.8,-1.9 4.8,-5.3 0,-3.4 -2.3,-5.3 -4.8,-5.3 z"
   id="path8655"
   style="fill:#cb151c" />

			<path
   class="st18"
   d="m -2037,-9938.3 c 4.6,0 8.2,3.6 8.2,9.2 0,5.6 -3.6,9.4 -8.2,9.4 -2.8,0 -4.9,-1.4 -6,-2.9 v 11.2 h -4.6 v -26.6 h 4.6 v 2.6 c 1.1,-1.6 3.2,-2.9 6,-2.9 z m -1.2,4 c -2.4,0 -4.8,1.9 -4.8,5.3 0,3.4 2.3,5.3 4.8,5.3 2.5,0 4.8,-2 4.8,-5.4 0,-3.4 -2.3,-5.2 -4.8,-5.2 z"
   id="path8657"
   style="fill:#cb151c" />

			<path
   class="st18"
   d="m -2016.8,-9919.7 c -5.2,0 -9.2,-3.6 -9.2,-9.3 0,-5.7 4.1,-9.3 9.3,-9.3 5.2,0 9.3,3.6 9.3,9.3 0,5.6 -4.2,9.3 -9.4,9.3 z m 0,-4 c 2.4,0 4.7,-1.8 4.7,-5.3 0,-3.6 -2.2,-5.3 -4.7,-5.3 -2.4,0 -4.6,1.7 -4.6,5.3 0.1,3.6 2.1,5.3 4.6,5.3 z"
   id="path8659"
   style="fill:#cb151c" />

			<path
   class="st18"
   d="m -2005.5,-9938 h 4.6 l 3.2,13.7 3.5,-13.7 h 4.8 l 3.4,13.7 3.2,-13.7 h 4.4 l -5.3,18 h -4.9 l -3.3,-12.6 -3.3,12.6 h -4.9 z"
   id="path8661"
   style="fill:#cb151c" />

			<path
   class="st18"
   d="m -1975.9,-9942.9 c 0,-1.5 1.2,-2.7 2.8,-2.7 1.6,0 2.8,1.2 2.8,2.7 0,1.5 -1.2,2.7 -2.8,2.7 -1.6,0 -2.8,-1.2 -2.8,-2.7 z m 0.5,4.9 h 4.6 v 18 h -4.6 z"
   id="path8663"
   style="fill:#cb151c" />

			<path
   class="st18"
   d="m -1958.7,-9938.3 c 2.9,0 4.9,1.4 6,2.9 v -2.6 h 4.6 v 18 h -4.6 v -2.6 c -1.1,1.6 -3.1,2.9 -6,2.9 -4.6,0 -8.2,-3.7 -8.2,-9.4 0,-5.6 3.6,-9.2 8.2,-9.2 z m 1.2,4 c -2.4,0 -4.8,1.8 -4.8,5.2 0,3.4 2.3,5.4 4.8,5.4 2.5,0 4.8,-1.9 4.8,-5.3 0,-3.4 -2.3,-5.3 -4.8,-5.3 z"
   id="path8665"
   style="fill:#cb151c" />

			<path
   class="st18"
   d="m -1936,-9938.3 c 2.4,0 4.7,1.1 5.9,2.8 v -8.6 h 4.6 v 24.1 h -4.6 v -2.7 c -1.1,1.7 -3.1,3 -5.9,3 -4.6,0 -8.2,-3.7 -8.2,-9.4 -0.1,-5.6 3.6,-9.2 8.2,-9.2 z m 1.1,4 c -2.4,0 -4.8,1.8 -4.8,5.2 0,3.4 2.3,5.4 4.8,5.4 2.5,0 4.8,-1.9 4.8,-5.3 0,-3.4 -2.3,-5.3 -4.8,-5.3 z"
   id="path8667"
   style="fill:#cb151c" />

			<path
   class="st18"
   d="m -1913.4,-9938.3 c 2.9,0 4.9,1.4 6,2.9 v -2.6 h 4.6 v 18 h -4.6 v -2.6 c -1.1,1.6 -3.1,2.9 -6,2.9 -4.6,0 -8.2,-3.7 -8.2,-9.4 0,-5.6 3.6,-9.2 8.2,-9.2 z m 1.2,4 c -2.4,0 -4.8,1.8 -4.8,5.2 0,3.4 2.3,5.4 4.8,5.4 2.5,0 4.8,-1.9 4.8,-5.3 0,-3.4 -2.3,-5.3 -4.8,-5.3 z"
   id="path8669"
   style="fill:#cb151c" />

			<path
   class="st18"
   d="m -1872.6,-9930 c 0,-2.9 -1.6,-4.4 -4,-4.4 -2.4,0 -4,1.5 -4,4.4 v 10 h -4.6 v -10 c 0,-2.9 -1.6,-4.4 -4,-4.4 -2.5,0 -4.1,1.5 -4.1,4.4 v 10 h -4.6 v -18 h 4.6 v 2.2 c 1.1,-1.5 3.1,-2.4 5.3,-2.4 2.8,0 5.1,1.2 6.3,3.5 1.2,-2.1 3.5,-3.5 6.2,-3.5 4.3,0 7.4,2.7 7.4,7.7 v 10.6 h -4.6 v -10.1 z"
   id="path8671"
   style="fill:#cb151c" />

			<path
   class="st18"
   d="m -1850.7,-9938 h 4.9 l -11.2,26.6 h -4.9 l 3.9,-9 -7.2,-17.6 h 5.1 l 4.7,12.6 z"
   id="path8673"
   style="fill:#cb151c" />

		</g>

		<g
   id="g8685">
			<path
   d="m -1992.1,-9889.5 c 6.2,0 11.1,4.9 11.1,12.5 0,7.6 -4.9,12.7 -11.1,12.7 -3.8,0 -6.6,-1.9 -8.1,-3.9 v 15.1 h -6.2 v -36 h 6.2 v 3.5 c 1.5,-2 4.3,-3.9 8.1,-3.9 z m -1.6,5.4 c -3.3,0 -6.4,2.6 -6.4,7.2 0,4.6 3.1,7.2 6.4,7.2 3.3,0 6.5,-2.6 6.5,-7.3 0,-4.6 -3.1,-7.1 -6.5,-7.1 z"
   id="path8677" />

			<path
   d="m -1975.4,-9877.3 -2.9,0.9 v -5.1 l 2.9,-0.9 v -14.9 h 6.2 v 12.9 l 2.9,-0.9 v 5 l -2.9,1 v 14.6 h -6.2 z"
   id="path8679" />

			<path
   d="m -1945.3,-9889.1 h 6.6 l -15.1,35.9 h -6.6 l 5.3,-12.1 -9.8,-23.8 h 6.9 l 6.3,17 z"
   id="path8681" />

			<path
   d="m -1933.7,-9884 h -2.9 v -5.1 h 2.9 v -6 h 6.2 v 6 h 5.5 v 5.1 h -5.5 v 11.8 c 0,1.6 0.7,2.3 2.6,2.3 h 2.9 v 5.2 h -3.9 c -4.7,0 -7.8,-2 -7.8,-7.6 z"
   id="path8683" />

		</g>

		<g
   id="g8719">
			<path
   class="st17"
   d="m -1896,-9889.5 c 3.2,0 6.3,1.5 8,3.8 v -11.6 h 6.2 v 32.6 h -6.2 v -3.6 c -1.5,2.2 -4.2,4 -8,4 -6.2,0 -11.1,-5.1 -11.1,-12.7 0,-7.6 4.9,-12.5 11.1,-12.5 z m 1.6,5.4 c -3.3,0 -6.4,2.5 -6.4,7.1 0,4.6 3.1,7.3 6.4,7.3 3.4,0 6.5,-2.6 6.5,-7.2 0,-4.6 -3.1,-7.2 -6.5,-7.2 z"
   id="path8687"
   style="fill:#fdd203" />

			<path
   class="st17"
   d="m -1868.8,-9864.7 h -6.2 v -24.4 h 6.2 v 3.8 c 1.5,-2.5 4.1,-4.1 7.5,-4.1 v 6.5 h -1.6 c -3.7,0 -5.9,1.4 -5.9,6.1 z"
   id="path8689"
   style="fill:#fdd203" />

			<path
   class="st17"
   d="m -1845.7,-9864.3 c -7.1,0 -12.2,-4.9 -12.2,-12.6 0,-7.7 5,-12.6 12.2,-12.6 7,0 12,4.8 12,12.1 0,0.8 0,1.6 -0.2,2.4 h -17.8 c 0.3,3.6 2.8,5.6 5.9,5.6 2.6,0 4.1,-1.3 4.9,-2.9 h 6.6 c -1.3,4.4 -5.4,8 -11.4,8 z m -6,-14.9 h 11.6 c -0.1,-3.2 -2.6,-5.2 -5.8,-5.2 -2.9,0 -5.3,1.9 -5.8,5.2 z"
   id="path8691"
   style="fill:#fdd203" />

			<path
   class="st17"
   d="m -1831.2,-9889.1 h 6.2 l 4.3,18.6 4.7,-18.6 h 6.5 l 4.6,18.5 4.3,-18.5 h 5.9 l -7.1,24.4 h -6.6 l -4.4,-17 -4.4,17 h -6.7 z"
   id="path8693"
   style="fill:#fdd203" />

			<path
   class="st17"
   d="m -1773.4,-9878.2 c 0,-3.9 -2.2,-6 -5.4,-6 -3.3,0 -5.5,2.1 -5.5,6 v 13.5 h -6.2 v -24.4 h 6.2 v 3 c 1.6,-2.1 4.2,-3.4 7.3,-3.4 5.7,0 9.7,3.7 9.7,10.4 v 14.3 h -6.2 v -13.4 z"
   id="path8695"
   style="fill:#fdd203" />

			<path
   class="st17"
   d="m -1749.8,-9864.3 c -7,0 -12.4,-4.9 -12.4,-12.6 0,-7.7 5.5,-12.6 12.5,-12.6 7,0 12.5,4.9 12.5,12.6 0.1,7.7 -5.5,12.6 -12.6,12.6 z m 0,-5.4 c 3.3,0 6.4,-2.4 6.4,-7.2 0,-4.9 -3,-7.2 -6.3,-7.2 -3.3,0 -6.2,2.3 -6.2,7.2 0,4.8 2.8,7.2 6.1,7.2 z"
   id="path8697"
   style="fill:#fdd203" />

			<path
   class="st17"
   d="m -1717.6,-9889.5 c 6.2,0 11.1,4.9 11.1,12.5 0,7.6 -4.9,12.7 -11.1,12.7 -3.8,0 -6.6,-1.9 -8.1,-3.9 v 15.1 h -6.2 v -36 h 6.2 v 3.5 c 1.5,-2 4.4,-3.9 8.1,-3.9 z m -1.6,5.4 c -3.3,0 -6.4,2.6 -6.4,7.2 0,4.6 3.1,7.2 6.4,7.2 3.3,0 6.5,-2.6 6.5,-7.3 0,-4.6 -3.1,-7.1 -6.5,-7.1 z"
   id="path8699"
   style="fill:#fdd203" />

			<path
   class="st17"
   d="m -1690.3,-9864.3 c -7,0 -12.4,-4.9 -12.4,-12.6 0,-7.7 5.5,-12.6 12.5,-12.6 7,0 12.5,4.9 12.5,12.6 0.1,7.7 -5.5,12.6 -12.6,12.6 z m 0,-5.4 c 3.3,0 6.4,-2.4 6.4,-7.2 0,-4.9 -3,-7.2 -6.3,-7.2 -3.3,0 -6.2,2.3 -6.2,7.2 0,4.8 2.8,7.2 6.1,7.2 z"
   id="path8701"
   style="fill:#fdd203" />

			<path
   class="st17"
   d="m -1661.8,-9889.5 c 6.1,0 10.2,3.2 11.5,8.6 h -6.6 c -0.7,-2.1 -2.3,-3.4 -4.9,-3.4 -3.4,0 -5.7,2.6 -5.7,7.3 0,4.7 2.3,7.3 5.7,7.3 2.6,0 4.1,-1.1 4.9,-3.3 h 6.6 c -1.3,5.2 -5.4,8.6 -11.5,8.6 -7,0 -12.1,-4.9 -12.1,-12.6 0,-7.7 5.1,-12.5 12.1,-12.5 z"
   id="path8703"
   style="fill:#fdd203" />

			<path
   class="st17"
   d="m -1645,-9897.3 h 6.2 v 11.2 c 1.6,-2.1 4.3,-3.4 7.6,-3.4 5.5,0 9.5,3.7 9.5,10.4 v 14.3 h -6.2 v -13.5 c 0,-3.9 -2.2,-6 -5.4,-6 -3.3,0 -5.5,2.1 -5.5,6 v 13.5 h -6.2 z"
   id="path8705"
   style="fill:#fdd203" />

			<path
   class="st17"
   d="m -1604.3,-9864.3 c -7,0 -12.4,-4.9 -12.4,-12.6 0,-7.7 5.5,-12.6 12.5,-12.6 7,0 12.5,4.9 12.5,12.6 0.1,7.7 -5.5,12.6 -12.6,12.6 z m 0,-5.4 c 3.3,0 6.4,-2.4 6.4,-7.2 0,-4.9 -3,-7.2 -6.3,-7.2 -3.3,0 -6.2,2.3 -6.2,7.2 0,4.8 2.8,7.2 6.1,7.2 z"
   id="path8707"
   style="fill:#fdd203" />

			<path
   class="st17"
   d="m -1576.7,-9889.5 c 3.2,0 6.3,1.5 8,3.8 v -11.6 h 6.2 v 32.6 h -6.2 v -3.6 c -1.5,2.2 -4.2,4 -8,4 -6.2,0 -11.1,-5.1 -11.1,-12.7 0,-7.6 4.9,-12.5 11.1,-12.5 z m 1.6,5.4 c -3.3,0 -6.4,2.5 -6.4,7.1 0,4.6 3.1,7.3 6.4,7.3 3.4,0 6.5,-2.6 6.5,-7.2 0,-4.6 -3.1,-7.2 -6.5,-7.2 z"
   id="path8709"
   style="fill:#fdd203" />

			<path
   class="st17"
   d="m -1538.6,-9878.2 c 0,-3.9 -2.2,-6 -5.4,-6 -3.3,0 -5.5,2.1 -5.5,6 v 13.5 h -6.2 v -24.4 h 6.2 v 3 c 1.6,-2.1 4.2,-3.4 7.3,-3.4 5.7,0 9.7,3.7 9.7,10.4 v 14.3 h -6.2 v -13.4 z"
   id="path8711"
   style="fill:#fdd203" />

			<path
   class="st17"
   d="m -1509,-9889.1 h 6.6 l -15.1,35.9 h -6.6 l 5.3,-12.1 -9.8,-23.8 h 6.9 l 6.3,17 z"
   id="path8713"
   style="fill:#fdd203" />

			<path
   class="st17"
   d="m -1487.9,-9889.5 c 6.1,0 10.2,3.2 11.5,8.6 h -6.6 c -0.7,-2.1 -2.3,-3.4 -4.9,-3.4 -3.4,0 -5.7,2.6 -5.7,7.3 0,4.7 2.3,7.3 5.7,7.3 2.6,0 4.1,-1.1 4.9,-3.3 h 6.6 c -1.3,5.2 -5.4,8.6 -11.5,8.6 -7,0 -12.1,-4.9 -12.1,-12.6 0,-7.7 5.1,-12.5 12.1,-12.5 z"
   id="path8715"
   style="fill:#fdd203" />

			<path
   class="st17"
   d="m -1471.1,-9897.3 h 6.2 v 11.2 c 1.6,-2.1 4.3,-3.4 7.6,-3.4 5.5,0 9.5,3.7 9.5,10.4 v 14.3 h -6.2 v -13.5 c 0,-3.9 -2.2,-6 -5.4,-6 -3.3,0 -5.5,2.1 -5.5,6 v 13.5 h -6.2 z"
   id="path8717"
   style="fill:#fdd203" />

		</g>

	</g>

</g>
  </g>
</svg>
