<?xml version="1.0" encoding="UTF-8"?>
<svg id="Warstwa_2" data-name="Warstwa 2" xmlns="http://www.w3.org/2000/svg" viewBox="0 0 657.56 121.29">
  <defs>
    <style>
      .cls-1 {
        fill: #000;
      }

      .cls-1, .cls-2, .cls-3, .cls-4 {
        stroke-width: 0px;
      }

      .cls-2 {
        fill: #cb151c;
      }

      .cls-3 {
        fill: #010000;
      }

      .cls-4 {
        fill: #fdd203;
      }
    </style>
  </defs>
  <g id="Warstwa_1-2" data-name="Warstwa 1">
    <g>
      <g>
        <path class="cls-3" d="M13.56,2v16.46h-3.18L3.18,7.18v11.28H0V2h3.18l7.2,11.3V2h3.18Z"/>
        <path class="cls-3" d="M16.35,1.93c0-1.08.82-1.93,1.95-1.93s1.95.85,1.95,1.93-.84,1.93-1.95,1.93-1.95-.85-1.95-1.93ZM16.69,5.42h3.18v13.05h-3.18V5.42Z"/>
        <path class="cls-3" d="M28.5,18.67c-3.66,0-6.31-2.64-6.31-6.73s2.59-6.74,6.31-6.74,6.2,2.57,6.2,6.45c0,.42-.02.85-.09,1.27h-9.2c.16,1.93,1.43,3.01,3.02,3.01,1.36,0,2.11-.71,2.52-1.58h3.43c-.68,2.4-2.77,4.31-5.88,4.31ZM25.44,10.71h5.97c-.05-1.72-1.36-2.8-3-2.8-1.52,0-2.72,1.01-2.97,2.8Z"/>
        <path class="cls-3" d="M48.89,18.46h-3.2v-1.65c-.79,1.11-2.18,1.81-3.75,1.81-2.93,0-5.04-1.98-5.04-5.56v-7.65h3.18v7.18c0,2.1,1.11,3.23,2.79,3.23s2.82-1.13,2.82-3.23v-7.18h3.2v13.05Z"/>
        <path class="cls-3" d="M56.84,18.67c-3.16,0-5.36-1.91-5.49-4.33h3.2c.11.99,1,1.74,2.27,1.74s1.93-.59,1.93-1.34c0-2.33-7.11-.85-7.11-5.63,0-2.17,1.86-3.91,4.97-3.91s4.88,1.72,5.06,4.31h-3.04c-.09-1.01-.86-1.7-2.11-1.7-1.18,0-1.79.49-1.79,1.25,0,2.38,6.97.9,7.06,5.68,0,2.24-1.89,3.93-4.95,3.93Z"/>
        <path class="cls-3" d="M64.91,8.12h-1.5v-2.71h1.5v-3.23h3.2v3.23h2.82v2.71h-2.82v6.31c0,.87.34,1.25,1.34,1.25h1.48v2.78h-2c-2.41,0-4.02-1.06-4.02-4.05v-6.29Z"/>
        <path class="cls-3" d="M78.15,5.2c2.02,0,3.41.99,4.16,2.07v-1.86h3.2v13.05h-3.2v-1.91c-.75,1.13-2.18,2.12-4.18,2.12-3.18,0-5.72-2.71-5.72-6.78s2.54-6.69,5.75-6.69ZM78.96,8.1c-1.7,0-3.32,1.32-3.32,3.79s1.61,3.89,3.32,3.89,3.34-1.37,3.34-3.84-1.59-3.84-3.34-3.84Z"/>
        <path class="cls-3" d="M97.43,11.26c0-2.1-1.11-3.23-2.79-3.23s-2.84,1.13-2.84,3.23v7.21h-3.18V5.42h3.18v1.62c.82-1.11,2.18-1.81,3.79-1.81,2.93,0,5.02,1.98,5.02,5.58v7.65h-3.18v-7.21Z"/>
        <path class="cls-3" d="M112.44,11.26c0-2.1-1.11-3.23-2.79-3.23s-2.84,1.13-2.84,3.23v7.21h-3.18V5.42h3.18v1.62c.82-1.11,2.18-1.81,3.79-1.81,2.93,0,5.02,1.98,5.02,5.58v7.65h-3.18v-7.21Z"/>
        <path class="cls-3" d="M118.3,1.93c0-1.08.82-1.93,1.95-1.93s1.95.85,1.95,1.93-.84,1.93-1.95,1.93-1.95-.85-1.95-1.93ZM118.64,5.42h3.18v13.05h-3.18V5.42Z"/>
        <path class="cls-3" d="M130.45,18.67c-3.66,0-6.31-2.64-6.31-6.73s2.59-6.74,6.31-6.74,6.2,2.57,6.2,6.45c0,.42-.02.85-.09,1.27h-9.2c.16,1.93,1.43,3.01,3.02,3.01,1.36,0,2.11-.71,2.52-1.58h3.43c-.68,2.4-2.77,4.31-5.88,4.31ZM127.38,10.71h5.97c-.05-1.72-1.36-2.8-3-2.8-1.52,0-2.72,1.01-2.97,2.8Z"/>
      </g>
      <g>
        <path class="cls-3" d="M319.28,30.68c7.56,0,13.46,6.13,13.46,15.67s-5.91,15.9-13.46,15.9c-4.63,0-7.93-2.37-9.74-4.86v18.93h-7.45V31.17h7.45v4.41c1.76-2.59,5.16-4.91,9.74-4.91ZM317.31,37.47c-3.99,0-7.77,3.2-7.77,9s3.78,9,7.77,9,7.82-3.31,7.82-9.11-3.78-8.89-7.82-8.89Z"/>
        <path class="cls-3" d="M351.27,62.25c-8.52,0-14.96-6.18-14.96-15.78s6.65-15.79,15.17-15.79,15.17,6.13,15.17,15.79-6.81,15.78-15.38,15.78ZM351.27,55.51c3.94,0,7.72-2.98,7.72-9.05s-3.67-9.05-7.61-9.05-7.5,2.93-7.5,9.05,3.41,9.05,7.4,9.05Z"/>
        <path class="cls-3" d="M373.31,37.52h-3.51v-6.35h3.51v-7.56h7.5v7.56h6.6v6.35h-6.6v14.79c0,2.04.8,2.93,3.14,2.93h3.46v6.51h-4.68c-5.64,0-9.42-2.48-9.42-9.49v-14.74Z"/>
        <path class="cls-3" d="M400.24,61.75h-7.45v-30.58h7.45v4.75c1.86-3.15,4.95-5.19,9.05-5.19v8.11h-1.97c-4.42,0-7.08,1.77-7.08,7.67v15.23Z"/>
        <path class="cls-3" d="M434.09,37.41l-12.99,17.99h13.15v6.35h-21.61v-6.24l12.88-17.99h-12.83v-6.35h21.39v6.24Z"/>
        <path class="cls-3" d="M452.88,62.25c-8.57,0-14.8-6.18-14.8-15.78s6.07-15.79,14.8-15.79,14.53,6.02,14.53,15.12c0,.99-.05,1.99-.21,2.98h-21.55c.37,4.53,3.35,7.06,7.08,7.06,3.19,0,4.95-1.66,5.91-3.7h8.04c-1.6,5.63-6.49,10.1-13.78,10.1ZM445.69,43.59h14c-.11-4.03-3.19-6.57-7.03-6.57-3.56,0-6.39,2.37-6.97,6.57Z"/>
        <path class="cls-3" d="M490.03,30.68c7.56,0,13.46,6.13,13.46,15.67s-5.91,15.9-13.46,15.9c-4.63,0-7.93-2.21-9.74-4.86v4.36h-7.45V20.91h7.45v14.74c1.81-2.82,5.27-4.97,9.74-4.97ZM488.06,37.47c-3.99,0-7.77,3.2-7.77,9s3.78,9,7.77,9,7.82-3.31,7.82-9.11-3.78-8.89-7.82-8.89Z"/>
        <path class="cls-3" d="M529.2,31.17h7.93l-18.25,45.04h-7.93l6.39-15.23-11.82-29.8h8.36l7.61,21.36,7.72-21.36Z"/>
      </g>
      <g>
        <path class="cls-3" d="M265.03,46.55c0-2.52-1.39-3.88-3.49-3.88s-3.54,1.36-3.54,3.88v8.68h-3.97v-15.71h3.97v1.96c1.02-1.33,2.72-2.18,4.73-2.18,3.66,0,6.26,2.38,6.26,6.72v9.21h-3.97v-8.68Z"/>
        <path class="cls-3" d="M279.43,39.26c2.52,0,4.25,1.19,5.19,2.49v-2.24h4v15.71h-4v-2.3c-.94,1.36-2.72,2.55-5.22,2.55-3.97,0-7.14-3.26-7.14-8.17s3.18-8.05,7.17-8.05ZM280.45,42.75c-2.13,0-4.14,1.59-4.14,4.56s2.01,4.68,4.14,4.68,4.17-1.64,4.17-4.62-1.98-4.62-4.17-4.62Z"/>
      </g>
      <path class="cls-4" d="M653.53,110.44c-2.29,0-4.08-1.85-4.08-4.23s1.79-4.23,4.08-4.23,4.02,1.85,4.02,4.23-1.79,4.23-4.02,4.23Z"/>
      <g>
        <path class="cls-1" d="M3.67,91.06H0v-14.53h3.67v2.26c.92-1.49,2.44-2.46,4.46-2.46v3.85h-.97c-2.18,0-3.49.84-3.49,3.64v7.24Z"/>
        <path class="cls-1" d="M21.05,76.53h3.91l-8.99,21.4h-3.91l3.15-7.24-5.82-14.16h4.12l3.75,10.15,3.8-10.15Z"/>
        <path class="cls-1" d="M37.57,83.04c0-2.33-1.29-3.59-3.23-3.59s-3.28,1.26-3.28,3.59v8.02h-3.67v-14.53h3.67v1.81c.94-1.23,2.52-2.02,4.38-2.02,3.38,0,5.8,2.2,5.8,6.21v8.52h-3.67v-8.02Z"/>
        <path class="cls-1" d="M45.2,71.66h3.67v11.04l4.88-6.16h4.77l-6.4,7.29,6.45,7.24h-4.77l-4.93-6.19v6.19h-3.67v-19.4Z"/>
        <path class="cls-1" d="M74.7,91.06h-3.7v-1.84c-.92,1.23-2.52,2.02-4.33,2.02-3.38,0-5.82-2.2-5.82-6.19v-8.52h3.67v8c0,2.33,1.28,3.59,3.22,3.59s3.25-1.26,3.25-3.59v-8h3.7v14.53Z"/>
      </g>
      <g>
        <path class="cls-2" d="M9.15,54.67c-5.21,0-9.15-3.65-9.15-9.31s4.07-9.31,9.28-9.31,9.28,3.61,9.28,9.31-4.17,9.31-9.41,9.31ZM9.15,50.7c2.41,0,4.72-1.76,4.72-5.34s-2.25-5.34-4.66-5.34-4.59,1.73-4.59,5.34,2.08,5.34,4.53,5.34Z"/>
        <path class="cls-2" d="M29.6,36.05c2.38,0,4.66,1.11,5.89,2.8v-8.56h4.62v24.1h-4.62v-2.67c-1.07,1.66-3.09,2.96-5.93,2.96-4.59,0-8.24-3.74-8.24-9.38s3.65-9.25,8.27-9.25ZM30.74,40.05c-2.44,0-4.75,1.82-4.75,5.24s2.31,5.37,4.75,5.37,4.79-1.89,4.79-5.31-2.28-5.31-4.79-5.31Z"/>
        <path class="cls-2" d="M55.67,36.05c4.62,0,8.24,3.61,8.24,9.25s-3.61,9.38-8.24,9.38c-2.83,0-4.85-1.4-5.96-2.87v11.17h-4.56v-26.64h4.56v2.6c1.07-1.53,3.16-2.9,5.96-2.9ZM54.47,40.05c-2.44,0-4.75,1.89-4.75,5.31s2.31,5.31,4.75,5.31,4.79-1.95,4.79-5.37-2.31-5.24-4.79-5.24Z"/>
        <path class="cls-2" d="M75.83,54.67c-5.21,0-9.15-3.65-9.15-9.31s4.07-9.31,9.28-9.31,9.28,3.61,9.28,9.31-4.17,9.31-9.41,9.31ZM75.83,50.7c2.41,0,4.72-1.76,4.72-5.34s-2.25-5.34-4.66-5.34-4.59,1.73-4.59,5.34,2.08,5.34,4.53,5.34Z"/>
        <path class="cls-2" d="M87.15,36.34h4.62l3.19,13.74,3.45-13.74h4.82l3.39,13.71,3.19-13.71h4.36l-5.27,18.04h-4.92l-3.29-12.6-3.29,12.6h-4.95l-5.31-18.04Z"/>
        <path class="cls-2" d="M116.75,31.52c0-1.5,1.17-2.67,2.8-2.67s2.8,1.17,2.8,2.67-1.2,2.67-2.8,2.67-2.8-1.17-2.8-2.67ZM117.24,36.34h4.56v18.04h-4.56v-18.04Z"/>
        <path class="cls-2" d="M133.94,36.05c2.9,0,4.88,1.37,5.96,2.87v-2.57h4.59v18.04h-4.59v-2.64c-1.07,1.56-3.13,2.93-5.99,2.93-4.56,0-8.21-3.74-8.21-9.38s3.65-9.25,8.24-9.25ZM135.11,40.05c-2.44,0-4.75,1.82-4.75,5.24s2.31,5.37,4.75,5.37,4.79-1.89,4.79-5.31-2.28-5.31-4.79-5.31Z"/>
        <path class="cls-2" d="M160.48,36.05c1.51,0,2.95,1.11,3.74,2.8v-8.56h2.93v24.1h-2.93v-2.67c-.68,1.66-1.96,2.96-3.76,2.96-2.91,0-5.23-3.74-5.23-9.38s2.31-9.25,5.25-9.25ZM161.2,40.05c-1.55,0-3.02,1.82-3.02,5.24s1.47,5.37,3.02,5.37,3.04-1.89,3.04-5.31-1.45-5.31-3.04-5.31Z"/>
        <path class="cls-2" d="M179.26,36.05c2.9,0,4.88,1.37,5.96,2.87v-2.57h4.59v18.04h-4.59v-2.64c-1.07,1.56-3.13,2.93-5.99,2.93-4.56,0-8.21-3.74-8.21-9.38s3.65-9.25,8.24-9.25ZM180.43,40.05c-2.44,0-4.75,1.82-4.75,5.24s2.31,5.37,4.75,5.37,4.79-1.89,4.79-5.31-2.28-5.31-4.79-5.31Z"/>
        <path class="cls-2" d="M220.09,44.42c0-2.87-1.6-4.36-4.01-4.36s-4.04,1.5-4.04,4.36v9.96h-4.56v-9.96c0-2.87-1.6-4.36-4.01-4.36s-4.07,1.5-4.07,4.36v9.96h-4.56v-18.04h4.56v2.18c1.14-1.5,3.06-2.44,5.31-2.44,2.8,0,5.11,1.2,6.35,3.45,1.17-2.05,3.55-3.45,6.19-3.45,4.33,0,7.39,2.74,7.39,7.72v10.58h-4.56v-9.96Z"/>
        <path class="cls-2" d="M241.97,36.34h4.85l-11.17,26.57h-4.85l3.91-8.99-7.23-17.58h5.11l4.66,12.6,4.72-12.6Z"/>
      </g>
      <g>
        <path class="cls-1" d="M100.58,84.9c6.25,0,11.13,4.88,11.13,12.5s-4.88,12.67-11.13,12.67c-3.83,0-6.56-1.89-8.05-3.87v15.09h-6.16v-36h6.16v3.52c1.45-2.07,4.27-3.92,8.05-3.92ZM98.95,90.31c-3.3,0-6.42,2.55-6.42,7.17s3.12,7.17,6.42,7.17,6.47-2.64,6.47-7.26-3.12-7.08-6.47-7.08Z"/>
        <path class="cls-1" d="M117.25,97.09l-2.9.92v-5.06l2.9-.92v-14.92h6.16v12.94l2.95-.92v5.02l-2.95.97v14.57h-6.16v-12.59Z"/>
        <path class="cls-1" d="M147.31,85.3h6.56l-15.09,35.91h-6.56l5.28-12.15-9.77-23.76h6.91l6.29,17.03,6.38-17.03Z"/>
        <path class="cls-1" d="M158.92,90.36h-2.9v-5.06h2.9v-6.03h6.21v6.03h5.46v5.06h-5.46v11.79c0,1.63.66,2.33,2.6,2.33h2.86v5.19h-3.87c-4.67,0-7.79-1.98-7.79-7.57v-11.75Z"/>
      </g>
      <g>
        <path class="cls-4" d="M196.67,84.9c3.21,0,6.29,1.5,7.96,3.78v-11.57h6.25v32.56h-6.25v-3.61c-1.45,2.24-4.18,4-8.01,4-6.21,0-11.13-5.06-11.13-12.67s4.93-12.5,11.18-12.5ZM198.21,90.31c-3.3,0-6.42,2.46-6.42,7.08s3.12,7.26,6.42,7.26,6.47-2.55,6.47-7.17-3.08-7.17-6.47-7.17Z"/>
        <path class="cls-4" d="M223.86,109.68h-6.16v-24.38h6.16v3.78c1.54-2.51,4.09-4.14,7.48-4.14v6.47h-1.63c-3.65,0-5.85,1.41-5.85,6.12v12.15Z"/>
        <path class="cls-4" d="M246.92,110.07c-7.08,0-12.23-4.93-12.23-12.59s5.02-12.59,12.23-12.59,12.01,4.8,12.01,12.06c0,.79-.04,1.58-.18,2.38h-17.82c.31,3.61,2.77,5.63,5.85,5.63,2.64,0,4.09-1.32,4.88-2.95h6.65c-1.32,4.49-5.37,8.05-11.4,8.05ZM240.98,95.2h11.57c-.09-3.21-2.64-5.24-5.81-5.24-2.95,0-5.28,1.89-5.76,5.24Z"/>
        <path class="cls-4" d="M261.48,85.3h6.25l4.31,18.57,4.67-18.57h6.51l4.58,18.53,4.31-18.53h5.9l-7.13,24.38h-6.64l-4.45-17.03-4.44,17.03h-6.69l-7.17-24.38Z"/>
        <path class="cls-4" d="M319.21,96.21c0-3.92-2.16-6.03-5.41-6.03s-5.5,2.11-5.5,6.03v13.47h-6.16v-24.38h6.16v3.04c1.58-2.07,4.22-3.39,7.35-3.39,5.68,0,9.73,3.7,9.73,10.43v14.3h-6.16v-13.47Z"/>
        <path class="cls-4" d="M342.84,110.07c-7.04,0-12.37-4.93-12.37-12.59s5.5-12.59,12.54-12.59,12.54,4.88,12.54,12.59-5.63,12.59-12.72,12.59ZM342.84,104.7c3.26,0,6.38-2.38,6.38-7.22s-3.04-7.22-6.29-7.22-6.21,2.33-6.21,7.22,2.82,7.22,6.12,7.22Z"/>
        <path class="cls-4" d="M375.09,84.9c6.25,0,11.13,4.88,11.13,12.5s-4.88,12.67-11.13,12.67c-3.83,0-6.56-1.89-8.05-3.87v15.09h-6.16v-36h6.16v3.52c1.45-2.07,4.27-3.92,8.05-3.92ZM373.46,90.31c-3.3,0-6.42,2.55-6.42,7.17s3.12,7.17,6.42,7.17,6.47-2.64,6.47-7.26-3.12-7.08-6.47-7.08Z"/>
        <path class="cls-4" d="M402.33,110.07c-7.04,0-12.37-4.93-12.37-12.59s5.5-12.59,12.54-12.59,12.54,4.88,12.54,12.59-5.63,12.59-12.72,12.59ZM402.33,104.7c3.26,0,6.38-2.38,6.38-7.22s-3.04-7.22-6.29-7.22-6.21,2.33-6.21,7.22,2.82,7.22,6.12,7.22Z"/>
        <path class="cls-4" d="M430.84,84.9c6.07,0,10.17,3.17,11.49,8.62h-6.64c-.7-2.07-2.33-3.39-4.88-3.39-3.43,0-5.72,2.6-5.72,7.35s2.29,7.31,5.72,7.31c2.55,0,4.14-1.14,4.88-3.34h6.64c-1.32,5.19-5.41,8.62-11.49,8.62-7.04,0-12.06-4.93-12.06-12.59s5.02-12.59,12.06-12.59Z"/>
        <path class="cls-4" d="M447.64,77.11h6.16v11.22c1.58-2.07,4.31-3.39,7.57-3.39,5.5,0,9.5,3.7,9.5,10.43v14.3h-6.16v-13.47c0-3.92-2.16-6.03-5.41-6.03s-5.5,2.11-5.5,6.03v13.47h-6.16v-32.56Z"/>
        <path class="cls-4" d="M488.35,110.07c-7.04,0-12.37-4.93-12.37-12.59s5.5-12.59,12.54-12.59,12.54,4.88,12.54,12.59-5.63,12.59-12.72,12.59ZM488.35,104.7c3.26,0,6.38-2.38,6.38-7.22s-3.04-7.22-6.29-7.22-6.21,2.33-6.21,7.22,2.82,7.22,6.12,7.22Z"/>
        <path class="cls-4" d="M515.98,84.9c3.21,0,6.29,1.5,7.96,3.78v-11.57h6.25v32.56h-6.25v-3.61c-1.45,2.24-4.18,4-8.01,4-6.21,0-11.13-5.06-11.13-12.67s4.93-12.5,11.18-12.5ZM517.52,90.31c-3.3,0-6.42,2.46-6.42,7.08s3.12,7.26,6.42,7.26,6.47-2.55,6.47-7.17-3.08-7.17-6.47-7.17Z"/>
        <path class="cls-4" d="M554.08,96.21c0-3.92-2.16-6.03-5.41-6.03s-5.5,2.11-5.5,6.03v13.47h-6.16v-24.38h6.16v3.04c1.58-2.07,4.22-3.39,7.35-3.39,5.68,0,9.73,3.7,9.73,10.43v14.3h-6.16v-13.47Z"/>
        <path class="cls-4" d="M583.65,85.3h6.56l-15.09,35.91h-6.56l5.28-12.15-9.77-23.76h6.91l6.29,17.03,6.38-17.03Z"/>
        <path class="cls-4" d="M604.77,84.9c6.07,0,10.17,3.17,11.49,8.62h-6.64c-.7-2.07-2.33-3.39-4.88-3.39-3.43,0-5.72,2.6-5.72,7.35s2.29,7.31,5.72,7.31c2.55,0,4.14-1.14,4.88-3.34h6.64c-1.32,5.19-5.41,8.62-11.49,8.62-7.04,0-12.06-4.93-12.06-12.59s5.02-12.59,12.06-12.59Z"/>
        <path class="cls-4" d="M621.57,77.11h6.16v11.22c1.58-2.07,4.31-3.39,7.57-3.39,5.5,0,9.5,3.7,9.5,10.43v14.3h-6.16v-13.47c0-3.92-2.16-6.03-5.41-6.03s-5.5,2.11-5.5,6.03v13.47h-6.16v-32.56Z"/>
      </g>
    </g>
  </g>
</svg>